{
  "asset": {
    "generator": "Khronos glTF Blender I/O v5.0.21",
    "version": "2.0"
  },
  "extensionsUsed": [
    "KHR_materials_clearcoat",
    "KHR_materials_specular",
    "KHR_materials_ior",
    "KHR_texture_transform"
  ],
  "extensionsRequired": [
    "KHR_texture_transform"
  ],
  "scene": 0,
  "scenes": [
    {
      "name": "Scene",
      "nodes": [
        0,
        1,
        2,
        3,
        4,
        5,
        6,
        7,
        8,
        9,
        10,
        11,
        12,
        13,
        14,
        15,
        16,
        17,
        18,
        19,
        20,
        21,
        22,
        23,
        24,
        25,
        26,
        27,
        28,
        29,
        30,
        31,
        32,
        33,
        34,
        35,
        36,
        37,
        38,
        39,
        40,
        41,
        42,
        43,
        44,
        45,
        46,
        47,
        48,
        49,
        50,
        51,
        52,
        53,
        54,
        55,
        56,
        57,
        58,
        59,
        60,
        61,
        62,
        63,
        64,
        65,
        66,
        67,
        68,
        69,
        70
      ]
    }
  ],
  "nodes": [
    {
      "mesh": 0,
      "name": "SM_ENV_bush_castle_05_LOD0.001",
      "rotation": [
        0.37240132689476013,
        -0.539626955986023,
        0.19277769327163696,
        0.7300388813018799
      ],
      "scale": [
        1.14139986038208,
        1.14139986038208,
        1.1413999795913696
      ],
      "translation": [
        32.098514556884766,
        19.218612670898438,
        -19.187854766845703
      ]
    },
    {
      "mesh": 1,
      "name": "SM_MOD_floor_broken_castle_01_LOD0.001",
      "rotation": [
        0,
        0.4091358482837677,
        0,
        0.9124734997749329
      ],
      "scale": [
        0.5,
        0.5,
        0.5
      ],
      "translation": [
        63.572505950927734,
        12.619613647460938,
        -9.679855346679688
      ]
    },
    {
      "mesh": 2,
      "name": "SM_MOD_railing_02_straight_castle_LOD0.010",
      "rotation": [
        0,
        0.6587109565734863,
        0,
        0.7523961067199707
      ],
      "translation": [
        61.72151565551758,
        12.6826171875,
        -11.08685302734375
      ]
    },
    {
      "mesh": 2,
      "name": "SM_MOD_railing_02_straight_castle_LOD0.019",
      "rotation": [
        -0.07832325249910355,
        0.8209468126296997,
        -0.05827844515442848,
        0.5625970363616943
      ],
      "translation": [
        40.80051803588867,
        9.378616333007812,
        -19.019851684570312
      ]
    },
    {
      "mesh": 3,
      "name": "SM_MOD_railing_02_straight_half_castle_LOD0.002",
      "rotation": [
        0,
        0.42334410548210144,
        0,
        0.9059690833091736
      ],
      "translation": [
        60.085514068603516,
        12.598617553710938,
        -7.53485107421875
      ]
    },
    {
      "mesh": 4,
      "name": "SM_ENV_bush_castle_07_LOD0.008",
      "rotation": [
        0.14622655510902405,
        -0.10998724400997162,
        -0.19403383135795593,
        0.9637798070907593
      ],
      "scale": [
        1.4254615306854248,
        1.4254612922668457,
        1.4254611730575562
      ],
      "translation": [
        32.788516998291016,
        16.408615112304688,
        -21.777854919433594
      ]
    },
    {
      "mesh": 4,
      "name": "SM_ENV_bush_castle_07_LOD0.009",
      "rotation": [
        0.02257511205971241,
        -0.5227375626564026,
        0.07629405707120895,
        0.8487727046012878
      ],
      "translation": [
        39.01851272583008,
        9.217620849609375,
        -23.467853546142578
      ]
    },
    {
      "mesh": 5,
      "name": "SM_ENV_tree_castle_02_LOD0.005",
      "scale": [
        0.7058544754981995,
        0.7058544754981995,
        0.7058544754981995
      ],
      "translation": [
        38.9625129699707,
        9.377609252929688,
        -20.083526611328125
      ]
    },
    {
      "mesh": 2,
      "name": "SM_MOD_railing_02_straight_castle_LOD0.031",
      "rotation": [
        -0.05478132888674736,
        0.93956059217453,
        -0.013021664693951607,
        0.3377208709716797
      ],
      "translation": [
        58.43851852416992,
        12.397613525390625,
        -8.627853393554688
      ]
    },
    {
      "mesh": 6,
      "name": "SM_ENV_cliff_castle_02_LOD0.016",
      "rotation": [
        0.3246167302131653,
        -0.19892030954360962,
        -0.6109064817428589,
        0.6941526532173157
      ],
      "scale": [
        1.5251926183700562,
        1.5251927375793457,
        1.5251930952072144
      ],
      "translation": [
        34.93851852416992,
        12.098617553710938,
        -12.867855072021484
      ]
    },
    {
      "mesh": 2,
      "name": "SM_MOD_railing_02_straight_castle_LOD0.052",
      "rotation": [
        0.0077307564206421375,
        0.8003848791122437,
        -0.005077765788882971,
        0.5994151830673218
      ],
      "translation": [
        35.85051345825195,
        8.095611572265625,
        -30.024856567382812
      ]
    },
    {
      "mesh": 7,
      "name": "SM_MOD_column_02_castle_LOD0.038",
      "rotation": [
        -0.008937672711908817,
        0.895689845085144,
        -0.0020857807248830795,
        0.4445846378803253
      ],
      "translation": [
        59.0875129699707,
        13.378616333007812,
        -1.0768547058105469
      ]
    },
    {
      "mesh": 2,
      "name": "SM_MOD_railing_02_straight_castle_LOD0.059",
      "rotation": [
        -0.09209799766540527,
        0.9368417859077454,
        -0.02189602516591549,
        0.3366987705230713
      ],
      "translation": [
        55.33051681518555,
        11.803619384765625,
        -11.152854919433594
      ]
    },
    {
      "mesh": 7,
      "name": "SM_MOD_column_02_castle_LOD0.041",
      "rotation": [
        -0.02515951544046402,
        0.9483132362365723,
        0.0015873073134571314,
        0.31633299589157104
      ],
      "translation": [
        53.72651290893555,
        11.426620483398438,
        -12.481853485107422
      ]
    },
    {
      "mesh": 8,
      "name": "SM_ENV_tree_castle_01_LOD0.011",
      "rotation": [
        0,
        0.49310314655303955,
        0,
        0.869970977306366
      ],
      "translation": [
        57.55851364135742,
        11.967620849609375,
        -12.033851623535156
      ]
    },
    {
      "mesh": 5,
      "name": "SM_ENV_tree_castle_02_LOD0.010",
      "rotation": [
        0,
        -0.1440061777830124,
        0,
        0.9895768165588379
      ],
      "scale": [
        0.7878696918487549,
        0.7878699898719788,
        0.7878696918487549
      ],
      "translation": [
        60.26851272583008,
        12.676177978515625,
        -14.517852783203125
      ]
    },
    {
      "mesh": 8,
      "name": "SM_ENV_tree_castle_01_LOD0.012",
      "rotation": [
        0,
        -0.5338447093963623,
        0,
        0.8455825448036194
      ],
      "scale": [
        0.8560436367988586,
        0.8560436964035034,
        0.8560436367988586
      ],
      "translation": [
        37.348514556884766,
        19.788619995117188,
        -4.917854309082031
      ]
    },
    {
      "mesh": 2,
      "name": "SM_MOD_railing_02_straight_castle_LOD0.079",
      "rotation": [
        -0.05902375653386116,
        0.9565852284431458,
        -0.018703188747167587,
        0.284800261259079
      ],
      "translation": [
        54.36384963989258,
        12.272857666015625,
        -4.681095123291016
      ]
    },
    {
      "mesh": 9,
      "name": "SM_ENV_bush_castle_08_LOD0.033",
      "rotation": [
        0.21009530127048492,
        -0.5333511829376221,
        0.05332837626338005,
        0.8176506161689758
      ],
      "scale": [
        0.8232203125953674,
        0.8232203722000122,
        0.8232200145721436
      ],
      "translation": [
        50.70851516723633,
        17.32861328125,
        -2.717853546142578
      ]
    },
    {
      "mesh": 2,
      "name": "SM_MOD_railing_02_straight_castle_LOD0.088",
      "rotation": [
        -0.09461723268032074,
        0.9392682909965515,
        -0.02610079199075699,
        0.3288489580154419
      ],
      "translation": [
        57.637516021728516,
        12.947616577148438,
        -2.3028526306152344
      ]
    },
    {
      "mesh": 10,
      "name": "SM_ENV_bush_castle_06_LOD0.010",
      "rotation": [
        0.045038897544145584,
        -0.2916601300239563,
        0.013749836012721062,
        0.9553621411323547
      ],
      "translation": [
        42.13351821899414,
        14.06561279296875,
        -10.532852172851562
      ]
    },
    {
      "mesh": 7,
      "name": "SM_MOD_column_02_castle_LOD0.073",
      "rotation": [
        0.012056438252329826,
        0.7409870028495789,
        0.009926843456923962,
        0.6713377833366394
      ],
      "translation": [
        35.3115119934082,
        8.2816162109375,
        -31.986854553222656
      ]
    },
    {
      "mesh": 10,
      "name": "SM_ENV_bush_castle_06_LOD0.013",
      "rotation": [
        0.48098379373550415,
        0.8313295245170593,
        0.26721853017807007,
        0.07835868000984192
      ],
      "scale": [
        0.8850899338722229,
        0.8850897550582886,
        0.8850899338722229
      ],
      "translation": [
        49.77851486206055,
        17.9486083984375,
        -4.1278533935546875
      ]
    },
    {
      "mesh": 7,
      "name": "SM_MOD_column_02_castle_LOD0.076",
      "rotation": [
        -0.03443638235330582,
        0.940727710723877,
        -0.0011936883674934506,
        0.3374078869819641
      ],
      "translation": [
        49.58951187133789,
        11.234619140625,
        -8.305854797363281
      ]
    },
    {
      "mesh": 7,
      "name": "SM_MOD_column_02_castle_LOD0.080",
      "rotation": [
        0.0102282939478755,
        0.8427432179450989,
        0.011801798827946186,
        0.5380892157554626
      ],
      "translation": [
        40.02951431274414,
        8.929611206054688,
        -21.045852661132812
      ]
    },
    {
      "mesh": 7,
      "name": "SM_MOD_column_02_castle_LOD0.081",
      "rotation": [
        0.007955939508974552,
        0.9252992868423462,
        0.013438892550766468,
        0.37891632318496704
      ],
      "translation": [
        47.62251663208008,
        9.858612060546875,
        -17.64185333251953
      ]
    },
    {
      "mesh": 5,
      "name": "SM_ENV_tree_castle_02_LOD0.014",
      "scale": [
        0.8143900036811829,
        0.8143900036811829,
        0.8143900036811829
      ],
      "translation": [
        41.418514251708984,
        10.63861083984375,
        -14.621967315673828
      ]
    },
    {
      "mesh": 5,
      "name": "SM_ENV_tree_castle_02_LOD0.016",
      "rotation": [
        0,
        -0.9783058166503906,
        0,
        0.2071659415960312
      ],
      "scale": [
        0.7523307204246521,
        0.7523307204246521,
        0.7523307204246521
      ],
      "translation": [
        45.9030647277832,
        11.32861328125,
        -9.726192474365234
      ]
    },
    {
      "mesh": 7,
      "name": "SM_MOD_column_02_castle_LOD0.085",
      "rotation": [
        -0.009124526754021645,
        0.9583609700202942,
        -0.0038453538436442614,
        0.28538796305656433
      ],
      "translation": [
        52.67898178100586,
        11.971176147460938,
        -5.781688690185547
      ]
    },
    {
      "mesh": 7,
      "name": "SM_MOD_column_02_castle_LOD0.087",
      "rotation": [
        0.010595799423754215,
        0.825334370136261,
        0.011472979560494423,
        0.5644283294677734
      ],
      "translation": [
        38.150516510009766,
        8.340606689453125,
        -24.63785171508789
      ]
    },
    {
      "mesh": 7,
      "name": "SM_MOD_column_02_castle_LOD0.092",
      "rotation": [
        0,
        0.9713888764381409,
        0,
        0.23749461770057678
      ],
      "translation": [
        61.43551254272461,
        12.623611450195312,
        -9.226852416992188
      ]
    },
    {
      "mesh": 10,
      "name": "SM_ENV_bush_castle_06_LOD0.019",
      "rotation": [
        0.3871903419494629,
        -0.07970023155212402,
        -0.27540087699890137,
        0.8762909770011902
      ],
      "scale": [
        1.0809046030044556,
        1.0809046030044556,
        1.080904483795166
      ],
      "translation": [
        32.522518157958984,
        18.142608642578125,
        -20.89385223388672
      ]
    },
    {
      "mesh": 7,
      "name": "SM_MOD_column_02_castle_LOD0.095",
      "rotation": [
        0.009299098514020443,
        0.8813015818595886,
        0.012547009624540806,
        0.4722961485385895
      ],
      "translation": [
        43.913516998291016,
        10.283615112304688,
        -13.953853607177734
      ]
    },
    {
      "mesh": 4,
      "name": "SM_ENV_bush_castle_07_LOD0.039",
      "rotation": [
        0.5177778601646423,
        0.1206895262002945,
        -0.8437279462814331,
        0.07391389459371567
      ],
      "scale": [
        1.1414000988006592,
        1.1413999795913696,
        1.1413999795913696
      ],
      "translation": [
        37.95551681518555,
        8.694610595703125,
        -25.851852416992188
      ]
    },
    {
      "mesh": 1,
      "name": "SM_MOD_floor_broken_castle_01_LOD0.005",
      "rotation": [
        0.04258907586336136,
        0.952923059463501,
        -0.012693901546299458,
        0.2999378442764282
      ],
      "scale": [
        0.5000000596046448,
        0.5,
        0.5000001192092896
      ],
      "translation": [
        62.88151168823242,
        12.657608032226562,
        -7.257854461669922
      ]
    },
    {
      "mesh": 10,
      "name": "SM_ENV_bush_castle_06_LOD0.020",
      "rotation": [
        0.30656754970550537,
        -0.36301499605178833,
        0.12783391773700714,
        0.8705716729164124
      ],
      "translation": [
        50.23051834106445,
        13.929611206054688,
        -6.175853729248047
      ]
    },
    {
      "mesh": 11,
      "name": "SM_MOD_tower_roof_deco_flag_castle_LOD0.011",
      "rotation": [
        0,
        0.9950817823410034,
        0,
        0.0990569069981575
      ],
      "scale": [
        0.7059358358383179,
        0.7059357762336731,
        0.7059358358383179
      ],
      "translation": [
        64.95851135253906,
        46.392669677734375,
        -27.877853393554688
      ]
    },
    {
      "mesh": 12,
      "name": "SM_PROP_flag_castle_03_LOD0.003",
      "rotation": [
        0,
        0.9977273344993591,
        0,
        0.06738162785768509
      ],
      "translation": [
        56.49851608276367,
        13.82861328125,
        -0.9378547668457031
      ]
    },
    {
      "mesh": 2,
      "name": "SM_MOD_railing_02_straight_castle_LOD0.140",
      "rotation": [
        -0.0746743306517601,
        0.8533138632774353,
        -0.06288601458072662,
        0.5121762752532959
      ],
      "translation": [
        39.14851760864258,
        8.598617553710938,
        -22.627853393554688
      ]
    },
    {
      "mesh": 13,
      "name": "SM_ENV_bush_castle_04_LOD0.012",
      "rotation": [
        -0.11524388939142227,
        0.7269971370697021,
        0.18228334188461304,
        0.6518948674201965
      ],
      "scale": [
        1.0796000957489014,
        1.0795999765396118,
        1.07960045337677
      ],
      "translation": [
        49.67851638793945,
        18.438613891601562,
        -3.3478546142578125
      ]
    },
    {
      "mesh": 7,
      "name": "SM_MOD_column_02_castle_LOD0.102",
      "rotation": [
        0,
        0.9746750593185425,
        0,
        0.22362597286701202
      ],
      "translation": [
        61.9375114440918,
        12.623611450195312,
        -13.236854553222656
      ]
    },
    {
      "mesh": 0,
      "name": "SM_ENV_bush_castle_05_LOD0.022",
      "rotation": [
        0.43739137053489685,
        0.021151408553123474,
        -0.47960492968559265,
        0.7604081034660339
      ],
      "scale": [
        0.7967099547386169,
        0.7967099547386169,
        0.7967099547386169
      ],
      "translation": [
        51.108516693115234,
        12.989608764648438,
        -6.811851501464844
      ]
    },
    {
      "mesh": 2,
      "name": "SM_MOD_railing_02_straight_castle_LOD0.146",
      "rotation": [
        -0.053748227655887604,
        0.9423286318778992,
        -0.006652525160461664,
        0.33027803897857666
      ],
      "translation": [
        48.108516693115234,
        11.028610229492188,
        -9.447853088378906
      ]
    },
    {
      "mesh": 1,
      "name": "SM_MOD_floor_broken_castle_01_LOD0.008",
      "rotation": [
        -0.011003708466887474,
        -0.8731408715248108,
        0.02726694382727146,
        0.48658040165901184
      ],
      "scale": [
        0.49999991059303284,
        0.5,
        0.4999998211860657
      ],
      "translation": [
        62.3695182800293,
        12.68560791015625,
        -5.3648529052734375
      ]
    },
    {
      "mesh": 12,
      "name": "SM_PROP_flag_castle_03_LOD0.004",
      "rotation": [
        0,
        0.9714505076408386,
        0,
        0.2372424155473709
      ],
      "translation": [
        40.22151565551758,
        9.868606567382812,
        -17.367855072021484
      ]
    },
    {
      "mesh": 8,
      "name": "SM_ENV_tree_castle_01_LOD0.026",
      "rotation": [
        0,
        0.6740742325782776,
        0,
        0.7386636137962341
      ],
      "translation": [
        49.14851760864258,
        10.39862060546875,
        -21.497852325439453
      ]
    },
    {
      "mesh": 2,
      "name": "SM_MOD_railing_02_straight_castle_LOD0.153",
      "rotation": [
        -0.08582278341054916,
        0.9374374151229858,
        -0.019640957936644554,
        0.33683791756629944
      ],
      "translation": [
        51.18931198120117,
        11.612258911132812,
        -6.980598449707031
      ]
    },
    {
      "mesh": 2,
      "name": "SM_MOD_railing_02_straight_castle_LOD0.159",
      "rotation": [
        0,
        0.253967821598053,
        0,
        0.9672126770019531
      ],
      "translation": [
        63.77351760864258,
        12.6826171875,
        -14.359851837158203
      ]
    },
    {
      "mesh": 7,
      "name": "SM_MOD_column_02_castle_LOD0.113",
      "rotation": [
        0.010238857008516788,
        0.8422610759735107,
        0.011792636476457119,
        0.53884357213974
      ],
      "translation": [
        41.50251388549805,
        9.727615356445312,
        -17.24085235595703
      ]
    },
    {
      "mesh": 6,
      "name": "SM_ENV_cliff_castle_02_LOD0.028",
      "rotation": [
        -0.0479939840734005,
        -0.10718543827533722,
        0.7183471918106079,
        0.685700535774231
      ],
      "scale": [
        1.5251928567886353,
        1.5251928567886353,
        1.5251928567886353
      ],
      "translation": [
        55.57851791381836,
        6.4986114501953125,
        -23.157852172851562
      ]
    },
    {
      "mesh": 7,
      "name": "SM_MOD_column_02_castle_LOD0.131",
      "rotation": [
        -0.008599737659096718,
        0.9449673295021057,
        -0.0032057620119303465,
        0.3270359933376312
      ],
      "translation": [
        56.01851272583008,
        12.564605712890625,
        -3.599853515625
      ]
    },
    {
      "mesh": 5,
      "name": "SM_ENV_tree_castle_02_LOD0.019",
      "rotation": [
        0,
        -0.520963191986084,
        0,
        0.8535791635513306
      ],
      "scale": [
        0.787869930267334,
        0.7878699898719788,
        0.787869930267334
      ],
      "translation": [
        63.739200592041016,
        12.676177978515625,
        -17.343246459960938
      ]
    },
    {
      "mesh": 5,
      "name": "SM_ENV_tree_castle_02_LOD0.020",
      "rotation": [
        0,
        0.5085832476615906,
        0,
        0.8610128164291382
      ],
      "scale": [
        0.7083101272583008,
        0.7083100080490112,
        0.7083101272583008
      ],
      "translation": [
        51.598514556884766,
        11.226608276367188,
        -15.787853240966797
      ]
    },
    {
      "mesh": 2,
      "name": "SM_MOD_railing_02_straight_castle_LOD0.176",
      "rotation": [
        -0.059619273990392685,
        0.8910259008407593,
        -0.03004406951367855,
        0.44901642203330994
      ],
      "translation": [
        42.77751541137695,
        10.033615112304688,
        -15.52285385131836
      ]
    },
    {
      "mesh": 9,
      "name": "SM_ENV_bush_castle_08_LOD0.059",
      "rotation": [
        -0.030487563461065292,
        0.7791939377784729,
        0.05092969536781311,
        0.6239659786224365
      ],
      "translation": [
        34.29851150512695,
        15.6986083984375,
        -20.347854614257812
      ]
    },
    {
      "mesh": 7,
      "name": "SM_MOD_column_02_castle_LOD0.143",
      "rotation": [
        0.007727356627583504,
        0.9315795302391052,
        0.013571619987487793,
        0.36320197582244873
      ],
      "translation": [
        46.538516998291016,
        10.82861328125,
        -10.767852783203125
      ]
    },
    {
      "mesh": 4,
      "name": "SM_ENV_bush_castle_07_LOD0.067",
      "rotation": [
        0.5239119529724121,
        -0.10459824651479721,
        -0.5310368537902832,
        0.6577046513557434
      ],
      "translation": [
        48.74551773071289,
        13.238616943359375,
        -7.9038543701171875
      ]
    },
    {
      "mesh": 0,
      "name": "SM_ENV_bush_castle_05_LOD0.028",
      "rotation": [
        -0.06410430371761322,
        -0.3982964754104614,
        0.6826626062393188,
        0.6092802286148071
      ],
      "translation": [
        41.89451217651367,
        15.32061767578125,
        -10.214855194091797
      ]
    },
    {
      "mesh": 7,
      "name": "SM_MOD_column_02_castle_LOD0.147",
      "rotation": [
        0,
        0.9550289511680603,
        0,
        0.2965127229690552
      ],
      "translation": [
        59.999515533447266,
        12.623611450195312,
        -7.361854553222656
      ]
    },
    {
      "mesh": 2,
      "name": "SM_MOD_railing_02_straight_castle_LOD0.201",
      "rotation": [
        -0.06147697940468788,
        0.9021244645118713,
        -0.029036398977041245,
        0.42608562111854553
      ],
      "translation": [
        45.288516998291016,
        10.588607788085938,
        -12.2978515625
      ]
    },
    {
      "mesh": 5,
      "name": "SM_ENV_tree_castle_02_LOD0.024",
      "rotation": [
        0,
        -0.9287193417549133,
        0,
        0.3707834780216217
      ],
      "scale": [
        0.8320602774620056,
        0.8320599794387817,
        0.8320602774620056
      ],
      "translation": [
        48.228511810302734,
        10.056610107421875,
        -18.967853546142578
      ]
    },
    {
      "mesh": 7,
      "name": "SM_MOD_column_02_castle_LOD0.155",
      "rotation": [
        -0.025056568905711174,
        0.9323258996009827,
        0.002773032523691654,
        0.3607396185398102
      ],
      "translation": [
        50.5415153503418,
        10.726608276367188,
        -14.768852233886719
      ]
    },
    {
      "mesh": 5,
      "name": "SM_ENV_tree_castle_02_LOD0.025",
      "rotation": [
        0,
        0.5978623628616333,
        0,
        0.8015989065170288
      ],
      "scale": [
        0.7613500356674194,
        0.7613499760627747,
        0.7613500356674194
      ],
      "translation": [
        46.14584732055664,
        9.408615112304688,
        -22.742286682128906
      ]
    },
    {
      "mesh": 2,
      "name": "SM_MOD_railing_02_straight_castle_LOD0.212",
      "rotation": [
        -0.01944696716964245,
        0.8563542366027832,
        -0.02969975210726261,
        0.5151671767234802
      ],
      "translation": [
        37.2435188293457,
        8.228607177734375,
        -26.421852111816406
      ]
    },
    {
      "mesh": 14,
      "name": "SM_ENV_cliff_castle_01_LOD0.045",
      "rotation": [
        0.304618775844574,
        -0.29260584712028503,
        0.09892690926790237,
        0.9010009169578552
      ],
      "scale": [
        0.849740207195282,
        0.8497399687767029,
        0.8497399687767029
      ],
      "translation": [
        48.20851516723633,
        11.978607177734375,
        -5.467853546142578
      ]
    },
    {
      "mesh": 6,
      "name": "SM_ENV_cliff_castle_02_LOD0.042",
      "rotation": [
        -0.7106955051422119,
        0.5936910510063171,
        -0.2153184562921524,
        0.3099690079689026
      ],
      "scale": [
        1.5251927375793457,
        1.5251928567886353,
        1.5251927375793457
      ],
      "translation": [
        44.65851974487305,
        12.778610229492188,
        -3.437854766845703
      ]
    },
    {
      "mesh": 2,
      "name": "SM_MOD_railing_02_straight_castle_LOD0.228",
      "rotation": [
        -0.09104990214109421,
        0.9506980180740356,
        -0.02591133676469326,
        0.2953164279460907
      ],
      "translation": [
        52.228511810302734,
        11.045608520507812,
        -13.559852600097656
      ]
    },
    {
      "mesh": 7,
      "name": "SM_MOD_column_02_castle_LOD0.179",
      "rotation": [
        0,
        0.9584671854972839,
        0,
        0.28520283102989197
      ],
      "translation": [
        56.82587814331055,
        12.124618530273438,
        -9.950286865234375
      ]
    },
    {
      "mesh": 2,
      "name": "SM_MOD_railing_02_straight_castle_LOD0.233",
      "rotation": [
        -0.11566957086324692,
        0.9162362217903137,
        -0.007844077423214912,
        0.38349729776382446
      ],
      "translation": [
        49.134517669677734,
        10.252609252929688,
        -16.218852996826172
      ]
    },
    {
      "mesh": 7,
      "name": "SM_MOD_column_02_castle_LOD0.180",
      "rotation": [
        0.010595799423754215,
        0.825334370136261,
        0.011472979560494423,
        0.5644283294677734
      ],
      "translation": [
        36.40351486206055,
        8.208602905273438,
        -28.227859497070312
      ]
    },
    {
      "mesh": 4,
      "name": "SM_ENV_bush_castle_07_LOD0.081",
      "rotation": [
        0.3574290871620178,
        -0.24108831584453583,
        -0.5694971084594727,
        0.6998528242111206
      ],
      "translation": [
        50.62751388549805,
        16.126617431640625,
        -4.328853607177734
      ]
    }
  ],
  "materials": [
    {
      "alphaMode": "BLEND",
      "doubleSided": true,
      "extensions": {
        "KHR_materials_clearcoat": {
          "clearcoatRoughnessFactor": 0
        },
        "KHR_materials_specular": {
          "specularFactor": 0
        },
        "KHR_materials_ior": {
          "ior": 1.4500000476837158
        }
      },
      "name": "M_ENV_foliage_castle",
      "pbrMetallicRoughness": {
        "baseColorTexture": {
          "index": 0
        },
        "metallicFactor": 0,
        "roughnessFactor": 0
      }
    },
    {
      "doubleSided": true,
      "name": "M_MOD_floor_castle_01",
      "normalTexture": {
        "index": 1,
        "scale": 4
      },
      "pbrMetallicRoughness": {
        "baseColorTexture": {
          "index": 2
        },
        "metallicRoughnessTexture": {
          "index": 3
        }
      }
    },
    {
      "doubleSided": true,
      "name": "M_TRIM_castle",
      "normalTexture": {
        "index": 4,
        "scale": 4
      },
      "pbrMetallicRoughness": {
        "baseColorTexture": {
          "index": 5
        },
        "metallicRoughnessTexture": {
          "index": 6
        }
      }
    },
    {
      "alphaMode": "MASK",
      "doubleSided": true,
      "extensions": {
        "KHR_materials_specular": {
          "specularFactor": 0
        },
        "KHR_materials_ior": {
          "ior": 1.4500000476837158
        }
      },
      "name": "M_ENV_tree_leaves_castle_02",
      "pbrMetallicRoughness": {
        "baseColorFactor": [
          0.025187339633703232,
          0.18782256543636322,
          0.0761851966381073,
          1
        ],
        "baseColorTexture": {
          "index": 7
        },
        "metallicFactor": 0,
        "roughnessFactor": 0
      }
    },
    {
      "doubleSided": true,
      "name": "M_CliffGrassVC",
      "normalTexture": {
        "extensions": {
          "KHR_texture_transform": {
            "offset": [
              0,
              -6
            ],
            "scale": [
              7,
              7
            ]
          }
        },
        "index": 8,
        "scale": 0.6000000238418579
      },
      "pbrMetallicRoughness": {
        "metallicFactor": 0,
        "roughnessFactor": 0.9200000166893005
      }
    },
    {
      "doubleSided": true,
      "extensions": {
        "KHR_materials_specular": {
          "specularFactor": 0
        },
        "KHR_materials_ior": {
          "ior": 1.4500000476837158
        }
      },
      "name": "M_ENV_tree_wood_castle",
      "normalTexture": {
        "index": 9,
        "scale": 2
      },
      "pbrMetallicRoughness": {
        "baseColorFactor": [
          1,
          1,
          1,
          1
        ],
        "baseColorTexture": {
          "index": 10
        },
        "metallicRoughnessTexture": {
          "index": 11
        }
      }
    },
    {
      "alphaMode": "MASK",
      "doubleSided": true,
      "extensions": {
        "KHR_materials_specular": {
          "specularFactor": 0
        },
        "KHR_materials_ior": {
          "ior": 1.4500000476837158
        }
      },
      "name": "M_ENV_tree_leaves_castle_01",
      "pbrMetallicRoughness": {
        "baseColorFactor": [
          0.08437485992908478,
          0.39157116413116455,
          0.028426364064216614,
          1
        ],
        "baseColorTexture": {
          "index": 12
        },
        "metallicFactor": 0,
        "roughnessFactor": 0
      }
    },
    {
      "doubleSided": true,
      "name": "M_TRIM_castle.001",
      "normalTexture": {
        "index": 13,
        "scale": 4
      },
      "pbrMetallicRoughness": {
        "baseColorTexture": {
          "index": 14
        },
        "metallicRoughnessTexture": {
          "index": 15
        }
      }
    },
    {
      "doubleSided": true,
      "name": "M_PROP_flag_castle",
      "pbrMetallicRoughness": {
        "baseColorTexture": {
          "index": 16
        },
        "metallicFactor": 0,
        "roughnessFactor": 0.5
      }
    }
  ],
  "meshes": [
    {
      "name": "Plane.568",
      "primitives": [
        {
          "attributes": {
            "POSITION": 0,
            "NORMAL": 1,
            "TEXCOORD_0": 2,
            "TEXCOORD_1": 3,
            "COLOR_0": 4,
            "COLOR_1": 5
          },
          "indices": 6,
          "material": 0
        }
      ]
    },
    {
      "name": "Cube.457",
      "primitives": [
        {
          "attributes": {
            "POSITION": 7,
            "NORMAL": 8,
            "TEXCOORD_0": 9,
            "TEXCOORD_1": 10,
            "TANGENT": 115
          },
          "indices": 11,
          "material": 1
        }
      ]
    },
    {
      "name": "Cube.1020",
      "primitives": [
        {
          "attributes": {
            "POSITION": 12,
            "NORMAL": 13,
            "TEXCOORD_0": 14,
            "TEXCOORD_1": 15,
            "TANGENT": 116
          },
          "indices": 16,
          "material": 2
        }
      ]
    },
    {
      "name": "Cube.1023",
      "primitives": [
        {
          "attributes": {
            "POSITION": 17,
            "NORMAL": 18,
            "TEXCOORD_0": 19,
            "TEXCOORD_1": 20,
            "TANGENT": 117
          },
          "indices": 21,
          "material": 2
        }
      ]
    },
    {
      "name": "Plane.728",
      "primitives": [
        {
          "attributes": {
            "POSITION": 22,
            "NORMAL": 23,
            "TEXCOORD_0": 24,
            "TEXCOORD_1": 25,
            "COLOR_0": 26,
            "COLOR_1": 27
          },
          "indices": 28,
          "material": 0
        }
      ]
    },
    {
      "name": "Plane.153",
      "primitives": [
        {
          "attributes": {
            "POSITION": 29,
            "NORMAL": 30,
            "TEXCOORD_0": 31,
            "TEXCOORD_1": 32,
            "COLOR_0": 33,
            "COLOR_1": 34
          },
          "indices": 35,
          "material": 3
        }
      ]
    },
    {
      "name": "SM_ENV_cliff_castle_02_instantmeshesexp_02.004",
      "primitives": [
        {
          "attributes": {
            "POSITION": 36,
            "NORMAL": 37,
            "TEXCOORD_0": 38,
            "TEXCOORD_1": 39,
            "COLOR_0": 40,
            "TANGENT": 118
          },
          "indices": 41,
          "material": 4
        }
      ]
    },
    {
      "name": "Cube.3213",
      "primitives": [
        {
          "attributes": {
            "POSITION": 42,
            "NORMAL": 43,
            "TEXCOORD_0": 44,
            "TEXCOORD_1": 45,
            "TANGENT": 119
          },
          "indices": 46,
          "material": 2
        }
      ]
    },
    {
      "name": "Cylinder.294",
      "primitives": [
        {
          "attributes": {
            "POSITION": 47,
            "NORMAL": 48,
            "TEXCOORD_0": 49,
            "TEXCOORD_1": 50,
            "COLOR_0": 51,
            "COLOR_1": 52,
            "TANGENT": 120
          },
          "indices": 53,
          "material": 5
        },
        {
          "attributes": {
            "POSITION": 54,
            "NORMAL": 55,
            "TEXCOORD_0": 56,
            "TEXCOORD_1": 57,
            "COLOR_0": 58,
            "COLOR_1": 59
          },
          "indices": 60,
          "material": 6
        }
      ]
    },
    {
      "name": "Plane.789",
      "primitives": [
        {
          "attributes": {
            "POSITION": 61,
            "NORMAL": 62,
            "TEXCOORD_0": 63,
            "TEXCOORD_1": 64,
            "COLOR_0": 65,
            "COLOR_1": 66
          },
          "indices": 67,
          "material": 0
        }
      ]
    },
    {
      "name": "Plane.648",
      "primitives": [
        {
          "attributes": {
            "POSITION": 68,
            "NORMAL": 69,
            "TEXCOORD_0": 70,
            "TEXCOORD_1": 71,
            "COLOR_0": 72,
            "COLOR_1": 73
          },
          "indices": 6,
          "material": 0
        }
      ]
    },
    {
      "name": "Cylinder.401",
      "primitives": [
        {
          "attributes": {
            "POSITION": 74,
            "NORMAL": 75,
            "TEXCOORD_0": 76,
            "TEXCOORD_1": 77,
            "COLOR_0": 78,
            "COLOR_1": 79,
            "TANGENT": 121
          },
          "indices": 80,
          "material": 7
        },
        {
          "attributes": {
            "POSITION": 81,
            "NORMAL": 82,
            "TEXCOORD_0": 83,
            "TEXCOORD_1": 84,
            "COLOR_0": 85,
            "COLOR_1": 86
          },
          "indices": 87,
          "material": 8
        }
      ]
    },
    {
      "name": "Cylinder.398",
      "primitives": [
        {
          "attributes": {
            "POSITION": 88,
            "NORMAL": 89,
            "TEXCOORD_0": 90,
            "TEXCOORD_1": 91,
            "COLOR_0": 92,
            "COLOR_1": 93,
            "TANGENT": 122
          },
          "indices": 94,
          "material": 7
        },
        {
          "attributes": {
            "POSITION": 95,
            "NORMAL": 96,
            "TEXCOORD_0": 97,
            "TEXCOORD_1": 98,
            "COLOR_0": 99,
            "COLOR_1": 100
          },
          "indices": 101,
          "material": 8
        }
      ]
    },
    {
      "name": "Plane.518",
      "primitives": [
        {
          "attributes": {
            "POSITION": 102,
            "NORMAL": 103,
            "TEXCOORD_0": 104,
            "TEXCOORD_1": 105,
            "COLOR_0": 106,
            "COLOR_1": 107
          },
          "indices": 108,
          "material": 0
        }
      ]
    },
    {
      "name": "SM_ENV_cliff_castle_01_instantmeshesexp_02",
      "primitives": [
        {
          "attributes": {
            "POSITION": 109,
            "NORMAL": 110,
            "TEXCOORD_0": 111,
            "TEXCOORD_1": 112,
            "COLOR_0": 113,
            "TANGENT": 123
          },
          "indices": 114,
          "material": 4
        }
      ]
    }
  ],
  "textures": [
    {
      "sampler": 0,
      "source": 0
    },
    {
      "sampler": 0,
      "source": 1
    },
    {
      "sampler": 0,
      "source": 2
    },
    {
      "sampler": 0,
      "source": 3
    },
    {
      "sampler": 0,
      "source": 4
    },
    {
      "sampler": 0,
      "source": 5
    },
    {
      "sampler": 0,
      "source": 6
    },
    {
      "sampler": 0,
      "source": 7
    },
    {
      "sampler": 0,
      "source": 8
    },
    {
      "sampler": 0,
      "source": 9
    },
    {
      "sampler": 0,
      "source": 10
    },
    {
      "sampler": 0,
      "source": 11
    },
    {
      "sampler": 0,
      "source": 12
    },
    {
      "sampler": 0,
      "source": 4
    },
    {
      "sampler": 0,
      "source": 5
    },
    {
      "sampler": 0,
      "source": 6
    },
    {
      "sampler": 0,
      "source": 13
    }
  ],
  "images": [
    {
      "mimeType": "image/png",
      "name": "T_ENV_foliage_castle",
      "uri": "textures/T_ENV_foliage_castle.png"
    },
    {
      "mimeType": "image/png",
      "name": "T_MOD_floor_castle_01_N",
      "uri": "textures/T_MOD_floor_castle_01_N.png"
    },
    {
      "mimeType": "image/png",
      "name": "T_MOD_floor_castle_01_BC",
      "uri": "textures/T_MOD_floor_castle_01_BC.png"
    },
    {
      "mimeType": "image/png",
      "name": "T_MOD_floor_castle_01_PBR",
      "uri": "textures/T_MOD_floor_castle_01_PBR.png"
    },
    {
      "mimeType": "image/png",
      "name": "T_TRIM_castle_01_N",
      "uri": "textures/T_TRIM_castle_01_N.png"
    },
    {
      "mimeType": "image/png",
      "name": "T_TRIM_castle_01_BC",
      "uri": "textures/T_TRIM_castle_01_BC.png"
    },
    {
      "mimeType": "image/png",
      "name": "T_TRIM_castle_01_PBR",
      "uri": "textures/T_TRIM_castle_01_PBR.png"
    },
    {
      "mimeType": "image/png",
      "name": "T_ENV_tree_leaves_castle_02",
      "uri": "textures/T_ENV_tree_leaves_castle_02.png"
    },
    {
      "mimeType": "image/png",
      "name": "T_ENV_cliff_castle_01_N",
      "uri": "textures/T_ENV_cliff_castle_01_N.png"
    },
    {
      "mimeType": "image/png",
      "name": "T_ENV_wood_castle_01_N",
      "uri": "textures/T_ENV_wood_castle_01_N.png"
    },
    {
      "mimeType": "image/png",
      "name": "T_ENV_wood_castle_01_BC",
      "uri": "textures/T_ENV_wood_castle_01_BC.png"
    },
    {
      "mimeType": "image/png",
      "name": "T_ENV_wood_castle_01_PBR",
      "uri": "textures/T_ENV_wood_castle_01_PBR.png"
    },
    {
      "mimeType": "image/png",
      "name": "T_ENV_tree_leaves_castle_01",
      "uri": "textures/T_ENV_tree_leaves_castle_01.png"
    },
    {
      "mimeType": "image/png",
      "name": "T_PROP_flags_castle_BC",
      "uri": "textures/T_PROP_flags_castle_BC.png"
    }
  ],
  "accessors": [
    {
      "bufferView": 0,
      "componentType": 5126,
      "count": 960,
      "max": [
        1.425001621246338,
        1.0797010660171509,
        0.770141065120697
      ],
      "min": [
        -1.4109971523284912,
        -3.307366371154785,
        -0.5012217164039612
      ],
      "type": "VEC3"
    },
    {
      "bufferView": 1,
      "componentType": 5126,
      "count": 960,
      "type": "VEC3"
    },
    {
      "bufferView": 2,
      "componentType": 5126,
      "count": 960,
      "type": "VEC2"
    },
    {
      "bufferView": 3,
      "componentType": 5126,
      "count": 960,
      "type": "VEC2"
    },
    {
      "bufferView": 4,
      "componentType": 5123,
      "count": 960,
      "normalized": true,
      "type": "VEC4"
    },
    {
      "bufferView": 5,
      "componentType": 5123,
      "count": 960,
      "normalized": true,
      "type": "VEC4"
    },
    {
      "bufferView": 6,
      "componentType": 5123,
      "count": 1440,
      "type": "SCALAR"
    },
    {
      "bufferView": 7,
      "componentType": 5126,
      "count": 715,
      "max": [
        2.070388078689575,
        0.08400055766105652,
        2.033703088760376
      ],
      "min": [
        -2.060770273208618,
        -0.3405781388282776,
        -2.016498565673828
      ],
      "type": "VEC3"
    },
    {
      "bufferView": 8,
      "componentType": 5126,
      "count": 715,
      "type": "VEC3"
    },
    {
      "bufferView": 9,
      "componentType": 5126,
      "count": 715,
      "type": "VEC2"
    },
    {
      "bufferView": 10,
      "componentType": 5126,
      "count": 715,
      "type": "VEC2"
    },
    {
      "bufferView": 11,
      "componentType": 5123,
      "count": 2112,
      "type": "SCALAR"
    },
    {
      "bufferView": 12,
      "componentType": 5126,
      "count": 512,
      "max": [
        1.9999985694885254,
        1.0031301975250244,
        0.2541757822036743
      ],
      "min": [
        -1.9999985694885254,
        -0.12952381372451782,
        -0.25105398893356323
      ],
      "type": "VEC3"
    },
    {
      "bufferView": 13,
      "componentType": 5126,
      "count": 512,
      "type": "VEC3"
    },
    {
      "bufferView": 14,
      "componentType": 5126,
      "count": 512,
      "type": "VEC2"
    },
    {
      "bufferView": 15,
      "componentType": 5126,
      "count": 512,
      "type": "VEC2"
    },
    {
      "bufferView": 16,
      "componentType": 5123,
      "count": 1188,
      "type": "SCALAR"
    },
    {
      "bufferView": 17,
      "componentType": 5126,
      "count": 387,
      "max": [
        2.0000100135803223,
        1,
        0.25255173444747925
      ],
      "min": [
        1.4115628346189624e-06,
        -0.12940101325511932,
        -0.25489169359207153
      ],
      "type": "VEC3"
    },
    {
      "bufferView": 18,
      "componentType": 5126,
      "count": 387,
      "type": "VEC3"
    },
    {
      "bufferView": 19,
      "componentType": 5126,
      "count": 387,
      "type": "VEC2"
    },
    {
      "bufferView": 20,
      "componentType": 5126,
      "count": 387,
      "type": "VEC2"
    },
    {
      "bufferView": 21,
      "componentType": 5123,
      "count": 924,
      "type": "SCALAR"
    },
    {
      "bufferView": 22,
      "componentType": 5126,
      "count": 720,
      "max": [
        1.6049699783325195,
        0.7846742272377014,
        0.6185894012451172
      ],
      "min": [
        -1.6038271188735962,
        -1.1322442293167114,
        -0.45752856135368347
      ],
      "type": "VEC3"
    },
    {
      "bufferView": 23,
      "componentType": 5126,
      "count": 720,
      "type": "VEC3"
    },
    {
      "bufferView": 24,
      "componentType": 5126,
      "count": 720,
      "type": "VEC2"
    },
    {
      "bufferView": 25,
      "componentType": 5126,
      "count": 720,
      "type": "VEC2"
    },
    {
      "bufferView": 26,
      "componentType": 5123,
      "count": 720,
      "normalized": true,
      "type": "VEC4"
    },
    {
      "bufferView": 27,
      "componentType": 5123,
      "count": 720,
      "normalized": true,
      "type": "VEC4"
    },
    {
      "bufferView": 28,
      "componentType": 5123,
      "count": 1080,
      "type": "SCALAR"
    },
    {
      "bufferView": 29,
      "componentType": 5126,
      "count": 1680,
      "max": [
        2.4888107776641846,
        8.186420440673828,
        2.2267041206359863
      ],
      "min": [
        -2.3514888286590576,
        -0.40394994616508484,
        -2.377707004547119
      ],
      "type": "VEC3"
    },
    {
      "bufferView": 30,
      "componentType": 5126,
      "count": 1680,
      "type": "VEC3"
    },
    {
      "bufferView": 31,
      "componentType": 5126,
      "count": 1680,
      "type": "VEC2"
    },
    {
      "bufferView": 32,
      "componentType": 5126,
      "count": 1680,
      "type": "VEC2"
    },
    {
      "bufferView": 33,
      "componentType": 5123,
      "count": 1680,
      "normalized": true,
      "type": "VEC4"
    },
    {
      "bufferView": 34,
      "componentType": 5123,
      "count": 1680,
      "normalized": true,
      "type": "VEC4"
    },
    {
      "bufferView": 35,
      "componentType": 5123,
      "count": 5760,
      "type": "SCALAR"
    },
    {
      "bufferView": 36,
      "componentType": 5126,
      "count": 4265,
      "max": [
        5.037600517272949,
        6.843289375305176,
        3.3966786861419678
      ],
      "min": [
        -5.224124431610107,
        -6.786053657531738,
        -3.7081243991851807
      ],
      "type": "VEC3"
    },
    {
      "bufferView": 37,
      "componentType": 5126,
      "count": 4265,
      "type": "VEC3"
    },
    {
      "bufferView": 38,
      "componentType": 5126,
      "count": 4265,
      "type": "VEC2"
    },
    {
      "bufferView": 39,
      "componentType": 5126,
      "count": 4265,
      "type": "VEC2"
    },
    {
      "bufferView": 40,
      "componentType": 5126,
      "count": 4265,
      "type": "VEC3"
    },
    {
      "bufferView": 41,
      "componentType": 5123,
      "count": 22374,
      "type": "SCALAR"
    },
    {
      "bufferView": 42,
      "componentType": 5126,
      "count": 509,
      "max": [
        0.39473864436149597,
        1.2359495162963867,
        0.39473864436149597
      ],
      "min": [
        -0.39473864436149597,
        -0.12311287224292755,
        -0.39473864436149597
      ],
      "type": "VEC3"
    },
    {
      "bufferView": 43,
      "componentType": 5126,
      "count": 509,
      "type": "VEC3"
    },
    {
      "bufferView": 44,
      "componentType": 5126,
      "count": 509,
      "type": "VEC2"
    },
    {
      "bufferView": 45,
      "componentType": 5126,
      "count": 509,
      "type": "VEC2"
    },
    {
      "bufferView": 46,
      "componentType": 5123,
      "count": 2112,
      "type": "SCALAR"
    },
    {
      "bufferView": 47,
      "componentType": 5126,
      "count": 1275,
      "max": [
        3.5537283420562744,
        9.484169960021973,
        3.4337213039398193
      ],
      "min": [
        -3.0713250637054443,
        -1.0320329666137695,
        -2.8968093395233154
      ],
      "type": "VEC3"
    },
    {
      "bufferView": 48,
      "componentType": 5126,
      "count": 1275,
      "type": "VEC3"
    },
    {
      "bufferView": 49,
      "componentType": 5126,
      "count": 1275,
      "type": "VEC2"
    },
    {
      "bufferView": 50,
      "componentType": 5126,
      "count": 1275,
      "type": "VEC2"
    },
    {
      "bufferView": 51,
      "componentType": 5126,
      "count": 1275,
      "type": "VEC3"
    },
    {
      "bufferView": 52,
      "componentType": 5123,
      "count": 1275,
      "normalized": true,
      "type": "VEC4"
    },
    {
      "bufferView": 53,
      "componentType": 5123,
      "count": 5718,
      "type": "SCALAR"
    },
    {
      "bufferView": 54,
      "componentType": 5126,
      "count": 1920,
      "max": [
        6.43494987487793,
        15.562984466552734,
        6.57190465927124
      ],
      "min": [
        -5.903852462768555,
        4.755402088165283,
        -5.87698221206665
      ],
      "type": "VEC3"
    },
    {
      "bufferView": 55,
      "componentType": 5126,
      "count": 1920,
      "type": "VEC3"
    },
    {
      "bufferView": 56,
      "componentType": 5126,
      "count": 1920,
      "type": "VEC2"
    },
    {
      "bufferView": 57,
      "componentType": 5126,
      "count": 1920,
      "type": "VEC2"
    },
    {
      "bufferView": 58,
      "componentType": 5126,
      "count": 1920,
      "type": "VEC3"
    },
    {
      "bufferView": 59,
      "componentType": 5123,
      "count": 1920,
      "normalized": true,
      "type": "VEC4"
    },
    {
      "bufferView": 60,
      "componentType": 5123,
      "count": 2880,
      "type": "SCALAR"
    },
    {
      "bufferView": 61,
      "componentType": 5126,
      "count": 864,
      "max": [
        2.126523971557617,
        2.460887908935547,
        1.11051344871521
      ],
      "min": [
        -2.2667510509490967,
        -6.639396667480469,
        -0.9110949039459229
      ],
      "type": "VEC3"
    },
    {
      "bufferView": 62,
      "componentType": 5126,
      "count": 864,
      "type": "VEC3"
    },
    {
      "bufferView": 63,
      "componentType": 5126,
      "count": 864,
      "type": "VEC2"
    },
    {
      "bufferView": 64,
      "componentType": 5126,
      "count": 864,
      "type": "VEC2"
    },
    {
      "bufferView": 65,
      "componentType": 5123,
      "count": 864,
      "normalized": true,
      "type": "VEC4"
    },
    {
      "bufferView": 66,
      "componentType": 5123,
      "count": 864,
      "normalized": true,
      "type": "VEC4"
    },
    {
      "bufferView": 67,
      "componentType": 5123,
      "count": 1296,
      "type": "SCALAR"
    },
    {
      "bufferView": 68,
      "componentType": 5126,
      "count": 960,
      "max": [
        1.3535411357879639,
        0.8332891464233398,
        0.616664707660675
      ],
      "min": [
        -1.3742002248764038,
        -1.8549212217330933,
        -0.4186740517616272
      ],
      "type": "VEC3"
    },
    {
      "bufferView": 69,
      "componentType": 5126,
      "count": 960,
      "type": "VEC3"
    },
    {
      "bufferView": 70,
      "componentType": 5126,
      "count": 960,
      "type": "VEC2"
    },
    {
      "bufferView": 71,
      "componentType": 5126,
      "count": 960,
      "type": "VEC2"
    },
    {
      "bufferView": 72,
      "componentType": 5123,
      "count": 960,
      "normalized": true,
      "type": "VEC4"
    },
    {
      "bufferView": 73,
      "componentType": 5123,
      "count": 960,
      "normalized": true,
      "type": "VEC4"
    },
    {
      "bufferView": 74,
      "componentType": 5126,
      "count": 207,
      "max": [
        0.6800379753112793,
        12.301493644714355,
        0.6800259947776794
      ],
      "min": [
        -0.6800140142440796,
        0.1599065661430359,
        -0.6800259947776794
      ],
      "type": "VEC3"
    },
    {
      "bufferView": 75,
      "componentType": 5126,
      "count": 207,
      "type": "VEC3"
    },
    {
      "bufferView": 76,
      "componentType": 5126,
      "count": 207,
      "type": "VEC2"
    },
    {
      "bufferView": 77,
      "componentType": 5126,
      "count": 207,
      "type": "VEC2"
    },
    {
      "bufferView": 78,
      "componentType": 5126,
      "count": 207,
      "type": "VEC3"
    },
    {
      "bufferView": 79,
      "componentType": 5123,
      "count": 207,
      "normalized": true,
      "type": "VEC4"
    },
    {
      "bufferView": 80,
      "componentType": 5123,
      "count": 810,
      "type": "SCALAR"
    },
    {
      "bufferView": 81,
      "componentType": 5126,
      "count": 127,
      "max": [
        8.145870208740234,
        9.733687400817871,
        0.1570219099521637
      ],
      "min": [
        -0.1317797750234604,
        8.269128799438477,
        -0.1473606824874878
      ],
      "type": "VEC3"
    },
    {
      "bufferView": 82,
      "componentType": 5126,
      "count": 127,
      "type": "VEC3"
    },
    {
      "bufferView": 83,
      "componentType": 5126,
      "count": 127,
      "type": "VEC2"
    },
    {
      "bufferView": 84,
      "componentType": 5126,
      "count": 127,
      "type": "VEC2"
    },
    {
      "bufferView": 85,
      "componentType": 5126,
      "count": 127,
      "type": "VEC3"
    },
    {
      "bufferView": 86,
      "componentType": 5123,
      "count": 127,
      "normalized": true,
      "type": "VEC4"
    },
    {
      "bufferView": 87,
      "componentType": 5123,
      "count": 534,
      "type": "SCALAR"
    },
    {
      "bufferView": 88,
      "componentType": 5126,
      "count": 496,
      "max": [
        1.0993012189865112,
        7.863060474395752,
        0.4475734829902649
      ],
      "min": [
        -1.0993012189865112,
        -0.03085806965827942,
        -0.4475734829902649
      ],
      "type": "VEC3"
    },
    {
      "bufferView": 89,
      "componentType": 5126,
      "count": 496,
      "type": "VEC3"
    },
    {
      "bufferView": 90,
      "componentType": 5126,
      "count": 496,
      "type": "VEC2"
    },
    {
      "bufferView": 91,
      "componentType": 5126,
      "count": 496,
      "type": "VEC2"
    },
    {
      "bufferView": 92,
      "componentType": 5126,
      "count": 496,
      "type": "VEC3"
    },
    {
      "bufferView": 93,
      "componentType": 5123,
      "count": 496,
      "normalized": true,
      "type": "VEC4"
    },
    {
      "bufferView": 94,
      "componentType": 5123,
      "count": 1836,
      "type": "SCALAR"
    },
    {
      "bufferView": 95,
      "componentType": 5126,
      "count": 74,
      "max": [
        0.6735774278640747,
        6.467690467834473,
        0.24733056128025055
      ],
      "min": [
        -0.6735774278640747,
        2.148385524749756,
        0.14277350902557373
      ],
      "type": "VEC3"
    },
    {
      "bufferView": 96,
      "componentType": 5126,
      "count": 74,
      "type": "VEC3"
    },
    {
      "bufferView": 97,
      "componentType": 5126,
      "count": 74,
      "type": "VEC2"
    },
    {
      "bufferView": 98,
      "componentType": 5126,
      "count": 74,
      "type": "VEC2"
    },
    {
      "bufferView": 99,
      "componentType": 5126,
      "count": 74,
      "type": "VEC3"
    },
    {
      "bufferView": 100,
      "componentType": 5123,
      "count": 74,
      "normalized": true,
      "type": "VEC4"
    },
    {
      "bufferView": 101,
      "componentType": 5123,
      "count": 288,
      "type": "SCALAR"
    },
    {
      "bufferView": 102,
      "componentType": 5126,
      "count": 600,
      "max": [
        0.8343209624290466,
        1.4898878335952759,
        0.6491702198982239
      ],
      "min": [
        -0.8528966307640076,
        -3.341200590133667,
        -0.3559950292110443
      ],
      "type": "VEC3"
    },
    {
      "bufferView": 103,
      "componentType": 5126,
      "count": 600,
      "type": "VEC3"
    },
    {
      "bufferView": 104,
      "componentType": 5126,
      "count": 600,
      "type": "VEC2"
    },
    {
      "bufferView": 105,
      "componentType": 5126,
      "count": 600,
      "type": "VEC2"
    },
    {
      "bufferView": 106,
      "componentType": 5123,
      "count": 600,
      "normalized": true,
      "type": "VEC4"
    },
    {
      "bufferView": 107,
      "componentType": 5123,
      "count": 600,
      "normalized": true,
      "type": "VEC4"
    },
    {
      "bufferView": 108,
      "componentType": 5123,
      "count": 900,
      "type": "SCALAR"
    },
    {
      "bufferView": 109,
      "componentType": 5126,
      "count": 4613,
      "max": [
        4.855959892272949,
        5.9515485763549805,
        3.302274227142334
      ],
      "min": [
        -4.882627487182617,
        -5.545106887817383,
        -3.2813682556152344
      ],
      "type": "VEC3"
    },
    {
      "bufferView": 110,
      "componentType": 5126,
      "count": 4613,
      "type": "VEC3"
    },
    {
      "bufferView": 111,
      "componentType": 5126,
      "count": 4613,
      "type": "VEC2"
    },
    {
      "bufferView": 112,
      "componentType": 5126,
      "count": 4613,
      "type": "VEC2"
    },
    {
      "bufferView": 113,
      "componentType": 5126,
      "count": 4613,
      "type": "VEC3"
    },
    {
      "bufferView": 114,
      "componentType": 5123,
      "count": 23661,
      "type": "SCALAR"
    },
    {
      "bufferView": 115,
      "componentType": 5126,
      "count": 715,
      "type": "VEC4"
    },
    {
      "bufferView": 116,
      "componentType": 5126,
      "count": 512,
      "type": "VEC4"
    },
    {
      "bufferView": 117,
      "componentType": 5126,
      "count": 387,
      "type": "VEC4"
    },
    {
      "bufferView": 118,
      "componentType": 5126,
      "count": 4265,
      "type": "VEC4"
    },
    {
      "bufferView": 119,
      "componentType": 5126,
      "count": 509,
      "type": "VEC4"
    },
    {
      "bufferView": 120,
      "componentType": 5126,
      "count": 1275,
      "type": "VEC4"
    },
    {
      "bufferView": 121,
      "componentType": 5126,
      "count": 207,
      "type": "VEC4"
    },
    {
      "bufferView": 122,
      "componentType": 5126,
      "count": 496,
      "type": "VEC4"
    },
    {
      "bufferView": 123,
      "componentType": 5126,
      "count": 4613,
      "type": "VEC4"
    }
  ],
  "bufferViews": [
    {
      "buffer": 0,
      "byteLength": 11520,
      "byteOffset": 0,
      "target": 34962
    },
    {
      "buffer": 0,
      "byteLength": 11520,
      "byteOffset": 11520,
      "target": 34962
    },
    {
      "buffer": 0,
      "byteLength": 7680,
      "byteOffset": 23040,
      "target": 34962
    },
    {
      "buffer": 0,
      "byteLength": 7680,
      "byteOffset": 30720,
      "target": 34962
    },
    {
      "buffer": 0,
      "byteLength": 7680,
      "byteOffset": 38400,
      "target": 34962
    },
    {
      "buffer": 0,
      "byteLength": 7680,
      "byteOffset": 46080,
      "target": 34962
    },
    {
      "buffer": 0,
      "byteLength": 2880,
      "byteOffset": 53760,
      "target": 34963
    },
    {
      "buffer": 0,
      "byteLength": 8580,
      "byteOffset": 56640,
      "target": 34962
    },
    {
      "buffer": 0,
      "byteLength": 8580,
      "byteOffset": 65220,
      "target": 34962
    },
    {
      "buffer": 0,
      "byteLength": 5720,
      "byteOffset": 73800,
      "target": 34962
    },
    {
      "buffer": 0,
      "byteLength": 5720,
      "byteOffset": 79520,
      "target": 34962
    },
    {
      "buffer": 0,
      "byteLength": 4224,
      "byteOffset": 85240,
      "target": 34963
    },
    {
      "buffer": 0,
      "byteLength": 6144,
      "byteOffset": 89464,
      "target": 34962
    },
    {
      "buffer": 0,
      "byteLength": 6144,
      "byteOffset": 95608,
      "target": 34962
    },
    {
      "buffer": 0,
      "byteLength": 4096,
      "byteOffset": 101752,
      "target": 34962
    },
    {
      "buffer": 0,
      "byteLength": 4096,
      "byteOffset": 105848,
      "target": 34962
    },
    {
      "buffer": 0,
      "byteLength": 2376,
      "byteOffset": 109944,
      "target": 34963
    },
    {
      "buffer": 0,
      "byteLength": 4644,
      "byteOffset": 112320,
      "target": 34962
    },
    {
      "buffer": 0,
      "byteLength": 4644,
      "byteOffset": 116964,
      "target": 34962
    },
    {
      "buffer": 0,
      "byteLength": 3096,
      "byteOffset": 121608,
      "target": 34962
    },
    {
      "buffer": 0,
      "byteLength": 3096,
      "byteOffset": 124704,
      "target": 34962
    },
    {
      "buffer": 0,
      "byteLength": 1848,
      "byteOffset": 127800,
      "target": 34963
    },
    {
      "buffer": 0,
      "byteLength": 8640,
      "byteOffset": 129648,
      "target": 34962
    },
    {
      "buffer": 0,
      "byteLength": 8640,
      "byteOffset": 138288,
      "target": 34962
    },
    {
      "buffer": 0,
      "byteLength": 5760,
      "byteOffset": 146928,
      "target": 34962
    },
    {
      "buffer": 0,
      "byteLength": 5760,
      "byteOffset": 152688,
      "target": 34962
    },
    {
      "buffer": 0,
      "byteLength": 5760,
      "byteOffset": 158448,
      "target": 34962
    },
    {
      "buffer": 0,
      "byteLength": 5760,
      "byteOffset": 164208,
      "target": 34962
    },
    {
      "buffer": 0,
      "byteLength": 2160,
      "byteOffset": 169968,
      "target": 34963
    },
    {
      "buffer": 0,
      "byteLength": 20160,
      "byteOffset": 172128,
      "target": 34962
    },
    {
      "buffer": 0,
      "byteLength": 20160,
      "byteOffset": 192288,
      "target": 34962
    },
    {
      "buffer": 0,
      "byteLength": 13440,
      "byteOffset": 212448,
      "target": 34962
    },
    {
      "buffer": 0,
      "byteLength": 13440,
      "byteOffset": 225888,
      "target": 34962
    },
    {
      "buffer": 0,
      "byteLength": 13440,
      "byteOffset": 239328,
      "target": 34962
    },
    {
      "buffer": 0,
      "byteLength": 13440,
      "byteOffset": 252768,
      "target": 34962
    },
    {
      "buffer": 0,
      "byteLength": 11520,
      "byteOffset": 266208,
      "target": 34963
    },
    {
      "buffer": 0,
      "byteLength": 51180,
      "byteOffset": 277728,
      "target": 34962
    },
    {
      "buffer": 0,
      "byteLength": 51180,
      "byteOffset": 328908,
      "target": 34962
    },
    {
      "buffer": 0,
      "byteLength": 34120,
      "byteOffset": 380088,
      "target": 34962
    },
    {
      "buffer": 0,
      "byteLength": 34120,
      "byteOffset": 414208,
      "target": 34962
    },
    {
      "buffer": 0,
      "byteLength": 51180,
      "byteOffset": 448328,
      "target": 34962
    },
    {
      "buffer": 0,
      "byteLength": 44748,
      "byteOffset": 499508,
      "target": 34963
    },
    {
      "buffer": 0,
      "byteLength": 6108,
      "byteOffset": 544256,
      "target": 34962
    },
    {
      "buffer": 0,
      "byteLength": 6108,
      "byteOffset": 550364,
      "target": 34962
    },
    {
      "buffer": 0,
      "byteLength": 4072,
      "byteOffset": 556472,
      "target": 34962
    },
    {
      "buffer": 0,
      "byteLength": 4072,
      "byteOffset": 560544,
      "target": 34962
    },
    {
      "buffer": 0,
      "byteLength": 4224,
      "byteOffset": 564616,
      "target": 34963
    },
    {
      "buffer": 0,
      "byteLength": 15300,
      "byteOffset": 568840,
      "target": 34962
    },
    {
      "buffer": 0,
      "byteLength": 15300,
      "byteOffset": 584140,
      "target": 34962
    },
    {
      "buffer": 0,
      "byteLength": 10200,
      "byteOffset": 599440,
      "target": 34962
    },
    {
      "buffer": 0,
      "byteLength": 10200,
      "byteOffset": 609640,
      "target": 34962
    },
    {
      "buffer": 0,
      "byteLength": 15300,
      "byteOffset": 619840,
      "target": 34962
    },
    {
      "buffer": 0,
      "byteLength": 10200,
      "byteOffset": 635140,
      "target": 34962
    },
    {
      "buffer": 0,
      "byteLength": 11436,
      "byteOffset": 645340,
      "target": 34963
    },
    {
      "buffer": 0,
      "byteLength": 23040,
      "byteOffset": 656776,
      "target": 34962
    },
    {
      "buffer": 0,
      "byteLength": 23040,
      "byteOffset": 679816,
      "target": 34962
    },
    {
      "buffer": 0,
      "byteLength": 15360,
      "byteOffset": 702856,
      "target": 34962
    },
    {
      "buffer": 0,
      "byteLength": 15360,
      "byteOffset": 718216,
      "target": 34962
    },
    {
      "buffer": 0,
      "byteLength": 23040,
      "byteOffset": 733576,
      "target": 34962
    },
    {
      "buffer": 0,
      "byteLength": 15360,
      "byteOffset": 756616,
      "target": 34962
    },
    {
      "buffer": 0,
      "byteLength": 5760,
      "byteOffset": 771976,
      "target": 34963
    },
    {
      "buffer": 0,
      "byteLength": 10368,
      "byteOffset": 777736,
      "target": 34962
    },
    {
      "buffer": 0,
      "byteLength": 10368,
      "byteOffset": 788104,
      "target": 34962
    },
    {
      "buffer": 0,
      "byteLength": 6912,
      "byteOffset": 798472,
      "target": 34962
    },
    {
      "buffer": 0,
      "byteLength": 6912,
      "byteOffset": 805384,
      "target": 34962
    },
    {
      "buffer": 0,
      "byteLength": 6912,
      "byteOffset": 812296,
      "target": 34962
    },
    {
      "buffer": 0,
      "byteLength": 6912,
      "byteOffset": 819208,
      "target": 34962
    },
    {
      "buffer": 0,
      "byteLength": 2592,
      "byteOffset": 826120,
      "target": 34963
    },
    {
      "buffer": 0,
      "byteLength": 11520,
      "byteOffset": 828712,
      "target": 34962
    },
    {
      "buffer": 0,
      "byteLength": 11520,
      "byteOffset": 840232,
      "target": 34962
    },
    {
      "buffer": 0,
      "byteLength": 7680,
      "byteOffset": 851752,
      "target": 34962
    },
    {
      "buffer": 0,
      "byteLength": 7680,
      "byteOffset": 859432,
      "target": 34962
    },
    {
      "buffer": 0,
      "byteLength": 7680,
      "byteOffset": 867112,
      "target": 34962
    },
    {
      "buffer": 0,
      "byteLength": 7680,
      "byteOffset": 874792,
      "target": 34962
    },
    {
      "buffer": 0,
      "byteLength": 2484,
      "byteOffset": 882472,
      "target": 34962
    },
    {
      "buffer": 0,
      "byteLength": 2484,
      "byteOffset": 884956,
      "target": 34962
    },
    {
      "buffer": 0,
      "byteLength": 1656,
      "byteOffset": 887440,
      "target": 34962
    },
    {
      "buffer": 0,
      "byteLength": 1656,
      "byteOffset": 889096,
      "target": 34962
    },
    {
      "buffer": 0,
      "byteLength": 2484,
      "byteOffset": 890752,
      "target": 34962
    },
    {
      "buffer": 0,
      "byteLength": 1656,
      "byteOffset": 893236,
      "target": 34962
    },
    {
      "buffer": 0,
      "byteLength": 1620,
      "byteOffset": 894892,
      "target": 34963
    },
    {
      "buffer": 0,
      "byteLength": 1524,
      "byteOffset": 896512,
      "target": 34962
    },
    {
      "buffer": 0,
      "byteLength": 1524,
      "byteOffset": 898036,
      "target": 34962
    },
    {
      "buffer": 0,
      "byteLength": 1016,
      "byteOffset": 899560,
      "target": 34962
    },
    {
      "buffer": 0,
      "byteLength": 1016,
      "byteOffset": 900576,
      "target": 34962
    },
    {
      "buffer": 0,
      "byteLength": 1524,
      "byteOffset": 901592,
      "target": 34962
    },
    {
      "buffer": 0,
      "byteLength": 1016,
      "byteOffset": 903116,
      "target": 34962
    },
    {
      "buffer": 0,
      "byteLength": 1068,
      "byteOffset": 904132,
      "target": 34963
    },
    {
      "buffer": 0,
      "byteLength": 5952,
      "byteOffset": 905200,
      "target": 34962
    },
    {
      "buffer": 0,
      "byteLength": 5952,
      "byteOffset": 911152,
      "target": 34962
    },
    {
      "buffer": 0,
      "byteLength": 3968,
      "byteOffset": 917104,
      "target": 34962
    },
    {
      "buffer": 0,
      "byteLength": 3968,
      "byteOffset": 921072,
      "target": 34962
    },
    {
      "buffer": 0,
      "byteLength": 5952,
      "byteOffset": 925040,
      "target": 34962
    },
    {
      "buffer": 0,
      "byteLength": 3968,
      "byteOffset": 930992,
      "target": 34962
    },
    {
      "buffer": 0,
      "byteLength": 3672,
      "byteOffset": 934960,
      "target": 34963
    },
    {
      "buffer": 0,
      "byteLength": 888,
      "byteOffset": 938632,
      "target": 34962
    },
    {
      "buffer": 0,
      "byteLength": 888,
      "byteOffset": 939520,
      "target": 34962
    },
    {
      "buffer": 0,
      "byteLength": 592,
      "byteOffset": 940408,
      "target": 34962
    },
    {
      "buffer": 0,
      "byteLength": 592,
      "byteOffset": 941000,
      "target": 34962
    },
    {
      "buffer": 0,
      "byteLength": 888,
      "byteOffset": 941592,
      "target": 34962
    },
    {
      "buffer": 0,
      "byteLength": 592,
      "byteOffset": 942480,
      "target": 34962
    },
    {
      "buffer": 0,
      "byteLength": 576,
      "byteOffset": 943072,
      "target": 34963
    },
    {
      "buffer": 0,
      "byteLength": 7200,
      "byteOffset": 943648,
      "target": 34962
    },
    {
      "buffer": 0,
      "byteLength": 7200,
      "byteOffset": 950848,
      "target": 34962
    },
    {
      "buffer": 0,
      "byteLength": 4800,
      "byteOffset": 958048,
      "target": 34962
    },
    {
      "buffer": 0,
      "byteLength": 4800,
      "byteOffset": 962848,
      "target": 34962
    },
    {
      "buffer": 0,
      "byteLength": 4800,
      "byteOffset": 967648,
      "target": 34962
    },
    {
      "buffer": 0,
      "byteLength": 4800,
      "byteOffset": 972448,
      "target": 34962
    },
    {
      "buffer": 0,
      "byteLength": 1800,
      "byteOffset": 977248,
      "target": 34963
    },
    {
      "buffer": 0,
      "byteLength": 55356,
      "byteOffset": 979048,
      "target": 34962
    },
    {
      "buffer": 0,
      "byteLength": 55356,
      "byteOffset": 1034404,
      "target": 34962
    },
    {
      "buffer": 0,
      "byteLength": 36904,
      "byteOffset": 1089760,
      "target": 34962
    },
    {
      "buffer": 0,
      "byteLength": 36904,
      "byteOffset": 1126664,
      "target": 34962
    },
    {
      "buffer": 0,
      "byteLength": 55356,
      "byteOffset": 1163568,
      "target": 34962
    },
    {
      "buffer": 0,
      "byteLength": 47322,
      "byteOffset": 1218924,
      "target": 34963
    },
    {
      "buffer": 0,
      "byteOffset": 1266248,
      "byteLength": 11440,
      "target": 34962
    },
    {
      "buffer": 0,
      "byteOffset": 1277688,
      "byteLength": 8192,
      "target": 34962
    },
    {
      "buffer": 0,
      "byteOffset": 1285880,
      "byteLength": 6192,
      "target": 34962
    },
    {
      "buffer": 0,
      "byteOffset": 1292072,
      "byteLength": 68240,
      "target": 34962
    },
    {
      "buffer": 0,
      "byteOffset": 1360312,
      "byteLength": 8144,
      "target": 34962
    },
    {
      "buffer": 0,
      "byteOffset": 1368456,
      "byteLength": 20400,
      "target": 34962
    },
    {
      "buffer": 0,
      "byteOffset": 1388856,
      "byteLength": 3312,
      "target": 34962
    },
    {
      "buffer": 0,
      "byteOffset": 1392168,
      "byteLength": 7936,
      "target": 34962
    },
    {
      "buffer": 0,
      "byteOffset": 1400104,
      "byteLength": 73808,
      "target": 34962
    }
  ],
  "samplers": [
    {
      "magFilter": 9729,
      "minFilter": 9987
    }
  ],
  "buffers": [
    {
      "byteLength": 1473912,
      "uri": "cell_x1_z-1_render.bin"
    }
  ]
}