{
  "asset": {
    "generator": "Khronos glTF Blender I/O v5.0.21",
    "version": "2.0"
  },
  "extensionsUsed": [
    "KHR_materials_specular",
    "KHR_materials_ior",
    "KHR_texture_transform"
  ],
  "extensionsRequired": [
    "KHR_texture_transform"
  ],
  "scene": 0,
  "scenes": [
    {
      "name": "Scene",
      "nodes": [
        0,
        1,
        2,
        3,
        4,
        5,
        6,
        7,
        8,
        9,
        10,
        11,
        12,
        13,
        14,
        15,
        16,
        17,
        18,
        19,
        20,
        21,
        22,
        23,
        24,
        25,
        26,
        27,
        28,
        29,
        30,
        31,
        32,
        33,
        34,
        35,
        36,
        37,
        38,
        39,
        40,
        41,
        42,
        43,
        44,
        45,
        46,
        47,
        48,
        49,
        50,
        51,
        52,
        53,
        54,
        55
      ]
    }
  ],
  "nodes": [
    {
      "mesh": 0,
      "name": "SM_MOD_wall_trim_round_castle_LOD0.001",
      "rotation": [
        0,
        -0.7071017622947693,
        0,
        0.7071117758750916
      ],
      "translation": [
        -31.73848533630371,
        18.490615844726562,
        -6.6278533935546875
      ]
    },
    {
      "mesh": 1,
      "name": "SM_MOD_ceiling_round_castle_LOD0.001",
      "translation": [
        -38.04148483276367,
        19.32861328125,
        -2.6278533935546875
      ]
    },
    {
      "mesh": 2,
      "name": "SM_MOD_wall_big_castle_LOD0.039",
      "rotation": [
        0,
        -0.7071017622947693,
        0,
        0.7071117758750916
      ],
      "translation": [
        -40.04148483276367,
        12.32861328125,
        -6.6278533935546875
      ]
    },
    {
      "mesh": 3,
      "name": "SM_MOD_pillar_castle_01_LOD0.028",
      "scale": [
        1,
        1.0732901096343994,
        1
      ],
      "translation": [
        -39.5574836730957,
        12.32861328125,
        -8.229854583740234
      ]
    },
    {
      "mesh": 4,
      "name": "SM_MOD_wall_trim_half_castle_LOD0.002",
      "translation": [
        -32.04148483276367,
        12.32861328125,
        -8.627853393554688
      ]
    },
    {
      "mesh": 5,
      "name": "SM_MOD_wall_trim_castle_LOD0.098",
      "rotation": [
        0.7071130871772766,
        -2.454372634019819e-06,
        -0.7071005702018738,
        2.5610984266677406e-06
      ],
      "translation": [
        -36.04148483276367,
        18.489608764648438,
        -2.6278533935546875
      ]
    },
    {
      "mesh": 6,
      "name": "SM_ENV_tree_castle_01_LOD0.007",
      "rotation": [
        0,
        0.5397537350654602,
        0,
        0.8418229818344116
      ],
      "scale": [
        1.1236997842788696,
        1.1237000226974487,
        1.1236997842788696
      ],
      "translation": [
        -58.18727111816406,
        35.80860900878906,
        -26.78015899658203
      ]
    },
    {
      "mesh": 5,
      "name": "SM_MOD_wall_trim_castle_LOD0.127",
      "rotation": [
        0,
        0.7071045637130737,
        0,
        0.7071090936660767
      ],
      "translation": [
        -40.04148483276367,
        12.32861328125,
        -6.6278533935546875
      ]
    },
    {
      "mesh": 2,
      "name": "SM_MOD_wall_big_castle_LOD0.071",
      "rotation": [
        0,
        -1,
        0,
        1.9745029931073077e-05
      ],
      "translation": [
        -34.04148483276367,
        12.32861328125,
        -8.627853393554688
      ]
    },
    {
      "mesh": 2,
      "name": "SM_MOD_wall_big_castle_LOD0.079",
      "rotation": [
        0,
        -0.7071017622947693,
        0,
        0.7071117758750916
      ],
      "translation": [
        -36.04148483276367,
        12.32861328125,
        -2.6278533935546875
      ]
    },
    {
      "mesh": 5,
      "name": "SM_MOD_wall_trim_castle_LOD0.142",
      "translation": [
        -34.04148483276367,
        12.32861328125,
        -8.627853393554688
      ]
    },
    {
      "mesh": 7,
      "name": "SM_PROP_candleholder_castle_03_LOD0.028",
      "rotation": [
        0,
        -0.7071224451065063,
        0,
        0.7070910930633545
      ],
      "translation": [
        -36.447486877441406,
        14.063613891601562,
        -3.119853973388672
      ]
    },
    {
      "mesh": 8,
      "name": "SM_MOD_wall_big_windows_castle_LOD0.019",
      "rotation": [
        0,
        -3.2335515243175905e-06,
        0,
        1
      ],
      "translation": [
        -34.04148483276367,
        33.32861328125,
        -0.6278533935546875
      ]
    },
    {
      "mesh": 9,
      "name": "SM_MOD_floor_castle_LOD0.214",
      "translation": [
        -38.04148483276367,
        12.32861328125,
        -6.6278533935546875
      ]
    },
    {
      "mesh": 5,
      "name": "SM_MOD_wall_trim_castle_LOD0.160",
      "rotation": [
        -0.707099437713623,
        2.4439641492790543e-06,
        -0.7071141004562378,
        2.3832540136936586e-06
      ],
      "translation": [
        -40.04148483276367,
        18.489608764648438,
        -2.6278533935546875
      ]
    },
    {
      "mesh": 9,
      "name": "SM_MOD_floor_castle_LOD0.240",
      "translation": [
        -34.04148483276367,
        12.32861328125,
        -6.6278533935546875
      ]
    },
    {
      "mesh": 0,
      "name": "SM_MOD_wall_trim_round_castle_LOD0.003",
      "rotation": [
        0,
        0.7071030139923096,
        0,
        0.7071105241775513
      ],
      "translation": [
        -36.21448516845703,
        18.490615844726562,
        -6.6278533935546875
      ]
    },
    {
      "mesh": 10,
      "name": "SM_MOD_deco_bricks_castle_01_LOD0.012",
      "rotation": [
        0,
        -8.031725883483887e-05,
        0,
        1
      ],
      "translation": [
        -36.1094856262207,
        18.334609985351562,
        -4.46185302734375
      ]
    },
    {
      "mesh": 10,
      "name": "SM_MOD_deco_bricks_castle_01_LOD0.014",
      "rotation": [
        3.4876873542089015e-05,
        -5.6792545365169644e-05,
        -0.7070906162261963,
        0.7071230411529541
      ],
      "translation": [
        -36.04539489746094,
        18.830612182617188,
        -5.090847015380859
      ]
    },
    {
      "mesh": 11,
      "name": "SM_MOD_wall_deco_pillar_castle_LOD0.125",
      "rotation": [
        0,
        -0.9238789081573486,
        0,
        0.38268497586250305
      ],
      "translation": [
        -36.04148483276367,
        12.32861328125,
        -4.6278533935546875
      ]
    },
    {
      "mesh": 9,
      "name": "SM_MOD_floor_castle_LOD0.318",
      "translation": [
        -38.04148483276367,
        12.32861328125,
        -2.6278533935546875
      ]
    },
    {
      "mesh": 5,
      "name": "SM_MOD_wall_trim_castle_LOD0.217",
      "rotation": [
        0,
        0.7071045637130737,
        0,
        0.7071090936660767
      ],
      "translation": [
        -40.04148483276367,
        12.32861328125,
        -2.6278533935546875
      ]
    },
    {
      "mesh": 12,
      "name": "SM_PROP_carpet_flat_castle_LOD0.019",
      "rotation": [
        0,
        -0.7071066498756409,
        0,
        0.70710688829422
      ],
      "scale": [
        0.4431600868701935,
        0.4431599974632263,
        0.4431600868701935
      ],
      "translation": [
        -33.16648483276367,
        12.473648071289062,
        -6.702854156494141
      ]
    },
    {
      "mesh": 5,
      "name": "SM_MOD_wall_trim_castle_LOD0.232",
      "rotation": [
        1,
        -3.5087230116914725e-06,
        3.3229589462280273e-06,
        7.54862412577495e-08
      ],
      "translation": [
        -34.04148483276367,
        18.489608764648438,
        -4.6278533935546875
      ]
    },
    {
      "mesh": 2,
      "name": "SM_MOD_wall_big_castle_LOD0.151",
      "rotation": [
        0,
        -1,
        0,
        1.9745029931073077e-05
      ],
      "translation": [
        -38.04148483276367,
        12.32861328125,
        -8.627853393554688
      ]
    },
    {
      "mesh": 2,
      "name": "SM_MOD_wall_big_castle_LOD0.157",
      "rotation": [
        0,
        -0.7071017622947693,
        0,
        0.7071117758750916
      ],
      "translation": [
        -32.04148483276367,
        12.32861328125,
        -22.627853393554688
      ]
    },
    {
      "mesh": 13,
      "name": "SM_MOD_wall_small_castle_LOD0.157",
      "translation": [
        -38.065269470214844,
        17.828323364257812,
        -8.627853393554688
      ]
    },
    {
      "mesh": 14,
      "name": "SM_MOD_roof_sloped_ext_bottom_diagonal_corner_castle_LOD0.012",
      "rotation": [
        0,
        1,
        0,
        2.0579494957928546e-05
      ],
      "translation": [
        -36.04148483276367,
        39.32861328125,
        -0.6278533935546875
      ]
    },
    {
      "mesh": 5,
      "name": "SM_MOD_wall_trim_castle_LOD0.308",
      "rotation": [
        -0.707099437713623,
        2.4439641492790543e-06,
        -0.7071141004562378,
        2.3832540136936586e-06
      ],
      "translation": [
        -40.04148483276367,
        18.489608764648438,
        -6.6278533935546875
      ]
    },
    {
      "mesh": 15,
      "name": "SM_MOD_roof_sloped_ext_bottom_castle_LOD0.020",
      "rotation": [
        0,
        1,
        0,
        1.032749696605606e-05
      ],
      "translation": [
        -34.04148483276367,
        39.32861328125,
        -0.6278533935546875
      ]
    },
    {
      "mesh": 16,
      "name": "SM_ENV_cliff_castle_01_LOD0.028",
      "rotation": [
        0.4730501174926758,
        -0.4293418228626251,
        -0.6631767153739929,
        0.38998210430145264
      ],
      "scale": [
        1.6792658567428589,
        1.6792657375335693,
        1.6792659759521484
      ],
      "translation": [
        -33.2614860534668,
        30.548614501953125,
        -15.727851867675781
      ]
    },
    {
      "mesh": 2,
      "name": "SM_MOD_wall_big_castle_LOD0.189",
      "rotation": [
        0,
        -0.7071017622947693,
        0,
        0.7071117758750916
      ],
      "translation": [
        -32.04148483276367,
        12.32861328125,
        -18.627853393554688
      ]
    },
    {
      "mesh": 5,
      "name": "SM_MOD_wall_trim_castle_LOD0.352",
      "rotation": [
        0,
        -1,
        0,
        5.916753252677154e-06
      ],
      "translation": [
        -34.04148483276367,
        12.32861328125,
        -4.6278533935546875
      ]
    },
    {
      "mesh": 2,
      "name": "SM_MOD_wall_big_castle_LOD0.213",
      "rotation": [
        0,
        -1,
        0,
        1.9745029931073077e-05
      ],
      "translation": [
        -34.04148483276367,
        12.32861328125,
        -4.6278533935546875
      ]
    },
    {
      "mesh": 1,
      "name": "SM_MOD_ceiling_round_castle_LOD0.011",
      "translation": [
        -38.04148483276367,
        19.32861328125,
        -6.6278533935546875
      ]
    },
    {
      "mesh": 6,
      "name": "SM_ENV_tree_castle_01_LOD0.034",
      "rotation": [
        0,
        0.9832881093025208,
        0,
        0.18205620348453522
      ],
      "scale": [
        1.1678998470306396,
        1.1678999662399292,
        1.1678998470306396
      ],
      "translation": [
        -48.59728240966797,
        33.63861083984375,
        -21.74126434326172
      ]
    },
    {
      "mesh": 17,
      "name": "SM_MOD_deco_trim_straight_castle_LOD0.179",
      "rotation": [
        0,
        0.7070955038070679,
        0,
        0.7071181535720825
      ],
      "translation": [
        -32.04148483276367,
        16.32861328125,
        -24.627853393554688
      ]
    },
    {
      "mesh": 2,
      "name": "SM_MOD_wall_big_castle_LOD0.245",
      "rotation": [
        0,
        -3.2335515243175905e-06,
        0,
        1
      ],
      "translation": [
        -34.04148483276367,
        27.32861328125,
        -0.6278533935546875
      ]
    },
    {
      "mesh": 11,
      "name": "SM_MOD_wall_deco_pillar_castle_LOD0.241",
      "rotation": [
        0,
        -0.9814215302467346,
        0,
        0.19186408817768097
      ],
      "translation": [
        -36.04148483276367,
        33.32861328125,
        -0.6278533935546875
      ]
    },
    {
      "mesh": 5,
      "name": "SM_MOD_wall_trim_castle_LOD0.445",
      "rotation": [
        6.3627949202782474e-06,
        0,
        -1,
        3.532567461661529e-06
      ],
      "translation": [
        -34.04148483276367,
        18.489608764648438,
        -8.627853393554688
      ]
    },
    {
      "mesh": 5,
      "name": "SM_MOD_wall_trim_castle_LOD0.460",
      "rotation": [
        0,
        -1.7453292457503267e-05,
        0,
        1
      ],
      "translation": [
        -34.04148483276367,
        33.32861328125,
        -0.6278533935546875
      ]
    },
    {
      "mesh": 2,
      "name": "SM_MOD_wall_big_castle_LOD0.280",
      "rotation": [
        0,
        -0.7071017622947693,
        0,
        0.7071117758750916
      ],
      "translation": [
        -32.04148483276367,
        12.32861328125,
        -14.627853393554688
      ]
    },
    {
      "mesh": 5,
      "name": "SM_MOD_wall_trim_castle_LOD0.483",
      "rotation": [
        0,
        0,
        -1,
        1.2354054888419341e-05
      ],
      "translation": [
        -34.04148483276367,
        39.21160888671875,
        -0.6278533935546875
      ]
    },
    {
      "mesh": 5,
      "name": "SM_MOD_wall_trim_castle_LOD0.484",
      "rotation": [
        0,
        -0.7071062922477722,
        0,
        0.7071073651313782
      ],
      "translation": [
        -36.04148483276367,
        12.32861328125,
        -2.6278533935546875
      ]
    },
    {
      "mesh": 3,
      "name": "SM_MOD_pillar_castle_01_LOD0.164",
      "scale": [
        1,
        1.0732901096343994,
        1
      ],
      "translation": [
        -36.401485443115234,
        12.32861328125,
        -8.229854583740234
      ]
    },
    {
      "mesh": 2,
      "name": "SM_MOD_wall_big_castle_LOD0.303",
      "rotation": [
        0,
        -0.7071017622947693,
        0,
        0.7071117758750916
      ],
      "translation": [
        -40.04148483276367,
        12.32861328125,
        -2.6278533935546875
      ]
    },
    {
      "mesh": 16,
      "name": "SM_ENV_cliff_castle_01_LOD0.047",
      "rotation": [
        0.15821464359760284,
        0.5074180364608765,
        -0.7250615954399109,
        0.4379279613494873
      ],
      "scale": [
        1.6792658567428589,
        1.6792659759521484,
        1.6792664527893066
      ],
      "translation": [
        -39.25148391723633,
        26.9586181640625,
        -2.5578536987304688
      ]
    },
    {
      "mesh": 0,
      "name": "SM_MOD_wall_trim_round_castle_LOD0.007",
      "rotation": [
        0,
        -3.3244486985495314e-05,
        0,
        1
      ],
      "translation": [
        -38.04148483276367,
        18.444610595703125,
        -8.627853393554688
      ]
    },
    {
      "mesh": 2,
      "name": "SM_MOD_wall_big_castle_LOD0.316",
      "rotation": [
        0,
        -0.7071017622947693,
        0,
        0.7071117758750916
      ],
      "translation": [
        -32.04148483276367,
        12.32861328125,
        -26.627853393554688
      ]
    },
    {
      "mesh": 5,
      "name": "SM_MOD_wall_trim_castle_LOD0.527",
      "translation": [
        -38.04148483276367,
        12.32861328125,
        -8.627853393554688
      ]
    },
    {
      "mesh": 2,
      "name": "SM_MOD_wall_big_castle_LOD0.328",
      "rotation": [
        0,
        -0.7071017622947693,
        0,
        0.7071117758750916
      ],
      "translation": [
        -32.04148483276367,
        12.32861328125,
        -10.627853393554688
      ]
    },
    {
      "mesh": 6,
      "name": "SM_ENV_tree_castle_01_LOD0.048",
      "translation": [
        -61.449684143066406,
        33.89862060546875,
        -11.429698944091797
      ]
    },
    {
      "mesh": 18,
      "name": "SM_PROP_curtain_castle_02_LOD0.010",
      "translation": [
        -34.04148483276367,
        38.86561584472656,
        -0.15985488891601562
      ]
    },
    {
      "mesh": 2,
      "name": "SM_MOD_wall_big_castle_LOD0.330",
      "rotation": [
        0,
        -0.7071017622947693,
        0,
        0.7071117758750916
      ],
      "translation": [
        -32.04148483276367,
        12.32861328125,
        -30.627853393554688
      ]
    },
    {
      "mesh": 1,
      "name": "SM_MOD_ceiling_round_castle_LOD0.019",
      "rotation": [
        0,
        0.7071065902709961,
        0,
        0.7071070671081543
      ],
      "translation": [
        -34.04148483276367,
        19.32861328125,
        -6.6278533935546875
      ]
    },
    {
      "mesh": 11,
      "name": "SM_MOD_wall_deco_pillar_castle_LOD0.302",
      "rotation": [
        0,
        -0.9814215302467346,
        0,
        0.19186408817768097
      ],
      "translation": [
        -36.04148483276367,
        27.32861328125,
        -0.6278533935546875
      ]
    }
  ],
  "materials": [
    {
      "doubleSided": true,
      "name": "M_TRIM_castle",
      "normalTexture": {
        "index": 0,
        "scale": 4
      },
      "pbrMetallicRoughness": {
        "baseColorTexture": {
          "index": 1
        },
        "metallicRoughnessTexture": {
          "index": 2
        }
      }
    },
    {
      "doubleSided": true,
      "name": "M_MOD_floor_castle_01",
      "normalTexture": {
        "index": 3,
        "scale": 4
      },
      "pbrMetallicRoughness": {
        "baseColorTexture": {
          "index": 4
        },
        "metallicRoughnessTexture": {
          "index": 5
        }
      }
    },
    {
      "doubleSided": true,
      "name": "M_MOD_bricks_castle",
      "normalTexture": {
        "index": 6,
        "scale": 4
      },
      "pbrMetallicRoughness": {
        "baseColorTexture": {
          "index": 7
        },
        "metallicRoughnessTexture": {
          "index": 8
        }
      }
    },
    {
      "doubleSided": true,
      "extensions": {
        "KHR_materials_specular": {
          "specularFactor": 0
        },
        "KHR_materials_ior": {
          "ior": 1.4500000476837158
        }
      },
      "name": "M_ENV_tree_wood_castle",
      "normalTexture": {
        "index": 9,
        "scale": 2
      },
      "pbrMetallicRoughness": {
        "baseColorFactor": [
          1,
          1,
          1,
          1
        ],
        "baseColorTexture": {
          "index": 10
        },
        "metallicRoughnessTexture": {
          "index": 11
        }
      }
    },
    {
      "alphaMode": "MASK",
      "doubleSided": true,
      "extensions": {
        "KHR_materials_specular": {
          "specularFactor": 0
        },
        "KHR_materials_ior": {
          "ior": 1.4500000476837158
        }
      },
      "name": "M_ENV_tree_leaves_castle_01",
      "pbrMetallicRoughness": {
        "baseColorFactor": [
          0.08437485992908478,
          0.39157116413116455,
          0.028426364064216614,
          1
        ],
        "baseColorTexture": {
          "index": 12
        },
        "metallicFactor": 0,
        "roughnessFactor": 0
      }
    },
    {
      "doubleSided": true,
      "extensions": {
        "KHR_materials_specular": {
          "specularColorFactor": [
            1.0635696649551392,
            1.0635696649551392,
            1.0635696649551392
          ]
        }
      },
      "name": "M_PROP_deco_castle",
      "normalTexture": {
        "index": 13,
        "scale": 2
      },
      "pbrMetallicRoughness": {
        "baseColorTexture": {
          "index": 14
        },
        "metallicRoughnessTexture": {
          "index": 15
        }
      }
    },
    {
      "alphaMode": "BLEND",
      "doubleSided": true,
      "extensions": {
        "KHR_materials_specular": {
          "specularColorFactor": [
            1.2999999523162842,
            1.2999999523162842,
            1.2999999523162842
          ]
        }
      },
      "name": "M_MOD_glass_castle",
      "pbrMetallicRoughness": {
        "baseColorFactor": [
          0.2486572265625,
          0.2486572265625,
          0.2486572265625,
          0.5
        ],
        "baseColorTexture": {
          "index": 16
        },
        "metallicFactor": 0,
        "roughnessFactor": 0.7636363506317139
      }
    },
    {
      "doubleSided": true,
      "name": "M_PROP_carpet_castle",
      "pbrMetallicRoughness": {
        "baseColorTexture": {
          "index": 17
        },
        "metallicFactor": 0,
        "roughnessFactor": 0.8716381788253784
      }
    },
    {
      "doubleSided": true,
      "name": "M_MOD_roof_castle",
      "normalTexture": {
        "index": 18,
        "scale": 3
      },
      "pbrMetallicRoughness": {
        "baseColorFactor": [
          1,
          0.05308542773127556,
          0,
          1
        ],
        "baseColorTexture": {
          "index": 19
        },
        "metallicRoughnessTexture": {
          "index": 20
        }
      }
    },
    {
      "doubleSided": true,
      "name": "M_CliffGrassVC",
      "normalTexture": {
        "extensions": {
          "KHR_texture_transform": {
            "offset": [
              0,
              -6
            ],
            "scale": [
              7,
              7
            ]
          }
        },
        "index": 21,
        "scale": 0.6000000238418579
      },
      "pbrMetallicRoughness": {
        "metallicFactor": 0,
        "roughnessFactor": 0.9200000166893005
      }
    }
  ],
  "meshes": [
    {
      "name": "Cube.378",
      "primitives": [
        {
          "attributes": {
            "POSITION": 0,
            "NORMAL": 1,
            "TEXCOORD_0": 2,
            "TEXCOORD_1": 3,
            "TANGENT": 115
          },
          "indices": 4,
          "material": 0
        }
      ]
    },
    {
      "name": "Cube.455",
      "primitives": [
        {
          "attributes": {
            "POSITION": 5,
            "NORMAL": 6,
            "TEXCOORD_0": 7,
            "TEXCOORD_1": 8,
            "TANGENT": 116
          },
          "indices": 9,
          "material": 1
        }
      ]
    },
    {
      "name": "Cube.033",
      "primitives": [
        {
          "attributes": {
            "POSITION": 10,
            "NORMAL": 11,
            "TEXCOORD_0": 12,
            "TEXCOORD_1": 13,
            "TANGENT": 117
          },
          "indices": 14,
          "material": 2
        }
      ]
    },
    {
      "name": "Cylinder.290",
      "primitives": [
        {
          "attributes": {
            "POSITION": 15,
            "NORMAL": 16,
            "TEXCOORD_0": 17,
            "TEXCOORD_1": 18,
            "TANGENT": 118
          },
          "indices": 19,
          "material": 0
        }
      ]
    },
    {
      "name": "Cube.419",
      "primitives": [
        {
          "attributes": {
            "POSITION": 20,
            "NORMAL": 21,
            "TEXCOORD_0": 22,
            "TEXCOORD_1": 23,
            "TANGENT": 119
          },
          "indices": 24,
          "material": 0
        }
      ]
    },
    {
      "name": "Cube.373",
      "primitives": [
        {
          "attributes": {
            "POSITION": 25,
            "NORMAL": 26,
            "TEXCOORD_0": 27,
            "TEXCOORD_1": 28,
            "TANGENT": 120
          },
          "indices": 29,
          "material": 0
        }
      ]
    },
    {
      "name": "Cylinder.294",
      "primitives": [
        {
          "attributes": {
            "POSITION": 30,
            "NORMAL": 31,
            "TEXCOORD_0": 32,
            "TEXCOORD_1": 33,
            "COLOR_0": 34,
            "COLOR_1": 35,
            "TANGENT": 121
          },
          "indices": 36,
          "material": 3
        },
        {
          "attributes": {
            "POSITION": 37,
            "NORMAL": 38,
            "TEXCOORD_0": 39,
            "TEXCOORD_1": 40,
            "COLOR_0": 41,
            "COLOR_1": 42
          },
          "indices": 43,
          "material": 4
        }
      ]
    },
    {
      "name": "Cylinder.442",
      "primitives": [
        {
          "attributes": {
            "POSITION": 44,
            "NORMAL": 45,
            "TEXCOORD_0": 46,
            "TEXCOORD_1": 47,
            "TANGENT": 122
          },
          "indices": 48,
          "material": 5
        }
      ]
    },
    {
      "name": "Cube.252",
      "primitives": [
        {
          "attributes": {
            "POSITION": 49,
            "NORMAL": 50,
            "TEXCOORD_0": 51,
            "TEXCOORD_1": 52,
            "TANGENT": 123
          },
          "indices": 53,
          "material": 2
        },
        {
          "attributes": {
            "POSITION": 54,
            "NORMAL": 55,
            "TEXCOORD_0": 56,
            "TEXCOORD_1": 57,
            "TANGENT": 124
          },
          "indices": 58,
          "material": 0
        },
        {
          "attributes": {
            "POSITION": 59,
            "NORMAL": 60,
            "TEXCOORD_0": 61,
            "TEXCOORD_1": 62
          },
          "indices": 63,
          "material": 6
        }
      ]
    },
    {
      "name": "Cube.452",
      "primitives": [
        {
          "attributes": {
            "POSITION": 64,
            "NORMAL": 65,
            "TEXCOORD_0": 66,
            "TEXCOORD_1": 67,
            "TANGENT": 125
          },
          "indices": 68,
          "material": 1
        }
      ]
    },
    {
      "name": "Cube.628",
      "primitives": [
        {
          "attributes": {
            "POSITION": 69,
            "NORMAL": 70,
            "TEXCOORD_0": 71,
            "TEXCOORD_1": 72,
            "TANGENT": 126
          },
          "indices": 73,
          "material": 2
        }
      ]
    },
    {
      "name": "Cube.440",
      "primitives": [
        {
          "attributes": {
            "POSITION": 74,
            "NORMAL": 75,
            "TEXCOORD_0": 76,
            "TEXCOORD_1": 77,
            "TANGENT": 127
          },
          "indices": 78,
          "material": 0
        }
      ]
    },
    {
      "name": "Plane.033",
      "primitives": [
        {
          "attributes": {
            "POSITION": 79,
            "NORMAL": 80,
            "TEXCOORD_0": 81,
            "TEXCOORD_1": 82
          },
          "indices": 83,
          "material": 7
        }
      ]
    },
    {
      "name": "Cube.246",
      "primitives": [
        {
          "attributes": {
            "POSITION": 84,
            "NORMAL": 85,
            "TEXCOORD_0": 86,
            "TEXCOORD_1": 87,
            "TANGENT": 128
          },
          "indices": 88,
          "material": 2
        }
      ]
    },
    {
      "name": "Cube.361",
      "primitives": [
        {
          "attributes": {
            "POSITION": 89,
            "NORMAL": 90,
            "TEXCOORD_0": 91,
            "TEXCOORD_1": 92,
            "TANGENT": 129
          },
          "indices": 93,
          "material": 8
        }
      ]
    },
    {
      "name": "Cube.354",
      "primitives": [
        {
          "attributes": {
            "POSITION": 94,
            "NORMAL": 95,
            "TEXCOORD_0": 96,
            "TEXCOORD_1": 97,
            "TANGENT": 130
          },
          "indices": 98,
          "material": 8
        }
      ]
    },
    {
      "name": "SM_ENV_cliff_castle_01_instantmeshesexp_02",
      "primitives": [
        {
          "attributes": {
            "POSITION": 99,
            "NORMAL": 100,
            "TEXCOORD_0": 101,
            "TEXCOORD_1": 102,
            "COLOR_0": 103,
            "TANGENT": 131
          },
          "indices": 104,
          "material": 9
        }
      ]
    },
    {
      "name": "Cube.449",
      "primitives": [
        {
          "attributes": {
            "POSITION": 105,
            "NORMAL": 106,
            "TEXCOORD_0": 107,
            "TEXCOORD_1": 108,
            "TANGENT": 132
          },
          "indices": 109,
          "material": 2
        }
      ]
    },
    {
      "name": "Cylinder.511",
      "primitives": [
        {
          "attributes": {
            "POSITION": 110,
            "NORMAL": 111,
            "TEXCOORD_0": 112,
            "TEXCOORD_1": 113,
            "TANGENT": 133
          },
          "indices": 114,
          "material": 5
        }
      ]
    }
  ],
  "textures": [
    {
      "sampler": 0,
      "source": 0
    },
    {
      "sampler": 0,
      "source": 1
    },
    {
      "sampler": 0,
      "source": 2
    },
    {
      "sampler": 0,
      "source": 3
    },
    {
      "sampler": 0,
      "source": 4
    },
    {
      "sampler": 0,
      "source": 5
    },
    {
      "sampler": 0,
      "source": 6
    },
    {
      "sampler": 0,
      "source": 7
    },
    {
      "sampler": 0,
      "source": 8
    },
    {
      "sampler": 0,
      "source": 9
    },
    {
      "sampler": 0,
      "source": 10
    },
    {
      "sampler": 0,
      "source": 11
    },
    {
      "sampler": 0,
      "source": 12
    },
    {
      "sampler": 0,
      "source": 13
    },
    {
      "sampler": 0,
      "source": 14
    },
    {
      "sampler": 0,
      "source": 15
    },
    {
      "sampler": 0,
      "source": 16
    },
    {
      "sampler": 0,
      "source": 17
    },
    {
      "sampler": 0,
      "source": 18
    },
    {
      "sampler": 0,
      "source": 19
    },
    {
      "sampler": 0,
      "source": 20
    },
    {
      "sampler": 0,
      "source": 21
    }
  ],
  "images": [
    {
      "mimeType": "image/png",
      "name": "T_TRIM_castle_01_N",
      "uri": "textures/T_TRIM_castle_01_N.png"
    },
    {
      "mimeType": "image/png",
      "name": "T_TRIM_castle_01_BC",
      "uri": "textures/T_TRIM_castle_01_BC.png"
    },
    {
      "mimeType": "image/png",
      "name": "T_TRIM_castle_01_PBR",
      "uri": "textures/T_TRIM_castle_01_PBR.png"
    },
    {
      "mimeType": "image/png",
      "name": "T_MOD_floor_castle_01_N",
      "uri": "textures/T_MOD_floor_castle_01_N.png"
    },
    {
      "mimeType": "image/png",
      "name": "T_MOD_floor_castle_01_BC",
      "uri": "textures/T_MOD_floor_castle_01_BC.png"
    },
    {
      "mimeType": "image/png",
      "name": "T_MOD_floor_castle_01_PBR",
      "uri": "textures/T_MOD_floor_castle_01_PBR.png"
    },
    {
      "mimeType": "image/png",
      "name": "T_MOD_wall_bricks_castle_01_N",
      "uri": "textures/T_MOD_wall_bricks_castle_01_N.png"
    },
    {
      "mimeType": "image/png",
      "name": "T_MOD_wall_bricks_castle_01_BC",
      "uri": "textures/T_MOD_wall_bricks_castle_01_BC.png"
    },
    {
      "mimeType": "image/png",
      "name": "T_MOD_wall_bricks_castle_01_PBR",
      "uri": "textures/T_MOD_wall_bricks_castle_01_PBR.png"
    },
    {
      "mimeType": "image/png",
      "name": "T_ENV_wood_castle_01_N",
      "uri": "textures/T_ENV_wood_castle_01_N.png"
    },
    {
      "mimeType": "image/png",
      "name": "T_ENV_wood_castle_01_BC",
      "uri": "textures/T_ENV_wood_castle_01_BC.png"
    },
    {
      "mimeType": "image/png",
      "name": "T_ENV_wood_castle_01_PBR",
      "uri": "textures/T_ENV_wood_castle_01_PBR.png"
    },
    {
      "mimeType": "image/png",
      "name": "T_ENV_tree_leaves_castle_01",
      "uri": "textures/T_ENV_tree_leaves_castle_01.png"
    },
    {
      "mimeType": "image/png",
      "name": "T_PROP_deco_castle_N",
      "uri": "textures/T_PROP_deco_castle_N.png"
    },
    {
      "mimeType": "image/png",
      "name": "T_PROP_deco_castle_BC",
      "uri": "textures/T_PROP_deco_castle_BC.png"
    },
    {
      "mimeType": "image/png",
      "name": "T_PROP_deco_castle_PBR",
      "uri": "textures/T_PROP_deco_castle_PBR.png"
    },
    {
      "mimeType": "image/png",
      "name": "T_MOD_wall_window_glass_castle_MASK",
      "uri": "textures/T_MOD_wall_window_glass_castle_MASK.png"
    },
    {
      "mimeType": "image/png",
      "name": "T_PROP_carpet_castle_BC",
      "uri": "textures/T_PROP_carpet_castle_BC.png"
    },
    {
      "mimeType": "image/png",
      "name": "T_ENV_MOD_roof_castle_02_N",
      "uri": "textures/T_ENV_MOD_roof_castle_02_N.png"
    },
    {
      "mimeType": "image/png",
      "name": "T_ENV_MOD_roof_castle_02_BC",
      "uri": "textures/T_ENV_MOD_roof_castle_02_BC.png"
    },
    {
      "mimeType": "image/png",
      "name": "T_MOD_roof_castle_01_PBR",
      "uri": "textures/T_MOD_roof_castle_01_PBR.png"
    },
    {
      "mimeType": "image/png",
      "name": "T_ENV_cliff_castle_01_N",
      "uri": "textures/T_ENV_cliff_castle_01_N.png"
    }
  ],
  "accessors": [
    {
      "bufferView": 0,
      "componentType": 5126,
      "count": 651,
      "max": [
        2,
        0.5922666788101196,
        0.5838823914527893
      ],
      "min": [
        -2,
        -0.29469186067581177,
        0.31289559602737427
      ],
      "type": "VEC3"
    },
    {
      "bufferView": 1,
      "componentType": 5126,
      "count": 651,
      "type": "VEC3"
    },
    {
      "bufferView": 2,
      "componentType": 5126,
      "count": 651,
      "type": "VEC2"
    },
    {
      "bufferView": 3,
      "componentType": 5126,
      "count": 651,
      "type": "VEC2"
    },
    {
      "bufferView": 4,
      "componentType": 5123,
      "count": 2202,
      "type": "SCALAR"
    },
    {
      "bufferView": 5,
      "componentType": 5126,
      "count": 156,
      "max": [
        2.000000238418579,
        0.12217389047145844,
        2.000000238418579
      ],
      "min": [
        -2.000000238418579,
        -1.1450300216674805,
        -2.000000238418579
      ],
      "type": "VEC3"
    },
    {
      "bufferView": 6,
      "componentType": 5126,
      "count": 156,
      "type": "VEC3"
    },
    {
      "bufferView": 7,
      "componentType": 5126,
      "count": 156,
      "type": "VEC2"
    },
    {
      "bufferView": 8,
      "componentType": 5126,
      "count": 156,
      "type": "VEC2"
    },
    {
      "bufferView": 9,
      "componentType": 5123,
      "count": 420,
      "type": "SCALAR"
    },
    {
      "bufferView": 10,
      "componentType": 5126,
      "count": 1048,
      "max": [
        2.3504602909088135,
        6.0242204666137695,
        0.4287639856338501
      ],
      "min": [
        -2.2699174880981445,
        -0.02262175641953945,
        -0.43797388672828674
      ],
      "type": "VEC3"
    },
    {
      "bufferView": 11,
      "componentType": 5126,
      "count": 1048,
      "type": "VEC3"
    },
    {
      "bufferView": 12,
      "componentType": 5126,
      "count": 1048,
      "type": "VEC2"
    },
    {
      "bufferView": 13,
      "componentType": 5126,
      "count": 1048,
      "type": "VEC2"
    },
    {
      "bufferView": 14,
      "componentType": 5123,
      "count": 4158,
      "type": "SCALAR"
    },
    {
      "bufferView": 15,
      "componentType": 5126,
      "count": 1395,
      "max": [
        0.4380190074443817,
        6.000552654266357,
        0.44045138359069824
      ],
      "min": [
        -0.44602707028388977,
        0,
        -0.4380890130996704
      ],
      "type": "VEC3"
    },
    {
      "bufferView": 16,
      "componentType": 5126,
      "count": 1395,
      "type": "VEC3"
    },
    {
      "bufferView": 17,
      "componentType": 5126,
      "count": 1395,
      "type": "VEC2"
    },
    {
      "bufferView": 18,
      "componentType": 5126,
      "count": 1395,
      "type": "VEC2"
    },
    {
      "bufferView": 19,
      "componentType": 5123,
      "count": 5844,
      "type": "SCALAR"
    },
    {
      "bufferView": 20,
      "componentType": 5126,
      "count": 136,
      "max": [
        1,
        0.2923550605773926,
        0.5849335789680481
      ],
      "min": [
        -1,
        0,
        0.31276991963386536
      ],
      "type": "VEC3"
    },
    {
      "bufferView": 21,
      "componentType": 5126,
      "count": 136,
      "type": "VEC3"
    },
    {
      "bufferView": 22,
      "componentType": 5126,
      "count": 136,
      "type": "VEC2"
    },
    {
      "bufferView": 23,
      "componentType": 5126,
      "count": 136,
      "type": "VEC2"
    },
    {
      "bufferView": 24,
      "componentType": 5123,
      "count": 474,
      "type": "SCALAR"
    },
    {
      "bufferView": 25,
      "componentType": 5126,
      "count": 254,
      "max": [
        2,
        0.2946915328502655,
        0.5849335789680481
      ],
      "min": [
        -2,
        -3.0174851417541504e-07,
        0.31276991963386536
      ],
      "type": "VEC3"
    },
    {
      "bufferView": 26,
      "componentType": 5126,
      "count": 254,
      "type": "VEC3"
    },
    {
      "bufferView": 27,
      "componentType": 5126,
      "count": 254,
      "type": "VEC2"
    },
    {
      "bufferView": 28,
      "componentType": 5126,
      "count": 254,
      "type": "VEC2"
    },
    {
      "bufferView": 29,
      "componentType": 5123,
      "count": 906,
      "type": "SCALAR"
    },
    {
      "bufferView": 30,
      "componentType": 5126,
      "count": 1275,
      "max": [
        3.5537283420562744,
        9.484169960021973,
        3.4337213039398193
      ],
      "min": [
        -3.0713250637054443,
        -1.0320329666137695,
        -2.8968093395233154
      ],
      "type": "VEC3"
    },
    {
      "bufferView": 31,
      "componentType": 5126,
      "count": 1275,
      "type": "VEC3"
    },
    {
      "bufferView": 32,
      "componentType": 5126,
      "count": 1275,
      "type": "VEC2"
    },
    {
      "bufferView": 33,
      "componentType": 5126,
      "count": 1275,
      "type": "VEC2"
    },
    {
      "bufferView": 34,
      "componentType": 5126,
      "count": 1275,
      "type": "VEC3"
    },
    {
      "bufferView": 35,
      "componentType": 5123,
      "count": 1275,
      "normalized": true,
      "type": "VEC4"
    },
    {
      "bufferView": 36,
      "componentType": 5123,
      "count": 5718,
      "type": "SCALAR"
    },
    {
      "bufferView": 37,
      "componentType": 5126,
      "count": 1920,
      "max": [
        6.43494987487793,
        15.562984466552734,
        6.57190465927124
      ],
      "min": [
        -5.903852462768555,
        4.755402088165283,
        -5.87698221206665
      ],
      "type": "VEC3"
    },
    {
      "bufferView": 38,
      "componentType": 5126,
      "count": 1920,
      "type": "VEC3"
    },
    {
      "bufferView": 39,
      "componentType": 5126,
      "count": 1920,
      "type": "VEC2"
    },
    {
      "bufferView": 40,
      "componentType": 5126,
      "count": 1920,
      "type": "VEC2"
    },
    {
      "bufferView": 41,
      "componentType": 5126,
      "count": 1920,
      "type": "VEC3"
    },
    {
      "bufferView": 42,
      "componentType": 5123,
      "count": 1920,
      "normalized": true,
      "type": "VEC4"
    },
    {
      "bufferView": 43,
      "componentType": 5123,
      "count": 2880,
      "type": "SCALAR"
    },
    {
      "bufferView": 44,
      "componentType": 5126,
      "count": 2945,
      "max": [
        0.19501511752605438,
        0.4010609984397888,
        0.25461116433143616
      ],
      "min": [
        -0.19438186287879944,
        -0.09747302532196045,
        -0.030536800622940063
      ],
      "type": "VEC3"
    },
    {
      "bufferView": 45,
      "componentType": 5126,
      "count": 2945,
      "type": "VEC3"
    },
    {
      "bufferView": 46,
      "componentType": 5126,
      "count": 2945,
      "type": "VEC2"
    },
    {
      "bufferView": 47,
      "componentType": 5126,
      "count": 2945,
      "type": "VEC2"
    },
    {
      "bufferView": 48,
      "componentType": 5123,
      "count": 9258,
      "type": "SCALAR"
    },
    {
      "bufferView": 49,
      "componentType": 5126,
      "count": 964,
      "max": [
        2.3504602909088135,
        6.0242204666137695,
        0.426658570766449
      ],
      "min": [
        -2.2699174880981445,
        -0.02262175641953945,
        -0.426658570766449
      ],
      "type": "VEC3"
    },
    {
      "bufferView": 50,
      "componentType": 5126,
      "count": 964,
      "type": "VEC3"
    },
    {
      "bufferView": 51,
      "componentType": 5126,
      "count": 964,
      "type": "VEC2"
    },
    {
      "bufferView": 52,
      "componentType": 5126,
      "count": 964,
      "type": "VEC2"
    },
    {
      "bufferView": 53,
      "componentType": 5123,
      "count": 3588,
      "type": "SCALAR"
    },
    {
      "bufferView": 54,
      "componentType": 5126,
      "count": 2922,
      "max": [
        1.2893227338790894,
        5.409360885620117,
        0.4964955747127533
      ],
      "min": [
        -1.2893227338790894,
        0.4593014717102051,
        -0.4964955747127533
      ],
      "type": "VEC3"
    },
    {
      "bufferView": 55,
      "componentType": 5126,
      "count": 2922,
      "type": "VEC3"
    },
    {
      "bufferView": 56,
      "componentType": 5126,
      "count": 2922,
      "type": "VEC2"
    },
    {
      "bufferView": 57,
      "componentType": 5126,
      "count": 2922,
      "type": "VEC2"
    },
    {
      "bufferView": 58,
      "componentType": 5123,
      "count": 6168,
      "type": "SCALAR"
    },
    {
      "bufferView": 59,
      "componentType": 5126,
      "count": 4,
      "max": [
        1.355737566947937,
        5.347723484039307,
        0
      ],
      "min": [
        -1.355737566947937,
        0.3351719379425049,
        0
      ],
      "type": "VEC3"
    },
    {
      "bufferView": 60,
      "componentType": 5126,
      "count": 4,
      "type": "VEC3"
    },
    {
      "bufferView": 61,
      "componentType": 5126,
      "count": 4,
      "type": "VEC2"
    },
    {
      "bufferView": 62,
      "componentType": 5126,
      "count": 4,
      "type": "VEC2"
    },
    {
      "bufferView": 63,
      "componentType": 5123,
      "count": 6,
      "type": "SCALAR"
    },
    {
      "bufferView": 64,
      "componentType": 5126,
      "count": 20,
      "max": [
        2,
        0.1450279951095581,
        2
      ],
      "min": [
        -2,
        -0.1450279951095581,
        -2
      ],
      "type": "VEC3"
    },
    {
      "bufferView": 65,
      "componentType": 5126,
      "count": 20,
      "type": "VEC3"
    },
    {
      "bufferView": 66,
      "componentType": 5126,
      "count": 20,
      "type": "VEC2"
    },
    {
      "bufferView": 67,
      "componentType": 5126,
      "count": 20,
      "type": "VEC2"
    },
    {
      "bufferView": 68,
      "componentType": 5123,
      "count": 36,
      "type": "SCALAR"
    },
    {
      "bufferView": 69,
      "componentType": 5126,
      "count": 160,
      "max": [
        0.283057302236557,
        0.23663805425167084,
        0.007808208465576172
      ],
      "min": [
        -0.2903003990650177,
        -0.23240749537944794,
        -4.016232490539551
      ],
      "type": "VEC3"
    },
    {
      "bufferView": 70,
      "componentType": 5126,
      "count": 160,
      "type": "VEC3"
    },
    {
      "bufferView": 71,
      "componentType": 5126,
      "count": 160,
      "type": "VEC2"
    },
    {
      "bufferView": 72,
      "componentType": 5126,
      "count": 160,
      "type": "VEC2"
    },
    {
      "bufferView": 73,
      "componentType": 5123,
      "count": 612,
      "type": "SCALAR"
    },
    {
      "bufferView": 74,
      "componentType": 5126,
      "count": 241,
      "max": [
        0.4694620966911316,
        6.01121187210083,
        0.6385924816131592
      ],
      "min": [
        -0.490100622177124,
        -0.00664210319519043,
        -0.002280712127685547
      ],
      "type": "VEC3"
    },
    {
      "bufferView": 75,
      "componentType": 5126,
      "count": 241,
      "type": "VEC3"
    },
    {
      "bufferView": 76,
      "componentType": 5126,
      "count": 241,
      "type": "VEC2"
    },
    {
      "bufferView": 77,
      "componentType": 5126,
      "count": 241,
      "type": "VEC2"
    },
    {
      "bufferView": 78,
      "componentType": 5123,
      "count": 972,
      "type": "SCALAR"
    },
    {
      "bufferView": 79,
      "componentType": 5126,
      "count": 246,
      "max": [
        2.0318527221679688,
        0.01962706260383129,
        6
      ],
      "min": [
        -2,
        -0.000372936949133873,
        -6
      ],
      "type": "VEC3"
    },
    {
      "bufferView": 80,
      "componentType": 5126,
      "count": 246,
      "type": "VEC3"
    },
    {
      "bufferView": 81,
      "componentType": 5126,
      "count": 246,
      "type": "VEC2"
    },
    {
      "bufferView": 82,
      "componentType": 5126,
      "count": 246,
      "type": "VEC2"
    },
    {
      "bufferView": 83,
      "componentType": 5123,
      "count": 768,
      "type": "SCALAR"
    },
    {
      "bufferView": 84,
      "componentType": 5126,
      "count": 576,
      "max": [
        2.270226240158081,
        3.023193836212158,
        0.426658570766449
      ],
      "min": [
        -2.222656726837158,
        -0.02262175641953945,
        -0.426658570766449
      ],
      "type": "VEC3"
    },
    {
      "bufferView": 85,
      "componentType": 5126,
      "count": 576,
      "type": "VEC3"
    },
    {
      "bufferView": 86,
      "componentType": 5126,
      "count": 576,
      "type": "VEC2"
    },
    {
      "bufferView": 87,
      "componentType": 5126,
      "count": 576,
      "type": "VEC2"
    },
    {
      "bufferView": 88,
      "componentType": 5123,
      "count": 2172,
      "type": "SCALAR"
    },
    {
      "bufferView": 89,
      "componentType": 5126,
      "count": 104,
      "max": [
        0.5796850323677063,
        0.417314738035202,
        0.8197723031044006
      ],
      "min": [
        -0.012496471405029297,
        -0.14634107053279877,
        -0.005420153494924307
      ],
      "type": "VEC3"
    },
    {
      "bufferView": 90,
      "componentType": 5126,
      "count": 104,
      "type": "VEC3"
    },
    {
      "bufferView": 91,
      "componentType": 5126,
      "count": 104,
      "type": "VEC2"
    },
    {
      "bufferView": 92,
      "componentType": 5126,
      "count": 104,
      "type": "VEC2"
    },
    {
      "bufferView": 93,
      "componentType": 5123,
      "count": 228,
      "type": "SCALAR"
    },
    {
      "bufferView": 94,
      "componentType": 5126,
      "count": 175,
      "max": [
        2.0142815113067627,
        0.417314738035202,
        0.8337498307228088
      ],
      "min": [
        -2.0124964714050293,
        -0.1463296115398407,
        -9.547525223752018e-07
      ],
      "type": "VEC3"
    },
    {
      "bufferView": 95,
      "componentType": 5126,
      "count": 175,
      "type": "VEC3"
    },
    {
      "bufferView": 96,
      "componentType": 5126,
      "count": 175,
      "type": "VEC2"
    },
    {
      "bufferView": 97,
      "componentType": 5126,
      "count": 175,
      "type": "VEC2"
    },
    {
      "bufferView": 98,
      "componentType": 5123,
      "count": 504,
      "type": "SCALAR"
    },
    {
      "bufferView": 99,
      "componentType": 5126,
      "count": 4613,
      "max": [
        4.855959892272949,
        5.9515485763549805,
        3.302274227142334
      ],
      "min": [
        -4.882627487182617,
        -5.545106887817383,
        -3.2813682556152344
      ],
      "type": "VEC3"
    },
    {
      "bufferView": 100,
      "componentType": 5126,
      "count": 4613,
      "type": "VEC3"
    },
    {
      "bufferView": 101,
      "componentType": 5126,
      "count": 4613,
      "type": "VEC2"
    },
    {
      "bufferView": 102,
      "componentType": 5126,
      "count": 4613,
      "type": "VEC2"
    },
    {
      "bufferView": 103,
      "componentType": 5126,
      "count": 4613,
      "type": "VEC3"
    },
    {
      "bufferView": 104,
      "componentType": 5123,
      "count": 23661,
      "type": "SCALAR"
    },
    {
      "bufferView": 105,
      "componentType": 5126,
      "count": 223,
      "max": [
        0.2085363268852234,
        -0.009413719177246094,
        2.0136191844940186
      ],
      "min": [
        -0.20853661000728607,
        -0.7160651683807373,
        -2.0058541297912598
      ],
      "type": "VEC3"
    },
    {
      "bufferView": 106,
      "componentType": 5126,
      "count": 223,
      "type": "VEC3"
    },
    {
      "bufferView": 107,
      "componentType": 5126,
      "count": 223,
      "type": "VEC2"
    },
    {
      "bufferView": 108,
      "componentType": 5126,
      "count": 223,
      "type": "VEC2"
    },
    {
      "bufferView": 109,
      "componentType": 5123,
      "count": 708,
      "type": "SCALAR"
    },
    {
      "bufferView": 110,
      "componentType": 5126,
      "count": 1277,
      "max": [
        1.9528251886367798,
        0.22082580626010895,
        0.4180440306663513
      ],
      "min": [
        -1.9528251886367798,
        -2.263655424118042,
        -0.16948732733726501
      ],
      "type": "VEC3"
    },
    {
      "bufferView": 111,
      "componentType": 5126,
      "count": 1277,
      "type": "VEC3"
    },
    {
      "bufferView": 112,
      "componentType": 5126,
      "count": 1277,
      "type": "VEC2"
    },
    {
      "bufferView": 113,
      "componentType": 5126,
      "count": 1277,
      "type": "VEC2"
    },
    {
      "bufferView": 114,
      "componentType": 5123,
      "count": 5508,
      "type": "SCALAR"
    },
    {
      "bufferView": 115,
      "componentType": 5126,
      "count": 651,
      "type": "VEC4"
    },
    {
      "bufferView": 116,
      "componentType": 5126,
      "count": 156,
      "type": "VEC4"
    },
    {
      "bufferView": 117,
      "componentType": 5126,
      "count": 1048,
      "type": "VEC4"
    },
    {
      "bufferView": 118,
      "componentType": 5126,
      "count": 1395,
      "type": "VEC4"
    },
    {
      "bufferView": 119,
      "componentType": 5126,
      "count": 136,
      "type": "VEC4"
    },
    {
      "bufferView": 120,
      "componentType": 5126,
      "count": 254,
      "type": "VEC4"
    },
    {
      "bufferView": 121,
      "componentType": 5126,
      "count": 1275,
      "type": "VEC4"
    },
    {
      "bufferView": 122,
      "componentType": 5126,
      "count": 2945,
      "type": "VEC4"
    },
    {
      "bufferView": 123,
      "componentType": 5126,
      "count": 964,
      "type": "VEC4"
    },
    {
      "bufferView": 124,
      "componentType": 5126,
      "count": 2922,
      "type": "VEC4"
    },
    {
      "bufferView": 125,
      "componentType": 5126,
      "count": 20,
      "type": "VEC4"
    },
    {
      "bufferView": 126,
      "componentType": 5126,
      "count": 160,
      "type": "VEC4"
    },
    {
      "bufferView": 127,
      "componentType": 5126,
      "count": 241,
      "type": "VEC4"
    },
    {
      "bufferView": 128,
      "componentType": 5126,
      "count": 576,
      "type": "VEC4"
    },
    {
      "bufferView": 129,
      "componentType": 5126,
      "count": 104,
      "type": "VEC4"
    },
    {
      "bufferView": 130,
      "componentType": 5126,
      "count": 175,
      "type": "VEC4"
    },
    {
      "bufferView": 131,
      "componentType": 5126,
      "count": 4613,
      "type": "VEC4"
    },
    {
      "bufferView": 132,
      "componentType": 5126,
      "count": 223,
      "type": "VEC4"
    },
    {
      "bufferView": 133,
      "componentType": 5126,
      "count": 1277,
      "type": "VEC4"
    }
  ],
  "bufferViews": [
    {
      "buffer": 0,
      "byteLength": 7812,
      "byteOffset": 0,
      "target": 34962
    },
    {
      "buffer": 0,
      "byteLength": 7812,
      "byteOffset": 7812,
      "target": 34962
    },
    {
      "buffer": 0,
      "byteLength": 5208,
      "byteOffset": 15624,
      "target": 34962
    },
    {
      "buffer": 0,
      "byteLength": 5208,
      "byteOffset": 20832,
      "target": 34962
    },
    {
      "buffer": 0,
      "byteLength": 4404,
      "byteOffset": 26040,
      "target": 34963
    },
    {
      "buffer": 0,
      "byteLength": 1872,
      "byteOffset": 30444,
      "target": 34962
    },
    {
      "buffer": 0,
      "byteLength": 1872,
      "byteOffset": 32316,
      "target": 34962
    },
    {
      "buffer": 0,
      "byteLength": 1248,
      "byteOffset": 34188,
      "target": 34962
    },
    {
      "buffer": 0,
      "byteLength": 1248,
      "byteOffset": 35436,
      "target": 34962
    },
    {
      "buffer": 0,
      "byteLength": 840,
      "byteOffset": 36684,
      "target": 34963
    },
    {
      "buffer": 0,
      "byteLength": 12576,
      "byteOffset": 37524,
      "target": 34962
    },
    {
      "buffer": 0,
      "byteLength": 12576,
      "byteOffset": 50100,
      "target": 34962
    },
    {
      "buffer": 0,
      "byteLength": 8384,
      "byteOffset": 62676,
      "target": 34962
    },
    {
      "buffer": 0,
      "byteLength": 8384,
      "byteOffset": 71060,
      "target": 34962
    },
    {
      "buffer": 0,
      "byteLength": 8316,
      "byteOffset": 79444,
      "target": 34963
    },
    {
      "buffer": 0,
      "byteLength": 16740,
      "byteOffset": 87760,
      "target": 34962
    },
    {
      "buffer": 0,
      "byteLength": 16740,
      "byteOffset": 104500,
      "target": 34962
    },
    {
      "buffer": 0,
      "byteLength": 11160,
      "byteOffset": 121240,
      "target": 34962
    },
    {
      "buffer": 0,
      "byteLength": 11160,
      "byteOffset": 132400,
      "target": 34962
    },
    {
      "buffer": 0,
      "byteLength": 11688,
      "byteOffset": 143560,
      "target": 34963
    },
    {
      "buffer": 0,
      "byteLength": 1632,
      "byteOffset": 155248,
      "target": 34962
    },
    {
      "buffer": 0,
      "byteLength": 1632,
      "byteOffset": 156880,
      "target": 34962
    },
    {
      "buffer": 0,
      "byteLength": 1088,
      "byteOffset": 158512,
      "target": 34962
    },
    {
      "buffer": 0,
      "byteLength": 1088,
      "byteOffset": 159600,
      "target": 34962
    },
    {
      "buffer": 0,
      "byteLength": 948,
      "byteOffset": 160688,
      "target": 34963
    },
    {
      "buffer": 0,
      "byteLength": 3048,
      "byteOffset": 161636,
      "target": 34962
    },
    {
      "buffer": 0,
      "byteLength": 3048,
      "byteOffset": 164684,
      "target": 34962
    },
    {
      "buffer": 0,
      "byteLength": 2032,
      "byteOffset": 167732,
      "target": 34962
    },
    {
      "buffer": 0,
      "byteLength": 2032,
      "byteOffset": 169764,
      "target": 34962
    },
    {
      "buffer": 0,
      "byteLength": 1812,
      "byteOffset": 171796,
      "target": 34963
    },
    {
      "buffer": 0,
      "byteLength": 15300,
      "byteOffset": 173608,
      "target": 34962
    },
    {
      "buffer": 0,
      "byteLength": 15300,
      "byteOffset": 188908,
      "target": 34962
    },
    {
      "buffer": 0,
      "byteLength": 10200,
      "byteOffset": 204208,
      "target": 34962
    },
    {
      "buffer": 0,
      "byteLength": 10200,
      "byteOffset": 214408,
      "target": 34962
    },
    {
      "buffer": 0,
      "byteLength": 15300,
      "byteOffset": 224608,
      "target": 34962
    },
    {
      "buffer": 0,
      "byteLength": 10200,
      "byteOffset": 239908,
      "target": 34962
    },
    {
      "buffer": 0,
      "byteLength": 11436,
      "byteOffset": 250108,
      "target": 34963
    },
    {
      "buffer": 0,
      "byteLength": 23040,
      "byteOffset": 261544,
      "target": 34962
    },
    {
      "buffer": 0,
      "byteLength": 23040,
      "byteOffset": 284584,
      "target": 34962
    },
    {
      "buffer": 0,
      "byteLength": 15360,
      "byteOffset": 307624,
      "target": 34962
    },
    {
      "buffer": 0,
      "byteLength": 15360,
      "byteOffset": 322984,
      "target": 34962
    },
    {
      "buffer": 0,
      "byteLength": 23040,
      "byteOffset": 338344,
      "target": 34962
    },
    {
      "buffer": 0,
      "byteLength": 15360,
      "byteOffset": 361384,
      "target": 34962
    },
    {
      "buffer": 0,
      "byteLength": 5760,
      "byteOffset": 376744,
      "target": 34963
    },
    {
      "buffer": 0,
      "byteLength": 35340,
      "byteOffset": 382504,
      "target": 34962
    },
    {
      "buffer": 0,
      "byteLength": 35340,
      "byteOffset": 417844,
      "target": 34962
    },
    {
      "buffer": 0,
      "byteLength": 23560,
      "byteOffset": 453184,
      "target": 34962
    },
    {
      "buffer": 0,
      "byteLength": 23560,
      "byteOffset": 476744,
      "target": 34962
    },
    {
      "buffer": 0,
      "byteLength": 18516,
      "byteOffset": 500304,
      "target": 34963
    },
    {
      "buffer": 0,
      "byteLength": 11568,
      "byteOffset": 518820,
      "target": 34962
    },
    {
      "buffer": 0,
      "byteLength": 11568,
      "byteOffset": 530388,
      "target": 34962
    },
    {
      "buffer": 0,
      "byteLength": 7712,
      "byteOffset": 541956,
      "target": 34962
    },
    {
      "buffer": 0,
      "byteLength": 7712,
      "byteOffset": 549668,
      "target": 34962
    },
    {
      "buffer": 0,
      "byteLength": 7176,
      "byteOffset": 557380,
      "target": 34963
    },
    {
      "buffer": 0,
      "byteLength": 35064,
      "byteOffset": 564556,
      "target": 34962
    },
    {
      "buffer": 0,
      "byteLength": 35064,
      "byteOffset": 599620,
      "target": 34962
    },
    {
      "buffer": 0,
      "byteLength": 23376,
      "byteOffset": 634684,
      "target": 34962
    },
    {
      "buffer": 0,
      "byteLength": 23376,
      "byteOffset": 658060,
      "target": 34962
    },
    {
      "buffer": 0,
      "byteLength": 12336,
      "byteOffset": 681436,
      "target": 34963
    },
    {
      "buffer": 0,
      "byteLength": 48,
      "byteOffset": 693772,
      "target": 34962
    },
    {
      "buffer": 0,
      "byteLength": 48,
      "byteOffset": 693820,
      "target": 34962
    },
    {
      "buffer": 0,
      "byteLength": 32,
      "byteOffset": 693868,
      "target": 34962
    },
    {
      "buffer": 0,
      "byteLength": 32,
      "byteOffset": 693900,
      "target": 34962
    },
    {
      "buffer": 0,
      "byteLength": 12,
      "byteOffset": 693932,
      "target": 34963
    },
    {
      "buffer": 0,
      "byteLength": 240,
      "byteOffset": 693944,
      "target": 34962
    },
    {
      "buffer": 0,
      "byteLength": 240,
      "byteOffset": 694184,
      "target": 34962
    },
    {
      "buffer": 0,
      "byteLength": 160,
      "byteOffset": 694424,
      "target": 34962
    },
    {
      "buffer": 0,
      "byteLength": 160,
      "byteOffset": 694584,
      "target": 34962
    },
    {
      "buffer": 0,
      "byteLength": 72,
      "byteOffset": 694744,
      "target": 34963
    },
    {
      "buffer": 0,
      "byteLength": 1920,
      "byteOffset": 694816,
      "target": 34962
    },
    {
      "buffer": 0,
      "byteLength": 1920,
      "byteOffset": 696736,
      "target": 34962
    },
    {
      "buffer": 0,
      "byteLength": 1280,
      "byteOffset": 698656,
      "target": 34962
    },
    {
      "buffer": 0,
      "byteLength": 1280,
      "byteOffset": 699936,
      "target": 34962
    },
    {
      "buffer": 0,
      "byteLength": 1224,
      "byteOffset": 701216,
      "target": 34963
    },
    {
      "buffer": 0,
      "byteLength": 2892,
      "byteOffset": 702440,
      "target": 34962
    },
    {
      "buffer": 0,
      "byteLength": 2892,
      "byteOffset": 705332,
      "target": 34962
    },
    {
      "buffer": 0,
      "byteLength": 1928,
      "byteOffset": 708224,
      "target": 34962
    },
    {
      "buffer": 0,
      "byteLength": 1928,
      "byteOffset": 710152,
      "target": 34962
    },
    {
      "buffer": 0,
      "byteLength": 1944,
      "byteOffset": 712080,
      "target": 34963
    },
    {
      "buffer": 0,
      "byteLength": 2952,
      "byteOffset": 714024,
      "target": 34962
    },
    {
      "buffer": 0,
      "byteLength": 2952,
      "byteOffset": 716976,
      "target": 34962
    },
    {
      "buffer": 0,
      "byteLength": 1968,
      "byteOffset": 719928,
      "target": 34962
    },
    {
      "buffer": 0,
      "byteLength": 1968,
      "byteOffset": 721896,
      "target": 34962
    },
    {
      "buffer": 0,
      "byteLength": 1536,
      "byteOffset": 723864,
      "target": 34963
    },
    {
      "buffer": 0,
      "byteLength": 6912,
      "byteOffset": 725400,
      "target": 34962
    },
    {
      "buffer": 0,
      "byteLength": 6912,
      "byteOffset": 732312,
      "target": 34962
    },
    {
      "buffer": 0,
      "byteLength": 4608,
      "byteOffset": 739224,
      "target": 34962
    },
    {
      "buffer": 0,
      "byteLength": 4608,
      "byteOffset": 743832,
      "target": 34962
    },
    {
      "buffer": 0,
      "byteLength": 4344,
      "byteOffset": 748440,
      "target": 34963
    },
    {
      "buffer": 0,
      "byteLength": 1248,
      "byteOffset": 752784,
      "target": 34962
    },
    {
      "buffer": 0,
      "byteLength": 1248,
      "byteOffset": 754032,
      "target": 34962
    },
    {
      "buffer": 0,
      "byteLength": 832,
      "byteOffset": 755280,
      "target": 34962
    },
    {
      "buffer": 0,
      "byteLength": 832,
      "byteOffset": 756112,
      "target": 34962
    },
    {
      "buffer": 0,
      "byteLength": 456,
      "byteOffset": 756944,
      "target": 34963
    },
    {
      "buffer": 0,
      "byteLength": 2100,
      "byteOffset": 757400,
      "target": 34962
    },
    {
      "buffer": 0,
      "byteLength": 2100,
      "byteOffset": 759500,
      "target": 34962
    },
    {
      "buffer": 0,
      "byteLength": 1400,
      "byteOffset": 761600,
      "target": 34962
    },
    {
      "buffer": 0,
      "byteLength": 1400,
      "byteOffset": 763000,
      "target": 34962
    },
    {
      "buffer": 0,
      "byteLength": 1008,
      "byteOffset": 764400,
      "target": 34963
    },
    {
      "buffer": 0,
      "byteLength": 55356,
      "byteOffset": 765408,
      "target": 34962
    },
    {
      "buffer": 0,
      "byteLength": 55356,
      "byteOffset": 820764,
      "target": 34962
    },
    {
      "buffer": 0,
      "byteLength": 36904,
      "byteOffset": 876120,
      "target": 34962
    },
    {
      "buffer": 0,
      "byteLength": 36904,
      "byteOffset": 913024,
      "target": 34962
    },
    {
      "buffer": 0,
      "byteLength": 55356,
      "byteOffset": 949928,
      "target": 34962
    },
    {
      "buffer": 0,
      "byteLength": 47322,
      "byteOffset": 1005284,
      "target": 34963
    },
    {
      "buffer": 0,
      "byteLength": 2676,
      "byteOffset": 1052608,
      "target": 34962
    },
    {
      "buffer": 0,
      "byteLength": 2676,
      "byteOffset": 1055284,
      "target": 34962
    },
    {
      "buffer": 0,
      "byteLength": 1784,
      "byteOffset": 1057960,
      "target": 34962
    },
    {
      "buffer": 0,
      "byteLength": 1784,
      "byteOffset": 1059744,
      "target": 34962
    },
    {
      "buffer": 0,
      "byteLength": 1416,
      "byteOffset": 1061528,
      "target": 34963
    },
    {
      "buffer": 0,
      "byteLength": 15324,
      "byteOffset": 1062944,
      "target": 34962
    },
    {
      "buffer": 0,
      "byteLength": 15324,
      "byteOffset": 1078268,
      "target": 34962
    },
    {
      "buffer": 0,
      "byteLength": 10216,
      "byteOffset": 1093592,
      "target": 34962
    },
    {
      "buffer": 0,
      "byteLength": 10216,
      "byteOffset": 1103808,
      "target": 34962
    },
    {
      "buffer": 0,
      "byteLength": 11016,
      "byteOffset": 1114024,
      "target": 34963
    },
    {
      "buffer": 0,
      "byteOffset": 1125040,
      "byteLength": 10416,
      "target": 34962
    },
    {
      "buffer": 0,
      "byteOffset": 1135456,
      "byteLength": 2496,
      "target": 34962
    },
    {
      "buffer": 0,
      "byteOffset": 1137952,
      "byteLength": 16768,
      "target": 34962
    },
    {
      "buffer": 0,
      "byteOffset": 1154720,
      "byteLength": 22320,
      "target": 34962
    },
    {
      "buffer": 0,
      "byteOffset": 1177040,
      "byteLength": 2176,
      "target": 34962
    },
    {
      "buffer": 0,
      "byteOffset": 1179216,
      "byteLength": 4064,
      "target": 34962
    },
    {
      "buffer": 0,
      "byteOffset": 1183280,
      "byteLength": 20400,
      "target": 34962
    },
    {
      "buffer": 0,
      "byteOffset": 1203680,
      "byteLength": 47120,
      "target": 34962
    },
    {
      "buffer": 0,
      "byteOffset": 1250800,
      "byteLength": 15424,
      "target": 34962
    },
    {
      "buffer": 0,
      "byteOffset": 1266224,
      "byteLength": 46752,
      "target": 34962
    },
    {
      "buffer": 0,
      "byteOffset": 1312976,
      "byteLength": 320,
      "target": 34962
    },
    {
      "buffer": 0,
      "byteOffset": 1313296,
      "byteLength": 2560,
      "target": 34962
    },
    {
      "buffer": 0,
      "byteOffset": 1315856,
      "byteLength": 3856,
      "target": 34962
    },
    {
      "buffer": 0,
      "byteOffset": 1319712,
      "byteLength": 9216,
      "target": 34962
    },
    {
      "buffer": 0,
      "byteOffset": 1328928,
      "byteLength": 1664,
      "target": 34962
    },
    {
      "buffer": 0,
      "byteOffset": 1330592,
      "byteLength": 2800,
      "target": 34962
    },
    {
      "buffer": 0,
      "byteOffset": 1333392,
      "byteLength": 73808,
      "target": 34962
    },
    {
      "buffer": 0,
      "byteOffset": 1407200,
      "byteLength": 3568,
      "target": 34962
    },
    {
      "buffer": 0,
      "byteOffset": 1410768,
      "byteLength": 20432,
      "target": 34962
    }
  ],
  "samplers": [
    {
      "magFilter": 9729,
      "minFilter": 9987
    }
  ],
  "buffers": [
    {
      "byteLength": 1431200,
      "uri": "cell_x-2_z-1_render.bin"
    }
  ]
}