{
	"asset":{
		"generator":"Khronos glTF Blender I/O v5.0.21",
		"version":"2.0"
	},
	"extensionsUsed":[
		"KHR_texture_transform"
	],
	"extensionsRequired":[
		"KHR_texture_transform"
	],
	"scene":0,
	"scenes":[
		{
			"name":"Scene",
			"nodes":[
				0
			]
		}
	],
	"nodes":[
		{
			"mesh":0,
			"name":"SM_ENV_cliff_castle_02_LOD0.009",
			"rotation":[
				0.00971547607332468,
				-0.8678614497184753,
				0.013687990605831146,
				0.4965227246284485
			],
			"scale":[
				5.895725250244141,
				5.895725727081299,
				5.895728588104248
			],
			"translation":[
				29.358516693115234,
				-48.976463317871094,
				-64.12120056152344
			]
		}
	],
	"materials":[
		{
			"doubleSided":true,
			"name":"M_CliffGrassVC",
			"normalTexture":{
				"extensions":{
					"KHR_texture_transform":{
						"offset":[
							0,
							-6
						],
						"scale":[
							7,
							7
						]
					}
				},
				"index":0,
				"scale":0.6000000238418579
			},
			"pbrMetallicRoughness":{
				"metallicFactor":0,
				"roughnessFactor":0.9200000166893005
			}
		}
	],
	"meshes":[
		{
			"name":"SM_ENV_cliff_castle_02_instantmeshesexp_02.004",
			"primitives":[
				{
					"attributes":{
						"POSITION":0,
						"NORMAL":1,
						"TEXCOORD_0":2,
						"TEXCOORD_1":3,
						"COLOR_0":4
					},
					"indices":5,
					"material":0
				}
			]
		}
	],
	"textures":[
		{
			"sampler":0,
			"source":0
		}
	],
	"images":[
		{
			"mimeType":"image/png",
			"name":"T_ENV_cliff_castle_01_N",
			"uri":"textures/T_ENV_cliff_castle_01_N.png"
		}
	],
	"accessors":[
		{
			"bufferView":0,
			"componentType":5126,
			"count":4265,
			"max":[
				5.037600517272949,
				6.843289375305176,
				3.3966786861419678
			],
			"min":[
				-5.224124431610107,
				-6.786053657531738,
				-3.7081243991851807
			],
			"type":"VEC3"
		},
		{
			"bufferView":1,
			"componentType":5126,
			"count":4265,
			"type":"VEC3"
		},
		{
			"bufferView":2,
			"componentType":5126,
			"count":4265,
			"type":"VEC2"
		},
		{
			"bufferView":3,
			"componentType":5126,
			"count":4265,
			"type":"VEC2"
		},
		{
			"bufferView":4,
			"componentType":5126,
			"count":4265,
			"type":"VEC3"
		},
		{
			"bufferView":5,
			"componentType":5123,
			"count":22374,
			"type":"SCALAR"
		}
	],
	"bufferViews":[
		{
			"buffer":0,
			"byteLength":51180,
			"byteOffset":0,
			"target":34962
		},
		{
			"buffer":0,
			"byteLength":51180,
			"byteOffset":51180,
			"target":34962
		},
		{
			"buffer":0,
			"byteLength":34120,
			"byteOffset":102360,
			"target":34962
		},
		{
			"buffer":0,
			"byteLength":34120,
			"byteOffset":136480,
			"target":34962
		},
		{
			"buffer":0,
			"byteLength":51180,
			"byteOffset":170600,
			"target":34962
		},
		{
			"buffer":0,
			"byteLength":44748,
			"byteOffset":221780,
			"target":34963
		}
	],
	"samplers":[
		{
			"magFilter":9729,
			"minFilter":9987
		}
	],
	"buffers":[
		{
			"byteLength":266528,
			"uri":"cell_x0_z-3_render.bin"
		}
	]
}
