{
  "asset": {
    "generator": "Khronos glTF Blender I/O v5.0.21",
    "version": "2.0"
  },
  "extensionsUsed": [
    "KHR_materials_clearcoat",
    "KHR_materials_specular",
    "KHR_materials_ior",
    "KHR_texture_transform"
  ],
  "extensionsRequired": [
    "KHR_texture_transform"
  ],
  "scene": 0,
  "scenes": [
    {
      "name": "Scene",
      "nodes": [
        0,
        1,
        2,
        3,
        4,
        5,
        6,
        7,
        8,
        9,
        10,
        11
      ]
    }
  ],
  "nodes": [
    {
      "mesh": 0,
      "name": "SM_MOD_citywall_straight_castle_LOD0.002",
      "translation": [
        23.958515167236328,
        8.32861328125,
        -35.62785339355469
      ]
    },
    {
      "mesh": 0,
      "name": "SM_MOD_citywall_straight_castle_LOD0.004",
      "translation": [
        31.958515167236328,
        8.32861328125,
        -35.62785339355469
      ]
    },
    {
      "mesh": 1,
      "name": "SM_ENV_tree_castle_01_LOD0.015",
      "rotation": [
        0,
        -0.8459733128547668,
        0,
        0.5332252979278564
      ],
      "scale": [
        0.9204501509666443,
        0.92044997215271,
        0.9204501509666443
      ],
      "translation": [
        17.71851348876953,
        9.808609008789062,
        -51.85785675048828
      ]
    },
    {
      "mesh": 2,
      "name": "SM_MOD_citywall_curved_castle_LOD0.001",
      "rotation": [
        0,
        1,
        0,
        2.9400982384686358e-05
      ],
      "translation": [
        14.958515167236328,
        8.32861328125,
        -30.627853393554688
      ]
    },
    {
      "mesh": 3,
      "name": "SM_ENV_cliff_castle_01_LOD0.025",
      "rotation": [
        0.056508082896471024,
        -0.05489498749375343,
        -0.9942187666893005,
        0.07295636087656021
      ],
      "scale": [
        3.002321720123291,
        3.002321481704712,
        3.002321720123291
      ],
      "translation": [
        0.7785148620605469,
        11.32861328125,
        -32.46784973144531
      ]
    },
    {
      "mesh": 3,
      "name": "SM_ENV_cliff_castle_01_LOD0.036",
      "rotation": [
        0.20579172670841217,
        -0.16822797060012817,
        0.019144194200634956,
        0.9638374447822571
      ],
      "scale": [
        1.1413999795913696,
        1.1413997411727905,
        1.1413999795913696
      ],
      "translation": [
        12.448516845703125,
        9.75860595703125,
        -39.05785369873047
      ]
    },
    {
      "mesh": 1,
      "name": "SM_ENV_tree_castle_01_LOD0.038",
      "rotation": [
        0,
        0.6310796737670898,
        0,
        0.7757181525230408
      ],
      "scale": [
        1.1767998933792114,
        1.176800012588501,
        1.1767998933792114
      ],
      "translation": [
        26.766090393066406,
        9.563522338867188,
        -48.834205627441406
      ]
    },
    {
      "mesh": 3,
      "name": "SM_ENV_cliff_castle_01_LOD0.040",
      "rotation": [
        0.07044260203838348,
        -0.14176137745380402,
        0.43938782811164856,
        0.8842397332191467
      ],
      "scale": [
        1.3289363384246826,
        1.3289364576339722,
        1.3289364576339722
      ],
      "translation": [
        20.688514709472656,
        7.5586090087890625,
        -37.457855224609375
      ]
    },
    {
      "mesh": 3,
      "name": "SM_ENV_cliff_castle_01_LOD0.046",
      "rotation": [
        -0.0644993707537651,
        0.15182365477085114,
        -0.044816065579652786,
        0.9852821826934814
      ],
      "scale": [
        5.231901168823242,
        5.231901168823242,
        5.231901168823242
      ],
      "translation": [
        4.268516540527344,
        -18.311386108398438,
        -50.28785705566406
      ]
    },
    {
      "mesh": 1,
      "name": "SM_ENV_tree_castle_01_LOD0.049",
      "rotation": [
        0,
        -0.9494381546974182,
        0,
        0.3139544725418091
      ],
      "scale": [
        1.145220398902893,
        1.1452206373214722,
        1.145220398902893
      ],
      "translation": [
        4.948516845703125,
        11.51861572265625,
        -55.06785583496094
      ]
    },
    {
      "mesh": 3,
      "name": "SM_ENV_cliff_castle_01_LOD0.052",
      "rotation": [
        0.05404962599277496,
        0.1476273536682129,
        -0.02485879510641098,
        0.9872521758079529
      ],
      "scale": [
        5.102410316467285,
        5.102410793304443,
        5.102409839630127
      ],
      "translation": [
        24.338516235351562,
        -18.74139404296875,
        -56.59785461425781
      ]
    },
    {
      "mesh": 4,
      "name": "SM_ENV_bush_castle_04_LOD0.027",
      "rotation": [
        -0.07576584815979004,
        0.11599031835794449,
        0.00887402892112732,
        0.9903167486190796
      ],
      "scale": [
        1.1855995655059814,
        1.18559992313385,
        1.18559992313385
      ],
      "translation": [
        5.19287109375,
        15.168624877929688,
        -54.528602600097656
      ]
    }
  ],
  "materials": [
    {
      "doubleSided": true,
      "name": "M_MOD_wall_castle",
      "normalTexture": {
        "index": 0,
        "scale": 3,
        "texCoord": 2
      },
      "pbrMetallicRoughness": {
        "metallicRoughnessTexture": {
          "index": 2,
          "texCoord": 2
        },
        "baseColorFactor": [
          1,
          1,
          1,
          1
        ],
        "metallicFactor": 0.0,
        "baseColorTexture": {
          "index": 12
        }
      }
    },
    {
      "doubleSided": true,
      "extensions": {
        "KHR_materials_specular": {
          "specularFactor": 0
        },
        "KHR_materials_ior": {
          "ior": 1.4500000476837158
        }
      },
      "name": "M_ENV_tree_wood_castle",
      "normalTexture": {
        "index": 3,
        "scale": 2
      },
      "pbrMetallicRoughness": {
        "baseColorFactor": [
          1,
          1,
          1,
          1
        ],
        "baseColorTexture": {
          "index": 4
        },
        "metallicRoughnessTexture": {
          "index": 5
        }
      }
    },
    {
      "alphaMode": "MASK",
      "doubleSided": true,
      "extensions": {
        "KHR_materials_specular": {
          "specularFactor": 0
        },
        "KHR_materials_ior": {
          "ior": 1.4500000476837158
        }
      },
      "name": "M_ENV_tree_leaves_castle_01",
      "pbrMetallicRoughness": {
        "baseColorFactor": [
          0.08437485992908478,
          0.39157116413116455,
          0.028426364064216614,
          1
        ],
        "baseColorTexture": {
          "index": 6
        },
        "metallicFactor": 0,
        "roughnessFactor": 0
      }
    },
    {
      "doubleSided": true,
      "name": "M_MOD_wall_curved_castle",
      "normalTexture": {
        "index": 7,
        "scale": 3,
        "texCoord": 2
      },
      "pbrMetallicRoughness": {
        "metallicRoughnessTexture": {
          "index": 9,
          "texCoord": 2
        },
        "baseColorFactor": [
          1,
          1,
          1,
          1
        ],
        "metallicFactor": 0.0,
        "baseColorTexture": {
          "index": 12
        }
      }
    },
    {
      "doubleSided": true,
      "name": "M_CliffGrassVC",
      "normalTexture": {
        "extensions": {
          "KHR_texture_transform": {
            "offset": [
              0,
              -6
            ],
            "scale": [
              7,
              7
            ]
          }
        },
        "index": 10,
        "scale": 0.6000000238418579
      },
      "pbrMetallicRoughness": {
        "metallicFactor": 0,
        "roughnessFactor": 0.9200000166893005
      }
    },
    {
      "alphaMode": "BLEND",
      "doubleSided": true,
      "extensions": {
        "KHR_materials_clearcoat": {
          "clearcoatRoughnessFactor": 0
        },
        "KHR_materials_specular": {
          "specularFactor": 0
        },
        "KHR_materials_ior": {
          "ior": 1.4500000476837158
        }
      },
      "name": "M_ENV_foliage_castle",
      "pbrMetallicRoughness": {
        "baseColorTexture": {
          "index": 11
        },
        "metallicFactor": 0,
        "roughnessFactor": 0
      }
    }
  ],
  "meshes": [
    {
      "name": "Cube.3241",
      "primitives": [
        {
          "attributes": {
            "POSITION": 0,
            "NORMAL": 1,
            "TEXCOORD_0": 2,
            "TEXCOORD_1": 3,
            "TEXCOORD_2": 4,
            "TANGENT": 39
          },
          "indices": 5,
          "material": 0
        }
      ]
    },
    {
      "name": "Cylinder.294",
      "primitives": [
        {
          "attributes": {
            "POSITION": 6,
            "NORMAL": 7,
            "TEXCOORD_0": 8,
            "TEXCOORD_1": 9,
            "COLOR_0": 10,
            "COLOR_1": 11,
            "TANGENT": 40
          },
          "indices": 12,
          "material": 1
        },
        {
          "attributes": {
            "POSITION": 13,
            "NORMAL": 14,
            "TEXCOORD_0": 15,
            "TEXCOORD_1": 16,
            "COLOR_0": 17,
            "COLOR_1": 18
          },
          "indices": 19,
          "material": 2
        }
      ]
    },
    {
      "name": "Cube.3239",
      "primitives": [
        {
          "attributes": {
            "POSITION": 20,
            "NORMAL": 21,
            "TEXCOORD_0": 22,
            "TEXCOORD_1": 23,
            "TEXCOORD_2": 24,
            "TANGENT": 41
          },
          "indices": 25,
          "material": 3
        }
      ]
    },
    {
      "name": "SM_ENV_cliff_castle_01_instantmeshesexp_02",
      "primitives": [
        {
          "attributes": {
            "POSITION": 26,
            "NORMAL": 27,
            "TEXCOORD_0": 28,
            "TEXCOORD_1": 29,
            "COLOR_0": 30,
            "TANGENT": 42
          },
          "indices": 31,
          "material": 4
        }
      ]
    },
    {
      "name": "Plane.518",
      "primitives": [
        {
          "attributes": {
            "POSITION": 32,
            "NORMAL": 33,
            "TEXCOORD_0": 34,
            "TEXCOORD_1": 35,
            "COLOR_0": 36,
            "COLOR_1": 37
          },
          "indices": 38,
          "material": 5
        }
      ]
    }
  ],
  "textures": [
    {
      "sampler": 0,
      "source": 0
    },
    {
      "sampler": 0,
      "source": 1
    },
    {
      "sampler": 0,
      "source": 2
    },
    {
      "sampler": 0,
      "source": 3
    },
    {
      "sampler": 0,
      "source": 4
    },
    {
      "sampler": 0,
      "source": 5
    },
    {
      "sampler": 0,
      "source": 6
    },
    {
      "sampler": 0,
      "source": 0
    },
    {
      "sampler": 0,
      "source": 1
    },
    {
      "sampler": 0,
      "source": 2
    },
    {
      "sampler": 0,
      "source": 7
    },
    {
      "sampler": 0,
      "source": 8
    },
    {
      "sampler": 0,
      "source": 9
    }
  ],
  "images": [
    {
      "mimeType": "image/png",
      "name": "T_MOD_wall_blocks_castle_01_N",
      "uri": "textures/T_MOD_wall_blocks_castle_01_N.png"
    },
    {
      "mimeType": "image/png",
      "name": "T_MOD_citywall_MASK",
      "uri": "textures/T_MOD_citywall_MASK.png"
    },
    {
      "mimeType": "image/png",
      "name": "T_MOD_wall_blocks_castle_01_PBR",
      "uri": "textures/T_MOD_wall_blocks_castle_01_PBR.png"
    },
    {
      "mimeType": "image/png",
      "name": "T_ENV_wood_castle_01_N",
      "uri": "textures/T_ENV_wood_castle_01_N.png"
    },
    {
      "mimeType": "image/png",
      "name": "T_ENV_wood_castle_01_BC",
      "uri": "textures/T_ENV_wood_castle_01_BC.png"
    },
    {
      "mimeType": "image/png",
      "name": "T_ENV_wood_castle_01_PBR",
      "uri": "textures/T_ENV_wood_castle_01_PBR.png"
    },
    {
      "mimeType": "image/png",
      "name": "T_ENV_tree_leaves_castle_01",
      "uri": "textures/T_ENV_tree_leaves_castle_01.png"
    },
    {
      "mimeType": "image/png",
      "name": "T_ENV_cliff_castle_01_N",
      "uri": "textures/T_ENV_cliff_castle_01_N.png"
    },
    {
      "mimeType": "image/png",
      "name": "T_ENV_foliage_castle",
      "uri": "textures/T_ENV_foliage_castle.png"
    },
    {
      "uri": "textures/T_MOD_wall_bricks_castle_01_BC.png",
      "name": "T_MOD_wall_bricks_castle_01_BC"
    }
  ],
  "accessors": [
    {
      "bufferView": 0,
      "componentType": 5126,
      "count": 2308,
      "max": [
        4,
        10.867555618286133,
        1.4162745475769043
      ],
      "min": [
        -4,
        4.76837158203125e-07,
        -1.4162745475769043
      ],
      "type": "VEC3"
    },
    {
      "bufferView": 1,
      "componentType": 5126,
      "count": 2308,
      "type": "VEC3"
    },
    {
      "bufferView": 2,
      "componentType": 5126,
      "count": 2308,
      "type": "VEC2"
    },
    {
      "bufferView": 3,
      "componentType": 5126,
      "count": 2308,
      "type": "VEC2"
    },
    {
      "bufferView": 4,
      "componentType": 5126,
      "count": 2308,
      "type": "VEC2"
    },
    {
      "bufferView": 5,
      "componentType": 5123,
      "count": 7620,
      "type": "SCALAR"
    },
    {
      "bufferView": 6,
      "componentType": 5126,
      "count": 1275,
      "max": [
        3.5537283420562744,
        9.484169960021973,
        3.4337213039398193
      ],
      "min": [
        -3.0713250637054443,
        -1.0320329666137695,
        -2.8968093395233154
      ],
      "type": "VEC3"
    },
    {
      "bufferView": 7,
      "componentType": 5126,
      "count": 1275,
      "type": "VEC3"
    },
    {
      "bufferView": 8,
      "componentType": 5126,
      "count": 1275,
      "type": "VEC2"
    },
    {
      "bufferView": 9,
      "componentType": 5126,
      "count": 1275,
      "type": "VEC2"
    },
    {
      "bufferView": 10,
      "componentType": 5126,
      "count": 1275,
      "type": "VEC3"
    },
    {
      "bufferView": 11,
      "componentType": 5123,
      "count": 1275,
      "normalized": true,
      "type": "VEC4"
    },
    {
      "bufferView": 12,
      "componentType": 5123,
      "count": 5718,
      "type": "SCALAR"
    },
    {
      "bufferView": 13,
      "componentType": 5126,
      "count": 1920,
      "max": [
        6.43494987487793,
        15.562984466552734,
        6.57190465927124
      ],
      "min": [
        -5.903852462768555,
        4.755402088165283,
        -5.87698221206665
      ],
      "type": "VEC3"
    },
    {
      "bufferView": 14,
      "componentType": 5126,
      "count": 1920,
      "type": "VEC3"
    },
    {
      "bufferView": 15,
      "componentType": 5126,
      "count": 1920,
      "type": "VEC2"
    },
    {
      "bufferView": 16,
      "componentType": 5126,
      "count": 1920,
      "type": "VEC2"
    },
    {
      "bufferView": 17,
      "componentType": 5126,
      "count": 1920,
      "type": "VEC3"
    },
    {
      "bufferView": 18,
      "componentType": 5123,
      "count": 1920,
      "normalized": true,
      "type": "VEC4"
    },
    {
      "bufferView": 19,
      "componentType": 5123,
      "count": 2880,
      "type": "SCALAR"
    },
    {
      "bufferView": 20,
      "componentType": 5126,
      "count": 2307,
      "max": [
        1.4162745475769043,
        10.867555618286133,
        6.416274070739746
      ],
      "min": [
        -5.000001430511475,
        4.76837158203125e-07,
        -4.462082506506704e-05
      ],
      "type": "VEC3"
    },
    {
      "bufferView": 21,
      "componentType": 5126,
      "count": 2307,
      "type": "VEC3"
    },
    {
      "bufferView": 22,
      "componentType": 5126,
      "count": 2307,
      "type": "VEC2"
    },
    {
      "bufferView": 23,
      "componentType": 5126,
      "count": 2307,
      "type": "VEC2"
    },
    {
      "bufferView": 24,
      "componentType": 5126,
      "count": 2307,
      "type": "VEC2"
    },
    {
      "bufferView": 25,
      "componentType": 5123,
      "count": 7620,
      "type": "SCALAR"
    },
    {
      "bufferView": 26,
      "componentType": 5126,
      "count": 4613,
      "max": [
        4.855959892272949,
        5.9515485763549805,
        3.302274227142334
      ],
      "min": [
        -4.882627487182617,
        -5.545106887817383,
        -3.2813682556152344
      ],
      "type": "VEC3"
    },
    {
      "bufferView": 27,
      "componentType": 5126,
      "count": 4613,
      "type": "VEC3"
    },
    {
      "bufferView": 28,
      "componentType": 5126,
      "count": 4613,
      "type": "VEC2"
    },
    {
      "bufferView": 29,
      "componentType": 5126,
      "count": 4613,
      "type": "VEC2"
    },
    {
      "bufferView": 30,
      "componentType": 5126,
      "count": 4613,
      "type": "VEC3"
    },
    {
      "bufferView": 31,
      "componentType": 5123,
      "count": 23661,
      "type": "SCALAR"
    },
    {
      "bufferView": 32,
      "componentType": 5126,
      "count": 600,
      "max": [
        0.8343209624290466,
        1.4898878335952759,
        0.6491702198982239
      ],
      "min": [
        -0.8528966307640076,
        -3.341200590133667,
        -0.3559950292110443
      ],
      "type": "VEC3"
    },
    {
      "bufferView": 33,
      "componentType": 5126,
      "count": 600,
      "type": "VEC3"
    },
    {
      "bufferView": 34,
      "componentType": 5126,
      "count": 600,
      "type": "VEC2"
    },
    {
      "bufferView": 35,
      "componentType": 5126,
      "count": 600,
      "type": "VEC2"
    },
    {
      "bufferView": 36,
      "componentType": 5123,
      "count": 600,
      "normalized": true,
      "type": "VEC4"
    },
    {
      "bufferView": 37,
      "componentType": 5123,
      "count": 600,
      "normalized": true,
      "type": "VEC4"
    },
    {
      "bufferView": 38,
      "componentType": 5123,
      "count": 900,
      "type": "SCALAR"
    },
    {
      "bufferView": 39,
      "componentType": 5126,
      "count": 2308,
      "type": "VEC4"
    },
    {
      "bufferView": 40,
      "componentType": 5126,
      "count": 1275,
      "type": "VEC4"
    },
    {
      "bufferView": 41,
      "componentType": 5126,
      "count": 2307,
      "type": "VEC4"
    },
    {
      "bufferView": 42,
      "componentType": 5126,
      "count": 4613,
      "type": "VEC4"
    }
  ],
  "bufferViews": [
    {
      "buffer": 0,
      "byteLength": 27696,
      "byteOffset": 0,
      "target": 34962
    },
    {
      "buffer": 0,
      "byteLength": 27696,
      "byteOffset": 27696,
      "target": 34962
    },
    {
      "buffer": 0,
      "byteLength": 18464,
      "byteOffset": 55392,
      "target": 34962
    },
    {
      "buffer": 0,
      "byteLength": 18464,
      "byteOffset": 73856,
      "target": 34962
    },
    {
      "buffer": 0,
      "byteLength": 18464,
      "byteOffset": 92320,
      "target": 34962
    },
    {
      "buffer": 0,
      "byteLength": 15240,
      "byteOffset": 110784,
      "target": 34963
    },
    {
      "buffer": 0,
      "byteLength": 15300,
      "byteOffset": 126024,
      "target": 34962
    },
    {
      "buffer": 0,
      "byteLength": 15300,
      "byteOffset": 141324,
      "target": 34962
    },
    {
      "buffer": 0,
      "byteLength": 10200,
      "byteOffset": 156624,
      "target": 34962
    },
    {
      "buffer": 0,
      "byteLength": 10200,
      "byteOffset": 166824,
      "target": 34962
    },
    {
      "buffer": 0,
      "byteLength": 15300,
      "byteOffset": 177024,
      "target": 34962
    },
    {
      "buffer": 0,
      "byteLength": 10200,
      "byteOffset": 192324,
      "target": 34962
    },
    {
      "buffer": 0,
      "byteLength": 11436,
      "byteOffset": 202524,
      "target": 34963
    },
    {
      "buffer": 0,
      "byteLength": 23040,
      "byteOffset": 213960,
      "target": 34962
    },
    {
      "buffer": 0,
      "byteLength": 23040,
      "byteOffset": 237000,
      "target": 34962
    },
    {
      "buffer": 0,
      "byteLength": 15360,
      "byteOffset": 260040,
      "target": 34962
    },
    {
      "buffer": 0,
      "byteLength": 15360,
      "byteOffset": 275400,
      "target": 34962
    },
    {
      "buffer": 0,
      "byteLength": 23040,
      "byteOffset": 290760,
      "target": 34962
    },
    {
      "buffer": 0,
      "byteLength": 15360,
      "byteOffset": 313800,
      "target": 34962
    },
    {
      "buffer": 0,
      "byteLength": 5760,
      "byteOffset": 329160,
      "target": 34963
    },
    {
      "buffer": 0,
      "byteLength": 27684,
      "byteOffset": 334920,
      "target": 34962
    },
    {
      "buffer": 0,
      "byteLength": 27684,
      "byteOffset": 362604,
      "target": 34962
    },
    {
      "buffer": 0,
      "byteLength": 18456,
      "byteOffset": 390288,
      "target": 34962
    },
    {
      "buffer": 0,
      "byteLength": 18456,
      "byteOffset": 408744,
      "target": 34962
    },
    {
      "buffer": 0,
      "byteLength": 18456,
      "byteOffset": 427200,
      "target": 34962
    },
    {
      "buffer": 0,
      "byteLength": 15240,
      "byteOffset": 445656,
      "target": 34963
    },
    {
      "buffer": 0,
      "byteLength": 55356,
      "byteOffset": 460896,
      "target": 34962
    },
    {
      "buffer": 0,
      "byteLength": 55356,
      "byteOffset": 516252,
      "target": 34962
    },
    {
      "buffer": 0,
      "byteLength": 36904,
      "byteOffset": 571608,
      "target": 34962
    },
    {
      "buffer": 0,
      "byteLength": 36904,
      "byteOffset": 608512,
      "target": 34962
    },
    {
      "buffer": 0,
      "byteLength": 55356,
      "byteOffset": 645416,
      "target": 34962
    },
    {
      "buffer": 0,
      "byteLength": 47322,
      "byteOffset": 700772,
      "target": 34963
    },
    {
      "buffer": 0,
      "byteLength": 7200,
      "byteOffset": 748096,
      "target": 34962
    },
    {
      "buffer": 0,
      "byteLength": 7200,
      "byteOffset": 755296,
      "target": 34962
    },
    {
      "buffer": 0,
      "byteLength": 4800,
      "byteOffset": 762496,
      "target": 34962
    },
    {
      "buffer": 0,
      "byteLength": 4800,
      "byteOffset": 767296,
      "target": 34962
    },
    {
      "buffer": 0,
      "byteLength": 4800,
      "byteOffset": 772096,
      "target": 34962
    },
    {
      "buffer": 0,
      "byteLength": 4800,
      "byteOffset": 776896,
      "target": 34962
    },
    {
      "buffer": 0,
      "byteLength": 1800,
      "byteOffset": 781696,
      "target": 34963
    },
    {
      "buffer": 0,
      "byteOffset": 783496,
      "byteLength": 36928,
      "target": 34962
    },
    {
      "buffer": 0,
      "byteOffset": 820424,
      "byteLength": 20400,
      "target": 34962
    },
    {
      "buffer": 0,
      "byteOffset": 840824,
      "byteLength": 36912,
      "target": 34962
    },
    {
      "buffer": 0,
      "byteOffset": 877736,
      "byteLength": 73808,
      "target": 34962
    }
  ],
  "samplers": [
    {
      "magFilter": 9729,
      "minFilter": 9987
    }
  ],
  "buffers": [
    {
      "byteLength": 951544,
      "uri": "cell_x0_z-2_render.bin"
    }
  ]
}