{"asset":{"generator":"Khronos glTF Blender I/O v5.0.21","version":"2.0"},"extensionsUsed":["KHR_materials_specular","KHR_materials_ior","KHR_texture_transform"],"extensionsRequired":["KHR_texture_transform"],"scene":0,"scenes":[{"name":"Scene","nodes":[0,1,2,3,4,5,6,7,8,9,10,11,12,13,14,15]}],"nodes":[{"mesh":0,"name":"SM_MOD_railing_02_straight_castle_LOD0.004","rotation":[0,-0.7069509029388428,0,0.7072626352310181],"translation":[-96.04148864746094,57.32861328125,33.37214279174805]},{"mesh":1,"name":"SM_MOD_wall_deco_pillar_castle_LOD0.056","rotation":[0,-0.7070903182029724,0,0.707123339176178],"translation":[-96.04148864746094,45.32861328125,39.37214660644531]},{"mesh":2,"name":"SM_MOD_wall_big_half_castle_LOD0.020","rotation":[0,0.7071328163146973,0,0.7070807218551636],"translation":[-96.04148864746094,45.32861328125,32.37214660644531]},{"mesh":3,"name":"SM_MOD_wall_big_niche_single_castle_LOD0.016","rotation":[0,0.7071529626846313,0,0.7070605754852295],"translation":[-96.04148864746094,45.32861328125,35.37214660644531]},{"mesh":2,"name":"SM_MOD_wall_big_half_castle_LOD0.033","rotation":[0,0.7071328163146973,0,0.7070807218551636],"translation":[-96.04148864746094,45.32861328125,38.37214660644531]},{"mesh":4,"name":"SM_ENV_cliff_castle_01_LOD0.026","rotation":[-0.04930957034230232,0.8904786109924316,-0.007933373562991619,0.4522758722305298],"scale":[6.729194641113281,6.729194641113281,6.729194641113281],"translation":[-99.74148559570312,-3.3713836669921875,55.47214889526367]},{"mesh":5,"name":"SM_MOD_column_03_castle_LOD0.096","rotation":[0,0.0001396263687638566,0,1],"translation":[-96.04148864746094,57.32861328125,35.37214279174805]},{"mesh":6,"name":"SM_ENV_tree_castle_01_LOD0.028","scale":[0.7790300250053406,0.7790300250053406,0.7790300250053406],"translation":[-103.44667053222656,35.08860778808594,39.8121452331543]},{"mesh":7,"name":"SM_MOD_wall_small_castle_LOD0.190","rotation":[0,-0.7069595456123352,0,0.7072539925575256],"translation":[-96.04148864746094,54.32861328125,37.37214660644531]},{"mesh":1,"name":"SM_MOD_wall_deco_pillar_castle_LOD0.244","rotation":[0,-0.7070903182029724,0,0.707123339176178],"translation":[-96.04148864746094,51.32861328125,39.37214660644531]},{"mesh":7,"name":"SM_MOD_wall_small_castle_LOD0.265","rotation":[0,-0.7069595456123352,0,0.7072539925575256],"translation":[-96.04148864746094,51.32861328125,37.37214660644531]},{"mesh":8,"name":"SM_ENV_cliff_castle_02_LOD0.039","rotation":[-0.09243470430374146,0.6452218294143677,0.029007546603679657,0.7578279376029968],"scale":[2.3893158435821533,2.3893160820007324,2.3893158435821533],"translation":[-104.85148620605469,11.548614501953125,32.38214874267578]},{"mesh":5,"name":"SM_MOD_column_03_castle_LOD0.146","rotation":[0,0.0001396263687638566,0,1],"translation":[-96.04148864746094,57.32861328125,39.37214279174805]},{"mesh":0,"name":"SM_MOD_railing_02_straight_castle_LOD0.225","rotation":[0,-0.7069509029388428,0,0.7072626352310181],"translation":[-96.04148864746094,57.32861328125,37.37214279174805]},{"mesh":7,"name":"SM_MOD_wall_small_castle_LOD0.307","rotation":[0,-0.7069595456123352,0,0.7072539925575256],"translation":[-96.04148864746094,54.32861328125,33.37214660644531]},{"mesh":7,"name":"SM_MOD_wall_small_castle_LOD0.316","rotation":[0,-0.7069595456123352,0,0.7072539925575256],"translation":[-96.04148864746094,51.32861328125,33.37214660644531]}],"materials":[{"doubleSided":true,"name":"M_TRIM_castle","normalTexture":{"index":0,"scale":4},"pbrMetallicRoughness":{"baseColorTexture":{"index":1},"metallicRoughnessTexture":{"index":2}}},{"doubleSided":true,"name":"M_MOD_bricks_castle","normalTexture":{"index":3,"scale":4},"pbrMetallicRoughness":{"baseColorTexture":{"index":4},"metallicRoughnessTexture":{"index":5}}},{"doubleSided":true,"name":"M_MOD_plaster_castle_01","normalTexture":{"index":6},"pbrMetallicRoughness":{"baseColorFactor":[1,0.8552720546722412,0.5793638229370117,1],"baseColorTexture":{"index":7},"metallicRoughnessTexture":{"index":8}}},{"doubleSided":true,"name":"M_CliffGrassVC","normalTexture":{"extensions":{"KHR_texture_transform":{"offset":[0,-6],"scale":[7,7]}},"index":9,"scale":0.6000000238418579},"pbrMetallicRoughness":{"metallicFactor":0,"roughnessFactor":0.9200000166893005}},{"doubleSided":true,"extensions":{"KHR_materials_specular":{"specularFactor":0},"KHR_materials_ior":{"ior":1.4500000476837158}},"name":"M_ENV_tree_wood_castle","normalTexture":{"index":10,"scale":2},"pbrMetallicRoughness":{"baseColorFactor":[1,1,1,1],"baseColorTexture":{"index":11},"metallicRoughnessTexture":{"index":12}}},{"alphaMode":"MASK","doubleSided":true,"extensions":{"KHR_materials_specular":{"specularFactor":0},"KHR_materials_ior":{"ior":1.4500000476837158}},"name":"M_ENV_tree_leaves_castle_01","pbrMetallicRoughness":{"baseColorFactor":[0.08437485992908478,0.39157116413116455,0.028426364064216614,1],"baseColorTexture":{"index":13},"metallicFactor":0,"roughnessFactor":0}}],"meshes":[{"name":"Cube.1020","primitives":[{"attributes":{"POSITION":0,"NORMAL":1,"TEXCOORD_0":2,"TEXCOORD_1":3},"indices":4,"material":0}]},{"name":"Cube.440","primitives":[{"attributes":{"POSITION":5,"NORMAL":6,"TEXCOORD_0":7,"TEXCOORD_1":8},"indices":9,"material":0}]},{"name":"Cube.053","primitives":[{"attributes":{"POSITION":10,"NORMAL":11,"TEXCOORD_0":12,"TEXCOORD_1":13},"indices":14,"material":1}]},{"name":"Cube.784","primitives":[{"attributes":{"POSITION":15,"NORMAL":16,"TEXCOORD_0":17,"TEXCOORD_1":18},"indices":19,"material":1},{"attributes":{"POSITION":20,"NORMAL":21,"TEXCOORD_0":22,"TEXCOORD_1":23},"indices":24,"material":0},{"attributes":{"POSITION":25,"NORMAL":26,"TEXCOORD_0":27,"TEXCOORD_1":28},"indices":29,"material":2}]},{"name":"SM_ENV_cliff_castle_01_instantmeshesexp_02","primitives":[{"attributes":{"POSITION":30,"NORMAL":31,"TEXCOORD_0":32,"TEXCOORD_1":33,"COLOR_0":34},"indices":35,"material":3}]},{"name":"Cube.3212","primitives":[{"attributes":{"POSITION":36,"NORMAL":37,"TEXCOORD_0":38,"TEXCOORD_1":39},"indices":40,"material":0}]},{"name":"Cylinder.294","primitives":[{"attributes":{"POSITION":41,"NORMAL":42,"TEXCOORD_0":43,"TEXCOORD_1":44,"COLOR_0":45,"COLOR_1":46},"indices":47,"material":4},{"attributes":{"POSITION":48,"NORMAL":49,"TEXCOORD_0":50,"TEXCOORD_1":51,"COLOR_0":52,"COLOR_1":53},"indices":54,"material":5}]},{"name":"Cube.246","primitives":[{"attributes":{"POSITION":55,"NORMAL":56,"TEXCOORD_0":57,"TEXCOORD_1":58},"indices":59,"material":1}]},{"name":"SM_ENV_cliff_castle_02_instantmeshesexp_02.004","primitives":[{"attributes":{"POSITION":60,"NORMAL":61,"TEXCOORD_0":62,"TEXCOORD_1":63,"COLOR_0":64},"indices":65,"material":3}]}],"textures":[{"sampler":0,"source":0},{"sampler":0,"source":1},{"sampler":0,"source":2},{"sampler":0,"source":3},{"sampler":0,"source":4},{"sampler":0,"source":5},{"sampler":0,"source":6},{"sampler":0,"source":7},{"sampler":0,"source":8},{"sampler":0,"source":9},{"sampler":0,"source":10},{"sampler":0,"source":11},{"sampler":0,"source":12},{"sampler":0,"source":13}],"images":[{"mimeType":"image/png","name":"T_TRIM_castle_01_N","uri":"textures/T_TRIM_castle_01_N.png"},{"mimeType":"image/png","name":"T_TRIM_castle_01_BC","uri":"textures/T_TRIM_castle_01_BC.png"},{"mimeType":"image/png","name":"T_TRIM_castle_01_PBR","uri":"textures/T_TRIM_castle_01_PBR.png"},{"mimeType":"image/png","name":"T_MOD_wall_bricks_castle_01_N","uri":"textures/T_MOD_wall_bricks_castle_01_N.png"},{"mimeType":"image/png","name":"T_MOD_wall_bricks_castle_01_BC","uri":"textures/T_MOD_wall_bricks_castle_01_BC.png"},{"mimeType":"image/png","name":"T_MOD_wall_bricks_castle_01_PBR","uri":"textures/T_MOD_wall_bricks_castle_01_PBR.png"},{"mimeType":"image/png","name":"T_MOD_wall_plaster_castle_01_N","uri":"textures/T_MOD_wall_plaster_castle_01_N.png"},{"mimeType":"image/png","name":"T_MOD_wall_plaster_castle_02_BC","uri":"textures/T_MOD_wall_plaster_castle_02_BC.png"},{"mimeType":"image/png","name":"T_MOD_wall_plaster_castle_01_PBR","uri":"textures/T_MOD_wall_plaster_castle_01_PBR.png"},{"mimeType":"image/png","name":"T_ENV_cliff_castle_01_N","uri":"textures/T_ENV_cliff_castle_01_N.png"},{"mimeType":"image/png","name":"T_ENV_wood_castle_01_N","uri":"textures/T_ENV_wood_castle_01_N.png"},{"mimeType":"image/png","name":"T_ENV_wood_castle_01_BC","uri":"textures/T_ENV_wood_castle_01_BC.png"},{"mimeType":"image/png","name":"T_ENV_wood_castle_01_PBR","uri":"textures/T_ENV_wood_castle_01_PBR.png"},{"mimeType":"image/png","name":"T_ENV_tree_leaves_castle_01","uri":"textures/T_ENV_tree_leaves_castle_01.png"}],"accessors":[{"bufferView":0,"componentType":5126,"count":512,"max":[1.9999985694885254,1.0031301975250244,0.2541757822036743],"min":[-1.9999985694885254,-0.12952381372451782,-0.25105398893356323],"type":"VEC3"},{"bufferView":1,"componentType":5126,"count":512,"type":"VEC3"},{"bufferView":2,"componentType":5126,"count":512,"type":"VEC2"},{"bufferView":3,"componentType":5126,"count":512,"type":"VEC2"},{"bufferView":4,"componentType":5123,"count":1188,"type":"SCALAR"},{"bufferView":5,"componentType":5126,"count":241,"max":[0.4694620966911316,6.01121187210083,0.6385924816131592],"min":[-0.490100622177124,-0.00664210319519043,-0.002280712127685547],"type":"VEC3"},{"bufferView":6,"componentType":5126,"count":241,"type":"VEC3"},{"bufferView":7,"componentType":5126,"count":241,"type":"VEC2"},{"bufferView":8,"componentType":5126,"count":241,"type":"VEC2"},{"bufferView":9,"componentType":5123,"count":972,"type":"SCALAR"},{"bufferView":10,"componentType":5126,"count":868,"max":[1.3263933658599854,6.0242204666137695,0.43524491786956787],"min":[-1.2307863235473633,-0.02262175641953945,-0.43524491786956787],"type":"VEC3"},{"bufferView":11,"componentType":5126,"count":868,"type":"VEC3"},{"bufferView":12,"componentType":5126,"count":868,"type":"VEC2"},{"bufferView":13,"componentType":5126,"count":868,"type":"VEC2"},{"bufferView":14,"componentType":5123,"count":3402,"type":"SCALAR"},{"bufferView":15,"componentType":5126,"count":1022,"max":[2.3504602909088135,6.0242204666137695,0.426658570766449],"min":[-2.2699174880981445,-0.02262175641953945,-0.426658570766449],"type":"VEC3"},{"bufferView":16,"componentType":5126,"count":1022,"type":"VEC3"},{"bufferView":17,"componentType":5126,"count":1022,"type":"VEC2"},{"bufferView":18,"componentType":5126,"count":1022,"type":"VEC2"},{"bufferView":19,"componentType":5123,"count":3864,"type":"SCALAR"},{"bufferView":20,"componentType":5126,"count":720,"max":[1.2893227338790894,5.409360885620117,0.4964955747127533],"min":[-1.2893227338790894,0.4890148639678955,0],"type":"VEC3"},{"bufferView":21,"componentType":5126,"count":720,"type":"VEC3"},{"bufferView":22,"componentType":5126,"count":720,"type":"VEC2"},{"bufferView":23,"componentType":5126,"count":720,"type":"VEC2"},{"bufferView":24,"componentType":5123,"count":1248,"type":"SCALAR"},{"bufferView":25,"componentType":5126,"count":4,"max":[1.1148192882537842,5.258902549743652,0.1073824018239975],"min":[-1.1148192882537842,0.40276670455932617,0.10738229751586914],"type":"VEC3"},{"bufferView":26,"componentType":5126,"count":4,"type":"VEC3"},{"bufferView":27,"componentType":5126,"count":4,"type":"VEC2"},{"bufferView":28,"componentType":5126,"count":4,"type":"VEC2"},{"bufferView":29,"componentType":5123,"count":6,"type":"SCALAR"},{"bufferView":30,"componentType":5126,"count":4613,"max":[4.855959892272949,5.9515485763549805,3.302274227142334],"min":[-4.882627487182617,-5.545106887817383,-3.2813682556152344],"type":"VEC3"},{"bufferView":31,"componentType":5126,"count":4613,"type":"VEC3"},{"bufferView":32,"componentType":5126,"count":4613,"type":"VEC2"},{"bufferView":33,"componentType":5126,"count":4613,"type":"VEC2"},{"bufferView":34,"componentType":5126,"count":4613,"type":"VEC3"},{"bufferView":35,"componentType":5123,"count":23661,"type":"SCALAR"},{"bufferView":36,"componentType":5126,"count":476,"max":[0.3303849399089813,1.2649469375610352,0.43098196387290955],"min":[-0.32570409774780273,-0.11951245367527008,-0.43197008967399597],"type":"VEC3"},{"bufferView":37,"componentType":5126,"count":476,"type":"VEC3"},{"bufferView":38,"componentType":5126,"count":476,"type":"VEC2"},{"bufferView":39,"componentType":5126,"count":476,"type":"VEC2"},{"bufferView":40,"componentType":5123,"count":1596,"type":"SCALAR"},{"bufferView":41,"componentType":5126,"count":1275,"max":[3.5537283420562744,9.484169960021973,3.4337213039398193],"min":[-3.0713250637054443,-1.0320329666137695,-2.8968093395233154],"type":"VEC3"},{"bufferView":42,"componentType":5126,"count":1275,"type":"VEC3"},{"bufferView":43,"componentType":5126,"count":1275,"type":"VEC2"},{"bufferView":44,"componentType":5126,"count":1275,"type":"VEC2"},{"bufferView":45,"componentType":5126,"count":1275,"type":"VEC3"},{"bufferView":46,"componentType":5123,"count":1275,"normalized":true,"type":"VEC4"},{"bufferView":47,"componentType":5123,"count":5718,"type":"SCALAR"},{"bufferView":48,"componentType":5126,"count":1920,"max":[6.43494987487793,15.562984466552734,6.57190465927124],"min":[-5.903852462768555,4.755402088165283,-5.87698221206665],"type":"VEC3"},{"bufferView":49,"componentType":5126,"count":1920,"type":"VEC3"},{"bufferView":50,"componentType":5126,"count":1920,"type":"VEC2"},{"bufferView":51,"componentType":5126,"count":1920,"type":"VEC2"},{"bufferView":52,"componentType":5126,"count":1920,"type":"VEC3"},{"bufferView":53,"componentType":5123,"count":1920,"normalized":true,"type":"VEC4"},{"bufferView":54,"componentType":5123,"count":2880,"type":"SCALAR"},{"bufferView":55,"componentType":5126,"count":576,"max":[2.270226240158081,3.023193836212158,0.426658570766449],"min":[-2.222656726837158,-0.02262175641953945,-0.426658570766449],"type":"VEC3"},{"bufferView":56,"componentType":5126,"count":576,"type":"VEC3"},{"bufferView":57,"componentType":5126,"count":576,"type":"VEC2"},{"bufferView":58,"componentType":5126,"count":576,"type":"VEC2"},{"bufferView":59,"componentType":5123,"count":2172,"type":"SCALAR"},{"bufferView":60,"componentType":5126,"count":4265,"max":[5.037600517272949,6.843289375305176,3.3966786861419678],"min":[-5.224124431610107,-6.786053657531738,-3.7081243991851807],"type":"VEC3"},{"bufferView":61,"componentType":5126,"count":4265,"type":"VEC3"},{"bufferView":62,"componentType":5126,"count":4265,"type":"VEC2"},{"bufferView":63,"componentType":5126,"count":4265,"type":"VEC2"},{"bufferView":64,"componentType":5126,"count":4265,"type":"VEC3"},{"bufferView":65,"componentType":5123,"count":22374,"type":"SCALAR"}],"bufferViews":[{"buffer":0,"byteLength":6144,"byteOffset":0,"target":34962},{"buffer":0,"byteLength":6144,"byteOffset":6144,"target":34962},{"buffer":0,"byteLength":4096,"byteOffset":12288,"target":34962},{"buffer":0,"byteLength":4096,"byteOffset":16384,"target":34962},{"buffer":0,"byteLength":2376,"byteOffset":20480,"target":34963},{"buffer":0,"byteLength":2892,"byteOffset":22856,"target":34962},{"buffer":0,"byteLength":2892,"byteOffset":25748,"target":34962},{"buffer":0,"byteLength":1928,"byteOffset":28640,"target":34962},{"buffer":0,"byteLength":1928,"byteOffset":30568,"target":34962},{"buffer":0,"byteLength":1944,"byteOffset":32496,"target":34963},{"buffer":0,"byteLength":10416,"byteOffset":34440,"target":34962},{"buffer":0,"byteLength":10416,"byteOffset":44856,"target":34962},{"buffer":0,"byteLength":6944,"byteOffset":55272,"target":34962},{"buffer":0,"byteLength":6944,"byteOffset":62216,"target":34962},{"buffer":0,"byteLength":6804,"byteOffset":69160,"target":34963},{"buffer":0,"byteLength":12264,"byteOffset":75964,"target":34962},{"buffer":0,"byteLength":12264,"byteOffset":88228,"target":34962},{"buffer":0,"byteLength":8176,"byteOffset":100492,"target":34962},{"buffer":0,"byteLength":8176,"byteOffset":108668,"target":34962},{"buffer":0,"byteLength":7728,"byteOffset":116844,"target":34963},{"buffer":0,"byteLength":8640,"byteOffset":124572,"target":34962},{"buffer":0,"byteLength":8640,"byteOffset":133212,"target":34962},{"buffer":0,"byteLength":5760,"byteOffset":141852,"target":34962},{"buffer":0,"byteLength":5760,"byteOffset":147612,"target":34962},{"buffer":0,"byteLength":2496,"byteOffset":153372,"target":34963},{"buffer":0,"byteLength":48,"byteOffset":155868,"target":34962},{"buffer":0,"byteLength":48,"byteOffset":155916,"target":34962},{"buffer":0,"byteLength":32,"byteOffset":155964,"target":34962},{"buffer":0,"byteLength":32,"byteOffset":155996,"target":34962},{"buffer":0,"byteLength":12,"byteOffset":156028,"target":34963},{"buffer":0,"byteLength":55356,"byteOffset":156040,"target":34962},{"buffer":0,"byteLength":55356,"byteOffset":211396,"target":34962},{"buffer":0,"byteLength":36904,"byteOffset":266752,"target":34962},{"buffer":0,"byteLength":36904,"byteOffset":303656,"target":34962},{"buffer":0,"byteLength":55356,"byteOffset":340560,"target":34962},{"buffer":0,"byteLength":47322,"byteOffset":395916,"target":34963},{"buffer":0,"byteLength":5712,"byteOffset":443240,"target":34962},{"buffer":0,"byteLength":5712,"byteOffset":448952,"target":34962},{"buffer":0,"byteLength":3808,"byteOffset":454664,"target":34962},{"buffer":0,"byteLength":3808,"byteOffset":458472,"target":34962},{"buffer":0,"byteLength":3192,"byteOffset":462280,"target":34963},{"buffer":0,"byteLength":15300,"byteOffset":465472,"target":34962},{"buffer":0,"byteLength":15300,"byteOffset":480772,"target":34962},{"buffer":0,"byteLength":10200,"byteOffset":496072,"target":34962},{"buffer":0,"byteLength":10200,"byteOffset":506272,"target":34962},{"buffer":0,"byteLength":15300,"byteOffset":516472,"target":34962},{"buffer":0,"byteLength":10200,"byteOffset":531772,"target":34962},{"buffer":0,"byteLength":11436,"byteOffset":541972,"target":34963},{"buffer":0,"byteLength":23040,"byteOffset":553408,"target":34962},{"buffer":0,"byteLength":23040,"byteOffset":576448,"target":34962},{"buffer":0,"byteLength":15360,"byteOffset":599488,"target":34962},{"buffer":0,"byteLength":15360,"byteOffset":614848,"target":34962},{"buffer":0,"byteLength":23040,"byteOffset":630208,"target":34962},{"buffer":0,"byteLength":15360,"byteOffset":653248,"target":34962},{"buffer":0,"byteLength":5760,"byteOffset":668608,"target":34963},{"buffer":0,"byteLength":6912,"byteOffset":674368,"target":34962},{"buffer":0,"byteLength":6912,"byteOffset":681280,"target":34962},{"buffer":0,"byteLength":4608,"byteOffset":688192,"target":34962},{"buffer":0,"byteLength":4608,"byteOffset":692800,"target":34962},{"buffer":0,"byteLength":4344,"byteOffset":697408,"target":34963},{"buffer":0,"byteLength":51180,"byteOffset":701752,"target":34962},{"buffer":0,"byteLength":51180,"byteOffset":752932,"target":34962},{"buffer":0,"byteLength":34120,"byteOffset":804112,"target":34962},{"buffer":0,"byteLength":34120,"byteOffset":838232,"target":34962},{"buffer":0,"byteLength":51180,"byteOffset":872352,"target":34962},{"buffer":0,"byteLength":44748,"byteOffset":923532,"target":34963}],"samplers":[{"magFilter":9729,"minFilter":9987}],"buffers":[{"byteLength":968280,"uri":"cell_x-4_z1_render.bin"}]}