{
  "asset": {
    "generator": "Khronos glTF Blender I/O v5.0.21",
    "version": "2.0"
  },
  "extensionsUsed": [
    "KHR_materials_specular",
    "KHR_materials_ior",
    "KHR_texture_transform"
  ],
  "extensionsRequired": [
    "KHR_texture_transform"
  ],
  "scene": 0,
  "scenes": [
    {
      "name": "Scene",
      "nodes": [
        0,
        1,
        2,
        3,
        4
      ]
    }
  ],
  "nodes": [
    {
      "mesh": 0,
      "name": "SM_ENV_cliff_castle_02_LOD0.014",
      "rotation": [
        0.5005714893341064,
        -0.48570406436920166,
        0.715404748916626,
        0.04142378270626068
      ],
      "scale": [
        3.639951705932617,
        3.63995099067688,
        3.639951229095459
      ],
      "translation": [
        52.04851150512695,
        30.658615112304688,
        78.49214172363281
      ]
    },
    {
      "mesh": 1,
      "name": "SM_ENV_tree_castle_01_LOD0.017",
      "translation": [
        33.64301681518555,
        27.058609008789062,
        70.01214599609375
      ]
    },
    {
      "mesh": 1,
      "name": "SM_ENV_tree_castle_01_LOD0.029",
      "rotation": [
        0,
        0.7005462050437927,
        0,
        0.7136070728302002
      ],
      "scale": [
        1.241048812866211,
        1.2410484552383423,
        1.241048812866211
      ],
      "translation": [
        40.38851547241211,
        41.678619384765625,
        92.59214782714844
      ]
    },
    {
      "mesh": 2,
      "name": "SM_ENV_cliff_castle_01_LOD0.033",
      "rotation": [
        0.18073874711990356,
        0.37776321172714233,
        -0.2251974642276764,
        0.8797241449356079
      ],
      "scale": [
        5.764666557312012,
        5.7646660804748535,
        5.7646660804748535
      ],
      "translation": [
        40.25851821899414,
        11.32861328125,
        89.37214660644531
      ]
    },
    {
      "mesh": 2,
      "name": "SM_ENV_cliff_castle_01_LOD0.038",
      "rotation": [
        0.020637422800064087,
        -0.2527998685836792,
        0.9045544862747192,
        0.34270647168159485
      ],
      "scale": [
        1.992519736289978,
        1.9925193786621094,
        1.992519736289978
      ],
      "translation": [
        36.63851547241211,
        29.01861572265625,
        80.21214294433594
      ]
    }
  ],
  "materials": [
    {
      "doubleSided": true,
      "name": "M_CliffGrassVC",
      "normalTexture": {
        "extensions": {
          "KHR_texture_transform": {
            "offset": [
              0,
              -6
            ],
            "scale": [
              7,
              7
            ]
          }
        },
        "index": 0,
        "scale": 0.6000000238418579
      },
      "pbrMetallicRoughness": {
        "metallicFactor": 0,
        "roughnessFactor": 0.9200000166893005
      }
    },
    {
      "doubleSided": true,
      "extensions": {
        "KHR_materials_specular": {
          "specularFactor": 0
        },
        "KHR_materials_ior": {
          "ior": 1.4500000476837158
        }
      },
      "name": "M_ENV_tree_wood_castle",
      "normalTexture": {
        "index": 1,
        "scale": 2
      },
      "pbrMetallicRoughness": {
        "baseColorFactor": [
          1,
          1,
          1,
          1
        ],
        "baseColorTexture": {
          "index": 2
        },
        "metallicRoughnessTexture": {
          "index": 3
        }
      }
    },
    {
      "alphaMode": "MASK",
      "doubleSided": true,
      "extensions": {
        "KHR_materials_specular": {
          "specularFactor": 0
        },
        "KHR_materials_ior": {
          "ior": 1.4500000476837158
        }
      },
      "name": "M_ENV_tree_leaves_castle_01",
      "pbrMetallicRoughness": {
        "baseColorFactor": [
          0.08437485992908478,
          0.39157116413116455,
          0.028426364064216614,
          1
        ],
        "baseColorTexture": {
          "index": 4
        },
        "metallicFactor": 0,
        "roughnessFactor": 0
      }
    }
  ],
  "meshes": [
    {
      "name": "SM_ENV_cliff_castle_02_instantmeshesexp_02.004",
      "primitives": [
        {
          "attributes": {
            "POSITION": 0,
            "NORMAL": 1,
            "TEXCOORD_0": 2,
            "TEXCOORD_1": 3,
            "COLOR_0": 4,
            "TANGENT": 26
          },
          "indices": 5,
          "material": 0
        }
      ]
    },
    {
      "name": "Cylinder.294",
      "primitives": [
        {
          "attributes": {
            "POSITION": 6,
            "NORMAL": 7,
            "TEXCOORD_0": 8,
            "TEXCOORD_1": 9,
            "COLOR_0": 10,
            "COLOR_1": 11,
            "TANGENT": 27
          },
          "indices": 12,
          "material": 1
        },
        {
          "attributes": {
            "POSITION": 13,
            "NORMAL": 14,
            "TEXCOORD_0": 15,
            "TEXCOORD_1": 16,
            "COLOR_0": 17,
            "COLOR_1": 18
          },
          "indices": 19,
          "material": 2
        }
      ]
    },
    {
      "name": "SM_ENV_cliff_castle_01_instantmeshesexp_02",
      "primitives": [
        {
          "attributes": {
            "POSITION": 20,
            "NORMAL": 21,
            "TEXCOORD_0": 22,
            "TEXCOORD_1": 23,
            "COLOR_0": 24,
            "TANGENT": 28
          },
          "indices": 25,
          "material": 0
        }
      ]
    }
  ],
  "textures": [
    {
      "sampler": 0,
      "source": 0
    },
    {
      "sampler": 0,
      "source": 1
    },
    {
      "sampler": 0,
      "source": 2
    },
    {
      "sampler": 0,
      "source": 3
    },
    {
      "sampler": 0,
      "source": 4
    }
  ],
  "images": [
    {
      "mimeType": "image/png",
      "name": "T_ENV_cliff_castle_01_N",
      "uri": "textures/T_ENV_cliff_castle_01_N.png"
    },
    {
      "mimeType": "image/png",
      "name": "T_ENV_wood_castle_01_N",
      "uri": "textures/T_ENV_wood_castle_01_N.png"
    },
    {
      "mimeType": "image/png",
      "name": "T_ENV_wood_castle_01_BC",
      "uri": "textures/T_ENV_wood_castle_01_BC.png"
    },
    {
      "mimeType": "image/png",
      "name": "T_ENV_wood_castle_01_PBR",
      "uri": "textures/T_ENV_wood_castle_01_PBR.png"
    },
    {
      "mimeType": "image/png",
      "name": "T_ENV_tree_leaves_castle_01",
      "uri": "textures/T_ENV_tree_leaves_castle_01.png"
    }
  ],
  "accessors": [
    {
      "bufferView": 0,
      "componentType": 5126,
      "count": 4265,
      "max": [
        5.037600517272949,
        6.843289375305176,
        3.3966786861419678
      ],
      "min": [
        -5.224124431610107,
        -6.786053657531738,
        -3.7081243991851807
      ],
      "type": "VEC3"
    },
    {
      "bufferView": 1,
      "componentType": 5126,
      "count": 4265,
      "type": "VEC3"
    },
    {
      "bufferView": 2,
      "componentType": 5126,
      "count": 4265,
      "type": "VEC2"
    },
    {
      "bufferView": 3,
      "componentType": 5126,
      "count": 4265,
      "type": "VEC2"
    },
    {
      "bufferView": 4,
      "componentType": 5126,
      "count": 4265,
      "type": "VEC3"
    },
    {
      "bufferView": 5,
      "componentType": 5123,
      "count": 22374,
      "type": "SCALAR"
    },
    {
      "bufferView": 6,
      "componentType": 5126,
      "count": 1275,
      "max": [
        3.5537283420562744,
        9.484169960021973,
        3.4337213039398193
      ],
      "min": [
        -3.0713250637054443,
        -1.0320329666137695,
        -2.8968093395233154
      ],
      "type": "VEC3"
    },
    {
      "bufferView": 7,
      "componentType": 5126,
      "count": 1275,
      "type": "VEC3"
    },
    {
      "bufferView": 8,
      "componentType": 5126,
      "count": 1275,
      "type": "VEC2"
    },
    {
      "bufferView": 9,
      "componentType": 5126,
      "count": 1275,
      "type": "VEC2"
    },
    {
      "bufferView": 10,
      "componentType": 5126,
      "count": 1275,
      "type": "VEC3"
    },
    {
      "bufferView": 11,
      "componentType": 5123,
      "count": 1275,
      "normalized": true,
      "type": "VEC4"
    },
    {
      "bufferView": 12,
      "componentType": 5123,
      "count": 5718,
      "type": "SCALAR"
    },
    {
      "bufferView": 13,
      "componentType": 5126,
      "count": 1920,
      "max": [
        6.43494987487793,
        15.562984466552734,
        6.57190465927124
      ],
      "min": [
        -5.903852462768555,
        4.755402088165283,
        -5.87698221206665
      ],
      "type": "VEC3"
    },
    {
      "bufferView": 14,
      "componentType": 5126,
      "count": 1920,
      "type": "VEC3"
    },
    {
      "bufferView": 15,
      "componentType": 5126,
      "count": 1920,
      "type": "VEC2"
    },
    {
      "bufferView": 16,
      "componentType": 5126,
      "count": 1920,
      "type": "VEC2"
    },
    {
      "bufferView": 17,
      "componentType": 5126,
      "count": 1920,
      "type": "VEC3"
    },
    {
      "bufferView": 18,
      "componentType": 5123,
      "count": 1920,
      "normalized": true,
      "type": "VEC4"
    },
    {
      "bufferView": 19,
      "componentType": 5123,
      "count": 2880,
      "type": "SCALAR"
    },
    {
      "bufferView": 20,
      "componentType": 5126,
      "count": 4613,
      "max": [
        4.855959892272949,
        5.9515485763549805,
        3.302274227142334
      ],
      "min": [
        -4.882627487182617,
        -5.545106887817383,
        -3.2813682556152344
      ],
      "type": "VEC3"
    },
    {
      "bufferView": 21,
      "componentType": 5126,
      "count": 4613,
      "type": "VEC3"
    },
    {
      "bufferView": 22,
      "componentType": 5126,
      "count": 4613,
      "type": "VEC2"
    },
    {
      "bufferView": 23,
      "componentType": 5126,
      "count": 4613,
      "type": "VEC2"
    },
    {
      "bufferView": 24,
      "componentType": 5126,
      "count": 4613,
      "type": "VEC3"
    },
    {
      "bufferView": 25,
      "componentType": 5123,
      "count": 23661,
      "type": "SCALAR"
    },
    {
      "bufferView": 26,
      "componentType": 5126,
      "count": 4265,
      "type": "VEC4"
    },
    {
      "bufferView": 27,
      "componentType": 5126,
      "count": 1275,
      "type": "VEC4"
    },
    {
      "bufferView": 28,
      "componentType": 5126,
      "count": 4613,
      "type": "VEC4"
    }
  ],
  "bufferViews": [
    {
      "buffer": 0,
      "byteLength": 51180,
      "byteOffset": 0,
      "target": 34962
    },
    {
      "buffer": 0,
      "byteLength": 51180,
      "byteOffset": 51180,
      "target": 34962
    },
    {
      "buffer": 0,
      "byteLength": 34120,
      "byteOffset": 102360,
      "target": 34962
    },
    {
      "buffer": 0,
      "byteLength": 34120,
      "byteOffset": 136480,
      "target": 34962
    },
    {
      "buffer": 0,
      "byteLength": 51180,
      "byteOffset": 170600,
      "target": 34962
    },
    {
      "buffer": 0,
      "byteLength": 44748,
      "byteOffset": 221780,
      "target": 34963
    },
    {
      "buffer": 0,
      "byteLength": 15300,
      "byteOffset": 266528,
      "target": 34962
    },
    {
      "buffer": 0,
      "byteLength": 15300,
      "byteOffset": 281828,
      "target": 34962
    },
    {
      "buffer": 0,
      "byteLength": 10200,
      "byteOffset": 297128,
      "target": 34962
    },
    {
      "buffer": 0,
      "byteLength": 10200,
      "byteOffset": 307328,
      "target": 34962
    },
    {
      "buffer": 0,
      "byteLength": 15300,
      "byteOffset": 317528,
      "target": 34962
    },
    {
      "buffer": 0,
      "byteLength": 10200,
      "byteOffset": 332828,
      "target": 34962
    },
    {
      "buffer": 0,
      "byteLength": 11436,
      "byteOffset": 343028,
      "target": 34963
    },
    {
      "buffer": 0,
      "byteLength": 23040,
      "byteOffset": 354464,
      "target": 34962
    },
    {
      "buffer": 0,
      "byteLength": 23040,
      "byteOffset": 377504,
      "target": 34962
    },
    {
      "buffer": 0,
      "byteLength": 15360,
      "byteOffset": 400544,
      "target": 34962
    },
    {
      "buffer": 0,
      "byteLength": 15360,
      "byteOffset": 415904,
      "target": 34962
    },
    {
      "buffer": 0,
      "byteLength": 23040,
      "byteOffset": 431264,
      "target": 34962
    },
    {
      "buffer": 0,
      "byteLength": 15360,
      "byteOffset": 454304,
      "target": 34962
    },
    {
      "buffer": 0,
      "byteLength": 5760,
      "byteOffset": 469664,
      "target": 34963
    },
    {
      "buffer": 0,
      "byteLength": 55356,
      "byteOffset": 475424,
      "target": 34962
    },
    {
      "buffer": 0,
      "byteLength": 55356,
      "byteOffset": 530780,
      "target": 34962
    },
    {
      "buffer": 0,
      "byteLength": 36904,
      "byteOffset": 586136,
      "target": 34962
    },
    {
      "buffer": 0,
      "byteLength": 36904,
      "byteOffset": 623040,
      "target": 34962
    },
    {
      "buffer": 0,
      "byteLength": 55356,
      "byteOffset": 659944,
      "target": 34962
    },
    {
      "buffer": 0,
      "byteLength": 47322,
      "byteOffset": 715300,
      "target": 34963
    },
    {
      "buffer": 0,
      "byteOffset": 762624,
      "byteLength": 68240,
      "target": 34962
    },
    {
      "buffer": 0,
      "byteOffset": 830864,
      "byteLength": 20400,
      "target": 34962
    },
    {
      "buffer": 0,
      "byteOffset": 851264,
      "byteLength": 73808,
      "target": 34962
    }
  ],
  "samplers": [
    {
      "magFilter": 9729,
      "minFilter": 9987
    }
  ],
  "buffers": [
    {
      "byteLength": 925072,
      "uri": "cell_x1_z2_render.bin"
    }
  ]
}