{"asset":{"generator":"Khronos glTF Blender I/O v5.0.21","version":"2.0"},"extensionsUsed":["KHR_materials_clearcoat","KHR_materials_specular","KHR_materials_ior","KHR_texture_transform"],"extensionsRequired":["KHR_texture_transform"],"scene":0,"scenes":[{"name":"Scene","nodes":[0,1,2,3,4,5,6,7,8,9,10,11,12,13,14,15,16,17,18,19,20,21,22,23,24,25,26,27,28]}],"nodes":[{"mesh":0,"name":"SM_ENV_cliff_castle_01_LOD0.001","rotation":[-0.24680165946483612,0.5996662974357605,0.18468177318572998,0.7384997606277466],"scale":[1.1944999694824219,1.1944999694824219,1.1944999694824219],"translation":[57.918514251708984,14.248611450195312,7.7021484375]},{"mesh":1,"name":"SM_ENV_tree_castle_02_LOD0.001","rotation":[0,-0.7332406044006348,0,0.6799693703651428],"scale":[0.6893987059593201,0.6893988251686096,0.6893987059593201],"translation":[37.2185173034668,25.49261474609375,29.88214683532715]},{"mesh":1,"name":"SM_ENV_tree_castle_02_LOD0.004","rotation":[0,0.7787688970565796,0,0.6273109316825867],"scale":[0.6566581726074219,0.6566580533981323,0.6566581726074219],"translation":[33.5885124206543,26.672607421875,30.342145919799805]},{"mesh":2,"name":"SM_MOD_column_02_castle_LOD0.011","rotation":[0,0.12319186329841614,0,0.9923828840255737],"translation":[37.85551834106445,25.1986083984375,26.445146560668945]},{"mesh":3,"name":"SM_MOD_railing_02_straight_castle_LOD0.024","rotation":[-0.11209816485643387,0.8158475160598755,-0.07722166180610657,0.5620175004005432],"translation":[59.832515716552734,14.032608032226562,0.86114501953125]},{"mesh":4,"name":"SM_MOD_stairs_straight_02_castle_LOD0.025","rotation":[0,0.8492076396942139,0,0.5280591249465942],"translation":[40.80607986450195,24.089614868164062,31.017791748046875]},{"mesh":3,"name":"SM_MOD_railing_02_straight_castle_LOD0.047","rotation":[0,-0.38824978470802307,0,0.9215542078018188],"translation":[36.512516021728516,25.13360595703125,24.991146087646484]},{"mesh":5,"name":"SM_ENV_tree_castle_01_LOD0.008","rotation":[0,0.45621633529663086,0,0.8898689150810242],"scale":[1.13260018825531,1.132599949836731,1.13260018825531],"translation":[56.858516693115234,21.568618774414062,25.092147827148438]},{"mesh":0,"name":"SM_ENV_cliff_castle_01_LOD0.011","rotation":[-0.10298760235309601,0.08151687681674957,-0.6152564287185669,0.7773082256317139],"scale":[1.252768874168396,1.2527689933776855,1.252768874168396],"translation":[53.858516693115234,16.13861083984375,25.31214714050293]},{"mesh":1,"name":"SM_ENV_tree_castle_02_LOD0.008","rotation":[0,0.8074427247047424,0,0.5899461507797241],"scale":[0.8408999443054199,0.8409000039100647,0.8408999443054199],"translation":[45.02876663208008,20.838958740234375,16.22182273864746]},{"mesh":3,"name":"SM_MOD_railing_02_straight_castle_LOD0.066","rotation":[0.027478905394673347,-0.325033038854599,-0.07963382452726364,0.9419431686401367],"translation":[32.605350494384766,26.905609130859375,31.047332763671875]},{"mesh":6,"name":"SM_MOD_railing_02_stairs_straight_castle_LOD0.003","rotation":[-0.047377269715070724,0.8652954697608948,0.08332162350416183,0.4920128583908081],"translation":[38.80551528930664,25.22161865234375,30.508148193359375]},{"mesh":2,"name":"SM_MOD_column_02_castle_LOD0.066","rotation":[0,0.6338437795639038,0,0.773461103439331],"translation":[43.62051773071289,21.345611572265625,23.3321475982666]},{"mesh":2,"name":"SM_MOD_column_02_castle_LOD0.067","rotation":[0,0.26163721084594727,0,0.9651663899421692],"translation":[42.590518951416016,22.865615844726562,28.276145935058594]},{"mesh":0,"name":"SM_ENV_cliff_castle_01_LOD0.017","rotation":[0.564516544342041,0.3134750723838806,-0.7284325361251831,0.22899891436100006],"scale":[2.1313998699188232,2.1313998699188232,2.1313998699188232],"translation":[55.038516998291016,10.678619384765625,6.252147674560547]},{"mesh":1,"name":"SM_ENV_tree_castle_02_LOD0.013","rotation":[0,0.7317513823509216,0,0.6815717220306396],"scale":[0.7436702847480774,0.7436699867248535,0.7436702847480774],"translation":[51.98493576049805,19.186264038085938,12.09245491027832]},{"mesh":7,"name":"SM_PROP_flag_castle_03_LOD0.002","rotation":[0,0.6535398364067078,0,0.7568921446800232],"translation":[41.57368850708008,21.7086181640625,19.37592887878418]},{"mesh":1,"name":"SM_ENV_tree_castle_02_LOD0.015","rotation":[0,-0.7103849053382874,0,0.7038134932518005],"scale":[0.8497399091720581,0.8497400283813477,0.8497399091720581],"translation":[41.35332107543945,22.26025390625,24.416053771972656]},{"mesh":5,"name":"SM_ENV_tree_castle_01_LOD0.021","rotation":[0,-0.8335105180740356,0,0.5525035858154297],"scale":[1.1326000690460205,1.132599949836731,1.1326000690460205],"translation":[35.410518646240234,21.2086181640625,9.330909729003906]},{"mesh":8,"name":"SM_ENV_bush_castle_06_LOD0.018","rotation":[0,0.7419386506080627,0,0.6704677939414978],"scale":[0.6906399726867676,0.6906399726867676,0.6906399726867676],"translation":[41.99751663208008,23.18560791015625,21.68514633178711]},{"mesh":0,"name":"SM_ENV_cliff_castle_01_LOD0.024","rotation":[0.06145970895886421,-0.06282435357570648,0.7120615243911743,0.6965947151184082],"scale":[1.2627357244491577,1.2627357244491577,1.2627357244491577],"translation":[62.858516693115234,16.058609008789062,22.752147674560547]},{"mesh":2,"name":"SM_MOD_column_02_castle_LOD0.106","rotation":[0,0.12319186329841614,0,0.9923828840255737],"translation":[38.728511810302734,25.1986083984375,30.542146682739258]},{"mesh":5,"name":"SM_ENV_tree_castle_01_LOD0.033","rotation":[0,0.13436387479305267,0,0.990932047367096],"scale":[1.1060999631881714,1.1060999631881714,1.1060999631881714],"translation":[48.098514556884766,19.938613891601562,3.6121463775634766]},{"mesh":6,"name":"SM_MOD_railing_02_stairs_straight_castle_LOD0.008","rotation":[-0.015465554781258106,0.9816189408302307,0.16713695228099823,0.09083139896392822],"translation":[42.7185173034668,22.813613891601562,28.039146423339844]},{"mesh":0,"name":"SM_ENV_cliff_castle_01_LOD0.034","rotation":[0.10523693263530731,-0.42797204852104187,-0.05025290697813034,0.8962365984916687],"scale":[2.1313998699188232,2.1313998699188232,2.1313998699188232],"translation":[32.658512115478516,15.798614501953125,18.762147903442383]},{"mesh":9,"name":"SM_PROP_statue_castle_01_LOD0.011","rotation":[0,0.7308481931686401,0,0.6825401186943054],"scale":[0.708320140838623,0.7083200216293335,0.708320140838623],"translation":[41.098514556884766,22.118606567382812,21.672147750854492]},{"mesh":2,"name":"SM_MOD_column_02_castle_LOD0.151","rotation":[0,0.5270562767982483,0,0.8498303890228271],"translation":[47.32651138305664,22.4326171875,30.34114646911621]},{"mesh":3,"name":"SM_MOD_railing_02_straight_castle_LOD0.203","rotation":[0,-0.6286603808403015,0,0.7776800394058228],"translation":[38.332515716552734,25.13360595703125,28.518146514892578]},{"mesh":2,"name":"SM_MOD_column_02_castle_LOD0.156","rotation":[-0.009158454835414886,0.8109251856803894,-0.0005960604175925255,0.5850779414176941],"translation":[60.473514556884766,14.436614990234375,2.532146453857422]}],"materials":[{"doubleSided":true,"name":"M_CliffGrassVC","normalTexture":{"extensions":{"KHR_texture_transform":{"offset":[0,-6],"scale":[7,7]}},"index":0,"scale":0.6000000238418579},"pbrMetallicRoughness":{"metallicFactor":0,"roughnessFactor":0.9200000166893005}},{"alphaMode":"MASK","doubleSided":true,"extensions":{"KHR_materials_specular":{"specularFactor":0},"KHR_materials_ior":{"ior":1.4500000476837158}},"name":"M_ENV_tree_leaves_castle_02","pbrMetallicRoughness":{"baseColorFactor":[0.025187339633703232,0.18782256543636322,0.0761851966381073,1],"baseColorTexture":{"index":1},"metallicFactor":0,"roughnessFactor":0}},{"doubleSided":true,"name":"M_TRIM_castle","normalTexture":{"index":2,"scale":4},"pbrMetallicRoughness":{"baseColorTexture":{"index":3},"metallicRoughnessTexture":{"index":4}}},{"doubleSided":true,"extensions":{"KHR_materials_specular":{"specularFactor":0},"KHR_materials_ior":{"ior":1.4500000476837158}},"name":"M_ENV_tree_wood_castle","normalTexture":{"index":5,"scale":2},"pbrMetallicRoughness":{"baseColorFactor":[1,1,1,1],"baseColorTexture":{"index":6},"metallicRoughnessTexture":{"index":7}}},{"alphaMode":"MASK","doubleSided":true,"extensions":{"KHR_materials_specular":{"specularFactor":0},"KHR_materials_ior":{"ior":1.4500000476837158}},"name":"M_ENV_tree_leaves_castle_01","pbrMetallicRoughness":{"baseColorFactor":[0.08437485992908478,0.39157116413116455,0.028426364064216614,1],"baseColorTexture":{"index":8},"metallicFactor":0,"roughnessFactor":0}},{"doubleSided":true,"name":"M_TRIM_castle.001","normalTexture":{"index":9,"scale":4},"pbrMetallicRoughness":{"baseColorTexture":{"index":10},"metallicRoughnessTexture":{"index":11}}},{"doubleSided":true,"name":"M_PROP_flag_castle","pbrMetallicRoughness":{"baseColorTexture":{"index":12},"metallicFactor":0,"roughnessFactor":0.5}},{"alphaMode":"BLEND","doubleSided":true,"extensions":{"KHR_materials_clearcoat":{"clearcoatRoughnessFactor":0},"KHR_materials_specular":{"specularFactor":0},"KHR_materials_ior":{"ior":1.4500000476837158}},"name":"M_ENV_foliage_castle","pbrMetallicRoughness":{"baseColorTexture":{"index":13},"metallicFactor":0,"roughnessFactor":0}},{"doubleSided":true,"name":"M_PROP_statue_castle","normalTexture":{"index":14,"scale":4},"pbrMetallicRoughness":{"baseColorTexture":{"index":15},"metallicRoughnessTexture":{"index":16}}}],"meshes":[{"name":"SM_ENV_cliff_castle_01_instantmeshesexp_02","primitives":[{"attributes":{"POSITION":0,"NORMAL":1,"TEXCOORD_0":2,"TEXCOORD_1":3,"COLOR_0":4},"indices":5,"material":0}]},{"name":"Plane.153","primitives":[{"attributes":{"POSITION":6,"NORMAL":7,"TEXCOORD_0":8,"TEXCOORD_1":9,"COLOR_0":10,"COLOR_1":11},"indices":12,"material":1}]},{"name":"Cube.3213","primitives":[{"attributes":{"POSITION":13,"NORMAL":14,"TEXCOORD_0":15,"TEXCOORD_1":16},"indices":17,"material":2}]},{"name":"Cube.1020","primitives":[{"attributes":{"POSITION":18,"NORMAL":19,"TEXCOORD_0":20,"TEXCOORD_1":21},"indices":22,"material":2}]},{"name":"Cube.569","primitives":[{"attributes":{"POSITION":23,"NORMAL":24,"TEXCOORD_0":25,"TEXCOORD_1":26},"indices":27,"material":2}]},{"name":"Cylinder.294","primitives":[{"attributes":{"POSITION":28,"NORMAL":29,"TEXCOORD_0":30,"TEXCOORD_1":31,"COLOR_0":32,"COLOR_1":33},"indices":34,"material":3},{"attributes":{"POSITION":35,"NORMAL":36,"TEXCOORD_0":37,"TEXCOORD_1":38,"COLOR_0":39,"COLOR_1":40},"indices":41,"material":4}]},{"name":"Cube.3077","primitives":[{"attributes":{"POSITION":42,"NORMAL":43,"TEXCOORD_0":44,"TEXCOORD_1":45},"indices":46,"material":2}]},{"name":"Cylinder.398","primitives":[{"attributes":{"POSITION":47,"NORMAL":48,"TEXCOORD_0":49,"TEXCOORD_1":50,"COLOR_0":51,"COLOR_1":52},"indices":53,"material":5},{"attributes":{"POSITION":54,"NORMAL":55,"TEXCOORD_0":56,"TEXCOORD_1":57,"COLOR_0":58,"COLOR_1":59},"indices":60,"material":6}]},{"name":"Plane.648","primitives":[{"attributes":{"POSITION":61,"NORMAL":62,"TEXCOORD_0":63,"TEXCOORD_1":64,"COLOR_0":65,"COLOR_1":66},"indices":67,"material":7}]},{"name":"Cube.431","primitives":[{"attributes":{"POSITION":68,"NORMAL":69,"TEXCOORD_0":70,"TEXCOORD_1":71},"indices":72,"material":8}]}],"textures":[{"sampler":0,"source":0},{"sampler":0,"source":1},{"sampler":0,"source":2},{"sampler":0,"source":3},{"sampler":0,"source":4},{"sampler":0,"source":5},{"sampler":0,"source":6},{"sampler":0,"source":7},{"sampler":0,"source":8},{"sampler":0,"source":2},{"sampler":0,"source":3},{"sampler":0,"source":4},{"sampler":0,"source":9},{"sampler":0,"source":10},{"sampler":0,"source":11},{"sampler":0,"source":12},{"sampler":0,"source":13}],"images":[{"mimeType":"image/png","name":"T_ENV_cliff_castle_01_N","uri":"textures/T_ENV_cliff_castle_01_N.png"},{"mimeType":"image/png","name":"T_ENV_tree_leaves_castle_02","uri":"textures/T_ENV_tree_leaves_castle_02.png"},{"mimeType":"image/png","name":"T_TRIM_castle_01_N","uri":"textures/T_TRIM_castle_01_N.png"},{"mimeType":"image/png","name":"T_TRIM_castle_01_BC","uri":"textures/T_TRIM_castle_01_BC.png"},{"mimeType":"image/png","name":"T_TRIM_castle_01_PBR","uri":"textures/T_TRIM_castle_01_PBR.png"},{"mimeType":"image/png","name":"T_ENV_wood_castle_01_N","uri":"textures/T_ENV_wood_castle_01_N.png"},{"mimeType":"image/png","name":"T_ENV_wood_castle_01_BC","uri":"textures/T_ENV_wood_castle_01_BC.png"},{"mimeType":"image/png","name":"T_ENV_wood_castle_01_PBR","uri":"textures/T_ENV_wood_castle_01_PBR.png"},{"mimeType":"image/png","name":"T_ENV_tree_leaves_castle_01","uri":"textures/T_ENV_tree_leaves_castle_01.png"},{"mimeType":"image/png","name":"T_PROP_flags_castle_BC","uri":"textures/T_PROP_flags_castle_BC.png"},{"mimeType":"image/png","name":"T_ENV_foliage_castle","uri":"textures/T_ENV_foliage_castle.png"},{"mimeType":"image/png","name":"T_PROP_statue_castle_N","uri":"textures/T_PROP_statue_castle_N.png"},{"mimeType":"image/png","name":"T_PROP_statue_castle_BC","uri":"textures/T_PROP_statue_castle_BC.png"},{"mimeType":"image/png","name":"T_PROP_statue_castle_PBR","uri":"textures/T_PROP_statue_castle_PBR.png"}],"accessors":[{"bufferView":0,"componentType":5126,"count":4613,"max":[4.855959892272949,5.9515485763549805,3.302274227142334],"min":[-4.882627487182617,-5.545106887817383,-3.2813682556152344],"type":"VEC3"},{"bufferView":1,"componentType":5126,"count":4613,"type":"VEC3"},{"bufferView":2,"componentType":5126,"count":4613,"type":"VEC2"},{"bufferView":3,"componentType":5126,"count":4613,"type":"VEC2"},{"bufferView":4,"componentType":5126,"count":4613,"type":"VEC3"},{"bufferView":5,"componentType":5123,"count":23661,"type":"SCALAR"},{"bufferView":6,"componentType":5126,"count":1680,"max":[2.4888107776641846,8.186420440673828,2.2267041206359863],"min":[-2.3514888286590576,-0.40394994616508484,-2.377707004547119],"type":"VEC3"},{"bufferView":7,"componentType":5126,"count":1680,"type":"VEC3"},{"bufferView":8,"componentType":5126,"count":1680,"type":"VEC2"},{"bufferView":9,"componentType":5126,"count":1680,"type":"VEC2"},{"bufferView":10,"componentType":5123,"count":1680,"normalized":true,"type":"VEC4"},{"bufferView":11,"componentType":5123,"count":1680,"normalized":true,"type":"VEC4"},{"bufferView":12,"componentType":5123,"count":5760,"type":"SCALAR"},{"bufferView":13,"componentType":5126,"count":509,"max":[0.39473864436149597,1.2359495162963867,0.39473864436149597],"min":[-0.39473864436149597,-0.12311287224292755,-0.39473864436149597],"type":"VEC3"},{"bufferView":14,"componentType":5126,"count":509,"type":"VEC3"},{"bufferView":15,"componentType":5126,"count":509,"type":"VEC2"},{"bufferView":16,"componentType":5126,"count":509,"type":"VEC2"},{"bufferView":17,"componentType":5123,"count":2112,"type":"SCALAR"},{"bufferView":18,"componentType":5126,"count":512,"max":[1.9999985694885254,1.0031301975250244,0.2541757822036743],"min":[-1.9999985694885254,-0.12952381372451782,-0.25105398893356323],"type":"VEC3"},{"bufferView":19,"componentType":5126,"count":512,"type":"VEC3"},{"bufferView":20,"componentType":5126,"count":512,"type":"VEC2"},{"bufferView":21,"componentType":5126,"count":512,"type":"VEC2"},{"bufferView":22,"componentType":5123,"count":1188,"type":"SCALAR"},{"bufferView":23,"componentType":5126,"count":636,"max":[2,0.15888768434524536,2.0602104663848877],"min":[-2,-1.145027995109558,0],"type":"VEC3"},{"bufferView":24,"componentType":5126,"count":636,"type":"VEC3"},{"bufferView":25,"componentType":5126,"count":636,"type":"VEC2"},{"bufferView":26,"componentType":5126,"count":636,"type":"VEC2"},{"bufferView":27,"componentType":5123,"count":2226,"type":"SCALAR"},{"bufferView":28,"componentType":5126,"count":1275,"max":[3.5537283420562744,9.484169960021973,3.4337213039398193],"min":[-3.0713250637054443,-1.0320329666137695,-2.8968093395233154],"type":"VEC3"},{"bufferView":29,"componentType":5126,"count":1275,"type":"VEC3"},{"bufferView":30,"componentType":5126,"count":1275,"type":"VEC2"},{"bufferView":31,"componentType":5126,"count":1275,"type":"VEC2"},{"bufferView":32,"componentType":5126,"count":1275,"type":"VEC3"},{"bufferView":33,"componentType":5123,"count":1275,"normalized":true,"type":"VEC4"},{"bufferView":34,"componentType":5123,"count":5718,"type":"SCALAR"},{"bufferView":35,"componentType":5126,"count":1920,"max":[6.43494987487793,15.562984466552734,6.57190465927124],"min":[-5.903852462768555,4.755402088165283,-5.87698221206665],"type":"VEC3"},{"bufferView":36,"componentType":5126,"count":1920,"type":"VEC3"},{"bufferView":37,"componentType":5126,"count":1920,"type":"VEC2"},{"bufferView":38,"componentType":5126,"count":1920,"type":"VEC2"},{"bufferView":39,"componentType":5126,"count":1920,"type":"VEC3"},{"bufferView":40,"componentType":5123,"count":1920,"normalized":true,"type":"VEC4"},{"bufferView":41,"componentType":5123,"count":2880,"type":"SCALAR"},{"bufferView":42,"componentType":5126,"count":622,"max":[0.25098201632499695,1,4.000012397766113],"min":[-0.2546418607234955,-3.1294009685516357,-1.645100928726606e-05],"type":"VEC3"},{"bufferView":43,"componentType":5126,"count":622,"type":"VEC3"},{"bufferView":44,"componentType":5126,"count":622,"type":"VEC2"},{"bufferView":45,"componentType":5126,"count":622,"type":"VEC2"},{"bufferView":46,"componentType":5123,"count":1548,"type":"SCALAR"},{"bufferView":47,"componentType":5126,"count":496,"max":[1.0993012189865112,7.863060474395752,0.4475734829902649],"min":[-1.0993012189865112,-0.03085806965827942,-0.4475734829902649],"type":"VEC3"},{"bufferView":48,"componentType":5126,"count":496,"type":"VEC3"},{"bufferView":49,"componentType":5126,"count":496,"type":"VEC2"},{"bufferView":50,"componentType":5126,"count":496,"type":"VEC2"},{"bufferView":51,"componentType":5126,"count":496,"type":"VEC3"},{"bufferView":52,"componentType":5123,"count":496,"normalized":true,"type":"VEC4"},{"bufferView":53,"componentType":5123,"count":1836,"type":"SCALAR"},{"bufferView":54,"componentType":5126,"count":74,"max":[0.6735774278640747,6.467690467834473,0.24733056128025055],"min":[-0.6735774278640747,2.148385524749756,0.14277350902557373],"type":"VEC3"},{"bufferView":55,"componentType":5126,"count":74,"type":"VEC3"},{"bufferView":56,"componentType":5126,"count":74,"type":"VEC2"},{"bufferView":57,"componentType":5126,"count":74,"type":"VEC2"},{"bufferView":58,"componentType":5126,"count":74,"type":"VEC3"},{"bufferView":59,"componentType":5123,"count":74,"normalized":true,"type":"VEC4"},{"bufferView":60,"componentType":5123,"count":288,"type":"SCALAR"},{"bufferView":61,"componentType":5126,"count":960,"max":[1.3535411357879639,0.8332891464233398,0.616664707660675],"min":[-1.3742002248764038,-1.8549212217330933,-0.4186740517616272],"type":"VEC3"},{"bufferView":62,"componentType":5126,"count":960,"type":"VEC3"},{"bufferView":63,"componentType":5126,"count":960,"type":"VEC2"},{"bufferView":64,"componentType":5126,"count":960,"type":"VEC2"},{"bufferView":65,"componentType":5123,"count":960,"normalized":true,"type":"VEC4"},{"bufferView":66,"componentType":5123,"count":960,"normalized":true,"type":"VEC4"},{"bufferView":67,"componentType":5123,"count":1440,"type":"SCALAR"},{"bufferView":68,"componentType":5126,"count":3916,"max":[1.5454318523406982,6.340999126434326,1.5480334758758545],"min":[-1.5454318523406982,-0.039270639419555664,-1.4389467239379883],"type":"VEC3"},{"bufferView":69,"componentType":5126,"count":3916,"type":"VEC3"},{"bufferView":70,"componentType":5126,"count":3916,"type":"VEC2"},{"bufferView":71,"componentType":5126,"count":3916,"type":"VEC2"},{"bufferView":72,"componentType":5123,"count":8424,"type":"SCALAR"}],"bufferViews":[{"buffer":0,"byteLength":55356,"byteOffset":0,"target":34962},{"buffer":0,"byteLength":55356,"byteOffset":55356,"target":34962},{"buffer":0,"byteLength":36904,"byteOffset":110712,"target":34962},{"buffer":0,"byteLength":36904,"byteOffset":147616,"target":34962},{"buffer":0,"byteLength":55356,"byteOffset":184520,"target":34962},{"buffer":0,"byteLength":47322,"byteOffset":239876,"target":34963},{"buffer":0,"byteLength":20160,"byteOffset":287200,"target":34962},{"buffer":0,"byteLength":20160,"byteOffset":307360,"target":34962},{"buffer":0,"byteLength":13440,"byteOffset":327520,"target":34962},{"buffer":0,"byteLength":13440,"byteOffset":340960,"target":34962},{"buffer":0,"byteLength":13440,"byteOffset":354400,"target":34962},{"buffer":0,"byteLength":13440,"byteOffset":367840,"target":34962},{"buffer":0,"byteLength":11520,"byteOffset":381280,"target":34963},{"buffer":0,"byteLength":6108,"byteOffset":392800,"target":34962},{"buffer":0,"byteLength":6108,"byteOffset":398908,"target":34962},{"buffer":0,"byteLength":4072,"byteOffset":405016,"target":34962},{"buffer":0,"byteLength":4072,"byteOffset":409088,"target":34962},{"buffer":0,"byteLength":4224,"byteOffset":413160,"target":34963},{"buffer":0,"byteLength":6144,"byteOffset":417384,"target":34962},{"buffer":0,"byteLength":6144,"byteOffset":423528,"target":34962},{"buffer":0,"byteLength":4096,"byteOffset":429672,"target":34962},{"buffer":0,"byteLength":4096,"byteOffset":433768,"target":34962},{"buffer":0,"byteLength":2376,"byteOffset":437864,"target":34963},{"buffer":0,"byteLength":7632,"byteOffset":440240,"target":34962},{"buffer":0,"byteLength":7632,"byteOffset":447872,"target":34962},{"buffer":0,"byteLength":5088,"byteOffset":455504,"target":34962},{"buffer":0,"byteLength":5088,"byteOffset":460592,"target":34962},{"buffer":0,"byteLength":4452,"byteOffset":465680,"target":34963},{"buffer":0,"byteLength":15300,"byteOffset":470132,"target":34962},{"buffer":0,"byteLength":15300,"byteOffset":485432,"target":34962},{"buffer":0,"byteLength":10200,"byteOffset":500732,"target":34962},{"buffer":0,"byteLength":10200,"byteOffset":510932,"target":34962},{"buffer":0,"byteLength":15300,"byteOffset":521132,"target":34962},{"buffer":0,"byteLength":10200,"byteOffset":536432,"target":34962},{"buffer":0,"byteLength":11436,"byteOffset":546632,"target":34963},{"buffer":0,"byteLength":23040,"byteOffset":558068,"target":34962},{"buffer":0,"byteLength":23040,"byteOffset":581108,"target":34962},{"buffer":0,"byteLength":15360,"byteOffset":604148,"target":34962},{"buffer":0,"byteLength":15360,"byteOffset":619508,"target":34962},{"buffer":0,"byteLength":23040,"byteOffset":634868,"target":34962},{"buffer":0,"byteLength":15360,"byteOffset":657908,"target":34962},{"buffer":0,"byteLength":5760,"byteOffset":673268,"target":34963},{"buffer":0,"byteLength":7464,"byteOffset":679028,"target":34962},{"buffer":0,"byteLength":7464,"byteOffset":686492,"target":34962},{"buffer":0,"byteLength":4976,"byteOffset":693956,"target":34962},{"buffer":0,"byteLength":4976,"byteOffset":698932,"target":34962},{"buffer":0,"byteLength":3096,"byteOffset":703908,"target":34963},{"buffer":0,"byteLength":5952,"byteOffset":707004,"target":34962},{"buffer":0,"byteLength":5952,"byteOffset":712956,"target":34962},{"buffer":0,"byteLength":3968,"byteOffset":718908,"target":34962},{"buffer":0,"byteLength":3968,"byteOffset":722876,"target":34962},{"buffer":0,"byteLength":5952,"byteOffset":726844,"target":34962},{"buffer":0,"byteLength":3968,"byteOffset":732796,"target":34962},{"buffer":0,"byteLength":3672,"byteOffset":736764,"target":34963},{"buffer":0,"byteLength":888,"byteOffset":740436,"target":34962},{"buffer":0,"byteLength":888,"byteOffset":741324,"target":34962},{"buffer":0,"byteLength":592,"byteOffset":742212,"target":34962},{"buffer":0,"byteLength":592,"byteOffset":742804,"target":34962},{"buffer":0,"byteLength":888,"byteOffset":743396,"target":34962},{"buffer":0,"byteLength":592,"byteOffset":744284,"target":34962},{"buffer":0,"byteLength":576,"byteOffset":744876,"target":34963},{"buffer":0,"byteLength":11520,"byteOffset":745452,"target":34962},{"buffer":0,"byteLength":11520,"byteOffset":756972,"target":34962},{"buffer":0,"byteLength":7680,"byteOffset":768492,"target":34962},{"buffer":0,"byteLength":7680,"byteOffset":776172,"target":34962},{"buffer":0,"byteLength":7680,"byteOffset":783852,"target":34962},{"buffer":0,"byteLength":7680,"byteOffset":791532,"target":34962},{"buffer":0,"byteLength":2880,"byteOffset":799212,"target":34963},{"buffer":0,"byteLength":46992,"byteOffset":802092,"target":34962},{"buffer":0,"byteLength":46992,"byteOffset":849084,"target":34962},{"buffer":0,"byteLength":31328,"byteOffset":896076,"target":34962},{"buffer":0,"byteLength":31328,"byteOffset":927404,"target":34962},{"buffer":0,"byteLength":16848,"byteOffset":958732,"target":34963}],"samplers":[{"magFilter":9729,"minFilter":9987}],"buffers":[{"byteLength":975580,"uri":"cell_x1_z0_render.bin"}]}