{"asset":{"generator":"Khronos glTF Blender I/O v5.0.21","version":"2.0"},"extensionsUsed":["KHR_materials_clearcoat","KHR_materials_specular","KHR_materials_ior","KHR_texture_transform"],"extensionsRequired":["KHR_texture_transform"],"scene":0,"scenes":[{"name":"Scene","nodes":[0,1,2,3,4,5,6,7,8,9,10,11,12,13,14,15,16,17,18,19,20,21,22,23,24,25,26,27,28,29]}],"nodes":[{"mesh":0,"name":"SM_ENV_bush_castle_08_LOD0.003","rotation":[0,-0.9829537868499756,0,0.18385332822799683],"scale":[0.7459498047828674,0.7459497451782227,0.7459498047828674],"translation":[-27.20148468017578,17.50860595703125,-33.447853088378906]},{"mesh":1,"name":"SM_ENV_bush_castle_06_LOD0.003","rotation":[0,-0.07317302376031876,0,0.9973192811012268],"scale":[1.1326005458831787,1.132599949836731,1.1326005458831787],"translation":[-27.479877471923828,22.368606567382812,-36.14985656738281]},{"mesh":2,"name":"SM_ENV_cliff_castle_02_LOD0.005","rotation":[0.031067173928022385,0.054514121264219284,-0.03398702293634415,0.9974507093429565],"scale":[3.0042178630828857,3.0042171478271484,3.0042190551757812],"translation":[-14.391485214233398,8.678619384765625,-31.897850036621094]},{"mesh":0,"name":"SM_ENV_bush_castle_08_LOD0.011","rotation":[0.23438644409179688,0.6507061123847961,-0.3416293263435364,0.6363441944122314],"translation":[-21.321483612060547,16.418609619140625,-38.71784973144531]},{"mesh":3,"name":"SM_ENV_cliff_castle_01_LOD0.008","rotation":[-0.03079668991267681,-0.9519769549369812,-0.28697463870048523,0.10216155648231506],"scale":[6.095821857452393,6.095821857452393,6.095821857452393],"translation":[-8.841484069824219,-58.471397399902344,-49.92784881591797]},{"mesh":2,"name":"SM_ENV_cliff_castle_02_LOD0.012","rotation":[0.9945040345191956,0.007092831190675497,-0.07420145720243454,0.07352249324321747],"scale":[2.21250319480896,2.212503671646118,2.2125043869018555],"translation":[-31.081485748291016,-2.4613800048828125,-48.03785705566406]},{"mesh":4,"name":"SM_MOD_wall_trim_castle_LOD0.140","rotation":[0,0,1,4.331257628109597e-07],"translation":[-30.041484832763672,16.227615356445312,-32.62785339355469]},{"mesh":5,"name":"SM_MOD_wall_small_door_castle_LOD0.002","translation":[-30.041484832763672,12.32861328125,-32.62785339355469]},{"mesh":6,"name":"SM_ENV_bush_castle_05_LOD0.017","rotation":[0.1091964915394783,0.5252257585525513,-0.48583245277404785,0.6900586485862732],"translation":[-22.55048370361328,14.210617065429688,-40.55084991455078]},{"mesh":1,"name":"SM_ENV_bush_castle_06_LOD0.014","rotation":[0,-0.06547482311725616,0,0.9978542327880859],"scale":[1.1326000690460205,1.132599949836731,1.1326000690460205],"translation":[-25.07148551940918,22.26861572265625,-35.507850646972656]},{"mesh":7,"name":"SM_MOD_floor_broken_castle_01_LOD0.004","rotation":[-0.012391931377351284,-0.9995381236076355,-0.027748549357056618,6.059826773707755e-05],"scale":[0.6287700533866882,0.6287699341773987,0.6287699341773987],"translation":[-30.041484832763672,12.2816162109375,-35.014854431152344]},{"mesh":8,"name":"SM_ENV_bush_castle_04_LOD0.008","rotation":[0,0.9993970394134521,0,0.0347219780087471],"scale":[1.3595449924468994,1.359545350074768,1.3595449924468994],"translation":[-29.501483917236328,20.930618286132812,-36.01585388183594]},{"mesh":3,"name":"SM_ENV_cliff_castle_01_LOD0.020","rotation":[-0.10974760353565216,0.10951024293899536,0.7262101173400879,0.6697626113891602],"scale":[3.0464117527008057,3.046412229537964,3.0464119911193848],"translation":[-13.501483917236328,-2.511383056640625,-48.137855529785156]},{"mesh":9,"name":"SM_ENV_tree_castle_01_LOD0.023","rotation":[-0.00822506844997406,0.6153925657272339,-0.03066244348883629,0.787581205368042],"scale":[1.327425241470337,1.3274251222610474,1.3274253606796265],"translation":[-24.45148468017578,11.949615478515625,-39.941856384277344]},{"mesh":0,"name":"SM_ENV_bush_castle_08_LOD0.049","rotation":[0,-0.3066086173057556,0,0.9518356919288635],"scale":[0.7790301442146301,0.7790300250053406,0.7790301442146301],"translation":[-31.842485427856445,24.058609008789062,-36.24085235595703]},{"mesh":8,"name":"SM_ENV_bush_castle_04_LOD0.011","rotation":[-0.043082188814878464,-0.8228491544723511,-0.0629534050822258,0.5631165504455566],"scale":[1.185599446296692,1.18559992313385,1.18559992313385],"translation":[-27.87413787841797,15.998626708984375,-49.56281280517578]},{"mesh":10,"name":"SM_MOD_stairs_straight_02_castle_LOD0.085","rotation":[0,1,0,5.678334673575591e-06],"translation":[-30.041484832763672,12.32861328125,-32.62785339355469]},{"mesh":7,"name":"SM_MOD_floor_broken_castle_01_LOD0.009","rotation":[-0.06045397371053696,0.0158388689160347,0.998045027256012,0.0008571990765631199],"scale":[0.6287699937820435,0.6287702322006226,0.6287699937820435],"translation":[-29.76048469543457,12.115615844726562,-36.86585235595703]},{"mesh":11,"name":"SM_MOD_wall_big_castle_LOD0.208","rotation":[0,-1,0,1.5930332665448077e-05],"translation":[-28.041484832763672,15.32861328125,-32.62785339355469]},{"mesh":8,"name":"SM_ENV_bush_castle_04_LOD0.017","rotation":[0,0.08713295310735703,0,0.9961966872215271],"scale":[1.3595455884933472,1.359545350074768,1.3595455884933472],"translation":[-30.754484176635742,18.678619384765625,-35.89985656738281]},{"mesh":1,"name":"SM_ENV_bush_castle_06_LOD0.030","translation":[-29.56429672241211,16.223617553710938,-33.25885009765625]},{"mesh":12,"name":"SM_ENV_bush_castle_07_LOD0.060","scale":[1.132599949836731,1.132599949836731,1.132599949836731],"translation":[-31.15679359436035,17.105606079101562,-33.178855895996094]},{"mesh":12,"name":"SM_ENV_bush_castle_07_LOD0.070","scale":[1.2562999725341797,1.2562999725341797,1.2562999725341797],"translation":[-29.30848503112793,20.017303466796875,-36.14985656738281]},{"mesh":7,"name":"SM_MOD_floor_broken_castle_01_LOD0.013","rotation":[-0.06696544587612152,-0.11519945412874222,0.021238520741462708,0.9908550977706909],"scale":[0.628770112991333,0.6287699937820435,0.6287699341773987],"translation":[-29.1154842376709,12.093612670898438,-39.29485321044922]},{"mesh":0,"name":"SM_ENV_bush_castle_08_LOD0.065","scale":[0.7459497451782227,0.7459497451782227,0.7459497451782227],"translation":[-27.930484771728516,16.632614135742188,-33.26585388183594]},{"mesh":3,"name":"SM_ENV_cliff_castle_01_LOD0.044","rotation":[0.020346730947494507,0.15283411741256714,-0.7448853850364685,0.6491329073905945],"scale":[1.4242995977401733,1.424299716949463,1.424299955368042],"translation":[-18.191484451293945,10.818618774414062,-38.887855529785156]},{"mesh":13,"name":"SM_MOD_wall_small_half_castle_LOD0.031","translation":[-27.041484832763672,12.32861328125,-32.62785339355469]},{"mesh":9,"name":"SM_ENV_tree_castle_01_LOD0.047","rotation":[0,0.7193783521652222,0,0.6946184635162354],"scale":[1.1452205181121826,1.1452206373214722,1.1452205181121826],"translation":[-27.291484832763672,12.348617553710938,-49.457855224609375]},{"mesh":0,"name":"SM_ENV_bush_castle_08_LOD0.080","rotation":[0,-0.2660137712955475,0,0.963969349861145],"scale":[0.7790302038192749,0.7790300250053406,0.7790302038192749],"translation":[-26.70148468017578,20.088607788085938,-35.587852478027344]},{"mesh":7,"name":"SM_MOD_floor_broken_castle_01_LOD0.015","rotation":[0.8641437888145447,-0.02230924181640148,-0.5027390718460083,0.0033569354563951492],"scale":[0.6287699937820435,0.6287699937820435,0.6287699937820435],"translation":[-28.075485229492188,11.730606079101562,-41.848854064941406]}],"materials":[{"alphaMode":"BLEND","doubleSided":true,"extensions":{"KHR_materials_clearcoat":{"clearcoatRoughnessFactor":0},"KHR_materials_specular":{"specularFactor":0},"KHR_materials_ior":{"ior":1.4500000476837158}},"name":"M_ENV_foliage_castle","pbrMetallicRoughness":{"baseColorTexture":{"index":0},"metallicFactor":0,"roughnessFactor":0}},{"doubleSided":true,"name":"M_CliffGrassVC","normalTexture":{"extensions":{"KHR_texture_transform":{"offset":[0,-6],"scale":[7,7]}},"index":1,"scale":0.6000000238418579},"pbrMetallicRoughness":{"metallicFactor":0,"roughnessFactor":0.9200000166893005}},{"doubleSided":true,"name":"M_TRIM_castle","normalTexture":{"index":2,"scale":4},"pbrMetallicRoughness":{"baseColorTexture":{"index":3},"metallicRoughnessTexture":{"index":4}}},{"doubleSided":true,"name":"M_MOD_bricks_castle","normalTexture":{"index":5,"scale":4},"pbrMetallicRoughness":{"baseColorTexture":{"index":6},"metallicRoughnessTexture":{"index":7}}},{"doubleSided":true,"name":"M_MOD_floor_castle_01","normalTexture":{"index":8,"scale":4},"pbrMetallicRoughness":{"baseColorTexture":{"index":9},"metallicRoughnessTexture":{"index":10}}},{"doubleSided":true,"extensions":{"KHR_materials_specular":{"specularFactor":0},"KHR_materials_ior":{"ior":1.4500000476837158}},"name":"M_ENV_tree_wood_castle","normalTexture":{"index":11,"scale":2},"pbrMetallicRoughness":{"baseColorFactor":[1,1,1,1],"baseColorTexture":{"index":12},"metallicRoughnessTexture":{"index":13}}},{"alphaMode":"MASK","doubleSided":true,"extensions":{"KHR_materials_specular":{"specularFactor":0},"KHR_materials_ior":{"ior":1.4500000476837158}},"name":"M_ENV_tree_leaves_castle_01","pbrMetallicRoughness":{"baseColorFactor":[0.08437485992908478,0.39157116413116455,0.028426364064216614,1],"baseColorTexture":{"index":14},"metallicFactor":0,"roughnessFactor":0}}],"meshes":[{"name":"Plane.789","primitives":[{"attributes":{"POSITION":0,"NORMAL":1,"TEXCOORD_0":2,"TEXCOORD_1":3,"COLOR_0":4,"COLOR_1":5},"indices":6,"material":0}]},{"name":"Plane.648","primitives":[{"attributes":{"POSITION":7,"NORMAL":8,"TEXCOORD_0":9,"TEXCOORD_1":10,"COLOR_0":11,"COLOR_1":12},"indices":13,"material":0}]},{"name":"SM_ENV_cliff_castle_02_instantmeshesexp_02.004","primitives":[{"attributes":{"POSITION":14,"NORMAL":15,"TEXCOORD_0":16,"TEXCOORD_1":17,"COLOR_0":18},"indices":19,"material":1}]},{"name":"SM_ENV_cliff_castle_01_instantmeshesexp_02","primitives":[{"attributes":{"POSITION":20,"NORMAL":21,"TEXCOORD_0":22,"TEXCOORD_1":23,"COLOR_0":24},"indices":25,"material":1}]},{"name":"Cube.373","primitives":[{"attributes":{"POSITION":26,"NORMAL":27,"TEXCOORD_0":28,"TEXCOORD_1":29},"indices":30,"material":2}]},{"name":"Cube.243","primitives":[{"attributes":{"POSITION":31,"NORMAL":32,"TEXCOORD_0":33,"TEXCOORD_1":34},"indices":35,"material":3},{"attributes":{"POSITION":36,"NORMAL":37,"TEXCOORD_0":38,"TEXCOORD_1":39},"indices":40,"material":2}]},{"name":"Plane.568","primitives":[{"attributes":{"POSITION":41,"NORMAL":42,"TEXCOORD_0":43,"TEXCOORD_1":44,"COLOR_0":45,"COLOR_1":46},"indices":13,"material":0}]},{"name":"Cube.457","primitives":[{"attributes":{"POSITION":47,"NORMAL":48,"TEXCOORD_0":49,"TEXCOORD_1":50},"indices":51,"material":4}]},{"name":"Plane.518","primitives":[{"attributes":{"POSITION":52,"NORMAL":53,"TEXCOORD_0":54,"TEXCOORD_1":55,"COLOR_0":56,"COLOR_1":57},"indices":58,"material":0}]},{"name":"Cylinder.294","primitives":[{"attributes":{"POSITION":59,"NORMAL":60,"TEXCOORD_0":61,"TEXCOORD_1":62,"COLOR_0":63,"COLOR_1":64},"indices":65,"material":5},{"attributes":{"POSITION":66,"NORMAL":67,"TEXCOORD_0":68,"TEXCOORD_1":69,"COLOR_0":70,"COLOR_1":71},"indices":72,"material":6}]},{"name":"Cube.569","primitives":[{"attributes":{"POSITION":73,"NORMAL":74,"TEXCOORD_0":75,"TEXCOORD_1":76},"indices":77,"material":2}]},{"name":"Cube.033","primitives":[{"attributes":{"POSITION":78,"NORMAL":79,"TEXCOORD_0":80,"TEXCOORD_1":81},"indices":82,"material":3}]},{"name":"Plane.728","primitives":[{"attributes":{"POSITION":83,"NORMAL":84,"TEXCOORD_0":85,"TEXCOORD_1":86,"COLOR_0":87,"COLOR_1":88},"indices":89,"material":0}]},{"name":"Cube.247","primitives":[{"attributes":{"POSITION":90,"NORMAL":91,"TEXCOORD_0":92,"TEXCOORD_1":93},"indices":94,"material":3}]}],"textures":[{"sampler":0,"source":0},{"sampler":0,"source":1},{"sampler":0,"source":2},{"sampler":0,"source":3},{"sampler":0,"source":4},{"sampler":0,"source":5},{"sampler":0,"source":6},{"sampler":0,"source":7},{"sampler":0,"source":8},{"sampler":0,"source":9},{"sampler":0,"source":10},{"sampler":0,"source":11},{"sampler":0,"source":12},{"sampler":0,"source":13},{"sampler":0,"source":14}],"images":[{"mimeType":"image/png","name":"T_ENV_foliage_castle","uri":"textures/T_ENV_foliage_castle.png"},{"mimeType":"image/png","name":"T_ENV_cliff_castle_01_N","uri":"textures/T_ENV_cliff_castle_01_N.png"},{"mimeType":"image/png","name":"T_TRIM_castle_01_N","uri":"textures/T_TRIM_castle_01_N.png"},{"mimeType":"image/png","name":"T_TRIM_castle_01_BC","uri":"textures/T_TRIM_castle_01_BC.png"},{"mimeType":"image/png","name":"T_TRIM_castle_01_PBR","uri":"textures/T_TRIM_castle_01_PBR.png"},{"mimeType":"image/png","name":"T_MOD_wall_bricks_castle_01_N","uri":"textures/T_MOD_wall_bricks_castle_01_N.png"},{"mimeType":"image/png","name":"T_MOD_wall_bricks_castle_01_BC","uri":"textures/T_MOD_wall_bricks_castle_01_BC.png"},{"mimeType":"image/png","name":"T_MOD_wall_bricks_castle_01_PBR","uri":"textures/T_MOD_wall_bricks_castle_01_PBR.png"},{"mimeType":"image/png","name":"T_MOD_floor_castle_01_N","uri":"textures/T_MOD_floor_castle_01_N.png"},{"mimeType":"image/png","name":"T_MOD_floor_castle_01_BC","uri":"textures/T_MOD_floor_castle_01_BC.png"},{"mimeType":"image/png","name":"T_MOD_floor_castle_01_PBR","uri":"textures/T_MOD_floor_castle_01_PBR.png"},{"mimeType":"image/png","name":"T_ENV_wood_castle_01_N","uri":"textures/T_ENV_wood_castle_01_N.png"},{"mimeType":"image/png","name":"T_ENV_wood_castle_01_BC","uri":"textures/T_ENV_wood_castle_01_BC.png"},{"mimeType":"image/png","name":"T_ENV_wood_castle_01_PBR","uri":"textures/T_ENV_wood_castle_01_PBR.png"},{"mimeType":"image/png","name":"T_ENV_tree_leaves_castle_01","uri":"textures/T_ENV_tree_leaves_castle_01.png"}],"accessors":[{"bufferView":0,"componentType":5126,"count":864,"max":[2.126523971557617,2.460887908935547,1.11051344871521],"min":[-2.2667510509490967,-6.639396667480469,-0.9110949039459229],"type":"VEC3"},{"bufferView":1,"componentType":5126,"count":864,"type":"VEC3"},{"bufferView":2,"componentType":5126,"count":864,"type":"VEC2"},{"bufferView":3,"componentType":5126,"count":864,"type":"VEC2"},{"bufferView":4,"componentType":5123,"count":864,"normalized":true,"type":"VEC4"},{"bufferView":5,"componentType":5123,"count":864,"normalized":true,"type":"VEC4"},{"bufferView":6,"componentType":5123,"count":1296,"type":"SCALAR"},{"bufferView":7,"componentType":5126,"count":960,"max":[1.3535411357879639,0.8332891464233398,0.616664707660675],"min":[-1.3742002248764038,-1.8549212217330933,-0.4186740517616272],"type":"VEC3"},{"bufferView":8,"componentType":5126,"count":960,"type":"VEC3"},{"bufferView":9,"componentType":5126,"count":960,"type":"VEC2"},{"bufferView":10,"componentType":5126,"count":960,"type":"VEC2"},{"bufferView":11,"componentType":5123,"count":960,"normalized":true,"type":"VEC4"},{"bufferView":12,"componentType":5123,"count":960,"normalized":true,"type":"VEC4"},{"bufferView":13,"componentType":5123,"count":1440,"type":"SCALAR"},{"bufferView":14,"componentType":5126,"count":4265,"max":[5.037600517272949,6.843289375305176,3.3966786861419678],"min":[-5.224124431610107,-6.786053657531738,-3.7081243991851807],"type":"VEC3"},{"bufferView":15,"componentType":5126,"count":4265,"type":"VEC3"},{"bufferView":16,"componentType":5126,"count":4265,"type":"VEC2"},{"bufferView":17,"componentType":5126,"count":4265,"type":"VEC2"},{"bufferView":18,"componentType":5126,"count":4265,"type":"VEC3"},{"bufferView":19,"componentType":5123,"count":22374,"type":"SCALAR"},{"bufferView":20,"componentType":5126,"count":4613,"max":[4.855959892272949,5.9515485763549805,3.302274227142334],"min":[-4.882627487182617,-5.545106887817383,-3.2813682556152344],"type":"VEC3"},{"bufferView":21,"componentType":5126,"count":4613,"type":"VEC3"},{"bufferView":22,"componentType":5126,"count":4613,"type":"VEC2"},{"bufferView":23,"componentType":5126,"count":4613,"type":"VEC2"},{"bufferView":24,"componentType":5126,"count":4613,"type":"VEC3"},{"bufferView":25,"componentType":5123,"count":23661,"type":"SCALAR"},{"bufferView":26,"componentType":5126,"count":254,"max":[2,0.2946915328502655,0.5849335789680481],"min":[-2,-3.0174851417541504e-07,0.31276991963386536],"type":"VEC3"},{"bufferView":27,"componentType":5126,"count":254,"type":"VEC3"},{"bufferView":28,"componentType":5126,"count":254,"type":"VEC2"},{"bufferView":29,"componentType":5126,"count":254,"type":"VEC2"},{"bufferView":30,"componentType":5123,"count":906,"type":"SCALAR"},{"bufferView":31,"componentType":5126,"count":561,"max":[2.2702300548553467,3.023193836212158,0.426658570766449],"min":[-2.2226529121398926,-0.02262175641953945,-0.426658570766449],"type":"VEC3"},{"bufferView":32,"componentType":5126,"count":561,"type":"VEC3"},{"bufferView":33,"componentType":5126,"count":561,"type":"VEC2"},{"bufferView":34,"componentType":5126,"count":561,"type":"VEC2"},{"bufferView":35,"componentType":5123,"count":2004,"type":"SCALAR"},{"bufferView":36,"componentType":5126,"count":2382,"max":[1.1476126909255981,2.779447317123413,0.4817263185977936],"min":[-1.147605061531067,-1.1488829443351278e-07,-0.4817263185977936],"type":"VEC3"},{"bufferView":37,"componentType":5126,"count":2382,"type":"VEC3"},{"bufferView":38,"componentType":5126,"count":2382,"type":"VEC2"},{"bufferView":39,"componentType":5126,"count":2382,"type":"VEC2"},{"bufferView":40,"componentType":5123,"count":4236,"type":"SCALAR"},{"bufferView":41,"componentType":5126,"count":960,"max":[1.425001621246338,1.0797010660171509,0.770141065120697],"min":[-1.4109971523284912,-3.307366371154785,-0.5012217164039612],"type":"VEC3"},{"bufferView":42,"componentType":5126,"count":960,"type":"VEC3"},{"bufferView":43,"componentType":5126,"count":960,"type":"VEC2"},{"bufferView":44,"componentType":5126,"count":960,"type":"VEC2"},{"bufferView":45,"componentType":5123,"count":960,"normalized":true,"type":"VEC4"},{"bufferView":46,"componentType":5123,"count":960,"normalized":true,"type":"VEC4"},{"bufferView":47,"componentType":5126,"count":715,"max":[2.070388078689575,0.08400055766105652,2.033703088760376],"min":[-2.060770273208618,-0.3405781388282776,-2.016498565673828],"type":"VEC3"},{"bufferView":48,"componentType":5126,"count":715,"type":"VEC3"},{"bufferView":49,"componentType":5126,"count":715,"type":"VEC2"},{"bufferView":50,"componentType":5126,"count":715,"type":"VEC2"},{"bufferView":51,"componentType":5123,"count":2112,"type":"SCALAR"},{"bufferView":52,"componentType":5126,"count":600,"max":[0.8343209624290466,1.4898878335952759,0.6491702198982239],"min":[-0.8528966307640076,-3.341200590133667,-0.3559950292110443],"type":"VEC3"},{"bufferView":53,"componentType":5126,"count":600,"type":"VEC3"},{"bufferView":54,"componentType":5126,"count":600,"type":"VEC2"},{"bufferView":55,"componentType":5126,"count":600,"type":"VEC2"},{"bufferView":56,"componentType":5123,"count":600,"normalized":true,"type":"VEC4"},{"bufferView":57,"componentType":5123,"count":600,"normalized":true,"type":"VEC4"},{"bufferView":58,"componentType":5123,"count":900,"type":"SCALAR"},{"bufferView":59,"componentType":5126,"count":1275,"max":[3.5537283420562744,9.484169960021973,3.4337213039398193],"min":[-3.0713250637054443,-1.0320329666137695,-2.8968093395233154],"type":"VEC3"},{"bufferView":60,"componentType":5126,"count":1275,"type":"VEC3"},{"bufferView":61,"componentType":5126,"count":1275,"type":"VEC2"},{"bufferView":62,"componentType":5126,"count":1275,"type":"VEC2"},{"bufferView":63,"componentType":5126,"count":1275,"type":"VEC3"},{"bufferView":64,"componentType":5123,"count":1275,"normalized":true,"type":"VEC4"},{"bufferView":65,"componentType":5123,"count":5718,"type":"SCALAR"},{"bufferView":66,"componentType":5126,"count":1920,"max":[6.43494987487793,15.562984466552734,6.57190465927124],"min":[-5.903852462768555,4.755402088165283,-5.87698221206665],"type":"VEC3"},{"bufferView":67,"componentType":5126,"count":1920,"type":"VEC3"},{"bufferView":68,"componentType":5126,"count":1920,"type":"VEC2"},{"bufferView":69,"componentType":5126,"count":1920,"type":"VEC2"},{"bufferView":70,"componentType":5126,"count":1920,"type":"VEC3"},{"bufferView":71,"componentType":5123,"count":1920,"normalized":true,"type":"VEC4"},{"bufferView":72,"componentType":5123,"count":2880,"type":"SCALAR"},{"bufferView":73,"componentType":5126,"count":636,"max":[2,0.15888768434524536,2.0602104663848877],"min":[-2,-1.145027995109558,0],"type":"VEC3"},{"bufferView":74,"componentType":5126,"count":636,"type":"VEC3"},{"bufferView":75,"componentType":5126,"count":636,"type":"VEC2"},{"bufferView":76,"componentType":5126,"count":636,"type":"VEC2"},{"bufferView":77,"componentType":5123,"count":2226,"type":"SCALAR"},{"bufferView":78,"componentType":5126,"count":1048,"max":[2.3504602909088135,6.0242204666137695,0.4287639856338501],"min":[-2.2699174880981445,-0.02262175641953945,-0.43797388672828674],"type":"VEC3"},{"bufferView":79,"componentType":5126,"count":1048,"type":"VEC3"},{"bufferView":80,"componentType":5126,"count":1048,"type":"VEC2"},{"bufferView":81,"componentType":5126,"count":1048,"type":"VEC2"},{"bufferView":82,"componentType":5123,"count":4158,"type":"SCALAR"},{"bufferView":83,"componentType":5126,"count":720,"max":[1.6049699783325195,0.7846742272377014,0.6185894012451172],"min":[-1.6038271188735962,-1.1322442293167114,-0.45752856135368347],"type":"VEC3"},{"bufferView":84,"componentType":5126,"count":720,"type":"VEC3"},{"bufferView":85,"componentType":5126,"count":720,"type":"VEC2"},{"bufferView":86,"componentType":5126,"count":720,"type":"VEC2"},{"bufferView":87,"componentType":5123,"count":720,"normalized":true,"type":"VEC4"},{"bufferView":88,"componentType":5123,"count":720,"normalized":true,"type":"VEC4"},{"bufferView":89,"componentType":5123,"count":1080,"type":"SCALAR"},{"bufferView":90,"componentType":5126,"count":462,"max":[1.246159315109253,3.009263753890991,0.43524491786956787],"min":[-1.183525562286377,-0.02262175641953945,-0.43524491786956787],"type":"VEC3"},{"bufferView":91,"componentType":5126,"count":462,"type":"VEC3"},{"bufferView":92,"componentType":5126,"count":462,"type":"VEC2"},{"bufferView":93,"componentType":5126,"count":462,"type":"VEC2"},{"bufferView":94,"componentType":5123,"count":1812,"type":"SCALAR"}],"bufferViews":[{"buffer":0,"byteLength":10368,"byteOffset":0,"target":34962},{"buffer":0,"byteLength":10368,"byteOffset":10368,"target":34962},{"buffer":0,"byteLength":6912,"byteOffset":20736,"target":34962},{"buffer":0,"byteLength":6912,"byteOffset":27648,"target":34962},{"buffer":0,"byteLength":6912,"byteOffset":34560,"target":34962},{"buffer":0,"byteLength":6912,"byteOffset":41472,"target":34962},{"buffer":0,"byteLength":2592,"byteOffset":48384,"target":34963},{"buffer":0,"byteLength":11520,"byteOffset":50976,"target":34962},{"buffer":0,"byteLength":11520,"byteOffset":62496,"target":34962},{"buffer":0,"byteLength":7680,"byteOffset":74016,"target":34962},{"buffer":0,"byteLength":7680,"byteOffset":81696,"target":34962},{"buffer":0,"byteLength":7680,"byteOffset":89376,"target":34962},{"buffer":0,"byteLength":7680,"byteOffset":97056,"target":34962},{"buffer":0,"byteLength":2880,"byteOffset":104736,"target":34963},{"buffer":0,"byteLength":51180,"byteOffset":107616,"target":34962},{"buffer":0,"byteLength":51180,"byteOffset":158796,"target":34962},{"buffer":0,"byteLength":34120,"byteOffset":209976,"target":34962},{"buffer":0,"byteLength":34120,"byteOffset":244096,"target":34962},{"buffer":0,"byteLength":51180,"byteOffset":278216,"target":34962},{"buffer":0,"byteLength":44748,"byteOffset":329396,"target":34963},{"buffer":0,"byteLength":55356,"byteOffset":374144,"target":34962},{"buffer":0,"byteLength":55356,"byteOffset":429500,"target":34962},{"buffer":0,"byteLength":36904,"byteOffset":484856,"target":34962},{"buffer":0,"byteLength":36904,"byteOffset":521760,"target":34962},{"buffer":0,"byteLength":55356,"byteOffset":558664,"target":34962},{"buffer":0,"byteLength":47322,"byteOffset":614020,"target":34963},{"buffer":0,"byteLength":3048,"byteOffset":661344,"target":34962},{"buffer":0,"byteLength":3048,"byteOffset":664392,"target":34962},{"buffer":0,"byteLength":2032,"byteOffset":667440,"target":34962},{"buffer":0,"byteLength":2032,"byteOffset":669472,"target":34962},{"buffer":0,"byteLength":1812,"byteOffset":671504,"target":34963},{"buffer":0,"byteLength":6732,"byteOffset":673316,"target":34962},{"buffer":0,"byteLength":6732,"byteOffset":680048,"target":34962},{"buffer":0,"byteLength":4488,"byteOffset":686780,"target":34962},{"buffer":0,"byteLength":4488,"byteOffset":691268,"target":34962},{"buffer":0,"byteLength":4008,"byteOffset":695756,"target":34963},{"buffer":0,"byteLength":28584,"byteOffset":699764,"target":34962},{"buffer":0,"byteLength":28584,"byteOffset":728348,"target":34962},{"buffer":0,"byteLength":19056,"byteOffset":756932,"target":34962},{"buffer":0,"byteLength":19056,"byteOffset":775988,"target":34962},{"buffer":0,"byteLength":8472,"byteOffset":795044,"target":34963},{"buffer":0,"byteLength":11520,"byteOffset":803516,"target":34962},{"buffer":0,"byteLength":11520,"byteOffset":815036,"target":34962},{"buffer":0,"byteLength":7680,"byteOffset":826556,"target":34962},{"buffer":0,"byteLength":7680,"byteOffset":834236,"target":34962},{"buffer":0,"byteLength":7680,"byteOffset":841916,"target":34962},{"buffer":0,"byteLength":7680,"byteOffset":849596,"target":34962},{"buffer":0,"byteLength":8580,"byteOffset":857276,"target":34962},{"buffer":0,"byteLength":8580,"byteOffset":865856,"target":34962},{"buffer":0,"byteLength":5720,"byteOffset":874436,"target":34962},{"buffer":0,"byteLength":5720,"byteOffset":880156,"target":34962},{"buffer":0,"byteLength":4224,"byteOffset":885876,"target":34963},{"buffer":0,"byteLength":7200,"byteOffset":890100,"target":34962},{"buffer":0,"byteLength":7200,"byteOffset":897300,"target":34962},{"buffer":0,"byteLength":4800,"byteOffset":904500,"target":34962},{"buffer":0,"byteLength":4800,"byteOffset":909300,"target":34962},{"buffer":0,"byteLength":4800,"byteOffset":914100,"target":34962},{"buffer":0,"byteLength":4800,"byteOffset":918900,"target":34962},{"buffer":0,"byteLength":1800,"byteOffset":923700,"target":34963},{"buffer":0,"byteLength":15300,"byteOffset":925500,"target":34962},{"buffer":0,"byteLength":15300,"byteOffset":940800,"target":34962},{"buffer":0,"byteLength":10200,"byteOffset":956100,"target":34962},{"buffer":0,"byteLength":10200,"byteOffset":966300,"target":34962},{"buffer":0,"byteLength":15300,"byteOffset":976500,"target":34962},{"buffer":0,"byteLength":10200,"byteOffset":991800,"target":34962},{"buffer":0,"byteLength":11436,"byteOffset":1002000,"target":34963},{"buffer":0,"byteLength":23040,"byteOffset":1013436,"target":34962},{"buffer":0,"byteLength":23040,"byteOffset":1036476,"target":34962},{"buffer":0,"byteLength":15360,"byteOffset":1059516,"target":34962},{"buffer":0,"byteLength":15360,"byteOffset":1074876,"target":34962},{"buffer":0,"byteLength":23040,"byteOffset":1090236,"target":34962},{"buffer":0,"byteLength":15360,"byteOffset":1113276,"target":34962},{"buffer":0,"byteLength":5760,"byteOffset":1128636,"target":34963},{"buffer":0,"byteLength":7632,"byteOffset":1134396,"target":34962},{"buffer":0,"byteLength":7632,"byteOffset":1142028,"target":34962},{"buffer":0,"byteLength":5088,"byteOffset":1149660,"target":34962},{"buffer":0,"byteLength":5088,"byteOffset":1154748,"target":34962},{"buffer":0,"byteLength":4452,"byteOffset":1159836,"target":34963},{"buffer":0,"byteLength":12576,"byteOffset":1164288,"target":34962},{"buffer":0,"byteLength":12576,"byteOffset":1176864,"target":34962},{"buffer":0,"byteLength":8384,"byteOffset":1189440,"target":34962},{"buffer":0,"byteLength":8384,"byteOffset":1197824,"target":34962},{"buffer":0,"byteLength":8316,"byteOffset":1206208,"target":34963},{"buffer":0,"byteLength":8640,"byteOffset":1214524,"target":34962},{"buffer":0,"byteLength":8640,"byteOffset":1223164,"target":34962},{"buffer":0,"byteLength":5760,"byteOffset":1231804,"target":34962},{"buffer":0,"byteLength":5760,"byteOffset":1237564,"target":34962},{"buffer":0,"byteLength":5760,"byteOffset":1243324,"target":34962},{"buffer":0,"byteLength":5760,"byteOffset":1249084,"target":34962},{"buffer":0,"byteLength":2160,"byteOffset":1254844,"target":34963},{"buffer":0,"byteLength":5544,"byteOffset":1257004,"target":34962},{"buffer":0,"byteLength":5544,"byteOffset":1262548,"target":34962},{"buffer":0,"byteLength":3696,"byteOffset":1268092,"target":34962},{"buffer":0,"byteLength":3696,"byteOffset":1271788,"target":34962},{"buffer":0,"byteLength":3624,"byteOffset":1275484,"target":34963}],"samplers":[{"magFilter":9729,"minFilter":9987}],"buffers":[{"byteLength":1279108,"uri":"cell_x-1_z-2_render.bin"}]}