{"asset":{"generator":"Khronos glTF Blender I/O v5.0.21","version":"2.0"},"extensionsUsed":["KHR_materials_specular","KHR_materials_ior","KHR_texture_transform"],"extensionsRequired":["KHR_texture_transform"],"scene":0,"scenes":[{"name":"Scene","nodes":[0,1,2,3,4,5,6,7,8,9]}],"nodes":[{"mesh":0,"name":"SM_MOD_citywall_straight_castle_LOD0.001","rotation":[0,-0.7071066498756409,0,0.70710688829422],"translation":[90.95851135253906,17.32861328125,10.372146606445312]},{"mesh":1,"name":"SM_ENV_tree_castle_01_LOD0.002","rotation":[0,0.032322272658348083,0,0.9994775056838989],"scale":[0.852304220199585,0.8523041605949402,0.852304220199585],"translation":[78.05851745605469,20.6046142578125,20.38414764404297]},{"mesh":2,"name":"SM_ENV_cliff_castle_01_LOD0.006","rotation":[0.4459476172924042,0.5554118752479553,0.4330817461013794,0.552348256111145],"scale":[1.8249632120132446,1.8249633312225342,1.8249632120132446],"translation":[87.6085205078125,14.878616333007812,12.092147827148438]},{"mesh":2,"name":"SM_ENV_cliff_castle_01_LOD0.010","rotation":[-0.7901496291160583,-0.13452903926372528,-0.1379634141921997,0.5818348526954651],"scale":[1.824963092803955,1.8249632120132446,1.824963092803955],"translation":[74.43852233886719,15.89862060546875,13.592147827148438]},{"mesh":2,"name":"SM_ENV_cliff_castle_01_LOD0.014","rotation":[0.6446211338043213,0.7143654227256775,0.2714941203594208,0.020893622189760208],"scale":[1.7838133573532104,1.7838129997253418,1.7838129997253418],"translation":[72.48851013183594,15.748611450195312,23.432147979736328]},{"mesh":1,"name":"SM_ENV_tree_castle_01_LOD0.016","rotation":[0,0.89031982421875,0,0.45533567667007446],"scale":[1.159099817276001,1.15910005569458,1.159099817276001],"translation":[81.86851501464844,17.14862060546875,9.802146911621094]},{"mesh":0,"name":"SM_MOD_citywall_straight_castle_LOD0.005","rotation":[0,-0.7071066498756409,0,0.70710688829422],"translation":[90.95851135253906,17.32861328125,18.372146606445312]},{"mesh":0,"name":"SM_MOD_citywall_straight_castle_LOD0.010","rotation":[0,-0.7071066498756409,0,0.70710688829422],"translation":[90.95851135253906,17.32861328125,2.3721466064453125]},{"mesh":2,"name":"SM_ENV_cliff_castle_01_LOD0.049","rotation":[-0.3026794493198395,0.8259615302085876,-0.47287845611572266,0.050583548843860626],"scale":[1.308790683746338,1.3087905645370483,1.3087905645370483],"translation":[83.8585205078125,12.858612060546875,2.8321456909179688]},{"mesh":3,"name":"SM_ENV_cliff_castle_02_LOD0.047","rotation":[0.20254956185817719,0.2662332057952881,-0.09106532484292984,0.9379768967628479],"scale":[3.020641565322876,3.0206410884857178,3.0206410884857178],"translation":[79.03851318359375,17.438613891601562,28.352148056030273]}],"materials":[{"doubleSided":true,"name":"M_MOD_wall_castle","normalTexture":{"index":0,"scale":3,"texCoord":2},"pbrMetallicRoughness":{"metallicRoughnessTexture":{"index":2,"texCoord":2},"baseColorFactor":[1,1,1,1],"metallicFactor":0.0,"baseColorTexture":{"index":8}}},{"doubleSided":true,"extensions":{"KHR_materials_specular":{"specularFactor":0},"KHR_materials_ior":{"ior":1.4500000476837158}},"name":"M_ENV_tree_wood_castle","normalTexture":{"index":3,"scale":2},"pbrMetallicRoughness":{"baseColorFactor":[1,1,1,1],"baseColorTexture":{"index":4},"metallicRoughnessTexture":{"index":5}}},{"alphaMode":"MASK","doubleSided":true,"extensions":{"KHR_materials_specular":{"specularFactor":0},"KHR_materials_ior":{"ior":1.4500000476837158}},"name":"M_ENV_tree_leaves_castle_01","pbrMetallicRoughness":{"baseColorFactor":[0.08437485992908478,0.39157116413116455,0.028426364064216614,1],"baseColorTexture":{"index":6},"metallicFactor":0,"roughnessFactor":0}},{"doubleSided":true,"name":"M_CliffGrassVC","normalTexture":{"extensions":{"KHR_texture_transform":{"offset":[0,-6],"scale":[7,7]}},"index":7,"scale":0.6000000238418579},"pbrMetallicRoughness":{"metallicFactor":0,"roughnessFactor":0.9200000166893005}}],"meshes":[{"name":"Cube.3241","primitives":[{"attributes":{"POSITION":0,"NORMAL":1,"TEXCOORD_0":2,"TEXCOORD_1":3,"TEXCOORD_2":4},"indices":5,"material":0}]},{"name":"Cylinder.294","primitives":[{"attributes":{"POSITION":6,"NORMAL":7,"TEXCOORD_0":8,"TEXCOORD_1":9,"COLOR_0":10,"COLOR_1":11},"indices":12,"material":1},{"attributes":{"POSITION":13,"NORMAL":14,"TEXCOORD_0":15,"TEXCOORD_1":16,"COLOR_0":17,"COLOR_1":18},"indices":19,"material":2}]},{"name":"SM_ENV_cliff_castle_01_instantmeshesexp_02","primitives":[{"attributes":{"POSITION":20,"NORMAL":21,"TEXCOORD_0":22,"TEXCOORD_1":23,"COLOR_0":24},"indices":25,"material":3}]},{"name":"SM_ENV_cliff_castle_02_instantmeshesexp_02.004","primitives":[{"attributes":{"POSITION":26,"NORMAL":27,"TEXCOORD_0":28,"TEXCOORD_1":29,"COLOR_0":30},"indices":31,"material":3}]}],"textures":[{"sampler":0,"source":0},{"sampler":0,"source":1},{"sampler":0,"source":2},{"sampler":0,"source":3},{"sampler":0,"source":4},{"sampler":0,"source":5},{"sampler":0,"source":6},{"sampler":0,"source":7},{"sampler":0,"source":8}],"images":[{"mimeType":"image/png","name":"T_MOD_wall_blocks_castle_01_N","uri":"textures/T_MOD_wall_blocks_castle_01_N.png"},{"mimeType":"image/png","name":"T_MOD_citywall_MASK","uri":"textures/T_MOD_citywall_MASK.png"},{"mimeType":"image/png","name":"T_MOD_wall_blocks_castle_01_PBR","uri":"textures/T_MOD_wall_blocks_castle_01_PBR.png"},{"mimeType":"image/png","name":"T_ENV_wood_castle_01_N","uri":"textures/T_ENV_wood_castle_01_N.png"},{"mimeType":"image/png","name":"T_ENV_wood_castle_01_BC","uri":"textures/T_ENV_wood_castle_01_BC.png"},{"mimeType":"image/png","name":"T_ENV_wood_castle_01_PBR","uri":"textures/T_ENV_wood_castle_01_PBR.png"},{"mimeType":"image/png","name":"T_ENV_tree_leaves_castle_01","uri":"textures/T_ENV_tree_leaves_castle_01.png"},{"mimeType":"image/png","name":"T_ENV_cliff_castle_01_N","uri":"textures/T_ENV_cliff_castle_01_N.png"},{"uri":"textures/T_MOD_wall_bricks_castle_01_BC.png","name":"T_MOD_wall_bricks_castle_01_BC"}],"accessors":[{"bufferView":0,"componentType":5126,"count":2308,"max":[4,10.867555618286133,1.4162745475769043],"min":[-4,4.76837158203125e-07,-1.4162745475769043],"type":"VEC3"},{"bufferView":1,"componentType":5126,"count":2308,"type":"VEC3"},{"bufferView":2,"componentType":5126,"count":2308,"type":"VEC2"},{"bufferView":3,"componentType":5126,"count":2308,"type":"VEC2"},{"bufferView":4,"componentType":5126,"count":2308,"type":"VEC2"},{"bufferView":5,"componentType":5123,"count":7620,"type":"SCALAR"},{"bufferView":6,"componentType":5126,"count":1275,"max":[3.5537283420562744,9.484169960021973,3.4337213039398193],"min":[-3.0713250637054443,-1.0320329666137695,-2.8968093395233154],"type":"VEC3"},{"bufferView":7,"componentType":5126,"count":1275,"type":"VEC3"},{"bufferView":8,"componentType":5126,"count":1275,"type":"VEC2"},{"bufferView":9,"componentType":5126,"count":1275,"type":"VEC2"},{"bufferView":10,"componentType":5126,"count":1275,"type":"VEC3"},{"bufferView":11,"componentType":5123,"count":1275,"normalized":true,"type":"VEC4"},{"bufferView":12,"componentType":5123,"count":5718,"type":"SCALAR"},{"bufferView":13,"componentType":5126,"count":1920,"max":[6.43494987487793,15.562984466552734,6.57190465927124],"min":[-5.903852462768555,4.755402088165283,-5.87698221206665],"type":"VEC3"},{"bufferView":14,"componentType":5126,"count":1920,"type":"VEC3"},{"bufferView":15,"componentType":5126,"count":1920,"type":"VEC2"},{"bufferView":16,"componentType":5126,"count":1920,"type":"VEC2"},{"bufferView":17,"componentType":5126,"count":1920,"type":"VEC3"},{"bufferView":18,"componentType":5123,"count":1920,"normalized":true,"type":"VEC4"},{"bufferView":19,"componentType":5123,"count":2880,"type":"SCALAR"},{"bufferView":20,"componentType":5126,"count":4613,"max":[4.855959892272949,5.9515485763549805,3.302274227142334],"min":[-4.882627487182617,-5.545106887817383,-3.2813682556152344],"type":"VEC3"},{"bufferView":21,"componentType":5126,"count":4613,"type":"VEC3"},{"bufferView":22,"componentType":5126,"count":4613,"type":"VEC2"},{"bufferView":23,"componentType":5126,"count":4613,"type":"VEC2"},{"bufferView":24,"componentType":5126,"count":4613,"type":"VEC3"},{"bufferView":25,"componentType":5123,"count":23661,"type":"SCALAR"},{"bufferView":26,"componentType":5126,"count":4265,"max":[5.037600517272949,6.843289375305176,3.3966786861419678],"min":[-5.224124431610107,-6.786053657531738,-3.7081243991851807],"type":"VEC3"},{"bufferView":27,"componentType":5126,"count":4265,"type":"VEC3"},{"bufferView":28,"componentType":5126,"count":4265,"type":"VEC2"},{"bufferView":29,"componentType":5126,"count":4265,"type":"VEC2"},{"bufferView":30,"componentType":5126,"count":4265,"type":"VEC3"},{"bufferView":31,"componentType":5123,"count":22374,"type":"SCALAR"}],"bufferViews":[{"buffer":0,"byteLength":27696,"byteOffset":0,"target":34962},{"buffer":0,"byteLength":27696,"byteOffset":27696,"target":34962},{"buffer":0,"byteLength":18464,"byteOffset":55392,"target":34962},{"buffer":0,"byteLength":18464,"byteOffset":73856,"target":34962},{"buffer":0,"byteLength":18464,"byteOffset":92320,"target":34962},{"buffer":0,"byteLength":15240,"byteOffset":110784,"target":34963},{"buffer":0,"byteLength":15300,"byteOffset":126024,"target":34962},{"buffer":0,"byteLength":15300,"byteOffset":141324,"target":34962},{"buffer":0,"byteLength":10200,"byteOffset":156624,"target":34962},{"buffer":0,"byteLength":10200,"byteOffset":166824,"target":34962},{"buffer":0,"byteLength":15300,"byteOffset":177024,"target":34962},{"buffer":0,"byteLength":10200,"byteOffset":192324,"target":34962},{"buffer":0,"byteLength":11436,"byteOffset":202524,"target":34963},{"buffer":0,"byteLength":23040,"byteOffset":213960,"target":34962},{"buffer":0,"byteLength":23040,"byteOffset":237000,"target":34962},{"buffer":0,"byteLength":15360,"byteOffset":260040,"target":34962},{"buffer":0,"byteLength":15360,"byteOffset":275400,"target":34962},{"buffer":0,"byteLength":23040,"byteOffset":290760,"target":34962},{"buffer":0,"byteLength":15360,"byteOffset":313800,"target":34962},{"buffer":0,"byteLength":5760,"byteOffset":329160,"target":34963},{"buffer":0,"byteLength":55356,"byteOffset":334920,"target":34962},{"buffer":0,"byteLength":55356,"byteOffset":390276,"target":34962},{"buffer":0,"byteLength":36904,"byteOffset":445632,"target":34962},{"buffer":0,"byteLength":36904,"byteOffset":482536,"target":34962},{"buffer":0,"byteLength":55356,"byteOffset":519440,"target":34962},{"buffer":0,"byteLength":47322,"byteOffset":574796,"target":34963},{"buffer":0,"byteLength":51180,"byteOffset":622120,"target":34962},{"buffer":0,"byteLength":51180,"byteOffset":673300,"target":34962},{"buffer":0,"byteLength":34120,"byteOffset":724480,"target":34962},{"buffer":0,"byteLength":34120,"byteOffset":758600,"target":34962},{"buffer":0,"byteLength":51180,"byteOffset":792720,"target":34962},{"buffer":0,"byteLength":44748,"byteOffset":843900,"target":34963}],"samplers":[{"magFilter":9729,"minFilter":9987}],"buffers":[{"byteLength":888648,"uri":"cell_x2_z0_render.bin"}]}