{"asset":{"generator":"Khronos glTF Blender I/O v5.0.21","version":"2.0"},"extensionsUsed":["KHR_materials_specular","KHR_materials_ior"],"scene":0,"scenes":[{"name":"Scene","nodes":[0,1,2,3,4,5,6,7,8,9,10,11,12,13,14,15,16,17,18]}],"nodes":[{"mesh":0,"name":"SM_MOD_tower_part_arch_castle_LOD0.002","rotation":[0,-0.9238656759262085,0,0.38271719217300415],"translation":[9.88851547241211,54.84861755371094,88.31214141845703]},{"mesh":1,"name":"SM_MOD_tower_segment_ceiling_castle_LOD0.001","rotation":[0,0.7073161602020264,0,0.7068973183631897],"translation":[9.88851547241211,60.84861755371094,88.31214141845703]},{"mesh":2,"name":"SM_MOD_deco_flying_buttress_ext_castle_LOD0.004","rotation":[0,-0.9238947033882141,0,0.3826467990875244],"scale":[1.9999998807907104,2,1.9999998807907104],"translation":[1.3785133361816406,18.32861328125,64.79214477539062]},{"mesh":0,"name":"SM_MOD_tower_part_arch_castle_LOD0.005","rotation":[0,0.00024750243755988777,0,1],"translation":[9.88851547241211,54.84861755371094,88.31214141845703]},{"mesh":3,"name":"SM_MOD_tower_segment_wall_castle_LOD0.005","rotation":[0,7.98449109424837e-05,0,1],"translation":[9.88851547241211,42.84861755371094,88.31214904785156]},{"mesh":0,"name":"SM_MOD_tower_part_arch_castle_LOD0.016","rotation":[0,-0.7069095969200134,0,0.7073039412498474],"translation":[9.88851547241211,54.84861755371094,88.31214141845703]},{"mesh":0,"name":"SM_MOD_tower_part_arch_castle_LOD0.024","rotation":[0,-0.9999999403953552,0,0.000300482934108004],"translation":[9.88851547241211,54.84861755371094,88.31214141845703]},{"mesh":0,"name":"SM_MOD_tower_part_arch_castle_LOD0.026","rotation":[0,0.7073161602020264,0,0.7068973183631897],"translation":[9.88851547241211,54.84861755371094,88.31214141845703]},{"mesh":4,"name":"SM_MOD_tower_segment_top_castle_LOD0.003","rotation":[0,0.3826683461666107,0,0.9238858222961426],"translation":[9.88851547241211,48.84861755371094,88.31214904785156]},{"mesh":5,"name":"SM_MOD_tower_roof_castle_LOD0.005","rotation":[0,0.7073161602020264,0,0.7068973183631897],"translation":[9.88851547241211,63.84861755371094,88.31214141845703]},{"mesh":6,"name":"SM_MOD_tower_segment_window_castle_LOD0.013","rotation":[0,-0.923869252204895,0,0.3827083110809326],"translation":[9.88851547241211,36.84861755371094,88.31214904785156]},{"mesh":3,"name":"SM_MOD_tower_segment_wall_castle_LOD0.015","rotation":[0,7.98449109424837e-05,0,1],"translation":[9.88851547241211,30.848617553710938,88.31214904785156]},{"mesh":7,"name":"SM_MOD_tower_segment_base_castle_LOD0.005","rotation":[0,0.3826683461666107,0,0.9238858222961426],"translation":[9.88851547241211,24.848617553710938,88.31214904785156]},{"mesh":8,"name":"SM_MOD_tower_roof_deco_flag_castle_LOD0.013","rotation":[0,0.9950817823410034,0,0.09905680269002914],"translation":[9.88851547241211,78.84861755371094,88.31214141845703]},{"mesh":0,"name":"SM_MOD_tower_part_arch_castle_LOD0.060","rotation":[0,-0.38266950845718384,0,0.9238852858543396],"translation":[9.88851547241211,54.84861755371094,88.31214141845703]},{"mesh":0,"name":"SM_MOD_tower_part_arch_castle_LOD0.068","rotation":[0,0.3826683461666107,0,0.9238858222961426],"translation":[9.88851547241211,54.84861755371094,88.31214141845703]},{"mesh":0,"name":"SM_MOD_tower_part_arch_castle_LOD0.071","rotation":[0,0.9238920211791992,0,0.3826533257961273],"translation":[9.88851547241211,54.84861755371094,88.31214141845703]},{"mesh":9,"name":"SM_ENV_tree_castle_01_LOD0.041","rotation":[0,0.9610270857810974,0,0.27645426988601685],"scale":[1.6620808839797974,1.6620807647705078,1.6620808839797974],"translation":[20.728515625,26.13861083984375,79.78215026855469]},{"mesh":10,"name":"SM_MOD_tower_segment_top_deco_castle_LOD0.011","rotation":[0,0.7073161602020264,0,0.7068973183631897],"translation":[9.88851547241211,60.84861755371094,88.31214141845703]}],"materials":[{"doubleSided":true,"name":"M_MOD_bricks_castle","normalTexture":{"index":0,"scale":4},"pbrMetallicRoughness":{"baseColorTexture":{"index":1},"metallicRoughnessTexture":{"index":2}}},{"doubleSided":true,"name":"M_MOD_roof_castle","normalTexture":{"index":3,"scale":3},"pbrMetallicRoughness":{"baseColorFactor":[1,0.05308542773127556,0,1],"baseColorTexture":{"index":4},"metallicRoughnessTexture":{"index":5}}},{"doubleSided":true,"name":"M_TRIM_castle.001","normalTexture":{"index":6,"scale":4},"pbrMetallicRoughness":{"baseColorTexture":{"index":7},"metallicRoughnessTexture":{"index":8}}},{"doubleSided":true,"name":"M_PROP_flag_castle","pbrMetallicRoughness":{"baseColorTexture":{"index":9},"metallicFactor":0,"roughnessFactor":0.5}},{"doubleSided":true,"extensions":{"KHR_materials_specular":{"specularFactor":0},"KHR_materials_ior":{"ior":1.4500000476837158}},"name":"M_ENV_tree_wood_castle","normalTexture":{"index":10,"scale":2},"pbrMetallicRoughness":{"baseColorFactor":[1,1,1,1],"baseColorTexture":{"index":11},"metallicRoughnessTexture":{"index":12}}},{"alphaMode":"MASK","doubleSided":true,"extensions":{"KHR_materials_specular":{"specularFactor":0},"KHR_materials_ior":{"ior":1.4500000476837158}},"name":"M_ENV_tree_leaves_castle_01","pbrMetallicRoughness":{"baseColorFactor":[0.08437485992908478,0.39157116413116455,0.028426364064216614,1],"baseColorTexture":{"index":13},"metallicFactor":0,"roughnessFactor":0}}],"meshes":[{"name":"Cylinder.151","primitives":[{"attributes":{"POSITION":0,"NORMAL":1,"TEXCOORD_0":2,"TEXCOORD_1":3},"indices":4,"material":0}]},{"name":"Cylinder.425","primitives":[{"attributes":{"POSITION":5,"NORMAL":6,"TEXCOORD_0":7,"TEXCOORD_1":8},"indices":9,"material":0}]},{"name":"Cube.627","primitives":[{"attributes":{"POSITION":10,"NORMAL":11,"TEXCOORD_0":12,"TEXCOORD_1":13},"indices":14,"material":0}]},{"name":"Cylinder.141","primitives":[{"attributes":{"POSITION":15,"NORMAL":16,"TEXCOORD_0":17,"TEXCOORD_1":18},"indices":19,"material":0}]},{"name":"Cylinder.144","primitives":[{"attributes":{"POSITION":20,"NORMAL":21,"TEXCOORD_0":22,"TEXCOORD_1":23},"indices":24,"material":0}]},{"name":"Cylinder.271","primitives":[{"attributes":{"POSITION":25,"NORMAL":26,"TEXCOORD_0":27,"TEXCOORD_1":28},"indices":29,"material":1}]},{"name":"Cylinder.147","primitives":[{"attributes":{"POSITION":30,"NORMAL":31,"TEXCOORD_0":32,"TEXCOORD_1":33},"indices":34,"material":0}]},{"name":"Cylinder.142","primitives":[{"attributes":{"POSITION":35,"NORMAL":36,"TEXCOORD_0":37,"TEXCOORD_1":38},"indices":39,"material":0}]},{"name":"Cylinder.401","primitives":[{"attributes":{"POSITION":40,"NORMAL":41,"TEXCOORD_0":42,"TEXCOORD_1":43,"COLOR_0":44,"COLOR_1":45},"indices":46,"material":2},{"attributes":{"POSITION":47,"NORMAL":48,"TEXCOORD_0":49,"TEXCOORD_1":50,"COLOR_0":51,"COLOR_1":52},"indices":53,"material":3}]},{"name":"Cylinder.294","primitives":[{"attributes":{"POSITION":54,"NORMAL":55,"TEXCOORD_0":56,"TEXCOORD_1":57,"COLOR_0":58,"COLOR_1":59},"indices":60,"material":4},{"attributes":{"POSITION":61,"NORMAL":62,"TEXCOORD_0":63,"TEXCOORD_1":64,"COLOR_0":65,"COLOR_1":66},"indices":67,"material":5}]},{"name":"Cylinder.145","primitives":[{"attributes":{"POSITION":68,"NORMAL":69,"TEXCOORD_0":70,"TEXCOORD_1":71},"indices":72,"material":0}]}],"textures":[{"sampler":0,"source":0},{"sampler":0,"source":1},{"sampler":0,"source":2},{"sampler":0,"source":3},{"sampler":0,"source":4},{"sampler":0,"source":5},{"sampler":0,"source":6},{"sampler":0,"source":7},{"sampler":0,"source":8},{"sampler":0,"source":9},{"sampler":0,"source":10},{"sampler":0,"source":11},{"sampler":0,"source":12},{"sampler":0,"source":13}],"images":[{"mimeType":"image/png","name":"T_MOD_wall_bricks_castle_01_N","uri":"textures/T_MOD_wall_bricks_castle_01_N.png"},{"mimeType":"image/png","name":"T_MOD_wall_bricks_castle_01_BC","uri":"textures/T_MOD_wall_bricks_castle_01_BC.png"},{"mimeType":"image/png","name":"T_MOD_wall_bricks_castle_01_PBR","uri":"textures/T_MOD_wall_bricks_castle_01_PBR.png"},{"mimeType":"image/png","name":"T_ENV_MOD_roof_castle_02_N","uri":"textures/T_ENV_MOD_roof_castle_02_N.png"},{"mimeType":"image/png","name":"T_ENV_MOD_roof_castle_02_BC","uri":"textures/T_ENV_MOD_roof_castle_02_BC.png"},{"mimeType":"image/png","name":"T_MOD_roof_castle_01_PBR","uri":"textures/T_MOD_roof_castle_01_PBR.png"},{"mimeType":"image/png","name":"T_TRIM_castle_01_N","uri":"textures/T_TRIM_castle_01_N.png"},{"mimeType":"image/png","name":"T_TRIM_castle_01_BC","uri":"textures/T_TRIM_castle_01_BC.png"},{"mimeType":"image/png","name":"T_TRIM_castle_01_PBR","uri":"textures/T_TRIM_castle_01_PBR.png"},{"mimeType":"image/png","name":"T_PROP_flags_castle_BC","uri":"textures/T_PROP_flags_castle_BC.png"},{"mimeType":"image/png","name":"T_ENV_wood_castle_01_N","uri":"textures/T_ENV_wood_castle_01_N.png"},{"mimeType":"image/png","name":"T_ENV_wood_castle_01_BC","uri":"textures/T_ENV_wood_castle_01_BC.png"},{"mimeType":"image/png","name":"T_ENV_wood_castle_01_PBR","uri":"textures/T_ENV_wood_castle_01_PBR.png"},{"mimeType":"image/png","name":"T_ENV_tree_leaves_castle_01","uri":"textures/T_ENV_tree_leaves_castle_01.png"}],"accessors":[{"bufferView":0,"componentType":5126,"count":706,"max":[1.9661730527877808,6.003618240356445,4.6569294929504395],"min":[-1.9661730527877808,-0.003618418937548995,3.4195408821105957],"type":"VEC3"},{"bufferView":1,"componentType":5126,"count":706,"type":"VEC3"},{"bufferView":2,"componentType":5126,"count":706,"type":"VEC2"},{"bufferView":3,"componentType":5126,"count":706,"type":"VEC2"},{"bufferView":4,"componentType":5123,"count":3042,"type":"SCALAR"},{"bufferView":5,"componentType":5126,"count":488,"max":[4.132104396820068,0.23190362751483917,4.132104396820068],"min":[-4.132104396820068,-0.4885820746421814,-4.132104396820068],"type":"VEC3"},{"bufferView":6,"componentType":5126,"count":488,"type":"VEC3"},{"bufferView":7,"componentType":5126,"count":488,"type":"VEC2"},{"bufferView":8,"componentType":5126,"count":488,"type":"VEC2"},{"bufferView":9,"componentType":5123,"count":1404,"type":"SCALAR"},{"bufferView":10,"componentType":5126,"count":565,"max":[0.3188522160053253,6.005483150482178,0.3144216239452362],"min":[-0.3257274627685547,-0.0024521369487047195,-0.3141588866710663],"type":"VEC3"},{"bufferView":11,"componentType":5126,"count":565,"type":"VEC3"},{"bufferView":12,"componentType":5126,"count":565,"type":"VEC2"},{"bufferView":13,"componentType":5126,"count":565,"type":"VEC2"},{"bufferView":14,"componentType":5123,"count":2196,"type":"SCALAR"},{"bufferView":15,"componentType":5126,"count":2153,"max":[4.6627726554870605,6.00392484664917,4.668532371520996],"min":[-4.667049407958984,-0.00885913148522377,-4.673800945281982],"type":"VEC3"},{"bufferView":16,"componentType":5126,"count":2153,"type":"VEC3"},{"bufferView":17,"componentType":5126,"count":2153,"type":"VEC2"},{"bufferView":18,"componentType":5126,"count":2153,"type":"VEC2"},{"bufferView":19,"componentType":5123,"count":8904,"type":"SCALAR"},{"bufferView":20,"componentType":5126,"count":7040,"max":[6.825411319732666,7.144761085510254,6.825410842895508],"min":[-6.825410842895508,-0.04464007169008255,-6.825410842895508],"type":"VEC3"},{"bufferView":21,"componentType":5126,"count":7040,"type":"VEC3"},{"bufferView":22,"componentType":5126,"count":7040,"type":"VEC2"},{"bufferView":23,"componentType":5126,"count":7040,"type":"VEC2"},{"bufferView":24,"componentType":5123,"count":27768,"type":"SCALAR"},{"bufferView":25,"componentType":5126,"count":679,"max":[4.25615930557251,16.704866409301758,4.246913433074951],"min":[-4.24691104888916,-0.17821966111660004,-4.246908664703369],"type":"VEC3"},{"bufferView":26,"componentType":5126,"count":679,"type":"VEC3"},{"bufferView":27,"componentType":5126,"count":679,"type":"VEC2"},{"bufferView":28,"componentType":5126,"count":679,"type":"VEC2"},{"bufferView":29,"componentType":5123,"count":2970,"type":"SCALAR"},{"bufferView":30,"componentType":5126,"count":6759,"max":[4.656929969787598,6.003619194030762,4.6569294929504395],"min":[-4.6569294929504395,-0.0036184191703796387,-4.656929969787598],"type":"VEC3"},{"bufferView":31,"componentType":5126,"count":6759,"type":"VEC3"},{"bufferView":32,"componentType":5126,"count":6759,"type":"VEC2"},{"bufferView":33,"componentType":5126,"count":6759,"type":"VEC2"},{"bufferView":34,"componentType":5123,"count":21333,"type":"SCALAR"},{"bufferView":35,"componentType":5126,"count":2364,"max":[5.501428127288818,6.031858444213867,5.501429080963135],"min":[-5.501428127288818,-0.023539094254374504,-5.501428127288818],"type":"VEC3"},{"bufferView":36,"componentType":5126,"count":2364,"type":"VEC3"},{"bufferView":37,"componentType":5126,"count":2364,"type":"VEC2"},{"bufferView":38,"componentType":5126,"count":2364,"type":"VEC2"},{"bufferView":39,"componentType":5123,"count":10272,"type":"SCALAR"},{"bufferView":40,"componentType":5126,"count":207,"max":[0.6800379753112793,12.301493644714355,0.6800259947776794],"min":[-0.6800140142440796,0.1599065661430359,-0.6800259947776794],"type":"VEC3"},{"bufferView":41,"componentType":5126,"count":207,"type":"VEC3"},{"bufferView":42,"componentType":5126,"count":207,"type":"VEC2"},{"bufferView":43,"componentType":5126,"count":207,"type":"VEC2"},{"bufferView":44,"componentType":5126,"count":207,"type":"VEC3"},{"bufferView":45,"componentType":5123,"count":207,"normalized":true,"type":"VEC4"},{"bufferView":46,"componentType":5123,"count":810,"type":"SCALAR"},{"bufferView":47,"componentType":5126,"count":127,"max":[8.145870208740234,9.733687400817871,0.1570219099521637],"min":[-0.1317797750234604,8.269128799438477,-0.1473606824874878],"type":"VEC3"},{"bufferView":48,"componentType":5126,"count":127,"type":"VEC3"},{"bufferView":49,"componentType":5126,"count":127,"type":"VEC2"},{"bufferView":50,"componentType":5126,"count":127,"type":"VEC2"},{"bufferView":51,"componentType":5126,"count":127,"type":"VEC3"},{"bufferView":52,"componentType":5123,"count":127,"normalized":true,"type":"VEC4"},{"bufferView":53,"componentType":5123,"count":534,"type":"SCALAR"},{"bufferView":54,"componentType":5126,"count":1275,"max":[3.5537283420562744,9.484169960021973,3.4337213039398193],"min":[-3.0713250637054443,-1.0320329666137695,-2.8968093395233154],"type":"VEC3"},{"bufferView":55,"componentType":5126,"count":1275,"type":"VEC3"},{"bufferView":56,"componentType":5126,"count":1275,"type":"VEC2"},{"bufferView":57,"componentType":5126,"count":1275,"type":"VEC2"},{"bufferView":58,"componentType":5126,"count":1275,"type":"VEC3"},{"bufferView":59,"componentType":5123,"count":1275,"normalized":true,"type":"VEC4"},{"bufferView":60,"componentType":5123,"count":5718,"type":"SCALAR"},{"bufferView":61,"componentType":5126,"count":1920,"max":[6.43494987487793,15.562984466552734,6.57190465927124],"min":[-5.903852462768555,4.755402088165283,-5.87698221206665],"type":"VEC3"},{"bufferView":62,"componentType":5126,"count":1920,"type":"VEC3"},{"bufferView":63,"componentType":5126,"count":1920,"type":"VEC2"},{"bufferView":64,"componentType":5126,"count":1920,"type":"VEC2"},{"bufferView":65,"componentType":5126,"count":1920,"type":"VEC3"},{"bufferView":66,"componentType":5123,"count":1920,"normalized":true,"type":"VEC4"},{"bufferView":67,"componentType":5123,"count":2880,"type":"SCALAR"},{"bufferView":68,"componentType":5126,"count":1465,"max":[5.31018590927124,6.430691719055176,5.310185432434082],"min":[-5.31018590927124,-0.06849426031112671,-5.310185432434082],"type":"VEC3"},{"bufferView":69,"componentType":5126,"count":1465,"type":"VEC3"},{"bufferView":70,"componentType":5126,"count":1465,"type":"VEC2"},{"bufferView":71,"componentType":5126,"count":1465,"type":"VEC2"},{"bufferView":72,"componentType":5123,"count":6084,"type":"SCALAR"}],"bufferViews":[{"buffer":0,"byteLength":8472,"byteOffset":0,"target":34962},{"buffer":0,"byteLength":8472,"byteOffset":8472,"target":34962},{"buffer":0,"byteLength":5648,"byteOffset":16944,"target":34962},{"buffer":0,"byteLength":5648,"byteOffset":22592,"target":34962},{"buffer":0,"byteLength":6084,"byteOffset":28240,"target":34963},{"buffer":0,"byteLength":5856,"byteOffset":34324,"target":34962},{"buffer":0,"byteLength":5856,"byteOffset":40180,"target":34962},{"buffer":0,"byteLength":3904,"byteOffset":46036,"target":34962},{"buffer":0,"byteLength":3904,"byteOffset":49940,"target":34962},{"buffer":0,"byteLength":2808,"byteOffset":53844,"target":34963},{"buffer":0,"byteLength":6780,"byteOffset":56652,"target":34962},{"buffer":0,"byteLength":6780,"byteOffset":63432,"target":34962},{"buffer":0,"byteLength":4520,"byteOffset":70212,"target":34962},{"buffer":0,"byteLength":4520,"byteOffset":74732,"target":34962},{"buffer":0,"byteLength":4392,"byteOffset":79252,"target":34963},{"buffer":0,"byteLength":25836,"byteOffset":83644,"target":34962},{"buffer":0,"byteLength":25836,"byteOffset":109480,"target":34962},{"buffer":0,"byteLength":17224,"byteOffset":135316,"target":34962},{"buffer":0,"byteLength":17224,"byteOffset":152540,"target":34962},{"buffer":0,"byteLength":17808,"byteOffset":169764,"target":34963},{"buffer":0,"byteLength":84480,"byteOffset":187572,"target":34962},{"buffer":0,"byteLength":84480,"byteOffset":272052,"target":34962},{"buffer":0,"byteLength":56320,"byteOffset":356532,"target":34962},{"buffer":0,"byteLength":56320,"byteOffset":412852,"target":34962},{"buffer":0,"byteLength":55536,"byteOffset":469172,"target":34963},{"buffer":0,"byteLength":8148,"byteOffset":524708,"target":34962},{"buffer":0,"byteLength":8148,"byteOffset":532856,"target":34962},{"buffer":0,"byteLength":5432,"byteOffset":541004,"target":34962},{"buffer":0,"byteLength":5432,"byteOffset":546436,"target":34962},{"buffer":0,"byteLength":5940,"byteOffset":551868,"target":34963},{"buffer":0,"byteLength":81108,"byteOffset":557808,"target":34962},{"buffer":0,"byteLength":81108,"byteOffset":638916,"target":34962},{"buffer":0,"byteLength":54072,"byteOffset":720024,"target":34962},{"buffer":0,"byteLength":54072,"byteOffset":774096,"target":34962},{"buffer":0,"byteLength":42666,"byteOffset":828168,"target":34963},{"buffer":0,"byteLength":28368,"byteOffset":870836,"target":34962},{"buffer":0,"byteLength":28368,"byteOffset":899204,"target":34962},{"buffer":0,"byteLength":18912,"byteOffset":927572,"target":34962},{"buffer":0,"byteLength":18912,"byteOffset":946484,"target":34962},{"buffer":0,"byteLength":20544,"byteOffset":965396,"target":34963},{"buffer":0,"byteLength":2484,"byteOffset":985940,"target":34962},{"buffer":0,"byteLength":2484,"byteOffset":988424,"target":34962},{"buffer":0,"byteLength":1656,"byteOffset":990908,"target":34962},{"buffer":0,"byteLength":1656,"byteOffset":992564,"target":34962},{"buffer":0,"byteLength":2484,"byteOffset":994220,"target":34962},{"buffer":0,"byteLength":1656,"byteOffset":996704,"target":34962},{"buffer":0,"byteLength":1620,"byteOffset":998360,"target":34963},{"buffer":0,"byteLength":1524,"byteOffset":999980,"target":34962},{"buffer":0,"byteLength":1524,"byteOffset":1001504,"target":34962},{"buffer":0,"byteLength":1016,"byteOffset":1003028,"target":34962},{"buffer":0,"byteLength":1016,"byteOffset":1004044,"target":34962},{"buffer":0,"byteLength":1524,"byteOffset":1005060,"target":34962},{"buffer":0,"byteLength":1016,"byteOffset":1006584,"target":34962},{"buffer":0,"byteLength":1068,"byteOffset":1007600,"target":34963},{"buffer":0,"byteLength":15300,"byteOffset":1008668,"target":34962},{"buffer":0,"byteLength":15300,"byteOffset":1023968,"target":34962},{"buffer":0,"byteLength":10200,"byteOffset":1039268,"target":34962},{"buffer":0,"byteLength":10200,"byteOffset":1049468,"target":34962},{"buffer":0,"byteLength":15300,"byteOffset":1059668,"target":34962},{"buffer":0,"byteLength":10200,"byteOffset":1074968,"target":34962},{"buffer":0,"byteLength":11436,"byteOffset":1085168,"target":34963},{"buffer":0,"byteLength":23040,"byteOffset":1096604,"target":34962},{"buffer":0,"byteLength":23040,"byteOffset":1119644,"target":34962},{"buffer":0,"byteLength":15360,"byteOffset":1142684,"target":34962},{"buffer":0,"byteLength":15360,"byteOffset":1158044,"target":34962},{"buffer":0,"byteLength":23040,"byteOffset":1173404,"target":34962},{"buffer":0,"byteLength":15360,"byteOffset":1196444,"target":34962},{"buffer":0,"byteLength":5760,"byteOffset":1211804,"target":34963},{"buffer":0,"byteLength":17580,"byteOffset":1217564,"target":34962},{"buffer":0,"byteLength":17580,"byteOffset":1235144,"target":34962},{"buffer":0,"byteLength":11720,"byteOffset":1252724,"target":34962},{"buffer":0,"byteLength":11720,"byteOffset":1264444,"target":34962},{"buffer":0,"byteLength":12168,"byteOffset":1276164,"target":34963}],"samplers":[{"magFilter":9729,"minFilter":9987}],"buffers":[{"byteLength":1288332,"uri":"cell_x0_z2_render.bin"}]}