{"asset":{"generator":"Khronos glTF Blender I/O v5.0.21","version":"2.0"},"extensionsUsed":["KHR_materials_specular","KHR_materials_ior","KHR_texture_transform"],"extensionsRequired":["KHR_texture_transform"],"scene":0,"scenes":[{"name":"Scene","nodes":[0,1,2,3,4]}],"nodes":[{"mesh":0,"name":"SM_ENV_tree_castle_01_LOD0.004","rotation":[0,0.46986448764801025,0,0.8827385902404785],"scale":[1.18559992313385,1.1856000423431396,1.18559992313385],"translation":[-97.22470092773438,34.29789733886719,0.7725601196289062]},{"mesh":1,"name":"SM_MOD_column_03_castle_LOD0.035","rotation":[0,0.0001396263687638566,0,1],"translation":[-96.04148864746094,57.32861328125,31.37214469909668]},{"mesh":2,"name":"SM_MOD_wall_deco_pillar_castle_LOD0.177","rotation":[0,-0.7070903182029724,0,0.707123339176178],"translation":[-96.04148864746094,51.32861328125,31.37214469909668]},{"mesh":3,"name":"SM_ENV_cliff_castle_02_LOD0.030","rotation":[0.11390986293554306,-0.6791596412658691,0.009675410576164722,0.7250332236289978],"scale":[8.609768867492676,8.60976791381836,8.609771728515625],"translation":[-106.54148864746094,-22.371383666992188,23.972150802612305]},{"mesh":2,"name":"SM_MOD_wall_deco_pillar_castle_LOD0.294","rotation":[0,-0.7070903182029724,0,0.707123339176178],"translation":[-96.04148864746094,45.32861328125,31.37214469909668]}],"materials":[{"doubleSided":true,"extensions":{"KHR_materials_specular":{"specularFactor":0},"KHR_materials_ior":{"ior":1.4500000476837158}},"name":"M_ENV_tree_wood_castle","normalTexture":{"index":0,"scale":2},"pbrMetallicRoughness":{"baseColorFactor":[1,1,1,1],"baseColorTexture":{"index":1},"metallicRoughnessTexture":{"index":2}}},{"alphaMode":"MASK","doubleSided":true,"extensions":{"KHR_materials_specular":{"specularFactor":0},"KHR_materials_ior":{"ior":1.4500000476837158}},"name":"M_ENV_tree_leaves_castle_01","pbrMetallicRoughness":{"baseColorFactor":[0.08437485992908478,0.39157116413116455,0.028426364064216614,1],"baseColorTexture":{"index":3},"metallicFactor":0,"roughnessFactor":0}},{"doubleSided":true,"name":"M_TRIM_castle","normalTexture":{"index":4,"scale":4},"pbrMetallicRoughness":{"baseColorTexture":{"index":5},"metallicRoughnessTexture":{"index":6}}},{"doubleSided":true,"name":"M_CliffGrassVC","normalTexture":{"extensions":{"KHR_texture_transform":{"offset":[0,-6],"scale":[7,7]}},"index":7,"scale":0.6000000238418579},"pbrMetallicRoughness":{"metallicFactor":0,"roughnessFactor":0.9200000166893005}}],"meshes":[{"name":"Cylinder.294","primitives":[{"attributes":{"POSITION":0,"NORMAL":1,"TEXCOORD_0":2,"TEXCOORD_1":3,"COLOR_0":4,"COLOR_1":5},"indices":6,"material":0},{"attributes":{"POSITION":7,"NORMAL":8,"TEXCOORD_0":9,"TEXCOORD_1":10,"COLOR_0":11,"COLOR_1":12},"indices":13,"material":1}]},{"name":"Cube.3212","primitives":[{"attributes":{"POSITION":14,"NORMAL":15,"TEXCOORD_0":16,"TEXCOORD_1":17},"indices":18,"material":2}]},{"name":"Cube.440","primitives":[{"attributes":{"POSITION":19,"NORMAL":20,"TEXCOORD_0":21,"TEXCOORD_1":22},"indices":23,"material":2}]},{"name":"SM_ENV_cliff_castle_02_instantmeshesexp_02.004","primitives":[{"attributes":{"POSITION":24,"NORMAL":25,"TEXCOORD_0":26,"TEXCOORD_1":27,"COLOR_0":28},"indices":29,"material":3}]}],"textures":[{"sampler":0,"source":0},{"sampler":0,"source":1},{"sampler":0,"source":2},{"sampler":0,"source":3},{"sampler":0,"source":4},{"sampler":0,"source":5},{"sampler":0,"source":6},{"sampler":0,"source":7}],"images":[{"mimeType":"image/png","name":"T_ENV_wood_castle_01_N","uri":"textures/T_ENV_wood_castle_01_N.png"},{"mimeType":"image/png","name":"T_ENV_wood_castle_01_BC","uri":"textures/T_ENV_wood_castle_01_BC.png"},{"mimeType":"image/png","name":"T_ENV_wood_castle_01_PBR","uri":"textures/T_ENV_wood_castle_01_PBR.png"},{"mimeType":"image/png","name":"T_ENV_tree_leaves_castle_01","uri":"textures/T_ENV_tree_leaves_castle_01.png"},{"mimeType":"image/png","name":"T_TRIM_castle_01_N","uri":"textures/T_TRIM_castle_01_N.png"},{"mimeType":"image/png","name":"T_TRIM_castle_01_BC","uri":"textures/T_TRIM_castle_01_BC.png"},{"mimeType":"image/png","name":"T_TRIM_castle_01_PBR","uri":"textures/T_TRIM_castle_01_PBR.png"},{"mimeType":"image/png","name":"T_ENV_cliff_castle_01_N","uri":"textures/T_ENV_cliff_castle_01_N.png"}],"accessors":[{"bufferView":0,"componentType":5126,"count":1275,"max":[3.5537283420562744,9.484169960021973,3.4337213039398193],"min":[-3.0713250637054443,-1.0320329666137695,-2.8968093395233154],"type":"VEC3"},{"bufferView":1,"componentType":5126,"count":1275,"type":"VEC3"},{"bufferView":2,"componentType":5126,"count":1275,"type":"VEC2"},{"bufferView":3,"componentType":5126,"count":1275,"type":"VEC2"},{"bufferView":4,"componentType":5126,"count":1275,"type":"VEC3"},{"bufferView":5,"componentType":5123,"count":1275,"normalized":true,"type":"VEC4"},{"bufferView":6,"componentType":5123,"count":5718,"type":"SCALAR"},{"bufferView":7,"componentType":5126,"count":1920,"max":[6.43494987487793,15.562984466552734,6.57190465927124],"min":[-5.903852462768555,4.755402088165283,-5.87698221206665],"type":"VEC3"},{"bufferView":8,"componentType":5126,"count":1920,"type":"VEC3"},{"bufferView":9,"componentType":5126,"count":1920,"type":"VEC2"},{"bufferView":10,"componentType":5126,"count":1920,"type":"VEC2"},{"bufferView":11,"componentType":5126,"count":1920,"type":"VEC3"},{"bufferView":12,"componentType":5123,"count":1920,"normalized":true,"type":"VEC4"},{"bufferView":13,"componentType":5123,"count":2880,"type":"SCALAR"},{"bufferView":14,"componentType":5126,"count":476,"max":[0.3303849399089813,1.2649469375610352,0.43098196387290955],"min":[-0.32570409774780273,-0.11951245367527008,-0.43197008967399597],"type":"VEC3"},{"bufferView":15,"componentType":5126,"count":476,"type":"VEC3"},{"bufferView":16,"componentType":5126,"count":476,"type":"VEC2"},{"bufferView":17,"componentType":5126,"count":476,"type":"VEC2"},{"bufferView":18,"componentType":5123,"count":1596,"type":"SCALAR"},{"bufferView":19,"componentType":5126,"count":241,"max":[0.4694620966911316,6.01121187210083,0.6385924816131592],"min":[-0.490100622177124,-0.00664210319519043,-0.002280712127685547],"type":"VEC3"},{"bufferView":20,"componentType":5126,"count":241,"type":"VEC3"},{"bufferView":21,"componentType":5126,"count":241,"type":"VEC2"},{"bufferView":22,"componentType":5126,"count":241,"type":"VEC2"},{"bufferView":23,"componentType":5123,"count":972,"type":"SCALAR"},{"bufferView":24,"componentType":5126,"count":4265,"max":[5.037600517272949,6.843289375305176,3.3966786861419678],"min":[-5.224124431610107,-6.786053657531738,-3.7081243991851807],"type":"VEC3"},{"bufferView":25,"componentType":5126,"count":4265,"type":"VEC3"},{"bufferView":26,"componentType":5126,"count":4265,"type":"VEC2"},{"bufferView":27,"componentType":5126,"count":4265,"type":"VEC2"},{"bufferView":28,"componentType":5126,"count":4265,"type":"VEC3"},{"bufferView":29,"componentType":5123,"count":22374,"type":"SCALAR"}],"bufferViews":[{"buffer":0,"byteLength":15300,"byteOffset":0,"target":34962},{"buffer":0,"byteLength":15300,"byteOffset":15300,"target":34962},{"buffer":0,"byteLength":10200,"byteOffset":30600,"target":34962},{"buffer":0,"byteLength":10200,"byteOffset":40800,"target":34962},{"buffer":0,"byteLength":15300,"byteOffset":51000,"target":34962},{"buffer":0,"byteLength":10200,"byteOffset":66300,"target":34962},{"buffer":0,"byteLength":11436,"byteOffset":76500,"target":34963},{"buffer":0,"byteLength":23040,"byteOffset":87936,"target":34962},{"buffer":0,"byteLength":23040,"byteOffset":110976,"target":34962},{"buffer":0,"byteLength":15360,"byteOffset":134016,"target":34962},{"buffer":0,"byteLength":15360,"byteOffset":149376,"target":34962},{"buffer":0,"byteLength":23040,"byteOffset":164736,"target":34962},{"buffer":0,"byteLength":15360,"byteOffset":187776,"target":34962},{"buffer":0,"byteLength":5760,"byteOffset":203136,"target":34963},{"buffer":0,"byteLength":5712,"byteOffset":208896,"target":34962},{"buffer":0,"byteLength":5712,"byteOffset":214608,"target":34962},{"buffer":0,"byteLength":3808,"byteOffset":220320,"target":34962},{"buffer":0,"byteLength":3808,"byteOffset":224128,"target":34962},{"buffer":0,"byteLength":3192,"byteOffset":227936,"target":34963},{"buffer":0,"byteLength":2892,"byteOffset":231128,"target":34962},{"buffer":0,"byteLength":2892,"byteOffset":234020,"target":34962},{"buffer":0,"byteLength":1928,"byteOffset":236912,"target":34962},{"buffer":0,"byteLength":1928,"byteOffset":238840,"target":34962},{"buffer":0,"byteLength":1944,"byteOffset":240768,"target":34963},{"buffer":0,"byteLength":51180,"byteOffset":242712,"target":34962},{"buffer":0,"byteLength":51180,"byteOffset":293892,"target":34962},{"buffer":0,"byteLength":34120,"byteOffset":345072,"target":34962},{"buffer":0,"byteLength":34120,"byteOffset":379192,"target":34962},{"buffer":0,"byteLength":51180,"byteOffset":413312,"target":34962},{"buffer":0,"byteLength":44748,"byteOffset":464492,"target":34963}],"samplers":[{"magFilter":9729,"minFilter":9987}],"buffers":[{"byteLength":509240,"uri":"cell_x-4_z0_render.bin"}]}