{
	"asset":{
		"generator":"Khronos glTF Blender I/O v5.0.21",
		"version":"2.0"
	},
	"extensionsUsed":[
		"KHR_texture_transform"
	],
	"extensionsRequired":[
		"KHR_texture_transform"
	],
	"scene":0,
	"scenes":[
		{
			"name":"Scene",
			"nodes":[
				0,
				1
			]
		}
	],
	"nodes":[
		{
			"mesh":0,
			"name":"SM_ENV_cliff_castle_02_LOD0.010",
			"rotation":[
				-0.4611479938030243,
				0.5499195456504822,
				-0.6222531795501709,
				0.3126213252544403
			],
			"scale":[
				4.327482223510742,
				4.3274827003479,
				4.327481746673584
			],
			"translation":[
				105.45851135253906,
				18.728607177734375,
				15.032146453857422
			]
		},
		{
			"mesh":1,
			"name":"SM_ENV_cliff_castle_01_LOD0.021",
			"rotation":[
				0.2950727641582489,
				-0.16711929440498352,
				0.06805727630853653,
				0.9382810592651367
			],
			"scale":[
				5.211704254150391,
				5.211703777313232,
				5.211704254150391
			],
			"translation":[
				104.02851867675781,
				13.818618774414062,
				27.47214698791504
			]
		}
	],
	"materials":[
		{
			"doubleSided":true,
			"name":"M_CliffGrassVC",
			"normalTexture":{
				"extensions":{
					"KHR_texture_transform":{
						"offset":[
							0,
							-6
						],
						"scale":[
							7,
							7
						]
					}
				},
				"index":0,
				"scale":0.6000000238418579
			},
			"pbrMetallicRoughness":{
				"metallicFactor":0,
				"roughnessFactor":0.9200000166893005
			}
		}
	],
	"meshes":[
		{
			"name":"SM_ENV_cliff_castle_02_instantmeshesexp_02.004",
			"primitives":[
				{
					"attributes":{
						"POSITION":0,
						"NORMAL":1,
						"TEXCOORD_0":2,
						"TEXCOORD_1":3,
						"COLOR_0":4
					},
					"indices":5,
					"material":0
				}
			]
		},
		{
			"name":"SM_ENV_cliff_castle_01_instantmeshesexp_02",
			"primitives":[
				{
					"attributes":{
						"POSITION":6,
						"NORMAL":7,
						"TEXCOORD_0":8,
						"TEXCOORD_1":9,
						"COLOR_0":10
					},
					"indices":11,
					"material":0
				}
			]
		}
	],
	"textures":[
		{
			"sampler":0,
			"source":0
		}
	],
	"images":[
		{
			"mimeType":"image/png",
			"name":"T_ENV_cliff_castle_01_N",
			"uri":"textures/T_ENV_cliff_castle_01_N.png"
		}
	],
	"accessors":[
		{
			"bufferView":0,
			"componentType":5126,
			"count":4265,
			"max":[
				5.037600517272949,
				6.843289375305176,
				3.3966786861419678
			],
			"min":[
				-5.224124431610107,
				-6.786053657531738,
				-3.7081243991851807
			],
			"type":"VEC3"
		},
		{
			"bufferView":1,
			"componentType":5126,
			"count":4265,
			"type":"VEC3"
		},
		{
			"bufferView":2,
			"componentType":5126,
			"count":4265,
			"type":"VEC2"
		},
		{
			"bufferView":3,
			"componentType":5126,
			"count":4265,
			"type":"VEC2"
		},
		{
			"bufferView":4,
			"componentType":5126,
			"count":4265,
			"type":"VEC3"
		},
		{
			"bufferView":5,
			"componentType":5123,
			"count":22374,
			"type":"SCALAR"
		},
		{
			"bufferView":6,
			"componentType":5126,
			"count":4613,
			"max":[
				4.855959892272949,
				5.9515485763549805,
				3.302274227142334
			],
			"min":[
				-4.882627487182617,
				-5.545106887817383,
				-3.2813682556152344
			],
			"type":"VEC3"
		},
		{
			"bufferView":7,
			"componentType":5126,
			"count":4613,
			"type":"VEC3"
		},
		{
			"bufferView":8,
			"componentType":5126,
			"count":4613,
			"type":"VEC2"
		},
		{
			"bufferView":9,
			"componentType":5126,
			"count":4613,
			"type":"VEC2"
		},
		{
			"bufferView":10,
			"componentType":5126,
			"count":4613,
			"type":"VEC3"
		},
		{
			"bufferView":11,
			"componentType":5123,
			"count":23661,
			"type":"SCALAR"
		}
	],
	"bufferViews":[
		{
			"buffer":0,
			"byteLength":51180,
			"byteOffset":0,
			"target":34962
		},
		{
			"buffer":0,
			"byteLength":51180,
			"byteOffset":51180,
			"target":34962
		},
		{
			"buffer":0,
			"byteLength":34120,
			"byteOffset":102360,
			"target":34962
		},
		{
			"buffer":0,
			"byteLength":34120,
			"byteOffset":136480,
			"target":34962
		},
		{
			"buffer":0,
			"byteLength":51180,
			"byteOffset":170600,
			"target":34962
		},
		{
			"buffer":0,
			"byteLength":44748,
			"byteOffset":221780,
			"target":34963
		},
		{
			"buffer":0,
			"byteLength":55356,
			"byteOffset":266528,
			"target":34962
		},
		{
			"buffer":0,
			"byteLength":55356,
			"byteOffset":321884,
			"target":34962
		},
		{
			"buffer":0,
			"byteLength":36904,
			"byteOffset":377240,
			"target":34962
		},
		{
			"buffer":0,
			"byteLength":36904,
			"byteOffset":414144,
			"target":34962
		},
		{
			"buffer":0,
			"byteLength":55356,
			"byteOffset":451048,
			"target":34962
		},
		{
			"buffer":0,
			"byteLength":47322,
			"byteOffset":506404,
			"target":34963
		}
	],
	"samplers":[
		{
			"magFilter":9729,
			"minFilter":9987
		}
	],
	"buffers":[
		{
			"byteLength":553728,
			"uri":"cell_x3_z0_render.bin"
		}
	]
}
