{"asset":{"generator":"Khronos glTF Blender I/O v5.0.21","version":"2.0"},"extensionsUsed":["KHR_materials_specular","KHR_materials_ior","KHR_texture_transform"],"extensionsRequired":["KHR_texture_transform"],"scene":0,"scenes":[{"name":"Scene","nodes":[0,1,2,3,4,5,6,7,8]}],"nodes":[{"mesh":0,"name":"SM_MOD_railing_02_straight_castle_LOD0.025","rotation":[0.052990078926086426,0.6762899160385132,0.05835578218102455,0.7324060201644897],"translation":[64.22451782226562,9.665603637695312,-87.09284973144531]},{"mesh":1,"name":"SM_ENV_tree_castle_01_LOD0.005","rotation":[0,0.4831015467643738,0,0.875564455986023],"scale":[1.3174997568130493,1.317500352859497,1.3174997568130493],"translation":[74.38851928710938,10.388595581054688,-79.76785278320312]},{"mesh":2,"name":"SM_MOD_column_02_castle_LOD0.027","rotation":[-0.00020188200869597495,-0.07182350009679794,-0.0037999681662768126,0.9974101185798645],"translation":[64.07051086425781,9.359603881835938,-84.91485595703125]},{"mesh":3,"name":"SM_ENV_cliff_castle_01_LOD0.016","rotation":[0.0629202350974083,0.058002542704343796,-0.6753033399581909,0.7325586080551147],"scale":[0.7790300250053406,0.779029905796051,0.7790299654006958],"translation":[67.93852233886719,10.818603515625,-93.81785583496094]},{"mesh":4,"name":"SM_ENV_cliff_castle_02_LOD0.023","rotation":[-0.6570727229118347,-0.21378149092197418,-0.21180328726768494,0.6911529898643494],"scale":[1.0795001983642578,1.0794999599456787,1.0794999599456787],"translation":[68.98851013183594,6.14862060546875,-65.55785369873047]},{"mesh":1,"name":"SM_ENV_tree_castle_01_LOD0.036","rotation":[0,0.7297047972679138,0,0.6837624311447144],"scale":[0.8585799336433411,0.8585799932479858,0.8585799336433411],"translation":[73.8485107421875,9.788604736328125,-73.0278549194336]},{"mesh":1,"name":"SM_ENV_tree_castle_01_LOD0.042","rotation":[0,0.9994328618049622,0,0.03367461636662483],"translation":[71.54850769042969,13.988601684570312,-94.00785827636719]},{"mesh":4,"name":"SM_ENV_cliff_castle_02_LOD0.044","rotation":[0.1919255256652832,-0.44331181049346924,-0.619479775428772,0.618776261806488],"scale":[1.0794999599456787,1.0795000791549683,1.0795000791549683],"translation":[64.92851257324219,3.8885955810546875,-74.35785675048828]},{"mesh":2,"name":"SM_MOD_column_02_castle_LOD0.181","rotation":[1.8297680071555078e-05,-0.013999497517943382,-0.0038052801974117756,0.9998948574066162],"translation":[64.322509765625,10.049591064453125,-89.03385162353516]}],"materials":[{"doubleSided":true,"name":"M_TRIM_castle","normalTexture":{"index":0,"scale":4},"pbrMetallicRoughness":{"baseColorTexture":{"index":1},"metallicRoughnessTexture":{"index":2}}},{"doubleSided":true,"extensions":{"KHR_materials_specular":{"specularFactor":0},"KHR_materials_ior":{"ior":1.4500000476837158}},"name":"M_ENV_tree_wood_castle","normalTexture":{"index":3,"scale":2},"pbrMetallicRoughness":{"baseColorFactor":[1,1,1,1],"baseColorTexture":{"index":4},"metallicRoughnessTexture":{"index":5}}},{"alphaMode":"MASK","doubleSided":true,"extensions":{"KHR_materials_specular":{"specularFactor":0},"KHR_materials_ior":{"ior":1.4500000476837158}},"name":"M_ENV_tree_leaves_castle_01","pbrMetallicRoughness":{"baseColorFactor":[0.08437485992908478,0.39157116413116455,0.028426364064216614,1],"baseColorTexture":{"index":6},"metallicFactor":0,"roughnessFactor":0}},{"doubleSided":true,"name":"M_CliffGrassVC","normalTexture":{"extensions":{"KHR_texture_transform":{"offset":[0,-6],"scale":[7,7]}},"index":7,"scale":0.6000000238418579},"pbrMetallicRoughness":{"metallicFactor":0,"roughnessFactor":0.9200000166893005}}],"meshes":[{"name":"Cube.1020","primitives":[{"attributes":{"POSITION":0,"NORMAL":1,"TEXCOORD_0":2,"TEXCOORD_1":3},"indices":4,"material":0}]},{"name":"Cylinder.294","primitives":[{"attributes":{"POSITION":5,"NORMAL":6,"TEXCOORD_0":7,"TEXCOORD_1":8,"COLOR_0":9,"COLOR_1":10},"indices":11,"material":1},{"attributes":{"POSITION":12,"NORMAL":13,"TEXCOORD_0":14,"TEXCOORD_1":15,"COLOR_0":16,"COLOR_1":17},"indices":18,"material":2}]},{"name":"Cube.3213","primitives":[{"attributes":{"POSITION":19,"NORMAL":20,"TEXCOORD_0":21,"TEXCOORD_1":22},"indices":23,"material":0}]},{"name":"SM_ENV_cliff_castle_01_instantmeshesexp_02","primitives":[{"attributes":{"POSITION":24,"NORMAL":25,"TEXCOORD_0":26,"TEXCOORD_1":27,"COLOR_0":28},"indices":29,"material":3}]},{"name":"SM_ENV_cliff_castle_02_instantmeshesexp_02.004","primitives":[{"attributes":{"POSITION":30,"NORMAL":31,"TEXCOORD_0":32,"TEXCOORD_1":33,"COLOR_0":34},"indices":35,"material":3}]}],"textures":[{"sampler":0,"source":0},{"sampler":0,"source":1},{"sampler":0,"source":2},{"sampler":0,"source":3},{"sampler":0,"source":4},{"sampler":0,"source":5},{"sampler":0,"source":6},{"sampler":0,"source":7}],"images":[{"mimeType":"image/png","name":"T_TRIM_castle_01_N","uri":"textures/T_TRIM_castle_01_N.png"},{"mimeType":"image/png","name":"T_TRIM_castle_01_BC","uri":"textures/T_TRIM_castle_01_BC.png"},{"mimeType":"image/png","name":"T_TRIM_castle_01_PBR","uri":"textures/T_TRIM_castle_01_PBR.png"},{"mimeType":"image/png","name":"T_ENV_wood_castle_01_N","uri":"textures/T_ENV_wood_castle_01_N.png"},{"mimeType":"image/png","name":"T_ENV_wood_castle_01_BC","uri":"textures/T_ENV_wood_castle_01_BC.png"},{"mimeType":"image/png","name":"T_ENV_wood_castle_01_PBR","uri":"textures/T_ENV_wood_castle_01_PBR.png"},{"mimeType":"image/png","name":"T_ENV_tree_leaves_castle_01","uri":"textures/T_ENV_tree_leaves_castle_01.png"},{"mimeType":"image/png","name":"T_ENV_cliff_castle_01_N","uri":"textures/T_ENV_cliff_castle_01_N.png"}],"accessors":[{"bufferView":0,"componentType":5126,"count":512,"max":[1.9999985694885254,1.0031301975250244,0.2541757822036743],"min":[-1.9999985694885254,-0.12952381372451782,-0.25105398893356323],"type":"VEC3"},{"bufferView":1,"componentType":5126,"count":512,"type":"VEC3"},{"bufferView":2,"componentType":5126,"count":512,"type":"VEC2"},{"bufferView":3,"componentType":5126,"count":512,"type":"VEC2"},{"bufferView":4,"componentType":5123,"count":1188,"type":"SCALAR"},{"bufferView":5,"componentType":5126,"count":1275,"max":[3.5537283420562744,9.484169960021973,3.4337213039398193],"min":[-3.0713250637054443,-1.0320329666137695,-2.8968093395233154],"type":"VEC3"},{"bufferView":6,"componentType":5126,"count":1275,"type":"VEC3"},{"bufferView":7,"componentType":5126,"count":1275,"type":"VEC2"},{"bufferView":8,"componentType":5126,"count":1275,"type":"VEC2"},{"bufferView":9,"componentType":5126,"count":1275,"type":"VEC3"},{"bufferView":10,"componentType":5123,"count":1275,"normalized":true,"type":"VEC4"},{"bufferView":11,"componentType":5123,"count":5718,"type":"SCALAR"},{"bufferView":12,"componentType":5126,"count":1920,"max":[6.43494987487793,15.562984466552734,6.57190465927124],"min":[-5.903852462768555,4.755402088165283,-5.87698221206665],"type":"VEC3"},{"bufferView":13,"componentType":5126,"count":1920,"type":"VEC3"},{"bufferView":14,"componentType":5126,"count":1920,"type":"VEC2"},{"bufferView":15,"componentType":5126,"count":1920,"type":"VEC2"},{"bufferView":16,"componentType":5126,"count":1920,"type":"VEC3"},{"bufferView":17,"componentType":5123,"count":1920,"normalized":true,"type":"VEC4"},{"bufferView":18,"componentType":5123,"count":2880,"type":"SCALAR"},{"bufferView":19,"componentType":5126,"count":509,"max":[0.39473864436149597,1.2359495162963867,0.39473864436149597],"min":[-0.39473864436149597,-0.12311287224292755,-0.39473864436149597],"type":"VEC3"},{"bufferView":20,"componentType":5126,"count":509,"type":"VEC3"},{"bufferView":21,"componentType":5126,"count":509,"type":"VEC2"},{"bufferView":22,"componentType":5126,"count":509,"type":"VEC2"},{"bufferView":23,"componentType":5123,"count":2112,"type":"SCALAR"},{"bufferView":24,"componentType":5126,"count":4613,"max":[4.855959892272949,5.9515485763549805,3.302274227142334],"min":[-4.882627487182617,-5.545106887817383,-3.2813682556152344],"type":"VEC3"},{"bufferView":25,"componentType":5126,"count":4613,"type":"VEC3"},{"bufferView":26,"componentType":5126,"count":4613,"type":"VEC2"},{"bufferView":27,"componentType":5126,"count":4613,"type":"VEC2"},{"bufferView":28,"componentType":5126,"count":4613,"type":"VEC3"},{"bufferView":29,"componentType":5123,"count":23661,"type":"SCALAR"},{"bufferView":30,"componentType":5126,"count":4265,"max":[5.037600517272949,6.843289375305176,3.3966786861419678],"min":[-5.224124431610107,-6.786053657531738,-3.7081243991851807],"type":"VEC3"},{"bufferView":31,"componentType":5126,"count":4265,"type":"VEC3"},{"bufferView":32,"componentType":5126,"count":4265,"type":"VEC2"},{"bufferView":33,"componentType":5126,"count":4265,"type":"VEC2"},{"bufferView":34,"componentType":5126,"count":4265,"type":"VEC3"},{"bufferView":35,"componentType":5123,"count":22374,"type":"SCALAR"}],"bufferViews":[{"buffer":0,"byteLength":6144,"byteOffset":0,"target":34962},{"buffer":0,"byteLength":6144,"byteOffset":6144,"target":34962},{"buffer":0,"byteLength":4096,"byteOffset":12288,"target":34962},{"buffer":0,"byteLength":4096,"byteOffset":16384,"target":34962},{"buffer":0,"byteLength":2376,"byteOffset":20480,"target":34963},{"buffer":0,"byteLength":15300,"byteOffset":22856,"target":34962},{"buffer":0,"byteLength":15300,"byteOffset":38156,"target":34962},{"buffer":0,"byteLength":10200,"byteOffset":53456,"target":34962},{"buffer":0,"byteLength":10200,"byteOffset":63656,"target":34962},{"buffer":0,"byteLength":15300,"byteOffset":73856,"target":34962},{"buffer":0,"byteLength":10200,"byteOffset":89156,"target":34962},{"buffer":0,"byteLength":11436,"byteOffset":99356,"target":34963},{"buffer":0,"byteLength":23040,"byteOffset":110792,"target":34962},{"buffer":0,"byteLength":23040,"byteOffset":133832,"target":34962},{"buffer":0,"byteLength":15360,"byteOffset":156872,"target":34962},{"buffer":0,"byteLength":15360,"byteOffset":172232,"target":34962},{"buffer":0,"byteLength":23040,"byteOffset":187592,"target":34962},{"buffer":0,"byteLength":15360,"byteOffset":210632,"target":34962},{"buffer":0,"byteLength":5760,"byteOffset":225992,"target":34963},{"buffer":0,"byteLength":6108,"byteOffset":231752,"target":34962},{"buffer":0,"byteLength":6108,"byteOffset":237860,"target":34962},{"buffer":0,"byteLength":4072,"byteOffset":243968,"target":34962},{"buffer":0,"byteLength":4072,"byteOffset":248040,"target":34962},{"buffer":0,"byteLength":4224,"byteOffset":252112,"target":34963},{"buffer":0,"byteLength":55356,"byteOffset":256336,"target":34962},{"buffer":0,"byteLength":55356,"byteOffset":311692,"target":34962},{"buffer":0,"byteLength":36904,"byteOffset":367048,"target":34962},{"buffer":0,"byteLength":36904,"byteOffset":403952,"target":34962},{"buffer":0,"byteLength":55356,"byteOffset":440856,"target":34962},{"buffer":0,"byteLength":47322,"byteOffset":496212,"target":34963},{"buffer":0,"byteLength":51180,"byteOffset":543536,"target":34962},{"buffer":0,"byteLength":51180,"byteOffset":594716,"target":34962},{"buffer":0,"byteLength":34120,"byteOffset":645896,"target":34962},{"buffer":0,"byteLength":34120,"byteOffset":680016,"target":34962},{"buffer":0,"byteLength":51180,"byteOffset":714136,"target":34962},{"buffer":0,"byteLength":44748,"byteOffset":765316,"target":34963}],"samplers":[{"magFilter":9729,"minFilter":9987}],"buffers":[{"byteLength":810064,"uri":"cell_x2_z-3_render.bin"}]}