{"asset":{"generator":"Khronos glTF Blender I/O v5.0.21","version":"2.0"},"extensionsUsed":["KHR_materials_clearcoat","KHR_materials_specular","KHR_materials_ior","KHR_texture_transform"],"extensionsRequired":["KHR_texture_transform"],"scene":0,"scenes":[{"name":"Scene","nodes":[0,1,2,3,4,5,6,7,8,9,10,11,12,13,14,15,16,17,18,19,20,21,22,23,24,25,26,27,28,29,30,31,32,33,34,35,36,37,38,39,40,41,42,43,44,45,46,47,48,49,50,51,52,53,54,55,56,57,58,59,60,61,62,63,64,65,66,67,68,69,70]}],"nodes":[{"mesh":0,"name":"SM_MOD_deco_trim_straight_castle_LOD0.003","rotation":[0,0.7071049213409424,0,0.7071086168289185],"translation":[-34.04148483276367,40.048614501953125,67.06015014648438]},{"mesh":1,"name":"SM_MOD_deco_flying_buttress_castle_LOD0.001","rotation":[0,-1,0,1.7480053429608233e-05],"scale":[2.1059999465942383,2.1059999465942383,2.1059999465942383],"translation":[-44.04148483276367,38.31861877441406,67.31214904785156]},{"mesh":2,"name":"SM_MOD_railing_02_straight_castle_LOD0.003","translation":[-34.04148483276367,42.32861328125,67.37214660644531]},{"mesh":3,"name":"SM_MOD_wall_deco_pillar_castle_LOD0.011","rotation":[0,0.8660221099853516,0,0.5000057220458984],"translation":[-39.79948425292969,33.32861328125,67.37214660644531]},{"mesh":4,"name":"SM_MOD_floor_castle_LOD0.043","translation":[-38.04148483276367,33.32861328125,65.37214660644531]},{"mesh":5,"name":"SM_MOD_roof_sloped_ext_bottom_diagonal_corner_castle_LOD0.002","rotation":[0,-0.38270682096481323,0,0.9238699674606323],"translation":[-36.04148483276367,39.32861328125,71.37208557128906]},{"mesh":6,"name":"SM_MOD_ceiling_plaster_curved_castle_LOD0.001","rotation":[0,-1,0,1.7480053429608233e-05],"translation":[-34.04148483276367,39.32861328125,67.37214660644531]},{"mesh":4,"name":"SM_MOD_floor_castle_LOD0.066","translation":[-42.04148483276367,39.32861328125,65.37214660644531]},{"mesh":7,"name":"SM_PROP_vase_castle_03_LOD0.002","translation":[-33.821773529052734,34.301116943359375,70.30625915527344]},{"mesh":8,"name":"SM_MOD_deco_trim_arch_half_castle_LOD0.007","rotation":[0,1,0,3.0557300760847284e-06],"translation":[-32.04148483276367,39.32861328125,67.37214660644531]},{"mesh":9,"name":"SM_MOD_wall_big_diagonal_castle_LOD0.019","rotation":[0,-0.7071264982223511,0,0.7070870399475098],"translation":[-46.04148483276367,33.32861328125,65.37214660644531]},{"mesh":10,"name":"SM_MOD_wall_big_niche_single_castle_LOD0.005","rotation":[0,0.7070868611335754,0,0.707126796245575],"translation":[-40.04148483276367,33.32861328125,65.37214660644531]},{"mesh":4,"name":"SM_MOD_floor_castle_LOD0.162","translation":[-34.04148483276367,33.32861328125,69.37214660644531]},{"mesh":11,"name":"SM_ENV_bush_castle_04_LOD0.004","scale":[1.5214999914169312,1.5214999914169312,1.5214999914169312],"translation":[-43.56044006347656,37.62922668457031,67.96214294433594]},{"mesh":12,"name":"SM_MOD_floor_diagonal_castle_LOD0.032","rotation":[0,-0.7071007490158081,0,0.7071127891540527],"translation":[-46.04148483276367,39.32861328125,65.37214660644531]},{"mesh":13,"name":"SM_PROP_carpet_flat_castle_LOD0.010","rotation":[0,0.7070363163948059,0,0.7071772813796997],"scale":[0.5050199627876282,0.505020022392273,0.5050199627876282],"translation":[-33.71399688720703,33.47364807128906,68.42214965820312]},{"mesh":14,"name":"SM_MOD_roof_sloped_castle_LOD0.019","rotation":[0,-2.5451181500102393e-05,0,1],"translation":[-34.04148483276367,39.32861328125,71.37214660644531]},{"mesh":15,"name":"SM_PROP_table_castle_01_LOD0.006","translation":[-34.02778625488281,33.47364807128906,70.37030029296875]},{"mesh":0,"name":"SM_MOD_deco_trim_straight_castle_LOD0.057","rotation":[0,-3.041326635866426e-05,0,1],"translation":[-35.69048309326172,39.41162109375,65.37214660644531]},{"mesh":3,"name":"SM_MOD_wall_deco_pillar_castle_LOD0.090","rotation":[0,-0.1981770098209381,0,0.9801662564277649],"translation":[-36.04148483276367,27.32861328125,71.37208557128906]},{"mesh":0,"name":"SM_MOD_deco_trim_straight_castle_LOD0.063","rotation":[0,-0.7071072459220886,0,0.7071062922477722],"translation":[-34.04148483276367,39.32861328125,67.14215087890625]},{"mesh":3,"name":"SM_MOD_wall_deco_pillar_castle_LOD0.104","rotation":[0,-0.1981770098209381,0,0.9801662564277649],"translation":[-36.04148483276367,33.32861328125,71.37208557128906]},{"mesh":16,"name":"SM_MOD_wall_big_castle_LOD0.112","rotation":[0,2.9653306228283327e-06,0,1],"translation":[-42.04148483276367,33.32861328125,67.37214660644531]},{"mesh":17,"name":"SM_MOD_wall_trim_castle_LOD0.190","rotation":[0,0.7070894837379456,0,0.7071240544319153],"translation":[-40.04148483276367,33.32861328125,65.37214660644531]},{"mesh":18,"name":"SM_PROP_chair_castle_01_LOD0.026","rotation":[0,0.680348813533783,0,0.7328884601593018],"translation":[-37.01948547363281,33.47364807128906,64.52914428710938]},{"mesh":19,"name":"SM_MOD_column_02_castle_LOD0.062","translation":[-40.04148483276367,39.32861328125,67.37214660644531]},{"mesh":16,"name":"SM_MOD_wall_big_castle_LOD0.119","rotation":[0,2.9653306228283327e-06,0,1],"translation":[-38.04148483276367,27.32861328125,67.37214660644531]},{"mesh":8,"name":"SM_MOD_deco_trim_arch_half_castle_LOD0.044","rotation":[0,1,0,3.0557300760847284e-06],"translation":[-36.04148483276367,39.32861328125,67.37214660644531]},{"mesh":20,"name":"SM_MOD_wall_sloped_castle_01_LOD0.022","rotation":[0,-2.3990869522094727e-05,0,1],"translation":[-38.04148483276367,39.32861328125,67.37214660644531]},{"mesh":11,"name":"SM_ENV_bush_castle_04_LOD0.006","rotation":[-0.5649576187133789,0,0.8251199126243591,8.94957423724918e-08],"scale":[1.5214999914169312,1.5214998722076416,1.5214999914169312],"translation":[-44.34148406982422,35.75860595703125,67.79214477539062]},{"mesh":4,"name":"SM_MOD_floor_castle_LOD0.353","rotation":[0,0.7071045637130737,0,0.7071090936660767],"translation":[-34.04148483276367,33.32861328125,65.37214660644531]},{"mesh":21,"name":"SM_ENV_cliff_castle_02_LOD0.022","rotation":[-0.6073575019836426,0.022985422983765602,0.3324050307273865,0.7211765050888062],"scale":[1.8308998346328735,1.830899715423584,1.830899715423584],"translation":[-54.731483459472656,29.628616333007812,64.91214752197266]},{"mesh":2,"name":"SM_MOD_railing_02_straight_castle_LOD0.118","translation":[-42.04148483276367,39.32861328125,67.37214660644531]},{"mesh":4,"name":"SM_MOD_floor_castle_LOD0.390","translation":[-34.04148483276367,42.34761047363281,65.37214660644531]},{"mesh":9,"name":"SM_MOD_wall_big_diagonal_castle_LOD0.059","rotation":[0,-0.7071264982223511,0,0.7070870399475098],"translation":[-46.04148483276367,27.32861328125,65.37214660644531]},{"mesh":22,"name":"SM_PROP_table_castle_04_LOD0.007","rotation":[0,0.5257567167282104,0,0.8506349921226501],"translation":[-35.994483947753906,33.47364807128906,64.52814483642578]},{"mesh":17,"name":"SM_MOD_wall_trim_castle_LOD0.313","rotation":[1,-3.375113010406494e-05,-2.8625134291360155e-05,7.646403332728369e-08],"translation":[-34.04148483276367,39.215606689453125,71.37214660644531]},{"mesh":12,"name":"SM_MOD_floor_diagonal_castle_LOD0.090","rotation":[0,-0.707131564617157,0,0.7070819735527039],"translation":[-38.04148483276367,39.32861328125,69.37214660644531]},{"mesh":23,"name":"SM_MOD_railing_02_diagonal_castle_LOD0.042","rotation":[0,0.7070646286010742,0,0.7071489095687866],"translation":[-46.04148483276367,39.32861328125,65.37214660644531]},{"mesh":17,"name":"SM_MOD_wall_trim_castle_LOD0.325","rotation":[-0.7071197032928467,4.093934421689482e-06,-0.7070938348770142,3.987016953033162e-06],"translation":[-40.05448532104492,39.26161193847656,65.37214660644531]},{"mesh":24,"name":"SM_MOD_roof_sloped_diagonal_castle_01_LOD0.031","rotation":[0,-0.707125186920166,0,0.7070883512496948],"translation":[-38.04142379760742,39.32861328125,69.37202453613281]},{"mesh":21,"name":"SM_ENV_cliff_castle_02_LOD0.027","rotation":[-0.10526762157678604,-0.13144052028656006,0.002273980062454939,0.9857164621353149],"scale":[6.951666355133057,6.951665878295898,6.951669216156006],"translation":[-46.04148483276367,-47.17137908935547,96.07215881347656]},{"mesh":25,"name":"SM_MOD_deco_flying_buttress_ext_castle_LOD0.037","rotation":[0,-1,0,1.7480053429608233e-05],"scale":[2.1059999465942383,2.1059999465942383,2.1059999465942383],"translation":[-44.04148483276367,25.6826171875,67.31214904785156]},{"mesh":12,"name":"SM_MOD_floor_diagonal_castle_LOD0.095","rotation":[0,-0.707131564617157,0,0.7070819735527039],"translation":[-38.04148483276367,33.32861328125,69.37214660644531]},{"mesh":26,"name":"SM_PROP_curtain_castle_01_LOD0.013","rotation":[0,0.9238845109939575,0,0.3826714754104614],"translation":[-37.72348403930664,38.86561584472656,69.01515197753906]},{"mesh":0,"name":"SM_MOD_deco_trim_straight_castle_LOD0.150","rotation":[0,-0.7071072459220886,0,0.7071062922477722],"translation":[-38.04148483276367,39.32861328125,67.14215087890625]},{"mesh":27,"name":"SM_MOD_wall_trim_diagonal_castle_LOD0.110","rotation":[0,0.7071275115013123,0,0.7070860266685486],"translation":[-38.04148483276367,33.32861328125,69.37214660644531]},{"mesh":9,"name":"SM_MOD_wall_big_diagonal_castle_LOD0.088","rotation":[0,0.7071280479431152,0,0.7070854902267456],"translation":[-38.04148483276367,27.32861328125,69.37226867675781]},{"mesh":28,"name":"SM_MOD_roof_sloped_ext_bottom_castle_LOD0.024","rotation":[0,-2.5540586648276076e-05,0,1],"translation":[-34.04148483276367,39.32861328125,71.37214660644531]},{"mesh":4,"name":"SM_MOD_floor_castle_LOD0.560","translation":[-34.04148483276367,39.32861328125,69.37214660644531]},{"mesh":29,"name":"SM_MOD_wall_big_windows_castle_LOD0.036","rotation":[0,1,0,1.8433727746014483e-05],"translation":[-34.04148483276367,33.32861328125,71.37214660644531]},{"mesh":30,"name":"SM_MOD_railing_02_stairs_straight_castle_LOD0.009","rotation":[0,-0.707105278968811,0,0.7071083784103394],"translation":[-36.04148483276367,42.32861328125,67.37214660644531]},{"mesh":31,"name":"SM_PROP_curtain_castle_02_LOD0.003","rotation":[0,-1,0,4.371138828673793e-08],"translation":[-34.04148483276367,38.86561584472656,70.91714477539062]},{"mesh":17,"name":"SM_MOD_wall_trim_castle_LOD0.435","rotation":[0,1,0,2.856651735783089e-05],"translation":[-34.04148483276367,33.32861328125,71.37214660644531]},{"mesh":32,"name":"SM_ENV_tree_castle_01_LOD0.037","rotation":[0,-0.43516233563423157,0,0.9003520011901855],"translation":[-42.93148422241211,28.528610229492188,87.65214538574219]},{"mesh":18,"name":"SM_PROP_chair_castle_01_LOD0.056","rotation":[0,-0.6338911652565002,0,0.7734223008155823],"translation":[-34.87348556518555,33.47364807128906,64.42210388183594]},{"mesh":27,"name":"SM_MOD_wall_trim_diagonal_castle_LOD0.133","rotation":[1,-1.4593346350011416e-05,3.950297104893252e-05,7.492141662623908e-08],"translation":[-38.04148483276367,39.215606689453125,69.37214660644531]},{"mesh":19,"name":"SM_MOD_column_02_castle_LOD0.158","translation":[-36.04148483276367,42.32861328125,67.37214660644531]},{"mesh":16,"name":"SM_MOD_wall_big_castle_LOD0.285","rotation":[0,2.9653306228283327e-06,0,1],"translation":[-42.04148483276367,27.32861328125,67.37214660644531]},{"mesh":2,"name":"SM_MOD_railing_02_straight_castle_LOD0.218","rotation":[0,0.7071007490158081,0,0.7071127891540527],"translation":[-36.04148483276367,42.32861328125,65.37214660644531]},{"mesh":16,"name":"SM_MOD_wall_big_castle_LOD0.298","rotation":[0,2.9653306228283327e-06,0,1],"translation":[-34.04148483276367,27.32861328125,67.37214660644531]},{"mesh":33,"name":"SM_MOD_wall_small_castle_LOD0.286","rotation":[0,1,0,1.9864239220623858e-05],"translation":[-34.04148483276367,39.32861328125,67.37214660644531]},{"mesh":32,"name":"SM_ENV_tree_castle_01_LOD0.046","rotation":[0,0.9953210353851318,0,0.09662415087223053],"scale":[1.2121005058288574,1.2121000289916992,1.2121005058288574],"translation":[-37.52720642089844,27.748611450195312,93.14924621582031]},{"mesh":16,"name":"SM_MOD_wall_big_castle_LOD0.312","rotation":[0,1,0,1.8433727746014483e-05],"translation":[-34.04148483276367,27.32861328125,71.37214660644531]},{"mesh":34,"name":"SM_MOD_roof_sloped_ext_bottom_diagonal_castle_LOD0.023","rotation":[0,-0.7071165442466736,0,0.7070969939231873],"translation":[-38.04142379760742,39.32861328125,69.37202453613281]},{"mesh":35,"name":"SM_ENV_bush_castle_05_LOD0.036","translation":[-43.34332275390625,33.799285888671875,67.90214538574219]},{"mesh":4,"name":"SM_MOD_floor_castle_LOD0.791","translation":[-38.04148483276367,39.32861328125,65.37214660644531]},{"mesh":33,"name":"SM_MOD_wall_small_castle_LOD0.313","rotation":[0,-0.7070959806442261,0,0.7071175575256348],"translation":[-35.926483154296875,39.32861328125,65.37214660644531]},{"mesh":21,"name":"SM_ENV_cliff_castle_02_LOD0.046","rotation":[0.02119612880051136,0.9760883450508118,0.06088138371706009,0.2075951099395752],"scale":[5.2736053466796875,5.2736053466796875,5.27360725402832],"translation":[-53.78031539916992,-4.271392822265625,90.47215270996094]},{"mesh":36,"name":"SM_PROP_candleholder_castle_02_LOD0.011","rotation":[0,-0.029638949781656265,0,0.9995607733726501],"translation":[-36.011390686035156,34.296905517578125,64.54729461669922]},{"mesh":37,"name":"SM_MOD_wall_big_diagonal_window_castle_LOD0.024","rotation":[0,0.7070906758308411,0,0.7071228623390198],"translation":[-38.04142379760742,33.32861328125,69.37202453613281]}],"materials":[{"doubleSided":true,"name":"M_MOD_bricks_castle","normalTexture":{"index":0,"scale":4},"pbrMetallicRoughness":{"baseColorTexture":{"index":1},"metallicRoughnessTexture":{"index":2}}},{"doubleSided":true,"name":"M_TRIM_castle","normalTexture":{"index":3,"scale":4},"pbrMetallicRoughness":{"baseColorTexture":{"index":4},"metallicRoughnessTexture":{"index":5}}},{"doubleSided":true,"name":"M_MOD_floor_castle_01","normalTexture":{"index":6,"scale":4},"pbrMetallicRoughness":{"baseColorTexture":{"index":7},"metallicRoughnessTexture":{"index":8}}},{"doubleSided":true,"name":"M_MOD_roof_castle","normalTexture":{"index":9,"scale":3},"pbrMetallicRoughness":{"baseColorFactor":[1,0.05308542773127556,0,1],"baseColorTexture":{"index":10},"metallicRoughnessTexture":{"index":11}}},{"doubleSided":true,"name":"M_MOD_ceiling_plaster_castle","normalTexture":{"index":12,"scale":3},"pbrMetallicRoughness":{"baseColorTexture":{"index":13},"metallicFactor":0,"roughnessFactor":0.8486359119415283}},{"doubleSided":true,"name":"M_PROP_props_castle","normalTexture":{"index":14},"pbrMetallicRoughness":{"baseColorTexture":{"index":15},"metallicRoughnessTexture":{"index":16}}},{"doubleSided":true,"name":"M_MOD_plaster_castle_01","normalTexture":{"index":17},"pbrMetallicRoughness":{"baseColorFactor":[1,0.8552720546722412,0.5793638229370117,1],"baseColorTexture":{"index":18},"metallicRoughnessTexture":{"index":19}}},{"alphaMode":"BLEND","doubleSided":true,"extensions":{"KHR_materials_clearcoat":{"clearcoatRoughnessFactor":0},"KHR_materials_specular":{"specularFactor":0},"KHR_materials_ior":{"ior":1.4500000476837158}},"name":"M_ENV_foliage_castle","pbrMetallicRoughness":{"baseColorTexture":{"index":20},"metallicFactor":0,"roughnessFactor":0}},{"doubleSided":true,"name":"M_PROP_carpet_castle","pbrMetallicRoughness":{"baseColorTexture":{"index":21},"metallicFactor":0,"roughnessFactor":0.8716381788253784}},{"doubleSided":true,"name":"M_MOD_roof_base_castle","normalTexture":{"index":22},"pbrMetallicRoughness":{"baseColorTexture":{"index":23},"metallicFactor":0,"roughnessFactor":0.8092783689498901}},{"doubleSided":true,"name":"M_PROP_furniture_castle","normalTexture":{"index":24},"pbrMetallicRoughness":{"baseColorTexture":{"index":25},"metallicRoughnessTexture":{"index":26}}},{"doubleSided":true,"name":"M_CliffGrassVC","normalTexture":{"extensions":{"KHR_texture_transform":{"offset":[0,-6],"scale":[7,7]}},"index":27,"scale":0.6000000238418579},"pbrMetallicRoughness":{"metallicFactor":0,"roughnessFactor":0.9200000166893005}},{"doubleSided":true,"extensions":{"KHR_materials_specular":{"specularColorFactor":[1.0635696649551392,1.0635696649551392,1.0635696649551392]}},"name":"M_PROP_deco_castle","normalTexture":{"index":28,"scale":2},"pbrMetallicRoughness":{"baseColorTexture":{"index":29},"metallicRoughnessTexture":{"index":30}}},{"alphaMode":"BLEND","doubleSided":true,"extensions":{"KHR_materials_specular":{"specularColorFactor":[1.2999999523162842,1.2999999523162842,1.2999999523162842]}},"name":"M_MOD_glass_castle","pbrMetallicRoughness":{"baseColorFactor":[0.2486572265625,0.2486572265625,0.2486572265625,0.5],"baseColorTexture":{"index":31},"metallicFactor":0,"roughnessFactor":0.7636363506317139}},{"doubleSided":true,"extensions":{"KHR_materials_specular":{"specularFactor":0},"KHR_materials_ior":{"ior":1.4500000476837158}},"name":"M_ENV_tree_wood_castle","normalTexture":{"index":32,"scale":2},"pbrMetallicRoughness":{"baseColorFactor":[1,1,1,1],"baseColorTexture":{"index":33},"metallicRoughnessTexture":{"index":34}}},{"alphaMode":"MASK","doubleSided":true,"extensions":{"KHR_materials_specular":{"specularFactor":0},"KHR_materials_ior":{"ior":1.4500000476837158}},"name":"M_ENV_tree_leaves_castle_01","pbrMetallicRoughness":{"baseColorFactor":[0.08437485992908478,0.39157116413116455,0.028426364064216614,1],"baseColorTexture":{"index":35},"metallicFactor":0,"roughnessFactor":0}}],"meshes":[{"name":"Cube.449","primitives":[{"attributes":{"POSITION":0,"NORMAL":1,"TEXCOORD_0":2,"TEXCOORD_1":3},"indices":4,"material":0}]},{"name":"Cube.626","primitives":[{"attributes":{"POSITION":5,"NORMAL":6,"TEXCOORD_0":7,"TEXCOORD_1":8},"indices":9,"material":0}]},{"name":"Cube.1020","primitives":[{"attributes":{"POSITION":10,"NORMAL":11,"TEXCOORD_0":12,"TEXCOORD_1":13},"indices":14,"material":1}]},{"name":"Cube.440","primitives":[{"attributes":{"POSITION":15,"NORMAL":16,"TEXCOORD_0":17,"TEXCOORD_1":18},"indices":19,"material":1}]},{"name":"Cube.452","primitives":[{"attributes":{"POSITION":20,"NORMAL":21,"TEXCOORD_0":22,"TEXCOORD_1":23},"indices":24,"material":2}]},{"name":"Cube.361","primitives":[{"attributes":{"POSITION":25,"NORMAL":26,"TEXCOORD_0":27,"TEXCOORD_1":28},"indices":29,"material":3}]},{"name":"Cube.684","primitives":[{"attributes":{"POSITION":30,"NORMAL":31,"TEXCOORD_0":32,"TEXCOORD_1":33},"indices":34,"material":4}]},{"name":"Cylinder.491","primitives":[{"attributes":{"POSITION":35,"NORMAL":36,"TEXCOORD_0":37,"TEXCOORD_1":38},"indices":39,"material":5}]},{"name":"Cube.105","primitives":[{"attributes":{"POSITION":40,"NORMAL":41,"TEXCOORD_0":42,"TEXCOORD_1":43},"indices":44,"material":0}]},{"name":"Cube.257","primitives":[{"attributes":{"POSITION":45,"NORMAL":46,"TEXCOORD_0":47,"TEXCOORD_1":48},"indices":49,"material":0}]},{"name":"Cube.784","primitives":[{"attributes":{"POSITION":50,"NORMAL":51,"TEXCOORD_0":52,"TEXCOORD_1":53},"indices":54,"material":0},{"attributes":{"POSITION":55,"NORMAL":56,"TEXCOORD_0":57,"TEXCOORD_1":58},"indices":59,"material":1},{"attributes":{"POSITION":60,"NORMAL":61,"TEXCOORD_0":62,"TEXCOORD_1":63},"indices":64,"material":6}]},{"name":"Plane.518","primitives":[{"attributes":{"POSITION":65,"NORMAL":66,"TEXCOORD_0":67,"TEXCOORD_1":68,"COLOR_0":69,"COLOR_1":70},"indices":71,"material":7}]},{"name":"Cube.453","primitives":[{"attributes":{"POSITION":72,"NORMAL":73,"TEXCOORD_0":74,"TEXCOORD_1":75},"indices":76,"material":2}]},{"name":"Plane.033","primitives":[{"attributes":{"POSITION":77,"NORMAL":78,"TEXCOORD_0":79,"TEXCOORD_1":80},"indices":81,"material":8}]},{"name":"Cube.347","primitives":[{"attributes":{"POSITION":82,"NORMAL":83,"TEXCOORD_0":84,"TEXCOORD_1":85},"indices":86,"material":3},{"attributes":{"POSITION":87,"NORMAL":88,"TEXCOORD_0":89,"TEXCOORD_1":90},"indices":91,"material":9}]},{"name":"Cylinder.465","primitives":[{"attributes":{"POSITION":92,"NORMAL":93,"TEXCOORD_0":94,"TEXCOORD_1":95},"indices":96,"material":10}]},{"name":"Cube.033","primitives":[{"attributes":{"POSITION":97,"NORMAL":98,"TEXCOORD_0":99,"TEXCOORD_1":100},"indices":101,"material":0}]},{"name":"Cube.373","primitives":[{"attributes":{"POSITION":102,"NORMAL":103,"TEXCOORD_0":104,"TEXCOORD_1":105},"indices":106,"material":1}]},{"name":"Cylinder.462","primitives":[{"attributes":{"POSITION":107,"NORMAL":108,"TEXCOORD_0":109,"TEXCOORD_1":110},"indices":111,"material":10}]},{"name":"Cube.3213","primitives":[{"attributes":{"POSITION":112,"NORMAL":113,"TEXCOORD_0":114,"TEXCOORD_1":115},"indices":116,"material":1}]},{"name":"Cube.154","primitives":[{"attributes":{"POSITION":117,"NORMAL":118,"TEXCOORD_0":119,"TEXCOORD_1":120},"indices":121,"material":0}]},{"name":"SM_ENV_cliff_castle_02_instantmeshesexp_02.004","primitives":[{"attributes":{"POSITION":122,"NORMAL":123,"TEXCOORD_0":124,"TEXCOORD_1":125,"COLOR_0":126},"indices":127,"material":11}]},{"name":"Cylinder.476","primitives":[{"attributes":{"POSITION":128,"NORMAL":129,"TEXCOORD_0":130,"TEXCOORD_1":131},"indices":132,"material":10}]},{"name":"Cube.3078","primitives":[{"attributes":{"POSITION":133,"NORMAL":134,"TEXCOORD_0":135,"TEXCOORD_1":136},"indices":137,"material":1}]},{"name":"Cube.363","primitives":[{"attributes":{"POSITION":138,"NORMAL":139,"TEXCOORD_0":140,"TEXCOORD_1":141},"indices":142,"material":3},{"attributes":{"POSITION":143,"NORMAL":144,"TEXCOORD_0":145,"TEXCOORD_1":146},"indices":147,"material":9}]},{"name":"Cube.627","primitives":[{"attributes":{"POSITION":148,"NORMAL":149,"TEXCOORD_0":150,"TEXCOORD_1":151},"indices":152,"material":0}]},{"name":"Cylinder.508","primitives":[{"attributes":{"POSITION":153,"NORMAL":154,"TEXCOORD_0":155,"TEXCOORD_1":156},"indices":157,"material":12}]},{"name":"Cube.376","primitives":[{"attributes":{"POSITION":158,"NORMAL":159,"TEXCOORD_0":160,"TEXCOORD_1":161},"indices":162,"material":1}]},{"name":"Cube.354","primitives":[{"attributes":{"POSITION":163,"NORMAL":164,"TEXCOORD_0":165,"TEXCOORD_1":166},"indices":167,"material":3}]},{"name":"Cube.252","primitives":[{"attributes":{"POSITION":168,"NORMAL":169,"TEXCOORD_0":170,"TEXCOORD_1":171},"indices":172,"material":0},{"attributes":{"POSITION":173,"NORMAL":174,"TEXCOORD_0":175,"TEXCOORD_1":176},"indices":177,"material":1},{"attributes":{"POSITION":178,"NORMAL":179,"TEXCOORD_0":180,"TEXCOORD_1":181},"indices":182,"material":13}]},{"name":"Cube.3077","primitives":[{"attributes":{"POSITION":183,"NORMAL":184,"TEXCOORD_0":185,"TEXCOORD_1":186},"indices":187,"material":1}]},{"name":"Cylinder.511","primitives":[{"attributes":{"POSITION":188,"NORMAL":189,"TEXCOORD_0":190,"TEXCOORD_1":191},"indices":192,"material":12}]},{"name":"Cylinder.294","primitives":[{"attributes":{"POSITION":193,"NORMAL":194,"TEXCOORD_0":195,"TEXCOORD_1":196,"COLOR_0":197,"COLOR_1":198},"indices":199,"material":14},{"attributes":{"POSITION":200,"NORMAL":201,"TEXCOORD_0":202,"TEXCOORD_1":203,"COLOR_0":204,"COLOR_1":205},"indices":206,"material":15}]},{"name":"Cube.246","primitives":[{"attributes":{"POSITION":207,"NORMAL":208,"TEXCOORD_0":209,"TEXCOORD_1":210},"indices":211,"material":0}]},{"name":"Cube.355","primitives":[{"attributes":{"POSITION":212,"NORMAL":213,"TEXCOORD_0":214,"TEXCOORD_1":215},"indices":216,"material":3}]},{"name":"Plane.568","primitives":[{"attributes":{"POSITION":217,"NORMAL":218,"TEXCOORD_0":219,"TEXCOORD_1":220,"COLOR_0":221,"COLOR_1":222},"indices":223,"material":7}]},{"name":"Cylinder.439","primitives":[{"attributes":{"POSITION":224,"NORMAL":225,"TEXCOORD_0":226,"TEXCOORD_1":227},"indices":228,"material":12}]},{"name":"Cube.258","primitives":[{"attributes":{"POSITION":229,"NORMAL":230,"TEXCOORD_0":231,"TEXCOORD_1":232},"indices":233,"material":0},{"attributes":{"POSITION":234,"NORMAL":235,"TEXCOORD_0":236,"TEXCOORD_1":237},"indices":238,"material":1},{"attributes":{"POSITION":239,"NORMAL":240,"TEXCOORD_0":241,"TEXCOORD_1":242},"indices":182,"material":13}]}],"textures":[{"sampler":0,"source":0},{"sampler":0,"source":1},{"sampler":0,"source":2},{"sampler":0,"source":3},{"sampler":0,"source":4},{"sampler":0,"source":5},{"sampler":0,"source":6},{"sampler":0,"source":7},{"sampler":0,"source":8},{"sampler":0,"source":9},{"sampler":0,"source":10},{"sampler":0,"source":11},{"sampler":0,"source":12},{"sampler":0,"source":13},{"sampler":0,"source":14},{"sampler":0,"source":15},{"sampler":0,"source":16},{"sampler":0,"source":17},{"sampler":0,"source":18},{"sampler":0,"source":19},{"sampler":0,"source":20},{"sampler":0,"source":21},{"sampler":0,"source":22},{"sampler":0,"source":23},{"sampler":0,"source":24},{"sampler":0,"source":25},{"sampler":0,"source":26},{"sampler":0,"source":27},{"sampler":0,"source":28},{"sampler":0,"source":29},{"sampler":0,"source":30},{"sampler":0,"source":31},{"sampler":0,"source":32},{"sampler":0,"source":33},{"sampler":0,"source":34},{"sampler":0,"source":35}],"images":[{"mimeType":"image/png","name":"T_MOD_wall_bricks_castle_01_N","uri":"textures/T_MOD_wall_bricks_castle_01_N.png"},{"mimeType":"image/png","name":"T_MOD_wall_bricks_castle_01_BC","uri":"textures/T_MOD_wall_bricks_castle_01_BC.png"},{"mimeType":"image/png","name":"T_MOD_wall_bricks_castle_01_PBR","uri":"textures/T_MOD_wall_bricks_castle_01_PBR.png"},{"mimeType":"image/png","name":"T_TRIM_castle_01_N","uri":"textures/T_TRIM_castle_01_N.png"},{"mimeType":"image/png","name":"T_TRIM_castle_01_BC","uri":"textures/T_TRIM_castle_01_BC.png"},{"mimeType":"image/png","name":"T_TRIM_castle_01_PBR","uri":"textures/T_TRIM_castle_01_PBR.png"},{"mimeType":"image/png","name":"T_MOD_floor_castle_01_N","uri":"textures/T_MOD_floor_castle_01_N.png"},{"mimeType":"image/png","name":"T_MOD_floor_castle_01_BC","uri":"textures/T_MOD_floor_castle_01_BC.png"},{"mimeType":"image/png","name":"T_MOD_floor_castle_01_PBR","uri":"textures/T_MOD_floor_castle_01_PBR.png"},{"mimeType":"image/png","name":"T_ENV_MOD_roof_castle_02_N","uri":"textures/T_ENV_MOD_roof_castle_02_N.png"},{"mimeType":"image/png","name":"T_ENV_MOD_roof_castle_02_BC","uri":"textures/T_ENV_MOD_roof_castle_02_BC.png"},{"mimeType":"image/png","name":"T_MOD_roof_castle_01_PBR","uri":"textures/T_MOD_roof_castle_01_PBR.png"},{"mimeType":"image/png","name":"T_MOD_plaster_castle_N","uri":"textures/T_MOD_plaster_castle_N.png"},{"mimeType":"image/png","name":"T_MOD_plaster_castle_BC","uri":"textures/T_MOD_plaster_castle_BC.png"},{"mimeType":"image/png","name":"T_PROP_props_castle_N","uri":"textures/T_PROP_props_castle_N.png"},{"mimeType":"image/png","name":"T_PROP_props_castle_BC","uri":"textures/T_PROP_props_castle_BC.png"},{"mimeType":"image/png","name":"T_PROP_props_castle_PBR","uri":"textures/T_PROP_props_castle_PBR.png"},{"mimeType":"image/png","name":"T_MOD_wall_plaster_castle_01_N","uri":"textures/T_MOD_wall_plaster_castle_01_N.png"},{"mimeType":"image/png","name":"T_MOD_wall_plaster_castle_02_BC","uri":"textures/T_MOD_wall_plaster_castle_02_BC.png"},{"mimeType":"image/png","name":"T_MOD_wall_plaster_castle_01_PBR","uri":"textures/T_MOD_wall_plaster_castle_01_PBR.png"},{"mimeType":"image/png","name":"T_ENV_foliage_castle","uri":"textures/T_ENV_foliage_castle.png"},{"mimeType":"image/png","name":"T_PROP_carpet_castle_BC","uri":"textures/T_PROP_carpet_castle_BC.png"},{"mimeType":"image/png","name":"T_MOD_roof_base_castle_N","uri":"textures/T_MOD_roof_base_castle_N.png"},{"mimeType":"image/png","name":"T_MOD_roof_base_castle_BC","uri":"textures/T_MOD_roof_base_castle_BC.png"},{"mimeType":"image/png","name":"T_PROP_furniture_castle_N","uri":"textures/T_PROP_furniture_castle_N.png"},{"mimeType":"image/png","name":"T_PROP_furniture_castle_BC","uri":"textures/T_PROP_furniture_castle_BC.png"},{"mimeType":"image/png","name":"T_PROP_furniture_castle_PBR","uri":"textures/T_PROP_furniture_castle_PBR.png"},{"mimeType":"image/png","name":"T_ENV_cliff_castle_01_N","uri":"textures/T_ENV_cliff_castle_01_N.png"},{"mimeType":"image/png","name":"T_PROP_deco_castle_N","uri":"textures/T_PROP_deco_castle_N.png"},{"mimeType":"image/png","name":"T_PROP_deco_castle_BC","uri":"textures/T_PROP_deco_castle_BC.png"},{"mimeType":"image/png","name":"T_PROP_deco_castle_PBR","uri":"textures/T_PROP_deco_castle_PBR.png"},{"mimeType":"image/png","name":"T_MOD_wall_window_glass_castle_MASK","uri":"textures/T_MOD_wall_window_glass_castle_MASK.png"},{"mimeType":"image/png","name":"T_ENV_wood_castle_01_N","uri":"textures/T_ENV_wood_castle_01_N.png"},{"mimeType":"image/png","name":"T_ENV_wood_castle_01_BC","uri":"textures/T_ENV_wood_castle_01_BC.png"},{"mimeType":"image/png","name":"T_ENV_wood_castle_01_PBR","uri":"textures/T_ENV_wood_castle_01_PBR.png"},{"mimeType":"image/png","name":"T_ENV_tree_leaves_castle_01","uri":"textures/T_ENV_tree_leaves_castle_01.png"}],"accessors":[{"bufferView":0,"componentType":5126,"count":223,"max":[0.2085363268852234,-0.009413719177246094,2.0136191844940186],"min":[-0.20853661000728607,-0.7160651683807373,-2.0058541297912598],"type":"VEC3"},{"bufferView":1,"componentType":5126,"count":223,"type":"VEC3"},{"bufferView":2,"componentType":5126,"count":223,"type":"VEC2"},{"bufferView":3,"componentType":5126,"count":223,"type":"VEC2"},{"bufferView":4,"componentType":5123,"count":708,"type":"SCALAR"},{"bufferView":5,"componentType":5126,"count":980,"max":[0.35254237055778503,8.129744529724121,0.36336269974708557],"min":[-0.35031387209892273,-0.005122777074575424,-3.8128738403320312],"type":"VEC3"},{"bufferView":6,"componentType":5126,"count":980,"type":"VEC3"},{"bufferView":7,"componentType":5126,"count":980,"type":"VEC2"},{"bufferView":8,"componentType":5126,"count":980,"type":"VEC2"},{"bufferView":9,"componentType":5123,"count":3834,"type":"SCALAR"},{"bufferView":10,"componentType":5126,"count":512,"max":[1.9999985694885254,1.0031301975250244,0.2541757822036743],"min":[-1.9999985694885254,-0.12952381372451782,-0.25105398893356323],"type":"VEC3"},{"bufferView":11,"componentType":5126,"count":512,"type":"VEC3"},{"bufferView":12,"componentType":5126,"count":512,"type":"VEC2"},{"bufferView":13,"componentType":5126,"count":512,"type":"VEC2"},{"bufferView":14,"componentType":5123,"count":1188,"type":"SCALAR"},{"bufferView":15,"componentType":5126,"count":241,"max":[0.4694620966911316,6.01121187210083,0.6385924816131592],"min":[-0.490100622177124,-0.00664210319519043,-0.002280712127685547],"type":"VEC3"},{"bufferView":16,"componentType":5126,"count":241,"type":"VEC3"},{"bufferView":17,"componentType":5126,"count":241,"type":"VEC2"},{"bufferView":18,"componentType":5126,"count":241,"type":"VEC2"},{"bufferView":19,"componentType":5123,"count":972,"type":"SCALAR"},{"bufferView":20,"componentType":5126,"count":20,"max":[2,0.1450279951095581,2],"min":[-2,-0.1450279951095581,-2],"type":"VEC3"},{"bufferView":21,"componentType":5126,"count":20,"type":"VEC3"},{"bufferView":22,"componentType":5126,"count":20,"type":"VEC2"},{"bufferView":23,"componentType":5126,"count":20,"type":"VEC2"},{"bufferView":24,"componentType":5123,"count":36,"type":"SCALAR"},{"bufferView":25,"componentType":5126,"count":104,"max":[0.5796850323677063,0.417314738035202,0.8197723031044006],"min":[-0.012496471405029297,-0.14634107053279877,-0.005420153494924307],"type":"VEC3"},{"bufferView":26,"componentType":5126,"count":104,"type":"VEC3"},{"bufferView":27,"componentType":5126,"count":104,"type":"VEC2"},{"bufferView":28,"componentType":5126,"count":104,"type":"VEC2"},{"bufferView":29,"componentType":5123,"count":228,"type":"SCALAR"},{"bufferView":30,"componentType":5126,"count":124,"max":[2,3,4],"min":[-2.000000238418579,0,-1.5099580252808664e-07],"type":"VEC3"},{"bufferView":31,"componentType":5126,"count":124,"type":"VEC3"},{"bufferView":32,"componentType":5126,"count":124,"type":"VEC2"},{"bufferView":33,"componentType":5126,"count":124,"type":"VEC2"},{"bufferView":34,"componentType":5123,"count":348,"type":"SCALAR"},{"bufferView":35,"componentType":5126,"count":406,"max":[0.24566161632537842,0.9722089767456055,0.24566161632537842],"min":[-0.24566161632537842,-0.0009640147909522057,-0.24566161632537842],"type":"VEC3"},{"bufferView":36,"componentType":5126,"count":406,"type":"VEC3"},{"bufferView":37,"componentType":5126,"count":406,"type":"VEC2"},{"bufferView":38,"componentType":5126,"count":406,"type":"VEC2"},{"bufferView":39,"componentType":5123,"count":2004,"type":"SCALAR"},{"bufferView":40,"componentType":5126,"count":488,"max":[0.22556042671203613,3,4.012289047241211],"min":[-0.22556044161319733,-0.0034152085427194834,-0.0019011497497558594],"type":"VEC3"},{"bufferView":41,"componentType":5126,"count":488,"type":"VEC3"},{"bufferView":42,"componentType":5126,"count":488,"type":"VEC2"},{"bufferView":43,"componentType":5126,"count":488,"type":"VEC2"},{"bufferView":44,"componentType":5123,"count":1212,"type":"SCALAR"},{"bufferView":45,"componentType":5126,"count":1152,"max":[2.494168758392334,6.0242204666137695,2.4628281593322754],"min":[-2.4628283977508545,-0.02262175641953945,-2.494168758392334],"type":"VEC3"},{"bufferView":46,"componentType":5126,"count":1152,"type":"VEC3"},{"bufferView":47,"componentType":5126,"count":1152,"type":"VEC2"},{"bufferView":48,"componentType":5126,"count":1152,"type":"VEC2"},{"bufferView":49,"componentType":5123,"count":4428,"type":"SCALAR"},{"bufferView":50,"componentType":5126,"count":1022,"max":[2.3504602909088135,6.0242204666137695,0.426658570766449],"min":[-2.2699174880981445,-0.02262175641953945,-0.426658570766449],"type":"VEC3"},{"bufferView":51,"componentType":5126,"count":1022,"type":"VEC3"},{"bufferView":52,"componentType":5126,"count":1022,"type":"VEC2"},{"bufferView":53,"componentType":5126,"count":1022,"type":"VEC2"},{"bufferView":54,"componentType":5123,"count":3864,"type":"SCALAR"},{"bufferView":55,"componentType":5126,"count":720,"max":[1.2893227338790894,5.409360885620117,0.4964955747127533],"min":[-1.2893227338790894,0.4890148639678955,0],"type":"VEC3"},{"bufferView":56,"componentType":5126,"count":720,"type":"VEC3"},{"bufferView":57,"componentType":5126,"count":720,"type":"VEC2"},{"bufferView":58,"componentType":5126,"count":720,"type":"VEC2"},{"bufferView":59,"componentType":5123,"count":1248,"type":"SCALAR"},{"bufferView":60,"componentType":5126,"count":4,"max":[1.1148192882537842,5.258902549743652,0.1073824018239975],"min":[-1.1148192882537842,0.40276670455932617,0.10738229751586914],"type":"VEC3"},{"bufferView":61,"componentType":5126,"count":4,"type":"VEC3"},{"bufferView":62,"componentType":5126,"count":4,"type":"VEC2"},{"bufferView":63,"componentType":5126,"count":4,"type":"VEC2"},{"bufferView":64,"componentType":5123,"count":6,"type":"SCALAR"},{"bufferView":65,"componentType":5126,"count":600,"max":[0.8343209624290466,1.4898878335952759,0.6491702198982239],"min":[-0.8528966307640076,-3.341200590133667,-0.3559950292110443],"type":"VEC3"},{"bufferView":66,"componentType":5126,"count":600,"type":"VEC3"},{"bufferView":67,"componentType":5126,"count":600,"type":"VEC2"},{"bufferView":68,"componentType":5126,"count":600,"type":"VEC2"},{"bufferView":69,"componentType":5123,"count":600,"normalized":true,"type":"VEC4"},{"bufferView":70,"componentType":5123,"count":600,"normalized":true,"type":"VEC4"},{"bufferView":71,"componentType":5123,"count":900,"type":"SCALAR"},{"bufferView":72,"componentType":5126,"count":18,"max":[2,0.1450279951095581,2],"min":[-2,-0.1450279951095581,-2],"type":"VEC3"},{"bufferView":73,"componentType":5126,"count":18,"type":"VEC3"},{"bufferView":74,"componentType":5126,"count":18,"type":"VEC2"},{"bufferView":75,"componentType":5126,"count":18,"type":"VEC2"},{"bufferView":76,"componentType":5123,"count":24,"type":"SCALAR"},{"bufferView":77,"componentType":5126,"count":246,"max":[2.0318527221679688,0.01962706260383129,6],"min":[-2,-0.000372936949133873,-6],"type":"VEC3"},{"bufferView":78,"componentType":5126,"count":246,"type":"VEC3"},{"bufferView":79,"componentType":5126,"count":246,"type":"VEC2"},{"bufferView":80,"componentType":5126,"count":246,"type":"VEC2"},{"bufferView":81,"componentType":5123,"count":768,"type":"SCALAR"},{"bufferView":82,"componentType":5126,"count":405,"max":[2,3.4173145294189453,9.298245799982396e-07],"min":[-2.000001907348633,0.20888832211494446,-4.000000953674316],"type":"VEC3"},{"bufferView":83,"componentType":5126,"count":405,"type":"VEC3"},{"bufferView":84,"componentType":5126,"count":405,"type":"VEC2"},{"bufferView":85,"componentType":5126,"count":405,"type":"VEC2"},{"bufferView":86,"componentType":5123,"count":1008,"type":"SCALAR"},{"bufferView":87,"componentType":5126,"count":356,"max":[2.0349154472351074,3.1999998092651367,0.025135906413197517],"min":[-2.0349154472351074,-0.4660452604293823,-4.0202555656433105],"type":"VEC3"},{"bufferView":88,"componentType":5126,"count":356,"type":"VEC3"},{"bufferView":89,"componentType":5126,"count":356,"type":"VEC2"},{"bufferView":90,"componentType":5126,"count":356,"type":"VEC2"},{"bufferView":91,"componentType":5123,"count":1350,"type":"SCALAR"},{"bufferView":92,"componentType":5126,"count":2103,"max":[0.8376253247261047,0.8286512494087219,0.33467718958854675],"min":[-0.8376251459121704,-2.9802322387695312e-08,-0.334677129983902],"type":"VEC3"},{"bufferView":93,"componentType":5126,"count":2103,"type":"VEC3"},{"bufferView":94,"componentType":5126,"count":2103,"type":"VEC2"},{"bufferView":95,"componentType":5126,"count":2103,"type":"VEC2"},{"bufferView":96,"componentType":5123,"count":7860,"type":"SCALAR"},{"bufferView":97,"componentType":5126,"count":1048,"max":[2.3504602909088135,6.0242204666137695,0.4287639856338501],"min":[-2.2699174880981445,-0.02262175641953945,-0.43797388672828674],"type":"VEC3"},{"bufferView":98,"componentType":5126,"count":1048,"type":"VEC3"},{"bufferView":99,"componentType":5126,"count":1048,"type":"VEC2"},{"bufferView":100,"componentType":5126,"count":1048,"type":"VEC2"},{"bufferView":101,"componentType":5123,"count":4158,"type":"SCALAR"},{"bufferView":102,"componentType":5126,"count":254,"max":[2,0.2946915328502655,0.5849335789680481],"min":[-2,-3.0174851417541504e-07,0.31276991963386536],"type":"VEC3"},{"bufferView":103,"componentType":5126,"count":254,"type":"VEC3"},{"bufferView":104,"componentType":5126,"count":254,"type":"VEC2"},{"bufferView":105,"componentType":5126,"count":254,"type":"VEC2"},{"bufferView":106,"componentType":5123,"count":906,"type":"SCALAR"},{"bufferView":107,"componentType":5126,"count":2496,"max":[0.33496811985969543,1.2025582790374756,0.3448777198791504],"min":[-0.33496811985969543,-2.9802322387695312e-08,-0.39887332916259766],"type":"VEC3"},{"bufferView":108,"componentType":5126,"count":2496,"type":"VEC3"},{"bufferView":109,"componentType":5126,"count":2496,"type":"VEC2"},{"bufferView":110,"componentType":5126,"count":2496,"type":"VEC2"},{"bufferView":111,"componentType":5123,"count":9972,"type":"SCALAR"},{"bufferView":112,"componentType":5126,"count":509,"max":[0.39473864436149597,1.2359495162963867,0.39473864436149597],"min":[-0.39473864436149597,-0.12311287224292755,-0.39473864436149597],"type":"VEC3"},{"bufferView":113,"componentType":5126,"count":509,"type":"VEC3"},{"bufferView":114,"componentType":5126,"count":509,"type":"VEC2"},{"bufferView":115,"componentType":5126,"count":509,"type":"VEC2"},{"bufferView":116,"componentType":5123,"count":2112,"type":"SCALAR"},{"bufferView":117,"componentType":5126,"count":429,"max":[2.270226240158081,2.978356122970581,0.42582595348358154],"min":[-2.00569486618042,-0.02262175641953945,-0.42582595348358154],"type":"VEC3"},{"bufferView":118,"componentType":5126,"count":429,"type":"VEC3"},{"bufferView":119,"componentType":5126,"count":429,"type":"VEC2"},{"bufferView":120,"componentType":5126,"count":429,"type":"VEC2"},{"bufferView":121,"componentType":5123,"count":1512,"type":"SCALAR"},{"bufferView":122,"componentType":5126,"count":4265,"max":[5.037600517272949,6.843289375305176,3.3966786861419678],"min":[-5.224124431610107,-6.786053657531738,-3.7081243991851807],"type":"VEC3"},{"bufferView":123,"componentType":5126,"count":4265,"type":"VEC3"},{"bufferView":124,"componentType":5126,"count":4265,"type":"VEC2"},{"bufferView":125,"componentType":5126,"count":4265,"type":"VEC2"},{"bufferView":126,"componentType":5126,"count":4265,"type":"VEC3"},{"bufferView":127,"componentType":5123,"count":22374,"type":"SCALAR"},{"bufferView":128,"componentType":5126,"count":2158,"max":[0.4840944707393646,0.8245250582695007,0.4840944707393646],"min":[-0.4832984507083893,-3.3683022593322676e-08,-0.4840944707393646],"type":"VEC3"},{"bufferView":129,"componentType":5126,"count":2158,"type":"VEC3"},{"bufferView":130,"componentType":5126,"count":2158,"type":"VEC2"},{"bufferView":131,"componentType":5126,"count":2158,"type":"VEC2"},{"bufferView":132,"componentType":5123,"count":8100,"type":"SCALAR"},{"bufferView":133,"componentType":5126,"count":570,"max":[2.1651394367218018,1,2.165144920349121],"min":[-2.1897976398468018,-0.12940102815628052,-2.189793586730957],"type":"VEC3"},{"bufferView":134,"componentType":5126,"count":570,"type":"VEC3"},{"bufferView":135,"componentType":5126,"count":570,"type":"VEC2"},{"bufferView":136,"componentType":5126,"count":570,"type":"VEC2"},{"bufferView":137,"componentType":5123,"count":1404,"type":"SCALAR"},{"bufferView":138,"componentType":5126,"count":987,"max":[1.9999992847442627,3.4173145294189453,2.0000009536743164],"min":[-2.000000476837158,0.20888829231262207,-1.9999998807907104],"type":"VEC3"},{"bufferView":139,"componentType":5126,"count":987,"type":"VEC3"},{"bufferView":140,"componentType":5126,"count":987,"type":"VEC2"},{"bufferView":141,"componentType":5126,"count":987,"type":"VEC2"},{"bufferView":142,"componentType":5123,"count":1944,"type":"SCALAR"},{"bufferView":143,"componentType":5126,"count":188,"max":[2.0000009536743164,3.1999998092651367,1.9999990463256836],"min":[-2.0579192638397217,-0.4815950095653534,-2.0570156574249268],"type":"VEC3"},{"bufferView":144,"componentType":5126,"count":188,"type":"VEC3"},{"bufferView":145,"componentType":5126,"count":188,"type":"VEC2"},{"bufferView":146,"componentType":5126,"count":188,"type":"VEC2"},{"bufferView":147,"componentType":5123,"count":600,"type":"SCALAR"},{"bufferView":148,"componentType":5126,"count":565,"max":[0.3188522160053253,6.005483150482178,0.3144216239452362],"min":[-0.3257274627685547,-0.0024521369487047195,-0.3141588866710663],"type":"VEC3"},{"bufferView":149,"componentType":5126,"count":565,"type":"VEC3"},{"bufferView":150,"componentType":5126,"count":565,"type":"VEC2"},{"bufferView":151,"componentType":5126,"count":565,"type":"VEC2"},{"bufferView":152,"componentType":5123,"count":2196,"type":"SCALAR"},{"bufferView":153,"componentType":5126,"count":1553,"max":[1.9528251886367798,0.22082580626010895,0.42744389176368713],"min":[-1.9528251886367798,-5.388362884521484,-0.16948732733726501],"type":"VEC3"},{"bufferView":154,"componentType":5126,"count":1553,"type":"VEC3"},{"bufferView":155,"componentType":5126,"count":1553,"type":"VEC2"},{"bufferView":156,"componentType":5126,"count":1553,"type":"VEC2"},{"bufferView":157,"componentType":5123,"count":6780,"type":"SCALAR"},{"bufferView":158,"componentType":5126,"count":366,"max":[2.4051265716552734,0.2946915328502655,2.4011425971984863],"min":[-1.7734439373016357,5.122274160385132e-09,-1.7797691822052002],"type":"VEC3"},{"bufferView":159,"componentType":5126,"count":366,"type":"VEC3"},{"bufferView":160,"componentType":5126,"count":366,"type":"VEC2"},{"bufferView":161,"componentType":5126,"count":366,"type":"VEC2"},{"bufferView":162,"componentType":5123,"count":1338,"type":"SCALAR"},{"bufferView":163,"componentType":5126,"count":175,"max":[2.0142815113067627,0.417314738035202,0.8337498307228088],"min":[-2.0124964714050293,-0.1463296115398407,-9.547525223752018e-07],"type":"VEC3"},{"bufferView":164,"componentType":5126,"count":175,"type":"VEC3"},{"bufferView":165,"componentType":5126,"count":175,"type":"VEC2"},{"bufferView":166,"componentType":5126,"count":175,"type":"VEC2"},{"bufferView":167,"componentType":5123,"count":504,"type":"SCALAR"},{"bufferView":168,"componentType":5126,"count":964,"max":[2.3504602909088135,6.0242204666137695,0.426658570766449],"min":[-2.2699174880981445,-0.02262175641953945,-0.426658570766449],"type":"VEC3"},{"bufferView":169,"componentType":5126,"count":964,"type":"VEC3"},{"bufferView":170,"componentType":5126,"count":964,"type":"VEC2"},{"bufferView":171,"componentType":5126,"count":964,"type":"VEC2"},{"bufferView":172,"componentType":5123,"count":3588,"type":"SCALAR"},{"bufferView":173,"componentType":5126,"count":2922,"max":[1.2893227338790894,5.409360885620117,0.4964955747127533],"min":[-1.2893227338790894,0.4593014717102051,-0.4964955747127533],"type":"VEC3"},{"bufferView":174,"componentType":5126,"count":2922,"type":"VEC3"},{"bufferView":175,"componentType":5126,"count":2922,"type":"VEC2"},{"bufferView":176,"componentType":5126,"count":2922,"type":"VEC2"},{"bufferView":177,"componentType":5123,"count":6168,"type":"SCALAR"},{"bufferView":178,"componentType":5126,"count":4,"max":[1.355737566947937,5.347723484039307,0],"min":[-1.355737566947937,0.3351719379425049,0],"type":"VEC3"},{"bufferView":179,"componentType":5126,"count":4,"type":"VEC3"},{"bufferView":180,"componentType":5126,"count":4,"type":"VEC2"},{"bufferView":181,"componentType":5126,"count":4,"type":"VEC2"},{"bufferView":182,"componentType":5123,"count":6,"type":"SCALAR"},{"bufferView":183,"componentType":5126,"count":622,"max":[0.25098201632499695,1,4.000012397766113],"min":[-0.2546418607234955,-3.1294009685516357,-1.645100928726606e-05],"type":"VEC3"},{"bufferView":184,"componentType":5126,"count":622,"type":"VEC3"},{"bufferView":185,"componentType":5126,"count":622,"type":"VEC2"},{"bufferView":186,"componentType":5126,"count":622,"type":"VEC2"},{"bufferView":187,"componentType":5123,"count":1548,"type":"SCALAR"},{"bufferView":188,"componentType":5126,"count":1277,"max":[1.9528251886367798,0.22082580626010895,0.4180440306663513],"min":[-1.9528251886367798,-2.263655424118042,-0.16948732733726501],"type":"VEC3"},{"bufferView":189,"componentType":5126,"count":1277,"type":"VEC3"},{"bufferView":190,"componentType":5126,"count":1277,"type":"VEC2"},{"bufferView":191,"componentType":5126,"count":1277,"type":"VEC2"},{"bufferView":192,"componentType":5123,"count":5508,"type":"SCALAR"},{"bufferView":193,"componentType":5126,"count":1275,"max":[3.5537283420562744,9.484169960021973,3.4337213039398193],"min":[-3.0713250637054443,-1.0320329666137695,-2.8968093395233154],"type":"VEC3"},{"bufferView":194,"componentType":5126,"count":1275,"type":"VEC3"},{"bufferView":195,"componentType":5126,"count":1275,"type":"VEC2"},{"bufferView":196,"componentType":5126,"count":1275,"type":"VEC2"},{"bufferView":197,"componentType":5126,"count":1275,"type":"VEC3"},{"bufferView":198,"componentType":5123,"count":1275,"normalized":true,"type":"VEC4"},{"bufferView":199,"componentType":5123,"count":5718,"type":"SCALAR"},{"bufferView":200,"componentType":5126,"count":1920,"max":[6.43494987487793,15.562984466552734,6.57190465927124],"min":[-5.903852462768555,4.755402088165283,-5.87698221206665],"type":"VEC3"},{"bufferView":201,"componentType":5126,"count":1920,"type":"VEC3"},{"bufferView":202,"componentType":5126,"count":1920,"type":"VEC2"},{"bufferView":203,"componentType":5126,"count":1920,"type":"VEC2"},{"bufferView":204,"componentType":5126,"count":1920,"type":"VEC3"},{"bufferView":205,"componentType":5123,"count":1920,"normalized":true,"type":"VEC4"},{"bufferView":206,"componentType":5123,"count":2880,"type":"SCALAR"},{"bufferView":207,"componentType":5126,"count":576,"max":[2.270226240158081,3.023193836212158,0.426658570766449],"min":[-2.222656726837158,-0.02262175641953945,-0.426658570766449],"type":"VEC3"},{"bufferView":208,"componentType":5126,"count":576,"type":"VEC3"},{"bufferView":209,"componentType":5126,"count":576,"type":"VEC2"},{"bufferView":210,"componentType":5126,"count":576,"type":"VEC2"},{"bufferView":211,"componentType":5123,"count":2172,"type":"SCALAR"},{"bufferView":212,"componentType":5126,"count":206,"max":[2.579681873321533,0.4173301160335541,2.579680919647217],"min":[-2.0079424381256104,-0.14634081721305847,-2.013134241104126],"type":"VEC3"},{"bufferView":213,"componentType":5126,"count":206,"type":"VEC3"},{"bufferView":214,"componentType":5126,"count":206,"type":"VEC2"},{"bufferView":215,"componentType":5126,"count":206,"type":"VEC2"},{"bufferView":216,"componentType":5123,"count":504,"type":"SCALAR"},{"bufferView":217,"componentType":5126,"count":960,"max":[1.425001621246338,1.0797010660171509,0.770141065120697],"min":[-1.4109971523284912,-3.307366371154785,-0.5012217164039612],"type":"VEC3"},{"bufferView":218,"componentType":5126,"count":960,"type":"VEC3"},{"bufferView":219,"componentType":5126,"count":960,"type":"VEC2"},{"bufferView":220,"componentType":5126,"count":960,"type":"VEC2"},{"bufferView":221,"componentType":5123,"count":960,"normalized":true,"type":"VEC4"},{"bufferView":222,"componentType":5123,"count":960,"normalized":true,"type":"VEC4"},{"bufferView":223,"componentType":5123,"count":1440,"type":"SCALAR"},{"bufferView":224,"componentType":5126,"count":2413,"max":[0.22316564619541168,0.686658501625061,0.09648145735263824],"min":[-0.22316882014274597,0.0005526086897589266,-0.09648463875055313],"type":"VEC3"},{"bufferView":225,"componentType":5126,"count":2413,"type":"VEC3"},{"bufferView":226,"componentType":5126,"count":2413,"type":"VEC2"},{"bufferView":227,"componentType":5126,"count":2413,"type":"VEC2"},{"bufferView":228,"componentType":5123,"count":8244,"type":"SCALAR"},{"bufferView":229,"componentType":5126,"count":1130,"max":[2.494168758392334,6.0242204666137695,2.4628281593322754],"min":[-2.4628281593322754,-0.02262175641953945,-2.494168758392334],"type":"VEC3"},{"bufferView":230,"componentType":5126,"count":1130,"type":"VEC3"},{"bufferView":231,"componentType":5126,"count":1130,"type":"VEC2"},{"bufferView":232,"componentType":5126,"count":1130,"type":"VEC2"},{"bufferView":233,"componentType":5123,"count":4278,"type":"SCALAR"},{"bufferView":234,"componentType":5126,"count":2553,"max":[1.2627629041671753,5.409360885620117,1.2627655267715454],"min":[-1.262765645980835,0.4593014717102051,-1.2627627849578857],"type":"VEC3"},{"bufferView":235,"componentType":5126,"count":2553,"type":"VEC3"},{"bufferView":236,"componentType":5126,"count":2553,"type":"VEC2"},{"bufferView":237,"componentType":5126,"count":2553,"type":"VEC2"},{"bufferView":238,"componentType":5123,"count":6168,"type":"SCALAR"},{"bufferView":239,"componentType":5126,"count":4,"max":[0.9586499333381653,5.347723484039307,0.9586524963378906],"min":[-0.9586526155471802,0.3351719379425049,-0.9586498141288757],"type":"VEC3"},{"bufferView":240,"componentType":5126,"count":4,"type":"VEC3"},{"bufferView":241,"componentType":5126,"count":4,"type":"VEC2"},{"bufferView":242,"componentType":5126,"count":4,"type":"VEC2"}],"bufferViews":[{"buffer":0,"byteLength":2676,"byteOffset":0,"target":34962},{"buffer":0,"byteLength":2676,"byteOffset":2676,"target":34962},{"buffer":0,"byteLength":1784,"byteOffset":5352,"target":34962},{"buffer":0,"byteLength":1784,"byteOffset":7136,"target":34962},{"buffer":0,"byteLength":1416,"byteOffset":8920,"target":34963},{"buffer":0,"byteLength":11760,"byteOffset":10336,"target":34962},{"buffer":0,"byteLength":11760,"byteOffset":22096,"target":34962},{"buffer":0,"byteLength":7840,"byteOffset":33856,"target":34962},{"buffer":0,"byteLength":7840,"byteOffset":41696,"target":34962},{"buffer":0,"byteLength":7668,"byteOffset":49536,"target":34963},{"buffer":0,"byteLength":6144,"byteOffset":57204,"target":34962},{"buffer":0,"byteLength":6144,"byteOffset":63348,"target":34962},{"buffer":0,"byteLength":4096,"byteOffset":69492,"target":34962},{"buffer":0,"byteLength":4096,"byteOffset":73588,"target":34962},{"buffer":0,"byteLength":2376,"byteOffset":77684,"target":34963},{"buffer":0,"byteLength":2892,"byteOffset":80060,"target":34962},{"buffer":0,"byteLength":2892,"byteOffset":82952,"target":34962},{"buffer":0,"byteLength":1928,"byteOffset":85844,"target":34962},{"buffer":0,"byteLength":1928,"byteOffset":87772,"target":34962},{"buffer":0,"byteLength":1944,"byteOffset":89700,"target":34963},{"buffer":0,"byteLength":240,"byteOffset":91644,"target":34962},{"buffer":0,"byteLength":240,"byteOffset":91884,"target":34962},{"buffer":0,"byteLength":160,"byteOffset":92124,"target":34962},{"buffer":0,"byteLength":160,"byteOffset":92284,"target":34962},{"buffer":0,"byteLength":72,"byteOffset":92444,"target":34963},{"buffer":0,"byteLength":1248,"byteOffset":92516,"target":34962},{"buffer":0,"byteLength":1248,"byteOffset":93764,"target":34962},{"buffer":0,"byteLength":832,"byteOffset":95012,"target":34962},{"buffer":0,"byteLength":832,"byteOffset":95844,"target":34962},{"buffer":0,"byteLength":456,"byteOffset":96676,"target":34963},{"buffer":0,"byteLength":1488,"byteOffset":97132,"target":34962},{"buffer":0,"byteLength":1488,"byteOffset":98620,"target":34962},{"buffer":0,"byteLength":992,"byteOffset":100108,"target":34962},{"buffer":0,"byteLength":992,"byteOffset":101100,"target":34962},{"buffer":0,"byteLength":696,"byteOffset":102092,"target":34963},{"buffer":0,"byteLength":4872,"byteOffset":102788,"target":34962},{"buffer":0,"byteLength":4872,"byteOffset":107660,"target":34962},{"buffer":0,"byteLength":3248,"byteOffset":112532,"target":34962},{"buffer":0,"byteLength":3248,"byteOffset":115780,"target":34962},{"buffer":0,"byteLength":4008,"byteOffset":119028,"target":34963},{"buffer":0,"byteLength":5856,"byteOffset":123036,"target":34962},{"buffer":0,"byteLength":5856,"byteOffset":128892,"target":34962},{"buffer":0,"byteLength":3904,"byteOffset":134748,"target":34962},{"buffer":0,"byteLength":3904,"byteOffset":138652,"target":34962},{"buffer":0,"byteLength":2424,"byteOffset":142556,"target":34963},{"buffer":0,"byteLength":13824,"byteOffset":144980,"target":34962},{"buffer":0,"byteLength":13824,"byteOffset":158804,"target":34962},{"buffer":0,"byteLength":9216,"byteOffset":172628,"target":34962},{"buffer":0,"byteLength":9216,"byteOffset":181844,"target":34962},{"buffer":0,"byteLength":8856,"byteOffset":191060,"target":34963},{"buffer":0,"byteLength":12264,"byteOffset":199916,"target":34962},{"buffer":0,"byteLength":12264,"byteOffset":212180,"target":34962},{"buffer":0,"byteLength":8176,"byteOffset":224444,"target":34962},{"buffer":0,"byteLength":8176,"byteOffset":232620,"target":34962},{"buffer":0,"byteLength":7728,"byteOffset":240796,"target":34963},{"buffer":0,"byteLength":8640,"byteOffset":248524,"target":34962},{"buffer":0,"byteLength":8640,"byteOffset":257164,"target":34962},{"buffer":0,"byteLength":5760,"byteOffset":265804,"target":34962},{"buffer":0,"byteLength":5760,"byteOffset":271564,"target":34962},{"buffer":0,"byteLength":2496,"byteOffset":277324,"target":34963},{"buffer":0,"byteLength":48,"byteOffset":279820,"target":34962},{"buffer":0,"byteLength":48,"byteOffset":279868,"target":34962},{"buffer":0,"byteLength":32,"byteOffset":279916,"target":34962},{"buffer":0,"byteLength":32,"byteOffset":279948,"target":34962},{"buffer":0,"byteLength":12,"byteOffset":279980,"target":34963},{"buffer":0,"byteLength":7200,"byteOffset":279992,"target":34962},{"buffer":0,"byteLength":7200,"byteOffset":287192,"target":34962},{"buffer":0,"byteLength":4800,"byteOffset":294392,"target":34962},{"buffer":0,"byteLength":4800,"byteOffset":299192,"target":34962},{"buffer":0,"byteLength":4800,"byteOffset":303992,"target":34962},{"buffer":0,"byteLength":4800,"byteOffset":308792,"target":34962},{"buffer":0,"byteLength":1800,"byteOffset":313592,"target":34963},{"buffer":0,"byteLength":216,"byteOffset":315392,"target":34962},{"buffer":0,"byteLength":216,"byteOffset":315608,"target":34962},{"buffer":0,"byteLength":144,"byteOffset":315824,"target":34962},{"buffer":0,"byteLength":144,"byteOffset":315968,"target":34962},{"buffer":0,"byteLength":48,"byteOffset":316112,"target":34963},{"buffer":0,"byteLength":2952,"byteOffset":316160,"target":34962},{"buffer":0,"byteLength":2952,"byteOffset":319112,"target":34962},{"buffer":0,"byteLength":1968,"byteOffset":322064,"target":34962},{"buffer":0,"byteLength":1968,"byteOffset":324032,"target":34962},{"buffer":0,"byteLength":1536,"byteOffset":326000,"target":34963},{"buffer":0,"byteLength":4860,"byteOffset":327536,"target":34962},{"buffer":0,"byteLength":4860,"byteOffset":332396,"target":34962},{"buffer":0,"byteLength":3240,"byteOffset":337256,"target":34962},{"buffer":0,"byteLength":3240,"byteOffset":340496,"target":34962},{"buffer":0,"byteLength":2016,"byteOffset":343736,"target":34963},{"buffer":0,"byteLength":4272,"byteOffset":345752,"target":34962},{"buffer":0,"byteLength":4272,"byteOffset":350024,"target":34962},{"buffer":0,"byteLength":2848,"byteOffset":354296,"target":34962},{"buffer":0,"byteLength":2848,"byteOffset":357144,"target":34962},{"buffer":0,"byteLength":2700,"byteOffset":359992,"target":34963},{"buffer":0,"byteLength":25236,"byteOffset":362692,"target":34962},{"buffer":0,"byteLength":25236,"byteOffset":387928,"target":34962},{"buffer":0,"byteLength":16824,"byteOffset":413164,"target":34962},{"buffer":0,"byteLength":16824,"byteOffset":429988,"target":34962},{"buffer":0,"byteLength":15720,"byteOffset":446812,"target":34963},{"buffer":0,"byteLength":12576,"byteOffset":462532,"target":34962},{"buffer":0,"byteLength":12576,"byteOffset":475108,"target":34962},{"buffer":0,"byteLength":8384,"byteOffset":487684,"target":34962},{"buffer":0,"byteLength":8384,"byteOffset":496068,"target":34962},{"buffer":0,"byteLength":8316,"byteOffset":504452,"target":34963},{"buffer":0,"byteLength":3048,"byteOffset":512768,"target":34962},{"buffer":0,"byteLength":3048,"byteOffset":515816,"target":34962},{"buffer":0,"byteLength":2032,"byteOffset":518864,"target":34962},{"buffer":0,"byteLength":2032,"byteOffset":520896,"target":34962},{"buffer":0,"byteLength":1812,"byteOffset":522928,"target":34963},{"buffer":0,"byteLength":29952,"byteOffset":524740,"target":34962},{"buffer":0,"byteLength":29952,"byteOffset":554692,"target":34962},{"buffer":0,"byteLength":19968,"byteOffset":584644,"target":34962},{"buffer":0,"byteLength":19968,"byteOffset":604612,"target":34962},{"buffer":0,"byteLength":19944,"byteOffset":624580,"target":34963},{"buffer":0,"byteLength":6108,"byteOffset":644524,"target":34962},{"buffer":0,"byteLength":6108,"byteOffset":650632,"target":34962},{"buffer":0,"byteLength":4072,"byteOffset":656740,"target":34962},{"buffer":0,"byteLength":4072,"byteOffset":660812,"target":34962},{"buffer":0,"byteLength":4224,"byteOffset":664884,"target":34963},{"buffer":0,"byteLength":5148,"byteOffset":669108,"target":34962},{"buffer":0,"byteLength":5148,"byteOffset":674256,"target":34962},{"buffer":0,"byteLength":3432,"byteOffset":679404,"target":34962},{"buffer":0,"byteLength":3432,"byteOffset":682836,"target":34962},{"buffer":0,"byteLength":3024,"byteOffset":686268,"target":34963},{"buffer":0,"byteLength":51180,"byteOffset":689292,"target":34962},{"buffer":0,"byteLength":51180,"byteOffset":740472,"target":34962},{"buffer":0,"byteLength":34120,"byteOffset":791652,"target":34962},{"buffer":0,"byteLength":34120,"byteOffset":825772,"target":34962},{"buffer":0,"byteLength":51180,"byteOffset":859892,"target":34962},{"buffer":0,"byteLength":44748,"byteOffset":911072,"target":34963},{"buffer":0,"byteLength":25896,"byteOffset":955820,"target":34962},{"buffer":0,"byteLength":25896,"byteOffset":981716,"target":34962},{"buffer":0,"byteLength":17264,"byteOffset":1007612,"target":34962},{"buffer":0,"byteLength":17264,"byteOffset":1024876,"target":34962},{"buffer":0,"byteLength":16200,"byteOffset":1042140,"target":34963},{"buffer":0,"byteLength":6840,"byteOffset":1058340,"target":34962},{"buffer":0,"byteLength":6840,"byteOffset":1065180,"target":34962},{"buffer":0,"byteLength":4560,"byteOffset":1072020,"target":34962},{"buffer":0,"byteLength":4560,"byteOffset":1076580,"target":34962},{"buffer":0,"byteLength":2808,"byteOffset":1081140,"target":34963},{"buffer":0,"byteLength":11844,"byteOffset":1083948,"target":34962},{"buffer":0,"byteLength":11844,"byteOffset":1095792,"target":34962},{"buffer":0,"byteLength":7896,"byteOffset":1107636,"target":34962},{"buffer":0,"byteLength":7896,"byteOffset":1115532,"target":34962},{"buffer":0,"byteLength":3888,"byteOffset":1123428,"target":34963},{"buffer":0,"byteLength":2256,"byteOffset":1127316,"target":34962},{"buffer":0,"byteLength":2256,"byteOffset":1129572,"target":34962},{"buffer":0,"byteLength":1504,"byteOffset":1131828,"target":34962},{"buffer":0,"byteLength":1504,"byteOffset":1133332,"target":34962},{"buffer":0,"byteLength":1200,"byteOffset":1134836,"target":34963},{"buffer":0,"byteLength":6780,"byteOffset":1136036,"target":34962},{"buffer":0,"byteLength":6780,"byteOffset":1142816,"target":34962},{"buffer":0,"byteLength":4520,"byteOffset":1149596,"target":34962},{"buffer":0,"byteLength":4520,"byteOffset":1154116,"target":34962},{"buffer":0,"byteLength":4392,"byteOffset":1158636,"target":34963},{"buffer":0,"byteLength":18636,"byteOffset":1163028,"target":34962},{"buffer":0,"byteLength":18636,"byteOffset":1181664,"target":34962},{"buffer":0,"byteLength":12424,"byteOffset":1200300,"target":34962},{"buffer":0,"byteLength":12424,"byteOffset":1212724,"target":34962},{"buffer":0,"byteLength":13560,"byteOffset":1225148,"target":34963},{"buffer":0,"byteLength":4392,"byteOffset":1238708,"target":34962},{"buffer":0,"byteLength":4392,"byteOffset":1243100,"target":34962},{"buffer":0,"byteLength":2928,"byteOffset":1247492,"target":34962},{"buffer":0,"byteLength":2928,"byteOffset":1250420,"target":34962},{"buffer":0,"byteLength":2676,"byteOffset":1253348,"target":34963},{"buffer":0,"byteLength":2100,"byteOffset":1256024,"target":34962},{"buffer":0,"byteLength":2100,"byteOffset":1258124,"target":34962},{"buffer":0,"byteLength":1400,"byteOffset":1260224,"target":34962},{"buffer":0,"byteLength":1400,"byteOffset":1261624,"target":34962},{"buffer":0,"byteLength":1008,"byteOffset":1263024,"target":34963},{"buffer":0,"byteLength":11568,"byteOffset":1264032,"target":34962},{"buffer":0,"byteLength":11568,"byteOffset":1275600,"target":34962},{"buffer":0,"byteLength":7712,"byteOffset":1287168,"target":34962},{"buffer":0,"byteLength":7712,"byteOffset":1294880,"target":34962},{"buffer":0,"byteLength":7176,"byteOffset":1302592,"target":34963},{"buffer":0,"byteLength":35064,"byteOffset":1309768,"target":34962},{"buffer":0,"byteLength":35064,"byteOffset":1344832,"target":34962},{"buffer":0,"byteLength":23376,"byteOffset":1379896,"target":34962},{"buffer":0,"byteLength":23376,"byteOffset":1403272,"target":34962},{"buffer":0,"byteLength":12336,"byteOffset":1426648,"target":34963},{"buffer":0,"byteLength":48,"byteOffset":1438984,"target":34962},{"buffer":0,"byteLength":48,"byteOffset":1439032,"target":34962},{"buffer":0,"byteLength":32,"byteOffset":1439080,"target":34962},{"buffer":0,"byteLength":32,"byteOffset":1439112,"target":34962},{"buffer":0,"byteLength":12,"byteOffset":1439144,"target":34963},{"buffer":0,"byteLength":7464,"byteOffset":1439156,"target":34962},{"buffer":0,"byteLength":7464,"byteOffset":1446620,"target":34962},{"buffer":0,"byteLength":4976,"byteOffset":1454084,"target":34962},{"buffer":0,"byteLength":4976,"byteOffset":1459060,"target":34962},{"buffer":0,"byteLength":3096,"byteOffset":1464036,"target":34963},{"buffer":0,"byteLength":15324,"byteOffset":1467132,"target":34962},{"buffer":0,"byteLength":15324,"byteOffset":1482456,"target":34962},{"buffer":0,"byteLength":10216,"byteOffset":1497780,"target":34962},{"buffer":0,"byteLength":10216,"byteOffset":1507996,"target":34962},{"buffer":0,"byteLength":11016,"byteOffset":1518212,"target":34963},{"buffer":0,"byteLength":15300,"byteOffset":1529228,"target":34962},{"buffer":0,"byteLength":15300,"byteOffset":1544528,"target":34962},{"buffer":0,"byteLength":10200,"byteOffset":1559828,"target":34962},{"buffer":0,"byteLength":10200,"byteOffset":1570028,"target":34962},{"buffer":0,"byteLength":15300,"byteOffset":1580228,"target":34962},{"buffer":0,"byteLength":10200,"byteOffset":1595528,"target":34962},{"buffer":0,"byteLength":11436,"byteOffset":1605728,"target":34963},{"buffer":0,"byteLength":23040,"byteOffset":1617164,"target":34962},{"buffer":0,"byteLength":23040,"byteOffset":1640204,"target":34962},{"buffer":0,"byteLength":15360,"byteOffset":1663244,"target":34962},{"buffer":0,"byteLength":15360,"byteOffset":1678604,"target":34962},{"buffer":0,"byteLength":23040,"byteOffset":1693964,"target":34962},{"buffer":0,"byteLength":15360,"byteOffset":1717004,"target":34962},{"buffer":0,"byteLength":5760,"byteOffset":1732364,"target":34963},{"buffer":0,"byteLength":6912,"byteOffset":1738124,"target":34962},{"buffer":0,"byteLength":6912,"byteOffset":1745036,"target":34962},{"buffer":0,"byteLength":4608,"byteOffset":1751948,"target":34962},{"buffer":0,"byteLength":4608,"byteOffset":1756556,"target":34962},{"buffer":0,"byteLength":4344,"byteOffset":1761164,"target":34963},{"buffer":0,"byteLength":2472,"byteOffset":1765508,"target":34962},{"buffer":0,"byteLength":2472,"byteOffset":1767980,"target":34962},{"buffer":0,"byteLength":1648,"byteOffset":1770452,"target":34962},{"buffer":0,"byteLength":1648,"byteOffset":1772100,"target":34962},{"buffer":0,"byteLength":1008,"byteOffset":1773748,"target":34963},{"buffer":0,"byteLength":11520,"byteOffset":1774756,"target":34962},{"buffer":0,"byteLength":11520,"byteOffset":1786276,"target":34962},{"buffer":0,"byteLength":7680,"byteOffset":1797796,"target":34962},{"buffer":0,"byteLength":7680,"byteOffset":1805476,"target":34962},{"buffer":0,"byteLength":7680,"byteOffset":1813156,"target":34962},{"buffer":0,"byteLength":7680,"byteOffset":1820836,"target":34962},{"buffer":0,"byteLength":2880,"byteOffset":1828516,"target":34963},{"buffer":0,"byteLength":28956,"byteOffset":1831396,"target":34962},{"buffer":0,"byteLength":28956,"byteOffset":1860352,"target":34962},{"buffer":0,"byteLength":19304,"byteOffset":1889308,"target":34962},{"buffer":0,"byteLength":19304,"byteOffset":1908612,"target":34962},{"buffer":0,"byteLength":16488,"byteOffset":1927916,"target":34963},{"buffer":0,"byteLength":13560,"byteOffset":1944404,"target":34962},{"buffer":0,"byteLength":13560,"byteOffset":1957964,"target":34962},{"buffer":0,"byteLength":9040,"byteOffset":1971524,"target":34962},{"buffer":0,"byteLength":9040,"byteOffset":1980564,"target":34962},{"buffer":0,"byteLength":8556,"byteOffset":1989604,"target":34963},{"buffer":0,"byteLength":30636,"byteOffset":1998160,"target":34962},{"buffer":0,"byteLength":30636,"byteOffset":2028796,"target":34962},{"buffer":0,"byteLength":20424,"byteOffset":2059432,"target":34962},{"buffer":0,"byteLength":20424,"byteOffset":2079856,"target":34962},{"buffer":0,"byteLength":12336,"byteOffset":2100280,"target":34963},{"buffer":0,"byteLength":48,"byteOffset":2112616,"target":34962},{"buffer":0,"byteLength":48,"byteOffset":2112664,"target":34962},{"buffer":0,"byteLength":32,"byteOffset":2112712,"target":34962},{"buffer":0,"byteLength":32,"byteOffset":2112744,"target":34962}],"samplers":[{"magFilter":9729,"minFilter":9987}],"buffers":[{"byteLength":2112776,"uri":"cell_x-2_z2_render.bin"}]}