{
  "asset": {
    "generator": "Khronos glTF Blender I/O v5.0.21",
    "version": "2.0"
  },
  "extensionsUsed": [
    "KHR_materials_clearcoat",
    "KHR_materials_specular",
    "KHR_materials_ior",
    "KHR_texture_transform"
  ],
  "extensionsRequired": [
    "KHR_texture_transform"
  ],
  "scene": 0,
  "scenes": [
    {
      "name": "Scene",
      "nodes": [
        0,
        1,
        2,
        3,
        4,
        5,
        6,
        7,
        8,
        9,
        10,
        11,
        12,
        13,
        14,
        15,
        16,
        17,
        18,
        19,
        20,
        21,
        22,
        23,
        24,
        25,
        26,
        27,
        28,
        29,
        30,
        31,
        32,
        33,
        34,
        35,
        36,
        37,
        38,
        39,
        40,
        41,
        42,
        43,
        44,
        45,
        46,
        47,
        48,
        49,
        50,
        51,
        52,
        53,
        54,
        55,
        56,
        57,
        58,
        59,
        60,
        61,
        62,
        63,
        64,
        65,
        66,
        67,
        68,
        69,
        70,
        71
      ]
    }
  ],
  "nodes": [
    {
      "mesh": 0,
      "name": "SM_ENV_bush_castle_08_LOD0.001",
      "rotation": [
        0,
        -0.3629070520401001,
        0,
        0.9318253397941589
      ],
      "scale": [
        0.7525100111961365,
        0.7525100708007812,
        0.7525100111961365
      ],
      "translation": [
        67.43850708007812,
        21.588607788085938,
        -30.407852172851562
      ]
    },
    {
      "mesh": 1,
      "name": "SM_PROP_candle_castle_01_LOD0.001",
      "rotation": [
        0,
        -0.5266394019126892,
        0,
        0.8500887751579285
      ],
      "scale": [
        1.7433452606201172,
        0.642387866973877,
        1.7433452606201172
      ],
      "translation": [
        68.9091796875,
        14.331314086914062,
        -14.13509750366211
      ]
    },
    {
      "mesh": 1,
      "name": "SM_PROP_candle_castle_01_LOD0.002",
      "rotation": [
        0,
        -0.9996204376220703,
        0,
        0.027553124353289604
      ],
      "scale": [
        2.1119682788848877,
        0.8788951635360718,
        2.1119682788848877
      ],
      "translation": [
        68.79348754882812,
        14.331283569335938,
        -14.078121185302734
      ]
    },
    {
      "mesh": 0,
      "name": "SM_ENV_bush_castle_08_LOD0.006",
      "rotation": [
        0,
        -0.38268324732780457,
        0,
        0.9238797426223755
      ],
      "scale": [
        0.8185664415359497,
        0.8185663819313049,
        0.8185664415359497
      ],
      "translation": [
        71.44851684570312,
        19.838607788085938,
        -20.41785430908203
      ]
    },
    {
      "mesh": 2,
      "name": "SM_MOD_tower_segment_window_castle_LOD0.004",
      "rotation": [
        0,
        0.2588105797767639,
        0,
        0.9659281373023987
      ],
      "scale": [
        0.7613499760627747,
        0.7613499760627747,
        0.7613499760627747
      ],
      "translation": [
        90.95851135253906,
        39.737213134765625,
        -4.6278533935546875
      ]
    },
    {
      "mesh": 3,
      "name": "SM_MOD_tower_roof_castle_LOD0.001",
      "rotation": [
        0,
        0.25880932807922363,
        0,
        0.9659284353256226
      ],
      "scale": [
        0.7059358358383179,
        0.7059357762336731,
        0.7059358358383179
      ],
      "translation": [
        64.95851135253906,
        35.860107421875,
        -27.877853393554688
      ]
    },
    {
      "mesh": 1,
      "name": "SM_PROP_candle_castle_01_LOD0.003",
      "rotation": [
        0,
        0.09125683456659317,
        0,
        0.9958274960517883
      ],
      "scale": [
        1.530300259590149,
        1.5303001403808594,
        1.530300259590149
      ],
      "translation": [
        69.17698669433594,
        14.33819580078125,
        -13.906864166259766
      ]
    },
    {
      "mesh": 4,
      "name": "SM_ENV_bush_castle_06_LOD0.004",
      "rotation": [
        -0.36225244402885437,
        -0.31588447093963623,
        -0.13199439644813538,
        0.8669300079345703
      ],
      "translation": [
        74.11750793457031,
        22.474609375,
        -19.184852600097656
      ]
    },
    {
      "mesh": 0,
      "name": "SM_ENV_bush_castle_08_LOD0.010",
      "rotation": [
        0,
        -0.5505694150924683,
        0,
        0.8347893953323364
      ],
      "scale": [
        0.7525099515914917,
        0.7525100708007812,
        0.7525099515914917
      ],
      "translation": [
        67.65850830078125,
        16.498611450195312,
        -29.957855224609375
      ]
    },
    {
      "mesh": 5,
      "name": "SM_MOD_tower_segment_base_castle_LOD0.003",
      "rotation": [
        0,
        0.2588105797767639,
        0,
        0.9659281373023987
      ],
      "scale": [
        0.7613499760627747,
        0.7613499760627747,
        0.7613499760627747
      ],
      "translation": [
        90.95851135253906,
        12.32861328125,
        -4.6278533935546875
      ]
    },
    {
      "mesh": 1,
      "name": "SM_PROP_candle_castle_01_LOD0.005",
      "rotation": [
        0,
        0.04326247796416283,
        0,
        0.9990637302398682
      ],
      "scale": [
        1.530300259590149,
        1.3083585500717163,
        1.530300259590149
      ],
      "translation": [
        68.79519653320312,
        14.331283569335938,
        -14.183692932128906
      ]
    },
    {
      "mesh": 6,
      "name": "SM_PROP_statue_castle_01_LOD0.002",
      "rotation": [
        0,
        -0.3017588257789612,
        0,
        0.9533843994140625
      ],
      "scale": [
        0.9486942887306213,
        0.9486941695213318,
        0.9486942887306213
      ],
      "translation": [
        69.58251953125,
        12.4486083984375,
        -14.8238525390625
      ]
    },
    {
      "mesh": 7,
      "name": "SM_MOD_column_02_castle_LOD0.025",
      "rotation": [
        0,
        0.5154981017112732,
        0,
        0.8568907380104065
      ],
      "translation": [
        70.99452209472656,
        12.715911865234375,
        -7.4598541259765625
      ]
    },
    {
      "mesh": 3,
      "name": "SM_MOD_tower_roof_castle_LOD0.003",
      "rotation": [
        0,
        0.2588105797767639,
        0,
        0.9659281373023987
      ],
      "scale": [
        0.7613499760627747,
        0.7613499760627747,
        0.7613499760627747
      ],
      "translation": [
        90.95851135253906,
        46.58937072753906,
        -4.6278533935546875
      ]
    },
    {
      "mesh": 4,
      "name": "SM_ENV_bush_castle_06_LOD0.008",
      "rotation": [
        0,
        -0.3826830983161926,
        0,
        0.9238796830177307
      ],
      "translation": [
        70.81851196289062,
        21.084609985351562,
        -21.017852783203125
      ]
    },
    {
      "mesh": 8,
      "name": "SM_MOD_tower_segment_top_deco_castle_LOD0.002",
      "rotation": [
        0,
        0.2588185966014862,
        0,
        0.965925931930542
      ],
      "scale": [
        0.7059357762336731,
        0.7059357762336731,
        0.7059357762336731
      ],
      "translation": [
        64.95851135253906,
        33.7423095703125,
        -27.877853393554688
      ]
    },
    {
      "mesh": 9,
      "name": "SM_ENV_tree_castle_02_LOD0.007",
      "rotation": [
        0,
        -0.9949266314506531,
        0,
        0.10060305148363113
      ],
      "translation": [
        69.39851379394531,
        12.809890747070312,
        -19.187854766845703
      ]
    },
    {
      "mesh": 10,
      "name": "SM_MOD_floor_broken_castle_02_LOD0.001",
      "rotation": [
        0,
        0.9097731709480286,
        0,
        0.41510578989982605
      ],
      "scale": [
        0.4999999403953552,
        0.5,
        0.4999999403953552
      ],
      "translation": [
        67.21652221679688,
        12.530609130859375,
        -9.98785400390625
      ]
    },
    {
      "mesh": 2,
      "name": "SM_MOD_tower_segment_window_castle_LOD0.007",
      "rotation": [
        0,
        0.25880932807922363,
        0,
        0.9659284353256226
      ],
      "scale": [
        0.7059358358383179,
        0.7059357762336731,
        0.7059358358383179
      ],
      "translation": [
        64.95851135253906,
        29.506683349609375,
        -27.877853393554688
      ]
    },
    {
      "mesh": 5,
      "name": "SM_MOD_tower_segment_base_castle_LOD0.004",
      "rotation": [
        0,
        0.25880932807922363,
        0,
        0.9659284353256226
      ],
      "scale": [
        0.7059358358383179,
        0.7059357762336731,
        0.7059358358383179
      ],
      "translation": [
        64.95851135253906,
        8.32861328125,
        -27.877853393554688
      ]
    },
    {
      "mesh": 11,
      "name": "SM_ENV_cliff_castle_01_LOD0.012",
      "rotation": [
        -0.13338406383991241,
        -0.5970773100852966,
        -0.6747042536735535,
        0.4128941297531128
      ],
      "scale": [
        1.3005000352859497,
        1.3005003929138184,
        1.3004999160766602
      ],
      "translation": [
        80.96852111816406,
        11.998611450195312,
        -9.367855072021484
      ]
    },
    {
      "mesh": 1,
      "name": "SM_PROP_candle_castle_01_LOD0.006",
      "rotation": [
        0,
        -0.9996204376220703,
        0,
        0.027553124353289604
      ],
      "scale": [
        1.5303003787994385,
        1.5303001403808594,
        1.5303003787994385
      ],
      "translation": [
        68.92970275878906,
        14.325286865234375,
        -14.184024810791016
      ]
    },
    {
      "mesh": 12,
      "name": "SM_MOD_tower_segment_wall_castle_LOD0.008",
      "rotation": [
        0,
        0.25880932807922363,
        0,
        0.9659284353256226
      ],
      "scale": [
        0.7059358358383179,
        0.7059357762336731,
        0.7059358358383179
      ],
      "translation": [
        64.95851135253906,
        16.799850463867188,
        -27.877853393554688
      ]
    },
    {
      "mesh": 13,
      "name": "SM_MOD_railing_02_straight_castle_LOD0.070",
      "rotation": [
        0,
        0.6396614909172058,
        0,
        0.7686567306518555
      ],
      "translation": [
        71.40951538085938,
        12.6986083984375,
        -9.554855346679688
      ]
    },
    {
      "mesh": 7,
      "name": "SM_MOD_column_02_castle_LOD0.053",
      "rotation": [
        0,
        0.8610132932662964,
        0,
        0.5085824728012085
      ],
      "translation": [
        65.64251708984375,
        12.623611450195312,
        -15.405853271484375
      ]
    },
    {
      "mesh": 0,
      "name": "SM_ENV_bush_castle_08_LOD0.030",
      "rotation": [
        0,
        -0.38268324732780457,
        0,
        0.9238797426223755
      ],
      "scale": [
        0.7171599268913269,
        0.7171599864959717,
        0.7171599268913269
      ],
      "translation": [
        69.478515625,
        20.688613891601562,
        -22.027854919433594
      ]
    },
    {
      "mesh": 14,
      "name": "SM_MOD_citywall_straight_castle_LOD0.003",
      "rotation": [
        -0.0024730879813432693,
        -0.36014124751091003,
        0.00447029760107398,
        0.9328838586807251
      ],
      "translation": [
        69.3485107421875,
        12.1986083984375,
        -24.07785415649414
      ]
    },
    {
      "mesh": 2,
      "name": "SM_MOD_tower_segment_window_castle_LOD0.009",
      "rotation": [
        0,
        0.2588105797767639,
        0,
        0.9659281373023987
      ],
      "scale": [
        0.7613499760627747,
        0.7613499760627747,
        0.7613499760627747
      ],
      "translation": [
        90.95851135253906,
        30.60101318359375,
        -4.6278533935546875
      ]
    },
    {
      "mesh": 7,
      "name": "SM_MOD_column_02_castle_LOD0.061",
      "rotation": [
        0,
        0.39521685242652893,
        0,
        0.9185879826545715
      ],
      "translation": [
        64.40151977539062,
        13.276611328125,
        -2.804851531982422
      ]
    },
    {
      "mesh": 0,
      "name": "SM_ENV_bush_castle_08_LOD0.034",
      "rotation": [
        0,
        -0.5118556618690491,
        0,
        0.8590714931488037
      ],
      "scale": [
        0.7525100708007812,
        0.7525100708007812,
        0.7525100708007812
      ],
      "translation": [
        67.91851806640625,
        25.168609619140625,
        -29.467849731445312
      ]
    },
    {
      "mesh": 0,
      "name": "SM_ENV_bush_castle_08_LOD0.035",
      "rotation": [
        -0.24708600342273712,
        0,
        0.9689935445785522,
        2.5535882741678506e-07
      ],
      "scale": [
        0.7525101900100708,
        0.7525100111961365,
        0.7525099515914917
      ],
      "translation": [
        66.58851623535156,
        11.068618774414062,
        -30.947853088378906
      ]
    },
    {
      "mesh": 15,
      "name": "SM_ENV_cliff_castle_02_LOD0.020",
      "rotation": [
        0.0942499116063118,
        0.9893969297409058,
        0.011493806727230549,
        0.10990248620510101
      ],
      "scale": [
        1.5124526023864746,
        1.5124527215957642,
        1.5124523639678955
      ],
      "translation": [
        94.56851196289062,
        16.7086181640625,
        -26.64785385131836
      ]
    },
    {
      "mesh": 1,
      "name": "SM_PROP_candle_castle_01_LOD0.010",
      "rotation": [
        0,
        0.8819489479064941,
        0,
        0.4713449776172638
      ],
      "scale": [
        1.7433451414108276,
        0.642387866973877,
        1.7433451414108276
      ],
      "translation": [
        68.91127014160156,
        14.344223022460938,
        -13.879627227783203
      ]
    },
    {
      "mesh": 2,
      "name": "SM_MOD_tower_segment_window_castle_LOD0.012",
      "rotation": [
        0,
        0.25880932807922363,
        0,
        0.9659284353256226
      ],
      "scale": [
        0.7059358358383179,
        0.7059357762336731,
        0.7059358358383179
      ],
      "translation": [
        64.95851135253906,
        25.271072387695312,
        -27.877853393554688
      ]
    },
    {
      "mesh": 4,
      "name": "SM_ENV_bush_castle_06_LOD0.012",
      "rotation": [
        0,
        -0.3826830983161926,
        0,
        0.9238796830177307
      ],
      "scale": [
        1.3624002933502197,
        1.3624000549316406,
        1.3624002933502197
      ],
      "translation": [
        73.55851745605469,
        20.9586181640625,
        -18.5478515625
      ]
    },
    {
      "mesh": 14,
      "name": "SM_MOD_citywall_straight_castle_LOD0.006",
      "rotation": [
        -0.0024730879813432693,
        -0.36014124751091003,
        0.00447029760107398,
        0.9328838586807251
      ],
      "translation": [
        81.19741821289062,
        12.360549926757812,
        -13.327163696289062
      ]
    },
    {
      "mesh": 2,
      "name": "SM_MOD_tower_segment_window_castle_LOD0.014",
      "rotation": [
        0,
        0.2588105797767639,
        0,
        0.9659281373023987
      ],
      "scale": [
        0.7613499760627747,
        0.7613499760627747,
        0.7613499760627747
      ],
      "translation": [
        90.95851135253906,
        26.032913208007812,
        -4.6278533935546875
      ]
    },
    {
      "mesh": 14,
      "name": "SM_MOD_citywall_straight_castle_LOD0.007",
      "rotation": [
        -0.0024730879813432693,
        -0.36014124751091003,
        0.00447029760107398,
        0.9328838586807251
      ],
      "translation": [
        87.12187194824219,
        12.441497802734375,
        -7.951816558837891
      ]
    },
    {
      "mesh": 4,
      "name": "SM_ENV_bush_castle_06_LOD0.017",
      "rotation": [
        -0.36225244402885437,
        -0.31588447093963623,
        -0.13199439644813538,
        0.8669300079345703
      ],
      "translation": [
        70.6085205078125,
        22.468612670898438,
        -22.407852172851562
      ]
    },
    {
      "mesh": 1,
      "name": "SM_PROP_candle_castle_01_LOD0.011",
      "rotation": [
        0,
        0.09125684946775436,
        0,
        0.9958274960517883
      ],
      "scale": [
        2.111967086791992,
        0.8788951635360718,
        2.111967086791992
      ],
      "translation": [
        69.0186767578125,
        14.344207763671875,
        -13.950862884521484
      ]
    },
    {
      "mesh": 16,
      "name": "SM_ENV_tree_castle_01_LOD0.022",
      "rotation": [
        0,
        -0.5540241599082947,
        0,
        0.8325005769729614
      ],
      "scale": [
        1.2311731576919556,
        1.231173038482666,
        1.2311731576919556
      ],
      "translation": [
        67.31851196289062,
        12.9586181640625,
        -17.447853088378906
      ]
    },
    {
      "mesh": 14,
      "name": "SM_MOD_citywall_straight_castle_LOD0.008",
      "rotation": [
        -0.0024730879813432693,
        -0.36014124751091003,
        0.00447029760107398,
        0.9328838586807251
      ],
      "translation": [
        75.27294921875,
        12.279586791992188,
        -18.702499389648438
      ]
    },
    {
      "mesh": 10,
      "name": "SM_MOD_floor_broken_castle_02_LOD0.002",
      "rotation": [
        -0.005048067308962345,
        -0.9412438273429871,
        0.018778249621391296,
        0.33716756105422974
      ],
      "scale": [
        0.5000000596046448,
        0.5,
        0.5000001788139343
      ],
      "translation": [
        64.8795166015625,
        12.647613525390625,
        -8.181854248046875
      ]
    },
    {
      "mesh": 12,
      "name": "SM_MOD_tower_segment_wall_castle_LOD0.021",
      "rotation": [
        0,
        0.25880932807922363,
        0,
        0.9659284353256226
      ],
      "scale": [
        0.7059358358383179,
        0.7059357762336731,
        0.7059358358383179
      ],
      "translation": [
        64.95851135253906,
        12.564224243164062,
        -27.877853393554688
      ]
    },
    {
      "mesh": 17,
      "name": "SM_MOD_floor_broken_castle_01_LOD0.006",
      "rotation": [
        0.01755925640463829,
        0.29390737414360046,
        -0.029342349618673325,
        0.9552220702171326
      ],
      "scale": [
        0.4999999403953552,
        0.5000000596046448,
        0.5000000596046448
      ],
      "translation": [
        65.5205078125,
        12.528610229492188,
        -11.146854400634766
      ]
    },
    {
      "mesh": 13,
      "name": "SM_MOD_railing_02_straight_castle_LOD0.152",
      "rotation": [
        0,
        0.15653525292873383,
        0,
        0.9876723885536194
      ],
      "translation": [
        69.05052185058594,
        12.6986083984375,
        -6.706855773925781
      ]
    },
    {
      "mesh": 18,
      "name": "SM_ENV_bush_castle_07_LOD0.048",
      "rotation": [
        -0.34691211581230164,
        -0.3546803295612335,
        -0.143695667386055,
        0.8562741875648499
      ],
      "translation": [
        74.96751403808594,
        21.901611328125,
        -17.582855224609375
      ]
    },
    {
      "mesh": 4,
      "name": "SM_ENV_bush_castle_06_LOD0.025",
      "rotation": [
        -0.3338383138179779,
        0.34234142303466797,
        0.86329185962677,
        0.16149771213531494
      ],
      "translation": [
        76.27851867675781,
        21.868606567382812,
        -16.287853240966797
      ]
    },
    {
      "mesh": 16,
      "name": "SM_ENV_tree_castle_01_LOD0.030",
      "rotation": [
        0,
        0.9696664810180664,
        0,
        0.24443213641643524
      ],
      "scale": [
        0.902770459651947,
        0.9027699828147888,
        0.902770459651947
      ],
      "translation": [
        72.99513244628906,
        11.858612060546875,
        -30.1046142578125
      ]
    },
    {
      "mesh": 7,
      "name": "SM_MOD_column_02_castle_LOD0.117",
      "rotation": [
        0,
        -0.07304614782333374,
        0,
        0.9973285794258118
      ],
      "translation": [
        71.81651306152344,
        12.715911865234375,
        -11.78085708618164
      ]
    },
    {
      "mesh": 16,
      "name": "SM_ENV_tree_castle_01_LOD0.031",
      "rotation": [
        0,
        0.7886642217636108,
        0,
        0.6148241758346558
      ],
      "scale": [
        1.1590999364852905,
        1.15910005569458,
        1.1590999364852905
      ],
      "translation": [
        68.96852111816406,
        14.558609008789062,
        -0.11785507202148438
      ]
    },
    {
      "mesh": 12,
      "name": "SM_MOD_tower_segment_wall_castle_LOD0.028",
      "rotation": [
        0,
        0.25880932807922363,
        0,
        0.9659284353256226
      ],
      "scale": [
        0.7059358358383179,
        0.7059357762336731,
        0.7059358358383179
      ],
      "translation": [
        64.95851135253906,
        21.03546142578125,
        -27.877853393554688
      ]
    },
    {
      "mesh": 13,
      "name": "SM_MOD_railing_02_straight_castle_LOD0.163",
      "rotation": [
        -0.0363055020570755,
        0.41907408833503723,
        -0.07830199599266052,
        0.9038404822349548
      ],
      "translation": [
        65.62751770019531,
        12.963607788085938,
        -4.2958526611328125
      ]
    },
    {
      "mesh": 12,
      "name": "SM_MOD_tower_segment_wall_castle_LOD0.030",
      "rotation": [
        0,
        0.2588105797767639,
        0,
        0.9659281373023987
      ],
      "scale": [
        0.7613499760627747,
        0.7613499760627747,
        0.7613499760627747
      ],
      "translation": [
        90.95851135253906,
        21.464813232421875,
        -4.6278533935546875
      ]
    },
    {
      "mesh": 1,
      "name": "SM_PROP_candle_castle_01_LOD0.012",
      "rotation": [
        0,
        0.8547708988189697,
        0,
        0.519005537033081
      ],
      "scale": [
        1.8819630146026611,
        0.8586817979812622,
        1.8819630146026611
      ],
      "translation": [
        68.88789367675781,
        14.331283569335938,
        -13.971149444580078
      ]
    },
    {
      "mesh": 12,
      "name": "SM_MOD_tower_segment_wall_castle_LOD0.032",
      "rotation": [
        0,
        0.2588105797767639,
        0,
        0.9659281373023987
      ],
      "scale": [
        0.7613499760627747,
        0.7613499760627747,
        0.7613499760627747
      ],
      "translation": [
        90.95851135253906,
        16.896713256835938,
        -4.6278533935546875
      ]
    },
    {
      "mesh": 1,
      "name": "SM_PROP_candle_castle_01_LOD0.013",
      "rotation": [
        0,
        -0.9942699670791626,
        0,
        0.10689841210842133
      ],
      "scale": [
        1.530300259590149,
        1.3083585500717163,
        1.530300259590149
      ],
      "translation": [
        69.03044128417969,
        14.344207763671875,
        -13.845954895019531
      ]
    },
    {
      "mesh": 4,
      "name": "SM_ENV_bush_castle_06_LOD0.031",
      "rotation": [
        0,
        -0.3826830983161926,
        0,
        0.9238796830177307
      ],
      "translation": [
        72.49851989746094,
        21.084609985351562,
        -19.527854919433594
      ]
    },
    {
      "mesh": 19,
      "name": "SM_ENV_bush_castle_04_LOD0.019",
      "rotation": [
        0,
        -0.3380250036716461,
        0,
        0.9411371350288391
      ],
      "scale": [
        1.2927494049072266,
        1.2927495241165161,
        1.2927494049072266
      ],
      "translation": [
        74.14262390136719,
        20.252609252929688,
        -18.070789337158203
      ]
    },
    {
      "mesh": 9,
      "name": "SM_ENV_tree_castle_02_LOD0.021",
      "rotation": [
        0,
        -0.3519016206264496,
        0,
        0.936037003993988
      ],
      "translation": [
        72.94851684570312,
        12.857818603515625,
        -14.0478515625
      ]
    },
    {
      "mesh": 4,
      "name": "SM_ENV_bush_castle_06_LOD0.034",
      "rotation": [
        -0.3338383138179779,
        0.34234142303466797,
        0.86329185962677,
        0.16149771213531494
      ],
      "translation": [
        70.95851135253906,
        21.658615112304688,
        -20.947853088378906
      ]
    },
    {
      "mesh": 8,
      "name": "SM_MOD_tower_segment_top_deco_castle_LOD0.009",
      "rotation": [
        0,
        0.2588190734386444,
        0,
        0.965925931930542
      ],
      "scale": [
        0.7613499760627747,
        0.7613499760627747,
        0.7613499760627747
      ],
      "translation": [
        90.95851135253906,
        44.30531311035156,
        -4.6278533935546875
      ]
    },
    {
      "mesh": 7,
      "name": "SM_MOD_column_02_castle_LOD0.153",
      "rotation": [
        0,
        0.33196088671684265,
        0,
        0.9432932138442993
      ],
      "translation": [
        67.06851196289062,
        12.749618530273438,
        -5.947853088378906
      ]
    },
    {
      "mesh": 20,
      "name": "SM_MOD_tower_roof_deco_flag_castle_LOD0.016",
      "rotation": [
        0,
        0.9950817823410034,
        0,
        0.09905692934989929
      ],
      "scale": [
        0.7613499164581299,
        0.7613499760627747,
        0.7613499164581299
      ],
      "translation": [
        90.95851135253906,
        57.87257385253906,
        -4.627857208251953
      ]
    },
    {
      "mesh": 0,
      "name": "SM_ENV_bush_castle_08_LOD0.067",
      "rotation": [
        -0.541147768497467,
        0,
        0.8409275412559509,
        2.7495701715452014e-07
      ],
      "scale": [
        0.752510130405426,
        0.7525101900100708,
        0.7525100708007812
      ],
      "translation": [
        67.66851806640625,
        26.558609008789062,
        -29.91785430908203
      ]
    },
    {
      "mesh": 10,
      "name": "SM_MOD_floor_broken_castle_02_LOD0.007",
      "rotation": [
        0,
        -0.4151051938533783,
        0,
        0.9097734093666077
      ],
      "scale": [
        0.4999999403953552,
        0.5,
        0.4999999403953552
      ],
      "translation": [
        67.19351196289062,
        12.530609130859375,
        -12.477851867675781
      ]
    },
    {
      "mesh": 12,
      "name": "SM_MOD_tower_segment_wall_castle_LOD0.042",
      "rotation": [
        0,
        0.2588105797767639,
        0,
        0.9659281373023987
      ],
      "scale": [
        0.7613499760627747,
        0.7613499760627747,
        0.7613499760627747
      ],
      "translation": [
        90.95851135253906,
        35.16911315917969,
        -4.6278533935546875
      ]
    },
    {
      "mesh": 1,
      "name": "SM_PROP_candle_castle_01_LOD0.014",
      "rotation": [
        0,
        -0.46342819929122925,
        0,
        0.8861345052719116
      ],
      "scale": [
        1.8819633722305298,
        1.2900480031967163,
        1.8819633722305298
      ],
      "translation": [
        68.91143798828125,
        14.344207763671875,
        -14.044937133789062
      ]
    },
    {
      "mesh": 0,
      "name": "SM_ENV_bush_castle_08_LOD0.081",
      "rotation": [
        -0.17261908948421478,
        0,
        0.9849886298179626,
        2.6747824222184136e-07
      ],
      "scale": [
        0.7525103092193604,
        0.7525101900100708,
        0.7525101900100708
      ],
      "translation": [
        66.38851928710938,
        21.50860595703125,
        -31.017852783203125
      ]
    },
    {
      "mesh": 9,
      "name": "SM_ENV_tree_castle_02_LOD0.027",
      "rotation": [
        0,
        0.8312182426452637,
        0,
        0.5559462308883667
      ],
      "scale": [
        0.6817900538444519,
        0.6817899942398071,
        0.6817900538444519
      ],
      "translation": [
        73.59089660644531,
        12.736358642578125,
        -8.618904113769531
      ]
    },
    {
      "mesh": 4,
      "name": "SM_ENV_bush_castle_06_LOD0.050",
      "rotation": [
        0,
        -0.3826830983161926,
        0,
        0.9238796830177307
      ],
      "translation": [
        75.1715087890625,
        21.084609985351562,
        -17.161853790283203
      ]
    },
    {
      "mesh": 0,
      "name": "SM_ENV_bush_castle_08_LOD0.082",
      "rotation": [
        0,
        -0.38268324732780457,
        0,
        0.9238797426223755
      ],
      "scale": [
        0.7171599268913269,
        0.7171599864959717,
        0.7171599268913269
      ],
      "translation": [
        76.28851318359375,
        20.688613891601562,
        -15.917854309082031
      ]
    }
  ],
  "materials": [
    {
      "alphaMode": "BLEND",
      "doubleSided": true,
      "extensions": {
        "KHR_materials_clearcoat": {
          "clearcoatRoughnessFactor": 0
        },
        "KHR_materials_specular": {
          "specularFactor": 0
        },
        "KHR_materials_ior": {
          "ior": 1.4500000476837158
        }
      },
      "name": "M_ENV_foliage_castle",
      "pbrMetallicRoughness": {
        "baseColorTexture": {
          "index": 0
        },
        "metallicFactor": 0,
        "roughnessFactor": 0
      }
    },
    {
      "doubleSided": true,
      "extensions": {
        "KHR_materials_specular": {
          "specularColorFactor": [
            1.0635696649551392,
            1.0635696649551392,
            1.0635696649551392
          ]
        }
      },
      "name": "M_PROP_deco_castle",
      "normalTexture": {
        "index": 1,
        "scale": 2
      },
      "pbrMetallicRoughness": {
        "baseColorTexture": {
          "index": 2
        },
        "metallicRoughnessTexture": {
          "index": 3
        }
      }
    },
    {
      "doubleSided": true,
      "name": "M_MOD_bricks_castle",
      "normalTexture": {
        "index": 4,
        "scale": 4
      },
      "pbrMetallicRoughness": {
        "baseColorTexture": {
          "index": 5
        },
        "metallicRoughnessTexture": {
          "index": 6
        }
      }
    },
    {
      "doubleSided": true,
      "name": "M_MOD_roof_castle",
      "normalTexture": {
        "index": 7,
        "scale": 3
      },
      "pbrMetallicRoughness": {
        "baseColorFactor": [
          1,
          0.05308542773127556,
          0,
          1
        ],
        "baseColorTexture": {
          "index": 8
        },
        "metallicRoughnessTexture": {
          "index": 9
        }
      }
    },
    {
      "doubleSided": true,
      "name": "M_PROP_statue_castle",
      "normalTexture": {
        "index": 10,
        "scale": 4
      },
      "pbrMetallicRoughness": {
        "baseColorTexture": {
          "index": 11
        },
        "metallicRoughnessTexture": {
          "index": 12
        }
      }
    },
    {
      "doubleSided": true,
      "name": "M_TRIM_castle",
      "normalTexture": {
        "index": 13,
        "scale": 4
      },
      "pbrMetallicRoughness": {
        "baseColorTexture": {
          "index": 14
        },
        "metallicRoughnessTexture": {
          "index": 15
        }
      }
    },
    {
      "alphaMode": "MASK",
      "doubleSided": true,
      "extensions": {
        "KHR_materials_specular": {
          "specularFactor": 0
        },
        "KHR_materials_ior": {
          "ior": 1.4500000476837158
        }
      },
      "name": "M_ENV_tree_leaves_castle_02",
      "pbrMetallicRoughness": {
        "baseColorFactor": [
          0.025187339633703232,
          0.18782256543636322,
          0.0761851966381073,
          1
        ],
        "baseColorTexture": {
          "index": 16
        },
        "metallicFactor": 0,
        "roughnessFactor": 0
      }
    },
    {
      "doubleSided": true,
      "name": "M_MOD_floor_castle_01",
      "normalTexture": {
        "index": 17,
        "scale": 4
      },
      "pbrMetallicRoughness": {
        "baseColorTexture": {
          "index": 18
        },
        "metallicRoughnessTexture": {
          "index": 19
        }
      }
    },
    {
      "doubleSided": true,
      "name": "M_CliffGrassVC",
      "normalTexture": {
        "extensions": {
          "KHR_texture_transform": {
            "offset": [
              0,
              -6
            ],
            "scale": [
              7,
              7
            ]
          }
        },
        "index": 20,
        "scale": 0.6000000238418579
      },
      "pbrMetallicRoughness": {
        "metallicFactor": 0,
        "roughnessFactor": 0.9200000166893005
      }
    },
    {
      "doubleSided": true,
      "name": "M_MOD_wall_castle",
      "normalTexture": {
        "index": 21,
        "scale": 3,
        "texCoord": 2
      },
      "pbrMetallicRoughness": {
        "metallicRoughnessTexture": {
          "index": 23,
          "texCoord": 2
        },
        "baseColorFactor": [
          1,
          1,
          1,
          1
        ],
        "metallicFactor": 0.0,
        "baseColorTexture": {
          "index": 5
        }
      }
    },
    {
      "doubleSided": true,
      "extensions": {
        "KHR_materials_specular": {
          "specularFactor": 0
        },
        "KHR_materials_ior": {
          "ior": 1.4500000476837158
        }
      },
      "name": "M_ENV_tree_wood_castle",
      "normalTexture": {
        "index": 24,
        "scale": 2
      },
      "pbrMetallicRoughness": {
        "baseColorFactor": [
          1,
          1,
          1,
          1
        ],
        "baseColorTexture": {
          "index": 25
        },
        "metallicRoughnessTexture": {
          "index": 26
        }
      }
    },
    {
      "alphaMode": "MASK",
      "doubleSided": true,
      "extensions": {
        "KHR_materials_specular": {
          "specularFactor": 0
        },
        "KHR_materials_ior": {
          "ior": 1.4500000476837158
        }
      },
      "name": "M_ENV_tree_leaves_castle_01",
      "pbrMetallicRoughness": {
        "baseColorFactor": [
          0.08437485992908478,
          0.39157116413116455,
          0.028426364064216614,
          1
        ],
        "baseColorTexture": {
          "index": 27
        },
        "metallicFactor": 0,
        "roughnessFactor": 0
      }
    },
    {
      "doubleSided": true,
      "name": "M_TRIM_castle.001",
      "normalTexture": {
        "index": 28,
        "scale": 4
      },
      "pbrMetallicRoughness": {
        "baseColorTexture": {
          "index": 29
        },
        "metallicRoughnessTexture": {
          "index": 30
        }
      }
    },
    {
      "doubleSided": true,
      "name": "M_PROP_flag_castle",
      "pbrMetallicRoughness": {
        "baseColorTexture": {
          "index": 31
        },
        "metallicFactor": 0,
        "roughnessFactor": 0.5
      }
    }
  ],
  "meshes": [
    {
      "name": "Plane.789",
      "primitives": [
        {
          "attributes": {
            "POSITION": 0,
            "NORMAL": 1,
            "TEXCOORD_0": 2,
            "TEXCOORD_1": 3,
            "COLOR_0": 4,
            "COLOR_1": 5
          },
          "indices": 6,
          "material": 0
        }
      ]
    },
    {
      "name": "Cylinder.404",
      "primitives": [
        {
          "attributes": {
            "POSITION": 7,
            "NORMAL": 8,
            "TEXCOORD_0": 9,
            "TEXCOORD_1": 10,
            "TANGENT": 136
          },
          "indices": 11,
          "material": 1
        }
      ]
    },
    {
      "name": "Cylinder.147",
      "primitives": [
        {
          "attributes": {
            "POSITION": 12,
            "NORMAL": 13,
            "TEXCOORD_0": 14,
            "TEXCOORD_1": 15,
            "TANGENT": 137
          },
          "indices": 16,
          "material": 2
        }
      ]
    },
    {
      "name": "Cylinder.271",
      "primitives": [
        {
          "attributes": {
            "POSITION": 17,
            "NORMAL": 18,
            "TEXCOORD_0": 19,
            "TEXCOORD_1": 20,
            "TANGENT": 138
          },
          "indices": 21,
          "material": 3
        }
      ]
    },
    {
      "name": "Plane.648",
      "primitives": [
        {
          "attributes": {
            "POSITION": 22,
            "NORMAL": 23,
            "TEXCOORD_0": 24,
            "TEXCOORD_1": 25,
            "COLOR_0": 26,
            "COLOR_1": 27
          },
          "indices": 28,
          "material": 0
        }
      ]
    },
    {
      "name": "Cylinder.142",
      "primitives": [
        {
          "attributes": {
            "POSITION": 29,
            "NORMAL": 30,
            "TEXCOORD_0": 31,
            "TEXCOORD_1": 32,
            "TANGENT": 139
          },
          "indices": 33,
          "material": 2
        }
      ]
    },
    {
      "name": "Cube.431",
      "primitives": [
        {
          "attributes": {
            "POSITION": 34,
            "NORMAL": 35,
            "TEXCOORD_0": 36,
            "TEXCOORD_1": 37,
            "TANGENT": 140
          },
          "indices": 38,
          "material": 4
        }
      ]
    },
    {
      "name": "Cube.3213",
      "primitives": [
        {
          "attributes": {
            "POSITION": 39,
            "NORMAL": 40,
            "TEXCOORD_0": 41,
            "TEXCOORD_1": 42,
            "TANGENT": 141
          },
          "indices": 43,
          "material": 5
        }
      ]
    },
    {
      "name": "Cylinder.145",
      "primitives": [
        {
          "attributes": {
            "POSITION": 44,
            "NORMAL": 45,
            "TEXCOORD_0": 46,
            "TEXCOORD_1": 47,
            "TANGENT": 142
          },
          "indices": 48,
          "material": 2
        }
      ]
    },
    {
      "name": "Plane.153",
      "primitives": [
        {
          "attributes": {
            "POSITION": 49,
            "NORMAL": 50,
            "TEXCOORD_0": 51,
            "TEXCOORD_1": 52,
            "COLOR_0": 53,
            "COLOR_1": 54
          },
          "indices": 55,
          "material": 6
        }
      ]
    },
    {
      "name": "Cube.459",
      "primitives": [
        {
          "attributes": {
            "POSITION": 56,
            "NORMAL": 57,
            "TEXCOORD_0": 58,
            "TEXCOORD_1": 59,
            "TANGENT": 143
          },
          "indices": 60,
          "material": 7
        }
      ]
    },
    {
      "name": "SM_ENV_cliff_castle_01_instantmeshesexp_02",
      "primitives": [
        {
          "attributes": {
            "POSITION": 61,
            "NORMAL": 62,
            "TEXCOORD_0": 63,
            "TEXCOORD_1": 64,
            "COLOR_0": 65,
            "TANGENT": 144
          },
          "indices": 66,
          "material": 8
        }
      ]
    },
    {
      "name": "Cylinder.141",
      "primitives": [
        {
          "attributes": {
            "POSITION": 67,
            "NORMAL": 68,
            "TEXCOORD_0": 69,
            "TEXCOORD_1": 70,
            "TANGENT": 145
          },
          "indices": 71,
          "material": 2
        }
      ]
    },
    {
      "name": "Cube.1020",
      "primitives": [
        {
          "attributes": {
            "POSITION": 72,
            "NORMAL": 73,
            "TEXCOORD_0": 74,
            "TEXCOORD_1": 75,
            "TANGENT": 146
          },
          "indices": 76,
          "material": 5
        }
      ]
    },
    {
      "name": "Cube.3241",
      "primitives": [
        {
          "attributes": {
            "POSITION": 77,
            "NORMAL": 78,
            "TEXCOORD_0": 79,
            "TEXCOORD_1": 80,
            "TEXCOORD_2": 81,
            "TANGENT": 147
          },
          "indices": 82,
          "material": 9
        }
      ]
    },
    {
      "name": "SM_ENV_cliff_castle_02_instantmeshesexp_02.004",
      "primitives": [
        {
          "attributes": {
            "POSITION": 83,
            "NORMAL": 84,
            "TEXCOORD_0": 85,
            "TEXCOORD_1": 86,
            "COLOR_0": 87,
            "TANGENT": 148
          },
          "indices": 88,
          "material": 8
        }
      ]
    },
    {
      "name": "Cylinder.294",
      "primitives": [
        {
          "attributes": {
            "POSITION": 89,
            "NORMAL": 90,
            "TEXCOORD_0": 91,
            "TEXCOORD_1": 92,
            "COLOR_0": 93,
            "COLOR_1": 94,
            "TANGENT": 149
          },
          "indices": 95,
          "material": 10
        },
        {
          "attributes": {
            "POSITION": 96,
            "NORMAL": 97,
            "TEXCOORD_0": 98,
            "TEXCOORD_1": 99,
            "COLOR_0": 100,
            "COLOR_1": 101
          },
          "indices": 102,
          "material": 11
        }
      ]
    },
    {
      "name": "Cube.457",
      "primitives": [
        {
          "attributes": {
            "POSITION": 103,
            "NORMAL": 104,
            "TEXCOORD_0": 105,
            "TEXCOORD_1": 106,
            "TANGENT": 150
          },
          "indices": 107,
          "material": 7
        }
      ]
    },
    {
      "name": "Plane.728",
      "primitives": [
        {
          "attributes": {
            "POSITION": 108,
            "NORMAL": 109,
            "TEXCOORD_0": 110,
            "TEXCOORD_1": 111,
            "COLOR_0": 112,
            "COLOR_1": 113
          },
          "indices": 114,
          "material": 0
        }
      ]
    },
    {
      "name": "Plane.518",
      "primitives": [
        {
          "attributes": {
            "POSITION": 115,
            "NORMAL": 116,
            "TEXCOORD_0": 117,
            "TEXCOORD_1": 118,
            "COLOR_0": 119,
            "COLOR_1": 120
          },
          "indices": 121,
          "material": 0
        }
      ]
    },
    {
      "name": "Cylinder.401",
      "primitives": [
        {
          "attributes": {
            "POSITION": 122,
            "NORMAL": 123,
            "TEXCOORD_0": 124,
            "TEXCOORD_1": 125,
            "COLOR_0": 126,
            "COLOR_1": 127,
            "TANGENT": 151
          },
          "indices": 128,
          "material": 12
        },
        {
          "attributes": {
            "POSITION": 129,
            "NORMAL": 130,
            "TEXCOORD_0": 131,
            "TEXCOORD_1": 132,
            "COLOR_0": 133,
            "COLOR_1": 134
          },
          "indices": 135,
          "material": 13
        }
      ]
    }
  ],
  "textures": [
    {
      "sampler": 0,
      "source": 0
    },
    {
      "sampler": 0,
      "source": 1
    },
    {
      "sampler": 0,
      "source": 2
    },
    {
      "sampler": 0,
      "source": 3
    },
    {
      "sampler": 0,
      "source": 4
    },
    {
      "sampler": 0,
      "source": 5
    },
    {
      "sampler": 0,
      "source": 6
    },
    {
      "sampler": 0,
      "source": 7
    },
    {
      "sampler": 0,
      "source": 8
    },
    {
      "sampler": 0,
      "source": 9
    },
    {
      "sampler": 0,
      "source": 10
    },
    {
      "sampler": 0,
      "source": 11
    },
    {
      "sampler": 0,
      "source": 12
    },
    {
      "sampler": 0,
      "source": 13
    },
    {
      "sampler": 0,
      "source": 14
    },
    {
      "sampler": 0,
      "source": 15
    },
    {
      "sampler": 0,
      "source": 16
    },
    {
      "sampler": 0,
      "source": 17
    },
    {
      "sampler": 0,
      "source": 18
    },
    {
      "sampler": 0,
      "source": 19
    },
    {
      "sampler": 0,
      "source": 20
    },
    {
      "sampler": 0,
      "source": 21
    },
    {
      "sampler": 0,
      "source": 22
    },
    {
      "sampler": 0,
      "source": 23
    },
    {
      "sampler": 0,
      "source": 24
    },
    {
      "sampler": 0,
      "source": 25
    },
    {
      "sampler": 0,
      "source": 26
    },
    {
      "sampler": 0,
      "source": 27
    },
    {
      "sampler": 0,
      "source": 13
    },
    {
      "sampler": 0,
      "source": 14
    },
    {
      "sampler": 0,
      "source": 15
    },
    {
      "sampler": 0,
      "source": 28
    }
  ],
  "images": [
    {
      "mimeType": "image/png",
      "name": "T_ENV_foliage_castle",
      "uri": "textures/T_ENV_foliage_castle.png"
    },
    {
      "mimeType": "image/png",
      "name": "T_PROP_deco_castle_N",
      "uri": "textures/T_PROP_deco_castle_N.png"
    },
    {
      "mimeType": "image/png",
      "name": "T_PROP_deco_castle_BC",
      "uri": "textures/T_PROP_deco_castle_BC.png"
    },
    {
      "mimeType": "image/png",
      "name": "T_PROP_deco_castle_PBR",
      "uri": "textures/T_PROP_deco_castle_PBR.png"
    },
    {
      "mimeType": "image/png",
      "name": "T_MOD_wall_bricks_castle_01_N",
      "uri": "textures/T_MOD_wall_bricks_castle_01_N.png"
    },
    {
      "mimeType": "image/png",
      "name": "T_MOD_wall_bricks_castle_01_BC",
      "uri": "textures/T_MOD_wall_bricks_castle_01_BC.png"
    },
    {
      "mimeType": "image/png",
      "name": "T_MOD_wall_bricks_castle_01_PBR",
      "uri": "textures/T_MOD_wall_bricks_castle_01_PBR.png"
    },
    {
      "mimeType": "image/png",
      "name": "T_ENV_MOD_roof_castle_02_N",
      "uri": "textures/T_ENV_MOD_roof_castle_02_N.png"
    },
    {
      "mimeType": "image/png",
      "name": "T_ENV_MOD_roof_castle_02_BC",
      "uri": "textures/T_ENV_MOD_roof_castle_02_BC.png"
    },
    {
      "mimeType": "image/png",
      "name": "T_MOD_roof_castle_01_PBR",
      "uri": "textures/T_MOD_roof_castle_01_PBR.png"
    },
    {
      "mimeType": "image/png",
      "name": "T_PROP_statue_castle_N",
      "uri": "textures/T_PROP_statue_castle_N.png"
    },
    {
      "mimeType": "image/png",
      "name": "T_PROP_statue_castle_BC",
      "uri": "textures/T_PROP_statue_castle_BC.png"
    },
    {
      "mimeType": "image/png",
      "name": "T_PROP_statue_castle_PBR",
      "uri": "textures/T_PROP_statue_castle_PBR.png"
    },
    {
      "mimeType": "image/png",
      "name": "T_TRIM_castle_01_N",
      "uri": "textures/T_TRIM_castle_01_N.png"
    },
    {
      "mimeType": "image/png",
      "name": "T_TRIM_castle_01_BC",
      "uri": "textures/T_TRIM_castle_01_BC.png"
    },
    {
      "mimeType": "image/png",
      "name": "T_TRIM_castle_01_PBR",
      "uri": "textures/T_TRIM_castle_01_PBR.png"
    },
    {
      "mimeType": "image/png",
      "name": "T_ENV_tree_leaves_castle_02",
      "uri": "textures/T_ENV_tree_leaves_castle_02.png"
    },
    {
      "mimeType": "image/png",
      "name": "T_MOD_floor_castle_01_N",
      "uri": "textures/T_MOD_floor_castle_01_N.png"
    },
    {
      "mimeType": "image/png",
      "name": "T_MOD_floor_castle_01_BC",
      "uri": "textures/T_MOD_floor_castle_01_BC.png"
    },
    {
      "mimeType": "image/png",
      "name": "T_MOD_floor_castle_01_PBR",
      "uri": "textures/T_MOD_floor_castle_01_PBR.png"
    },
    {
      "mimeType": "image/png",
      "name": "T_ENV_cliff_castle_01_N",
      "uri": "textures/T_ENV_cliff_castle_01_N.png"
    },
    {
      "mimeType": "image/png",
      "name": "T_MOD_wall_blocks_castle_01_N",
      "uri": "textures/T_MOD_wall_blocks_castle_01_N.png"
    },
    {
      "mimeType": "image/png",
      "name": "T_MOD_citywall_MASK",
      "uri": "textures/T_MOD_citywall_MASK.png"
    },
    {
      "mimeType": "image/png",
      "name": "T_MOD_wall_blocks_castle_01_PBR",
      "uri": "textures/T_MOD_wall_blocks_castle_01_PBR.png"
    },
    {
      "mimeType": "image/png",
      "name": "T_ENV_wood_castle_01_N",
      "uri": "textures/T_ENV_wood_castle_01_N.png"
    },
    {
      "mimeType": "image/png",
      "name": "T_ENV_wood_castle_01_BC",
      "uri": "textures/T_ENV_wood_castle_01_BC.png"
    },
    {
      "mimeType": "image/png",
      "name": "T_ENV_wood_castle_01_PBR",
      "uri": "textures/T_ENV_wood_castle_01_PBR.png"
    },
    {
      "mimeType": "image/png",
      "name": "T_ENV_tree_leaves_castle_01",
      "uri": "textures/T_ENV_tree_leaves_castle_01.png"
    },
    {
      "mimeType": "image/png",
      "name": "T_PROP_flags_castle_BC",
      "uri": "textures/T_PROP_flags_castle_BC.png"
    }
  ],
  "accessors": [
    {
      "bufferView": 0,
      "componentType": 5126,
      "count": 864,
      "max": [
        2.126523971557617,
        2.460887908935547,
        1.11051344871521
      ],
      "min": [
        -2.2667510509490967,
        -6.639396667480469,
        -0.9110949039459229
      ],
      "type": "VEC3"
    },
    {
      "bufferView": 1,
      "componentType": 5126,
      "count": 864,
      "type": "VEC3"
    },
    {
      "bufferView": 2,
      "componentType": 5126,
      "count": 864,
      "type": "VEC2"
    },
    {
      "bufferView": 3,
      "componentType": 5126,
      "count": 864,
      "type": "VEC2"
    },
    {
      "bufferView": 4,
      "componentType": 5123,
      "count": 864,
      "normalized": true,
      "type": "VEC4"
    },
    {
      "bufferView": 5,
      "componentType": 5123,
      "count": 864,
      "normalized": true,
      "type": "VEC4"
    },
    {
      "bufferView": 6,
      "componentType": 5123,
      "count": 1296,
      "type": "SCALAR"
    },
    {
      "bufferView": 7,
      "componentType": 5126,
      "count": 74,
      "max": [
        0.0215503741055727,
        0.2790928781032562,
        0.02097577415406704
      ],
      "min": [
        -0.018999939784407616,
        -0.00202577724121511,
        -0.023512952029705048
      ],
      "type": "VEC3"
    },
    {
      "bufferView": 8,
      "componentType": 5126,
      "count": 74,
      "type": "VEC3"
    },
    {
      "bufferView": 9,
      "componentType": 5126,
      "count": 74,
      "type": "VEC2"
    },
    {
      "bufferView": 10,
      "componentType": 5126,
      "count": 74,
      "type": "VEC2"
    },
    {
      "bufferView": 11,
      "componentType": 5123,
      "count": 276,
      "type": "SCALAR"
    },
    {
      "bufferView": 12,
      "componentType": 5126,
      "count": 6759,
      "max": [
        4.656929969787598,
        6.003619194030762,
        4.6569294929504395
      ],
      "min": [
        -4.6569294929504395,
        -0.0036184191703796387,
        -4.656929969787598
      ],
      "type": "VEC3"
    },
    {
      "bufferView": 13,
      "componentType": 5126,
      "count": 6759,
      "type": "VEC3"
    },
    {
      "bufferView": 14,
      "componentType": 5126,
      "count": 6759,
      "type": "VEC2"
    },
    {
      "bufferView": 15,
      "componentType": 5126,
      "count": 6759,
      "type": "VEC2"
    },
    {
      "bufferView": 16,
      "componentType": 5123,
      "count": 21333,
      "type": "SCALAR"
    },
    {
      "bufferView": 17,
      "componentType": 5126,
      "count": 679,
      "max": [
        4.25615930557251,
        16.704866409301758,
        4.246913433074951
      ],
      "min": [
        -4.24691104888916,
        -0.17821966111660004,
        -4.246908664703369
      ],
      "type": "VEC3"
    },
    {
      "bufferView": 18,
      "componentType": 5126,
      "count": 679,
      "type": "VEC3"
    },
    {
      "bufferView": 19,
      "componentType": 5126,
      "count": 679,
      "type": "VEC2"
    },
    {
      "bufferView": 20,
      "componentType": 5126,
      "count": 679,
      "type": "VEC2"
    },
    {
      "bufferView": 21,
      "componentType": 5123,
      "count": 2970,
      "type": "SCALAR"
    },
    {
      "bufferView": 22,
      "componentType": 5126,
      "count": 960,
      "max": [
        1.3535411357879639,
        0.8332891464233398,
        0.616664707660675
      ],
      "min": [
        -1.3742002248764038,
        -1.8549212217330933,
        -0.4186740517616272
      ],
      "type": "VEC3"
    },
    {
      "bufferView": 23,
      "componentType": 5126,
      "count": 960,
      "type": "VEC3"
    },
    {
      "bufferView": 24,
      "componentType": 5126,
      "count": 960,
      "type": "VEC2"
    },
    {
      "bufferView": 25,
      "componentType": 5126,
      "count": 960,
      "type": "VEC2"
    },
    {
      "bufferView": 26,
      "componentType": 5123,
      "count": 960,
      "normalized": true,
      "type": "VEC4"
    },
    {
      "bufferView": 27,
      "componentType": 5123,
      "count": 960,
      "normalized": true,
      "type": "VEC4"
    },
    {
      "bufferView": 28,
      "componentType": 5123,
      "count": 1440,
      "type": "SCALAR"
    },
    {
      "bufferView": 29,
      "componentType": 5126,
      "count": 2364,
      "max": [
        5.501428127288818,
        6.031858444213867,
        5.501429080963135
      ],
      "min": [
        -5.501428127288818,
        -0.023539094254374504,
        -5.501428127288818
      ],
      "type": "VEC3"
    },
    {
      "bufferView": 30,
      "componentType": 5126,
      "count": 2364,
      "type": "VEC3"
    },
    {
      "bufferView": 31,
      "componentType": 5126,
      "count": 2364,
      "type": "VEC2"
    },
    {
      "bufferView": 32,
      "componentType": 5126,
      "count": 2364,
      "type": "VEC2"
    },
    {
      "bufferView": 33,
      "componentType": 5123,
      "count": 10272,
      "type": "SCALAR"
    },
    {
      "bufferView": 34,
      "componentType": 5126,
      "count": 3916,
      "max": [
        1.5454318523406982,
        6.340999126434326,
        1.5480334758758545
      ],
      "min": [
        -1.5454318523406982,
        -0.039270639419555664,
        -1.4389467239379883
      ],
      "type": "VEC3"
    },
    {
      "bufferView": 35,
      "componentType": 5126,
      "count": 3916,
      "type": "VEC3"
    },
    {
      "bufferView": 36,
      "componentType": 5126,
      "count": 3916,
      "type": "VEC2"
    },
    {
      "bufferView": 37,
      "componentType": 5126,
      "count": 3916,
      "type": "VEC2"
    },
    {
      "bufferView": 38,
      "componentType": 5123,
      "count": 8424,
      "type": "SCALAR"
    },
    {
      "bufferView": 39,
      "componentType": 5126,
      "count": 509,
      "max": [
        0.39473864436149597,
        1.2359495162963867,
        0.39473864436149597
      ],
      "min": [
        -0.39473864436149597,
        -0.12311287224292755,
        -0.39473864436149597
      ],
      "type": "VEC3"
    },
    {
      "bufferView": 40,
      "componentType": 5126,
      "count": 509,
      "type": "VEC3"
    },
    {
      "bufferView": 41,
      "componentType": 5126,
      "count": 509,
      "type": "VEC2"
    },
    {
      "bufferView": 42,
      "componentType": 5126,
      "count": 509,
      "type": "VEC2"
    },
    {
      "bufferView": 43,
      "componentType": 5123,
      "count": 2112,
      "type": "SCALAR"
    },
    {
      "bufferView": 44,
      "componentType": 5126,
      "count": 1465,
      "max": [
        5.31018590927124,
        6.430691719055176,
        5.310185432434082
      ],
      "min": [
        -5.31018590927124,
        -0.06849426031112671,
        -5.310185432434082
      ],
      "type": "VEC3"
    },
    {
      "bufferView": 45,
      "componentType": 5126,
      "count": 1465,
      "type": "VEC3"
    },
    {
      "bufferView": 46,
      "componentType": 5126,
      "count": 1465,
      "type": "VEC2"
    },
    {
      "bufferView": 47,
      "componentType": 5126,
      "count": 1465,
      "type": "VEC2"
    },
    {
      "bufferView": 48,
      "componentType": 5123,
      "count": 6084,
      "type": "SCALAR"
    },
    {
      "bufferView": 49,
      "componentType": 5126,
      "count": 1680,
      "max": [
        2.4888107776641846,
        8.186420440673828,
        2.2267041206359863
      ],
      "min": [
        -2.3514888286590576,
        -0.40394994616508484,
        -2.377707004547119
      ],
      "type": "VEC3"
    },
    {
      "bufferView": 50,
      "componentType": 5126,
      "count": 1680,
      "type": "VEC3"
    },
    {
      "bufferView": 51,
      "componentType": 5126,
      "count": 1680,
      "type": "VEC2"
    },
    {
      "bufferView": 52,
      "componentType": 5126,
      "count": 1680,
      "type": "VEC2"
    },
    {
      "bufferView": 53,
      "componentType": 5123,
      "count": 1680,
      "normalized": true,
      "type": "VEC4"
    },
    {
      "bufferView": 54,
      "componentType": 5123,
      "count": 1680,
      "normalized": true,
      "type": "VEC4"
    },
    {
      "bufferView": 55,
      "componentType": 5123,
      "count": 5760,
      "type": "SCALAR"
    },
    {
      "bufferView": 56,
      "componentType": 5126,
      "count": 650,
      "max": [
        2.002962589263916,
        0.09269960224628448,
        1.9687633514404297
      ],
      "min": [
        -2.0333902835845947,
        -0.3714604377746582,
        -2.016491651535034
      ],
      "type": "VEC3"
    },
    {
      "bufferView": 57,
      "componentType": 5126,
      "count": 650,
      "type": "VEC3"
    },
    {
      "bufferView": 58,
      "componentType": 5126,
      "count": 650,
      "type": "VEC2"
    },
    {
      "bufferView": 59,
      "componentType": 5126,
      "count": 650,
      "type": "VEC2"
    },
    {
      "bufferView": 60,
      "componentType": 5123,
      "count": 1920,
      "type": "SCALAR"
    },
    {
      "bufferView": 61,
      "componentType": 5126,
      "count": 4613,
      "max": [
        4.855959892272949,
        5.9515485763549805,
        3.302274227142334
      ],
      "min": [
        -4.882627487182617,
        -5.545106887817383,
        -3.2813682556152344
      ],
      "type": "VEC3"
    },
    {
      "bufferView": 62,
      "componentType": 5126,
      "count": 4613,
      "type": "VEC3"
    },
    {
      "bufferView": 63,
      "componentType": 5126,
      "count": 4613,
      "type": "VEC2"
    },
    {
      "bufferView": 64,
      "componentType": 5126,
      "count": 4613,
      "type": "VEC2"
    },
    {
      "bufferView": 65,
      "componentType": 5126,
      "count": 4613,
      "type": "VEC3"
    },
    {
      "bufferView": 66,
      "componentType": 5123,
      "count": 23661,
      "type": "SCALAR"
    },
    {
      "bufferView": 67,
      "componentType": 5126,
      "count": 2153,
      "max": [
        4.6627726554870605,
        6.00392484664917,
        4.668532371520996
      ],
      "min": [
        -4.667049407958984,
        -0.00885913148522377,
        -4.673800945281982
      ],
      "type": "VEC3"
    },
    {
      "bufferView": 68,
      "componentType": 5126,
      "count": 2153,
      "type": "VEC3"
    },
    {
      "bufferView": 69,
      "componentType": 5126,
      "count": 2153,
      "type": "VEC2"
    },
    {
      "bufferView": 70,
      "componentType": 5126,
      "count": 2153,
      "type": "VEC2"
    },
    {
      "bufferView": 71,
      "componentType": 5123,
      "count": 8904,
      "type": "SCALAR"
    },
    {
      "bufferView": 72,
      "componentType": 5126,
      "count": 512,
      "max": [
        1.9999985694885254,
        1.0031301975250244,
        0.2541757822036743
      ],
      "min": [
        -1.9999985694885254,
        -0.12952381372451782,
        -0.25105398893356323
      ],
      "type": "VEC3"
    },
    {
      "bufferView": 73,
      "componentType": 5126,
      "count": 512,
      "type": "VEC3"
    },
    {
      "bufferView": 74,
      "componentType": 5126,
      "count": 512,
      "type": "VEC2"
    },
    {
      "bufferView": 75,
      "componentType": 5126,
      "count": 512,
      "type": "VEC2"
    },
    {
      "bufferView": 76,
      "componentType": 5123,
      "count": 1188,
      "type": "SCALAR"
    },
    {
      "bufferView": 77,
      "componentType": 5126,
      "count": 2308,
      "max": [
        4,
        10.867555618286133,
        1.4162745475769043
      ],
      "min": [
        -4,
        4.76837158203125e-07,
        -1.4162745475769043
      ],
      "type": "VEC3"
    },
    {
      "bufferView": 78,
      "componentType": 5126,
      "count": 2308,
      "type": "VEC3"
    },
    {
      "bufferView": 79,
      "componentType": 5126,
      "count": 2308,
      "type": "VEC2"
    },
    {
      "bufferView": 80,
      "componentType": 5126,
      "count": 2308,
      "type": "VEC2"
    },
    {
      "bufferView": 81,
      "componentType": 5126,
      "count": 2308,
      "type": "VEC2"
    },
    {
      "bufferView": 82,
      "componentType": 5123,
      "count": 7620,
      "type": "SCALAR"
    },
    {
      "bufferView": 83,
      "componentType": 5126,
      "count": 4265,
      "max": [
        5.037600517272949,
        6.843289375305176,
        3.3966786861419678
      ],
      "min": [
        -5.224124431610107,
        -6.786053657531738,
        -3.7081243991851807
      ],
      "type": "VEC3"
    },
    {
      "bufferView": 84,
      "componentType": 5126,
      "count": 4265,
      "type": "VEC3"
    },
    {
      "bufferView": 85,
      "componentType": 5126,
      "count": 4265,
      "type": "VEC2"
    },
    {
      "bufferView": 86,
      "componentType": 5126,
      "count": 4265,
      "type": "VEC2"
    },
    {
      "bufferView": 87,
      "componentType": 5126,
      "count": 4265,
      "type": "VEC3"
    },
    {
      "bufferView": 88,
      "componentType": 5123,
      "count": 22374,
      "type": "SCALAR"
    },
    {
      "bufferView": 89,
      "componentType": 5126,
      "count": 1275,
      "max": [
        3.5537283420562744,
        9.484169960021973,
        3.4337213039398193
      ],
      "min": [
        -3.0713250637054443,
        -1.0320329666137695,
        -2.8968093395233154
      ],
      "type": "VEC3"
    },
    {
      "bufferView": 90,
      "componentType": 5126,
      "count": 1275,
      "type": "VEC3"
    },
    {
      "bufferView": 91,
      "componentType": 5126,
      "count": 1275,
      "type": "VEC2"
    },
    {
      "bufferView": 92,
      "componentType": 5126,
      "count": 1275,
      "type": "VEC2"
    },
    {
      "bufferView": 93,
      "componentType": 5126,
      "count": 1275,
      "type": "VEC3"
    },
    {
      "bufferView": 94,
      "componentType": 5123,
      "count": 1275,
      "normalized": true,
      "type": "VEC4"
    },
    {
      "bufferView": 95,
      "componentType": 5123,
      "count": 5718,
      "type": "SCALAR"
    },
    {
      "bufferView": 96,
      "componentType": 5126,
      "count": 1920,
      "max": [
        6.43494987487793,
        15.562984466552734,
        6.57190465927124
      ],
      "min": [
        -5.903852462768555,
        4.755402088165283,
        -5.87698221206665
      ],
      "type": "VEC3"
    },
    {
      "bufferView": 97,
      "componentType": 5126,
      "count": 1920,
      "type": "VEC3"
    },
    {
      "bufferView": 98,
      "componentType": 5126,
      "count": 1920,
      "type": "VEC2"
    },
    {
      "bufferView": 99,
      "componentType": 5126,
      "count": 1920,
      "type": "VEC2"
    },
    {
      "bufferView": 100,
      "componentType": 5126,
      "count": 1920,
      "type": "VEC3"
    },
    {
      "bufferView": 101,
      "componentType": 5123,
      "count": 1920,
      "normalized": true,
      "type": "VEC4"
    },
    {
      "bufferView": 102,
      "componentType": 5123,
      "count": 2880,
      "type": "SCALAR"
    },
    {
      "bufferView": 103,
      "componentType": 5126,
      "count": 715,
      "max": [
        2.070388078689575,
        0.08400055766105652,
        2.033703088760376
      ],
      "min": [
        -2.060770273208618,
        -0.3405781388282776,
        -2.016498565673828
      ],
      "type": "VEC3"
    },
    {
      "bufferView": 104,
      "componentType": 5126,
      "count": 715,
      "type": "VEC3"
    },
    {
      "bufferView": 105,
      "componentType": 5126,
      "count": 715,
      "type": "VEC2"
    },
    {
      "bufferView": 106,
      "componentType": 5126,
      "count": 715,
      "type": "VEC2"
    },
    {
      "bufferView": 107,
      "componentType": 5123,
      "count": 2112,
      "type": "SCALAR"
    },
    {
      "bufferView": 108,
      "componentType": 5126,
      "count": 720,
      "max": [
        1.6049699783325195,
        0.7846742272377014,
        0.6185894012451172
      ],
      "min": [
        -1.6038271188735962,
        -1.1322442293167114,
        -0.45752856135368347
      ],
      "type": "VEC3"
    },
    {
      "bufferView": 109,
      "componentType": 5126,
      "count": 720,
      "type": "VEC3"
    },
    {
      "bufferView": 110,
      "componentType": 5126,
      "count": 720,
      "type": "VEC2"
    },
    {
      "bufferView": 111,
      "componentType": 5126,
      "count": 720,
      "type": "VEC2"
    },
    {
      "bufferView": 112,
      "componentType": 5123,
      "count": 720,
      "normalized": true,
      "type": "VEC4"
    },
    {
      "bufferView": 113,
      "componentType": 5123,
      "count": 720,
      "normalized": true,
      "type": "VEC4"
    },
    {
      "bufferView": 114,
      "componentType": 5123,
      "count": 1080,
      "type": "SCALAR"
    },
    {
      "bufferView": 115,
      "componentType": 5126,
      "count": 600,
      "max": [
        0.8343209624290466,
        1.4898878335952759,
        0.6491702198982239
      ],
      "min": [
        -0.8528966307640076,
        -3.341200590133667,
        -0.3559950292110443
      ],
      "type": "VEC3"
    },
    {
      "bufferView": 116,
      "componentType": 5126,
      "count": 600,
      "type": "VEC3"
    },
    {
      "bufferView": 117,
      "componentType": 5126,
      "count": 600,
      "type": "VEC2"
    },
    {
      "bufferView": 118,
      "componentType": 5126,
      "count": 600,
      "type": "VEC2"
    },
    {
      "bufferView": 119,
      "componentType": 5123,
      "count": 600,
      "normalized": true,
      "type": "VEC4"
    },
    {
      "bufferView": 120,
      "componentType": 5123,
      "count": 600,
      "normalized": true,
      "type": "VEC4"
    },
    {
      "bufferView": 121,
      "componentType": 5123,
      "count": 900,
      "type": "SCALAR"
    },
    {
      "bufferView": 122,
      "componentType": 5126,
      "count": 207,
      "max": [
        0.6800379753112793,
        12.301493644714355,
        0.6800259947776794
      ],
      "min": [
        -0.6800140142440796,
        0.1599065661430359,
        -0.6800259947776794
      ],
      "type": "VEC3"
    },
    {
      "bufferView": 123,
      "componentType": 5126,
      "count": 207,
      "type": "VEC3"
    },
    {
      "bufferView": 124,
      "componentType": 5126,
      "count": 207,
      "type": "VEC2"
    },
    {
      "bufferView": 125,
      "componentType": 5126,
      "count": 207,
      "type": "VEC2"
    },
    {
      "bufferView": 126,
      "componentType": 5126,
      "count": 207,
      "type": "VEC3"
    },
    {
      "bufferView": 127,
      "componentType": 5123,
      "count": 207,
      "normalized": true,
      "type": "VEC4"
    },
    {
      "bufferView": 128,
      "componentType": 5123,
      "count": 810,
      "type": "SCALAR"
    },
    {
      "bufferView": 129,
      "componentType": 5126,
      "count": 127,
      "max": [
        8.145870208740234,
        9.733687400817871,
        0.1570219099521637
      ],
      "min": [
        -0.1317797750234604,
        8.269128799438477,
        -0.1473606824874878
      ],
      "type": "VEC3"
    },
    {
      "bufferView": 130,
      "componentType": 5126,
      "count": 127,
      "type": "VEC3"
    },
    {
      "bufferView": 131,
      "componentType": 5126,
      "count": 127,
      "type": "VEC2"
    },
    {
      "bufferView": 132,
      "componentType": 5126,
      "count": 127,
      "type": "VEC2"
    },
    {
      "bufferView": 133,
      "componentType": 5126,
      "count": 127,
      "type": "VEC3"
    },
    {
      "bufferView": 134,
      "componentType": 5123,
      "count": 127,
      "normalized": true,
      "type": "VEC4"
    },
    {
      "bufferView": 135,
      "componentType": 5123,
      "count": 534,
      "type": "SCALAR"
    },
    {
      "bufferView": 136,
      "componentType": 5126,
      "count": 74,
      "type": "VEC4"
    },
    {
      "bufferView": 137,
      "componentType": 5126,
      "count": 6759,
      "type": "VEC4"
    },
    {
      "bufferView": 138,
      "componentType": 5126,
      "count": 679,
      "type": "VEC4"
    },
    {
      "bufferView": 139,
      "componentType": 5126,
      "count": 2364,
      "type": "VEC4"
    },
    {
      "bufferView": 140,
      "componentType": 5126,
      "count": 3916,
      "type": "VEC4"
    },
    {
      "bufferView": 141,
      "componentType": 5126,
      "count": 509,
      "type": "VEC4"
    },
    {
      "bufferView": 142,
      "componentType": 5126,
      "count": 1465,
      "type": "VEC4"
    },
    {
      "bufferView": 143,
      "componentType": 5126,
      "count": 650,
      "type": "VEC4"
    },
    {
      "bufferView": 144,
      "componentType": 5126,
      "count": 4613,
      "type": "VEC4"
    },
    {
      "bufferView": 145,
      "componentType": 5126,
      "count": 2153,
      "type": "VEC4"
    },
    {
      "bufferView": 146,
      "componentType": 5126,
      "count": 512,
      "type": "VEC4"
    },
    {
      "bufferView": 147,
      "componentType": 5126,
      "count": 2308,
      "type": "VEC4"
    },
    {
      "bufferView": 148,
      "componentType": 5126,
      "count": 4265,
      "type": "VEC4"
    },
    {
      "bufferView": 149,
      "componentType": 5126,
      "count": 1275,
      "type": "VEC4"
    },
    {
      "bufferView": 150,
      "componentType": 5126,
      "count": 715,
      "type": "VEC4"
    },
    {
      "bufferView": 151,
      "componentType": 5126,
      "count": 207,
      "type": "VEC4"
    }
  ],
  "bufferViews": [
    {
      "buffer": 0,
      "byteLength": 10368,
      "byteOffset": 0,
      "target": 34962
    },
    {
      "buffer": 0,
      "byteLength": 10368,
      "byteOffset": 10368,
      "target": 34962
    },
    {
      "buffer": 0,
      "byteLength": 6912,
      "byteOffset": 20736,
      "target": 34962
    },
    {
      "buffer": 0,
      "byteLength": 6912,
      "byteOffset": 27648,
      "target": 34962
    },
    {
      "buffer": 0,
      "byteLength": 6912,
      "byteOffset": 34560,
      "target": 34962
    },
    {
      "buffer": 0,
      "byteLength": 6912,
      "byteOffset": 41472,
      "target": 34962
    },
    {
      "buffer": 0,
      "byteLength": 2592,
      "byteOffset": 48384,
      "target": 34963
    },
    {
      "buffer": 0,
      "byteLength": 888,
      "byteOffset": 50976,
      "target": 34962
    },
    {
      "buffer": 0,
      "byteLength": 888,
      "byteOffset": 51864,
      "target": 34962
    },
    {
      "buffer": 0,
      "byteLength": 592,
      "byteOffset": 52752,
      "target": 34962
    },
    {
      "buffer": 0,
      "byteLength": 592,
      "byteOffset": 53344,
      "target": 34962
    },
    {
      "buffer": 0,
      "byteLength": 552,
      "byteOffset": 53936,
      "target": 34963
    },
    {
      "buffer": 0,
      "byteLength": 81108,
      "byteOffset": 54488,
      "target": 34962
    },
    {
      "buffer": 0,
      "byteLength": 81108,
      "byteOffset": 135596,
      "target": 34962
    },
    {
      "buffer": 0,
      "byteLength": 54072,
      "byteOffset": 216704,
      "target": 34962
    },
    {
      "buffer": 0,
      "byteLength": 54072,
      "byteOffset": 270776,
      "target": 34962
    },
    {
      "buffer": 0,
      "byteLength": 42666,
      "byteOffset": 324848,
      "target": 34963
    },
    {
      "buffer": 0,
      "byteLength": 8148,
      "byteOffset": 367516,
      "target": 34962
    },
    {
      "buffer": 0,
      "byteLength": 8148,
      "byteOffset": 375664,
      "target": 34962
    },
    {
      "buffer": 0,
      "byteLength": 5432,
      "byteOffset": 383812,
      "target": 34962
    },
    {
      "buffer": 0,
      "byteLength": 5432,
      "byteOffset": 389244,
      "target": 34962
    },
    {
      "buffer": 0,
      "byteLength": 5940,
      "byteOffset": 394676,
      "target": 34963
    },
    {
      "buffer": 0,
      "byteLength": 11520,
      "byteOffset": 400616,
      "target": 34962
    },
    {
      "buffer": 0,
      "byteLength": 11520,
      "byteOffset": 412136,
      "target": 34962
    },
    {
      "buffer": 0,
      "byteLength": 7680,
      "byteOffset": 423656,
      "target": 34962
    },
    {
      "buffer": 0,
      "byteLength": 7680,
      "byteOffset": 431336,
      "target": 34962
    },
    {
      "buffer": 0,
      "byteLength": 7680,
      "byteOffset": 439016,
      "target": 34962
    },
    {
      "buffer": 0,
      "byteLength": 7680,
      "byteOffset": 446696,
      "target": 34962
    },
    {
      "buffer": 0,
      "byteLength": 2880,
      "byteOffset": 454376,
      "target": 34963
    },
    {
      "buffer": 0,
      "byteLength": 28368,
      "byteOffset": 457256,
      "target": 34962
    },
    {
      "buffer": 0,
      "byteLength": 28368,
      "byteOffset": 485624,
      "target": 34962
    },
    {
      "buffer": 0,
      "byteLength": 18912,
      "byteOffset": 513992,
      "target": 34962
    },
    {
      "buffer": 0,
      "byteLength": 18912,
      "byteOffset": 532904,
      "target": 34962
    },
    {
      "buffer": 0,
      "byteLength": 20544,
      "byteOffset": 551816,
      "target": 34963
    },
    {
      "buffer": 0,
      "byteLength": 46992,
      "byteOffset": 572360,
      "target": 34962
    },
    {
      "buffer": 0,
      "byteLength": 46992,
      "byteOffset": 619352,
      "target": 34962
    },
    {
      "buffer": 0,
      "byteLength": 31328,
      "byteOffset": 666344,
      "target": 34962
    },
    {
      "buffer": 0,
      "byteLength": 31328,
      "byteOffset": 697672,
      "target": 34962
    },
    {
      "buffer": 0,
      "byteLength": 16848,
      "byteOffset": 729000,
      "target": 34963
    },
    {
      "buffer": 0,
      "byteLength": 6108,
      "byteOffset": 745848,
      "target": 34962
    },
    {
      "buffer": 0,
      "byteLength": 6108,
      "byteOffset": 751956,
      "target": 34962
    },
    {
      "buffer": 0,
      "byteLength": 4072,
      "byteOffset": 758064,
      "target": 34962
    },
    {
      "buffer": 0,
      "byteLength": 4072,
      "byteOffset": 762136,
      "target": 34962
    },
    {
      "buffer": 0,
      "byteLength": 4224,
      "byteOffset": 766208,
      "target": 34963
    },
    {
      "buffer": 0,
      "byteLength": 17580,
      "byteOffset": 770432,
      "target": 34962
    },
    {
      "buffer": 0,
      "byteLength": 17580,
      "byteOffset": 788012,
      "target": 34962
    },
    {
      "buffer": 0,
      "byteLength": 11720,
      "byteOffset": 805592,
      "target": 34962
    },
    {
      "buffer": 0,
      "byteLength": 11720,
      "byteOffset": 817312,
      "target": 34962
    },
    {
      "buffer": 0,
      "byteLength": 12168,
      "byteOffset": 829032,
      "target": 34963
    },
    {
      "buffer": 0,
      "byteLength": 20160,
      "byteOffset": 841200,
      "target": 34962
    },
    {
      "buffer": 0,
      "byteLength": 20160,
      "byteOffset": 861360,
      "target": 34962
    },
    {
      "buffer": 0,
      "byteLength": 13440,
      "byteOffset": 881520,
      "target": 34962
    },
    {
      "buffer": 0,
      "byteLength": 13440,
      "byteOffset": 894960,
      "target": 34962
    },
    {
      "buffer": 0,
      "byteLength": 13440,
      "byteOffset": 908400,
      "target": 34962
    },
    {
      "buffer": 0,
      "byteLength": 13440,
      "byteOffset": 921840,
      "target": 34962
    },
    {
      "buffer": 0,
      "byteLength": 11520,
      "byteOffset": 935280,
      "target": 34963
    },
    {
      "buffer": 0,
      "byteLength": 7800,
      "byteOffset": 946800,
      "target": 34962
    },
    {
      "buffer": 0,
      "byteLength": 7800,
      "byteOffset": 954600,
      "target": 34962
    },
    {
      "buffer": 0,
      "byteLength": 5200,
      "byteOffset": 962400,
      "target": 34962
    },
    {
      "buffer": 0,
      "byteLength": 5200,
      "byteOffset": 967600,
      "target": 34962
    },
    {
      "buffer": 0,
      "byteLength": 3840,
      "byteOffset": 972800,
      "target": 34963
    },
    {
      "buffer": 0,
      "byteLength": 55356,
      "byteOffset": 976640,
      "target": 34962
    },
    {
      "buffer": 0,
      "byteLength": 55356,
      "byteOffset": 1031996,
      "target": 34962
    },
    {
      "buffer": 0,
      "byteLength": 36904,
      "byteOffset": 1087352,
      "target": 34962
    },
    {
      "buffer": 0,
      "byteLength": 36904,
      "byteOffset": 1124256,
      "target": 34962
    },
    {
      "buffer": 0,
      "byteLength": 55356,
      "byteOffset": 1161160,
      "target": 34962
    },
    {
      "buffer": 0,
      "byteLength": 47322,
      "byteOffset": 1216516,
      "target": 34963
    },
    {
      "buffer": 0,
      "byteLength": 25836,
      "byteOffset": 1263840,
      "target": 34962
    },
    {
      "buffer": 0,
      "byteLength": 25836,
      "byteOffset": 1289676,
      "target": 34962
    },
    {
      "buffer": 0,
      "byteLength": 17224,
      "byteOffset": 1315512,
      "target": 34962
    },
    {
      "buffer": 0,
      "byteLength": 17224,
      "byteOffset": 1332736,
      "target": 34962
    },
    {
      "buffer": 0,
      "byteLength": 17808,
      "byteOffset": 1349960,
      "target": 34963
    },
    {
      "buffer": 0,
      "byteLength": 6144,
      "byteOffset": 1367768,
      "target": 34962
    },
    {
      "buffer": 0,
      "byteLength": 6144,
      "byteOffset": 1373912,
      "target": 34962
    },
    {
      "buffer": 0,
      "byteLength": 4096,
      "byteOffset": 1380056,
      "target": 34962
    },
    {
      "buffer": 0,
      "byteLength": 4096,
      "byteOffset": 1384152,
      "target": 34962
    },
    {
      "buffer": 0,
      "byteLength": 2376,
      "byteOffset": 1388248,
      "target": 34963
    },
    {
      "buffer": 0,
      "byteLength": 27696,
      "byteOffset": 1390624,
      "target": 34962
    },
    {
      "buffer": 0,
      "byteLength": 27696,
      "byteOffset": 1418320,
      "target": 34962
    },
    {
      "buffer": 0,
      "byteLength": 18464,
      "byteOffset": 1446016,
      "target": 34962
    },
    {
      "buffer": 0,
      "byteLength": 18464,
      "byteOffset": 1464480,
      "target": 34962
    },
    {
      "buffer": 0,
      "byteLength": 18464,
      "byteOffset": 1482944,
      "target": 34962
    },
    {
      "buffer": 0,
      "byteLength": 15240,
      "byteOffset": 1501408,
      "target": 34963
    },
    {
      "buffer": 0,
      "byteLength": 51180,
      "byteOffset": 1516648,
      "target": 34962
    },
    {
      "buffer": 0,
      "byteLength": 51180,
      "byteOffset": 1567828,
      "target": 34962
    },
    {
      "buffer": 0,
      "byteLength": 34120,
      "byteOffset": 1619008,
      "target": 34962
    },
    {
      "buffer": 0,
      "byteLength": 34120,
      "byteOffset": 1653128,
      "target": 34962
    },
    {
      "buffer": 0,
      "byteLength": 51180,
      "byteOffset": 1687248,
      "target": 34962
    },
    {
      "buffer": 0,
      "byteLength": 44748,
      "byteOffset": 1738428,
      "target": 34963
    },
    {
      "buffer": 0,
      "byteLength": 15300,
      "byteOffset": 1783176,
      "target": 34962
    },
    {
      "buffer": 0,
      "byteLength": 15300,
      "byteOffset": 1798476,
      "target": 34962
    },
    {
      "buffer": 0,
      "byteLength": 10200,
      "byteOffset": 1813776,
      "target": 34962
    },
    {
      "buffer": 0,
      "byteLength": 10200,
      "byteOffset": 1823976,
      "target": 34962
    },
    {
      "buffer": 0,
      "byteLength": 15300,
      "byteOffset": 1834176,
      "target": 34962
    },
    {
      "buffer": 0,
      "byteLength": 10200,
      "byteOffset": 1849476,
      "target": 34962
    },
    {
      "buffer": 0,
      "byteLength": 11436,
      "byteOffset": 1859676,
      "target": 34963
    },
    {
      "buffer": 0,
      "byteLength": 23040,
      "byteOffset": 1871112,
      "target": 34962
    },
    {
      "buffer": 0,
      "byteLength": 23040,
      "byteOffset": 1894152,
      "target": 34962
    },
    {
      "buffer": 0,
      "byteLength": 15360,
      "byteOffset": 1917192,
      "target": 34962
    },
    {
      "buffer": 0,
      "byteLength": 15360,
      "byteOffset": 1932552,
      "target": 34962
    },
    {
      "buffer": 0,
      "byteLength": 23040,
      "byteOffset": 1947912,
      "target": 34962
    },
    {
      "buffer": 0,
      "byteLength": 15360,
      "byteOffset": 1970952,
      "target": 34962
    },
    {
      "buffer": 0,
      "byteLength": 5760,
      "byteOffset": 1986312,
      "target": 34963
    },
    {
      "buffer": 0,
      "byteLength": 8580,
      "byteOffset": 1992072,
      "target": 34962
    },
    {
      "buffer": 0,
      "byteLength": 8580,
      "byteOffset": 2000652,
      "target": 34962
    },
    {
      "buffer": 0,
      "byteLength": 5720,
      "byteOffset": 2009232,
      "target": 34962
    },
    {
      "buffer": 0,
      "byteLength": 5720,
      "byteOffset": 2014952,
      "target": 34962
    },
    {
      "buffer": 0,
      "byteLength": 4224,
      "byteOffset": 2020672,
      "target": 34963
    },
    {
      "buffer": 0,
      "byteLength": 8640,
      "byteOffset": 2024896,
      "target": 34962
    },
    {
      "buffer": 0,
      "byteLength": 8640,
      "byteOffset": 2033536,
      "target": 34962
    },
    {
      "buffer": 0,
      "byteLength": 5760,
      "byteOffset": 2042176,
      "target": 34962
    },
    {
      "buffer": 0,
      "byteLength": 5760,
      "byteOffset": 2047936,
      "target": 34962
    },
    {
      "buffer": 0,
      "byteLength": 5760,
      "byteOffset": 2053696,
      "target": 34962
    },
    {
      "buffer": 0,
      "byteLength": 5760,
      "byteOffset": 2059456,
      "target": 34962
    },
    {
      "buffer": 0,
      "byteLength": 2160,
      "byteOffset": 2065216,
      "target": 34963
    },
    {
      "buffer": 0,
      "byteLength": 7200,
      "byteOffset": 2067376,
      "target": 34962
    },
    {
      "buffer": 0,
      "byteLength": 7200,
      "byteOffset": 2074576,
      "target": 34962
    },
    {
      "buffer": 0,
      "byteLength": 4800,
      "byteOffset": 2081776,
      "target": 34962
    },
    {
      "buffer": 0,
      "byteLength": 4800,
      "byteOffset": 2086576,
      "target": 34962
    },
    {
      "buffer": 0,
      "byteLength": 4800,
      "byteOffset": 2091376,
      "target": 34962
    },
    {
      "buffer": 0,
      "byteLength": 4800,
      "byteOffset": 2096176,
      "target": 34962
    },
    {
      "buffer": 0,
      "byteLength": 1800,
      "byteOffset": 2100976,
      "target": 34963
    },
    {
      "buffer": 0,
      "byteLength": 2484,
      "byteOffset": 2102776,
      "target": 34962
    },
    {
      "buffer": 0,
      "byteLength": 2484,
      "byteOffset": 2105260,
      "target": 34962
    },
    {
      "buffer": 0,
      "byteLength": 1656,
      "byteOffset": 2107744,
      "target": 34962
    },
    {
      "buffer": 0,
      "byteLength": 1656,
      "byteOffset": 2109400,
      "target": 34962
    },
    {
      "buffer": 0,
      "byteLength": 2484,
      "byteOffset": 2111056,
      "target": 34962
    },
    {
      "buffer": 0,
      "byteLength": 1656,
      "byteOffset": 2113540,
      "target": 34962
    },
    {
      "buffer": 0,
      "byteLength": 1620,
      "byteOffset": 2115196,
      "target": 34963
    },
    {
      "buffer": 0,
      "byteLength": 1524,
      "byteOffset": 2116816,
      "target": 34962
    },
    {
      "buffer": 0,
      "byteLength": 1524,
      "byteOffset": 2118340,
      "target": 34962
    },
    {
      "buffer": 0,
      "byteLength": 1016,
      "byteOffset": 2119864,
      "target": 34962
    },
    {
      "buffer": 0,
      "byteLength": 1016,
      "byteOffset": 2120880,
      "target": 34962
    },
    {
      "buffer": 0,
      "byteLength": 1524,
      "byteOffset": 2121896,
      "target": 34962
    },
    {
      "buffer": 0,
      "byteLength": 1016,
      "byteOffset": 2123420,
      "target": 34962
    },
    {
      "buffer": 0,
      "byteLength": 1068,
      "byteOffset": 2124436,
      "target": 34963
    },
    {
      "buffer": 0,
      "byteOffset": 2125504,
      "byteLength": 1184,
      "target": 34962
    },
    {
      "buffer": 0,
      "byteOffset": 2126688,
      "byteLength": 108144,
      "target": 34962
    },
    {
      "buffer": 0,
      "byteOffset": 2234832,
      "byteLength": 10864,
      "target": 34962
    },
    {
      "buffer": 0,
      "byteOffset": 2245696,
      "byteLength": 37824,
      "target": 34962
    },
    {
      "buffer": 0,
      "byteOffset": 2283520,
      "byteLength": 62656,
      "target": 34962
    },
    {
      "buffer": 0,
      "byteOffset": 2346176,
      "byteLength": 8144,
      "target": 34962
    },
    {
      "buffer": 0,
      "byteOffset": 2354320,
      "byteLength": 23440,
      "target": 34962
    },
    {
      "buffer": 0,
      "byteOffset": 2377760,
      "byteLength": 10400,
      "target": 34962
    },
    {
      "buffer": 0,
      "byteOffset": 2388160,
      "byteLength": 73808,
      "target": 34962
    },
    {
      "buffer": 0,
      "byteOffset": 2461968,
      "byteLength": 34448,
      "target": 34962
    },
    {
      "buffer": 0,
      "byteOffset": 2496416,
      "byteLength": 8192,
      "target": 34962
    },
    {
      "buffer": 0,
      "byteOffset": 2504608,
      "byteLength": 36928,
      "target": 34962
    },
    {
      "buffer": 0,
      "byteOffset": 2541536,
      "byteLength": 68240,
      "target": 34962
    },
    {
      "buffer": 0,
      "byteOffset": 2609776,
      "byteLength": 20400,
      "target": 34962
    },
    {
      "buffer": 0,
      "byteOffset": 2630176,
      "byteLength": 11440,
      "target": 34962
    },
    {
      "buffer": 0,
      "byteOffset": 2641616,
      "byteLength": 3312,
      "target": 34962
    }
  ],
  "samplers": [
    {
      "magFilter": 9729,
      "minFilter": 9987
    }
  ],
  "buffers": [
    {
      "byteLength": 2644928,
      "uri": "cell_x2_z-1_render.bin"
    }
  ]
}