{
  "asset": {
    "generator": "Khronos glTF Blender I/O v5.0.21",
    "version": "2.0"
  },
  "extensionsUsed": [
    "KHR_materials_clearcoat",
    "KHR_materials_specular",
    "KHR_materials_ior",
    "KHR_texture_transform"
  ],
  "extensionsRequired": [
    "KHR_texture_transform"
  ],
  "scene": 0,
  "scenes": [
    {
      "name": "Scene",
      "nodes": [
        0,
        1,
        2,
        3,
        4,
        5,
        6,
        7,
        8,
        9,
        10,
        11,
        12,
        13,
        14,
        15,
        16,
        17,
        18,
        19,
        20,
        21,
        22,
        23,
        24,
        25,
        26,
        27,
        28,
        29,
        30,
        31,
        32,
        33,
        34,
        35,
        36
      ]
    }
  ],
  "nodes": [
    {
      "mesh": 0,
      "name": "SM_MOD_citywall_gate_castle_LOD0.001",
      "translation": [
        39.95851516723633,
        8.32861328125,
        -35.62785339355469
      ]
    },
    {
      "mesh": 1,
      "name": "SM_PROP_statue_castle_01_LOD0.001",
      "rotation": [
        0,
        0.999533474445343,
        0,
        0.030542820692062378
      ],
      "scale": [
        0.7613599896430969,
        0.7613599896430969,
        0.7613599896430969
      ],
      "translation": [
        35.598514556884766,
        8.128616333007812,
        -38.387855529785156
      ]
    },
    {
      "mesh": 2,
      "name": "SM_MOD_column_02_castle_LOD0.009",
      "rotation": [
        0,
        0.515325129032135,
        0,
        0.8569947481155396
      ],
      "translation": [
        50.19651412963867,
        8.334609985351562,
        -61.668853759765625
      ]
    },
    {
      "mesh": 2,
      "name": "SM_MOD_column_02_castle_LOD0.019",
      "rotation": [
        0,
        0.6744409203529358,
        0,
        0.7383288145065308
      ],
      "translation": [
        48.62651443481445,
        7.8396148681640625,
        -53.60985565185547
      ]
    },
    {
      "mesh": 3,
      "name": "SM_ENV_bush_castle_06_LOD0.007",
      "translation": [
        56.68851852416992,
        17.188613891601562,
        -37.15785217285156
      ]
    },
    {
      "mesh": 4,
      "name": "SM_ENV_bush_castle_07_LOD0.015",
      "rotation": [
        -0.02160283923149109,
        0.5491932034492493,
        -0.03283614665269852,
        0.8347705602645874
      ],
      "scale": [
        0.7967100739479065,
        0.796710193157196,
        0.7967097759246826
      ],
      "translation": [
        44.33451461791992,
        8.957611083984375,
        -64.03385162353516
      ]
    },
    {
      "mesh": 2,
      "name": "SM_MOD_column_02_castle_LOD0.037",
      "rotation": [
        -0.005145709030330181,
        0.6975521445274353,
        -0.001006561447866261,
        0.7165148258209229
      ],
      "translation": [
        41.91251754760742,
        8.144607543945312,
        -53.29485321044922
      ]
    },
    {
      "mesh": 5,
      "name": "SM_MOD_railing_02_straight_castle_LOD0.063",
      "rotation": [
        0.013901525177061558,
        0.5766448378562927,
        0.05139418691396713,
        0.8152583241462708
      ],
      "translation": [
        49.5665168762207,
        8.19561767578125,
        -59.94085693359375
      ]
    },
    {
      "mesh": 2,
      "name": "SM_MOD_column_02_castle_LOD0.043",
      "rotation": [
        0,
        0.5978396534919739,
        0,
        0.8016157150268555
      ],
      "translation": [
        48.88651657104492,
        7.9956207275390625,
        -57.88385009765625
      ]
    },
    {
      "mesh": 5,
      "name": "SM_MOD_railing_02_straight_castle_LOD0.071",
      "rotation": [
        -0.009630640037357807,
        0.689310610294342,
        0.0303509421646595,
        0.7237658500671387
      ],
      "translation": [
        48.72951889038086,
        7.8996124267578125,
        -55.85485076904297
      ]
    },
    {
      "mesh": 6,
      "name": "SM_PROP_flag_castle_02_LOD0.003",
      "rotation": [
        0,
        -1,
        0,
        4.371138828673793e-08
      ],
      "scale": [
        0.8409000039100647,
        0.8409000039100647,
        0.8409000039100647
      ],
      "translation": [
        43.20851516723633,
        17.177902221679688,
        -36.883697509765625
      ]
    },
    {
      "mesh": 6,
      "name": "SM_PROP_flag_castle_02_LOD0.004",
      "rotation": [
        0,
        -1,
        0,
        4.371138828673793e-08
      ],
      "scale": [
        0.8409000039100647,
        0.8409000039100647,
        0.8409000039100647
      ],
      "translation": [
        36.69851303100586,
        17.177902221679688,
        -36.883697509765625
      ]
    },
    {
      "mesh": 2,
      "name": "SM_MOD_column_02_castle_LOD0.069",
      "rotation": [
        0,
        0.5920126438140869,
        0,
        0.8059287071228027
      ],
      "translation": [
        43.02216720581055,
        8.54461669921875,
        -61.605186462402344
      ]
    },
    {
      "mesh": 4,
      "name": "SM_ENV_bush_castle_07_LOD0.028",
      "rotation": [
        0.5496177673339844,
        0,
        0.8354163765907288,
        1.6719860695957323e-07
      ],
      "scale": [
        0.7967100739479065,
        0.7967098951339722,
        0.7967098951339722
      ],
      "translation": [
        43.7395133972168,
        8.88360595703125,
        -62.65485382080078
      ]
    },
    {
      "mesh": 5,
      "name": "SM_MOD_railing_02_straight_castle_LOD0.094",
      "rotation": [
        0.006614692974835634,
        0.6707165241241455,
        -0.006464836187660694,
        0.7416561245918274
      ],
      "translation": [
        35.48151779174805,
        8.106613159179688,
        -33.78684997558594
      ]
    },
    {
      "mesh": 7,
      "name": "SM_ENV_cliff_castle_01_LOD0.018",
      "rotation": [
        0.642717182636261,
        0.2789720892906189,
        -0.5199885964393616,
        0.4885704219341278
      ],
      "scale": [
        1.5480000972747803,
        1.5479998588562012,
        1.5479999780654907
      ],
      "translation": [
        61.88851547241211,
        7.238616943359375,
        -49.957855224609375
      ]
    },
    {
      "mesh": 4,
      "name": "SM_ENV_bush_castle_07_LOD0.030",
      "scale": [
        1.4330999851226807,
        1.4330999851226807,
        1.4330999851226807
      ],
      "translation": [
        59.00851821899414,
        17.248611450195312,
        -37.137855529785156
      ]
    },
    {
      "mesh": 1,
      "name": "SM_PROP_statue_castle_01_LOD0.007",
      "rotation": [
        0,
        0.999533474445343,
        0,
        0.030542820692062378
      ],
      "scale": [
        0.7613599896430969,
        0.7613599896430969,
        0.7613599896430969
      ],
      "translation": [
        44.608516693115234,
        8.128616333007812,
        -37.837852478027344
      ]
    },
    {
      "mesh": 2,
      "name": "SM_MOD_column_02_castle_LOD0.094",
      "rotation": [
        0,
        0.5980377197265625,
        0,
        0.8014680743217468
      ],
      "translation": [
        47.81851577758789,
        7.6106109619140625,
        -49.47985076904297
      ]
    },
    {
      "mesh": 4,
      "name": "SM_ENV_bush_castle_07_LOD0.038",
      "rotation": [
        0.5063148140907288,
        0.046824075281620026,
        -0.05630046874284744,
        0.8592341542243958
      ],
      "scale": [
        1.4330997467041016,
        1.4330999851226807,
        1.4331001043319702
      ],
      "translation": [
        53.9885139465332,
        18.298614501953125,
        -36.55785369873047
      ]
    },
    {
      "mesh": 2,
      "name": "SM_MOD_column_02_castle_LOD0.103",
      "rotation": [
        0,
        0.6444426774978638,
        0,
        0.7646526098251343
      ],
      "translation": [
        42.12751388549805,
        8.304611206054688,
        -57.49885559082031
      ]
    },
    {
      "mesh": 8,
      "name": "SM_MOD_citywall_straight_castle_LOD0.009",
      "translation": [
        47.95851516723633,
        8.32861328125,
        -35.62785339355469
      ]
    },
    {
      "mesh": 4,
      "name": "SM_ENV_bush_castle_07_LOD0.047",
      "scale": [
        1.4330999851226807,
        1.4330999851226807,
        1.4330999851226807
      ],
      "translation": [
        49.69851303100586,
        17.248611450195312,
        -37.137855529785156
      ]
    },
    {
      "mesh": 9,
      "name": "SM_ENV_bush_castle_08_LOD0.053",
      "translation": [
        51.87851333618164,
        16.378616333007812,
        -37.147850036621094
      ]
    },
    {
      "mesh": 5,
      "name": "SM_MOD_railing_02_straight_castle_LOD0.161",
      "rotation": [
        -0.006585635710507631,
        0.634894073009491,
        0.03592599183320999,
        0.7717353701591492
      ],
      "translation": [
        42.56351852416992,
        8.364608764648438,
        -59.56585693359375
      ]
    },
    {
      "mesh": 4,
      "name": "SM_ENV_bush_castle_07_LOD0.054",
      "scale": [
        1.4330999851226807,
        1.4330999851226807,
        1.4330999851226807
      ],
      "translation": [
        54.26851272583008,
        17.00860595703125,
        -37.137855529785156
      ]
    },
    {
      "mesh": 5,
      "name": "SM_MOD_railing_02_straight_castle_LOD0.174",
      "rotation": [
        -0.0071878582239151,
        0.6296044588088989,
        0.031020376831293106,
        0.7762630581855774
      ],
      "translation": [
        48.26651382446289,
        7.7066192626953125,
        -51.59385681152344
      ]
    },
    {
      "mesh": 5,
      "name": "SM_MOD_railing_02_straight_castle_LOD0.175",
      "rotation": [
        -0.009148973040282726,
        0.6886834502220154,
        0.035360194742679596,
        0.7241416573524475
      ],
      "translation": [
        42.04837417602539,
        8.186904907226562,
        -55.40338134765625
      ]
    },
    {
      "mesh": 10,
      "name": "SM_MOD_citywall_curved_castle_LOD0.002",
      "rotation": [
        0,
        0.7070896029472351,
        0,
        0.7071240544319153
      ],
      "translation": [
        59.95851516723633,
        8.32861328125,
        -35.62785339355469
      ]
    },
    {
      "mesh": 9,
      "name": "SM_ENV_bush_castle_08_LOD0.062",
      "rotation": [
        0,
        1,
        0,
        1.9470718370939721e-07
      ],
      "scale": [
        0.8055400252342224,
        0.8055400252342224,
        0.8055400252342224
      ],
      "translation": [
        49.29851150512695,
        16.098617553710938,
        -37.147850036621094
      ]
    },
    {
      "mesh": 5,
      "name": "SM_MOD_railing_02_straight_castle_LOD0.202",
      "rotation": [
        0.02551351487636566,
        0.425077885389328,
        0.054209206253290176,
        0.9031717777252197
      ],
      "translation": [
        51.5405158996582,
        8.612350463867188,
        -63.370849609375
      ]
    },
    {
      "mesh": 5,
      "name": "SM_MOD_railing_02_straight_castle_LOD0.213",
      "rotation": [
        -0.025868505239486694,
        0.5372554659843445,
        -0.006164125632494688,
        0.8430002331733704
      ],
      "translation": [
        43.82651138305664,
        8.395614624023438,
        -63.431854248046875
      ]
    },
    {
      "mesh": 3,
      "name": "SM_ENV_bush_castle_06_LOD0.041",
      "translation": [
        47.37851333618164,
        17.188613891601562,
        -37.15785217285156
      ]
    },
    {
      "mesh": 4,
      "name": "SM_ENV_bush_castle_07_LOD0.075",
      "scale": [
        1.4330999851226807,
        1.4330999851226807,
        1.4330999851226807
      ],
      "translation": [
        54.51851272583008,
        15.788619995117188,
        -37.137855529785156
      ]
    },
    {
      "mesh": 3,
      "name": "SM_ENV_bush_castle_06_LOD0.042",
      "rotation": [
        0,
        -0.2522657513618469,
        0,
        0.9676579833030701
      ],
      "translation": [
        63.358516693115234,
        17.188613891601562,
        -36.30785369873047
      ]
    },
    {
      "mesh": 8,
      "name": "SM_MOD_citywall_straight_castle_LOD0.011",
      "translation": [
        55.95851516723633,
        8.32861328125,
        -35.62785339355469
      ]
    },
    {
      "mesh": 4,
      "name": "SM_ENV_bush_castle_07_LOD0.082",
      "rotation": [
        0.29085245728492737,
        0.36230385303497314,
        -0.8762314915657043,
        0.1279027909040451
      ],
      "scale": [
        1.4330999851226807,
        1.4331001043319702,
        1.4330998659133911
      ],
      "translation": [
        63.7185173034668,
        18.066619873046875,
        -35.582855224609375
      ]
    }
  ],
  "materials": [
    {
      "doubleSided": true,
      "name": "M_MOD_wall_gate_castle",
      "normalTexture": {
        "index": 0,
        "scale": 3,
        "texCoord": 2
      },
      "pbrMetallicRoughness": {
        "metallicRoughnessTexture": {
          "index": 2,
          "texCoord": 2
        },
        "baseColorFactor": [
          1,
          1,
          1,
          1
        ],
        "metallicFactor": 0.0,
        "baseColorTexture": {
          "index": 21
        }
      }
    },
    {
      "doubleSided": true,
      "name": "M_PROP_statue_castle",
      "normalTexture": {
        "index": 3,
        "scale": 4
      },
      "pbrMetallicRoughness": {
        "baseColorTexture": {
          "index": 4
        },
        "metallicRoughnessTexture": {
          "index": 5
        }
      }
    },
    {
      "doubleSided": true,
      "name": "M_TRIM_castle",
      "normalTexture": {
        "index": 6,
        "scale": 4
      },
      "pbrMetallicRoughness": {
        "baseColorTexture": {
          "index": 7
        },
        "metallicRoughnessTexture": {
          "index": 8
        }
      }
    },
    {
      "alphaMode": "BLEND",
      "doubleSided": true,
      "extensions": {
        "KHR_materials_clearcoat": {
          "clearcoatRoughnessFactor": 0
        },
        "KHR_materials_specular": {
          "specularFactor": 0
        },
        "KHR_materials_ior": {
          "ior": 1.4500000476837158
        }
      },
      "name": "M_ENV_foliage_castle",
      "pbrMetallicRoughness": {
        "baseColorTexture": {
          "index": 9
        },
        "metallicFactor": 0,
        "roughnessFactor": 0
      }
    },
    {
      "doubleSided": true,
      "name": "M_TRIM_castle.001",
      "normalTexture": {
        "index": 10,
        "scale": 4
      },
      "pbrMetallicRoughness": {
        "baseColorTexture": {
          "index": 11
        },
        "metallicRoughnessTexture": {
          "index": 12
        }
      }
    },
    {
      "doubleSided": true,
      "name": "M_PROP_flag_castle",
      "pbrMetallicRoughness": {
        "baseColorTexture": {
          "index": 13
        },
        "metallicFactor": 0,
        "roughnessFactor": 0.5
      }
    },
    {
      "doubleSided": true,
      "name": "M_CliffGrassVC",
      "normalTexture": {
        "extensions": {
          "KHR_texture_transform": {
            "offset": [
              0,
              -6
            ],
            "scale": [
              7,
              7
            ]
          }
        },
        "index": 14,
        "scale": 0.6000000238418579
      },
      "pbrMetallicRoughness": {
        "metallicFactor": 0,
        "roughnessFactor": 0.9200000166893005
      }
    },
    {
      "doubleSided": true,
      "name": "M_MOD_wall_castle",
      "normalTexture": {
        "index": 15,
        "scale": 3,
        "texCoord": 2
      },
      "pbrMetallicRoughness": {
        "metallicRoughnessTexture": {
          "index": 17,
          "texCoord": 2
        },
        "baseColorFactor": [
          1,
          1,
          1,
          1
        ],
        "metallicFactor": 0.0,
        "baseColorTexture": {
          "index": 21
        }
      }
    },
    {
      "doubleSided": true,
      "name": "M_MOD_wall_curved_castle",
      "normalTexture": {
        "index": 18,
        "scale": 3,
        "texCoord": 2
      },
      "pbrMetallicRoughness": {
        "metallicRoughnessTexture": {
          "index": 20,
          "texCoord": 2
        },
        "baseColorFactor": [
          1,
          1,
          1,
          1
        ],
        "metallicFactor": 0.0,
        "baseColorTexture": {
          "index": 21
        }
      }
    }
  ],
  "meshes": [
    {
      "name": "Cube.3240",
      "primitives": [
        {
          "attributes": {
            "POSITION": 0,
            "NORMAL": 1,
            "TEXCOORD_0": 2,
            "TEXCOORD_1": 3,
            "TEXCOORD_2": 4,
            "TANGENT": 74
          },
          "indices": 5,
          "material": 0
        }
      ]
    },
    {
      "name": "Cube.431",
      "primitives": [
        {
          "attributes": {
            "POSITION": 6,
            "NORMAL": 7,
            "TEXCOORD_0": 8,
            "TEXCOORD_1": 9,
            "TANGENT": 75
          },
          "indices": 10,
          "material": 1
        }
      ]
    },
    {
      "name": "Cube.3213",
      "primitives": [
        {
          "attributes": {
            "POSITION": 11,
            "NORMAL": 12,
            "TEXCOORD_0": 13,
            "TEXCOORD_1": 14,
            "TANGENT": 76
          },
          "indices": 15,
          "material": 2
        }
      ]
    },
    {
      "name": "Plane.648",
      "primitives": [
        {
          "attributes": {
            "POSITION": 16,
            "NORMAL": 17,
            "TEXCOORD_0": 18,
            "TEXCOORD_1": 19,
            "COLOR_0": 20,
            "COLOR_1": 21
          },
          "indices": 22,
          "material": 3
        }
      ]
    },
    {
      "name": "Plane.728",
      "primitives": [
        {
          "attributes": {
            "POSITION": 23,
            "NORMAL": 24,
            "TEXCOORD_0": 25,
            "TEXCOORD_1": 26,
            "COLOR_0": 27,
            "COLOR_1": 28
          },
          "indices": 29,
          "material": 3
        }
      ]
    },
    {
      "name": "Cube.1020",
      "primitives": [
        {
          "attributes": {
            "POSITION": 30,
            "NORMAL": 31,
            "TEXCOORD_0": 32,
            "TEXCOORD_1": 33,
            "TANGENT": 77
          },
          "indices": 34,
          "material": 2
        }
      ]
    },
    {
      "name": "Cylinder.395",
      "primitives": [
        {
          "attributes": {
            "POSITION": 35,
            "NORMAL": 36,
            "TEXCOORD_0": 37,
            "TEXCOORD_1": 38,
            "COLOR_0": 39,
            "COLOR_1": 40,
            "TANGENT": 78
          },
          "indices": 41,
          "material": 4
        },
        {
          "attributes": {
            "POSITION": 42,
            "NORMAL": 43,
            "TEXCOORD_0": 44,
            "TEXCOORD_1": 45,
            "COLOR_0": 46,
            "COLOR_1": 47
          },
          "indices": 48,
          "material": 5
        }
      ]
    },
    {
      "name": "SM_ENV_cliff_castle_01_instantmeshesexp_02",
      "primitives": [
        {
          "attributes": {
            "POSITION": 49,
            "NORMAL": 50,
            "TEXCOORD_0": 51,
            "TEXCOORD_1": 52,
            "COLOR_0": 53,
            "TANGENT": 79
          },
          "indices": 54,
          "material": 6
        }
      ]
    },
    {
      "name": "Cube.3241",
      "primitives": [
        {
          "attributes": {
            "POSITION": 55,
            "NORMAL": 56,
            "TEXCOORD_0": 57,
            "TEXCOORD_1": 58,
            "TEXCOORD_2": 59,
            "TANGENT": 80
          },
          "indices": 60,
          "material": 7
        }
      ]
    },
    {
      "name": "Plane.789",
      "primitives": [
        {
          "attributes": {
            "POSITION": 61,
            "NORMAL": 62,
            "TEXCOORD_0": 63,
            "TEXCOORD_1": 64,
            "COLOR_0": 65,
            "COLOR_1": 66
          },
          "indices": 67,
          "material": 3
        }
      ]
    },
    {
      "name": "Cube.3239",
      "primitives": [
        {
          "attributes": {
            "POSITION": 68,
            "NORMAL": 69,
            "TEXCOORD_0": 70,
            "TEXCOORD_1": 71,
            "TEXCOORD_2": 72,
            "TANGENT": 81
          },
          "indices": 73,
          "material": 8
        }
      ]
    }
  ],
  "textures": [
    {
      "sampler": 0,
      "source": 0
    },
    {
      "sampler": 0,
      "source": 1
    },
    {
      "sampler": 0,
      "source": 2
    },
    {
      "sampler": 0,
      "source": 3
    },
    {
      "sampler": 0,
      "source": 4
    },
    {
      "sampler": 0,
      "source": 5
    },
    {
      "sampler": 0,
      "source": 6
    },
    {
      "sampler": 0,
      "source": 7
    },
    {
      "sampler": 0,
      "source": 8
    },
    {
      "sampler": 0,
      "source": 9
    },
    {
      "sampler": 0,
      "source": 6
    },
    {
      "sampler": 0,
      "source": 7
    },
    {
      "sampler": 0,
      "source": 8
    },
    {
      "sampler": 0,
      "source": 10
    },
    {
      "sampler": 0,
      "source": 11
    },
    {
      "sampler": 0,
      "source": 0
    },
    {
      "sampler": 0,
      "source": 1
    },
    {
      "sampler": 0,
      "source": 2
    },
    {
      "sampler": 0,
      "source": 0
    },
    {
      "sampler": 0,
      "source": 1
    },
    {
      "sampler": 0,
      "source": 2
    },
    {
      "sampler": 0,
      "source": 12
    }
  ],
  "images": [
    {
      "mimeType": "image/png",
      "name": "T_MOD_wall_blocks_castle_01_N",
      "uri": "textures/T_MOD_wall_blocks_castle_01_N.png"
    },
    {
      "mimeType": "image/png",
      "name": "T_MOD_citywall_MASK",
      "uri": "textures/T_MOD_citywall_MASK.png"
    },
    {
      "mimeType": "image/png",
      "name": "T_MOD_wall_blocks_castle_01_PBR",
      "uri": "textures/T_MOD_wall_blocks_castle_01_PBR.png"
    },
    {
      "mimeType": "image/png",
      "name": "T_PROP_statue_castle_N",
      "uri": "textures/T_PROP_statue_castle_N.png"
    },
    {
      "mimeType": "image/png",
      "name": "T_PROP_statue_castle_BC",
      "uri": "textures/T_PROP_statue_castle_BC.png"
    },
    {
      "mimeType": "image/png",
      "name": "T_PROP_statue_castle_PBR",
      "uri": "textures/T_PROP_statue_castle_PBR.png"
    },
    {
      "mimeType": "image/png",
      "name": "T_TRIM_castle_01_N",
      "uri": "textures/T_TRIM_castle_01_N.png"
    },
    {
      "mimeType": "image/png",
      "name": "T_TRIM_castle_01_BC",
      "uri": "textures/T_TRIM_castle_01_BC.png"
    },
    {
      "mimeType": "image/png",
      "name": "T_TRIM_castle_01_PBR",
      "uri": "textures/T_TRIM_castle_01_PBR.png"
    },
    {
      "mimeType": "image/png",
      "name": "T_ENV_foliage_castle",
      "uri": "textures/T_ENV_foliage_castle.png"
    },
    {
      "mimeType": "image/png",
      "name": "T_PROP_flags_castle_BC",
      "uri": "textures/T_PROP_flags_castle_BC.png"
    },
    {
      "mimeType": "image/png",
      "name": "T_ENV_cliff_castle_01_N",
      "uri": "textures/T_ENV_cliff_castle_01_N.png"
    },
    {
      "uri": "textures/T_MOD_wall_bricks_castle_01_BC.png",
      "name": "T_MOD_wall_bricks_castle_01_BC"
    }
  ],
  "accessors": [
    {
      "bufferView": 0,
      "componentType": 5126,
      "count": 1306,
      "max": [
        4,
        10.867555618286133,
        1.4162745475769043
      ],
      "min": [
        -4,
        -0.007693582680076361,
        -1.4162745475769043
      ],
      "type": "VEC3"
    },
    {
      "bufferView": 1,
      "componentType": 5126,
      "count": 1306,
      "type": "VEC3"
    },
    {
      "bufferView": 2,
      "componentType": 5126,
      "count": 1306,
      "type": "VEC2"
    },
    {
      "bufferView": 3,
      "componentType": 5126,
      "count": 1306,
      "type": "VEC2"
    },
    {
      "bufferView": 4,
      "componentType": 5126,
      "count": 1306,
      "type": "VEC2"
    },
    {
      "bufferView": 5,
      "componentType": 5123,
      "count": 4800,
      "type": "SCALAR"
    },
    {
      "bufferView": 6,
      "componentType": 5126,
      "count": 3916,
      "max": [
        1.5454318523406982,
        6.340999126434326,
        1.5480334758758545
      ],
      "min": [
        -1.5454318523406982,
        -0.039270639419555664,
        -1.4389467239379883
      ],
      "type": "VEC3"
    },
    {
      "bufferView": 7,
      "componentType": 5126,
      "count": 3916,
      "type": "VEC3"
    },
    {
      "bufferView": 8,
      "componentType": 5126,
      "count": 3916,
      "type": "VEC2"
    },
    {
      "bufferView": 9,
      "componentType": 5126,
      "count": 3916,
      "type": "VEC2"
    },
    {
      "bufferView": 10,
      "componentType": 5123,
      "count": 8424,
      "type": "SCALAR"
    },
    {
      "bufferView": 11,
      "componentType": 5126,
      "count": 509,
      "max": [
        0.39473864436149597,
        1.2359495162963867,
        0.39473864436149597
      ],
      "min": [
        -0.39473864436149597,
        -0.12311287224292755,
        -0.39473864436149597
      ],
      "type": "VEC3"
    },
    {
      "bufferView": 12,
      "componentType": 5126,
      "count": 509,
      "type": "VEC3"
    },
    {
      "bufferView": 13,
      "componentType": 5126,
      "count": 509,
      "type": "VEC2"
    },
    {
      "bufferView": 14,
      "componentType": 5126,
      "count": 509,
      "type": "VEC2"
    },
    {
      "bufferView": 15,
      "componentType": 5123,
      "count": 2112,
      "type": "SCALAR"
    },
    {
      "bufferView": 16,
      "componentType": 5126,
      "count": 960,
      "max": [
        1.3535411357879639,
        0.8332891464233398,
        0.616664707660675
      ],
      "min": [
        -1.3742002248764038,
        -1.8549212217330933,
        -0.4186740517616272
      ],
      "type": "VEC3"
    },
    {
      "bufferView": 17,
      "componentType": 5126,
      "count": 960,
      "type": "VEC3"
    },
    {
      "bufferView": 18,
      "componentType": 5126,
      "count": 960,
      "type": "VEC2"
    },
    {
      "bufferView": 19,
      "componentType": 5126,
      "count": 960,
      "type": "VEC2"
    },
    {
      "bufferView": 20,
      "componentType": 5123,
      "count": 960,
      "normalized": true,
      "type": "VEC4"
    },
    {
      "bufferView": 21,
      "componentType": 5123,
      "count": 960,
      "normalized": true,
      "type": "VEC4"
    },
    {
      "bufferView": 22,
      "componentType": 5123,
      "count": 1440,
      "type": "SCALAR"
    },
    {
      "bufferView": 23,
      "componentType": 5126,
      "count": 720,
      "max": [
        1.6049699783325195,
        0.7846742272377014,
        0.6185894012451172
      ],
      "min": [
        -1.6038271188735962,
        -1.1322442293167114,
        -0.45752856135368347
      ],
      "type": "VEC3"
    },
    {
      "bufferView": 24,
      "componentType": 5126,
      "count": 720,
      "type": "VEC3"
    },
    {
      "bufferView": 25,
      "componentType": 5126,
      "count": 720,
      "type": "VEC2"
    },
    {
      "bufferView": 26,
      "componentType": 5126,
      "count": 720,
      "type": "VEC2"
    },
    {
      "bufferView": 27,
      "componentType": 5123,
      "count": 720,
      "normalized": true,
      "type": "VEC4"
    },
    {
      "bufferView": 28,
      "componentType": 5123,
      "count": 720,
      "normalized": true,
      "type": "VEC4"
    },
    {
      "bufferView": 29,
      "componentType": 5123,
      "count": 1080,
      "type": "SCALAR"
    },
    {
      "bufferView": 30,
      "componentType": 5126,
      "count": 512,
      "max": [
        1.9999985694885254,
        1.0031301975250244,
        0.2541757822036743
      ],
      "min": [
        -1.9999985694885254,
        -0.12952381372451782,
        -0.25105398893356323
      ],
      "type": "VEC3"
    },
    {
      "bufferView": 31,
      "componentType": 5126,
      "count": 512,
      "type": "VEC3"
    },
    {
      "bufferView": 32,
      "componentType": 5126,
      "count": 512,
      "type": "VEC2"
    },
    {
      "bufferView": 33,
      "componentType": 5126,
      "count": 512,
      "type": "VEC2"
    },
    {
      "bufferView": 34,
      "componentType": 5123,
      "count": 1188,
      "type": "SCALAR"
    },
    {
      "bufferView": 35,
      "componentType": 5126,
      "count": 331,
      "max": [
        1.9804307222366333,
        0.22082580626010895,
        0.31181246042251587
      ],
      "min": [
        -1.9804307222366333,
        -0.22083359956741333,
        -0.16948732733726501
      ],
      "type": "VEC3"
    },
    {
      "bufferView": 36,
      "componentType": 5126,
      "count": 331,
      "type": "VEC3"
    },
    {
      "bufferView": 37,
      "componentType": 5126,
      "count": 331,
      "type": "VEC2"
    },
    {
      "bufferView": 38,
      "componentType": 5126,
      "count": 331,
      "type": "VEC2"
    },
    {
      "bufferView": 39,
      "componentType": 5126,
      "count": 331,
      "type": "VEC3"
    },
    {
      "bufferView": 40,
      "componentType": 5123,
      "count": 331,
      "normalized": true,
      "type": "VEC4"
    },
    {
      "bufferView": 41,
      "componentType": 5123,
      "count": 1272,
      "type": "SCALAR"
    },
    {
      "bufferView": 42,
      "componentType": 5126,
      "count": 132,
      "max": [
        0.802899181842804,
        0.07135026901960373,
        0.27104124426841736
      ],
      "min": [
        -0.8000758290290833,
        -5.867575645446777,
        0.1161232739686966
      ],
      "type": "VEC3"
    },
    {
      "bufferView": 43,
      "componentType": 5126,
      "count": 132,
      "type": "VEC3"
    },
    {
      "bufferView": 44,
      "componentType": 5126,
      "count": 132,
      "type": "VEC2"
    },
    {
      "bufferView": 45,
      "componentType": 5126,
      "count": 132,
      "type": "VEC2"
    },
    {
      "bufferView": 46,
      "componentType": 5126,
      "count": 132,
      "type": "VEC3"
    },
    {
      "bufferView": 47,
      "componentType": 5123,
      "count": 132,
      "normalized": true,
      "type": "VEC4"
    },
    {
      "bufferView": 48,
      "componentType": 5123,
      "count": 594,
      "type": "SCALAR"
    },
    {
      "bufferView": 49,
      "componentType": 5126,
      "count": 4613,
      "max": [
        4.855959892272949,
        5.9515485763549805,
        3.302274227142334
      ],
      "min": [
        -4.882627487182617,
        -5.545106887817383,
        -3.2813682556152344
      ],
      "type": "VEC3"
    },
    {
      "bufferView": 50,
      "componentType": 5126,
      "count": 4613,
      "type": "VEC3"
    },
    {
      "bufferView": 51,
      "componentType": 5126,
      "count": 4613,
      "type": "VEC2"
    },
    {
      "bufferView": 52,
      "componentType": 5126,
      "count": 4613,
      "type": "VEC2"
    },
    {
      "bufferView": 53,
      "componentType": 5126,
      "count": 4613,
      "type": "VEC3"
    },
    {
      "bufferView": 54,
      "componentType": 5123,
      "count": 23661,
      "type": "SCALAR"
    },
    {
      "bufferView": 55,
      "componentType": 5126,
      "count": 2308,
      "max": [
        4,
        10.867555618286133,
        1.4162745475769043
      ],
      "min": [
        -4,
        4.76837158203125e-07,
        -1.4162745475769043
      ],
      "type": "VEC3"
    },
    {
      "bufferView": 56,
      "componentType": 5126,
      "count": 2308,
      "type": "VEC3"
    },
    {
      "bufferView": 57,
      "componentType": 5126,
      "count": 2308,
      "type": "VEC2"
    },
    {
      "bufferView": 58,
      "componentType": 5126,
      "count": 2308,
      "type": "VEC2"
    },
    {
      "bufferView": 59,
      "componentType": 5126,
      "count": 2308,
      "type": "VEC2"
    },
    {
      "bufferView": 60,
      "componentType": 5123,
      "count": 7620,
      "type": "SCALAR"
    },
    {
      "bufferView": 61,
      "componentType": 5126,
      "count": 864,
      "max": [
        2.126523971557617,
        2.460887908935547,
        1.11051344871521
      ],
      "min": [
        -2.2667510509490967,
        -6.639396667480469,
        -0.9110949039459229
      ],
      "type": "VEC3"
    },
    {
      "bufferView": 62,
      "componentType": 5126,
      "count": 864,
      "type": "VEC3"
    },
    {
      "bufferView": 63,
      "componentType": 5126,
      "count": 864,
      "type": "VEC2"
    },
    {
      "bufferView": 64,
      "componentType": 5126,
      "count": 864,
      "type": "VEC2"
    },
    {
      "bufferView": 65,
      "componentType": 5123,
      "count": 864,
      "normalized": true,
      "type": "VEC4"
    },
    {
      "bufferView": 66,
      "componentType": 5123,
      "count": 864,
      "normalized": true,
      "type": "VEC4"
    },
    {
      "bufferView": 67,
      "componentType": 5123,
      "count": 1296,
      "type": "SCALAR"
    },
    {
      "bufferView": 68,
      "componentType": 5126,
      "count": 2307,
      "max": [
        1.4162745475769043,
        10.867555618286133,
        6.416274070739746
      ],
      "min": [
        -5.000001430511475,
        4.76837158203125e-07,
        -4.462082506506704e-05
      ],
      "type": "VEC3"
    },
    {
      "bufferView": 69,
      "componentType": 5126,
      "count": 2307,
      "type": "VEC3"
    },
    {
      "bufferView": 70,
      "componentType": 5126,
      "count": 2307,
      "type": "VEC2"
    },
    {
      "bufferView": 71,
      "componentType": 5126,
      "count": 2307,
      "type": "VEC2"
    },
    {
      "bufferView": 72,
      "componentType": 5126,
      "count": 2307,
      "type": "VEC2"
    },
    {
      "bufferView": 73,
      "componentType": 5123,
      "count": 7620,
      "type": "SCALAR"
    },
    {
      "bufferView": 74,
      "componentType": 5126,
      "count": 1306,
      "type": "VEC4"
    },
    {
      "bufferView": 75,
      "componentType": 5126,
      "count": 3916,
      "type": "VEC4"
    },
    {
      "bufferView": 76,
      "componentType": 5126,
      "count": 509,
      "type": "VEC4"
    },
    {
      "bufferView": 77,
      "componentType": 5126,
      "count": 512,
      "type": "VEC4"
    },
    {
      "bufferView": 78,
      "componentType": 5126,
      "count": 331,
      "type": "VEC4"
    },
    {
      "bufferView": 79,
      "componentType": 5126,
      "count": 4613,
      "type": "VEC4"
    },
    {
      "bufferView": 80,
      "componentType": 5126,
      "count": 2308,
      "type": "VEC4"
    },
    {
      "bufferView": 81,
      "componentType": 5126,
      "count": 2307,
      "type": "VEC4"
    }
  ],
  "bufferViews": [
    {
      "buffer": 0,
      "byteLength": 15672,
      "byteOffset": 0,
      "target": 34962
    },
    {
      "buffer": 0,
      "byteLength": 15672,
      "byteOffset": 15672,
      "target": 34962
    },
    {
      "buffer": 0,
      "byteLength": 10448,
      "byteOffset": 31344,
      "target": 34962
    },
    {
      "buffer": 0,
      "byteLength": 10448,
      "byteOffset": 41792,
      "target": 34962
    },
    {
      "buffer": 0,
      "byteLength": 10448,
      "byteOffset": 52240,
      "target": 34962
    },
    {
      "buffer": 0,
      "byteLength": 9600,
      "byteOffset": 62688,
      "target": 34963
    },
    {
      "buffer": 0,
      "byteLength": 46992,
      "byteOffset": 72288,
      "target": 34962
    },
    {
      "buffer": 0,
      "byteLength": 46992,
      "byteOffset": 119280,
      "target": 34962
    },
    {
      "buffer": 0,
      "byteLength": 31328,
      "byteOffset": 166272,
      "target": 34962
    },
    {
      "buffer": 0,
      "byteLength": 31328,
      "byteOffset": 197600,
      "target": 34962
    },
    {
      "buffer": 0,
      "byteLength": 16848,
      "byteOffset": 228928,
      "target": 34963
    },
    {
      "buffer": 0,
      "byteLength": 6108,
      "byteOffset": 245776,
      "target": 34962
    },
    {
      "buffer": 0,
      "byteLength": 6108,
      "byteOffset": 251884,
      "target": 34962
    },
    {
      "buffer": 0,
      "byteLength": 4072,
      "byteOffset": 257992,
      "target": 34962
    },
    {
      "buffer": 0,
      "byteLength": 4072,
      "byteOffset": 262064,
      "target": 34962
    },
    {
      "buffer": 0,
      "byteLength": 4224,
      "byteOffset": 266136,
      "target": 34963
    },
    {
      "buffer": 0,
      "byteLength": 11520,
      "byteOffset": 270360,
      "target": 34962
    },
    {
      "buffer": 0,
      "byteLength": 11520,
      "byteOffset": 281880,
      "target": 34962
    },
    {
      "buffer": 0,
      "byteLength": 7680,
      "byteOffset": 293400,
      "target": 34962
    },
    {
      "buffer": 0,
      "byteLength": 7680,
      "byteOffset": 301080,
      "target": 34962
    },
    {
      "buffer": 0,
      "byteLength": 7680,
      "byteOffset": 308760,
      "target": 34962
    },
    {
      "buffer": 0,
      "byteLength": 7680,
      "byteOffset": 316440,
      "target": 34962
    },
    {
      "buffer": 0,
      "byteLength": 2880,
      "byteOffset": 324120,
      "target": 34963
    },
    {
      "buffer": 0,
      "byteLength": 8640,
      "byteOffset": 327000,
      "target": 34962
    },
    {
      "buffer": 0,
      "byteLength": 8640,
      "byteOffset": 335640,
      "target": 34962
    },
    {
      "buffer": 0,
      "byteLength": 5760,
      "byteOffset": 344280,
      "target": 34962
    },
    {
      "buffer": 0,
      "byteLength": 5760,
      "byteOffset": 350040,
      "target": 34962
    },
    {
      "buffer": 0,
      "byteLength": 5760,
      "byteOffset": 355800,
      "target": 34962
    },
    {
      "buffer": 0,
      "byteLength": 5760,
      "byteOffset": 361560,
      "target": 34962
    },
    {
      "buffer": 0,
      "byteLength": 2160,
      "byteOffset": 367320,
      "target": 34963
    },
    {
      "buffer": 0,
      "byteLength": 6144,
      "byteOffset": 369480,
      "target": 34962
    },
    {
      "buffer": 0,
      "byteLength": 6144,
      "byteOffset": 375624,
      "target": 34962
    },
    {
      "buffer": 0,
      "byteLength": 4096,
      "byteOffset": 381768,
      "target": 34962
    },
    {
      "buffer": 0,
      "byteLength": 4096,
      "byteOffset": 385864,
      "target": 34962
    },
    {
      "buffer": 0,
      "byteLength": 2376,
      "byteOffset": 389960,
      "target": 34963
    },
    {
      "buffer": 0,
      "byteLength": 3972,
      "byteOffset": 392336,
      "target": 34962
    },
    {
      "buffer": 0,
      "byteLength": 3972,
      "byteOffset": 396308,
      "target": 34962
    },
    {
      "buffer": 0,
      "byteLength": 2648,
      "byteOffset": 400280,
      "target": 34962
    },
    {
      "buffer": 0,
      "byteLength": 2648,
      "byteOffset": 402928,
      "target": 34962
    },
    {
      "buffer": 0,
      "byteLength": 3972,
      "byteOffset": 405576,
      "target": 34962
    },
    {
      "buffer": 0,
      "byteLength": 2648,
      "byteOffset": 409548,
      "target": 34962
    },
    {
      "buffer": 0,
      "byteLength": 2544,
      "byteOffset": 412196,
      "target": 34963
    },
    {
      "buffer": 0,
      "byteLength": 1584,
      "byteOffset": 414740,
      "target": 34962
    },
    {
      "buffer": 0,
      "byteLength": 1584,
      "byteOffset": 416324,
      "target": 34962
    },
    {
      "buffer": 0,
      "byteLength": 1056,
      "byteOffset": 417908,
      "target": 34962
    },
    {
      "buffer": 0,
      "byteLength": 1056,
      "byteOffset": 418964,
      "target": 34962
    },
    {
      "buffer": 0,
      "byteLength": 1584,
      "byteOffset": 420020,
      "target": 34962
    },
    {
      "buffer": 0,
      "byteLength": 1056,
      "byteOffset": 421604,
      "target": 34962
    },
    {
      "buffer": 0,
      "byteLength": 1188,
      "byteOffset": 422660,
      "target": 34963
    },
    {
      "buffer": 0,
      "byteLength": 55356,
      "byteOffset": 423848,
      "target": 34962
    },
    {
      "buffer": 0,
      "byteLength": 55356,
      "byteOffset": 479204,
      "target": 34962
    },
    {
      "buffer": 0,
      "byteLength": 36904,
      "byteOffset": 534560,
      "target": 34962
    },
    {
      "buffer": 0,
      "byteLength": 36904,
      "byteOffset": 571464,
      "target": 34962
    },
    {
      "buffer": 0,
      "byteLength": 55356,
      "byteOffset": 608368,
      "target": 34962
    },
    {
      "buffer": 0,
      "byteLength": 47322,
      "byteOffset": 663724,
      "target": 34963
    },
    {
      "buffer": 0,
      "byteLength": 27696,
      "byteOffset": 711048,
      "target": 34962
    },
    {
      "buffer": 0,
      "byteLength": 27696,
      "byteOffset": 738744,
      "target": 34962
    },
    {
      "buffer": 0,
      "byteLength": 18464,
      "byteOffset": 766440,
      "target": 34962
    },
    {
      "buffer": 0,
      "byteLength": 18464,
      "byteOffset": 784904,
      "target": 34962
    },
    {
      "buffer": 0,
      "byteLength": 18464,
      "byteOffset": 803368,
      "target": 34962
    },
    {
      "buffer": 0,
      "byteLength": 15240,
      "byteOffset": 821832,
      "target": 34963
    },
    {
      "buffer": 0,
      "byteLength": 10368,
      "byteOffset": 837072,
      "target": 34962
    },
    {
      "buffer": 0,
      "byteLength": 10368,
      "byteOffset": 847440,
      "target": 34962
    },
    {
      "buffer": 0,
      "byteLength": 6912,
      "byteOffset": 857808,
      "target": 34962
    },
    {
      "buffer": 0,
      "byteLength": 6912,
      "byteOffset": 864720,
      "target": 34962
    },
    {
      "buffer": 0,
      "byteLength": 6912,
      "byteOffset": 871632,
      "target": 34962
    },
    {
      "buffer": 0,
      "byteLength": 6912,
      "byteOffset": 878544,
      "target": 34962
    },
    {
      "buffer": 0,
      "byteLength": 2592,
      "byteOffset": 885456,
      "target": 34963
    },
    {
      "buffer": 0,
      "byteLength": 27684,
      "byteOffset": 888048,
      "target": 34962
    },
    {
      "buffer": 0,
      "byteLength": 27684,
      "byteOffset": 915732,
      "target": 34962
    },
    {
      "buffer": 0,
      "byteLength": 18456,
      "byteOffset": 943416,
      "target": 34962
    },
    {
      "buffer": 0,
      "byteLength": 18456,
      "byteOffset": 961872,
      "target": 34962
    },
    {
      "buffer": 0,
      "byteLength": 18456,
      "byteOffset": 980328,
      "target": 34962
    },
    {
      "buffer": 0,
      "byteLength": 15240,
      "byteOffset": 998784,
      "target": 34963
    },
    {
      "buffer": 0,
      "byteOffset": 1014024,
      "byteLength": 20896,
      "target": 34962
    },
    {
      "buffer": 0,
      "byteOffset": 1034920,
      "byteLength": 62656,
      "target": 34962
    },
    {
      "buffer": 0,
      "byteOffset": 1097576,
      "byteLength": 8144,
      "target": 34962
    },
    {
      "buffer": 0,
      "byteOffset": 1105720,
      "byteLength": 8192,
      "target": 34962
    },
    {
      "buffer": 0,
      "byteOffset": 1113912,
      "byteLength": 5296,
      "target": 34962
    },
    {
      "buffer": 0,
      "byteOffset": 1119208,
      "byteLength": 73808,
      "target": 34962
    },
    {
      "buffer": 0,
      "byteOffset": 1193016,
      "byteLength": 36928,
      "target": 34962
    },
    {
      "buffer": 0,
      "byteOffset": 1229944,
      "byteLength": 36912,
      "target": 34962
    }
  ],
  "samplers": [
    {
      "magFilter": 9729,
      "minFilter": 9987
    }
  ],
  "buffers": [
    {
      "byteLength": 1266856,
      "uri": "cell_x1_z-2_render.bin"
    }
  ]
}