{"asset":{"generator":"Khronos glTF Blender I/O v5.0.21","version":"2.0"},"extensionsUsed":["KHR_materials_specular","KHR_materials_ior","KHR_texture_transform"],"extensionsRequired":["KHR_texture_transform"],"scene":0,"scenes":[{"name":"Scene","nodes":[0,1,2,3,4,5,6,7,8,9,10,11,12,13,14,15,16,17,18,19,20,21,22,23]}],"nodes":[{"mesh":0,"name":"SM_MOD_stairs_straight_02_castle_LOD0.003","rotation":[0,0.7070877552032471,0,0.7071257829666138],"translation":[34.1655158996582,26.32861328125,37.37214660644531]},{"mesh":1,"name":"SM_ENV_tree_castle_02_LOD0.002","rotation":[0,0.7787688970565796,0,0.6273109316825867],"scale":[0.5729236006736755,0.572923481464386,0.5729236006736755],"translation":[33.99851608276367,26.609619140625,40.472145080566406]},{"mesh":2,"name":"SM_MOD_column_02_castle_LOD0.007","rotation":[0,-0.00884853582829237,0,0.9999608397483826],"translation":[34.31551742553711,26.44061279296875,38.64814758300781]},{"mesh":2,"name":"SM_MOD_column_02_castle_LOD0.035","rotation":[0,0.26702880859375,0,0.9636885523796082],"translation":[42.3385124206543,25.309616088867188,41.07914733886719]},{"mesh":3,"name":"SM_MOD_railing_02_straight_castle_LOD0.056","rotation":[0,-0.4729209542274475,0,0.8811048865318298],"translation":[43.46451187133789,25.296615600585938,42.76614761352539]},{"mesh":2,"name":"SM_MOD_column_02_castle_LOD0.052","rotation":[0,0.4045749008655548,0,0.914504885673523],"translation":[46.94551467895508,25.3966064453125,46.530147552490234]},{"mesh":4,"name":"SM_MOD_railing_02_stairs_straight_castle_LOD0.002","rotation":[-0.045739613473415375,0.9451206922531128,0.1879597306251526,0.2632980942726135],"translation":[44.94951248168945,23.694610595703125,34.36914825439453]},{"mesh":5,"name":"SM_ENV_tree_castle_01_LOD0.014","rotation":[0,0.9258842468261719,0,0.3778073191642761],"scale":[1.1236997842788696,1.1237000226974487,1.1236997842788696],"translation":[33.43851852416992,26.788619995117188,47.4521484375]},{"mesh":0,"name":"SM_MOD_stairs_straight_02_castle_LOD0.054","rotation":[0,0.7903524041175842,0,0.6126524806022644],"translation":[38.500057220458984,25.32861328125,32.792510986328125]},{"mesh":4,"name":"SM_MOD_railing_02_stairs_straight_castle_LOD0.004","rotation":[-0.08829407393932343,0.8816660642623901,0.13809113204479218,0.44249293208122253],"translation":[41.03151321411133,25.202606201171875,37.460147857666016]},{"mesh":0,"name":"SM_MOD_stairs_straight_02_castle_LOD0.091","rotation":[0,0.7070877552032471,0,0.7071257829666138],"translation":[34.1655158996582,26.32861328125,33.37214660644531]},{"mesh":2,"name":"SM_MOD_column_02_castle_LOD0.122","rotation":[0,0.3306579887866974,0,0.9437506794929504],"translation":[44.59751510620117,25.309616088867188,44.33014678955078]},{"mesh":2,"name":"SM_MOD_column_02_castle_LOD0.126","rotation":[0,0.4277566373348236,0,0.9038940072059631],"translation":[44.68251419067383,23.630615234375,34.71514892578125]},{"mesh":2,"name":"SM_MOD_column_02_castle_LOD0.130","rotation":[0,-0.6935531497001648,0,0.7204055190086365],"translation":[34.27418899536133,26.44061279296875,32.325927734375]},{"mesh":5,"name":"SM_ENV_tree_castle_01_LOD0.032","rotation":[0,0.8110380172729492,0,0.5849935412406921],"translation":[49.01851272583008,23.538619995117188,36.354488372802734]},{"mesh":3,"name":"SM_MOD_railing_02_straight_castle_LOD0.180","rotation":[-0.026676295325160027,0.3155380189418793,-0.07990632951259613,0.9451661705970764],"translation":[32.64851760864258,26.905609130859375,39.92914581298828]},{"mesh":6,"name":"SM_ENV_cliff_castle_01_LOD0.037","rotation":[-0.13133320212364197,-0.8916040658950806,-0.4101487994194031,0.13989900052547455],"scale":[1.8205314874649048,1.8205311298370361,1.8205312490463257],"translation":[39.95851516723633,26.4586181640625,56.18214416503906]},{"mesh":3,"name":"SM_MOD_railing_02_straight_castle_LOD0.200","rotation":[0,-0.5403138995170593,0,0.8414635062217712],"translation":[41.4895133972168,25.296615600585938,39.335147857666016]},{"mesh":0,"name":"SM_MOD_stairs_straight_02_castle_LOD0.129","rotation":[0,0.7903524041175842,0,0.6126524806022644],"translation":[39.49751663208008,25.32861328125,36.66614532470703]},{"mesh":5,"name":"SM_ENV_tree_castle_01_LOD0.045","rotation":[0,-0.9999920725822449,0,0.003980940207839012],"scale":[1.3819259405136108,1.3819262981414795,1.3819259405136108],"translation":[49.538516998291016,26.968612670898438,54.65214538574219]},{"mesh":2,"name":"SM_MOD_column_02_castle_LOD0.166","rotation":[0,0.12319186329841614,0,0.9923828840255737],"translation":[40.70451736450195,25.309616088867188,37.53414535522461]},{"mesh":3,"name":"SM_MOD_railing_02_straight_castle_LOD0.231","rotation":[0,-0.3634098768234253,0,0.9316293597221375],"translation":[46.038516998291016,25.296615600585938,45.7121467590332]},{"mesh":0,"name":"SM_MOD_stairs_straight_02_castle_LOD0.151","rotation":[0,0.8492076396942139,0,0.5280591249465942],"translation":[42.57551193237305,24.089614868164062,34.60514831542969]},{"mesh":1,"name":"SM_ENV_tree_castle_02_LOD0.028","rotation":[0,0.9999713897705078,0,0.007564309518784285],"scale":[0.572923481464386,0.572923481464386,0.572923481464386],"translation":[38.8385124206543,25.819610595703125,39.87214660644531]}],"materials":[{"doubleSided":true,"name":"M_TRIM_castle","normalTexture":{"index":0,"scale":4},"pbrMetallicRoughness":{"baseColorTexture":{"index":1},"metallicRoughnessTexture":{"index":2}}},{"alphaMode":"MASK","doubleSided":true,"extensions":{"KHR_materials_specular":{"specularFactor":0},"KHR_materials_ior":{"ior":1.4500000476837158}},"name":"M_ENV_tree_leaves_castle_02","pbrMetallicRoughness":{"baseColorFactor":[0.025187339633703232,0.18782256543636322,0.0761851966381073,1],"baseColorTexture":{"index":3},"metallicFactor":0,"roughnessFactor":0}},{"doubleSided":true,"extensions":{"KHR_materials_specular":{"specularFactor":0},"KHR_materials_ior":{"ior":1.4500000476837158}},"name":"M_ENV_tree_wood_castle","normalTexture":{"index":4,"scale":2},"pbrMetallicRoughness":{"baseColorFactor":[1,1,1,1],"baseColorTexture":{"index":5},"metallicRoughnessTexture":{"index":6}}},{"alphaMode":"MASK","doubleSided":true,"extensions":{"KHR_materials_specular":{"specularFactor":0},"KHR_materials_ior":{"ior":1.4500000476837158}},"name":"M_ENV_tree_leaves_castle_01","pbrMetallicRoughness":{"baseColorFactor":[0.08437485992908478,0.39157116413116455,0.028426364064216614,1],"baseColorTexture":{"index":7},"metallicFactor":0,"roughnessFactor":0}},{"doubleSided":true,"name":"M_CliffGrassVC","normalTexture":{"extensions":{"KHR_texture_transform":{"offset":[0,-6],"scale":[7,7]}},"index":8,"scale":0.6000000238418579},"pbrMetallicRoughness":{"metallicFactor":0,"roughnessFactor":0.9200000166893005}}],"meshes":[{"name":"Cube.569","primitives":[{"attributes":{"POSITION":0,"NORMAL":1,"TEXCOORD_0":2,"TEXCOORD_1":3},"indices":4,"material":0}]},{"name":"Plane.153","primitives":[{"attributes":{"POSITION":5,"NORMAL":6,"TEXCOORD_0":7,"TEXCOORD_1":8,"COLOR_0":9,"COLOR_1":10},"indices":11,"material":1}]},{"name":"Cube.3213","primitives":[{"attributes":{"POSITION":12,"NORMAL":13,"TEXCOORD_0":14,"TEXCOORD_1":15},"indices":16,"material":0}]},{"name":"Cube.1020","primitives":[{"attributes":{"POSITION":17,"NORMAL":18,"TEXCOORD_0":19,"TEXCOORD_1":20},"indices":21,"material":0}]},{"name":"Cube.3077","primitives":[{"attributes":{"POSITION":22,"NORMAL":23,"TEXCOORD_0":24,"TEXCOORD_1":25},"indices":26,"material":0}]},{"name":"Cylinder.294","primitives":[{"attributes":{"POSITION":27,"NORMAL":28,"TEXCOORD_0":29,"TEXCOORD_1":30,"COLOR_0":31,"COLOR_1":32},"indices":33,"material":2},{"attributes":{"POSITION":34,"NORMAL":35,"TEXCOORD_0":36,"TEXCOORD_1":37,"COLOR_0":38,"COLOR_1":39},"indices":40,"material":3}]},{"name":"SM_ENV_cliff_castle_01_instantmeshesexp_02","primitives":[{"attributes":{"POSITION":41,"NORMAL":42,"TEXCOORD_0":43,"TEXCOORD_1":44,"COLOR_0":45},"indices":46,"material":4}]}],"textures":[{"sampler":0,"source":0},{"sampler":0,"source":1},{"sampler":0,"source":2},{"sampler":0,"source":3},{"sampler":0,"source":4},{"sampler":0,"source":5},{"sampler":0,"source":6},{"sampler":0,"source":7},{"sampler":0,"source":8}],"images":[{"mimeType":"image/png","name":"T_TRIM_castle_01_N","uri":"textures/T_TRIM_castle_01_N.png"},{"mimeType":"image/png","name":"T_TRIM_castle_01_BC","uri":"textures/T_TRIM_castle_01_BC.png"},{"mimeType":"image/png","name":"T_TRIM_castle_01_PBR","uri":"textures/T_TRIM_castle_01_PBR.png"},{"mimeType":"image/png","name":"T_ENV_tree_leaves_castle_02","uri":"textures/T_ENV_tree_leaves_castle_02.png"},{"mimeType":"image/png","name":"T_ENV_wood_castle_01_N","uri":"textures/T_ENV_wood_castle_01_N.png"},{"mimeType":"image/png","name":"T_ENV_wood_castle_01_BC","uri":"textures/T_ENV_wood_castle_01_BC.png"},{"mimeType":"image/png","name":"T_ENV_wood_castle_01_PBR","uri":"textures/T_ENV_wood_castle_01_PBR.png"},{"mimeType":"image/png","name":"T_ENV_tree_leaves_castle_01","uri":"textures/T_ENV_tree_leaves_castle_01.png"},{"mimeType":"image/png","name":"T_ENV_cliff_castle_01_N","uri":"textures/T_ENV_cliff_castle_01_N.png"}],"accessors":[{"bufferView":0,"componentType":5126,"count":636,"max":[2,0.15888768434524536,2.0602104663848877],"min":[-2,-1.145027995109558,0],"type":"VEC3"},{"bufferView":1,"componentType":5126,"count":636,"type":"VEC3"},{"bufferView":2,"componentType":5126,"count":636,"type":"VEC2"},{"bufferView":3,"componentType":5126,"count":636,"type":"VEC2"},{"bufferView":4,"componentType":5123,"count":2226,"type":"SCALAR"},{"bufferView":5,"componentType":5126,"count":1680,"max":[2.4888107776641846,8.186420440673828,2.2267041206359863],"min":[-2.3514888286590576,-0.40394994616508484,-2.377707004547119],"type":"VEC3"},{"bufferView":6,"componentType":5126,"count":1680,"type":"VEC3"},{"bufferView":7,"componentType":5126,"count":1680,"type":"VEC2"},{"bufferView":8,"componentType":5126,"count":1680,"type":"VEC2"},{"bufferView":9,"componentType":5123,"count":1680,"normalized":true,"type":"VEC4"},{"bufferView":10,"componentType":5123,"count":1680,"normalized":true,"type":"VEC4"},{"bufferView":11,"componentType":5123,"count":5760,"type":"SCALAR"},{"bufferView":12,"componentType":5126,"count":509,"max":[0.39473864436149597,1.2359495162963867,0.39473864436149597],"min":[-0.39473864436149597,-0.12311287224292755,-0.39473864436149597],"type":"VEC3"},{"bufferView":13,"componentType":5126,"count":509,"type":"VEC3"},{"bufferView":14,"componentType":5126,"count":509,"type":"VEC2"},{"bufferView":15,"componentType":5126,"count":509,"type":"VEC2"},{"bufferView":16,"componentType":5123,"count":2112,"type":"SCALAR"},{"bufferView":17,"componentType":5126,"count":512,"max":[1.9999985694885254,1.0031301975250244,0.2541757822036743],"min":[-1.9999985694885254,-0.12952381372451782,-0.25105398893356323],"type":"VEC3"},{"bufferView":18,"componentType":5126,"count":512,"type":"VEC3"},{"bufferView":19,"componentType":5126,"count":512,"type":"VEC2"},{"bufferView":20,"componentType":5126,"count":512,"type":"VEC2"},{"bufferView":21,"componentType":5123,"count":1188,"type":"SCALAR"},{"bufferView":22,"componentType":5126,"count":622,"max":[0.25098201632499695,1,4.000012397766113],"min":[-0.2546418607234955,-3.1294009685516357,-1.645100928726606e-05],"type":"VEC3"},{"bufferView":23,"componentType":5126,"count":622,"type":"VEC3"},{"bufferView":24,"componentType":5126,"count":622,"type":"VEC2"},{"bufferView":25,"componentType":5126,"count":622,"type":"VEC2"},{"bufferView":26,"componentType":5123,"count":1548,"type":"SCALAR"},{"bufferView":27,"componentType":5126,"count":1275,"max":[3.5537283420562744,9.484169960021973,3.4337213039398193],"min":[-3.0713250637054443,-1.0320329666137695,-2.8968093395233154],"type":"VEC3"},{"bufferView":28,"componentType":5126,"count":1275,"type":"VEC3"},{"bufferView":29,"componentType":5126,"count":1275,"type":"VEC2"},{"bufferView":30,"componentType":5126,"count":1275,"type":"VEC2"},{"bufferView":31,"componentType":5126,"count":1275,"type":"VEC3"},{"bufferView":32,"componentType":5123,"count":1275,"normalized":true,"type":"VEC4"},{"bufferView":33,"componentType":5123,"count":5718,"type":"SCALAR"},{"bufferView":34,"componentType":5126,"count":1920,"max":[6.43494987487793,15.562984466552734,6.57190465927124],"min":[-5.903852462768555,4.755402088165283,-5.87698221206665],"type":"VEC3"},{"bufferView":35,"componentType":5126,"count":1920,"type":"VEC3"},{"bufferView":36,"componentType":5126,"count":1920,"type":"VEC2"},{"bufferView":37,"componentType":5126,"count":1920,"type":"VEC2"},{"bufferView":38,"componentType":5126,"count":1920,"type":"VEC3"},{"bufferView":39,"componentType":5123,"count":1920,"normalized":true,"type":"VEC4"},{"bufferView":40,"componentType":5123,"count":2880,"type":"SCALAR"},{"bufferView":41,"componentType":5126,"count":4613,"max":[4.855959892272949,5.9515485763549805,3.302274227142334],"min":[-4.882627487182617,-5.545106887817383,-3.2813682556152344],"type":"VEC3"},{"bufferView":42,"componentType":5126,"count":4613,"type":"VEC3"},{"bufferView":43,"componentType":5126,"count":4613,"type":"VEC2"},{"bufferView":44,"componentType":5126,"count":4613,"type":"VEC2"},{"bufferView":45,"componentType":5126,"count":4613,"type":"VEC3"},{"bufferView":46,"componentType":5123,"count":23661,"type":"SCALAR"}],"bufferViews":[{"buffer":0,"byteLength":7632,"byteOffset":0,"target":34962},{"buffer":0,"byteLength":7632,"byteOffset":7632,"target":34962},{"buffer":0,"byteLength":5088,"byteOffset":15264,"target":34962},{"buffer":0,"byteLength":5088,"byteOffset":20352,"target":34962},{"buffer":0,"byteLength":4452,"byteOffset":25440,"target":34963},{"buffer":0,"byteLength":20160,"byteOffset":29892,"target":34962},{"buffer":0,"byteLength":20160,"byteOffset":50052,"target":34962},{"buffer":0,"byteLength":13440,"byteOffset":70212,"target":34962},{"buffer":0,"byteLength":13440,"byteOffset":83652,"target":34962},{"buffer":0,"byteLength":13440,"byteOffset":97092,"target":34962},{"buffer":0,"byteLength":13440,"byteOffset":110532,"target":34962},{"buffer":0,"byteLength":11520,"byteOffset":123972,"target":34963},{"buffer":0,"byteLength":6108,"byteOffset":135492,"target":34962},{"buffer":0,"byteLength":6108,"byteOffset":141600,"target":34962},{"buffer":0,"byteLength":4072,"byteOffset":147708,"target":34962},{"buffer":0,"byteLength":4072,"byteOffset":151780,"target":34962},{"buffer":0,"byteLength":4224,"byteOffset":155852,"target":34963},{"buffer":0,"byteLength":6144,"byteOffset":160076,"target":34962},{"buffer":0,"byteLength":6144,"byteOffset":166220,"target":34962},{"buffer":0,"byteLength":4096,"byteOffset":172364,"target":34962},{"buffer":0,"byteLength":4096,"byteOffset":176460,"target":34962},{"buffer":0,"byteLength":2376,"byteOffset":180556,"target":34963},{"buffer":0,"byteLength":7464,"byteOffset":182932,"target":34962},{"buffer":0,"byteLength":7464,"byteOffset":190396,"target":34962},{"buffer":0,"byteLength":4976,"byteOffset":197860,"target":34962},{"buffer":0,"byteLength":4976,"byteOffset":202836,"target":34962},{"buffer":0,"byteLength":3096,"byteOffset":207812,"target":34963},{"buffer":0,"byteLength":15300,"byteOffset":210908,"target":34962},{"buffer":0,"byteLength":15300,"byteOffset":226208,"target":34962},{"buffer":0,"byteLength":10200,"byteOffset":241508,"target":34962},{"buffer":0,"byteLength":10200,"byteOffset":251708,"target":34962},{"buffer":0,"byteLength":15300,"byteOffset":261908,"target":34962},{"buffer":0,"byteLength":10200,"byteOffset":277208,"target":34962},{"buffer":0,"byteLength":11436,"byteOffset":287408,"target":34963},{"buffer":0,"byteLength":23040,"byteOffset":298844,"target":34962},{"buffer":0,"byteLength":23040,"byteOffset":321884,"target":34962},{"buffer":0,"byteLength":15360,"byteOffset":344924,"target":34962},{"buffer":0,"byteLength":15360,"byteOffset":360284,"target":34962},{"buffer":0,"byteLength":23040,"byteOffset":375644,"target":34962},{"buffer":0,"byteLength":15360,"byteOffset":398684,"target":34962},{"buffer":0,"byteLength":5760,"byteOffset":414044,"target":34963},{"buffer":0,"byteLength":55356,"byteOffset":419804,"target":34962},{"buffer":0,"byteLength":55356,"byteOffset":475160,"target":34962},{"buffer":0,"byteLength":36904,"byteOffset":530516,"target":34962},{"buffer":0,"byteLength":36904,"byteOffset":567420,"target":34962},{"buffer":0,"byteLength":55356,"byteOffset":604324,"target":34962},{"buffer":0,"byteLength":47322,"byteOffset":659680,"target":34963}],"samplers":[{"magFilter":9729,"minFilter":9987}],"buffers":[{"byteLength":707004,"uri":"cell_x1_z1_render.bin"}]}