{"asset":{"generator":"Khronos glTF Blender I/O v5.0.21","version":"2.0"},"extensionsUsed":["KHR_materials_clearcoat","KHR_materials_specular","KHR_materials_ior","KHR_texture_transform"],"extensionsRequired":["KHR_texture_transform"],"scene":0,"scenes":[{"name":"Scene","nodes":[0,1,2,3,4,5,6,7,8,9,10,11,12,13,14,15,16,17,18,19,20,21,22,23,24,25,26,27,28,29,30]}],"nodes":[{"mesh":0,"name":"SM_ENV_tree_castle_01_LOD0.001","rotation":[0,-0.9169613718986511,0,0.39897602796554565],"scale":[0.831692636013031,0.8316925168037415,0.831692636013031],"translation":[44.12851333618164,8.36859130859375,-74.45785522460938]},{"mesh":1,"name":"SM_ENV_bush_castle_07_LOD0.004","rotation":[-0.03618127107620239,0.9385074377059937,0.05003812164068222,0.3396923840045929],"scale":[0.9453783631324768,0.9453781247138977,0.9453783631324768],"translation":[47.54251480102539,9.796600341796875,-72.099853515625]},{"mesh":1,"name":"SM_ENV_bush_castle_07_LOD0.007","rotation":[-0.12918418645858765,0.8370015621185303,0.4821212589740753,0.22427423298358917],"scale":[0.7525102496147156,0.7525100111961365,0.752510130405426],"translation":[47.319515228271484,10.405593872070312,-71.74185180664062]},{"mesh":2,"name":"SM_MOD_column_02_castle_LOD0.023","rotation":[0.0003958877350669354,0.08531081676483154,-0.003784673288464546,0.9963471293449402],"translation":[63.26651382446289,10.526596069335938,-92.99984741210938]},{"mesh":3,"name":"SM_PROP_statue_castle_01_LOD0.003","rotation":[0,-0.8860337138175964,0,0.4636208415031433],"scale":[0.8409001231193542,0.8409000039100647,0.8409001231193542],"translation":[54.87851333618164,8.598617553710938,-65.6778564453125]},{"mesh":4,"name":"SM_MOD_bridge_base_castle_LOD0.001","rotation":[0,-0.2911392152309418,0,0.9566807150840759],"translation":[56.27851486206055,0.0186004638671875,-76.30785369873047]},{"mesh":5,"name":"SM_MOD_railing_02_straight_castle_LOD0.050","rotation":[0.053067050874233246,0.7184354066848755,0.07466094195842743,0.6895362138748169],"translation":[58.60751724243164,10.608596801757812,-95.60086059570312]},{"mesh":5,"name":"SM_MOD_railing_02_straight_castle_LOD0.072","rotation":[0.03095325455069542,0.7952829003334045,0.04036366567015648,0.6041008234024048],"translation":[63.83051681518555,10.17559814453125,-91.05685424804688]},{"mesh":5,"name":"SM_MOD_railing_02_straight_castle_LOD0.075","rotation":[0.0318780392408371,0.5979626178741455,0.04263580963015556,0.7997541427612305],"translation":[58.24551773071289,9.501602172851562,-87.57185363769531]},{"mesh":2,"name":"SM_MOD_column_02_castle_LOD0.056","rotation":[0,0.49182432889938354,0,0.8706944584846497],"translation":[46.62577438354492,8.777862548828125,-68.98818969726562]},{"mesh":6,"name":"SM_ENV_bush_castle_05_LOD0.014","rotation":[0.01966659352183342,0.9398805499076843,0.010875934734940529,0.3407630920410156],"scale":[0.6022599935531616,0.6022599935531616,0.6022599339485168],"translation":[47.33651351928711,12.501602172851562,-71.64185333251953]},{"mesh":1,"name":"SM_ENV_bush_castle_07_LOD0.025","rotation":[0.36090579628944397,-0.561428964138031,0.6994493007659912,0.2555685043334961],"scale":[0.8320598602294922,0.8320599794387817,0.8320600986480713],"translation":[54.20651626586914,10.3555908203125,-66.18385314941406]},{"mesh":5,"name":"SM_MOD_railing_02_straight_castle_LOD0.084","rotation":[0.01955839991569519,0.6460064649581909,0.008113669231534004,0.7630382180213928],"translation":[63.733516693115234,9.231597900390625,-82.97085571289062]},{"mesh":5,"name":"SM_MOD_railing_02_straight_castle_LOD0.095","rotation":[0.030520329251885414,0.5084956884384155,0.051556624472141266,0.8589776158332825],"translation":[45.65951156616211,8.49859619140625,-67.21784973144531]},{"mesh":2,"name":"SM_MOD_column_02_castle_LOD0.077","rotation":[0,-0.1869511753320694,0,0.9823693037033081],"translation":[57.605228424072266,9.26959228515625,-85.50083923339844]},{"mesh":2,"name":"SM_MOD_column_02_castle_LOD0.082","rotation":[0,0.4073742926120758,0,0.9132614135742188],"translation":[52.822513580322266,8.891616821289062,-64.9278564453125]},{"mesh":5,"name":"SM_MOD_railing_02_straight_castle_LOD0.130","rotation":[0.054991286247968674,0.7016414999961853,0.07424890249967575,0.7065141797065735],"translation":[63.25351333618164,10.932601928710938,-95.16584777832031]},{"mesh":7,"name":"SM_ENV_cliff_castle_02_LOD0.026","rotation":[-0.3059973120689392,0.3862224221229553,-0.6194052696228027,0.6111752390861511],"scale":[3.5180492401123047,3.5180490016937256,3.5180506706237793],"translation":[40.94851303100586,-7.6013946533203125,-79.6478500366211]},{"mesh":1,"name":"SM_ENV_bush_castle_07_LOD0.044","rotation":[0.10230468958616257,0.437584787607193,-0.07704754173755646,0.8900095224380493],"scale":[0.8320603370666504,0.832059919834137,0.8320598602294922],"translation":[53.87051773071289,9.655593872070312,-66.40685272216797]},{"mesh":1,"name":"SM_ENV_bush_castle_07_LOD0.045","rotation":[0.00837769452482462,0.7050727009773254,0.1530071347951889,0.6923807859420776],"scale":[0.7613497376441956,0.7613498568534851,0.7613499164581299],"translation":[58.82351303100586,11.112594604492188,-94.44085693359375]},{"mesh":8,"name":"SM_ENV_cliff_castle_01_LOD0.029","rotation":[0.37670132517814636,-0.30786818265914917,-0.6114600896835327,0.6240431666374207],"scale":[1.5649290084838867,1.5649290084838867,1.5649291276931763],"translation":[45.7385139465332,3.2686004638671875,-78.7978515625]},{"mesh":2,"name":"SM_MOD_column_02_castle_LOD0.119","rotation":[0,0.08036885410547256,0,0.9967651963233948],"translation":[58.629512786865234,10.314590454101562,-93.50285339355469]},{"mesh":5,"name":"SM_MOD_railing_02_straight_castle_LOD0.171","rotation":[0.036593515425920486,0.7194625735282898,0.05884385108947754,0.6910658478736877],"translation":[58.78251266479492,9.958602905273438,-91.56085205078125]},{"mesh":2,"name":"SM_MOD_column_02_castle_LOD0.138","rotation":[0,0.5373192429542542,0,0.8433789610862732],"translation":[44.65961837768555,8.337615966796875,-65.2934341430664]},{"mesh":2,"name":"SM_MOD_column_02_castle_LOD0.144","rotation":[0,-0.12980447709560394,0,0.9915396571159363],"translation":[58.793514251708984,9.741592407226562,-89.45185089111328]},{"mesh":6,"name":"SM_ENV_bush_castle_05_LOD0.031","rotation":[0.8390288949012756,-0.0397966168820858,0.5397970676422119,0.05537019670009613],"scale":[0.4798206090927124,0.4798205494880676,0.4798206090927124],"translation":[47.3695182800293,10.418594360351562,-71.51885223388672]},{"mesh":7,"name":"SM_ENV_cliff_castle_02_LOD0.037","rotation":[0.00971547607332468,-0.8678614497184753,0.013687990605831146,0.4965227246284485],"scale":[5.895725250244141,5.895725727081299,5.895728588104248],"translation":[37.438724517822266,-48.976463317871094,-64.12120056152344]},{"mesh":2,"name":"SM_MOD_column_02_castle_LOD0.167","rotation":[-0.00045288834371604025,-0.13766610622406006,-0.0037782867439091206,0.9904714822769165],"translation":[63.35451889038086,9.12359619140625,-80.82785034179688]},{"mesh":3,"name":"SM_PROP_statue_castle_01_LOD0.013","rotation":[0,0.4559086859226227,0,0.8900265693664551],"scale":[0.8409000039100647,0.8409000039100647,0.8409000039100647],"translation":[46.92851638793945,8.598602294921875,-71.1978530883789]},{"mesh":7,"name":"SM_ENV_cliff_castle_02_LOD0.043","rotation":[-0.3839089572429657,-0.04367097094655037,0.4292197525501251,0.8163805603981018],"scale":[1.0794999599456787,1.0795000791549683,1.0794999599456787],"translation":[51.19851303100586,6.2285919189453125,-85.53785705566406]},{"mesh":8,"name":"SM_ENV_cliff_castle_01_LOD0.050","rotation":[0.22944380342960358,-0.14982785284519196,-0.10202539712190628,0.9562940001487732],"scale":[1.3701190948486328,1.3701190948486328,1.370119333267212],"translation":[59.42851638793945,2.99859619140625,-67.61785125732422]}],"materials":[{"doubleSided":true,"extensions":{"KHR_materials_specular":{"specularFactor":0},"KHR_materials_ior":{"ior":1.4500000476837158}},"name":"M_ENV_tree_wood_castle","normalTexture":{"index":0,"scale":2},"pbrMetallicRoughness":{"baseColorFactor":[1,1,1,1],"baseColorTexture":{"index":1},"metallicRoughnessTexture":{"index":2}}},{"alphaMode":"MASK","doubleSided":true,"extensions":{"KHR_materials_specular":{"specularFactor":0},"KHR_materials_ior":{"ior":1.4500000476837158}},"name":"M_ENV_tree_leaves_castle_01","pbrMetallicRoughness":{"baseColorFactor":[0.08437485992908478,0.39157116413116455,0.028426364064216614,1],"baseColorTexture":{"index":3},"metallicFactor":0,"roughnessFactor":0}},{"alphaMode":"BLEND","doubleSided":true,"extensions":{"KHR_materials_clearcoat":{"clearcoatRoughnessFactor":0},"KHR_materials_specular":{"specularFactor":0},"KHR_materials_ior":{"ior":1.4500000476837158}},"name":"M_ENV_foliage_castle","pbrMetallicRoughness":{"baseColorTexture":{"index":4},"metallicFactor":0,"roughnessFactor":0}},{"doubleSided":true,"name":"M_TRIM_castle","normalTexture":{"index":5,"scale":4},"pbrMetallicRoughness":{"baseColorTexture":{"index":6},"metallicRoughnessTexture":{"index":7}}},{"doubleSided":true,"name":"M_PROP_statue_castle","normalTexture":{"index":8,"scale":4},"pbrMetallicRoughness":{"baseColorTexture":{"index":9},"metallicRoughnessTexture":{"index":10}}},{"doubleSided":true,"name":"M_MOD_bricks_castle","normalTexture":{"index":11,"scale":4},"pbrMetallicRoughness":{"baseColorTexture":{"index":12},"metallicRoughnessTexture":{"index":13}}},{"doubleSided":true,"name":"M_MOD_floor_castle_04","normalTexture":{"index":14,"scale":8},"pbrMetallicRoughness":{"metallicRoughnessTexture":{"index":16},"baseColorFactor":[1,1,1,1],"metallicFactor":0.0,"baseColorTexture":{"index":18}}},{"doubleSided":true,"name":"M_CliffGrassVC","normalTexture":{"extensions":{"KHR_texture_transform":{"offset":[0,-6],"scale":[7,7]}},"index":17,"scale":0.6000000238418579},"pbrMetallicRoughness":{"metallicFactor":0,"roughnessFactor":0.9200000166893005}}],"meshes":[{"name":"Cylinder.294","primitives":[{"attributes":{"POSITION":0,"NORMAL":1,"TEXCOORD_0":2,"TEXCOORD_1":3,"COLOR_0":4,"COLOR_1":5},"indices":6,"material":0},{"attributes":{"POSITION":7,"NORMAL":8,"TEXCOORD_0":9,"TEXCOORD_1":10,"COLOR_0":11,"COLOR_1":12},"indices":13,"material":1}]},{"name":"Plane.728","primitives":[{"attributes":{"POSITION":14,"NORMAL":15,"TEXCOORD_0":16,"TEXCOORD_1":17,"COLOR_0":18,"COLOR_1":19},"indices":20,"material":2}]},{"name":"Cube.3213","primitives":[{"attributes":{"POSITION":21,"NORMAL":22,"TEXCOORD_0":23,"TEXCOORD_1":24},"indices":25,"material":3}]},{"name":"Cube.431","primitives":[{"attributes":{"POSITION":26,"NORMAL":27,"TEXCOORD_0":28,"TEXCOORD_1":29},"indices":30,"material":4}]},{"name":"Cube.935","primitives":[{"attributes":{"POSITION":31,"NORMAL":32,"TEXCOORD_0":33,"TEXCOORD_1":34},"indices":35,"material":5},{"attributes":{"POSITION":36,"NORMAL":37,"TEXCOORD_0":38,"TEXCOORD_1":39},"indices":40,"material":3},{"attributes":{"POSITION":41,"NORMAL":42,"TEXCOORD_0":43,"TEXCOORD_1":44},"indices":45,"material":6}]},{"name":"Cube.1020","primitives":[{"attributes":{"POSITION":46,"NORMAL":47,"TEXCOORD_0":48,"TEXCOORD_1":49},"indices":50,"material":3}]},{"name":"Plane.568","primitives":[{"attributes":{"POSITION":51,"NORMAL":52,"TEXCOORD_0":53,"TEXCOORD_1":54,"COLOR_0":55,"COLOR_1":56},"indices":57,"material":2}]},{"name":"SM_ENV_cliff_castle_02_instantmeshesexp_02.004","primitives":[{"attributes":{"POSITION":58,"NORMAL":59,"TEXCOORD_0":60,"TEXCOORD_1":61,"COLOR_0":62},"indices":63,"material":7}]},{"name":"SM_ENV_cliff_castle_01_instantmeshesexp_02","primitives":[{"attributes":{"POSITION":64,"NORMAL":65,"TEXCOORD_0":66,"TEXCOORD_1":67,"COLOR_0":68},"indices":69,"material":7}]}],"textures":[{"sampler":0,"source":0},{"sampler":0,"source":1},{"sampler":0,"source":2},{"sampler":0,"source":3},{"sampler":0,"source":4},{"sampler":0,"source":5},{"sampler":0,"source":6},{"sampler":0,"source":7},{"sampler":0,"source":8},{"sampler":0,"source":9},{"sampler":0,"source":10},{"sampler":0,"source":11},{"sampler":0,"source":12},{"sampler":0,"source":13},{"sampler":0,"source":14},{"sampler":0,"source":15},{"sampler":0,"source":16},{"sampler":0,"source":17},{"sampler":0,"source":18}],"images":[{"mimeType":"image/png","name":"T_ENV_wood_castle_01_N","uri":"textures/T_ENV_wood_castle_01_N.png"},{"mimeType":"image/png","name":"T_ENV_wood_castle_01_BC","uri":"textures/T_ENV_wood_castle_01_BC.png"},{"mimeType":"image/png","name":"T_ENV_wood_castle_01_PBR","uri":"textures/T_ENV_wood_castle_01_PBR.png"},{"mimeType":"image/png","name":"T_ENV_tree_leaves_castle_01","uri":"textures/T_ENV_tree_leaves_castle_01.png"},{"mimeType":"image/png","name":"T_ENV_foliage_castle","uri":"textures/T_ENV_foliage_castle.png"},{"mimeType":"image/png","name":"T_TRIM_castle_01_N","uri":"textures/T_TRIM_castle_01_N.png"},{"mimeType":"image/png","name":"T_TRIM_castle_01_BC","uri":"textures/T_TRIM_castle_01_BC.png"},{"mimeType":"image/png","name":"T_TRIM_castle_01_PBR","uri":"textures/T_TRIM_castle_01_PBR.png"},{"mimeType":"image/png","name":"T_PROP_statue_castle_N","uri":"textures/T_PROP_statue_castle_N.png"},{"mimeType":"image/png","name":"T_PROP_statue_castle_BC","uri":"textures/T_PROP_statue_castle_BC.png"},{"mimeType":"image/png","name":"T_PROP_statue_castle_PBR","uri":"textures/T_PROP_statue_castle_PBR.png"},{"mimeType":"image/png","name":"T_MOD_wall_bricks_castle_01_N","uri":"textures/T_MOD_wall_bricks_castle_01_N.png"},{"mimeType":"image/png","name":"T_MOD_wall_bricks_castle_01_BC","uri":"textures/T_MOD_wall_bricks_castle_01_BC.png"},{"mimeType":"image/png","name":"T_MOD_wall_bricks_castle_01_PBR","uri":"textures/T_MOD_wall_bricks_castle_01_PBR.png"},{"mimeType":"image/png","name":"T_MOD_floor_castle_03_N","uri":"textures/T_MOD_floor_castle_03_N.png"},{"mimeType":"image/png","name":"T_MOD_floor_castle_05_PBR","uri":"textures/T_MOD_floor_castle_05_PBR.png"},{"mimeType":"image/png","name":"T_MOD_floor_castle_05_PBR","uri":"textures/T_MOD_floor_castle_05_PBR-1.png"},{"mimeType":"image/png","name":"T_ENV_cliff_castle_01_N","uri":"textures/T_ENV_cliff_castle_01_N.png"},{"uri":"textures/T_MOD_floor_castle_01_BC.png","name":"T_MOD_floor_castle_01_BC"}],"accessors":[{"bufferView":0,"componentType":5126,"count":1275,"max":[3.5537283420562744,9.484169960021973,3.4337213039398193],"min":[-3.0713250637054443,-1.0320329666137695,-2.8968093395233154],"type":"VEC3"},{"bufferView":1,"componentType":5126,"count":1275,"type":"VEC3"},{"bufferView":2,"componentType":5126,"count":1275,"type":"VEC2"},{"bufferView":3,"componentType":5126,"count":1275,"type":"VEC2"},{"bufferView":4,"componentType":5126,"count":1275,"type":"VEC3"},{"bufferView":5,"componentType":5123,"count":1275,"normalized":true,"type":"VEC4"},{"bufferView":6,"componentType":5123,"count":5718,"type":"SCALAR"},{"bufferView":7,"componentType":5126,"count":1920,"max":[6.43494987487793,15.562984466552734,6.57190465927124],"min":[-5.903852462768555,4.755402088165283,-5.87698221206665],"type":"VEC3"},{"bufferView":8,"componentType":5126,"count":1920,"type":"VEC3"},{"bufferView":9,"componentType":5126,"count":1920,"type":"VEC2"},{"bufferView":10,"componentType":5126,"count":1920,"type":"VEC2"},{"bufferView":11,"componentType":5126,"count":1920,"type":"VEC3"},{"bufferView":12,"componentType":5123,"count":1920,"normalized":true,"type":"VEC4"},{"bufferView":13,"componentType":5123,"count":2880,"type":"SCALAR"},{"bufferView":14,"componentType":5126,"count":720,"max":[1.6049699783325195,0.7846742272377014,0.6185894012451172],"min":[-1.6038271188735962,-1.1322442293167114,-0.45752856135368347],"type":"VEC3"},{"bufferView":15,"componentType":5126,"count":720,"type":"VEC3"},{"bufferView":16,"componentType":5126,"count":720,"type":"VEC2"},{"bufferView":17,"componentType":5126,"count":720,"type":"VEC2"},{"bufferView":18,"componentType":5123,"count":720,"normalized":true,"type":"VEC4"},{"bufferView":19,"componentType":5123,"count":720,"normalized":true,"type":"VEC4"},{"bufferView":20,"componentType":5123,"count":1080,"type":"SCALAR"},{"bufferView":21,"componentType":5126,"count":509,"max":[0.39473864436149597,1.2359495162963867,0.39473864436149597],"min":[-0.39473864436149597,-0.12311287224292755,-0.39473864436149597],"type":"VEC3"},{"bufferView":22,"componentType":5126,"count":509,"type":"VEC3"},{"bufferView":23,"componentType":5126,"count":509,"type":"VEC2"},{"bufferView":24,"componentType":5126,"count":509,"type":"VEC2"},{"bufferView":25,"componentType":5123,"count":2112,"type":"SCALAR"},{"bufferView":26,"componentType":5126,"count":3916,"max":[1.5454318523406982,6.340999126434326,1.5480334758758545],"min":[-1.5454318523406982,-0.039270639419555664,-1.4389467239379883],"type":"VEC3"},{"bufferView":27,"componentType":5126,"count":3916,"type":"VEC3"},{"bufferView":28,"componentType":5126,"count":3916,"type":"VEC2"},{"bufferView":29,"componentType":5126,"count":3916,"type":"VEC2"},{"bufferView":30,"componentType":5123,"count":8424,"type":"SCALAR"},{"bufferView":31,"componentType":5126,"count":1800,"max":[4.294453144073486,9.342309951782227,8.054237365722656],"min":[-4.291850566864014,-0.01582421362400055,-8.07421588897705],"type":"VEC3"},{"bufferView":32,"componentType":5126,"count":1800,"type":"VEC3"},{"bufferView":33,"componentType":5126,"count":1800,"type":"VEC2"},{"bufferView":34,"componentType":5126,"count":1800,"type":"VEC2"},{"bufferView":35,"componentType":5123,"count":7626,"type":"SCALAR"},{"bufferView":36,"componentType":5126,"count":7748,"max":[4.582486152648926,10.002227783203125,8.007808685302734],"min":[-4.582486152648926,-0.01860538125038147,-8.049508094787598],"type":"VEC3"},{"bufferView":37,"componentType":5126,"count":7748,"type":"VEC3"},{"bufferView":38,"componentType":5126,"count":7748,"type":"VEC2"},{"bufferView":39,"componentType":5126,"count":7748,"type":"VEC2"},{"bufferView":40,"componentType":5123,"count":27120,"type":"SCALAR"},{"bufferView":41,"componentType":5126,"count":4,"max":[2.2348413467407227,9,8],"min":[-2.2348413467407227,9,-8],"type":"VEC3"},{"bufferView":42,"componentType":5126,"count":4,"type":"VEC3"},{"bufferView":43,"componentType":5126,"count":4,"type":"VEC2"},{"bufferView":44,"componentType":5126,"count":4,"type":"VEC2"},{"bufferView":45,"componentType":5123,"count":6,"type":"SCALAR"},{"bufferView":46,"componentType":5126,"count":512,"max":[1.9999985694885254,1.0031301975250244,0.2541757822036743],"min":[-1.9999985694885254,-0.12952381372451782,-0.25105398893356323],"type":"VEC3"},{"bufferView":47,"componentType":5126,"count":512,"type":"VEC3"},{"bufferView":48,"componentType":5126,"count":512,"type":"VEC2"},{"bufferView":49,"componentType":5126,"count":512,"type":"VEC2"},{"bufferView":50,"componentType":5123,"count":1188,"type":"SCALAR"},{"bufferView":51,"componentType":5126,"count":960,"max":[1.425001621246338,1.0797010660171509,0.770141065120697],"min":[-1.4109971523284912,-3.307366371154785,-0.5012217164039612],"type":"VEC3"},{"bufferView":52,"componentType":5126,"count":960,"type":"VEC3"},{"bufferView":53,"componentType":5126,"count":960,"type":"VEC2"},{"bufferView":54,"componentType":5126,"count":960,"type":"VEC2"},{"bufferView":55,"componentType":5123,"count":960,"normalized":true,"type":"VEC4"},{"bufferView":56,"componentType":5123,"count":960,"normalized":true,"type":"VEC4"},{"bufferView":57,"componentType":5123,"count":1440,"type":"SCALAR"},{"bufferView":58,"componentType":5126,"count":4265,"max":[5.037600517272949,6.843289375305176,3.3966786861419678],"min":[-5.224124431610107,-6.786053657531738,-3.7081243991851807],"type":"VEC3"},{"bufferView":59,"componentType":5126,"count":4265,"type":"VEC3"},{"bufferView":60,"componentType":5126,"count":4265,"type":"VEC2"},{"bufferView":61,"componentType":5126,"count":4265,"type":"VEC2"},{"bufferView":62,"componentType":5126,"count":4265,"type":"VEC3"},{"bufferView":63,"componentType":5123,"count":22374,"type":"SCALAR"},{"bufferView":64,"componentType":5126,"count":4613,"max":[4.855959892272949,5.9515485763549805,3.302274227142334],"min":[-4.882627487182617,-5.545106887817383,-3.2813682556152344],"type":"VEC3"},{"bufferView":65,"componentType":5126,"count":4613,"type":"VEC3"},{"bufferView":66,"componentType":5126,"count":4613,"type":"VEC2"},{"bufferView":67,"componentType":5126,"count":4613,"type":"VEC2"},{"bufferView":68,"componentType":5126,"count":4613,"type":"VEC3"},{"bufferView":69,"componentType":5123,"count":23661,"type":"SCALAR"}],"bufferViews":[{"buffer":0,"byteLength":15300,"byteOffset":0,"target":34962},{"buffer":0,"byteLength":15300,"byteOffset":15300,"target":34962},{"buffer":0,"byteLength":10200,"byteOffset":30600,"target":34962},{"buffer":0,"byteLength":10200,"byteOffset":40800,"target":34962},{"buffer":0,"byteLength":15300,"byteOffset":51000,"target":34962},{"buffer":0,"byteLength":10200,"byteOffset":66300,"target":34962},{"buffer":0,"byteLength":11436,"byteOffset":76500,"target":34963},{"buffer":0,"byteLength":23040,"byteOffset":87936,"target":34962},{"buffer":0,"byteLength":23040,"byteOffset":110976,"target":34962},{"buffer":0,"byteLength":15360,"byteOffset":134016,"target":34962},{"buffer":0,"byteLength":15360,"byteOffset":149376,"target":34962},{"buffer":0,"byteLength":23040,"byteOffset":164736,"target":34962},{"buffer":0,"byteLength":15360,"byteOffset":187776,"target":34962},{"buffer":0,"byteLength":5760,"byteOffset":203136,"target":34963},{"buffer":0,"byteLength":8640,"byteOffset":208896,"target":34962},{"buffer":0,"byteLength":8640,"byteOffset":217536,"target":34962},{"buffer":0,"byteLength":5760,"byteOffset":226176,"target":34962},{"buffer":0,"byteLength":5760,"byteOffset":231936,"target":34962},{"buffer":0,"byteLength":5760,"byteOffset":237696,"target":34962},{"buffer":0,"byteLength":5760,"byteOffset":243456,"target":34962},{"buffer":0,"byteLength":2160,"byteOffset":249216,"target":34963},{"buffer":0,"byteLength":6108,"byteOffset":251376,"target":34962},{"buffer":0,"byteLength":6108,"byteOffset":257484,"target":34962},{"buffer":0,"byteLength":4072,"byteOffset":263592,"target":34962},{"buffer":0,"byteLength":4072,"byteOffset":267664,"target":34962},{"buffer":0,"byteLength":4224,"byteOffset":271736,"target":34963},{"buffer":0,"byteLength":46992,"byteOffset":275960,"target":34962},{"buffer":0,"byteLength":46992,"byteOffset":322952,"target":34962},{"buffer":0,"byteLength":31328,"byteOffset":369944,"target":34962},{"buffer":0,"byteLength":31328,"byteOffset":401272,"target":34962},{"buffer":0,"byteLength":16848,"byteOffset":432600,"target":34963},{"buffer":0,"byteLength":21600,"byteOffset":449448,"target":34962},{"buffer":0,"byteLength":21600,"byteOffset":471048,"target":34962},{"buffer":0,"byteLength":14400,"byteOffset":492648,"target":34962},{"buffer":0,"byteLength":14400,"byteOffset":507048,"target":34962},{"buffer":0,"byteLength":15252,"byteOffset":521448,"target":34963},{"buffer":0,"byteLength":92976,"byteOffset":536700,"target":34962},{"buffer":0,"byteLength":92976,"byteOffset":629676,"target":34962},{"buffer":0,"byteLength":61984,"byteOffset":722652,"target":34962},{"buffer":0,"byteLength":61984,"byteOffset":784636,"target":34962},{"buffer":0,"byteLength":54240,"byteOffset":846620,"target":34963},{"buffer":0,"byteLength":48,"byteOffset":900860,"target":34962},{"buffer":0,"byteLength":48,"byteOffset":900908,"target":34962},{"buffer":0,"byteLength":32,"byteOffset":900956,"target":34962},{"buffer":0,"byteLength":32,"byteOffset":900988,"target":34962},{"buffer":0,"byteLength":12,"byteOffset":901020,"target":34963},{"buffer":0,"byteLength":6144,"byteOffset":901032,"target":34962},{"buffer":0,"byteLength":6144,"byteOffset":907176,"target":34962},{"buffer":0,"byteLength":4096,"byteOffset":913320,"target":34962},{"buffer":0,"byteLength":4096,"byteOffset":917416,"target":34962},{"buffer":0,"byteLength":2376,"byteOffset":921512,"target":34963},{"buffer":0,"byteLength":11520,"byteOffset":923888,"target":34962},{"buffer":0,"byteLength":11520,"byteOffset":935408,"target":34962},{"buffer":0,"byteLength":7680,"byteOffset":946928,"target":34962},{"buffer":0,"byteLength":7680,"byteOffset":954608,"target":34962},{"buffer":0,"byteLength":7680,"byteOffset":962288,"target":34962},{"buffer":0,"byteLength":7680,"byteOffset":969968,"target":34962},{"buffer":0,"byteLength":2880,"byteOffset":977648,"target":34963},{"buffer":0,"byteLength":51180,"byteOffset":980528,"target":34962},{"buffer":0,"byteLength":51180,"byteOffset":1031708,"target":34962},{"buffer":0,"byteLength":34120,"byteOffset":1082888,"target":34962},{"buffer":0,"byteLength":34120,"byteOffset":1117008,"target":34962},{"buffer":0,"byteLength":51180,"byteOffset":1151128,"target":34962},{"buffer":0,"byteLength":44748,"byteOffset":1202308,"target":34963},{"buffer":0,"byteLength":55356,"byteOffset":1247056,"target":34962},{"buffer":0,"byteLength":55356,"byteOffset":1302412,"target":34962},{"buffer":0,"byteLength":36904,"byteOffset":1357768,"target":34962},{"buffer":0,"byteLength":36904,"byteOffset":1394672,"target":34962},{"buffer":0,"byteLength":55356,"byteOffset":1431576,"target":34962},{"buffer":0,"byteLength":47322,"byteOffset":1486932,"target":34963}],"samplers":[{"magFilter":9729,"minFilter":9987}],"buffers":[{"byteLength":1534256,"uri":"cell_x1_z-3_render.bin"}]}