{
	"asset":{
		"generator":"Khronos glTF Blender I/O v4.5.51",
		"version":"2.0"
	},
	"scene":0,
	"scenes":[
		{
			"name":"Scene",
			"nodes":[
				0
			]
		}
	],
	"nodes":[
		{
			"mesh":0,
			"name":"cell_x-2_z2",
			"rotation":[
				0,
				-0.3383379876613617,
				0,
				0.941024661064148
			],
			"scale":[
				1.3494136333465576,
				1.3494136333465576,
				1.3494136333465576
			],
			"translation":[
				-55.09435272216797,
				8.130861282348633,
				94
			]
		}
	],
	"materials":[
		{
			"doubleSided":true,
			"name":"sol_falaise",
			"normalTexture":{
				"index":0,
				"scale":0.800000011920929
			},
			"pbrMetallicRoughness":{
				"baseColorFactor":[
					0.6514056324958801,
					0.6104955673217773,
					0.5149176716804504,
					1
				],
				"baseColorTexture":{
					"index":1
				},
				"metallicFactor":0,
				"roughnessFactor":0.949999988079071
			}
		},
		{
			"name":"stone_v2",
			"pbrMetallicRoughness":{
				"baseColorFactor":[
					0.38132601976394653,
					0.38132601976394653,
					0.3324515223503113,
					1
				],
				"metallicFactor":0,
				"roughnessFactor":0.9200000166893005
			}
		},
		{
			"name":"stone_v3",
			"pbrMetallicRoughness":{
				"baseColorFactor":[
					0.20863686501979828,
					0.2462013214826584,
					0.2622506618499756,
					1
				],
				"metallicFactor":0,
				"roughnessFactor":0.9200000166893005
			}
		},
		{
			"name":"woodBark",
			"pbrMetallicRoughness":{
				"baseColorFactor":[
					0.2015562504529953,
					0.08437620848417282,
					0.02955683507025242,
					1
				],
				"metallicFactor":0,
				"roughnessFactor":0.9200000166893005
			}
		},
		{
			"name":"leafsGreen",
			"pbrMetallicRoughness":{
				"baseColorFactor":[
					0.11443537473678589,
					0.23074005544185638,
					0.06301001459360123,
					1
				],
				"metallicFactor":0,
				"roughnessFactor":0.9200000166893005
			}
		},
		{
			"name":"grass",
			"pbrMetallicRoughness":{
				"baseColorFactor":[
					0.15592646598815918,
					0.2961382567882538,
					0.0802198201417923,
					1
				],
				"metallicFactor":0,
				"roughnessFactor":0.9200000166893005
			}
		},
		{
			"name":"stone_v1",
			"pbrMetallicRoughness":{
				"baseColorFactor":[
					0.2541520893573761,
					0.28744083642959595,
					0.3049873113632202,
					1
				],
				"metallicFactor":0,
				"roughnessFactor":0.9200000166893005
			}
		},
		{
			"name":"dirt_v1",
			"pbrMetallicRoughness":{
				"baseColorFactor":[
					0.2581828534603119,
					0.1946178376674652,
					0.1119324266910553,
					1
				],
				"metallicFactor":0,
				"roughnessFactor":0.9200000166893005
			}
		},
		{
			"name":"dirt_v3",
			"pbrMetallicRoughness":{
				"baseColorFactor":[
					0.20863686501979828,
					0.15896083414554596,
					0.09084171056747437,
					1
				],
				"metallicFactor":0,
				"roughnessFactor":0.9200000166893005
			}
		},
		{
			"name":"stone_v0",
			"pbrMetallicRoughness":{
				"baseColorFactor":[
					0.32314321398735046,
					0.35153260827064514,
					0.3613067865371704,
					1
				],
				"metallicFactor":0,
				"roughnessFactor":0.9200000166893005
			}
		},
		{
			"name":"_defaultMat",
			"pbrMetallicRoughness":{
				"baseColorFactor":[
					0.4564110338687897,
					0.4564110338687897,
					0.4125426113605499,
					1
				],
				"metallicFactor":0,
				"roughnessFactor":0.9200000166893005
			}
		},
		{
			"name":"dirt_v2",
			"pbrMetallicRoughness":{
				"baseColorFactor":[
					0.38132601976394653,
					0.30054378509521484,
					0.1946178376674652,
					1
				],
				"metallicFactor":0,
				"roughnessFactor":0.9200000166893005
			}
		}
	],
	"meshes":[
		{
			"name":"SM_ENV_cliff_castle_02_instantmeshesexp_02.008",
			"primitives":[
				{
					"attributes":{
						"POSITION":0,
						"NORMAL":1,
						"TEXCOORD_0":2,
						"TEXCOORD_1":3,
						"COLOR_0":4
					},
					"indices":5,
					"material":0
				},
				{
					"attributes":{
						"POSITION":6,
						"NORMAL":7,
						"TEXCOORD_0":8,
						"TEXCOORD_1":9,
						"COLOR_0":10
					},
					"indices":11,
					"material":1
				},
				{
					"attributes":{
						"POSITION":12,
						"NORMAL":13,
						"TEXCOORD_0":14,
						"TEXCOORD_1":15,
						"COLOR_0":16
					},
					"indices":17,
					"material":2
				},
				{
					"attributes":{
						"POSITION":18,
						"NORMAL":19,
						"TEXCOORD_0":20,
						"TEXCOORD_1":21,
						"COLOR_0":22
					},
					"indices":23,
					"material":3
				},
				{
					"attributes":{
						"POSITION":24,
						"NORMAL":25,
						"TEXCOORD_0":26,
						"TEXCOORD_1":27,
						"COLOR_0":28
					},
					"indices":29,
					"material":4
				},
				{
					"attributes":{
						"POSITION":30,
						"NORMAL":31,
						"TEXCOORD_0":32,
						"TEXCOORD_1":33,
						"COLOR_0":34
					},
					"indices":35,
					"material":5
				},
				{
					"attributes":{
						"POSITION":36,
						"NORMAL":37,
						"TEXCOORD_0":38,
						"TEXCOORD_1":39,
						"COLOR_0":40
					},
					"indices":41,
					"material":6
				},
				{
					"attributes":{
						"POSITION":42,
						"NORMAL":43,
						"TEXCOORD_0":44,
						"TEXCOORD_1":45,
						"COLOR_0":46
					},
					"indices":47,
					"material":7
				},
				{
					"attributes":{
						"POSITION":48,
						"NORMAL":49,
						"TEXCOORD_0":50,
						"TEXCOORD_1":51,
						"COLOR_0":52
					},
					"indices":53,
					"material":8
				},
				{
					"attributes":{
						"POSITION":54,
						"NORMAL":55,
						"TEXCOORD_0":56,
						"TEXCOORD_1":57,
						"COLOR_0":58
					},
					"indices":59,
					"material":9
				},
				{
					"attributes":{
						"POSITION":60,
						"NORMAL":61,
						"TEXCOORD_0":62,
						"TEXCOORD_1":63,
						"COLOR_0":64
					},
					"indices":65,
					"material":10
				},
				{
					"attributes":{
						"POSITION":66,
						"NORMAL":67,
						"TEXCOORD_0":68,
						"TEXCOORD_1":69,
						"COLOR_0":70
					},
					"indices":71,
					"material":11
				}
			]
		}
	],
	"textures":[
		{
			"sampler":0,
			"source":0
		},
		{
			"sampler":0,
			"source":1
		}
	],
	"images":[
		{
			"mimeType":"image/png",
			"name":"cliff_n",
			"uri":"textures/cliff_n.png"
		},
		{
			"mimeType":"image/png",
			"name":"stone_bc",
			"uri":"textures/stone_bc.png"
		}
	],
	"accessors":[
		{
			"bufferView":0,
			"componentType":5126,
			"count":13145,
			"max":[
				14.009284019470215,
				6.843289375305176,
				3.3966786861419678
			],
			"min":[
				-5.224124431610107,
				-10.637913703918457,
				-12.437984466552734
			],
			"type":"VEC3"
		},
		{
			"bufferView":1,
			"componentType":5126,
			"count":13145,
			"type":"VEC3"
		},
		{
			"bufferView":2,
			"componentType":5126,
			"count":13145,
			"type":"VEC2"
		},
		{
			"bufferView":3,
			"componentType":5126,
			"count":13145,
			"type":"VEC2"
		},
		{
			"bufferView":4,
			"componentType":5123,
			"count":13145,
			"normalized":true,
			"type":"VEC4"
		},
		{
			"bufferView":5,
			"componentType":5123,
			"count":68409,
			"type":"SCALAR"
		},
		{
			"bufferView":6,
			"componentType":5126,
			"count":182,
			"max":[
				4.0530104637146,
				-3.8079187870025635,
				4.839872360229492
			],
			"min":[
				-17.462841033935547,
				-9.415160179138184,
				-5.50101900100708
			],
			"type":"VEC3"
		},
		{
			"bufferView":7,
			"componentType":5126,
			"count":182,
			"type":"VEC3"
		},
		{
			"bufferView":8,
			"componentType":5126,
			"count":182,
			"type":"VEC2"
		},
		{
			"bufferView":9,
			"componentType":5126,
			"count":182,
			"type":"VEC2"
		},
		{
			"bufferView":10,
			"componentType":5123,
			"count":182,
			"normalized":true,
			"type":"VEC4"
		},
		{
			"bufferView":11,
			"componentType":5123,
			"count":288,
			"type":"SCALAR"
		},
		{
			"bufferView":12,
			"componentType":5126,
			"count":408,
			"max":[
				7.6015305519104,
				-8.407954216003418,
				-5.653026103973389
			],
			"min":[
				-4.578010559082031,
				-9.856742858886719,
				-13.740557670593262
			],
			"type":"VEC3"
		},
		{
			"bufferView":13,
			"componentType":5126,
			"count":408,
			"type":"VEC3"
		},
		{
			"bufferView":14,
			"componentType":5126,
			"count":408,
			"type":"VEC2"
		},
		{
			"bufferView":15,
			"componentType":5126,
			"count":408,
			"type":"VEC2"
		},
		{
			"bufferView":16,
			"componentType":5123,
			"count":408,
			"normalized":true,
			"type":"VEC4"
		},
		{
			"bufferView":17,
			"componentType":5123,
			"count":660,
			"type":"SCALAR"
		},
		{
			"bufferView":18,
			"componentType":5126,
			"count":400,
			"max":[
				-16.715662002563477,
				-2.2286462783813477,
				3.854335069656372
			],
			"min":[
				-17.796798706054688,
				-4.471436500549316,
				2.8492088317871094
			],
			"type":"VEC3"
		},
		{
			"bufferView":19,
			"componentType":5126,
			"count":400,
			"type":"VEC3"
		},
		{
			"bufferView":20,
			"componentType":5126,
			"count":400,
			"type":"VEC2"
		},
		{
			"bufferView":21,
			"componentType":5126,
			"count":400,
			"type":"VEC2"
		},
		{
			"bufferView":22,
			"componentType":5123,
			"count":400,
			"normalized":true,
			"type":"VEC4"
		},
		{
			"bufferView":23,
			"componentType":5123,
			"count":618,
			"type":"SCALAR"
		},
		{
			"bufferView":24,
			"componentType":5126,
			"count":326,
			"max":[
				-8.469040870666504,
				0.2767448425292969,
				4.383707046508789
			],
			"min":[
				-18.156543731689453,
				-5.1988911628723145,
				-2.8886802196502686
			],
			"type":"VEC3"
		},
		{
			"bufferView":25,
			"componentType":5126,
			"count":326,
			"type":"VEC3"
		},
		{
			"bufferView":26,
			"componentType":5126,
			"count":326,
			"type":"VEC2"
		},
		{
			"bufferView":27,
			"componentType":5126,
			"count":326,
			"type":"VEC2"
		},
		{
			"bufferView":28,
			"componentType":5123,
			"count":326,
			"normalized":true,
			"type":"VEC4"
		},
		{
			"bufferView":29,
			"componentType":5123,
			"count":540,
			"type":"SCALAR"
		},
		{
			"bufferView":30,
			"componentType":5126,
			"count":4748,
			"max":[
				7.601104736328125,
				-3.459601640701294,
				4.330339431762695
			],
			"min":[
				-20.652719497680664,
				-10.267382621765137,
				-10.03797435760498
			],
			"type":"VEC3"
		},
		{
			"bufferView":31,
			"componentType":5126,
			"count":4748,
			"type":"VEC3"
		},
		{
			"bufferView":32,
			"componentType":5126,
			"count":4748,
			"type":"VEC2"
		},
		{
			"bufferView":33,
			"componentType":5126,
			"count":4748,
			"type":"VEC2"
		},
		{
			"bufferView":34,
			"componentType":5123,
			"count":4748,
			"normalized":true,
			"type":"VEC4"
		},
		{
			"bufferView":35,
			"componentType":5123,
			"count":6276,
			"type":"SCALAR"
		},
		{
			"bufferView":36,
			"componentType":5126,
			"count":104,
			"max":[
				6.9605817794799805,
				-8.859383583068848,
				-2.5531177520751953
			],
			"min":[
				3.9204649925231934,
				-9.415160179138184,
				-10.18874740600586
			],
			"type":"VEC3"
		},
		{
			"bufferView":37,
			"componentType":5126,
			"count":104,
			"type":"VEC3"
		},
		{
			"bufferView":38,
			"componentType":5126,
			"count":104,
			"type":"VEC2"
		},
		{
			"bufferView":39,
			"componentType":5126,
			"count":104,
			"type":"VEC2"
		},
		{
			"bufferView":40,
			"componentType":5123,
			"count":104,
			"normalized":true,
			"type":"VEC4"
		},
		{
			"bufferView":41,
			"componentType":5123,
			"count":168,
			"type":"SCALAR"
		},
		{
			"bufferView":42,
			"componentType":5126,
			"count":116,
			"max":[
				7.7077317237854,
				-9.28890609741211,
				-5.800544261932373
			],
			"min":[
				5.262980937957764,
				-9.415160179138184,
				-8.767898559570312
			],
			"type":"VEC3"
		},
		{
			"bufferView":43,
			"componentType":5126,
			"count":116,
			"type":"VEC3"
		},
		{
			"bufferView":44,
			"componentType":5126,
			"count":116,
			"type":"VEC2"
		},
		{
			"bufferView":45,
			"componentType":5126,
			"count":116,
			"type":"VEC2"
		},
		{
			"bufferView":46,
			"componentType":5123,
			"count":116,
			"normalized":true,
			"type":"VEC4"
		},
		{
			"bufferView":47,
			"componentType":5123,
			"count":186,
			"type":"SCALAR"
		},
		{
			"bufferView":48,
			"componentType":5126,
			"count":57,
			"max":[
				6.678885459899902,
				-9.284173965454102,
				-7.311370372772217
			],
			"min":[
				5.7311110496521,
				-9.415160179138184,
				-8.042304992675781
			],
			"type":"VEC3"
		},
		{
			"bufferView":49,
			"componentType":5126,
			"count":57,
			"type":"VEC3"
		},
		{
			"bufferView":50,
			"componentType":5126,
			"count":57,
			"type":"VEC2"
		},
		{
			"bufferView":51,
			"componentType":5126,
			"count":57,
			"type":"VEC2"
		},
		{
			"bufferView":52,
			"componentType":5123,
			"count":57,
			"normalized":true,
			"type":"VEC4"
		},
		{
			"bufferView":53,
			"componentType":5123,
			"count":93,
			"type":"SCALAR"
		},
		{
			"bufferView":54,
			"componentType":5126,
			"count":208,
			"max":[
				8.756386756896973,
				-8.331583023071289,
				-2.493579387664795
			],
			"min":[
				5.1529436111450195,
				-9.415160179138184,
				-9.230608940124512
			],
			"type":"VEC3"
		},
		{
			"bufferView":55,
			"componentType":5126,
			"count":208,
			"type":"VEC3"
		},
		{
			"bufferView":56,
			"componentType":5126,
			"count":208,
			"type":"VEC2"
		},
		{
			"bufferView":57,
			"componentType":5126,
			"count":208,
			"type":"VEC2"
		},
		{
			"bufferView":58,
			"componentType":5123,
			"count":208,
			"normalized":true,
			"type":"VEC4"
		},
		{
			"bufferView":59,
			"componentType":5123,
			"count":336,
			"type":"SCALAR"
		},
		{
			"bufferView":60,
			"componentType":5126,
			"count":54,
			"max":[
				7.878769874572754,
				-8.985817909240723,
				-2.493579387664795
			],
			"min":[
				5.2009687423706055,
				-9.01607894897461,
				-8.605691909790039
			],
			"type":"VEC3"
		},
		{
			"bufferView":61,
			"componentType":5126,
			"count":54,
			"type":"VEC3"
		},
		{
			"bufferView":62,
			"componentType":5126,
			"count":54,
			"type":"VEC2"
		},
		{
			"bufferView":63,
			"componentType":5126,
			"count":54,
			"type":"VEC2"
		},
		{
			"bufferView":64,
			"componentType":5123,
			"count":54,
			"normalized":true,
			"type":"VEC4"
		},
		{
			"bufferView":65,
			"componentType":5123,
			"count":54,
			"type":"SCALAR"
		},
		{
			"bufferView":66,
			"componentType":5126,
			"count":60,
			"max":[
				7.30741548538208,
				-9.322444915771484,
				-5.578624248504639
			],
			"min":[
				6.689211368560791,
				-9.415160179138184,
				-6.148046970367432
			],
			"type":"VEC3"
		},
		{
			"bufferView":67,
			"componentType":5126,
			"count":60,
			"type":"VEC3"
		},
		{
			"bufferView":68,
			"componentType":5126,
			"count":60,
			"type":"VEC2"
		},
		{
			"bufferView":69,
			"componentType":5126,
			"count":60,
			"type":"VEC2"
		},
		{
			"bufferView":70,
			"componentType":5123,
			"count":60,
			"normalized":true,
			"type":"VEC4"
		},
		{
			"bufferView":71,
			"componentType":5123,
			"count":93,
			"type":"SCALAR"
		}
	],
	"bufferViews":[
		{
			"buffer":0,
			"byteLength":157740,
			"byteOffset":0,
			"target":34962
		},
		{
			"buffer":0,
			"byteLength":157740,
			"byteOffset":157740,
			"target":34962
		},
		{
			"buffer":0,
			"byteLength":105160,
			"byteOffset":315480,
			"target":34962
		},
		{
			"buffer":0,
			"byteLength":105160,
			"byteOffset":420640,
			"target":34962
		},
		{
			"buffer":0,
			"byteLength":105160,
			"byteOffset":525800,
			"target":34962
		},
		{
			"buffer":0,
			"byteLength":136818,
			"byteOffset":630960,
			"target":34963
		},
		{
			"buffer":0,
			"byteLength":2184,
			"byteOffset":767780,
			"target":34962
		},
		{
			"buffer":0,
			"byteLength":2184,
			"byteOffset":769964,
			"target":34962
		},
		{
			"buffer":0,
			"byteLength":1456,
			"byteOffset":772148,
			"target":34962
		},
		{
			"buffer":0,
			"byteLength":1456,
			"byteOffset":773604,
			"target":34962
		},
		{
			"buffer":0,
			"byteLength":1456,
			"byteOffset":775060,
			"target":34962
		},
		{
			"buffer":0,
			"byteLength":576,
			"byteOffset":776516,
			"target":34963
		},
		{
			"buffer":0,
			"byteLength":4896,
			"byteOffset":777092,
			"target":34962
		},
		{
			"buffer":0,
			"byteLength":4896,
			"byteOffset":781988,
			"target":34962
		},
		{
			"buffer":0,
			"byteLength":3264,
			"byteOffset":786884,
			"target":34962
		},
		{
			"buffer":0,
			"byteLength":3264,
			"byteOffset":790148,
			"target":34962
		},
		{
			"buffer":0,
			"byteLength":3264,
			"byteOffset":793412,
			"target":34962
		},
		{
			"buffer":0,
			"byteLength":1320,
			"byteOffset":796676,
			"target":34963
		},
		{
			"buffer":0,
			"byteLength":4800,
			"byteOffset":797996,
			"target":34962
		},
		{
			"buffer":0,
			"byteLength":4800,
			"byteOffset":802796,
			"target":34962
		},
		{
			"buffer":0,
			"byteLength":3200,
			"byteOffset":807596,
			"target":34962
		},
		{
			"buffer":0,
			"byteLength":3200,
			"byteOffset":810796,
			"target":34962
		},
		{
			"buffer":0,
			"byteLength":3200,
			"byteOffset":813996,
			"target":34962
		},
		{
			"buffer":0,
			"byteLength":1236,
			"byteOffset":817196,
			"target":34963
		},
		{
			"buffer":0,
			"byteLength":3912,
			"byteOffset":818432,
			"target":34962
		},
		{
			"buffer":0,
			"byteLength":3912,
			"byteOffset":822344,
			"target":34962
		},
		{
			"buffer":0,
			"byteLength":2608,
			"byteOffset":826256,
			"target":34962
		},
		{
			"buffer":0,
			"byteLength":2608,
			"byteOffset":828864,
			"target":34962
		},
		{
			"buffer":0,
			"byteLength":2608,
			"byteOffset":831472,
			"target":34962
		},
		{
			"buffer":0,
			"byteLength":1080,
			"byteOffset":834080,
			"target":34963
		},
		{
			"buffer":0,
			"byteLength":56976,
			"byteOffset":835160,
			"target":34962
		},
		{
			"buffer":0,
			"byteLength":56976,
			"byteOffset":892136,
			"target":34962
		},
		{
			"buffer":0,
			"byteLength":37984,
			"byteOffset":949112,
			"target":34962
		},
		{
			"buffer":0,
			"byteLength":37984,
			"byteOffset":987096,
			"target":34962
		},
		{
			"buffer":0,
			"byteLength":37984,
			"byteOffset":1025080,
			"target":34962
		},
		{
			"buffer":0,
			"byteLength":12552,
			"byteOffset":1063064,
			"target":34963
		},
		{
			"buffer":0,
			"byteLength":1248,
			"byteOffset":1075616,
			"target":34962
		},
		{
			"buffer":0,
			"byteLength":1248,
			"byteOffset":1076864,
			"target":34962
		},
		{
			"buffer":0,
			"byteLength":832,
			"byteOffset":1078112,
			"target":34962
		},
		{
			"buffer":0,
			"byteLength":832,
			"byteOffset":1078944,
			"target":34962
		},
		{
			"buffer":0,
			"byteLength":832,
			"byteOffset":1079776,
			"target":34962
		},
		{
			"buffer":0,
			"byteLength":336,
			"byteOffset":1080608,
			"target":34963
		},
		{
			"buffer":0,
			"byteLength":1392,
			"byteOffset":1080944,
			"target":34962
		},
		{
			"buffer":0,
			"byteLength":1392,
			"byteOffset":1082336,
			"target":34962
		},
		{
			"buffer":0,
			"byteLength":928,
			"byteOffset":1083728,
			"target":34962
		},
		{
			"buffer":0,
			"byteLength":928,
			"byteOffset":1084656,
			"target":34962
		},
		{
			"buffer":0,
			"byteLength":928,
			"byteOffset":1085584,
			"target":34962
		},
		{
			"buffer":0,
			"byteLength":372,
			"byteOffset":1086512,
			"target":34963
		},
		{
			"buffer":0,
			"byteLength":684,
			"byteOffset":1086884,
			"target":34962
		},
		{
			"buffer":0,
			"byteLength":684,
			"byteOffset":1087568,
			"target":34962
		},
		{
			"buffer":0,
			"byteLength":456,
			"byteOffset":1088252,
			"target":34962
		},
		{
			"buffer":0,
			"byteLength":456,
			"byteOffset":1088708,
			"target":34962
		},
		{
			"buffer":0,
			"byteLength":456,
			"byteOffset":1089164,
			"target":34962
		},
		{
			"buffer":0,
			"byteLength":186,
			"byteOffset":1089620,
			"target":34963
		},
		{
			"buffer":0,
			"byteLength":2496,
			"byteOffset":1089808,
			"target":34962
		},
		{
			"buffer":0,
			"byteLength":2496,
			"byteOffset":1092304,
			"target":34962
		},
		{
			"buffer":0,
			"byteLength":1664,
			"byteOffset":1094800,
			"target":34962
		},
		{
			"buffer":0,
			"byteLength":1664,
			"byteOffset":1096464,
			"target":34962
		},
		{
			"buffer":0,
			"byteLength":1664,
			"byteOffset":1098128,
			"target":34962
		},
		{
			"buffer":0,
			"byteLength":672,
			"byteOffset":1099792,
			"target":34963
		},
		{
			"buffer":0,
			"byteLength":648,
			"byteOffset":1100464,
			"target":34962
		},
		{
			"buffer":0,
			"byteLength":648,
			"byteOffset":1101112,
			"target":34962
		},
		{
			"buffer":0,
			"byteLength":432,
			"byteOffset":1101760,
			"target":34962
		},
		{
			"buffer":0,
			"byteLength":432,
			"byteOffset":1102192,
			"target":34962
		},
		{
			"buffer":0,
			"byteLength":432,
			"byteOffset":1102624,
			"target":34962
		},
		{
			"buffer":0,
			"byteLength":108,
			"byteOffset":1103056,
			"target":34963
		},
		{
			"buffer":0,
			"byteLength":720,
			"byteOffset":1103164,
			"target":34962
		},
		{
			"buffer":0,
			"byteLength":720,
			"byteOffset":1103884,
			"target":34962
		},
		{
			"buffer":0,
			"byteLength":480,
			"byteOffset":1104604,
			"target":34962
		},
		{
			"buffer":0,
			"byteLength":480,
			"byteOffset":1105084,
			"target":34962
		},
		{
			"buffer":0,
			"byteLength":480,
			"byteOffset":1105564,
			"target":34962
		},
		{
			"buffer":0,
			"byteLength":186,
			"byteOffset":1106044,
			"target":34963
		}
	],
	"samplers":[
		{
			"magFilter":9729,
			"minFilter":9987
		}
	],
	"buffers":[
		{
			"byteLength":1106232,
			"uri":"cell_x-2_z2_render.bin"
		}
	]
}
