{
	"asset":{
		"generator":"Khronos glTF Blender I/O v4.5.51",
		"version":"2.0"
	},
	"scene":0,
	"scenes":[
		{
			"name":"Scene",
			"nodes":[
				0
			]
		}
	],
	"nodes":[
		{
			"mesh":0,
			"name":"cell_x-2_z-2",
			"rotation":[
				0.016369910910725594,
				0.1276744157075882,
				-0.0021075562108308077,
				0.9916788339614868
			],
			"scale":[
				4.846314907073975,
				4.846314430236816,
				4.846314907073975
			],
			"translation":[
				-46.66087341308594,
				0.8829481601715088,
				-72.24848175048828
			]
		}
	],
	"materials":[
		{
			"name":"stone_v2",
			"pbrMetallicRoughness":{
				"baseColorFactor":[
					0.38132601976394653,
					0.38132601976394653,
					0.3324515223503113,
					1
				],
				"metallicFactor":0,
				"roughnessFactor":0.9200000166893005
			}
		},
		{
			"name":"woodBarkDark",
			"pbrMetallicRoughness":{
				"baseColorFactor":[
					0.11443537473678589,
					0.04666508734226227,
					0.016807375475764275,
					1
				],
				"metallicFactor":0,
				"roughnessFactor":0.9200000166893005
			}
		},
		{
			"name":"leafsDark",
			"pbrMetallicRoughness":{
				"baseColorFactor":[
					0.04817182570695877,
					0.11443537473678589,
					0.03310476616024971,
					1
				],
				"metallicFactor":0,
				"roughnessFactor":0.9200000166893005
			}
		},
		{
			"name":"_defaultMat",
			"pbrMetallicRoughness":{
				"baseColorFactor":[
					0.4564110338687897,
					0.4564110338687897,
					0.4125426113605499,
					1
				],
				"metallicFactor":0,
				"roughnessFactor":0.9200000166893005
			}
		},
		{
			"name":"colorRed",
			"pbrMetallicRoughness":{
				"baseColorFactor":[
					0.34191441535949707,
					0.08437620848417282,
					0.05951123684644699,
					1
				],
				"metallicFactor":0,
				"roughnessFactor":0.9200000166893005
			}
		},
		{
			"name":"woodBark",
			"pbrMetallicRoughness":{
				"baseColorFactor":[
					0.2015562504529953,
					0.08437620848417282,
					0.02955683507025242,
					1
				],
				"metallicFactor":0,
				"roughnessFactor":0.9200000166893005
			}
		},
		{
			"name":"woodInner",
			"pbrMetallicRoughness":{
				"baseColorFactor":[
					0.577580451965332,
					0.423267662525177,
					0.23839756846427917,
					1
				],
				"metallicFactor":0,
				"roughnessFactor":0.9200000166893005
			}
		},
		{
			"name":"grass",
			"pbrMetallicRoughness":{
				"baseColorFactor":[
					0.15592646598815918,
					0.2961382567882538,
					0.0802198201417923,
					1
				],
				"metallicFactor":0,
				"roughnessFactor":0.9200000166893005
			}
		},
		{
			"name":"colorYellow",
			"pbrMetallicRoughness":{
				"baseColorFactor":[
					0.5840784311294556,
					0.3613067865371704,
					0.07618538290262222,
					1
				],
				"metallicFactor":0,
				"roughnessFactor":0.9200000166893005
			}
		},
		{
			"name":"dirt_v0",
			"pbrMetallicRoughness":{
				"baseColorFactor":[
					0.32314321398735046,
					0.24228112399578094,
					0.1384316086769104,
					1
				],
				"metallicFactor":0,
				"roughnessFactor":0.9200000166893005
			}
		},
		{
			"name":"colorPurple",
			"pbrMetallicRoughness":{
				"baseColorFactor":[
					0.19806931912899017,
					0.15592646598815918,
					0.3324515223503113,
					1
				],
				"metallicFactor":0,
				"roughnessFactor":0.9200000166893005
			}
		},
		{
			"name":"colorWhite",
			"pbrMetallicRoughness":{
				"baseColorFactor":[
					0.68668532371521,
					0.6583748459815979,
					0.577580451965332,
					1
				],
				"metallicFactor":0,
				"roughnessFactor":0.9200000166893005
			}
		},
		{
			"name":"leafsGreen",
			"pbrMetallicRoughness":{
				"baseColorFactor":[
					0.11443537473678589,
					0.23074005544185638,
					0.06301001459360123,
					1
				],
				"metallicFactor":0,
				"roughnessFactor":0.9200000166893005
			}
		},
		{
			"name":"dirt_v1",
			"pbrMetallicRoughness":{
				"baseColorFactor":[
					0.2581828534603119,
					0.1946178376674652,
					0.1119324266910553,
					1
				],
				"metallicFactor":0,
				"roughnessFactor":0.9200000166893005
			}
		},
		{
			"name":"dirt_v2",
			"pbrMetallicRoughness":{
				"baseColorFactor":[
					0.38132601976394653,
					0.30054378509521484,
					0.1946178376674652,
					1
				],
				"metallicFactor":0,
				"roughnessFactor":0.9200000166893005
			}
		},
		{
			"name":"stone_v1",
			"pbrMetallicRoughness":{
				"baseColorFactor":[
					0.2541520893573761,
					0.28744083642959595,
					0.3049873113632202,
					1
				],
				"metallicFactor":0,
				"roughnessFactor":0.9200000166893005
			}
		},
		{
			"name":"stone_v3",
			"pbrMetallicRoughness":{
				"baseColorFactor":[
					0.20863686501979828,
					0.2462013214826584,
					0.2622506618499756,
					1
				],
				"metallicFactor":0,
				"roughnessFactor":0.9200000166893005
			}
		}
	],
	"meshes":[
		{
			"name":"Mesh stone_largeA.009",
			"primitives":[
				{
					"attributes":{
						"POSITION":0,
						"NORMAL":1,
						"TEXCOORD_0":2
					},
					"indices":3,
					"material":0
				},
				{
					"attributes":{
						"POSITION":4,
						"NORMAL":5,
						"TEXCOORD_0":6
					},
					"indices":7,
					"material":1
				},
				{
					"attributes":{
						"POSITION":8,
						"NORMAL":9,
						"TEXCOORD_0":10
					},
					"indices":11,
					"material":2
				},
				{
					"attributes":{
						"POSITION":12,
						"NORMAL":13,
						"TEXCOORD_0":14
					},
					"indices":15,
					"material":3
				},
				{
					"attributes":{
						"POSITION":16,
						"NORMAL":17,
						"TEXCOORD_0":18
					},
					"indices":19,
					"material":4
				},
				{
					"attributes":{
						"POSITION":20,
						"NORMAL":21,
						"TEXCOORD_0":22
					},
					"indices":23,
					"material":5
				},
				{
					"attributes":{
						"POSITION":24,
						"NORMAL":25,
						"TEXCOORD_0":26
					},
					"indices":27,
					"material":6
				},
				{
					"attributes":{
						"POSITION":28,
						"NORMAL":29,
						"TEXCOORD_0":30
					},
					"indices":31,
					"material":7
				},
				{
					"attributes":{
						"POSITION":32,
						"NORMAL":33,
						"TEXCOORD_0":34
					},
					"indices":35,
					"material":8
				},
				{
					"attributes":{
						"POSITION":36,
						"NORMAL":37,
						"TEXCOORD_0":38
					},
					"indices":39,
					"material":9
				},
				{
					"attributes":{
						"POSITION":40,
						"NORMAL":41,
						"TEXCOORD_0":42
					},
					"indices":43,
					"material":10
				},
				{
					"attributes":{
						"POSITION":44,
						"NORMAL":45,
						"TEXCOORD_0":46
					},
					"indices":47,
					"material":11
				},
				{
					"attributes":{
						"POSITION":48,
						"NORMAL":49,
						"TEXCOORD_0":50
					},
					"indices":51,
					"material":12
				},
				{
					"attributes":{
						"POSITION":52,
						"NORMAL":53,
						"TEXCOORD_0":54
					},
					"indices":55,
					"material":13
				},
				{
					"attributes":{
						"POSITION":56,
						"NORMAL":57,
						"TEXCOORD_0":58
					},
					"indices":59,
					"material":14
				},
				{
					"attributes":{
						"POSITION":60,
						"NORMAL":61,
						"TEXCOORD_0":62
					},
					"indices":63,
					"material":15
				},
				{
					"attributes":{
						"POSITION":64,
						"NORMAL":65,
						"TEXCOORD_0":66
					},
					"indices":67,
					"material":16
				}
			]
		}
	],
	"accessors":[
		{
			"bufferView":0,
			"componentType":5126,
			"count":146,
			"max":[
				0.3924533426761627,
				0.25977596640586853,
				0.5077307224273682
			],
			"min":[
				-0.3924533426761627,
				-2.9327650236887174e-16,
				-0.5077307224273682
			],
			"type":"VEC3"
		},
		{
			"bufferView":1,
			"componentType":5126,
			"count":146,
			"type":"VEC3"
		},
		{
			"bufferView":2,
			"componentType":5126,
			"count":146,
			"type":"VEC2"
		},
		{
			"bufferView":3,
			"componentType":5123,
			"count":240,
			"type":"SCALAR"
		},
		{
			"bufferView":4,
			"componentType":5126,
			"count":1700,
			"max":[
				-0.6606869697570801,
				1.2116352319717407,
				5.1220526695251465
			],
			"min":[
				-7.642060279846191,
				-0.4540282189846039,
				-2.7236087322235107
			],
			"type":"VEC3"
		},
		{
			"bufferView":5,
			"componentType":5126,
			"count":1700,
			"type":"VEC3"
		},
		{
			"bufferView":6,
			"componentType":5126,
			"count":1700,
			"type":"VEC2"
		},
		{
			"bufferView":7,
			"componentType":5123,
			"count":2490,
			"type":"SCALAR"
		},
		{
			"bufferView":8,
			"componentType":5126,
			"count":6044,
			"max":[
				-0.5615760684013367,
				2.0729901790618896,
				5.2272515296936035
			],
			"min":[
				-7.788463115692139,
				-0.21487855911254883,
				-2.8571701049804688
			],
			"type":"VEC3"
		},
		{
			"bufferView":9,
			"componentType":5126,
			"count":6044,
			"type":"VEC3"
		},
		{
			"bufferView":10,
			"componentType":5126,
			"count":6044,
			"type":"VEC2"
		},
		{
			"bufferView":11,
			"componentType":5123,
			"count":10494,
			"type":"SCALAR"
		},
		{
			"bufferView":12,
			"componentType":5126,
			"count":796,
			"max":[
				-4.385561943054199,
				0.16019152104854584,
				5.5811638832092285
			],
			"min":[
				-6.524806976318359,
				-0.44299042224884033,
				-1.7510102987289429
			],
			"type":"VEC3"
		},
		{
			"bufferView":13,
			"componentType":5126,
			"count":796,
			"type":"VEC3"
		},
		{
			"bufferView":14,
			"componentType":5126,
			"count":796,
			"type":"VEC2"
		},
		{
			"bufferView":15,
			"componentType":5123,
			"count":864,
			"type":"SCALAR"
		},
		{
			"bufferView":16,
			"componentType":5126,
			"count":378,
			"max":[
				-3.260878086090088,
				0.5627808570861816,
				5.5811638832092285
			],
			"min":[
				-6.524806976318359,
				-0.4055638015270233,
				-1.8775110244750977
			],
			"type":"VEC3"
		},
		{
			"bufferView":17,
			"componentType":5126,
			"count":378,
			"type":"VEC3"
		},
		{
			"bufferView":18,
			"componentType":5126,
			"count":378,
			"type":"VEC2"
		},
		{
			"bufferView":19,
			"componentType":5123,
			"count":540,
			"type":"SCALAR"
		},
		{
			"bufferView":20,
			"componentType":5126,
			"count":780,
			"max":[
				-0.2532420754432678,
				0.3336419463157654,
				4.418456554412842
			],
			"min":[
				-6.52401876449585,
				-0.3374108374118805,
				-1.5326918363571167
			],
			"type":"VEC3"
		},
		{
			"bufferView":21,
			"componentType":5126,
			"count":780,
			"type":"VEC3"
		},
		{
			"bufferView":22,
			"componentType":5126,
			"count":780,
			"type":"VEC2"
		},
		{
			"bufferView":23,
			"componentType":5123,
			"count":1284,
			"type":"SCALAR"
		},
		{
			"bufferView":24,
			"componentType":5126,
			"count":355,
			"max":[
				-0.40592798590660095,
				0.3330695331096649,
				4.418456554412842
			],
			"min":[
				-6.484879493713379,
				-0.22275616228580475,
				-1.491613745689392
			],
			"type":"VEC3"
		},
		{
			"bufferView":25,
			"componentType":5126,
			"count":355,
			"type":"VEC3"
		},
		{
			"bufferView":26,
			"componentType":5126,
			"count":355,
			"type":"VEC2"
		},
		{
			"bufferView":27,
			"componentType":5123,
			"count":540,
			"type":"SCALAR"
		},
		{
			"bufferView":28,
			"componentType":5126,
			"count":43803,
			"max":[
				0.9567376971244812,
				0.5911234617233276,
				6.410519599914551
			],
			"min":[
				-8.397565841674805,
				-0.5527840852737427,
				-3.1984808444976807
			],
			"type":"VEC3"
		},
		{
			"bufferView":29,
			"componentType":5126,
			"count":43803,
			"type":"VEC3"
		},
		{
			"bufferView":30,
			"componentType":5126,
			"count":43803,
			"type":"VEC2"
		},
		{
			"bufferView":31,
			"componentType":5123,
			"count":57363,
			"type":"SCALAR"
		},
		{
			"bufferView":32,
			"componentType":5126,
			"count":146,
			"max":[
				-0.7597566246986389,
				0.12063024938106537,
				2.2368240356445312
			],
			"min":[
				-0.8934718370437622,
				-0.02839525043964386,
				2.104989528656006
			],
			"type":"VEC3"
		},
		{
			"bufferView":33,
			"componentType":5126,
			"count":146,
			"type":"VEC3"
		},
		{
			"bufferView":34,
			"componentType":5126,
			"count":146,
			"type":"VEC2"
		},
		{
			"bufferView":35,
			"componentType":5123,
			"count":270,
			"type":"SCALAR"
		},
		{
			"bufferView":36,
			"componentType":5126,
			"count":25,
			"max":[
				-0.5827914476394653,
				-0.1079121083021164,
				4.960818290710449
			],
			"min":[
				-0.858191967010498,
				-0.2527602016925812,
				4.71003532409668
			],
			"type":"VEC3"
		},
		{
			"bufferView":37,
			"componentType":5126,
			"count":25,
			"type":"VEC3"
		},
		{
			"bufferView":38,
			"componentType":5126,
			"count":25,
			"type":"VEC2"
		},
		{
			"bufferView":39,
			"componentType":5123,
			"count":39,
			"type":"SCALAR"
		},
		{
			"bufferView":40,
			"componentType":5126,
			"count":63,
			"max":[
				-3.1260552406311035,
				-0.32174205780029297,
				4.089215278625488
			],
			"min":[
				-3.217832565307617,
				-0.3605221211910248,
				3.9867002964019775
			],
			"type":"VEC3"
		},
		{
			"bufferView":41,
			"componentType":5126,
			"count":63,
			"type":"VEC3"
		},
		{
			"bufferView":42,
			"componentType":5126,
			"count":63,
			"type":"VEC2"
		},
		{
			"bufferView":43,
			"componentType":5123,
			"count":105,
			"type":"SCALAR"
		},
		{
			"bufferView":44,
			"componentType":5126,
			"count":6,
			"max":[
				-3.149073362350464,
				-0.3405429720878601,
				4.064096927642822
			],
			"min":[
				-3.194814443588257,
				-0.3422302305698395,
				4.013004302978516
			],
			"type":"VEC3"
		},
		{
			"bufferView":45,
			"componentType":5126,
			"count":6,
			"type":"VEC3"
		},
		{
			"bufferView":46,
			"componentType":5126,
			"count":6,
			"type":"VEC2"
		},
		{
			"bufferView":47,
			"componentType":5123,
			"count":12,
			"type":"SCALAR"
		},
		{
			"bufferView":48,
			"componentType":5126,
			"count":1018,
			"max":[
				0.006913080811500549,
				0.5393133163452148,
				4.5320234298706055
			],
			"min":[
				-7.883840560913086,
				-0.2978169322013855,
				-3.0990846157073975
			],
			"type":"VEC3"
		},
		{
			"bufferView":49,
			"componentType":5126,
			"count":1018,
			"type":"VEC3"
		},
		{
			"bufferView":50,
			"componentType":5126,
			"count":1018,
			"type":"VEC2"
		},
		{
			"bufferView":51,
			"componentType":5123,
			"count":1908,
			"type":"SCALAR"
		},
		{
			"bufferView":52,
			"componentType":5126,
			"count":137,
			"max":[
				-1.856989860534668,
				0.5020051598548889,
				1.1470441818237305
			],
			"min":[
				-3.1560378074645996,
				0.04205262288451195,
				-1.1045762300491333
			],
			"type":"VEC3"
		},
		{
			"bufferView":53,
			"componentType":5126,
			"count":137,
			"type":"VEC3"
		},
		{
			"bufferView":54,
			"componentType":5126,
			"count":137,
			"type":"VEC2"
		},
		{
			"bufferView":55,
			"componentType":5123,
			"count":225,
			"type":"SCALAR"
		},
		{
			"bufferView":56,
			"componentType":5126,
			"count":80,
			"max":[
				-3.862363576889038,
				0.15833845734596252,
				1.7528635263442993
			],
			"min":[
				-6.542216777801514,
				-0.0944126769900322,
				0.7902390956878662
			],
			"type":"VEC3"
		},
		{
			"bufferView":57,
			"componentType":5126,
			"count":80,
			"type":"VEC3"
		},
		{
			"bufferView":58,
			"componentType":5126,
			"count":80,
			"type":"VEC2"
		},
		{
			"bufferView":59,
			"componentType":5123,
			"count":114,
			"type":"SCALAR"
		},
		{
			"bufferView":60,
			"componentType":5126,
			"count":122,
			"max":[
				-5.84652853012085,
				0.1402086317539215,
				2.0011653900146484
			],
			"min":[
				-6.616105079650879,
				-0.07802543044090271,
				1.38454008102417
			],
			"type":"VEC3"
		},
		{
			"bufferView":61,
			"componentType":5126,
			"count":122,
			"type":"VEC3"
		},
		{
			"bufferView":62,
			"componentType":5126,
			"count":122,
			"type":"VEC2"
		},
		{
			"bufferView":63,
			"componentType":5123,
			"count":192,
			"type":"SCALAR"
		},
		{
			"bufferView":64,
			"componentType":5126,
			"count":400,
			"max":[
				-2.06194806098938,
				0.5854392051696777,
				1.9506967067718506
			],
			"min":[
				-6.801628112792969,
				-0.06516581773757935,
				-2.521862506866455
			],
			"type":"VEC3"
		},
		{
			"bufferView":65,
			"componentType":5126,
			"count":400,
			"type":"VEC3"
		},
		{
			"bufferView":66,
			"componentType":5126,
			"count":400,
			"type":"VEC2"
		},
		{
			"bufferView":67,
			"componentType":5123,
			"count":648,
			"type":"SCALAR"
		}
	],
	"bufferViews":[
		{
			"buffer":0,
			"byteLength":1752,
			"byteOffset":0,
			"target":34962
		},
		{
			"buffer":0,
			"byteLength":1752,
			"byteOffset":1752,
			"target":34962
		},
		{
			"buffer":0,
			"byteLength":1168,
			"byteOffset":3504,
			"target":34962
		},
		{
			"buffer":0,
			"byteLength":480,
			"byteOffset":4672,
			"target":34963
		},
		{
			"buffer":0,
			"byteLength":20400,
			"byteOffset":5152,
			"target":34962
		},
		{
			"buffer":0,
			"byteLength":20400,
			"byteOffset":25552,
			"target":34962
		},
		{
			"buffer":0,
			"byteLength":13600,
			"byteOffset":45952,
			"target":34962
		},
		{
			"buffer":0,
			"byteLength":4980,
			"byteOffset":59552,
			"target":34963
		},
		{
			"buffer":0,
			"byteLength":72528,
			"byteOffset":64532,
			"target":34962
		},
		{
			"buffer":0,
			"byteLength":72528,
			"byteOffset":137060,
			"target":34962
		},
		{
			"buffer":0,
			"byteLength":48352,
			"byteOffset":209588,
			"target":34962
		},
		{
			"buffer":0,
			"byteLength":20988,
			"byteOffset":257940,
			"target":34963
		},
		{
			"buffer":0,
			"byteLength":9552,
			"byteOffset":278928,
			"target":34962
		},
		{
			"buffer":0,
			"byteLength":9552,
			"byteOffset":288480,
			"target":34962
		},
		{
			"buffer":0,
			"byteLength":6368,
			"byteOffset":298032,
			"target":34962
		},
		{
			"buffer":0,
			"byteLength":1728,
			"byteOffset":304400,
			"target":34963
		},
		{
			"buffer":0,
			"byteLength":4536,
			"byteOffset":306128,
			"target":34962
		},
		{
			"buffer":0,
			"byteLength":4536,
			"byteOffset":310664,
			"target":34962
		},
		{
			"buffer":0,
			"byteLength":3024,
			"byteOffset":315200,
			"target":34962
		},
		{
			"buffer":0,
			"byteLength":1080,
			"byteOffset":318224,
			"target":34963
		},
		{
			"buffer":0,
			"byteLength":9360,
			"byteOffset":319304,
			"target":34962
		},
		{
			"buffer":0,
			"byteLength":9360,
			"byteOffset":328664,
			"target":34962
		},
		{
			"buffer":0,
			"byteLength":6240,
			"byteOffset":338024,
			"target":34962
		},
		{
			"buffer":0,
			"byteLength":2568,
			"byteOffset":344264,
			"target":34963
		},
		{
			"buffer":0,
			"byteLength":4260,
			"byteOffset":346832,
			"target":34962
		},
		{
			"buffer":0,
			"byteLength":4260,
			"byteOffset":351092,
			"target":34962
		},
		{
			"buffer":0,
			"byteLength":2840,
			"byteOffset":355352,
			"target":34962
		},
		{
			"buffer":0,
			"byteLength":1080,
			"byteOffset":358192,
			"target":34963
		},
		{
			"buffer":0,
			"byteLength":525636,
			"byteOffset":359272,
			"target":34962
		},
		{
			"buffer":0,
			"byteLength":525636,
			"byteOffset":884908,
			"target":34962
		},
		{
			"buffer":0,
			"byteLength":350424,
			"byteOffset":1410544,
			"target":34962
		},
		{
			"buffer":0,
			"byteLength":114726,
			"byteOffset":1760968,
			"target":34963
		},
		{
			"buffer":0,
			"byteLength":1752,
			"byteOffset":1875696,
			"target":34962
		},
		{
			"buffer":0,
			"byteLength":1752,
			"byteOffset":1877448,
			"target":34962
		},
		{
			"buffer":0,
			"byteLength":1168,
			"byteOffset":1879200,
			"target":34962
		},
		{
			"buffer":0,
			"byteLength":540,
			"byteOffset":1880368,
			"target":34963
		},
		{
			"buffer":0,
			"byteLength":300,
			"byteOffset":1880908,
			"target":34962
		},
		{
			"buffer":0,
			"byteLength":300,
			"byteOffset":1881208,
			"target":34962
		},
		{
			"buffer":0,
			"byteLength":200,
			"byteOffset":1881508,
			"target":34962
		},
		{
			"buffer":0,
			"byteLength":78,
			"byteOffset":1881708,
			"target":34963
		},
		{
			"buffer":0,
			"byteLength":756,
			"byteOffset":1881788,
			"target":34962
		},
		{
			"buffer":0,
			"byteLength":756,
			"byteOffset":1882544,
			"target":34962
		},
		{
			"buffer":0,
			"byteLength":504,
			"byteOffset":1883300,
			"target":34962
		},
		{
			"buffer":0,
			"byteLength":210,
			"byteOffset":1883804,
			"target":34963
		},
		{
			"buffer":0,
			"byteLength":72,
			"byteOffset":1884016,
			"target":34962
		},
		{
			"buffer":0,
			"byteLength":72,
			"byteOffset":1884088,
			"target":34962
		},
		{
			"buffer":0,
			"byteLength":48,
			"byteOffset":1884160,
			"target":34962
		},
		{
			"buffer":0,
			"byteLength":24,
			"byteOffset":1884208,
			"target":34963
		},
		{
			"buffer":0,
			"byteLength":12216,
			"byteOffset":1884232,
			"target":34962
		},
		{
			"buffer":0,
			"byteLength":12216,
			"byteOffset":1896448,
			"target":34962
		},
		{
			"buffer":0,
			"byteLength":8144,
			"byteOffset":1908664,
			"target":34962
		},
		{
			"buffer":0,
			"byteLength":3816,
			"byteOffset":1916808,
			"target":34963
		},
		{
			"buffer":0,
			"byteLength":1644,
			"byteOffset":1920624,
			"target":34962
		},
		{
			"buffer":0,
			"byteLength":1644,
			"byteOffset":1922268,
			"target":34962
		},
		{
			"buffer":0,
			"byteLength":1096,
			"byteOffset":1923912,
			"target":34962
		},
		{
			"buffer":0,
			"byteLength":450,
			"byteOffset":1925008,
			"target":34963
		},
		{
			"buffer":0,
			"byteLength":960,
			"byteOffset":1925460,
			"target":34962
		},
		{
			"buffer":0,
			"byteLength":960,
			"byteOffset":1926420,
			"target":34962
		},
		{
			"buffer":0,
			"byteLength":640,
			"byteOffset":1927380,
			"target":34962
		},
		{
			"buffer":0,
			"byteLength":228,
			"byteOffset":1928020,
			"target":34963
		},
		{
			"buffer":0,
			"byteLength":1464,
			"byteOffset":1928248,
			"target":34962
		},
		{
			"buffer":0,
			"byteLength":1464,
			"byteOffset":1929712,
			"target":34962
		},
		{
			"buffer":0,
			"byteLength":976,
			"byteOffset":1931176,
			"target":34962
		},
		{
			"buffer":0,
			"byteLength":384,
			"byteOffset":1932152,
			"target":34963
		},
		{
			"buffer":0,
			"byteLength":4800,
			"byteOffset":1932536,
			"target":34962
		},
		{
			"buffer":0,
			"byteLength":4800,
			"byteOffset":1937336,
			"target":34962
		},
		{
			"buffer":0,
			"byteLength":3200,
			"byteOffset":1942136,
			"target":34962
		},
		{
			"buffer":0,
			"byteLength":1296,
			"byteOffset":1945336,
			"target":34963
		}
	],
	"buffers":[
		{
			"byteLength":1946632,
			"uri":"cell_x-2_z-2_render.bin"
		}
	]
}
