{
	"asset":{
		"generator":"Khronos glTF Blender I/O v4.5.51",
		"version":"2.0"
	},
	"scene":0,
	"scenes":[
		{
			"name":"Scene",
			"nodes":[
				0
			]
		}
	],
	"nodes":[
		{
			"mesh":0,
			"name":"cell_x1_z-1",
			"rotation":[
				0.0031069512479007244,
				-0.9419218897819519,
				0.008717501536011696,
				0.3357045650482178
			],
			"scale":[
				3.8136868476867676,
				3.8136866092681885,
				3.8136866092681885
			],
			"translation":[
				52.28010177612305,
				0.07964642345905304,
				-20.046916961669922
			]
		}
	],
	"materials":[
		{
			"name":"stone_v0",
			"pbrMetallicRoughness":{
				"baseColorFactor":[
					0.32314321398735046,
					0.35153260827064514,
					0.3613067865371704,
					1
				],
				"metallicFactor":0,
				"roughnessFactor":0.9200000166893005
			}
		},
		{
			"name":"stone_v2",
			"pbrMetallicRoughness":{
				"baseColorFactor":[
					0.38132601976394653,
					0.38132601976394653,
					0.3324515223503113,
					1
				],
				"metallicFactor":0,
				"roughnessFactor":0.9200000166893005
			}
		},
		{
			"name":"grass",
			"pbrMetallicRoughness":{
				"baseColorFactor":[
					0.15592646598815918,
					0.2961382567882538,
					0.0802198201417923,
					1
				],
				"metallicFactor":0,
				"roughnessFactor":0.9200000166893005
			}
		},
		{
			"name":"dirt_v2",
			"pbrMetallicRoughness":{
				"baseColorFactor":[
					0.38132601976394653,
					0.30054378509521484,
					0.1946178376674652,
					1
				],
				"metallicFactor":0,
				"roughnessFactor":0.9200000166893005
			}
		},
		{
			"name":"_defaultMat",
			"pbrMetallicRoughness":{
				"baseColorFactor":[
					0.4564110338687897,
					0.4564110338687897,
					0.4125426113605499,
					1
				],
				"metallicFactor":0,
				"roughnessFactor":0.9200000166893005
			}
		},
		{
			"name":"stone_v3",
			"pbrMetallicRoughness":{
				"baseColorFactor":[
					0.20863686501979828,
					0.2462013214826584,
					0.2622506618499756,
					1
				],
				"metallicFactor":0,
				"roughnessFactor":0.9200000166893005
			}
		},
		{
			"name":"stone_v1",
			"pbrMetallicRoughness":{
				"baseColorFactor":[
					0.2541520893573761,
					0.28744083642959595,
					0.3049873113632202,
					1
				],
				"metallicFactor":0,
				"roughnessFactor":0.9200000166893005
			}
		},
		{
			"name":"woodBarkDark",
			"pbrMetallicRoughness":{
				"baseColorFactor":[
					0.11443537473678589,
					0.04666508734226227,
					0.016807375475764275,
					1
				],
				"metallicFactor":0,
				"roughnessFactor":0.9200000166893005
			}
		},
		{
			"name":"leafsDark",
			"pbrMetallicRoughness":{
				"baseColorFactor":[
					0.04817182570695877,
					0.11443537473678589,
					0.03310476616024971,
					1
				],
				"metallicFactor":0,
				"roughnessFactor":0.9200000166893005
			}
		},
		{
			"name":"leafsGreen",
			"pbrMetallicRoughness":{
				"baseColorFactor":[
					0.11443537473678589,
					0.23074005544185638,
					0.06301001459360123,
					1
				],
				"metallicFactor":0,
				"roughnessFactor":0.9200000166893005
			}
		},
		{
			"name":"woodBark",
			"pbrMetallicRoughness":{
				"baseColorFactor":[
					0.2015562504529953,
					0.08437620848417282,
					0.02955683507025242,
					1
				],
				"metallicFactor":0,
				"roughnessFactor":0.9200000166893005
			}
		},
		{
			"name":"leafsFall",
			"pbrMetallicRoughness":{
				"baseColorFactor":[
					0.4564110338687897,
					0.18782077729701996,
					0.045186202973127365,
					1
				],
				"metallicFactor":0,
				"roughnessFactor":0.9200000166893005
			}
		},
		{
			"name":"woodBirch",
			"pbrMetallicRoughness":{
				"baseColorFactor":[
					0.7304607629776001,
					0.6583748459815979,
					0.5028864741325378,
					1
				],
				"metallicFactor":0,
				"roughnessFactor":0.9200000166893005
			}
		},
		{
			"name":"colorPurple",
			"pbrMetallicRoughness":{
				"baseColorFactor":[
					0.19806931912899017,
					0.15592646598815918,
					0.3324515223503113,
					1
				],
				"metallicFactor":0,
				"roughnessFactor":0.9200000166893005
			}
		},
		{
			"name":"colorWhite",
			"pbrMetallicRoughness":{
				"baseColorFactor":[
					0.68668532371521,
					0.6583748459815979,
					0.577580451965332,
					1
				],
				"metallicFactor":0,
				"roughnessFactor":0.9200000166893005
			}
		},
		{
			"name":"dirt_v3",
			"pbrMetallicRoughness":{
				"baseColorFactor":[
					0.20863686501979828,
					0.15896083414554596,
					0.09084171056747437,
					1
				],
				"metallicFactor":0,
				"roughnessFactor":0.9200000166893005
			}
		},
		{
			"name":"colorRed",
			"pbrMetallicRoughness":{
				"baseColorFactor":[
					0.34191441535949707,
					0.08437620848417282,
					0.05951123684644699,
					1
				],
				"metallicFactor":0,
				"roughnessFactor":0.9200000166893005
			}
		},
		{
			"name":"hexagons_medieval",
			"pbrMetallicRoughness":{
				"baseColorTexture":{
					"index":0
				},
				"metallicFactor":0,
				"roughnessFactor":0.5
			}
		},
		{
			"name":"wood",
			"pbrMetallicRoughness":{
				"baseColorFactor":[
					0.32314321398735046,
					0.1384316086769104,
					0.039546236395835876,
					1
				],
				"metallicFactor":0,
				"roughnessFactor":0.9200000166893005
			}
		},
		{
			"name":"woodDark",
			"pbrMetallicRoughness":{
				"baseColorFactor":[
					0.07618538290262222,
					0.03310476616024971,
					0.014443843625485897,
					1
				],
				"metallicFactor":0,
				"roughnessFactor":0.9200000166893005
			}
		},
		{
			"name":"stoneDark_v0",
			"pbrMetallicRoughness":{
				"baseColorFactor":[
					0.15592646598815918,
					0.17464740574359894,
					0.18782077729701996,
					1
				],
				"metallicFactor":0,
				"roughnessFactor":0.9200000166893005
			}
		},
		{
			"name":"stoneDark_v1",
			"pbrMetallicRoughness":{
				"baseColorFactor":[
					0.12477181851863861,
					0.14126329123973846,
					0.15292614698410034,
					1
				],
				"metallicFactor":0,
				"roughnessFactor":0.9200000166893005
			}
		},
		{
			"doubleSided":true,
			"name":"Color",
			"pbrMetallicRoughness":{
				"baseColorTexture":{
					"index":1
				},
				"metallicFactor":0,
				"roughnessFactor":0.75
			}
		},
		{
			"name":"colorRedDark",
			"pbrMetallicRoughness":{
				"baseColorFactor":[
					0.1946178376674652,
					0.04666508734226227,
					0.03433980792760849,
					1
				],
				"metallicFactor":0,
				"roughnessFactor":0.9200000166893005
			}
		},
		{
			"name":"woodInner",
			"pbrMetallicRoughness":{
				"baseColorFactor":[
					0.577580451965332,
					0.423267662525177,
					0.23839756846427917,
					1
				],
				"metallicFactor":0,
				"roughnessFactor":0.9200000166893005
			}
		}
	],
	"meshes":[
		{
			"name":"Mesh stone_largeA.066",
			"primitives":[
				{
					"attributes":{
						"POSITION":0,
						"NORMAL":1,
						"TEXCOORD_0":2
					},
					"indices":3,
					"material":0
				},
				{
					"attributes":{
						"POSITION":4,
						"NORMAL":5,
						"TEXCOORD_0":6
					},
					"indices":7,
					"material":1
				},
				{
					"attributes":{
						"POSITION":8,
						"NORMAL":9,
						"TEXCOORD_0":10
					},
					"indices":11,
					"material":2
				},
				{
					"attributes":{
						"POSITION":12,
						"NORMAL":13,
						"TEXCOORD_0":14
					},
					"indices":15,
					"material":3
				},
				{
					"attributes":{
						"POSITION":16,
						"NORMAL":17,
						"TEXCOORD_0":18
					},
					"indices":19,
					"material":4
				},
				{
					"attributes":{
						"POSITION":20,
						"NORMAL":21,
						"TEXCOORD_0":22
					},
					"indices":23,
					"material":5
				},
				{
					"attributes":{
						"POSITION":24,
						"NORMAL":25,
						"TEXCOORD_0":26
					},
					"indices":27,
					"material":6
				},
				{
					"attributes":{
						"POSITION":28,
						"NORMAL":29,
						"TEXCOORD_0":30
					},
					"indices":31,
					"material":7
				},
				{
					"attributes":{
						"POSITION":32,
						"NORMAL":33,
						"TEXCOORD_0":34
					},
					"indices":35,
					"material":8
				},
				{
					"attributes":{
						"POSITION":36,
						"NORMAL":37,
						"TEXCOORD_0":38
					},
					"indices":39,
					"material":9
				},
				{
					"attributes":{
						"POSITION":40,
						"NORMAL":41,
						"TEXCOORD_0":42
					},
					"indices":43,
					"material":10
				},
				{
					"attributes":{
						"POSITION":44,
						"NORMAL":45,
						"TEXCOORD_0":46
					},
					"indices":47,
					"material":11
				},
				{
					"attributes":{
						"POSITION":48,
						"NORMAL":49,
						"TEXCOORD_0":50
					},
					"indices":51,
					"material":12
				},
				{
					"attributes":{
						"POSITION":52,
						"NORMAL":53,
						"TEXCOORD_0":54
					},
					"indices":55,
					"material":13
				},
				{
					"attributes":{
						"POSITION":56,
						"NORMAL":57,
						"TEXCOORD_0":58
					},
					"indices":59,
					"material":14
				},
				{
					"attributes":{
						"POSITION":60,
						"NORMAL":61,
						"TEXCOORD_0":62
					},
					"indices":63,
					"material":15
				},
				{
					"attributes":{
						"POSITION":64,
						"NORMAL":65,
						"TEXCOORD_0":66
					},
					"indices":67,
					"material":16
				},
				{
					"attributes":{
						"POSITION":68,
						"NORMAL":69,
						"TEXCOORD_0":70
					},
					"indices":71,
					"material":17
				},
				{
					"attributes":{
						"POSITION":72,
						"NORMAL":73,
						"TEXCOORD_0":74
					},
					"indices":75,
					"material":18
				},
				{
					"attributes":{
						"POSITION":76,
						"NORMAL":77,
						"TEXCOORD_0":78
					},
					"indices":79,
					"material":19
				},
				{
					"attributes":{
						"POSITION":80,
						"NORMAL":81,
						"TEXCOORD_0":82
					},
					"indices":83,
					"material":20
				},
				{
					"attributes":{
						"POSITION":84,
						"NORMAL":85,
						"TEXCOORD_0":86
					},
					"indices":87,
					"material":21
				},
				{
					"attributes":{
						"POSITION":88,
						"NORMAL":89,
						"TEXCOORD_0":90
					},
					"indices":91,
					"material":22
				},
				{
					"attributes":{
						"POSITION":92,
						"NORMAL":93,
						"TEXCOORD_0":94
					},
					"indices":95,
					"material":23
				},
				{
					"attributes":{
						"POSITION":96,
						"NORMAL":97,
						"TEXCOORD_0":98
					},
					"indices":99,
					"material":24
				}
			]
		}
	],
	"textures":[
		{
			"sampler":0,
			"source":0
		},
		{
			"sampler":0,
			"source":1
		}
	],
	"images":[
		{
			"mimeType":"image/png",
			"name":"hexagons_medieval",
			"uri":"textures/hexagons_medieval.png"
		},
		{
			"mimeType":"image/png",
			"name":"Textures_4",
			"uri":"textures/Textures_4.png"
		}
	],
	"accessors":[
		{
			"bufferView":0,
			"componentType":5126,
			"count":905,
			"max":[
				4.681888103485107,
				1.7537775039672852,
				4.651490688323975
			],
			"min":[
				-2.3044376373291016,
				-0.07980495691299438,
				-4.535394668579102
			],
			"type":"VEC3"
		},
		{
			"bufferView":1,
			"componentType":5126,
			"count":905,
			"type":"VEC3"
		},
		{
			"bufferView":2,
			"componentType":5126,
			"count":905,
			"type":"VEC2"
		},
		{
			"bufferView":3,
			"componentType":5123,
			"count":1530,
			"type":"SCALAR"
		},
		{
			"bufferView":4,
			"componentType":5126,
			"count":316,
			"max":[
				3.136345624923706,
				1.2102551460266113,
				3.2474875450134277
			],
			"min":[
				-4.228916168212891,
				-0.5782923698425293,
				-0.2516768276691437
			],
			"type":"VEC3"
		},
		{
			"bufferView":5,
			"componentType":5126,
			"count":316,
			"type":"VEC3"
		},
		{
			"bufferView":6,
			"componentType":5126,
			"count":316,
			"type":"VEC2"
		},
		{
			"bufferView":7,
			"componentType":5123,
			"count":522,
			"type":"SCALAR"
		},
		{
			"bufferView":8,
			"componentType":5126,
			"count":39645,
			"max":[
				4.60933780670166,
				1.4464737176895142,
				5.597256660461426
			],
			"min":[
				-8.385546684265137,
				-0.6934756636619568,
				-7.361662864685059
			],
			"type":"VEC3"
		},
		{
			"bufferView":9,
			"componentType":5126,
			"count":39645,
			"type":"VEC3"
		},
		{
			"bufferView":10,
			"componentType":5126,
			"count":39645,
			"type":"VEC2"
		},
		{
			"bufferView":11,
			"componentType":5123,
			"count":53064,
			"type":"SCALAR"
		},
		{
			"bufferView":12,
			"componentType":5126,
			"count":80,
			"max":[
				-1.3655316829681396,
				-0.14165717363357544,
				2.0228958129882812
			],
			"min":[
				-6.7600417137146,
				-0.5944793224334717,
				-0.46917444467544556
			],
			"type":"VEC3"
		},
		{
			"bufferView":13,
			"componentType":5126,
			"count":80,
			"type":"VEC3"
		},
		{
			"bufferView":14,
			"componentType":5126,
			"count":80,
			"type":"VEC2"
		},
		{
			"bufferView":15,
			"componentType":5123,
			"count":120,
			"type":"SCALAR"
		},
		{
			"bufferView":16,
			"componentType":5126,
			"count":432,
			"max":[
				5.29170036315918,
				0.9966256618499756,
				0.5845760107040405
			],
			"min":[
				-6.7600417137146,
				-0.5944793224334717,
				-3.2709364891052246
			],
			"type":"VEC3"
		},
		{
			"bufferView":17,
			"componentType":5126,
			"count":432,
			"type":"VEC3"
		},
		{
			"bufferView":18,
			"componentType":5126,
			"count":432,
			"type":"VEC2"
		},
		{
			"bufferView":19,
			"componentType":5123,
			"count":456,
			"type":"SCALAR"
		},
		{
			"bufferView":20,
			"componentType":5126,
			"count":403,
			"max":[
				1.6343039274215698,
				1.193881869316101,
				4.53804874420166
			],
			"min":[
				-2.3197240829467773,
				-0.09536588937044144,
				-3.2709364891052246
			],
			"type":"VEC3"
		},
		{
			"bufferView":21,
			"componentType":5126,
			"count":403,
			"type":"VEC3"
		},
		{
			"bufferView":22,
			"componentType":5126,
			"count":403,
			"type":"VEC2"
		},
		{
			"bufferView":23,
			"componentType":5123,
			"count":696,
			"type":"SCALAR"
		},
		{
			"bufferView":24,
			"componentType":5126,
			"count":430,
			"max":[
				4.285212516784668,
				1.9507699012756348,
				3.564246892929077
			],
			"min":[
				-4.0351667404174805,
				-0.5240959525108337,
				-1.7021957635879517
			],
			"type":"VEC3"
		},
		{
			"bufferView":25,
			"componentType":5126,
			"count":430,
			"type":"VEC3"
		},
		{
			"bufferView":26,
			"componentType":5126,
			"count":430,
			"type":"VEC2"
		},
		{
			"bufferView":27,
			"componentType":5123,
			"count":690,
			"type":"SCALAR"
		},
		{
			"bufferView":28,
			"componentType":5126,
			"count":484,
			"max":[
				-4.419799327850342,
				0.6234127283096313,
				0.8665857315063477
			],
			"min":[
				-8.502799987792969,
				-0.5563341379165649,
				-0.7809267640113831
			],
			"type":"VEC3"
		},
		{
			"bufferView":29,
			"componentType":5126,
			"count":484,
			"type":"VEC3"
		},
		{
			"bufferView":30,
			"componentType":5126,
			"count":484,
			"type":"VEC2"
		},
		{
			"bufferView":31,
			"componentType":5123,
			"count":708,
			"type":"SCALAR"
		},
		{
			"bufferView":32,
			"componentType":5126,
			"count":1178,
			"max":[
				-4.290351390838623,
				1.5864665508270264,
				1.038909912109375
			],
			"min":[
				-8.73397159576416,
				0.04918164014816284,
				-1.0190978050231934
			],
			"type":"VEC3"
		},
		{
			"bufferView":33,
			"componentType":5126,
			"count":1178,
			"type":"VEC3"
		},
		{
			"bufferView":34,
			"componentType":5126,
			"count":1178,
			"type":"VEC2"
		},
		{
			"bufferView":35,
			"componentType":5123,
			"count":1920,
			"type":"SCALAR"
		},
		{
			"bufferView":36,
			"componentType":5126,
			"count":1247,
			"max":[
				1.5508692264556885,
				1.2342530488967896,
				4.04503059387207
			],
			"min":[
				-7.796447277069092,
				-0.5584697723388672,
				-7.629847526550293
			],
			"type":"VEC3"
		},
		{
			"bufferView":37,
			"componentType":5126,
			"count":1247,
			"type":"VEC3"
		},
		{
			"bufferView":38,
			"componentType":5126,
			"count":1247,
			"type":"VEC2"
		},
		{
			"bufferView":39,
			"componentType":5123,
			"count":2352,
			"type":"SCALAR"
		},
		{
			"bufferView":40,
			"componentType":5126,
			"count":618,
			"max":[
				5.412441253662109,
				0.9697968363761902,
				1.1585133075714111
			],
			"min":[
				-6.544476509094238,
				-0.4418312907218933,
				-2.8968076705932617
			],
			"type":"VEC3"
		},
		{
			"bufferView":41,
			"componentType":5126,
			"count":618,
			"type":"VEC3"
		},
		{
			"bufferView":42,
			"componentType":5126,
			"count":618,
			"type":"VEC2"
		},
		{
			"bufferView":43,
			"componentType":5123,
			"count":1212,
			"type":"SCALAR"
		},
		{
			"bufferView":44,
			"componentType":5126,
			"count":690,
			"max":[
				-3.4881255626678467,
				1.3811193704605103,
				-0.06776678562164307
			],
			"min":[
				-5.673694610595703,
				0.21561670303344727,
				-1.3466659784317017
			],
			"type":"VEC3"
		},
		{
			"bufferView":45,
			"componentType":5126,
			"count":690,
			"type":"VEC3"
		},
		{
			"bufferView":46,
			"componentType":5126,
			"count":690,
			"type":"VEC2"
		},
		{
			"bufferView":47,
			"componentType":5123,
			"count":1032,
			"type":"SCALAR"
		},
		{
			"bufferView":48,
			"componentType":5126,
			"count":476,
			"max":[
				-3.7086400985717773,
				0.746795654296875,
				-0.18926772475242615
			],
			"min":[
				-5.546951770782471,
				-0.3349781632423401,
				-1.0622856616973877
			],
			"type":"VEC3"
		},
		{
			"bufferView":49,
			"componentType":5126,
			"count":476,
			"type":"VEC3"
		},
		{
			"bufferView":50,
			"componentType":5126,
			"count":476,
			"type":"VEC2"
		},
		{
			"bufferView":51,
			"componentType":5123,
			"count":756,
			"type":"SCALAR"
		},
		{
			"bufferView":52,
			"componentType":5126,
			"count":61,
			"max":[
				-2.6243739128112793,
				-0.20596078038215637,
				1.1696053743362427
			],
			"min":[
				-2.7654733657836914,
				-0.257523775100708,
				1.0408916473388672
			],
			"type":"VEC3"
		},
		{
			"bufferView":53,
			"componentType":5126,
			"count":61,
			"type":"VEC3"
		},
		{
			"bufferView":54,
			"componentType":5126,
			"count":61,
			"type":"VEC2"
		},
		{
			"bufferView":55,
			"componentType":5123,
			"count":105,
			"type":"SCALAR"
		},
		{
			"bufferView":56,
			"componentType":5126,
			"count":6,
			"max":[
				-2.659762382507324,
				-0.23132763803005219,
				1.1377818584442139
			],
			"min":[
				-2.7300848960876465,
				-0.2325151562690735,
				1.0736321210861206
			],
			"type":"VEC3"
		},
		{
			"bufferView":57,
			"componentType":5126,
			"count":6,
			"type":"VEC3"
		},
		{
			"bufferView":58,
			"componentType":5126,
			"count":6,
			"type":"VEC2"
		},
		{
			"bufferView":59,
			"componentType":5123,
			"count":12,
			"type":"SCALAR"
		},
		{
			"bufferView":60,
			"componentType":5126,
			"count":48,
			"max":[
				-1.1067569255828857,
				-0.011995792388916016,
				1.9993199110031128
			],
			"min":[
				-1.5595180988311768,
				-0.26622211933135986,
				1.5744038820266724
			],
			"type":"VEC3"
		},
		{
			"bufferView":61,
			"componentType":5126,
			"count":48,
			"type":"VEC3"
		},
		{
			"bufferView":62,
			"componentType":5126,
			"count":48,
			"type":"VEC2"
		},
		{
			"bufferView":63,
			"componentType":5123,
			"count":75,
			"type":"SCALAR"
		},
		{
			"bufferView":64,
			"componentType":5126,
			"count":864,
			"max":[
				5.435271263122559,
				1.5398259162902832,
				0.6880101561546326
			],
			"min":[
				-5.3376898765563965,
				-0.33995872735977173,
				-4.429926872253418
			],
			"type":"VEC3"
		},
		{
			"bufferView":65,
			"componentType":5126,
			"count":864,
			"type":"VEC3"
		},
		{
			"bufferView":66,
			"componentType":5126,
			"count":864,
			"type":"VEC2"
		},
		{
			"bufferView":67,
			"componentType":5123,
			"count":1659,
			"type":"SCALAR"
		},
		{
			"bufferView":68,
			"componentType":5126,
			"count":10406,
			"max":[
				2.045241594314575,
				1.890584945678711,
				-2.023956537246704
			],
			"min":[
				-7.040515899658203,
				-0.35359302163124084,
				-7.862128257751465
			],
			"type":"VEC3"
		},
		{
			"bufferView":69,
			"componentType":5126,
			"count":10406,
			"type":"VEC3"
		},
		{
			"bufferView":70,
			"componentType":5126,
			"count":10406,
			"type":"VEC2"
		},
		{
			"bufferView":71,
			"componentType":5123,
			"count":17691,
			"type":"SCALAR"
		},
		{
			"bufferView":72,
			"componentType":5126,
			"count":1518,
			"max":[
				5.29170036315918,
				1.585069179534912,
				0.7165088653564453
			],
			"min":[
				-4.977239608764648,
				-0.2652641236782074,
				-6.253880500793457
			],
			"type":"VEC3"
		},
		{
			"bufferView":73,
			"componentType":5126,
			"count":1518,
			"type":"VEC3"
		},
		{
			"bufferView":74,
			"componentType":5126,
			"count":1518,
			"type":"VEC2"
		},
		{
			"bufferView":75,
			"componentType":5123,
			"count":2718,
			"type":"SCALAR"
		},
		{
			"bufferView":76,
			"componentType":5126,
			"count":185,
			"max":[
				1.2861225605010986,
				0.08486148715019226,
				-2.4559953212738037
			],
			"min":[
				-4.8961896896362305,
				-0.17062559723854065,
				-4.856202125549316
			],
			"type":"VEC3"
		},
		{
			"bufferView":77,
			"componentType":5126,
			"count":185,
			"type":"VEC3"
		},
		{
			"bufferView":78,
			"componentType":5126,
			"count":185,
			"type":"VEC2"
		},
		{
			"bufferView":79,
			"componentType":5123,
			"count":318,
			"type":"SCALAR"
		},
		{
			"bufferView":80,
			"componentType":5126,
			"count":106,
			"max":[
				3.609426975250244,
				1.0852031707763672,
				2.870840311050415
			],
			"min":[
				-0.7054139375686646,
				0.5200333595275879,
				0.39335623383522034
			],
			"type":"VEC3"
		},
		{
			"bufferView":81,
			"componentType":5126,
			"count":106,
			"type":"VEC3"
		},
		{
			"bufferView":82,
			"componentType":5126,
			"count":106,
			"type":"VEC2"
		},
		{
			"bufferView":83,
			"componentType":5123,
			"count":156,
			"type":"SCALAR"
		},
		{
			"bufferView":84,
			"componentType":5126,
			"count":24,
			"max":[
				4.244767189025879,
				1.2734689712524414,
				-0.11876317858695984
			],
			"min":[
				3.7863874435424805,
				0.717811644077301,
				-0.5770642757415771
			],
			"type":"VEC3"
		},
		{
			"bufferView":85,
			"componentType":5126,
			"count":24,
			"type":"VEC3"
		},
		{
			"bufferView":86,
			"componentType":5126,
			"count":24,
			"type":"VEC2"
		},
		{
			"bufferView":87,
			"componentType":5123,
			"count":48,
			"type":"SCALAR"
		},
		{
			"bufferView":88,
			"componentType":5126,
			"count":1267,
			"max":[
				0.3152177929878235,
				0.7653624415397644,
				0.07802248001098633
			],
			"min":[
				-0.20213809609413147,
				-0.0009717345237731934,
				-0.4407067894935608
			],
			"type":"VEC3"
		},
		{
			"bufferView":89,
			"componentType":5126,
			"count":1267,
			"type":"VEC3"
		},
		{
			"bufferView":90,
			"componentType":5126,
			"count":1267,
			"type":"VEC2"
		},
		{
			"bufferView":91,
			"componentType":5123,
			"count":5100,
			"type":"SCALAR"
		},
		{
			"bufferView":92,
			"componentType":5126,
			"count":37,
			"max":[
				5.31468391418457,
				1.5345335006713867,
				0.038321465253829956
			],
			"min":[
				1.1491340398788452,
				-0.22434823215007782,
				-3.786860466003418
			],
			"type":"VEC3"
		},
		{
			"bufferView":93,
			"componentType":5126,
			"count":37,
			"type":"VEC3"
		},
		{
			"bufferView":94,
			"componentType":5126,
			"count":37,
			"type":"VEC2"
		},
		{
			"bufferView":95,
			"componentType":5123,
			"count":57,
			"type":"SCALAR"
		},
		{
			"bufferView":96,
			"componentType":5126,
			"count":74,
			"max":[
				5.397171974182129,
				0.938612699508667,
				-0.94195955991745
			],
			"min":[
				-0.6569750905036926,
				-0.178203284740448,
				-2.864138603210449
			],
			"type":"VEC3"
		},
		{
			"bufferView":97,
			"componentType":5126,
			"count":74,
			"type":"VEC3"
		},
		{
			"bufferView":98,
			"componentType":5126,
			"count":74,
			"type":"VEC2"
		},
		{
			"bufferView":99,
			"componentType":5123,
			"count":144,
			"type":"SCALAR"
		}
	],
	"bufferViews":[
		{
			"buffer":0,
			"byteLength":10860,
			"byteOffset":0,
			"target":34962
		},
		{
			"buffer":0,
			"byteLength":10860,
			"byteOffset":10860,
			"target":34962
		},
		{
			"buffer":0,
			"byteLength":7240,
			"byteOffset":21720,
			"target":34962
		},
		{
			"buffer":0,
			"byteLength":3060,
			"byteOffset":28960,
			"target":34963
		},
		{
			"buffer":0,
			"byteLength":3792,
			"byteOffset":32020,
			"target":34962
		},
		{
			"buffer":0,
			"byteLength":3792,
			"byteOffset":35812,
			"target":34962
		},
		{
			"buffer":0,
			"byteLength":2528,
			"byteOffset":39604,
			"target":34962
		},
		{
			"buffer":0,
			"byteLength":1044,
			"byteOffset":42132,
			"target":34963
		},
		{
			"buffer":0,
			"byteLength":475740,
			"byteOffset":43176,
			"target":34962
		},
		{
			"buffer":0,
			"byteLength":475740,
			"byteOffset":518916,
			"target":34962
		},
		{
			"buffer":0,
			"byteLength":317160,
			"byteOffset":994656,
			"target":34962
		},
		{
			"buffer":0,
			"byteLength":106128,
			"byteOffset":1311816,
			"target":34963
		},
		{
			"buffer":0,
			"byteLength":960,
			"byteOffset":1417944,
			"target":34962
		},
		{
			"buffer":0,
			"byteLength":960,
			"byteOffset":1418904,
			"target":34962
		},
		{
			"buffer":0,
			"byteLength":640,
			"byteOffset":1419864,
			"target":34962
		},
		{
			"buffer":0,
			"byteLength":240,
			"byteOffset":1420504,
			"target":34963
		},
		{
			"buffer":0,
			"byteLength":5184,
			"byteOffset":1420744,
			"target":34962
		},
		{
			"buffer":0,
			"byteLength":5184,
			"byteOffset":1425928,
			"target":34962
		},
		{
			"buffer":0,
			"byteLength":3456,
			"byteOffset":1431112,
			"target":34962
		},
		{
			"buffer":0,
			"byteLength":912,
			"byteOffset":1434568,
			"target":34963
		},
		{
			"buffer":0,
			"byteLength":4836,
			"byteOffset":1435480,
			"target":34962
		},
		{
			"buffer":0,
			"byteLength":4836,
			"byteOffset":1440316,
			"target":34962
		},
		{
			"buffer":0,
			"byteLength":3224,
			"byteOffset":1445152,
			"target":34962
		},
		{
			"buffer":0,
			"byteLength":1392,
			"byteOffset":1448376,
			"target":34963
		},
		{
			"buffer":0,
			"byteLength":5160,
			"byteOffset":1449768,
			"target":34962
		},
		{
			"buffer":0,
			"byteLength":5160,
			"byteOffset":1454928,
			"target":34962
		},
		{
			"buffer":0,
			"byteLength":3440,
			"byteOffset":1460088,
			"target":34962
		},
		{
			"buffer":0,
			"byteLength":1380,
			"byteOffset":1463528,
			"target":34963
		},
		{
			"buffer":0,
			"byteLength":5808,
			"byteOffset":1464908,
			"target":34962
		},
		{
			"buffer":0,
			"byteLength":5808,
			"byteOffset":1470716,
			"target":34962
		},
		{
			"buffer":0,
			"byteLength":3872,
			"byteOffset":1476524,
			"target":34962
		},
		{
			"buffer":0,
			"byteLength":1416,
			"byteOffset":1480396,
			"target":34963
		},
		{
			"buffer":0,
			"byteLength":14136,
			"byteOffset":1481812,
			"target":34962
		},
		{
			"buffer":0,
			"byteLength":14136,
			"byteOffset":1495948,
			"target":34962
		},
		{
			"buffer":0,
			"byteLength":9424,
			"byteOffset":1510084,
			"target":34962
		},
		{
			"buffer":0,
			"byteLength":3840,
			"byteOffset":1519508,
			"target":34963
		},
		{
			"buffer":0,
			"byteLength":14964,
			"byteOffset":1523348,
			"target":34962
		},
		{
			"buffer":0,
			"byteLength":14964,
			"byteOffset":1538312,
			"target":34962
		},
		{
			"buffer":0,
			"byteLength":9976,
			"byteOffset":1553276,
			"target":34962
		},
		{
			"buffer":0,
			"byteLength":4704,
			"byteOffset":1563252,
			"target":34963
		},
		{
			"buffer":0,
			"byteLength":7416,
			"byteOffset":1567956,
			"target":34962
		},
		{
			"buffer":0,
			"byteLength":7416,
			"byteOffset":1575372,
			"target":34962
		},
		{
			"buffer":0,
			"byteLength":4944,
			"byteOffset":1582788,
			"target":34962
		},
		{
			"buffer":0,
			"byteLength":2424,
			"byteOffset":1587732,
			"target":34963
		},
		{
			"buffer":0,
			"byteLength":8280,
			"byteOffset":1590156,
			"target":34962
		},
		{
			"buffer":0,
			"byteLength":8280,
			"byteOffset":1598436,
			"target":34962
		},
		{
			"buffer":0,
			"byteLength":5520,
			"byteOffset":1606716,
			"target":34962
		},
		{
			"buffer":0,
			"byteLength":2064,
			"byteOffset":1612236,
			"target":34963
		},
		{
			"buffer":0,
			"byteLength":5712,
			"byteOffset":1614300,
			"target":34962
		},
		{
			"buffer":0,
			"byteLength":5712,
			"byteOffset":1620012,
			"target":34962
		},
		{
			"buffer":0,
			"byteLength":3808,
			"byteOffset":1625724,
			"target":34962
		},
		{
			"buffer":0,
			"byteLength":1512,
			"byteOffset":1629532,
			"target":34963
		},
		{
			"buffer":0,
			"byteLength":732,
			"byteOffset":1631044,
			"target":34962
		},
		{
			"buffer":0,
			"byteLength":732,
			"byteOffset":1631776,
			"target":34962
		},
		{
			"buffer":0,
			"byteLength":488,
			"byteOffset":1632508,
			"target":34962
		},
		{
			"buffer":0,
			"byteLength":210,
			"byteOffset":1632996,
			"target":34963
		},
		{
			"buffer":0,
			"byteLength":72,
			"byteOffset":1633208,
			"target":34962
		},
		{
			"buffer":0,
			"byteLength":72,
			"byteOffset":1633280,
			"target":34962
		},
		{
			"buffer":0,
			"byteLength":48,
			"byteOffset":1633352,
			"target":34962
		},
		{
			"buffer":0,
			"byteLength":24,
			"byteOffset":1633400,
			"target":34963
		},
		{
			"buffer":0,
			"byteLength":576,
			"byteOffset":1633424,
			"target":34962
		},
		{
			"buffer":0,
			"byteLength":576,
			"byteOffset":1634000,
			"target":34962
		},
		{
			"buffer":0,
			"byteLength":384,
			"byteOffset":1634576,
			"target":34962
		},
		{
			"buffer":0,
			"byteLength":150,
			"byteOffset":1634960,
			"target":34963
		},
		{
			"buffer":0,
			"byteLength":10368,
			"byteOffset":1635112,
			"target":34962
		},
		{
			"buffer":0,
			"byteLength":10368,
			"byteOffset":1645480,
			"target":34962
		},
		{
			"buffer":0,
			"byteLength":6912,
			"byteOffset":1655848,
			"target":34962
		},
		{
			"buffer":0,
			"byteLength":3318,
			"byteOffset":1662760,
			"target":34963
		},
		{
			"buffer":0,
			"byteLength":124872,
			"byteOffset":1666080,
			"target":34962
		},
		{
			"buffer":0,
			"byteLength":124872,
			"byteOffset":1790952,
			"target":34962
		},
		{
			"buffer":0,
			"byteLength":83248,
			"byteOffset":1915824,
			"target":34962
		},
		{
			"buffer":0,
			"byteLength":35382,
			"byteOffset":1999072,
			"target":34963
		},
		{
			"buffer":0,
			"byteLength":18216,
			"byteOffset":2034456,
			"target":34962
		},
		{
			"buffer":0,
			"byteLength":18216,
			"byteOffset":2052672,
			"target":34962
		},
		{
			"buffer":0,
			"byteLength":12144,
			"byteOffset":2070888,
			"target":34962
		},
		{
			"buffer":0,
			"byteLength":5436,
			"byteOffset":2083032,
			"target":34963
		},
		{
			"buffer":0,
			"byteLength":2220,
			"byteOffset":2088468,
			"target":34962
		},
		{
			"buffer":0,
			"byteLength":2220,
			"byteOffset":2090688,
			"target":34962
		},
		{
			"buffer":0,
			"byteLength":1480,
			"byteOffset":2092908,
			"target":34962
		},
		{
			"buffer":0,
			"byteLength":636,
			"byteOffset":2094388,
			"target":34963
		},
		{
			"buffer":0,
			"byteLength":1272,
			"byteOffset":2095024,
			"target":34962
		},
		{
			"buffer":0,
			"byteLength":1272,
			"byteOffset":2096296,
			"target":34962
		},
		{
			"buffer":0,
			"byteLength":848,
			"byteOffset":2097568,
			"target":34962
		},
		{
			"buffer":0,
			"byteLength":312,
			"byteOffset":2098416,
			"target":34963
		},
		{
			"buffer":0,
			"byteLength":288,
			"byteOffset":2098728,
			"target":34962
		},
		{
			"buffer":0,
			"byteLength":288,
			"byteOffset":2099016,
			"target":34962
		},
		{
			"buffer":0,
			"byteLength":192,
			"byteOffset":2099304,
			"target":34962
		},
		{
			"buffer":0,
			"byteLength":96,
			"byteOffset":2099496,
			"target":34963
		},
		{
			"buffer":0,
			"byteLength":15204,
			"byteOffset":2099592,
			"target":34962
		},
		{
			"buffer":0,
			"byteLength":15204,
			"byteOffset":2114796,
			"target":34962
		},
		{
			"buffer":0,
			"byteLength":10136,
			"byteOffset":2130000,
			"target":34962
		},
		{
			"buffer":0,
			"byteLength":10200,
			"byteOffset":2140136,
			"target":34963
		},
		{
			"buffer":0,
			"byteLength":444,
			"byteOffset":2150336,
			"target":34962
		},
		{
			"buffer":0,
			"byteLength":444,
			"byteOffset":2150780,
			"target":34962
		},
		{
			"buffer":0,
			"byteLength":296,
			"byteOffset":2151224,
			"target":34962
		},
		{
			"buffer":0,
			"byteLength":114,
			"byteOffset":2151520,
			"target":34963
		},
		{
			"buffer":0,
			"byteLength":888,
			"byteOffset":2151636,
			"target":34962
		},
		{
			"buffer":0,
			"byteLength":888,
			"byteOffset":2152524,
			"target":34962
		},
		{
			"buffer":0,
			"byteLength":592,
			"byteOffset":2153412,
			"target":34962
		},
		{
			"buffer":0,
			"byteLength":288,
			"byteOffset":2154004,
			"target":34963
		}
	],
	"samplers":[
		{
			"magFilter":9729,
			"minFilter":9987
		}
	],
	"buffers":[
		{
			"byteLength":2154292,
			"uri":"cell_x1_z-1_render.bin"
		}
	]
}
