{
	"asset":{
		"generator":"Khronos glTF Blender I/O v4.5.51",
		"version":"2.0"
	},
	"scene":0,
	"scenes":[
		{
			"name":"Scene",
			"nodes":[
				0
			]
		}
	],
	"nodes":[
		{
			"mesh":0,
			"name":"cell_x-1_z1",
			"rotation":[
				-0.025657733902335167,
				-0.5103606581687927,
				-0.015236267820000648,
				0.8594426512718201
			],
			"scale":[
				5.3088459968566895,
				5.3088459968566895,
				5.3088459968566895
			],
			"translation":[
				-15.32380485534668,
				8.783960342407227,
				58.541282653808594
			]
		}
	],
	"materials":[
		{
			"name":"stone_v2",
			"pbrMetallicRoughness":{
				"baseColorFactor":[
					0.38132601976394653,
					0.38132601976394653,
					0.3324515223503113,
					1
				],
				"metallicFactor":0,
				"roughnessFactor":0.9200000166893005
			}
		},
		{
			"name":"stone_v3",
			"pbrMetallicRoughness":{
				"baseColorFactor":[
					0.20863686501979828,
					0.2462013214826584,
					0.2622506618499756,
					1
				],
				"metallicFactor":0,
				"roughnessFactor":0.9200000166893005
			}
		},
		{
			"name":"_defaultMat",
			"pbrMetallicRoughness":{
				"baseColorFactor":[
					0.4564110338687897,
					0.4564110338687897,
					0.4125426113605499,
					1
				],
				"metallicFactor":0,
				"roughnessFactor":0.9200000166893005
			}
		},
		{
			"name":"stone_v1",
			"pbrMetallicRoughness":{
				"baseColorFactor":[
					0.2541520893573761,
					0.28744083642959595,
					0.3049873113632202,
					1
				],
				"metallicFactor":0,
				"roughnessFactor":0.9200000166893005
			}
		},
		{
			"name":"stone_v0",
			"pbrMetallicRoughness":{
				"baseColorFactor":[
					0.32314321398735046,
					0.35153260827064514,
					0.3613067865371704,
					1
				],
				"metallicFactor":0,
				"roughnessFactor":0.9200000166893005
			}
		},
		{
			"name":"leafsDark",
			"pbrMetallicRoughness":{
				"baseColorFactor":[
					0.04817182570695877,
					0.11443537473678589,
					0.03310476616024971,
					1
				],
				"metallicFactor":0,
				"roughnessFactor":0.9200000166893005
			}
		},
		{
			"name":"woodBarkDark",
			"pbrMetallicRoughness":{
				"baseColorFactor":[
					0.11443537473678589,
					0.04666508734226227,
					0.016807375475764275,
					1
				],
				"metallicFactor":0,
				"roughnessFactor":0.9200000166893005
			}
		},
		{
			"name":"leafsGreen",
			"pbrMetallicRoughness":{
				"baseColorFactor":[
					0.11443537473678589,
					0.23074005544185638,
					0.06301001459360123,
					1
				],
				"metallicFactor":0,
				"roughnessFactor":0.9200000166893005
			}
		},
		{
			"name":"woodBark",
			"pbrMetallicRoughness":{
				"baseColorFactor":[
					0.2015562504529953,
					0.08437620848417282,
					0.02955683507025242,
					1
				],
				"metallicFactor":0,
				"roughnessFactor":0.9200000166893005
			}
		},
		{
			"name":"leafsFall",
			"pbrMetallicRoughness":{
				"baseColorFactor":[
					0.4564110338687897,
					0.18782077729701996,
					0.045186202973127365,
					1
				],
				"metallicFactor":0,
				"roughnessFactor":0.9200000166893005
			}
		},
		{
			"name":"woodBirch",
			"pbrMetallicRoughness":{
				"baseColorFactor":[
					0.7304607629776001,
					0.6583748459815979,
					0.5028864741325378,
					1
				],
				"metallicFactor":0,
				"roughnessFactor":0.9200000166893005
			}
		},
		{
			"name":"grass",
			"pbrMetallicRoughness":{
				"baseColorFactor":[
					0.15592646598815918,
					0.2961382567882538,
					0.0802198201417923,
					1
				],
				"metallicFactor":0,
				"roughnessFactor":0.9200000166893005
			}
		},
		{
			"name":"colorRed",
			"pbrMetallicRoughness":{
				"baseColorFactor":[
					0.34191441535949707,
					0.08437620848417282,
					0.05951123684644699,
					1
				],
				"metallicFactor":0,
				"roughnessFactor":0.9200000166893005
			}
		},
		{
			"name":"dirt_v1",
			"pbrMetallicRoughness":{
				"baseColorFactor":[
					0.2581828534603119,
					0.1946178376674652,
					0.1119324266910553,
					1
				],
				"metallicFactor":0,
				"roughnessFactor":0.9200000166893005
			}
		},
		{
			"name":"woodInner",
			"pbrMetallicRoughness":{
				"baseColorFactor":[
					0.577580451965332,
					0.423267662525177,
					0.23839756846427917,
					1
				],
				"metallicFactor":0,
				"roughnessFactor":0.9200000166893005
			}
		},
		{
			"name":"colorYellow",
			"pbrMetallicRoughness":{
				"baseColorFactor":[
					0.5840784311294556,
					0.3613067865371704,
					0.07618538290262222,
					1
				],
				"metallicFactor":0,
				"roughnessFactor":0.9200000166893005
			}
		},
		{
			"name":"dirt_v3",
			"pbrMetallicRoughness":{
				"baseColorFactor":[
					0.20863686501979828,
					0.15896083414554596,
					0.09084171056747437,
					1
				],
				"metallicFactor":0,
				"roughnessFactor":0.9200000166893005
			}
		},
		{
			"name":"dirt_v2",
			"pbrMetallicRoughness":{
				"baseColorFactor":[
					0.38132601976394653,
					0.30054378509521484,
					0.1946178376674652,
					1
				],
				"metallicFactor":0,
				"roughnessFactor":0.9200000166893005
			}
		},
		{
			"name":"stoneDark_v1",
			"pbrMetallicRoughness":{
				"baseColorFactor":[
					0.12477181851863861,
					0.14126329123973846,
					0.15292614698410034,
					1
				],
				"metallicFactor":0,
				"roughnessFactor":0.9200000166893005
			}
		},
		{
			"name":"stoneDark_v2",
			"pbrMetallicRoughness":{
				"baseColorFactor":[
					0.18782077729701996,
					0.2015562504529953,
					0.17464740574359894,
					1
				],
				"metallicFactor":0,
				"roughnessFactor":0.9200000166893005
			}
		}
	],
	"meshes":[
		{
			"name":"Mesh stone_smallTopA.010",
			"primitives":[
				{
					"attributes":{
						"POSITION":0,
						"NORMAL":1,
						"TEXCOORD_0":2,
						"COLOR_0":3
					},
					"indices":4,
					"material":0
				},
				{
					"attributes":{
						"POSITION":5,
						"NORMAL":6,
						"TEXCOORD_0":7,
						"COLOR_0":8
					},
					"indices":9,
					"material":1
				},
				{
					"attributes":{
						"POSITION":10,
						"NORMAL":11,
						"TEXCOORD_0":12,
						"COLOR_0":13
					},
					"indices":14,
					"material":2
				},
				{
					"attributes":{
						"POSITION":15,
						"NORMAL":16,
						"TEXCOORD_0":17,
						"COLOR_0":18
					},
					"indices":19,
					"material":3
				},
				{
					"attributes":{
						"POSITION":20,
						"NORMAL":21,
						"TEXCOORD_0":22,
						"COLOR_0":23
					},
					"indices":24,
					"material":4
				},
				{
					"attributes":{
						"POSITION":25,
						"NORMAL":26,
						"TEXCOORD_0":27,
						"COLOR_0":28
					},
					"indices":29,
					"material":5
				},
				{
					"attributes":{
						"POSITION":30,
						"NORMAL":31,
						"TEXCOORD_0":32,
						"COLOR_0":33
					},
					"indices":34,
					"material":6
				},
				{
					"attributes":{
						"POSITION":35,
						"NORMAL":36,
						"TEXCOORD_0":37,
						"COLOR_0":38
					},
					"indices":39,
					"material":7
				},
				{
					"attributes":{
						"POSITION":40,
						"NORMAL":41,
						"TEXCOORD_0":42,
						"COLOR_0":43
					},
					"indices":44,
					"material":8
				},
				{
					"attributes":{
						"POSITION":45,
						"NORMAL":46,
						"TEXCOORD_0":47,
						"COLOR_0":48
					},
					"indices":49,
					"material":9
				},
				{
					"attributes":{
						"POSITION":50,
						"NORMAL":51,
						"TEXCOORD_0":52,
						"COLOR_0":53
					},
					"indices":54,
					"material":10
				},
				{
					"attributes":{
						"POSITION":55,
						"NORMAL":56,
						"TEXCOORD_0":57,
						"COLOR_0":58
					},
					"indices":59,
					"material":11
				},
				{
					"attributes":{
						"POSITION":60,
						"NORMAL":61,
						"TEXCOORD_0":62,
						"COLOR_0":63
					},
					"indices":64,
					"material":12
				},
				{
					"attributes":{
						"POSITION":65,
						"NORMAL":66,
						"TEXCOORD_0":67,
						"COLOR_0":68
					},
					"indices":69,
					"material":13
				},
				{
					"attributes":{
						"POSITION":70,
						"NORMAL":71,
						"TEXCOORD_0":72,
						"COLOR_0":73
					},
					"indices":74,
					"material":14
				},
				{
					"attributes":{
						"POSITION":75,
						"NORMAL":76,
						"TEXCOORD_0":77,
						"COLOR_0":78
					},
					"indices":79,
					"material":15
				},
				{
					"attributes":{
						"POSITION":80,
						"NORMAL":81,
						"TEXCOORD_0":82,
						"COLOR_0":83
					},
					"indices":84,
					"material":16
				},
				{
					"attributes":{
						"POSITION":85,
						"NORMAL":86,
						"TEXCOORD_0":87,
						"COLOR_0":88
					},
					"indices":89,
					"material":17
				},
				{
					"attributes":{
						"POSITION":90,
						"NORMAL":91,
						"TEXCOORD_0":92,
						"COLOR_0":93
					},
					"indices":94,
					"material":18
				},
				{
					"attributes":{
						"POSITION":95,
						"NORMAL":96,
						"TEXCOORD_0":97,
						"COLOR_0":98
					},
					"indices":99,
					"material":19
				}
			]
		}
	],
	"accessors":[
		{
			"bufferView":0,
			"componentType":5126,
			"count":956,
			"max":[
				2.701641082763672,
				1.330678939819336,
				4.749443054199219
			],
			"min":[
				-4.453941822052002,
				-2.8045074939727783,
				-2.046715259552002
			],
			"type":"VEC3"
		},
		{
			"bufferView":1,
			"componentType":5126,
			"count":956,
			"type":"VEC3"
		},
		{
			"bufferView":2,
			"componentType":5126,
			"count":956,
			"type":"VEC2"
		},
		{
			"bufferView":3,
			"componentType":5123,
			"count":956,
			"normalized":true,
			"type":"VEC4"
		},
		{
			"bufferView":4,
			"componentType":5123,
			"count":1605,
			"type":"SCALAR"
		},
		{
			"bufferView":5,
			"componentType":5126,
			"count":681,
			"max":[
				2.4286949634552,
				1.1572593450546265,
				2.043529510498047
			],
			"min":[
				-3.2262144088745117,
				-2.9189887046813965,
				-3.2130982875823975
			],
			"type":"VEC3"
		},
		{
			"bufferView":6,
			"componentType":5126,
			"count":681,
			"type":"VEC3"
		},
		{
			"bufferView":7,
			"componentType":5126,
			"count":681,
			"type":"VEC2"
		},
		{
			"bufferView":8,
			"componentType":5123,
			"count":681,
			"normalized":true,
			"type":"VEC4"
		},
		{
			"bufferView":9,
			"componentType":5123,
			"count":1182,
			"type":"SCALAR"
		},
		{
			"bufferView":10,
			"componentType":5126,
			"count":574,
			"max":[
				3.8380701541900635,
				2.908322811126709,
				3.359788417816162
			],
			"min":[
				-2.3994994163513184,
				-2.9189887046813965,
				-3.061763048171997
			],
			"type":"VEC3"
		},
		{
			"bufferView":11,
			"componentType":5126,
			"count":574,
			"type":"VEC3"
		},
		{
			"bufferView":12,
			"componentType":5126,
			"count":574,
			"type":"VEC2"
		},
		{
			"bufferView":13,
			"componentType":5123,
			"count":574,
			"normalized":true,
			"type":"VEC4"
		},
		{
			"bufferView":14,
			"componentType":5123,
			"count":600,
			"type":"SCALAR"
		},
		{
			"bufferView":15,
			"componentType":5126,
			"count":1223,
			"max":[
				2.5338027477264404,
				1.216778039932251,
				4.940250873565674
			],
			"min":[
				-4.40479850769043,
				-2.8159103393554688,
				-2.5995757579803467
			],
			"type":"VEC3"
		},
		{
			"bufferView":16,
			"componentType":5126,
			"count":1223,
			"type":"VEC3"
		},
		{
			"bufferView":17,
			"componentType":5126,
			"count":1223,
			"type":"VEC2"
		},
		{
			"bufferView":18,
			"componentType":5123,
			"count":1223,
			"normalized":true,
			"type":"VEC4"
		},
		{
			"bufferView":19,
			"componentType":5123,
			"count":2019,
			"type":"SCALAR"
		},
		{
			"bufferView":20,
			"componentType":5126,
			"count":540,
			"max":[
				0.25488829612731934,
				1.02072012424469,
				4.656485557556152
			],
			"min":[
				-2.486860752105713,
				-2.798952102661133,
				-4.01404333114624
			],
			"type":"VEC3"
		},
		{
			"bufferView":21,
			"componentType":5126,
			"count":540,
			"type":"VEC3"
		},
		{
			"bufferView":22,
			"componentType":5126,
			"count":540,
			"type":"VEC2"
		},
		{
			"bufferView":23,
			"componentType":5123,
			"count":540,
			"normalized":true,
			"type":"VEC4"
		},
		{
			"bufferView":24,
			"componentType":5123,
			"count":864,
			"type":"SCALAR"
		},
		{
			"bufferView":25,
			"componentType":5126,
			"count":11199,
			"max":[
				4.1877570152282715,
				2.6133527755737305,
				2.9906206130981445
			],
			"min":[
				-2.651918888092041,
				-1.4213367700576782,
				-3.8037657737731934
			],
			"type":"VEC3"
		},
		{
			"bufferView":26,
			"componentType":5126,
			"count":11199,
			"type":"VEC3"
		},
		{
			"bufferView":27,
			"componentType":5126,
			"count":11199,
			"type":"VEC2"
		},
		{
			"bufferView":28,
			"componentType":5123,
			"count":11199,
			"normalized":true,
			"type":"VEC4"
		},
		{
			"bufferView":29,
			"componentType":5123,
			"count":18876,
			"type":"SCALAR"
		},
		{
			"bufferView":30,
			"componentType":5126,
			"count":3614,
			"max":[
				4.035088539123535,
				1.717113733291626,
				2.7967123985290527
			],
			"min":[
				-2.4751217365264893,
				-1.8437496423721313,
				-3.695056438446045
			],
			"type":"VEC3"
		},
		{
			"bufferView":31,
			"componentType":5126,
			"count":3614,
			"type":"VEC3"
		},
		{
			"bufferView":32,
			"componentType":5126,
			"count":3614,
			"type":"VEC2"
		},
		{
			"bufferView":33,
			"componentType":5123,
			"count":3614,
			"normalized":true,
			"type":"VEC4"
		},
		{
			"bufferView":34,
			"componentType":5123,
			"count":5670,
			"type":"SCALAR"
		},
		{
			"bufferView":35,
			"componentType":5126,
			"count":3805,
			"max":[
				4.47613000869751,
				5.0983991622924805,
				3.656670093536377
			],
			"min":[
				-2.089266538619995,
				-1.5709688663482666,
				-3.887019157409668
			],
			"type":"VEC3"
		},
		{
			"bufferView":36,
			"componentType":5126,
			"count":3805,
			"type":"VEC3"
		},
		{
			"bufferView":37,
			"componentType":5126,
			"count":3805,
			"type":"VEC2"
		},
		{
			"bufferView":38,
			"componentType":5123,
			"count":3805,
			"normalized":true,
			"type":"VEC4"
		},
		{
			"bufferView":39,
			"componentType":5123,
			"count":6102,
			"type":"SCALAR"
		},
		{
			"bufferView":40,
			"componentType":5126,
			"count":1873,
			"max":[
				4.188346862792969,
				3.6281111240386963,
				3.543546438217163
			],
			"min":[
				-2.705456495285034,
				-1.924523949623108,
				-3.1394009590148926
			],
			"type":"VEC3"
		},
		{
			"bufferView":41,
			"componentType":5126,
			"count":1873,
			"type":"VEC3"
		},
		{
			"bufferView":42,
			"componentType":5126,
			"count":1873,
			"type":"VEC2"
		},
		{
			"bufferView":43,
			"componentType":5123,
			"count":1873,
			"normalized":true,
			"type":"VEC4"
		},
		{
			"bufferView":44,
			"componentType":5123,
			"count":2946,
			"type":"SCALAR"
		},
		{
			"bufferView":45,
			"componentType":5126,
			"count":579,
			"max":[
				4.113717079162598,
				-0.12797069549560547,
				0.16044551134109497
			],
			"min":[
				3.3686370849609375,
				-1.0248383283615112,
				-0.6769347190856934
			],
			"type":"VEC3"
		},
		{
			"bufferView":46,
			"componentType":5126,
			"count":579,
			"type":"VEC3"
		},
		{
			"bufferView":47,
			"componentType":5126,
			"count":579,
			"type":"VEC2"
		},
		{
			"bufferView":48,
			"componentType":5123,
			"count":579,
			"normalized":true,
			"type":"VEC4"
		},
		{
			"bufferView":49,
			"componentType":5123,
			"count":840,
			"type":"SCALAR"
		},
		{
			"bufferView":50,
			"componentType":5126,
			"count":235,
			"max":[
				4.038982391357422,
				-0.585246205329895,
				0.032245635986328125
			],
			"min":[
				3.4941625595092773,
				-1.4494297504425049,
				-0.595931351184845
			],
			"type":"VEC3"
		},
		{
			"bufferView":51,
			"componentType":5126,
			"count":235,
			"type":"VEC3"
		},
		{
			"bufferView":52,
			"componentType":5126,
			"count":235,
			"type":"VEC2"
		},
		{
			"bufferView":53,
			"componentType":5123,
			"count":235,
			"normalized":true,
			"type":"VEC4"
		},
		{
			"bufferView":54,
			"componentType":5123,
			"count":360,
			"type":"SCALAR"
		},
		{
			"bufferView":55,
			"componentType":5126,
			"count":21720,
			"max":[
				4.7712907791137695,
				1.1194831132888794,
				4.348564624786377
			],
			"min":[
				-2.9163577556610107,
				-2.9139065742492676,
				-3.8339240550994873
			],
			"type":"VEC3"
		},
		{
			"bufferView":56,
			"componentType":5126,
			"count":21720,
			"type":"VEC3"
		},
		{
			"bufferView":57,
			"componentType":5126,
			"count":21720,
			"type":"VEC2"
		},
		{
			"bufferView":58,
			"componentType":5123,
			"count":21720,
			"normalized":true,
			"type":"VEC4"
		},
		{
			"bufferView":59,
			"componentType":5123,
			"count":29154,
			"type":"SCALAR"
		},
		{
			"bufferView":60,
			"componentType":5126,
			"count":167,
			"max":[
				-1.1072593927383423,
				1.0400111675262451,
				-1.8872458934783936
			],
			"min":[
				-2.2836506366729736,
				0.6802933216094971,
				-3.061763048171997
			],
			"type":"VEC3"
		},
		{
			"bufferView":61,
			"componentType":5126,
			"count":167,
			"type":"VEC3"
		},
		{
			"bufferView":62,
			"componentType":5126,
			"count":167,
			"type":"VEC2"
		},
		{
			"bufferView":63,
			"componentType":5123,
			"count":167,
			"normalized":true,
			"type":"VEC4"
		},
		{
			"bufferView":64,
			"componentType":5123,
			"count":252,
			"type":"SCALAR"
		},
		{
			"bufferView":65,
			"componentType":5126,
			"count":96,
			"max":[
				2.6368041038513184,
				-1.2638089656829834,
				2.948456287384033
			],
			"min":[
				-2.9309141635894775,
				-2.696878433227539,
				0.6223506331443787
			],
			"type":"VEC3"
		},
		{
			"bufferView":66,
			"componentType":5126,
			"count":96,
			"type":"VEC3"
		},
		{
			"bufferView":67,
			"componentType":5126,
			"count":96,
			"type":"VEC2"
		},
		{
			"bufferView":68,
			"componentType":5123,
			"count":96,
			"normalized":true,
			"type":"VEC4"
		},
		{
			"bufferView":69,
			"componentType":5123,
			"count":132,
			"type":"SCALAR"
		},
		{
			"bufferView":70,
			"componentType":5126,
			"count":30,
			"max":[
				-2.4410386085510254,
				0.5569026470184326,
				-1.6995598077774048
			],
			"min":[
				-2.6351141929626465,
				0.5211467146873474,
				-1.8902323246002197
			],
			"type":"VEC3"
		},
		{
			"bufferView":71,
			"componentType":5126,
			"count":30,
			"type":"VEC3"
		},
		{
			"bufferView":72,
			"componentType":5126,
			"count":30,
			"type":"VEC2"
		},
		{
			"bufferView":73,
			"componentType":5123,
			"count":30,
			"normalized":true,
			"type":"VEC4"
		},
		{
			"bufferView":74,
			"componentType":5123,
			"count":48,
			"type":"SCALAR"
		},
		{
			"bufferView":75,
			"componentType":5126,
			"count":166,
			"max":[
				0.5031256079673767,
				-1.5247111320495605,
				2.130530834197998
			],
			"min":[
				0.3923979103565216,
				-1.650641679763794,
				2.019876003265381
			],
			"type":"VEC3"
		},
		{
			"bufferView":76,
			"componentType":5126,
			"count":166,
			"type":"VEC3"
		},
		{
			"bufferView":77,
			"componentType":5126,
			"count":166,
			"type":"VEC2"
		},
		{
			"bufferView":78,
			"componentType":5123,
			"count":166,
			"normalized":true,
			"type":"VEC4"
		},
		{
			"bufferView":79,
			"componentType":5123,
			"count":270,
			"type":"SCALAR"
		},
		{
			"bufferView":80,
			"componentType":5126,
			"count":63,
			"max":[
				-0.9398021697998047,
				-2.7169454097747803,
				4.363489151000977
			],
			"min":[
				-1.2179979085922241,
				-2.781442403793335,
				4.048936367034912
			],
			"type":"VEC3"
		},
		{
			"bufferView":81,
			"componentType":5126,
			"count":63,
			"type":"VEC3"
		},
		{
			"bufferView":82,
			"componentType":5126,
			"count":63,
			"type":"VEC2"
		},
		{
			"bufferView":83,
			"componentType":5123,
			"count":63,
			"normalized":true,
			"type":"VEC4"
		},
		{
			"bufferView":84,
			"componentType":5123,
			"count":93,
			"type":"SCALAR"
		},
		{
			"bufferView":85,
			"componentType":5126,
			"count":62,
			"max":[
				-1.03394615650177,
				-2.699960947036743,
				4.00184440612793
			],
			"min":[
				-1.337253212928772,
				-2.7598302364349365,
				3.7257797718048096
			],
			"type":"VEC3"
		},
		{
			"bufferView":86,
			"componentType":5126,
			"count":62,
			"type":"VEC3"
		},
		{
			"bufferView":87,
			"componentType":5126,
			"count":62,
			"type":"VEC2"
		},
		{
			"bufferView":88,
			"componentType":5123,
			"count":62,
			"normalized":true,
			"type":"VEC4"
		},
		{
			"bufferView":89,
			"componentType":5123,
			"count":93,
			"type":"SCALAR"
		},
		{
			"bufferView":90,
			"componentType":5126,
			"count":140,
			"max":[
				-2.0577549934387207,
				1.216778039932251,
				-0.8384210467338562
			],
			"min":[
				-2.452075481414795,
				0.4066678285598755,
				-1.276986837387085
			],
			"type":"VEC3"
		},
		{
			"bufferView":91,
			"componentType":5126,
			"count":140,
			"type":"VEC3"
		},
		{
			"bufferView":92,
			"componentType":5126,
			"count":140,
			"type":"VEC2"
		},
		{
			"bufferView":93,
			"componentType":5123,
			"count":140,
			"normalized":true,
			"type":"VEC4"
		},
		{
			"bufferView":94,
			"componentType":5123,
			"count":201,
			"type":"SCALAR"
		},
		{
			"bufferView":95,
			"componentType":5126,
			"count":258,
			"max":[
				1.1803315877914429,
				1.330678939819336,
				-0.07198122143745422
			],
			"min":[
				-0.8243816494941711,
				0.37944722175598145,
				-1.109369158744812
			],
			"type":"VEC3"
		},
		{
			"bufferView":96,
			"componentType":5126,
			"count":258,
			"type":"VEC3"
		},
		{
			"bufferView":97,
			"componentType":5126,
			"count":258,
			"type":"VEC2"
		},
		{
			"bufferView":98,
			"componentType":5123,
			"count":258,
			"normalized":true,
			"type":"VEC4"
		},
		{
			"bufferView":99,
			"componentType":5123,
			"count":399,
			"type":"SCALAR"
		}
	],
	"bufferViews":[
		{
			"buffer":0,
			"byteLength":11472,
			"byteOffset":0,
			"target":34962
		},
		{
			"buffer":0,
			"byteLength":11472,
			"byteOffset":11472,
			"target":34962
		},
		{
			"buffer":0,
			"byteLength":7648,
			"byteOffset":22944,
			"target":34962
		},
		{
			"buffer":0,
			"byteLength":7648,
			"byteOffset":30592,
			"target":34962
		},
		{
			"buffer":0,
			"byteLength":3210,
			"byteOffset":38240,
			"target":34963
		},
		{
			"buffer":0,
			"byteLength":8172,
			"byteOffset":41452,
			"target":34962
		},
		{
			"buffer":0,
			"byteLength":8172,
			"byteOffset":49624,
			"target":34962
		},
		{
			"buffer":0,
			"byteLength":5448,
			"byteOffset":57796,
			"target":34962
		},
		{
			"buffer":0,
			"byteLength":5448,
			"byteOffset":63244,
			"target":34962
		},
		{
			"buffer":0,
			"byteLength":2364,
			"byteOffset":68692,
			"target":34963
		},
		{
			"buffer":0,
			"byteLength":6888,
			"byteOffset":71056,
			"target":34962
		},
		{
			"buffer":0,
			"byteLength":6888,
			"byteOffset":77944,
			"target":34962
		},
		{
			"buffer":0,
			"byteLength":4592,
			"byteOffset":84832,
			"target":34962
		},
		{
			"buffer":0,
			"byteLength":4592,
			"byteOffset":89424,
			"target":34962
		},
		{
			"buffer":0,
			"byteLength":1200,
			"byteOffset":94016,
			"target":34963
		},
		{
			"buffer":0,
			"byteLength":14676,
			"byteOffset":95216,
			"target":34962
		},
		{
			"buffer":0,
			"byteLength":14676,
			"byteOffset":109892,
			"target":34962
		},
		{
			"buffer":0,
			"byteLength":9784,
			"byteOffset":124568,
			"target":34962
		},
		{
			"buffer":0,
			"byteLength":9784,
			"byteOffset":134352,
			"target":34962
		},
		{
			"buffer":0,
			"byteLength":4038,
			"byteOffset":144136,
			"target":34963
		},
		{
			"buffer":0,
			"byteLength":6480,
			"byteOffset":148176,
			"target":34962
		},
		{
			"buffer":0,
			"byteLength":6480,
			"byteOffset":154656,
			"target":34962
		},
		{
			"buffer":0,
			"byteLength":4320,
			"byteOffset":161136,
			"target":34962
		},
		{
			"buffer":0,
			"byteLength":4320,
			"byteOffset":165456,
			"target":34962
		},
		{
			"buffer":0,
			"byteLength":1728,
			"byteOffset":169776,
			"target":34963
		},
		{
			"buffer":0,
			"byteLength":134388,
			"byteOffset":171504,
			"target":34962
		},
		{
			"buffer":0,
			"byteLength":134388,
			"byteOffset":305892,
			"target":34962
		},
		{
			"buffer":0,
			"byteLength":89592,
			"byteOffset":440280,
			"target":34962
		},
		{
			"buffer":0,
			"byteLength":89592,
			"byteOffset":529872,
			"target":34962
		},
		{
			"buffer":0,
			"byteLength":37752,
			"byteOffset":619464,
			"target":34963
		},
		{
			"buffer":0,
			"byteLength":43368,
			"byteOffset":657216,
			"target":34962
		},
		{
			"buffer":0,
			"byteLength":43368,
			"byteOffset":700584,
			"target":34962
		},
		{
			"buffer":0,
			"byteLength":28912,
			"byteOffset":743952,
			"target":34962
		},
		{
			"buffer":0,
			"byteLength":28912,
			"byteOffset":772864,
			"target":34962
		},
		{
			"buffer":0,
			"byteLength":11340,
			"byteOffset":801776,
			"target":34963
		},
		{
			"buffer":0,
			"byteLength":45660,
			"byteOffset":813116,
			"target":34962
		},
		{
			"buffer":0,
			"byteLength":45660,
			"byteOffset":858776,
			"target":34962
		},
		{
			"buffer":0,
			"byteLength":30440,
			"byteOffset":904436,
			"target":34962
		},
		{
			"buffer":0,
			"byteLength":30440,
			"byteOffset":934876,
			"target":34962
		},
		{
			"buffer":0,
			"byteLength":12204,
			"byteOffset":965316,
			"target":34963
		},
		{
			"buffer":0,
			"byteLength":22476,
			"byteOffset":977520,
			"target":34962
		},
		{
			"buffer":0,
			"byteLength":22476,
			"byteOffset":999996,
			"target":34962
		},
		{
			"buffer":0,
			"byteLength":14984,
			"byteOffset":1022472,
			"target":34962
		},
		{
			"buffer":0,
			"byteLength":14984,
			"byteOffset":1037456,
			"target":34962
		},
		{
			"buffer":0,
			"byteLength":5892,
			"byteOffset":1052440,
			"target":34963
		},
		{
			"buffer":0,
			"byteLength":6948,
			"byteOffset":1058332,
			"target":34962
		},
		{
			"buffer":0,
			"byteLength":6948,
			"byteOffset":1065280,
			"target":34962
		},
		{
			"buffer":0,
			"byteLength":4632,
			"byteOffset":1072228,
			"target":34962
		},
		{
			"buffer":0,
			"byteLength":4632,
			"byteOffset":1076860,
			"target":34962
		},
		{
			"buffer":0,
			"byteLength":1680,
			"byteOffset":1081492,
			"target":34963
		},
		{
			"buffer":0,
			"byteLength":2820,
			"byteOffset":1083172,
			"target":34962
		},
		{
			"buffer":0,
			"byteLength":2820,
			"byteOffset":1085992,
			"target":34962
		},
		{
			"buffer":0,
			"byteLength":1880,
			"byteOffset":1088812,
			"target":34962
		},
		{
			"buffer":0,
			"byteLength":1880,
			"byteOffset":1090692,
			"target":34962
		},
		{
			"buffer":0,
			"byteLength":720,
			"byteOffset":1092572,
			"target":34963
		},
		{
			"buffer":0,
			"byteLength":260640,
			"byteOffset":1093292,
			"target":34962
		},
		{
			"buffer":0,
			"byteLength":260640,
			"byteOffset":1353932,
			"target":34962
		},
		{
			"buffer":0,
			"byteLength":173760,
			"byteOffset":1614572,
			"target":34962
		},
		{
			"buffer":0,
			"byteLength":173760,
			"byteOffset":1788332,
			"target":34962
		},
		{
			"buffer":0,
			"byteLength":58308,
			"byteOffset":1962092,
			"target":34963
		},
		{
			"buffer":0,
			"byteLength":2004,
			"byteOffset":2020400,
			"target":34962
		},
		{
			"buffer":0,
			"byteLength":2004,
			"byteOffset":2022404,
			"target":34962
		},
		{
			"buffer":0,
			"byteLength":1336,
			"byteOffset":2024408,
			"target":34962
		},
		{
			"buffer":0,
			"byteLength":1336,
			"byteOffset":2025744,
			"target":34962
		},
		{
			"buffer":0,
			"byteLength":504,
			"byteOffset":2027080,
			"target":34963
		},
		{
			"buffer":0,
			"byteLength":1152,
			"byteOffset":2027584,
			"target":34962
		},
		{
			"buffer":0,
			"byteLength":1152,
			"byteOffset":2028736,
			"target":34962
		},
		{
			"buffer":0,
			"byteLength":768,
			"byteOffset":2029888,
			"target":34962
		},
		{
			"buffer":0,
			"byteLength":768,
			"byteOffset":2030656,
			"target":34962
		},
		{
			"buffer":0,
			"byteLength":264,
			"byteOffset":2031424,
			"target":34963
		},
		{
			"buffer":0,
			"byteLength":360,
			"byteOffset":2031688,
			"target":34962
		},
		{
			"buffer":0,
			"byteLength":360,
			"byteOffset":2032048,
			"target":34962
		},
		{
			"buffer":0,
			"byteLength":240,
			"byteOffset":2032408,
			"target":34962
		},
		{
			"buffer":0,
			"byteLength":240,
			"byteOffset":2032648,
			"target":34962
		},
		{
			"buffer":0,
			"byteLength":96,
			"byteOffset":2032888,
			"target":34963
		},
		{
			"buffer":0,
			"byteLength":1992,
			"byteOffset":2032984,
			"target":34962
		},
		{
			"buffer":0,
			"byteLength":1992,
			"byteOffset":2034976,
			"target":34962
		},
		{
			"buffer":0,
			"byteLength":1328,
			"byteOffset":2036968,
			"target":34962
		},
		{
			"buffer":0,
			"byteLength":1328,
			"byteOffset":2038296,
			"target":34962
		},
		{
			"buffer":0,
			"byteLength":540,
			"byteOffset":2039624,
			"target":34963
		},
		{
			"buffer":0,
			"byteLength":756,
			"byteOffset":2040164,
			"target":34962
		},
		{
			"buffer":0,
			"byteLength":756,
			"byteOffset":2040920,
			"target":34962
		},
		{
			"buffer":0,
			"byteLength":504,
			"byteOffset":2041676,
			"target":34962
		},
		{
			"buffer":0,
			"byteLength":504,
			"byteOffset":2042180,
			"target":34962
		},
		{
			"buffer":0,
			"byteLength":186,
			"byteOffset":2042684,
			"target":34963
		},
		{
			"buffer":0,
			"byteLength":744,
			"byteOffset":2042872,
			"target":34962
		},
		{
			"buffer":0,
			"byteLength":744,
			"byteOffset":2043616,
			"target":34962
		},
		{
			"buffer":0,
			"byteLength":496,
			"byteOffset":2044360,
			"target":34962
		},
		{
			"buffer":0,
			"byteLength":496,
			"byteOffset":2044856,
			"target":34962
		},
		{
			"buffer":0,
			"byteLength":186,
			"byteOffset":2045352,
			"target":34963
		},
		{
			"buffer":0,
			"byteLength":1680,
			"byteOffset":2045540,
			"target":34962
		},
		{
			"buffer":0,
			"byteLength":1680,
			"byteOffset":2047220,
			"target":34962
		},
		{
			"buffer":0,
			"byteLength":1120,
			"byteOffset":2048900,
			"target":34962
		},
		{
			"buffer":0,
			"byteLength":1120,
			"byteOffset":2050020,
			"target":34962
		},
		{
			"buffer":0,
			"byteLength":402,
			"byteOffset":2051140,
			"target":34963
		},
		{
			"buffer":0,
			"byteLength":3096,
			"byteOffset":2051544,
			"target":34962
		},
		{
			"buffer":0,
			"byteLength":3096,
			"byteOffset":2054640,
			"target":34962
		},
		{
			"buffer":0,
			"byteLength":2064,
			"byteOffset":2057736,
			"target":34962
		},
		{
			"buffer":0,
			"byteLength":2064,
			"byteOffset":2059800,
			"target":34962
		},
		{
			"buffer":0,
			"byteLength":798,
			"byteOffset":2061864,
			"target":34963
		}
	],
	"buffers":[
		{
			"byteLength":2062664,
			"uri":"cell_x-1_z1_render.bin"
		}
	]
}
