{
	"asset":{
		"generator":"Khronos glTF Blender I/O v4.5.51",
		"version":"2.0"
	},
	"scene":0,
	"scenes":[
		{
			"name":"Scene",
			"nodes":[
				0
			]
		}
	],
	"nodes":[
		{
			"mesh":0,
			"name":"cell_x2_z-1",
			"rotation":[
				-0.02320616878569126,
				-0.6233549118041992,
				-0.018513096496462822,
				0.7813753485679626
			],
			"scale":[
				2.9967777729034424,
				2.9967775344848633,
				2.996777296066284
			],
			"translation":[
				84.88675689697266,
				-1.899906039237976,
				-37.22713851928711
			]
		}
	],
	"materials":[
		{
			"name":"stone_v0",
			"pbrMetallicRoughness":{
				"baseColorFactor":[
					0.32314321398735046,
					0.35153260827064514,
					0.3613067865371704,
					1
				],
				"metallicFactor":0,
				"roughnessFactor":0.9200000166893005
			}
		},
		{
			"name":"_defaultMat",
			"pbrMetallicRoughness":{
				"baseColorFactor":[
					0.4564110338687897,
					0.4564110338687897,
					0.4125426113605499,
					1
				],
				"metallicFactor":0,
				"roughnessFactor":0.9200000166893005
			}
		},
		{
			"name":"leafsDark",
			"pbrMetallicRoughness":{
				"baseColorFactor":[
					0.04817182570695877,
					0.11443537473678589,
					0.03310476616024971,
					1
				],
				"metallicFactor":0,
				"roughnessFactor":0.9200000166893005
			}
		},
		{
			"name":"woodBarkDark",
			"pbrMetallicRoughness":{
				"baseColorFactor":[
					0.11443537473678589,
					0.04666508734226227,
					0.016807375475764275,
					1
				],
				"metallicFactor":0,
				"roughnessFactor":0.9200000166893005
			}
		},
		{
			"name":"woodBirch",
			"pbrMetallicRoughness":{
				"baseColorFactor":[
					0.7304607629776001,
					0.6583748459815979,
					0.5028864741325378,
					1
				],
				"metallicFactor":0,
				"roughnessFactor":0.9200000166893005
			}
		},
		{
			"name":"leafsFall",
			"pbrMetallicRoughness":{
				"baseColorFactor":[
					0.4564110338687897,
					0.18782077729701996,
					0.045186202973127365,
					1
				],
				"metallicFactor":0,
				"roughnessFactor":0.9200000166893005
			}
		},
		{
			"name":"woodBark",
			"pbrMetallicRoughness":{
				"baseColorFactor":[
					0.2015562504529953,
					0.08437620848417282,
					0.02955683507025242,
					1
				],
				"metallicFactor":0,
				"roughnessFactor":0.9200000166893005
			}
		},
		{
			"name":"leafsGreen",
			"pbrMetallicRoughness":{
				"baseColorFactor":[
					0.11443537473678589,
					0.23074005544185638,
					0.06301001459360123,
					1
				],
				"metallicFactor":0,
				"roughnessFactor":0.9200000166893005
			}
		},
		{
			"name":"grass",
			"pbrMetallicRoughness":{
				"baseColorFactor":[
					0.15592646598815918,
					0.2961382567882538,
					0.0802198201417923,
					1
				],
				"metallicFactor":0,
				"roughnessFactor":0.9200000166893005
			}
		},
		{
			"name":"dirt_v1",
			"pbrMetallicRoughness":{
				"baseColorFactor":[
					0.2581828534603119,
					0.1946178376674652,
					0.1119324266910553,
					1
				],
				"metallicFactor":0,
				"roughnessFactor":0.9200000166893005
			}
		},
		{
			"name":"stone_v3",
			"pbrMetallicRoughness":{
				"baseColorFactor":[
					0.20863686501979828,
					0.2462013214826584,
					0.2622506618499756,
					1
				],
				"metallicFactor":0,
				"roughnessFactor":0.9200000166893005
			}
		},
		{
			"name":"hexagons_medieval",
			"pbrMetallicRoughness":{
				"baseColorTexture":{
					"index":0
				},
				"metallicFactor":0,
				"roughnessFactor":0.5
			}
		},
		{
			"name":"wood",
			"pbrMetallicRoughness":{
				"baseColorFactor":[
					0.32314321398735046,
					0.1384316086769104,
					0.039546236395835876,
					1
				],
				"metallicFactor":0,
				"roughnessFactor":0.9200000166893005
			}
		},
		{
			"name":"woodDark",
			"pbrMetallicRoughness":{
				"baseColorFactor":[
					0.07618538290262222,
					0.03310476616024971,
					0.014443843625485897,
					1
				],
				"metallicFactor":0,
				"roughnessFactor":0.9200000166893005
			}
		}
	],
	"meshes":[
		{
			"name":"Mesh stone_tallB.050",
			"primitives":[
				{
					"attributes":{
						"POSITION":0,
						"NORMAL":1,
						"TEXCOORD_0":2,
						"COLOR_0":3
					},
					"indices":4,
					"material":0
				},
				{
					"attributes":{
						"POSITION":5,
						"NORMAL":6,
						"TEXCOORD_0":7,
						"COLOR_0":8
					},
					"indices":9,
					"material":1
				},
				{
					"attributes":{
						"POSITION":10,
						"NORMAL":11,
						"TEXCOORD_0":12,
						"COLOR_0":13
					},
					"indices":14,
					"material":2
				},
				{
					"attributes":{
						"POSITION":15,
						"NORMAL":16,
						"TEXCOORD_0":17,
						"COLOR_0":18
					},
					"indices":19,
					"material":3
				},
				{
					"attributes":{
						"POSITION":20,
						"NORMAL":21,
						"TEXCOORD_0":22,
						"COLOR_0":23
					},
					"indices":24,
					"material":4
				},
				{
					"attributes":{
						"POSITION":25,
						"NORMAL":26,
						"TEXCOORD_0":27,
						"COLOR_0":28
					},
					"indices":29,
					"material":5
				},
				{
					"attributes":{
						"POSITION":30,
						"NORMAL":31,
						"TEXCOORD_0":32,
						"COLOR_0":33
					},
					"indices":34,
					"material":6
				},
				{
					"attributes":{
						"POSITION":35,
						"NORMAL":36,
						"TEXCOORD_0":37,
						"COLOR_0":38
					},
					"indices":39,
					"material":7
				},
				{
					"attributes":{
						"POSITION":40,
						"NORMAL":41,
						"TEXCOORD_0":42,
						"COLOR_0":43
					},
					"indices":44,
					"material":8
				},
				{
					"attributes":{
						"POSITION":45,
						"NORMAL":46,
						"TEXCOORD_0":47,
						"COLOR_0":48
					},
					"indices":49,
					"material":9
				},
				{
					"attributes":{
						"POSITION":50,
						"NORMAL":51,
						"TEXCOORD_0":52,
						"COLOR_0":53
					},
					"indices":54,
					"material":10
				},
				{
					"attributes":{
						"POSITION":55,
						"NORMAL":56,
						"TEXCOORD_0":57,
						"COLOR_0":58
					},
					"indices":59,
					"material":11
				},
				{
					"attributes":{
						"POSITION":60,
						"NORMAL":61,
						"TEXCOORD_0":62,
						"COLOR_0":63
					},
					"indices":64,
					"material":12
				},
				{
					"attributes":{
						"POSITION":65,
						"NORMAL":66,
						"TEXCOORD_0":67,
						"COLOR_0":68
					},
					"indices":69,
					"material":13
				}
			]
		}
	],
	"textures":[
		{
			"sampler":0,
			"source":0
		}
	],
	"images":[
		{
			"mimeType":"image/png",
			"name":"hexagons_medieval",
			"uri":"textures/hexagons_medieval.png"
		}
	],
	"accessors":[
		{
			"bufferView":0,
			"componentType":5126,
			"count":250,
			"max":[
				0.3823942244052887,
				0.8837795853614807,
				0.3850187063217163
			],
			"min":[
				-0.3823942244052887,
				-5.414335713407566e-16,
				-0.3850187063217163
			],
			"type":"VEC3"
		},
		{
			"bufferView":1,
			"componentType":5126,
			"count":250,
			"type":"VEC3"
		},
		{
			"bufferView":2,
			"componentType":5126,
			"count":250,
			"type":"VEC2"
		},
		{
			"bufferView":3,
			"componentType":5123,
			"count":250,
			"normalized":true,
			"type":"VEC4"
		},
		{
			"bufferView":4,
			"componentType":5123,
			"count":456,
			"type":"SCALAR"
		},
		{
			"bufferView":5,
			"componentType":5126,
			"count":113,
			"max":[
				5.498781204223633,
				2.090705394744873,
				0.3850187063217163
			],
			"min":[
				-0.3823942244052887,
				-5.414335713407566e-16,
				-10.048151016235352
			],
			"type":"VEC3"
		},
		{
			"bufferView":6,
			"componentType":5126,
			"count":113,
			"type":"VEC3"
		},
		{
			"bufferView":7,
			"componentType":5126,
			"count":113,
			"type":"VEC2"
		},
		{
			"bufferView":8,
			"componentType":5123,
			"count":113,
			"normalized":true,
			"type":"VEC4"
		},
		{
			"bufferView":9,
			"componentType":5123,
			"count":114,
			"type":"SCALAR"
		},
		{
			"bufferView":10,
			"componentType":5126,
			"count":1259,
			"max":[
				4.356199741363525,
				3.1250271797180176,
				-2.800405740737915
			],
			"min":[
				-0.1675242781639099,
				1.4200079441070557,
				-10.450533866882324
			],
			"type":"VEC3"
		},
		{
			"bufferView":11,
			"componentType":5126,
			"count":1259,
			"type":"VEC3"
		},
		{
			"bufferView":12,
			"componentType":5126,
			"count":1259,
			"type":"VEC2"
		},
		{
			"bufferView":13,
			"componentType":5123,
			"count":1259,
			"normalized":true,
			"type":"VEC4"
		},
		{
			"bufferView":14,
			"componentType":5123,
			"count":1800,
			"type":"SCALAR"
		},
		{
			"bufferView":15,
			"componentType":5126,
			"count":628,
			"max":[
				4.232268810272217,
				2.4331705570220947,
				-3.15628719329834
			],
			"min":[
				0.14870433509349823,
				0.40792885422706604,
				-10.314696311950684
			],
			"type":"VEC3"
		},
		{
			"bufferView":16,
			"componentType":5126,
			"count":628,
			"type":"VEC3"
		},
		{
			"bufferView":17,
			"componentType":5126,
			"count":628,
			"type":"VEC2"
		},
		{
			"bufferView":18,
			"componentType":5123,
			"count":628,
			"normalized":true,
			"type":"VEC4"
		},
		{
			"bufferView":19,
			"componentType":5123,
			"count":942,
			"type":"SCALAR"
		},
		{
			"bufferView":20,
			"componentType":5126,
			"count":4760,
			"max":[
				6.49151086807251,
				4.05382776260376,
				2.4800050258636475
			],
			"min":[
				0.04457962512969971,
				0.13294148445129395,
				-10.661544799804688
			],
			"type":"VEC3"
		},
		{
			"bufferView":21,
			"componentType":5126,
			"count":4760,
			"type":"VEC3"
		},
		{
			"bufferView":22,
			"componentType":5126,
			"count":4760,
			"type":"VEC2"
		},
		{
			"bufferView":23,
			"componentType":5123,
			"count":4760,
			"normalized":true,
			"type":"VEC4"
		},
		{
			"bufferView":24,
			"componentType":5123,
			"count":7578,
			"type":"SCALAR"
		},
		{
			"bufferView":25,
			"componentType":5126,
			"count":2376,
			"max":[
				6.593700885772705,
				4.05382776260376,
				2.4800050258636475
			],
			"min":[
				0.04457962512969971,
				1.3138155937194824,
				-10.771136283874512
			],
			"type":"VEC3"
		},
		{
			"bufferView":26,
			"componentType":5126,
			"count":2376,
			"type":"VEC3"
		},
		{
			"bufferView":27,
			"componentType":5126,
			"count":2376,
			"type":"VEC2"
		},
		{
			"bufferView":28,
			"componentType":5123,
			"count":2376,
			"normalized":true,
			"type":"VEC4"
		},
		{
			"bufferView":29,
			"componentType":5123,
			"count":3612,
			"type":"SCALAR"
		},
		{
			"bufferView":30,
			"componentType":5126,
			"count":385,
			"max":[
				2.245116710662842,
				2.0674915313720703,
				0.6232631802558899
			],
			"min":[
				-0.23731845617294312,
				0.08561758697032928,
				-8.083089828491211
			],
			"type":"VEC3"
		},
		{
			"bufferView":31,
			"componentType":5126,
			"count":385,
			"type":"VEC3"
		},
		{
			"bufferView":32,
			"componentType":5126,
			"count":385,
			"type":"VEC2"
		},
		{
			"bufferView":33,
			"componentType":5123,
			"count":385,
			"normalized":true,
			"type":"VEC4"
		},
		{
			"bufferView":34,
			"componentType":5123,
			"count":612,
			"type":"SCALAR"
		},
		{
			"bufferView":35,
			"componentType":5126,
			"count":2476,
			"max":[
				13.217702865600586,
				3.172637701034546,
				3.351473569869995
			],
			"min":[
				-0.581653356552124,
				0.1977187544107437,
				-9.78842830657959
			],
			"type":"VEC3"
		},
		{
			"bufferView":36,
			"componentType":5126,
			"count":2476,
			"type":"VEC3"
		},
		{
			"bufferView":37,
			"componentType":5126,
			"count":2476,
			"type":"VEC2"
		},
		{
			"bufferView":38,
			"componentType":5123,
			"count":2476,
			"normalized":true,
			"type":"VEC4"
		},
		{
			"bufferView":39,
			"componentType":5123,
			"count":4182,
			"type":"SCALAR"
		},
		{
			"bufferView":40,
			"componentType":5126,
			"count":41077,
			"max":[
				12.846285820007324,
				1.5480842590332031,
				3.817852258682251
			],
			"min":[
				-0.5400511026382446,
				0.15381376445293427,
				-11.424304962158203
			],
			"type":"VEC3"
		},
		{
			"bufferView":41,
			"componentType":5126,
			"count":41077,
			"type":"VEC3"
		},
		{
			"bufferView":42,
			"componentType":5126,
			"count":41077,
			"type":"VEC2"
		},
		{
			"bufferView":43,
			"componentType":5123,
			"count":41077,
			"normalized":true,
			"type":"VEC4"
		},
		{
			"bufferView":44,
			"componentType":5123,
			"count":53673,
			"type":"SCALAR"
		},
		{
			"bufferView":45,
			"componentType":5126,
			"count":51,
			"max":[
				0.27246785163879395,
				1.2343430519104004,
				-1.7250478267669678
			],
			"min":[
				-0.13299167156219482,
				0.2566351890563965,
				-2.301685333251953
			],
			"type":"VEC3"
		},
		{
			"bufferView":46,
			"componentType":5126,
			"count":51,
			"type":"VEC3"
		},
		{
			"bufferView":47,
			"componentType":5126,
			"count":51,
			"type":"VEC2"
		},
		{
			"bufferView":48,
			"componentType":5123,
			"count":51,
			"normalized":true,
			"type":"VEC4"
		},
		{
			"bufferView":49,
			"componentType":5123,
			"count":81,
			"type":"SCALAR"
		},
		{
			"bufferView":50,
			"componentType":5126,
			"count":88,
			"max":[
				4.616028308868408,
				1.5128871202468872,
				-8.819415092468262
			],
			"min":[
				4.196192264556885,
				0.9938862919807434,
				-9.256497383117676
			],
			"type":"VEC3"
		},
		{
			"bufferView":51,
			"componentType":5126,
			"count":88,
			"type":"VEC3"
		},
		{
			"bufferView":52,
			"componentType":5126,
			"count":88,
			"type":"VEC2"
		},
		{
			"bufferView":53,
			"componentType":5123,
			"count":88,
			"normalized":true,
			"type":"VEC4"
		},
		{
			"bufferView":54,
			"componentType":5123,
			"count":126,
			"type":"SCALAR"
		},
		{
			"bufferView":55,
			"componentType":5126,
			"count":15638,
			"max":[
				16.546924591064453,
				3.706252336502075,
				3.7240848541259766
			],
			"min":[
				1.9319956302642822,
				0.18946269154548645,
				-9.393684387207031
			],
			"type":"VEC3"
		},
		{
			"bufferView":56,
			"componentType":5126,
			"count":15638,
			"type":"VEC3"
		},
		{
			"bufferView":57,
			"componentType":5126,
			"count":15638,
			"type":"VEC2"
		},
		{
			"bufferView":58,
			"componentType":5123,
			"count":15638,
			"normalized":true,
			"type":"VEC4"
		},
		{
			"bufferView":59,
			"componentType":5123,
			"count":28950,
			"type":"SCALAR"
		},
		{
			"bufferView":60,
			"componentType":5126,
			"count":404,
			"max":[
				11.659770011901855,
				1.2502738237380981,
				1.8831095695495605
			],
			"min":[
				5.447176456451416,
				0.2836627960205078,
				-5.899933338165283
			],
			"type":"VEC3"
		},
		{
			"bufferView":61,
			"componentType":5126,
			"count":404,
			"type":"VEC3"
		},
		{
			"bufferView":62,
			"componentType":5126,
			"count":404,
			"type":"VEC2"
		},
		{
			"bufferView":63,
			"componentType":5123,
			"count":404,
			"normalized":true,
			"type":"VEC4"
		},
		{
			"bufferView":64,
			"componentType":5123,
			"count":672,
			"type":"SCALAR"
		},
		{
			"bufferView":65,
			"componentType":5126,
			"count":66,
			"max":[
				11.552362442016602,
				1.1560170650482178,
				1.7750905752182007
			],
			"min":[
				5.479588031768799,
				0.38078734278678894,
				-5.840151309967041
			],
			"type":"VEC3"
		},
		{
			"bufferView":66,
			"componentType":5126,
			"count":66,
			"type":"VEC3"
		},
		{
			"bufferView":67,
			"componentType":5126,
			"count":66,
			"type":"VEC2"
		},
		{
			"bufferView":68,
			"componentType":5123,
			"count":66,
			"normalized":true,
			"type":"VEC4"
		},
		{
			"bufferView":69,
			"componentType":5123,
			"count":96,
			"type":"SCALAR"
		}
	],
	"bufferViews":[
		{
			"buffer":0,
			"byteLength":3000,
			"byteOffset":0,
			"target":34962
		},
		{
			"buffer":0,
			"byteLength":3000,
			"byteOffset":3000,
			"target":34962
		},
		{
			"buffer":0,
			"byteLength":2000,
			"byteOffset":6000,
			"target":34962
		},
		{
			"buffer":0,
			"byteLength":2000,
			"byteOffset":8000,
			"target":34962
		},
		{
			"buffer":0,
			"byteLength":912,
			"byteOffset":10000,
			"target":34963
		},
		{
			"buffer":0,
			"byteLength":1356,
			"byteOffset":10912,
			"target":34962
		},
		{
			"buffer":0,
			"byteLength":1356,
			"byteOffset":12268,
			"target":34962
		},
		{
			"buffer":0,
			"byteLength":904,
			"byteOffset":13624,
			"target":34962
		},
		{
			"buffer":0,
			"byteLength":904,
			"byteOffset":14528,
			"target":34962
		},
		{
			"buffer":0,
			"byteLength":228,
			"byteOffset":15432,
			"target":34963
		},
		{
			"buffer":0,
			"byteLength":15108,
			"byteOffset":15660,
			"target":34962
		},
		{
			"buffer":0,
			"byteLength":15108,
			"byteOffset":30768,
			"target":34962
		},
		{
			"buffer":0,
			"byteLength":10072,
			"byteOffset":45876,
			"target":34962
		},
		{
			"buffer":0,
			"byteLength":10072,
			"byteOffset":55948,
			"target":34962
		},
		{
			"buffer":0,
			"byteLength":3600,
			"byteOffset":66020,
			"target":34963
		},
		{
			"buffer":0,
			"byteLength":7536,
			"byteOffset":69620,
			"target":34962
		},
		{
			"buffer":0,
			"byteLength":7536,
			"byteOffset":77156,
			"target":34962
		},
		{
			"buffer":0,
			"byteLength":5024,
			"byteOffset":84692,
			"target":34962
		},
		{
			"buffer":0,
			"byteLength":5024,
			"byteOffset":89716,
			"target":34962
		},
		{
			"buffer":0,
			"byteLength":1884,
			"byteOffset":94740,
			"target":34963
		},
		{
			"buffer":0,
			"byteLength":57120,
			"byteOffset":96624,
			"target":34962
		},
		{
			"buffer":0,
			"byteLength":57120,
			"byteOffset":153744,
			"target":34962
		},
		{
			"buffer":0,
			"byteLength":38080,
			"byteOffset":210864,
			"target":34962
		},
		{
			"buffer":0,
			"byteLength":38080,
			"byteOffset":248944,
			"target":34962
		},
		{
			"buffer":0,
			"byteLength":15156,
			"byteOffset":287024,
			"target":34963
		},
		{
			"buffer":0,
			"byteLength":28512,
			"byteOffset":302180,
			"target":34962
		},
		{
			"buffer":0,
			"byteLength":28512,
			"byteOffset":330692,
			"target":34962
		},
		{
			"buffer":0,
			"byteLength":19008,
			"byteOffset":359204,
			"target":34962
		},
		{
			"buffer":0,
			"byteLength":19008,
			"byteOffset":378212,
			"target":34962
		},
		{
			"buffer":0,
			"byteLength":7224,
			"byteOffset":397220,
			"target":34963
		},
		{
			"buffer":0,
			"byteLength":4620,
			"byteOffset":404444,
			"target":34962
		},
		{
			"buffer":0,
			"byteLength":4620,
			"byteOffset":409064,
			"target":34962
		},
		{
			"buffer":0,
			"byteLength":3080,
			"byteOffset":413684,
			"target":34962
		},
		{
			"buffer":0,
			"byteLength":3080,
			"byteOffset":416764,
			"target":34962
		},
		{
			"buffer":0,
			"byteLength":1224,
			"byteOffset":419844,
			"target":34963
		},
		{
			"buffer":0,
			"byteLength":29712,
			"byteOffset":421068,
			"target":34962
		},
		{
			"buffer":0,
			"byteLength":29712,
			"byteOffset":450780,
			"target":34962
		},
		{
			"buffer":0,
			"byteLength":19808,
			"byteOffset":480492,
			"target":34962
		},
		{
			"buffer":0,
			"byteLength":19808,
			"byteOffset":500300,
			"target":34962
		},
		{
			"buffer":0,
			"byteLength":8364,
			"byteOffset":520108,
			"target":34963
		},
		{
			"buffer":0,
			"byteLength":492924,
			"byteOffset":528472,
			"target":34962
		},
		{
			"buffer":0,
			"byteLength":492924,
			"byteOffset":1021396,
			"target":34962
		},
		{
			"buffer":0,
			"byteLength":328616,
			"byteOffset":1514320,
			"target":34962
		},
		{
			"buffer":0,
			"byteLength":328616,
			"byteOffset":1842936,
			"target":34962
		},
		{
			"buffer":0,
			"byteLength":107346,
			"byteOffset":2171552,
			"target":34963
		},
		{
			"buffer":0,
			"byteLength":612,
			"byteOffset":2278900,
			"target":34962
		},
		{
			"buffer":0,
			"byteLength":612,
			"byteOffset":2279512,
			"target":34962
		},
		{
			"buffer":0,
			"byteLength":408,
			"byteOffset":2280124,
			"target":34962
		},
		{
			"buffer":0,
			"byteLength":408,
			"byteOffset":2280532,
			"target":34962
		},
		{
			"buffer":0,
			"byteLength":162,
			"byteOffset":2280940,
			"target":34963
		},
		{
			"buffer":0,
			"byteLength":1056,
			"byteOffset":2281104,
			"target":34962
		},
		{
			"buffer":0,
			"byteLength":1056,
			"byteOffset":2282160,
			"target":34962
		},
		{
			"buffer":0,
			"byteLength":704,
			"byteOffset":2283216,
			"target":34962
		},
		{
			"buffer":0,
			"byteLength":704,
			"byteOffset":2283920,
			"target":34962
		},
		{
			"buffer":0,
			"byteLength":252,
			"byteOffset":2284624,
			"target":34963
		},
		{
			"buffer":0,
			"byteLength":187656,
			"byteOffset":2284876,
			"target":34962
		},
		{
			"buffer":0,
			"byteLength":187656,
			"byteOffset":2472532,
			"target":34962
		},
		{
			"buffer":0,
			"byteLength":125104,
			"byteOffset":2660188,
			"target":34962
		},
		{
			"buffer":0,
			"byteLength":125104,
			"byteOffset":2785292,
			"target":34962
		},
		{
			"buffer":0,
			"byteLength":57900,
			"byteOffset":2910396,
			"target":34963
		},
		{
			"buffer":0,
			"byteLength":4848,
			"byteOffset":2968296,
			"target":34962
		},
		{
			"buffer":0,
			"byteLength":4848,
			"byteOffset":2973144,
			"target":34962
		},
		{
			"buffer":0,
			"byteLength":3232,
			"byteOffset":2977992,
			"target":34962
		},
		{
			"buffer":0,
			"byteLength":3232,
			"byteOffset":2981224,
			"target":34962
		},
		{
			"buffer":0,
			"byteLength":1344,
			"byteOffset":2984456,
			"target":34963
		},
		{
			"buffer":0,
			"byteLength":792,
			"byteOffset":2985800,
			"target":34962
		},
		{
			"buffer":0,
			"byteLength":792,
			"byteOffset":2986592,
			"target":34962
		},
		{
			"buffer":0,
			"byteLength":528,
			"byteOffset":2987384,
			"target":34962
		},
		{
			"buffer":0,
			"byteLength":528,
			"byteOffset":2987912,
			"target":34962
		},
		{
			"buffer":0,
			"byteLength":192,
			"byteOffset":2988440,
			"target":34963
		}
	],
	"samplers":[
		{
			"magFilter":9729,
			"minFilter":9987
		}
	],
	"buffers":[
		{
			"byteLength":2988632,
			"uri":"cell_x2_z-1_render.bin"
		}
	]
}
