{
	"asset":{
		"generator":"Khronos glTF Blender I/O v4.5.51",
		"version":"2.0"
	},
	"scene":0,
	"scenes":[
		{
			"name":"Scene",
			"nodes":[
				0
			]
		}
	],
	"nodes":[
		{
			"mesh":0,
			"name":"cell_x2_z-3",
			"rotation":[
				-0.004220408853143454,
				0.8037576079368591,
				0.005701970774680376,
				0.5949146747589111
			],
			"scale":[
				2.605499267578125,
				2.605499267578125,
				2.605499267578125
			],
			"translation":[
				109.81947326660156,
				1.9604668617248535,
				-81.95950317382812
			]
		}
	],
	"materials":[
		{
			"name":"stone_v2",
			"pbrMetallicRoughness":{
				"baseColorFactor":[
					0.38132601976394653,
					0.38132601976394653,
					0.3324515223503113,
					1
				],
				"metallicFactor":0,
				"roughnessFactor":0.9200000166893005
			}
		},
		{
			"name":"leafsDark",
			"pbrMetallicRoughness":{
				"baseColorFactor":[
					0.04817182570695877,
					0.11443537473678589,
					0.03310476616024971,
					1
				],
				"metallicFactor":0,
				"roughnessFactor":0.9200000166893005
			}
		},
		{
			"name":"woodBarkDark",
			"pbrMetallicRoughness":{
				"baseColorFactor":[
					0.11443537473678589,
					0.04666508734226227,
					0.016807375475764275,
					1
				],
				"metallicFactor":0,
				"roughnessFactor":0.9200000166893005
			}
		},
		{
			"name":"grass",
			"pbrMetallicRoughness":{
				"baseColorFactor":[
					0.15592646598815918,
					0.2961382567882538,
					0.0802198201417923,
					1
				],
				"metallicFactor":0,
				"roughnessFactor":0.9200000166893005
			}
		},
		{
			"name":"colorYellow",
			"pbrMetallicRoughness":{
				"baseColorFactor":[
					0.5840784311294556,
					0.3613067865371704,
					0.07618538290262222,
					1
				],
				"metallicFactor":0,
				"roughnessFactor":0.9200000166893005
			}
		},
		{
			"name":"leafsGreen",
			"pbrMetallicRoughness":{
				"baseColorFactor":[
					0.11443537473678589,
					0.23074005544185638,
					0.06301001459360123,
					1
				],
				"metallicFactor":0,
				"roughnessFactor":0.9200000166893005
			}
		}
	],
	"meshes":[
		{
			"name":"Mesh stone_largeC.053",
			"primitives":[
				{
					"attributes":{
						"POSITION":0,
						"NORMAL":1,
						"TEXCOORD_0":2
					},
					"indices":3,
					"material":0
				},
				{
					"attributes":{
						"POSITION":4,
						"NORMAL":5,
						"TEXCOORD_0":6
					},
					"indices":7,
					"material":1
				},
				{
					"attributes":{
						"POSITION":8,
						"NORMAL":9,
						"TEXCOORD_0":10
					},
					"indices":11,
					"material":2
				},
				{
					"attributes":{
						"POSITION":12,
						"NORMAL":13,
						"TEXCOORD_0":14
					},
					"indices":15,
					"material":3
				},
				{
					"attributes":{
						"POSITION":16,
						"NORMAL":17,
						"TEXCOORD_0":18
					},
					"indices":19,
					"material":4
				},
				{
					"attributes":{
						"POSITION":20,
						"NORMAL":21,
						"TEXCOORD_0":22
					},
					"indices":23,
					"material":5
				}
			]
		}
	],
	"accessors":[
		{
			"bufferView":0,
			"componentType":5126,
			"count":132,
			"max":[
				0.5322049260139465,
				0.3211120069026947,
				0.5078310370445251
			],
			"min":[
				-0.5322049260139465,
				-2.707167856703783e-16,
				-0.5078310370445251
			],
			"type":"VEC3"
		},
		{
			"bufferView":1,
			"componentType":5126,
			"count":132,
			"type":"VEC3"
		},
		{
			"bufferView":2,
			"componentType":5126,
			"count":132,
			"type":"VEC2"
		},
		{
			"bufferView":3,
			"componentType":5123,
			"count":216,
			"type":"SCALAR"
		},
		{
			"bufferView":4,
			"componentType":5126,
			"count":395,
			"max":[
				3.0654959678649902,
				2.9403727054595947,
				-2.0321621894836426
			],
			"min":[
				-0.01126950979232788,
				-0.12903279066085815,
				-7.871860980987549
			],
			"type":"VEC3"
		},
		{
			"bufferView":5,
			"componentType":5126,
			"count":395,
			"type":"VEC3"
		},
		{
			"bufferView":6,
			"componentType":5126,
			"count":395,
			"type":"VEC2"
		},
		{
			"bufferView":7,
			"componentType":5123,
			"count":726,
			"type":"SCALAR"
		},
		{
			"bufferView":8,
			"componentType":5126,
			"count":128,
			"max":[
				2.5902767181396484,
				1.7330446243286133,
				-2.3834617137908936
			],
			"min":[
				0.2757304906845093,
				-0.4606221616268158,
				-7.33779239654541
			],
			"type":"VEC3"
		},
		{
			"bufferView":9,
			"componentType":5126,
			"count":128,
			"type":"VEC3"
		},
		{
			"bufferView":10,
			"componentType":5126,
			"count":128,
			"type":"VEC2"
		},
		{
			"bufferView":11,
			"componentType":5123,
			"count":180,
			"type":"SCALAR"
		},
		{
			"bufferView":12,
			"componentType":5126,
			"count":3040,
			"max":[
				3.4067728519439697,
				0.7767587900161743,
				2.9294209480285645
			],
			"min":[
				-1.4247791767120361,
				-1.1939927339553833,
				-10.373214721679688
			],
			"type":"VEC3"
		},
		{
			"bufferView":13,
			"componentType":5126,
			"count":3040,
			"type":"VEC3"
		},
		{
			"bufferView":14,
			"componentType":5126,
			"count":3040,
			"type":"VEC2"
		},
		{
			"bufferView":15,
			"componentType":5123,
			"count":4080,
			"type":"SCALAR"
		},
		{
			"bufferView":16,
			"componentType":5126,
			"count":143,
			"max":[
				-1.1923879384994507,
				0.06554147601127625,
				2.6440036296844482
			],
			"min":[
				-1.3818622827529907,
				-0.1660531908273697,
				2.4292843341827393
			],
			"type":"VEC3"
		},
		{
			"bufferView":17,
			"componentType":5126,
			"count":143,
			"type":"VEC3"
		},
		{
			"bufferView":18,
			"componentType":5126,
			"count":143,
			"type":"VEC2"
		},
		{
			"bufferView":19,
			"componentType":5123,
			"count":270,
			"type":"SCALAR"
		},
		{
			"bufferView":20,
			"componentType":5126,
			"count":120,
			"max":[
				0.8460007309913635,
				0.638964056968689,
				0.048971980810165405
			],
			"min":[
				0.25177404284477234,
				0.2820087671279907,
				-1.1629645824432373
			],
			"type":"VEC3"
		},
		{
			"bufferView":21,
			"componentType":5126,
			"count":120,
			"type":"VEC3"
		},
		{
			"bufferView":22,
			"componentType":5126,
			"count":120,
			"type":"VEC2"
		},
		{
			"bufferView":23,
			"componentType":5123,
			"count":264,
			"type":"SCALAR"
		}
	],
	"bufferViews":[
		{
			"buffer":0,
			"byteLength":1584,
			"byteOffset":0,
			"target":34962
		},
		{
			"buffer":0,
			"byteLength":1584,
			"byteOffset":1584,
			"target":34962
		},
		{
			"buffer":0,
			"byteLength":1056,
			"byteOffset":3168,
			"target":34962
		},
		{
			"buffer":0,
			"byteLength":432,
			"byteOffset":4224,
			"target":34963
		},
		{
			"buffer":0,
			"byteLength":4740,
			"byteOffset":4656,
			"target":34962
		},
		{
			"buffer":0,
			"byteLength":4740,
			"byteOffset":9396,
			"target":34962
		},
		{
			"buffer":0,
			"byteLength":3160,
			"byteOffset":14136,
			"target":34962
		},
		{
			"buffer":0,
			"byteLength":1452,
			"byteOffset":17296,
			"target":34963
		},
		{
			"buffer":0,
			"byteLength":1536,
			"byteOffset":18748,
			"target":34962
		},
		{
			"buffer":0,
			"byteLength":1536,
			"byteOffset":20284,
			"target":34962
		},
		{
			"buffer":0,
			"byteLength":1024,
			"byteOffset":21820,
			"target":34962
		},
		{
			"buffer":0,
			"byteLength":360,
			"byteOffset":22844,
			"target":34963
		},
		{
			"buffer":0,
			"byteLength":36480,
			"byteOffset":23204,
			"target":34962
		},
		{
			"buffer":0,
			"byteLength":36480,
			"byteOffset":59684,
			"target":34962
		},
		{
			"buffer":0,
			"byteLength":24320,
			"byteOffset":96164,
			"target":34962
		},
		{
			"buffer":0,
			"byteLength":8160,
			"byteOffset":120484,
			"target":34963
		},
		{
			"buffer":0,
			"byteLength":1716,
			"byteOffset":128644,
			"target":34962
		},
		{
			"buffer":0,
			"byteLength":1716,
			"byteOffset":130360,
			"target":34962
		},
		{
			"buffer":0,
			"byteLength":1144,
			"byteOffset":132076,
			"target":34962
		},
		{
			"buffer":0,
			"byteLength":540,
			"byteOffset":133220,
			"target":34963
		},
		{
			"buffer":0,
			"byteLength":1440,
			"byteOffset":133760,
			"target":34962
		},
		{
			"buffer":0,
			"byteLength":1440,
			"byteOffset":135200,
			"target":34962
		},
		{
			"buffer":0,
			"byteLength":960,
			"byteOffset":136640,
			"target":34962
		},
		{
			"buffer":0,
			"byteLength":528,
			"byteOffset":137600,
			"target":34963
		}
	],
	"buffers":[
		{
			"byteLength":138128,
			"uri":"cell_x2_z-3_render.bin"
		}
	]
}
