{
	"asset":{
		"generator":"Khronos glTF Blender I/O v4.5.51",
		"version":"2.0"
	},
	"scene":0,
	"scenes":[
		{
			"name":"Scene",
			"nodes":[
				0
			]
		}
	],
	"nodes":[
		{
			"mesh":0,
			"name":"cell_x-1_z-3",
			"rotation":[
				0,
				-0.9160560965538025,
				0,
				0.4010501205921173
			],
			"scale":[
				1.3491942882537842,
				1.3491942882537842,
				1.3491942882537842
			],
			"translation":[
				-1.8459229469299316,
				19.093914031982422,
				-94
			]
		}
	],
	"materials":[
		{
			"doubleSided":true,
			"name":"sol_falaise",
			"normalTexture":{
				"index":0,
				"scale":0.800000011920929
			},
			"pbrMetallicRoughness":{
				"baseColorFactor":[
					0.6514056324958801,
					0.6104955673217773,
					0.5149176716804504,
					1
				],
				"baseColorTexture":{
					"index":1
				},
				"metallicFactor":0,
				"roughnessFactor":0.949999988079071
			}
		},
		{
			"name":"dirt_v2",
			"pbrMetallicRoughness":{
				"baseColorFactor":[
					0.38132601976394653,
					0.30054378509521484,
					0.1946178376674652,
					1
				],
				"metallicFactor":0,
				"roughnessFactor":0.9200000166893005
			}
		},
		{
			"name":"grass",
			"pbrMetallicRoughness":{
				"baseColorFactor":[
					0.15592646598815918,
					0.2961382567882538,
					0.0802198201417923,
					1
				],
				"metallicFactor":0,
				"roughnessFactor":0.9200000166893005
			}
		},
		{
			"name":"stone_v0",
			"pbrMetallicRoughness":{
				"baseColorFactor":[
					0.32314321398735046,
					0.35153260827064514,
					0.3613067865371704,
					1
				],
				"metallicFactor":0,
				"roughnessFactor":0.9200000166893005
			}
		},
		{
			"name":"stone_v3",
			"pbrMetallicRoughness":{
				"baseColorFactor":[
					0.20863686501979828,
					0.2462013214826584,
					0.2622506618499756,
					1
				],
				"metallicFactor":0,
				"roughnessFactor":0.9200000166893005
			}
		},
		{
			"name":"leafsGreen",
			"pbrMetallicRoughness":{
				"baseColorFactor":[
					0.11443537473678589,
					0.23074005544185638,
					0.06301001459360123,
					1
				],
				"metallicFactor":0,
				"roughnessFactor":0.9200000166893005
			}
		},
		{
			"name":"woodBark",
			"pbrMetallicRoughness":{
				"baseColorFactor":[
					0.2015562504529953,
					0.08437620848417282,
					0.02955683507025242,
					1
				],
				"metallicFactor":0,
				"roughnessFactor":0.9200000166893005
			}
		},
		{
			"name":"woodBarkDark",
			"pbrMetallicRoughness":{
				"baseColorFactor":[
					0.11443537473678589,
					0.04666508734226227,
					0.016807375475764275,
					1
				],
				"metallicFactor":0,
				"roughnessFactor":0.9200000166893005
			}
		},
		{
			"name":"leafsDark",
			"pbrMetallicRoughness":{
				"baseColorFactor":[
					0.04817182570695877,
					0.11443537473678589,
					0.03310476616024971,
					1
				],
				"metallicFactor":0,
				"roughnessFactor":0.9200000166893005
			}
		},
		{
			"name":"_defaultMat",
			"pbrMetallicRoughness":{
				"baseColorFactor":[
					0.4564110338687897,
					0.4564110338687897,
					0.4125426113605499,
					1
				],
				"metallicFactor":0,
				"roughnessFactor":0.9200000166893005
			}
		},
		{
			"name":"colorYellow",
			"pbrMetallicRoughness":{
				"baseColorFactor":[
					0.5840784311294556,
					0.3613067865371704,
					0.07618538290262222,
					1
				],
				"metallicFactor":0,
				"roughnessFactor":0.9200000166893005
			}
		},
		{
			"name":"stone_v1",
			"pbrMetallicRoughness":{
				"baseColorFactor":[
					0.2541520893573761,
					0.28744083642959595,
					0.3049873113632202,
					1
				],
				"metallicFactor":0,
				"roughnessFactor":0.9200000166893005
			}
		},
		{
			"name":"stone_v2",
			"pbrMetallicRoughness":{
				"baseColorFactor":[
					0.38132601976394653,
					0.38132601976394653,
					0.3324515223503113,
					1
				],
				"metallicFactor":0,
				"roughnessFactor":0.9200000166893005
			}
		}
	],
	"meshes":[
		{
			"name":"SM_ENV_cliff_castle_02_instantmeshesexp_02.010",
			"primitives":[
				{
					"attributes":{
						"POSITION":0,
						"NORMAL":1,
						"TEXCOORD_0":2,
						"TEXCOORD_1":3,
						"COLOR_0":4
					},
					"indices":5,
					"material":0
				},
				{
					"attributes":{
						"POSITION":6,
						"NORMAL":7,
						"TEXCOORD_0":8,
						"TEXCOORD_1":9,
						"COLOR_0":10
					},
					"indices":11,
					"material":1
				},
				{
					"attributes":{
						"POSITION":12,
						"NORMAL":13,
						"TEXCOORD_0":14,
						"TEXCOORD_1":15,
						"COLOR_0":16
					},
					"indices":17,
					"material":2
				},
				{
					"attributes":{
						"POSITION":18,
						"NORMAL":19,
						"TEXCOORD_0":20,
						"TEXCOORD_1":21,
						"COLOR_0":22
					},
					"indices":23,
					"material":3
				},
				{
					"attributes":{
						"POSITION":24,
						"NORMAL":25,
						"TEXCOORD_0":26,
						"TEXCOORD_1":27,
						"COLOR_0":28
					},
					"indices":29,
					"material":4
				},
				{
					"attributes":{
						"POSITION":30,
						"NORMAL":31,
						"TEXCOORD_0":32,
						"TEXCOORD_1":33,
						"COLOR_0":34
					},
					"indices":35,
					"material":5
				},
				{
					"attributes":{
						"POSITION":36,
						"NORMAL":37,
						"TEXCOORD_0":38,
						"TEXCOORD_1":39,
						"COLOR_0":40
					},
					"indices":41,
					"material":6
				},
				{
					"attributes":{
						"POSITION":42,
						"NORMAL":43,
						"TEXCOORD_0":44,
						"TEXCOORD_1":45,
						"COLOR_0":46
					},
					"indices":47,
					"material":7
				},
				{
					"attributes":{
						"POSITION":48,
						"NORMAL":49,
						"TEXCOORD_0":50,
						"TEXCOORD_1":51,
						"COLOR_0":52
					},
					"indices":53,
					"material":8
				},
				{
					"attributes":{
						"POSITION":54,
						"NORMAL":55,
						"TEXCOORD_0":56,
						"TEXCOORD_1":57,
						"COLOR_0":58
					},
					"indices":59,
					"material":9
				},
				{
					"attributes":{
						"POSITION":60,
						"NORMAL":61,
						"TEXCOORD_0":62,
						"TEXCOORD_1":63,
						"COLOR_0":64
					},
					"indices":65,
					"material":10
				},
				{
					"attributes":{
						"POSITION":66,
						"NORMAL":67,
						"TEXCOORD_0":68,
						"TEXCOORD_1":69,
						"COLOR_0":70
					},
					"indices":71,
					"material":11
				},
				{
					"attributes":{
						"POSITION":72,
						"NORMAL":73,
						"TEXCOORD_0":74,
						"TEXCOORD_1":75,
						"COLOR_0":76
					},
					"indices":77,
					"material":12
				}
			]
		}
	],
	"textures":[
		{
			"sampler":0,
			"source":0
		},
		{
			"sampler":0,
			"source":1
		}
	],
	"images":[
		{
			"mimeType":"image/png",
			"name":"cliff_n",
			"uri":"textures/cliff_n.png"
		},
		{
			"mimeType":"image/png",
			"name":"stone_bc",
			"uri":"textures/stone_bc.png"
		}
	],
	"accessors":[
		{
			"bufferView":0,
			"componentType":5126,
			"count":22375,
			"max":[
				20.402612686157227,
				7.8624796867370605,
				22.390369415283203
			],
			"min":[
				-5.224124431610107,
				-12.855810165405273,
				-3.7081243991851807
			],
			"type":"VEC3"
		},
		{
			"bufferView":1,
			"componentType":5126,
			"count":22375,
			"type":"VEC3"
		},
		{
			"bufferView":2,
			"componentType":5126,
			"count":22375,
			"type":"VEC2"
		},
		{
			"bufferView":3,
			"componentType":5126,
			"count":22375,
			"type":"VEC2"
		},
		{
			"bufferView":4,
			"componentType":5123,
			"count":22375,
			"normalized":true,
			"type":"VEC4"
		},
		{
			"bufferView":5,
			"componentType":5123,
			"count":115731,
			"type":"SCALAR"
		},
		{
			"bufferView":6,
			"componentType":5126,
			"count":285,
			"max":[
				22.431360244750977,
				-11.964704513549805,
				14.79464340209961
			],
			"min":[
				16.00482749938965,
				-13.933441162109375,
				12.298585891723633
			],
			"type":"VEC3"
		},
		{
			"bufferView":7,
			"componentType":5126,
			"count":285,
			"type":"VEC3"
		},
		{
			"bufferView":8,
			"componentType":5126,
			"count":285,
			"type":"VEC2"
		},
		{
			"bufferView":9,
			"componentType":5126,
			"count":285,
			"type":"VEC2"
		},
		{
			"bufferView":10,
			"componentType":5123,
			"count":285,
			"normalized":true,
			"type":"VEC4"
		},
		{
			"bufferView":11,
			"componentType":5123,
			"count":399,
			"type":"SCALAR"
		},
		{
			"bufferView":12,
			"componentType":5126,
			"count":2901,
			"max":[
				22.15799331665039,
				-11.964704513549805,
				14.721440315246582
			],
			"min":[
				6.479095458984375,
				-14.1380615234375,
				-5.40524959564209
			],
			"type":"VEC3"
		},
		{
			"bufferView":13,
			"componentType":5126,
			"count":2901,
			"type":"VEC3"
		},
		{
			"bufferView":14,
			"componentType":5126,
			"count":2901,
			"type":"VEC2"
		},
		{
			"bufferView":15,
			"componentType":5126,
			"count":2901,
			"type":"VEC2"
		},
		{
			"bufferView":16,
			"componentType":5123,
			"count":2901,
			"normalized":true,
			"type":"VEC4"
		},
		{
			"bufferView":17,
			"componentType":5123,
			"count":3813,
			"type":"SCALAR"
		},
		{
			"bufferView":18,
			"componentType":5126,
			"count":194,
			"max":[
				23.545242309570312,
				-12.102837562561035,
				16.432531356811523
			],
			"min":[
				12.033448219299316,
				-13.058695793151855,
				11.510700225830078
			],
			"type":"VEC3"
		},
		{
			"bufferView":19,
			"componentType":5126,
			"count":194,
			"type":"VEC3"
		},
		{
			"bufferView":20,
			"componentType":5126,
			"count":194,
			"type":"VEC2"
		},
		{
			"bufferView":21,
			"componentType":5126,
			"count":194,
			"type":"VEC2"
		},
		{
			"bufferView":22,
			"componentType":5123,
			"count":194,
			"normalized":true,
			"type":"VEC4"
		},
		{
			"bufferView":23,
			"componentType":5123,
			"count":288,
			"type":"SCALAR"
		},
		{
			"bufferView":24,
			"componentType":5126,
			"count":223,
			"max":[
				23.421863555908203,
				-11.884038925170898,
				15.317044258117676
			],
			"min":[
				14.818243026733398,
				-13.928208351135254,
				10.77902603149414
			],
			"type":"VEC3"
		},
		{
			"bufferView":25,
			"componentType":5126,
			"count":223,
			"type":"VEC3"
		},
		{
			"bufferView":26,
			"componentType":5126,
			"count":223,
			"type":"VEC2"
		},
		{
			"bufferView":27,
			"componentType":5126,
			"count":223,
			"type":"VEC2"
		},
		{
			"bufferView":28,
			"componentType":5123,
			"count":223,
			"normalized":true,
			"type":"VEC4"
		},
		{
			"bufferView":29,
			"componentType":5123,
			"count":336,
			"type":"SCALAR"
		},
		{
			"bufferView":30,
			"componentType":5126,
			"count":1376,
			"max":[
				16.535470962524414,
				-6.839563846588135,
				4.16429328918457
			],
			"min":[
				5.317855358123779,
				-13.678995132446289,
				-6.695097923278809
			],
			"type":"VEC3"
		},
		{
			"bufferView":31,
			"componentType":5126,
			"count":1376,
			"type":"VEC3"
		},
		{
			"bufferView":32,
			"componentType":5126,
			"count":1376,
			"type":"VEC2"
		},
		{
			"bufferView":33,
			"componentType":5126,
			"count":1376,
			"type":"VEC2"
		},
		{
			"bufferView":34,
			"componentType":5123,
			"count":1376,
			"normalized":true,
			"type":"VEC4"
		},
		{
			"bufferView":35,
			"componentType":5123,
			"count":2088,
			"type":"SCALAR"
		},
		{
			"bufferView":36,
			"componentType":5126,
			"count":849,
			"max":[
				15.921966552734375,
				-10.150016784667969,
				3.459988832473755
			],
			"min":[
				5.819467544555664,
				-14.061244010925293,
				-6.250971794128418
			],
			"type":"VEC3"
		},
		{
			"bufferView":37,
			"componentType":5126,
			"count":849,
			"type":"VEC3"
		},
		{
			"bufferView":38,
			"componentType":5126,
			"count":849,
			"type":"VEC2"
		},
		{
			"bufferView":39,
			"componentType":5126,
			"count":849,
			"type":"VEC2"
		},
		{
			"bufferView":40,
			"componentType":5123,
			"count":849,
			"normalized":true,
			"type":"VEC4"
		},
		{
			"bufferView":41,
			"componentType":5123,
			"count":1320,
			"type":"SCALAR"
		},
		{
			"bufferView":42,
			"componentType":5126,
			"count":136,
			"max":[
				12.252900123596191,
				-11.559683799743652,
				-1.8475855588912964
			],
			"min":[
				11.627691268920898,
				-13.468622207641602,
				-2.493055582046509
			],
			"type":"VEC3"
		},
		{
			"bufferView":43,
			"componentType":5126,
			"count":136,
			"type":"VEC3"
		},
		{
			"bufferView":44,
			"componentType":5126,
			"count":136,
			"type":"VEC2"
		},
		{
			"bufferView":45,
			"componentType":5126,
			"count":136,
			"type":"VEC2"
		},
		{
			"bufferView":46,
			"componentType":5123,
			"count":136,
			"normalized":true,
			"type":"VEC4"
		},
		{
			"bufferView":47,
			"componentType":5123,
			"count":222,
			"type":"SCALAR"
		},
		{
			"bufferView":48,
			"componentType":5126,
			"count":76,
			"max":[
				12.756671905517578,
				-9.397073745727539,
				-1.2866787910461426
			],
			"min":[
				11.077495574951172,
				-11.562810897827148,
				-3.0644893646240234
			],
			"type":"VEC3"
		},
		{
			"bufferView":49,
			"componentType":5126,
			"count":76,
			"type":"VEC3"
		},
		{
			"bufferView":50,
			"componentType":5126,
			"count":76,
			"type":"VEC2"
		},
		{
			"bufferView":51,
			"componentType":5126,
			"count":76,
			"type":"VEC2"
		},
		{
			"bufferView":52,
			"componentType":5123,
			"count":76,
			"normalized":true,
			"type":"VEC4"
		},
		{
			"bufferView":53,
			"componentType":5123,
			"count":120,
			"type":"SCALAR"
		},
		{
			"bufferView":54,
			"componentType":5126,
			"count":92,
			"max":[
				23.795446395874023,
				-11.676191329956055,
				17.709806442260742
			],
			"min":[
				8.03720474243164,
				-13.355867385864258,
				-4.305561542510986
			],
			"type":"VEC3"
		},
		{
			"bufferView":55,
			"componentType":5126,
			"count":92,
			"type":"VEC3"
		},
		{
			"bufferView":56,
			"componentType":5126,
			"count":92,
			"type":"VEC2"
		},
		{
			"bufferView":57,
			"componentType":5126,
			"count":92,
			"type":"VEC2"
		},
		{
			"bufferView":58,
			"componentType":5123,
			"count":92,
			"normalized":true,
			"type":"VEC4"
		},
		{
			"bufferView":59,
			"componentType":5123,
			"count":93,
			"type":"SCALAR"
		},
		{
			"bufferView":60,
			"componentType":5126,
			"count":151,
			"max":[
				13.52610969543457,
				-13.023605346679688,
				2.3263051509857178
			],
			"min":[
				13.063423156738281,
				-13.52824592590332,
				1.8802422285079956
			],
			"type":"VEC3"
		},
		{
			"bufferView":61,
			"componentType":5126,
			"count":151,
			"type":"VEC3"
		},
		{
			"bufferView":62,
			"componentType":5126,
			"count":151,
			"type":"VEC2"
		},
		{
			"bufferView":63,
			"componentType":5126,
			"count":151,
			"type":"VEC2"
		},
		{
			"bufferView":64,
			"componentType":5123,
			"count":151,
			"normalized":true,
			"type":"VEC4"
		},
		{
			"bufferView":65,
			"componentType":5123,
			"count":270,
			"type":"SCALAR"
		},
		{
			"bufferView":66,
			"componentType":5126,
			"count":138,
			"max":[
				23.795446395874023,
				-10.856802940368652,
				17.709806442260742
			],
			"min":[
				20.831134796142578,
				-12.21391487121582,
				14.936766624450684
			],
			"type":"VEC3"
		},
		{
			"bufferView":67,
			"componentType":5126,
			"count":138,
			"type":"VEC3"
		},
		{
			"bufferView":68,
			"componentType":5126,
			"count":138,
			"type":"VEC2"
		},
		{
			"bufferView":69,
			"componentType":5126,
			"count":138,
			"type":"VEC2"
		},
		{
			"bufferView":70,
			"componentType":5123,
			"count":138,
			"normalized":true,
			"type":"VEC4"
		},
		{
			"bufferView":71,
			"componentType":5123,
			"count":228,
			"type":"SCALAR"
		},
		{
			"bufferView":72,
			"componentType":5126,
			"count":487,
			"max":[
				18.612520217895508,
				-11.548542976379395,
				19.258554458618164
			],
			"min":[
				13.550025939941406,
				-13.355867385864258,
				1.4321542978286743
			],
			"type":"VEC3"
		},
		{
			"bufferView":73,
			"componentType":5126,
			"count":487,
			"type":"VEC3"
		},
		{
			"bufferView":74,
			"componentType":5126,
			"count":487,
			"type":"VEC2"
		},
		{
			"bufferView":75,
			"componentType":5126,
			"count":487,
			"type":"VEC2"
		},
		{
			"bufferView":76,
			"componentType":5123,
			"count":487,
			"normalized":true,
			"type":"VEC4"
		},
		{
			"bufferView":77,
			"componentType":5123,
			"count":804,
			"type":"SCALAR"
		}
	],
	"bufferViews":[
		{
			"buffer":0,
			"byteLength":268500,
			"byteOffset":0,
			"target":34962
		},
		{
			"buffer":0,
			"byteLength":268500,
			"byteOffset":268500,
			"target":34962
		},
		{
			"buffer":0,
			"byteLength":179000,
			"byteOffset":537000,
			"target":34962
		},
		{
			"buffer":0,
			"byteLength":179000,
			"byteOffset":716000,
			"target":34962
		},
		{
			"buffer":0,
			"byteLength":179000,
			"byteOffset":895000,
			"target":34962
		},
		{
			"buffer":0,
			"byteLength":231462,
			"byteOffset":1074000,
			"target":34963
		},
		{
			"buffer":0,
			"byteLength":3420,
			"byteOffset":1305464,
			"target":34962
		},
		{
			"buffer":0,
			"byteLength":3420,
			"byteOffset":1308884,
			"target":34962
		},
		{
			"buffer":0,
			"byteLength":2280,
			"byteOffset":1312304,
			"target":34962
		},
		{
			"buffer":0,
			"byteLength":2280,
			"byteOffset":1314584,
			"target":34962
		},
		{
			"buffer":0,
			"byteLength":2280,
			"byteOffset":1316864,
			"target":34962
		},
		{
			"buffer":0,
			"byteLength":798,
			"byteOffset":1319144,
			"target":34963
		},
		{
			"buffer":0,
			"byteLength":34812,
			"byteOffset":1319944,
			"target":34962
		},
		{
			"buffer":0,
			"byteLength":34812,
			"byteOffset":1354756,
			"target":34962
		},
		{
			"buffer":0,
			"byteLength":23208,
			"byteOffset":1389568,
			"target":34962
		},
		{
			"buffer":0,
			"byteLength":23208,
			"byteOffset":1412776,
			"target":34962
		},
		{
			"buffer":0,
			"byteLength":23208,
			"byteOffset":1435984,
			"target":34962
		},
		{
			"buffer":0,
			"byteLength":7626,
			"byteOffset":1459192,
			"target":34963
		},
		{
			"buffer":0,
			"byteLength":2328,
			"byteOffset":1466820,
			"target":34962
		},
		{
			"buffer":0,
			"byteLength":2328,
			"byteOffset":1469148,
			"target":34962
		},
		{
			"buffer":0,
			"byteLength":1552,
			"byteOffset":1471476,
			"target":34962
		},
		{
			"buffer":0,
			"byteLength":1552,
			"byteOffset":1473028,
			"target":34962
		},
		{
			"buffer":0,
			"byteLength":1552,
			"byteOffset":1474580,
			"target":34962
		},
		{
			"buffer":0,
			"byteLength":576,
			"byteOffset":1476132,
			"target":34963
		},
		{
			"buffer":0,
			"byteLength":2676,
			"byteOffset":1476708,
			"target":34962
		},
		{
			"buffer":0,
			"byteLength":2676,
			"byteOffset":1479384,
			"target":34962
		},
		{
			"buffer":0,
			"byteLength":1784,
			"byteOffset":1482060,
			"target":34962
		},
		{
			"buffer":0,
			"byteLength":1784,
			"byteOffset":1483844,
			"target":34962
		},
		{
			"buffer":0,
			"byteLength":1784,
			"byteOffset":1485628,
			"target":34962
		},
		{
			"buffer":0,
			"byteLength":672,
			"byteOffset":1487412,
			"target":34963
		},
		{
			"buffer":0,
			"byteLength":16512,
			"byteOffset":1488084,
			"target":34962
		},
		{
			"buffer":0,
			"byteLength":16512,
			"byteOffset":1504596,
			"target":34962
		},
		{
			"buffer":0,
			"byteLength":11008,
			"byteOffset":1521108,
			"target":34962
		},
		{
			"buffer":0,
			"byteLength":11008,
			"byteOffset":1532116,
			"target":34962
		},
		{
			"buffer":0,
			"byteLength":11008,
			"byteOffset":1543124,
			"target":34962
		},
		{
			"buffer":0,
			"byteLength":4176,
			"byteOffset":1554132,
			"target":34963
		},
		{
			"buffer":0,
			"byteLength":10188,
			"byteOffset":1558308,
			"target":34962
		},
		{
			"buffer":0,
			"byteLength":10188,
			"byteOffset":1568496,
			"target":34962
		},
		{
			"buffer":0,
			"byteLength":6792,
			"byteOffset":1578684,
			"target":34962
		},
		{
			"buffer":0,
			"byteLength":6792,
			"byteOffset":1585476,
			"target":34962
		},
		{
			"buffer":0,
			"byteLength":6792,
			"byteOffset":1592268,
			"target":34962
		},
		{
			"buffer":0,
			"byteLength":2640,
			"byteOffset":1599060,
			"target":34963
		},
		{
			"buffer":0,
			"byteLength":1632,
			"byteOffset":1601700,
			"target":34962
		},
		{
			"buffer":0,
			"byteLength":1632,
			"byteOffset":1603332,
			"target":34962
		},
		{
			"buffer":0,
			"byteLength":1088,
			"byteOffset":1604964,
			"target":34962
		},
		{
			"buffer":0,
			"byteLength":1088,
			"byteOffset":1606052,
			"target":34962
		},
		{
			"buffer":0,
			"byteLength":1088,
			"byteOffset":1607140,
			"target":34962
		},
		{
			"buffer":0,
			"byteLength":444,
			"byteOffset":1608228,
			"target":34963
		},
		{
			"buffer":0,
			"byteLength":912,
			"byteOffset":1608672,
			"target":34962
		},
		{
			"buffer":0,
			"byteLength":912,
			"byteOffset":1609584,
			"target":34962
		},
		{
			"buffer":0,
			"byteLength":608,
			"byteOffset":1610496,
			"target":34962
		},
		{
			"buffer":0,
			"byteLength":608,
			"byteOffset":1611104,
			"target":34962
		},
		{
			"buffer":0,
			"byteLength":608,
			"byteOffset":1611712,
			"target":34962
		},
		{
			"buffer":0,
			"byteLength":240,
			"byteOffset":1612320,
			"target":34963
		},
		{
			"buffer":0,
			"byteLength":1104,
			"byteOffset":1612560,
			"target":34962
		},
		{
			"buffer":0,
			"byteLength":1104,
			"byteOffset":1613664,
			"target":34962
		},
		{
			"buffer":0,
			"byteLength":736,
			"byteOffset":1614768,
			"target":34962
		},
		{
			"buffer":0,
			"byteLength":736,
			"byteOffset":1615504,
			"target":34962
		},
		{
			"buffer":0,
			"byteLength":736,
			"byteOffset":1616240,
			"target":34962
		},
		{
			"buffer":0,
			"byteLength":186,
			"byteOffset":1616976,
			"target":34963
		},
		{
			"buffer":0,
			"byteLength":1812,
			"byteOffset":1617164,
			"target":34962
		},
		{
			"buffer":0,
			"byteLength":1812,
			"byteOffset":1618976,
			"target":34962
		},
		{
			"buffer":0,
			"byteLength":1208,
			"byteOffset":1620788,
			"target":34962
		},
		{
			"buffer":0,
			"byteLength":1208,
			"byteOffset":1621996,
			"target":34962
		},
		{
			"buffer":0,
			"byteLength":1208,
			"byteOffset":1623204,
			"target":34962
		},
		{
			"buffer":0,
			"byteLength":540,
			"byteOffset":1624412,
			"target":34963
		},
		{
			"buffer":0,
			"byteLength":1656,
			"byteOffset":1624952,
			"target":34962
		},
		{
			"buffer":0,
			"byteLength":1656,
			"byteOffset":1626608,
			"target":34962
		},
		{
			"buffer":0,
			"byteLength":1104,
			"byteOffset":1628264,
			"target":34962
		},
		{
			"buffer":0,
			"byteLength":1104,
			"byteOffset":1629368,
			"target":34962
		},
		{
			"buffer":0,
			"byteLength":1104,
			"byteOffset":1630472,
			"target":34962
		},
		{
			"buffer":0,
			"byteLength":456,
			"byteOffset":1631576,
			"target":34963
		},
		{
			"buffer":0,
			"byteLength":5844,
			"byteOffset":1632032,
			"target":34962
		},
		{
			"buffer":0,
			"byteLength":5844,
			"byteOffset":1637876,
			"target":34962
		},
		{
			"buffer":0,
			"byteLength":3896,
			"byteOffset":1643720,
			"target":34962
		},
		{
			"buffer":0,
			"byteLength":3896,
			"byteOffset":1647616,
			"target":34962
		},
		{
			"buffer":0,
			"byteLength":3896,
			"byteOffset":1651512,
			"target":34962
		},
		{
			"buffer":0,
			"byteLength":1608,
			"byteOffset":1655408,
			"target":34963
		}
	],
	"samplers":[
		{
			"magFilter":9729,
			"minFilter":9987
		}
	],
	"buffers":[
		{
			"byteLength":1657016,
			"uri":"cell_x-1_z-3_render.bin"
		}
	]
}
