{
	"asset":{
		"generator":"Khronos glTF Blender I/O v4.5.51",
		"version":"2.0"
	},
	"scene":0,
	"scenes":[
		{
			"name":"Scene",
			"nodes":[
				0
			]
		}
	],
	"nodes":[
		{
			"mesh":0,
			"name":"cell_x1_z-3",
			"rotation":[
				0.010128190740942955,
				-0.8354278802871704,
				0.015404176898300648,
				0.5492908358573914
			],
			"scale":[
				5.351853370666504,
				5.351853370666504,
				5.351853370666504
			],
			"translation":[
				50.72369384765625,
				-1.3146345615386963,
				-83.18169403076172
			]
		}
	],
	"materials":[
		{
			"name":"stone_v3",
			"pbrMetallicRoughness":{
				"baseColorFactor":[
					0.20863686501979828,
					0.2462013214826584,
					0.2622506618499756,
					1
				],
				"metallicFactor":0,
				"roughnessFactor":0.9200000166893005
			}
		},
		{
			"name":"leafsDark",
			"pbrMetallicRoughness":{
				"baseColorFactor":[
					0.04817182570695877,
					0.11443537473678589,
					0.03310476616024971,
					1
				],
				"metallicFactor":0,
				"roughnessFactor":0.9200000166893005
			}
		},
		{
			"name":"woodBarkDark",
			"pbrMetallicRoughness":{
				"baseColorFactor":[
					0.11443537473678589,
					0.04666508734226227,
					0.016807375475764275,
					1
				],
				"metallicFactor":0,
				"roughnessFactor":0.9200000166893005
			}
		},
		{
			"name":"leafsGreen",
			"pbrMetallicRoughness":{
				"baseColorFactor":[
					0.11443537473678589,
					0.23074005544185638,
					0.06301001459360123,
					1
				],
				"metallicFactor":0,
				"roughnessFactor":0.9200000166893005
			}
		},
		{
			"name":"woodBark",
			"pbrMetallicRoughness":{
				"baseColorFactor":[
					0.2015562504529953,
					0.08437620848417282,
					0.02955683507025242,
					1
				],
				"metallicFactor":0,
				"roughnessFactor":0.9200000166893005
			}
		},
		{
			"name":"grass",
			"pbrMetallicRoughness":{
				"baseColorFactor":[
					0.15592646598815918,
					0.2961382567882538,
					0.0802198201417923,
					1
				],
				"metallicFactor":0,
				"roughnessFactor":0.9200000166893005
			}
		}
	],
	"meshes":[
		{
			"name":"Mesh stone_largeE.025",
			"primitives":[
				{
					"attributes":{
						"POSITION":0,
						"NORMAL":1,
						"TEXCOORD_0":2,
						"COLOR_0":3
					},
					"indices":4,
					"material":0
				},
				{
					"attributes":{
						"POSITION":5,
						"NORMAL":6,
						"TEXCOORD_0":7,
						"COLOR_0":8
					},
					"indices":9,
					"material":1
				},
				{
					"attributes":{
						"POSITION":10,
						"NORMAL":11,
						"TEXCOORD_0":12,
						"COLOR_0":13
					},
					"indices":14,
					"material":2
				},
				{
					"attributes":{
						"POSITION":15,
						"NORMAL":16,
						"TEXCOORD_0":17,
						"COLOR_0":18
					},
					"indices":19,
					"material":3
				},
				{
					"attributes":{
						"POSITION":20,
						"NORMAL":21,
						"TEXCOORD_0":22,
						"COLOR_0":23
					},
					"indices":24,
					"material":4
				},
				{
					"attributes":{
						"POSITION":25,
						"NORMAL":26,
						"TEXCOORD_0":27,
						"COLOR_0":28
					},
					"indices":29,
					"material":5
				}
			]
		}
	],
	"accessors":[
		{
			"bufferView":0,
			"componentType":5126,
			"count":118,
			"max":[
				0.5477293729782104,
				0.2922479808330536,
				0.4599355459213257
			],
			"min":[
				-0.5477293729782104,
				-2.707167856703783e-16,
				-0.4599355459213257
			],
			"type":"VEC3"
		},
		{
			"bufferView":1,
			"componentType":5126,
			"count":118,
			"type":"VEC3"
		},
		{
			"bufferView":2,
			"componentType":5126,
			"count":118,
			"type":"VEC2"
		},
		{
			"bufferView":3,
			"componentType":5123,
			"count":118,
			"normalized":true,
			"type":"VEC4"
		},
		{
			"bufferView":4,
			"componentType":5123,
			"count":192,
			"type":"SCALAR"
		},
		{
			"bufferView":5,
			"componentType":5126,
			"count":142,
			"max":[
				0.6180757284164429,
				1.6053204536437988,
				0.4129830300807953
			],
			"min":[
				0.17294371128082275,
				0.7185620069503784,
				-0.04502829909324646
			],
			"type":"VEC3"
		},
		{
			"bufferView":6,
			"componentType":5126,
			"count":142,
			"type":"VEC3"
		},
		{
			"bufferView":7,
			"componentType":5126,
			"count":142,
			"type":"VEC2"
		},
		{
			"bufferView":8,
			"componentType":5123,
			"count":142,
			"normalized":true,
			"type":"VEC4"
		},
		{
			"bufferView":9,
			"componentType":5123,
			"count":264,
			"type":"SCALAR"
		},
		{
			"bufferView":10,
			"componentType":5126,
			"count":20,
			"max":[
				0.455037921667099,
				0.726605236530304,
				0.25499144196510315
			],
			"min":[
				0.3444730341434479,
				0.1937432736158371,
				0.14447030425071716
			],
			"type":"VEC3"
		},
		{
			"bufferView":11,
			"componentType":5126,
			"count":20,
			"type":"VEC3"
		},
		{
			"bufferView":12,
			"componentType":5126,
			"count":20,
			"type":"VEC2"
		},
		{
			"bufferView":13,
			"componentType":5123,
			"count":20,
			"normalized":true,
			"type":"VEC4"
		},
		{
			"bufferView":14,
			"componentType":5123,
			"count":30,
			"type":"SCALAR"
		},
		{
			"bufferView":15,
			"componentType":5126,
			"count":164,
			"max":[
				0.6701604127883911,
				1.4713054895401,
				1.822272539138794
			],
			"min":[
				-0.006477653980255127,
				-0.0698557198047638,
				-1.12164306640625
			],
			"type":"VEC3"
		},
		{
			"bufferView":16,
			"componentType":5126,
			"count":164,
			"type":"VEC3"
		},
		{
			"bufferView":17,
			"componentType":5126,
			"count":164,
			"type":"VEC2"
		},
		{
			"bufferView":18,
			"componentType":5123,
			"count":164,
			"normalized":true,
			"type":"VEC4"
		},
		{
			"bufferView":19,
			"componentType":5123,
			"count":288,
			"type":"SCALAR"
		},
		{
			"bufferView":20,
			"componentType":5126,
			"count":221,
			"max":[
				0.2871829867362976,
				-0.06517866253852844,
				-0.774098813533783
			],
			"min":[
				0.060870230197906494,
				-0.3664129078388214,
				-0.9946146607398987
			],
			"type":"VEC3"
		},
		{
			"bufferView":21,
			"componentType":5126,
			"count":221,
			"type":"VEC3"
		},
		{
			"bufferView":22,
			"componentType":5126,
			"count":221,
			"type":"VEC2"
		},
		{
			"bufferView":23,
			"componentType":5123,
			"count":221,
			"normalized":true,
			"type":"VEC4"
		},
		{
			"bufferView":24,
			"componentType":5123,
			"count":396,
			"type":"SCALAR"
		},
		{
			"bufferView":25,
			"componentType":5126,
			"count":1684,
			"max":[
				1.208932876586914,
				1.4009971618652344,
				1.712228775024414
			],
			"min":[
				-0.4619954824447632,
				-0.39368897676467896,
				-2.300715208053589
			],
			"type":"VEC3"
		},
		{
			"bufferView":26,
			"componentType":5126,
			"count":1684,
			"type":"VEC3"
		},
		{
			"bufferView":27,
			"componentType":5126,
			"count":1684,
			"type":"VEC2"
		},
		{
			"bufferView":28,
			"componentType":5123,
			"count":1684,
			"normalized":true,
			"type":"VEC4"
		},
		{
			"bufferView":29,
			"componentType":5123,
			"count":2196,
			"type":"SCALAR"
		}
	],
	"bufferViews":[
		{
			"buffer":0,
			"byteLength":1416,
			"byteOffset":0,
			"target":34962
		},
		{
			"buffer":0,
			"byteLength":1416,
			"byteOffset":1416,
			"target":34962
		},
		{
			"buffer":0,
			"byteLength":944,
			"byteOffset":2832,
			"target":34962
		},
		{
			"buffer":0,
			"byteLength":944,
			"byteOffset":3776,
			"target":34962
		},
		{
			"buffer":0,
			"byteLength":384,
			"byteOffset":4720,
			"target":34963
		},
		{
			"buffer":0,
			"byteLength":1704,
			"byteOffset":5104,
			"target":34962
		},
		{
			"buffer":0,
			"byteLength":1704,
			"byteOffset":6808,
			"target":34962
		},
		{
			"buffer":0,
			"byteLength":1136,
			"byteOffset":8512,
			"target":34962
		},
		{
			"buffer":0,
			"byteLength":1136,
			"byteOffset":9648,
			"target":34962
		},
		{
			"buffer":0,
			"byteLength":528,
			"byteOffset":10784,
			"target":34963
		},
		{
			"buffer":0,
			"byteLength":240,
			"byteOffset":11312,
			"target":34962
		},
		{
			"buffer":0,
			"byteLength":240,
			"byteOffset":11552,
			"target":34962
		},
		{
			"buffer":0,
			"byteLength":160,
			"byteOffset":11792,
			"target":34962
		},
		{
			"buffer":0,
			"byteLength":160,
			"byteOffset":11952,
			"target":34962
		},
		{
			"buffer":0,
			"byteLength":60,
			"byteOffset":12112,
			"target":34963
		},
		{
			"buffer":0,
			"byteLength":1968,
			"byteOffset":12172,
			"target":34962
		},
		{
			"buffer":0,
			"byteLength":1968,
			"byteOffset":14140,
			"target":34962
		},
		{
			"buffer":0,
			"byteLength":1312,
			"byteOffset":16108,
			"target":34962
		},
		{
			"buffer":0,
			"byteLength":1312,
			"byteOffset":17420,
			"target":34962
		},
		{
			"buffer":0,
			"byteLength":576,
			"byteOffset":18732,
			"target":34963
		},
		{
			"buffer":0,
			"byteLength":2652,
			"byteOffset":19308,
			"target":34962
		},
		{
			"buffer":0,
			"byteLength":2652,
			"byteOffset":21960,
			"target":34962
		},
		{
			"buffer":0,
			"byteLength":1768,
			"byteOffset":24612,
			"target":34962
		},
		{
			"buffer":0,
			"byteLength":1768,
			"byteOffset":26380,
			"target":34962
		},
		{
			"buffer":0,
			"byteLength":792,
			"byteOffset":28148,
			"target":34963
		},
		{
			"buffer":0,
			"byteLength":20208,
			"byteOffset":28940,
			"target":34962
		},
		{
			"buffer":0,
			"byteLength":20208,
			"byteOffset":49148,
			"target":34962
		},
		{
			"buffer":0,
			"byteLength":13472,
			"byteOffset":69356,
			"target":34962
		},
		{
			"buffer":0,
			"byteLength":13472,
			"byteOffset":82828,
			"target":34962
		},
		{
			"buffer":0,
			"byteLength":4392,
			"byteOffset":96300,
			"target":34963
		}
	],
	"buffers":[
		{
			"byteLength":100692,
			"uri":"cell_x1_z-3_render.bin"
		}
	]
}
