{
	"asset":{
		"generator":"Khronos glTF Blender I/O v4.5.51",
		"version":"2.0"
	},
	"scene":0,
	"scenes":[
		{
			"name":"Scene",
			"nodes":[
				0
			]
		}
	],
	"nodes":[
		{
			"mesh":0,
			"name":"cell_x-1_z0"
		}
	],
	"materials":[
		{
			"doubleSided":true,
			"name":"sol_chemin",
			"normalTexture":{
				"index":0,
				"scale":0.800000011920929
			},
			"pbrMetallicRoughness":{
				"baseColorFactor":[
					0.715693473815918,
					0.6444796919822693,
					0.5149176716804504,
					1
				],
				"baseColorTexture":{
					"index":1
				},
				"metallicFactor":0,
				"roughnessFactor":0.949999988079071
			}
		},
		{
			"name":"stone_v1",
			"pbrMetallicRoughness":{
				"baseColorFactor":[
					0.2541520893573761,
					0.28744083642959595,
					0.3049873113632202,
					1
				],
				"metallicFactor":0,
				"roughnessFactor":0.9200000166893005
			}
		},
		{
			"name":"_defaultMat",
			"pbrMetallicRoughness":{
				"baseColorFactor":[
					0.4564110338687897,
					0.4564110338687897,
					0.4125426113605499,
					1
				],
				"metallicFactor":0,
				"roughnessFactor":0.9200000166893005
			}
		},
		{
			"name":"stone_v0",
			"pbrMetallicRoughness":{
				"baseColorFactor":[
					0.32314321398735046,
					0.35153260827064514,
					0.3613067865371704,
					1
				],
				"metallicFactor":0,
				"roughnessFactor":0.9200000166893005
			}
		},
		{
			"name":"stone_v2",
			"pbrMetallicRoughness":{
				"baseColorFactor":[
					0.38132601976394653,
					0.38132601976394653,
					0.3324515223503113,
					1
				],
				"metallicFactor":0,
				"roughnessFactor":0.9200000166893005
			}
		},
		{
			"name":"dirt_v2",
			"pbrMetallicRoughness":{
				"baseColorFactor":[
					0.38132601976394653,
					0.30054378509521484,
					0.1946178376674652,
					1
				],
				"metallicFactor":0,
				"roughnessFactor":0.9200000166893005
			}
		},
		{
			"name":"grass",
			"pbrMetallicRoughness":{
				"baseColorFactor":[
					0.15592646598815918,
					0.2961382567882538,
					0.0802198201417923,
					1
				],
				"metallicFactor":0,
				"roughnessFactor":0.9200000166893005
			}
		},
		{
			"name":"dirt_v0",
			"pbrMetallicRoughness":{
				"baseColorFactor":[
					0.32314321398735046,
					0.24228112399578094,
					0.1384316086769104,
					1
				],
				"metallicFactor":0,
				"roughnessFactor":0.9200000166893005
			}
		},
		{
			"name":"leafsGreen",
			"pbrMetallicRoughness":{
				"baseColorFactor":[
					0.11443537473678589,
					0.23074005544185638,
					0.06301001459360123,
					1
				],
				"metallicFactor":0,
				"roughnessFactor":0.9200000166893005
			}
		},
		{
			"name":"woodBark",
			"pbrMetallicRoughness":{
				"baseColorFactor":[
					0.2015562504529953,
					0.08437620848417282,
					0.02955683507025242,
					1
				],
				"metallicFactor":0,
				"roughnessFactor":0.9200000166893005
			}
		},
		{
			"name":"woodBarkDark",
			"pbrMetallicRoughness":{
				"baseColorFactor":[
					0.11443537473678589,
					0.04666508734226227,
					0.016807375475764275,
					1
				],
				"metallicFactor":0,
				"roughnessFactor":0.9200000166893005
			}
		},
		{
			"name":"leafsDark",
			"pbrMetallicRoughness":{
				"baseColorFactor":[
					0.04817182570695877,
					0.11443537473678589,
					0.03310476616024971,
					1
				],
				"metallicFactor":0,
				"roughnessFactor":0.9200000166893005
			}
		},
		{
			"name":"leafsFall",
			"pbrMetallicRoughness":{
				"baseColorFactor":[
					0.4564110338687897,
					0.18782077729701996,
					0.045186202973127365,
					1
				],
				"metallicFactor":0,
				"roughnessFactor":0.9200000166893005
			}
		},
		{
			"name":"woodBirch",
			"pbrMetallicRoughness":{
				"baseColorFactor":[
					0.7304607629776001,
					0.6583748459815979,
					0.5028864741325378,
					1
				],
				"metallicFactor":0,
				"roughnessFactor":0.9200000166893005
			}
		},
		{
			"name":"dirt_v1",
			"pbrMetallicRoughness":{
				"baseColorFactor":[
					0.2581828534603119,
					0.1946178376674652,
					0.1119324266910553,
					1
				],
				"metallicFactor":0,
				"roughnessFactor":0.9200000166893005
			}
		},
		{
			"name":"colorYellow",
			"pbrMetallicRoughness":{
				"baseColorFactor":[
					0.5840784311294556,
					0.3613067865371704,
					0.07618538290262222,
					1
				],
				"metallicFactor":0,
				"roughnessFactor":0.9200000166893005
			}
		},
		{
			"name":"colorRed",
			"pbrMetallicRoughness":{
				"baseColorFactor":[
					0.34191441535949707,
					0.08437620848417282,
					0.05951123684644699,
					1
				],
				"metallicFactor":0,
				"roughnessFactor":0.9200000166893005
			}
		},
		{
			"name":"woodInner",
			"pbrMetallicRoughness":{
				"baseColorFactor":[
					0.577580451965332,
					0.423267662525177,
					0.23839756846427917,
					1
				],
				"metallicFactor":0,
				"roughnessFactor":0.9200000166893005
			}
		},
		{
			"name":"dirt_v3",
			"pbrMetallicRoughness":{
				"baseColorFactor":[
					0.20863686501979828,
					0.15896083414554596,
					0.09084171056747437,
					1
				],
				"metallicFactor":0,
				"roughnessFactor":0.9200000166893005
			}
		},
		{
			"name":"stone_v3",
			"pbrMetallicRoughness":{
				"baseColorFactor":[
					0.20863686501979828,
					0.2462013214826584,
					0.2622506618499756,
					1
				],
				"metallicFactor":0,
				"roughnessFactor":0.9200000166893005
			}
		},
		{
			"name":"stoneDark_v1",
			"pbrMetallicRoughness":{
				"baseColorFactor":[
					0.12477181851863861,
					0.14126329123973846,
					0.15292614698410034,
					1
				],
				"metallicFactor":0,
				"roughnessFactor":0.9200000166893005
			}
		}
	],
	"meshes":[
		{
			"name":"chemin",
			"primitives":[
				{
					"attributes":{
						"POSITION":0,
						"NORMAL":1,
						"TEXCOORD_0":2,
						"COLOR_0":3
					},
					"indices":4,
					"material":0
				},
				{
					"attributes":{
						"POSITION":5,
						"NORMAL":6,
						"TEXCOORD_0":7,
						"COLOR_0":8
					},
					"indices":9,
					"material":1
				},
				{
					"attributes":{
						"POSITION":10,
						"NORMAL":11,
						"TEXCOORD_0":12,
						"COLOR_0":13
					},
					"indices":14,
					"material":2
				},
				{
					"attributes":{
						"POSITION":15,
						"NORMAL":16,
						"TEXCOORD_0":17,
						"COLOR_0":18
					},
					"indices":19,
					"material":3
				},
				{
					"attributes":{
						"POSITION":20,
						"NORMAL":21,
						"TEXCOORD_0":22,
						"COLOR_0":23
					},
					"indices":24,
					"material":4
				},
				{
					"attributes":{
						"POSITION":25,
						"NORMAL":26,
						"TEXCOORD_0":27,
						"COLOR_0":28
					},
					"indices":29,
					"material":5
				},
				{
					"attributes":{
						"POSITION":30,
						"NORMAL":31,
						"TEXCOORD_0":32,
						"COLOR_0":33
					},
					"indices":34,
					"material":6
				},
				{
					"attributes":{
						"POSITION":35,
						"NORMAL":36,
						"TEXCOORD_0":37,
						"COLOR_0":38
					},
					"indices":39,
					"material":7
				},
				{
					"attributes":{
						"POSITION":40,
						"NORMAL":41,
						"TEXCOORD_0":42,
						"COLOR_0":43
					},
					"indices":44,
					"material":8
				},
				{
					"attributes":{
						"POSITION":45,
						"NORMAL":46,
						"TEXCOORD_0":47,
						"COLOR_0":48
					},
					"indices":49,
					"material":9
				},
				{
					"attributes":{
						"POSITION":50,
						"NORMAL":51,
						"TEXCOORD_0":52,
						"COLOR_0":53
					},
					"indices":54,
					"material":10
				},
				{
					"attributes":{
						"POSITION":55,
						"NORMAL":56,
						"TEXCOORD_0":57,
						"COLOR_0":58
					},
					"indices":59,
					"material":11
				},
				{
					"attributes":{
						"POSITION":60,
						"NORMAL":61,
						"TEXCOORD_0":62,
						"COLOR_0":63
					},
					"indices":64,
					"material":12
				},
				{
					"attributes":{
						"POSITION":65,
						"NORMAL":66,
						"TEXCOORD_0":67,
						"COLOR_0":68
					},
					"indices":69,
					"material":13
				},
				{
					"attributes":{
						"POSITION":70,
						"NORMAL":71,
						"TEXCOORD_0":72,
						"COLOR_0":73
					},
					"indices":74,
					"material":14
				},
				{
					"attributes":{
						"POSITION":75,
						"NORMAL":76,
						"TEXCOORD_0":77,
						"COLOR_0":78
					},
					"indices":79,
					"material":15
				},
				{
					"attributes":{
						"POSITION":80,
						"NORMAL":81,
						"TEXCOORD_0":82,
						"COLOR_0":83
					},
					"indices":84,
					"material":16
				},
				{
					"attributes":{
						"POSITION":85,
						"NORMAL":86,
						"TEXCOORD_0":87,
						"COLOR_0":88
					},
					"indices":89,
					"material":17
				},
				{
					"attributes":{
						"POSITION":90,
						"NORMAL":91,
						"TEXCOORD_0":92,
						"COLOR_0":93
					},
					"indices":94,
					"material":18
				},
				{
					"attributes":{
						"POSITION":95,
						"NORMAL":96,
						"TEXCOORD_0":97,
						"COLOR_0":98
					},
					"indices":99,
					"material":19
				},
				{
					"attributes":{
						"POSITION":100,
						"NORMAL":101,
						"TEXCOORD_0":102,
						"COLOR_0":103
					},
					"indices":104,
					"material":20
				}
			]
		}
	],
	"textures":[
		{
			"sampler":0,
			"source":0
		},
		{
			"sampler":0,
			"source":1
		}
	],
	"images":[
		{
			"mimeType":"image/png",
			"name":"pavement_n",
			"uri":"textures/pavement_n.png"
		},
		{
			"mimeType":"image/png",
			"name":"pavement_bc",
			"uri":"textures/pavement_bc.png"
		}
	],
	"accessors":[
		{
			"bufferView":0,
			"componentType":5126,
			"count":2518,
			"max":[
				92.35587310791016,
				5.39579963684082,
				48.84495544433594
			],
			"min":[
				-126.00934600830078,
				-2.8093199729919434,
				-48.33953094482422
			],
			"type":"VEC3"
		},
		{
			"bufferView":1,
			"componentType":5126,
			"count":2518,
			"type":"VEC3"
		},
		{
			"bufferView":2,
			"componentType":5126,
			"count":2518,
			"type":"VEC2"
		},
		{
			"bufferView":3,
			"componentType":5123,
			"count":2518,
			"normalized":true,
			"type":"VEC4"
		},
		{
			"bufferView":4,
			"componentType":5123,
			"count":4080,
			"type":"SCALAR"
		},
		{
			"bufferView":5,
			"componentType":5126,
			"count":374,
			"max":[
				-0.38257551193237305,
				13.419721603393555,
				40.17387771606445
			],
			"min":[
				-34.70146560668945,
				-4.574084758758545,
				5.714383125305176
			],
			"type":"VEC3"
		},
		{
			"bufferView":6,
			"componentType":5126,
			"count":374,
			"type":"VEC3"
		},
		{
			"bufferView":7,
			"componentType":5126,
			"count":374,
			"type":"VEC2"
		},
		{
			"bufferView":8,
			"componentType":5123,
			"count":374,
			"normalized":true,
			"type":"VEC4"
		},
		{
			"bufferView":9,
			"componentType":5123,
			"count":612,
			"type":"SCALAR"
		},
		{
			"bufferView":10,
			"componentType":5126,
			"count":363,
			"max":[
				-0.38257551193237305,
				2.646122455596924,
				36.33201599121094
			],
			"min":[
				-39.09904098510742,
				-4.193450927734375,
				2.69856858253479
			],
			"type":"VEC3"
		},
		{
			"bufferView":11,
			"componentType":5126,
			"count":363,
			"type":"VEC3"
		},
		{
			"bufferView":12,
			"componentType":5126,
			"count":363,
			"type":"VEC2"
		},
		{
			"bufferView":13,
			"componentType":5123,
			"count":363,
			"normalized":true,
			"type":"VEC4"
		},
		{
			"bufferView":14,
			"componentType":5123,
			"count":387,
			"type":"SCALAR"
		},
		{
			"bufferView":15,
			"componentType":5126,
			"count":471,
			"max":[
				-7.218697547912598,
				0.677432656288147,
				36.33201599121094
			],
			"min":[
				-34.04555130004883,
				-6.165716171264648,
				-0.4562894403934479
			],
			"type":"VEC3"
		},
		{
			"bufferView":16,
			"componentType":5126,
			"count":471,
			"type":"VEC3"
		},
		{
			"bufferView":17,
			"componentType":5126,
			"count":471,
			"type":"VEC2"
		},
		{
			"bufferView":18,
			"componentType":5123,
			"count":471,
			"normalized":true,
			"type":"VEC4"
		},
		{
			"bufferView":19,
			"componentType":5123,
			"count":768,
			"type":"SCALAR"
		},
		{
			"bufferView":20,
			"componentType":5126,
			"count":701,
			"max":[
				-7.848210334777832,
				0.6319603323936462,
				35.405975341796875
			],
			"min":[
				-39.09904098510742,
				-6.079168319702148,
				0.012646317481994629
			],
			"type":"VEC3"
		},
		{
			"bufferView":21,
			"componentType":5126,
			"count":701,
			"type":"VEC3"
		},
		{
			"bufferView":22,
			"componentType":5126,
			"count":701,
			"type":"VEC2"
		},
		{
			"bufferView":23,
			"componentType":5123,
			"count":701,
			"normalized":true,
			"type":"VEC4"
		},
		{
			"bufferView":24,
			"componentType":5123,
			"count":1104,
			"type":"SCALAR"
		},
		{
			"bufferView":25,
			"componentType":5126,
			"count":259,
			"max":[
				-22.232690811157227,
				-4.3040666580200195,
				25.97581672668457
			],
			"min":[
				-41.18840026855469,
				-5.675357341766357,
				15.873556137084961
			],
			"type":"VEC3"
		},
		{
			"bufferView":26,
			"componentType":5126,
			"count":259,
			"type":"VEC3"
		},
		{
			"bufferView":27,
			"componentType":5126,
			"count":259,
			"type":"VEC2"
		},
		{
			"bufferView":28,
			"componentType":5123,
			"count":259,
			"normalized":true,
			"type":"VEC4"
		},
		{
			"bufferView":29,
			"componentType":5123,
			"count":399,
			"type":"SCALAR"
		},
		{
			"bufferView":30,
			"componentType":5126,
			"count":18251,
			"max":[
				0.10992440581321716,
				10.88740348815918,
				40.2496223449707
			],
			"min":[
				-40.47224044799805,
				-5.714184761047363,
				-0.41770678758621216
			],
			"type":"VEC3"
		},
		{
			"bufferView":31,
			"componentType":5126,
			"count":18251,
			"type":"VEC3"
		},
		{
			"bufferView":32,
			"componentType":5126,
			"count":18251,
			"type":"VEC2"
		},
		{
			"bufferView":33,
			"componentType":5123,
			"count":18251,
			"normalized":true,
			"type":"VEC4"
		},
		{
			"bufferView":34,
			"componentType":5123,
			"count":24147,
			"type":"SCALAR"
		},
		{
			"bufferView":35,
			"componentType":5126,
			"count":213,
			"max":[
				-34.77817916870117,
				-3.662341594696045,
				18.63715362548828
			],
			"min":[
				-39.038516998291016,
				-5.4192795753479,
				8.393234252929688
			],
			"type":"VEC3"
		},
		{
			"bufferView":36,
			"componentType":5126,
			"count":213,
			"type":"VEC3"
		},
		{
			"bufferView":37,
			"componentType":5126,
			"count":213,
			"type":"VEC2"
		},
		{
			"bufferView":38,
			"componentType":5123,
			"count":213,
			"normalized":true,
			"type":"VEC4"
		},
		{
			"bufferView":39,
			"componentType":5123,
			"count":306,
			"type":"SCALAR"
		},
		{
			"bufferView":40,
			"componentType":5126,
			"count":2291,
			"max":[
				0.3787800967693329,
				8.475171089172363,
				38.03681945800781
			],
			"min":[
				-23.155698776245117,
				-5.71994161605835,
				-1.1452605724334717
			],
			"type":"VEC3"
		},
		{
			"bufferView":41,
			"componentType":5126,
			"count":2291,
			"type":"VEC3"
		},
		{
			"bufferView":42,
			"componentType":5126,
			"count":2291,
			"type":"VEC2"
		},
		{
			"bufferView":43,
			"componentType":5123,
			"count":2291,
			"normalized":true,
			"type":"VEC4"
		},
		{
			"bufferView":44,
			"componentType":5123,
			"count":3804,
			"type":"SCALAR"
		},
		{
			"bufferView":45,
			"componentType":5126,
			"count":1009,
			"max":[
				-0.655847430229187,
				4.917886257171631,
				23.85049819946289
			],
			"min":[
				-16.002506256103516,
				-0.39976295828819275,
				0.24783524870872498
			],
			"type":"VEC3"
		},
		{
			"bufferView":46,
			"componentType":5126,
			"count":1009,
			"type":"VEC3"
		},
		{
			"bufferView":47,
			"componentType":5126,
			"count":1009,
			"type":"VEC2"
		},
		{
			"bufferView":48,
			"componentType":5123,
			"count":1009,
			"normalized":true,
			"type":"VEC4"
		},
		{
			"bufferView":49,
			"componentType":5123,
			"count":1620,
			"type":"SCALAR"
		},
		{
			"bufferView":50,
			"componentType":5126,
			"count":276,
			"max":[
				-9.249289512634277,
				6.011930465698242,
				31.51445960998535
			],
			"min":[
				-13.038228034973145,
				0.6843658089637756,
				14.11491870880127
			],
			"type":"VEC3"
		},
		{
			"bufferView":51,
			"componentType":5126,
			"count":276,
			"type":"VEC3"
		},
		{
			"bufferView":52,
			"componentType":5126,
			"count":276,
			"type":"VEC2"
		},
		{
			"bufferView":53,
			"componentType":5123,
			"count":276,
			"normalized":true,
			"type":"VEC4"
		},
		{
			"bufferView":54,
			"componentType":5123,
			"count":420,
			"type":"SCALAR"
		},
		{
			"bufferView":55,
			"componentType":5126,
			"count":532,
			"max":[
				-8.084505081176758,
				10.141664505004883,
				32.160987854003906
			],
			"min":[
				-13.86935806274414,
				2.346097469329834,
				13.274212837219238
			],
			"type":"VEC3"
		},
		{
			"bufferView":56,
			"componentType":5126,
			"count":532,
			"type":"VEC3"
		},
		{
			"bufferView":57,
			"componentType":5126,
			"count":532,
			"type":"VEC2"
		},
		{
			"bufferView":58,
			"componentType":5123,
			"count":532,
			"normalized":true,
			"type":"VEC4"
		},
		{
			"bufferView":59,
			"componentType":5123,
			"count":906,
			"type":"SCALAR"
		},
		{
			"bufferView":60,
			"componentType":5126,
			"count":274,
			"max":[
				-4.5902910232543945,
				5.868530750274658,
				3.8622608184814453
			],
			"min":[
				-6.095086574554443,
				-0.22107408940792084,
				2.2065999507904053
			],
			"type":"VEC3"
		},
		{
			"bufferView":61,
			"componentType":5126,
			"count":274,
			"type":"VEC3"
		},
		{
			"bufferView":62,
			"componentType":5126,
			"count":274,
			"type":"VEC2"
		},
		{
			"bufferView":63,
			"componentType":5123,
			"count":274,
			"normalized":true,
			"type":"VEC4"
		},
		{
			"bufferView":64,
			"componentType":5123,
			"count":402,
			"type":"SCALAR"
		},
		{
			"bufferView":65,
			"componentType":5126,
			"count":20,
			"max":[
				-5.190046310424805,
				0.8319239020347595,
				3.2910852432250977
			],
			"min":[
				-5.637022972106934,
				-0.22107408940792084,
				2.8440213203430176
			],
			"type":"VEC3"
		},
		{
			"bufferView":66,
			"componentType":5126,
			"count":20,
			"type":"VEC3"
		},
		{
			"bufferView":67,
			"componentType":5126,
			"count":20,
			"type":"VEC2"
		},
		{
			"bufferView":68,
			"componentType":5123,
			"count":20,
			"normalized":true,
			"type":"VEC4"
		},
		{
			"bufferView":69,
			"componentType":5123,
			"count":30,
			"type":"SCALAR"
		},
		{
			"bufferView":70,
			"componentType":5126,
			"count":135,
			"max":[
				-6.41326379776001,
				0.987188994884491,
				20.651063919067383
			],
			"min":[
				-24.89585304260254,
				-4.574084758758545,
				-0.21525722742080688
			],
			"type":"VEC3"
		},
		{
			"bufferView":71,
			"componentType":5126,
			"count":135,
			"type":"VEC3"
		},
		{
			"bufferView":72,
			"componentType":5126,
			"count":135,
			"type":"VEC2"
		},
		{
			"bufferView":73,
			"componentType":5123,
			"count":135,
			"normalized":true,
			"type":"VEC4"
		},
		{
			"bufferView":74,
			"componentType":5123,
			"count":207,
			"type":"SCALAR"
		},
		{
			"bufferView":75,
			"componentType":5126,
			"count":143,
			"max":[
				-5.892055511474609,
				0.5054358839988708,
				7.114096641540527
			],
			"min":[
				-6.328498840332031,
				-0.008212566375732422,
				6.6363325119018555
			],
			"type":"VEC3"
		},
		{
			"bufferView":76,
			"componentType":5126,
			"count":143,
			"type":"VEC3"
		},
		{
			"bufferView":77,
			"componentType":5126,
			"count":143,
			"type":"VEC2"
		},
		{
			"bufferView":78,
			"componentType":5123,
			"count":143,
			"normalized":true,
			"type":"VEC4"
		},
		{
			"bufferView":79,
			"componentType":5123,
			"count":270,
			"type":"SCALAR"
		},
		{
			"bufferView":80,
			"componentType":5126,
			"count":166,
			"max":[
				-1.9127728939056396,
				2.3524012565612793,
				18.873130798339844
			],
			"min":[
				-11.0953950881958,
				-0.24460983276367188,
				2.69856858253479
			],
			"type":"VEC3"
		},
		{
			"bufferView":81,
			"componentType":5126,
			"count":166,
			"type":"VEC3"
		},
		{
			"bufferView":82,
			"componentType":5126,
			"count":166,
			"type":"VEC2"
		},
		{
			"bufferView":83,
			"componentType":5123,
			"count":166,
			"normalized":true,
			"type":"VEC4"
		},
		{
			"bufferView":84,
			"componentType":5123,
			"count":252,
			"type":"SCALAR"
		},
		{
			"bufferView":85,
			"componentType":5126,
			"count":30,
			"max":[
				-0.9561203718185425,
				1.0126988887786865,
				6.627078533172607
			],
			"min":[
				-1.78457772731781,
				0.8900370001792908,
				5.685182094573975
			],
			"type":"VEC3"
		},
		{
			"bufferView":86,
			"componentType":5126,
			"count":30,
			"type":"VEC3"
		},
		{
			"bufferView":87,
			"componentType":5126,
			"count":30,
			"type":"VEC2"
		},
		{
			"bufferView":88,
			"componentType":5123,
			"count":30,
			"normalized":true,
			"type":"VEC4"
		},
		{
			"bufferView":89,
			"componentType":5123,
			"count":48,
			"type":"SCALAR"
		},
		{
			"bufferView":90,
			"componentType":5126,
			"count":68,
			"max":[
				-33.12348937988281,
				-4.364123821258545,
				33.55783462524414
			],
			"min":[
				-34.378021240234375,
				-4.574084758758545,
				32.09379196166992
			],
			"type":"VEC3"
		},
		{
			"bufferView":91,
			"componentType":5126,
			"count":68,
			"type":"VEC3"
		},
		{
			"bufferView":92,
			"componentType":5126,
			"count":68,
			"type":"VEC2"
		},
		{
			"bufferView":93,
			"componentType":5123,
			"count":68,
			"normalized":true,
			"type":"VEC4"
		},
		{
			"bufferView":94,
			"componentType":5123,
			"count":93,
			"type":"SCALAR"
		},
		{
			"bufferView":95,
			"componentType":5126,
			"count":215,
			"max":[
				-21.454036712646484,
				-3.6134374141693115,
				35.550193786621094
			],
			"min":[
				-34.71236801147461,
				-4.574084758758545,
				0.030594825744628906
			],
			"type":"VEC3"
		},
		{
			"bufferView":96,
			"componentType":5126,
			"count":215,
			"type":"VEC3"
		},
		{
			"bufferView":97,
			"componentType":5126,
			"count":215,
			"type":"VEC2"
		},
		{
			"bufferView":98,
			"componentType":5123,
			"count":215,
			"normalized":true,
			"type":"VEC4"
		},
		{
			"bufferView":99,
			"componentType":5123,
			"count":336,
			"type":"SCALAR"
		},
		{
			"bufferView":100,
			"componentType":5126,
			"count":117,
			"max":[
				-7.549643516540527,
				13.419721603393555,
				40.17387771606445
			],
			"min":[
				-9.345816612243652,
				10.719721794128418,
				38.37770462036133
			],
			"type":"VEC3"
		},
		{
			"bufferView":101,
			"componentType":5126,
			"count":117,
			"type":"VEC3"
		},
		{
			"bufferView":102,
			"componentType":5126,
			"count":117,
			"type":"VEC2"
		},
		{
			"bufferView":103,
			"componentType":5123,
			"count":117,
			"normalized":true,
			"type":"VEC4"
		},
		{
			"bufferView":104,
			"componentType":5123,
			"count":198,
			"type":"SCALAR"
		}
	],
	"bufferViews":[
		{
			"buffer":0,
			"byteLength":30216,
			"byteOffset":0,
			"target":34962
		},
		{
			"buffer":0,
			"byteLength":30216,
			"byteOffset":30216,
			"target":34962
		},
		{
			"buffer":0,
			"byteLength":20144,
			"byteOffset":60432,
			"target":34962
		},
		{
			"buffer":0,
			"byteLength":20144,
			"byteOffset":80576,
			"target":34962
		},
		{
			"buffer":0,
			"byteLength":8160,
			"byteOffset":100720,
			"target":34963
		},
		{
			"buffer":0,
			"byteLength":4488,
			"byteOffset":108880,
			"target":34962
		},
		{
			"buffer":0,
			"byteLength":4488,
			"byteOffset":113368,
			"target":34962
		},
		{
			"buffer":0,
			"byteLength":2992,
			"byteOffset":117856,
			"target":34962
		},
		{
			"buffer":0,
			"byteLength":2992,
			"byteOffset":120848,
			"target":34962
		},
		{
			"buffer":0,
			"byteLength":1224,
			"byteOffset":123840,
			"target":34963
		},
		{
			"buffer":0,
			"byteLength":4356,
			"byteOffset":125064,
			"target":34962
		},
		{
			"buffer":0,
			"byteLength":4356,
			"byteOffset":129420,
			"target":34962
		},
		{
			"buffer":0,
			"byteLength":2904,
			"byteOffset":133776,
			"target":34962
		},
		{
			"buffer":0,
			"byteLength":2904,
			"byteOffset":136680,
			"target":34962
		},
		{
			"buffer":0,
			"byteLength":774,
			"byteOffset":139584,
			"target":34963
		},
		{
			"buffer":0,
			"byteLength":5652,
			"byteOffset":140360,
			"target":34962
		},
		{
			"buffer":0,
			"byteLength":5652,
			"byteOffset":146012,
			"target":34962
		},
		{
			"buffer":0,
			"byteLength":3768,
			"byteOffset":151664,
			"target":34962
		},
		{
			"buffer":0,
			"byteLength":3768,
			"byteOffset":155432,
			"target":34962
		},
		{
			"buffer":0,
			"byteLength":1536,
			"byteOffset":159200,
			"target":34963
		},
		{
			"buffer":0,
			"byteLength":8412,
			"byteOffset":160736,
			"target":34962
		},
		{
			"buffer":0,
			"byteLength":8412,
			"byteOffset":169148,
			"target":34962
		},
		{
			"buffer":0,
			"byteLength":5608,
			"byteOffset":177560,
			"target":34962
		},
		{
			"buffer":0,
			"byteLength":5608,
			"byteOffset":183168,
			"target":34962
		},
		{
			"buffer":0,
			"byteLength":2208,
			"byteOffset":188776,
			"target":34963
		},
		{
			"buffer":0,
			"byteLength":3108,
			"byteOffset":190984,
			"target":34962
		},
		{
			"buffer":0,
			"byteLength":3108,
			"byteOffset":194092,
			"target":34962
		},
		{
			"buffer":0,
			"byteLength":2072,
			"byteOffset":197200,
			"target":34962
		},
		{
			"buffer":0,
			"byteLength":2072,
			"byteOffset":199272,
			"target":34962
		},
		{
			"buffer":0,
			"byteLength":798,
			"byteOffset":201344,
			"target":34963
		},
		{
			"buffer":0,
			"byteLength":219012,
			"byteOffset":202144,
			"target":34962
		},
		{
			"buffer":0,
			"byteLength":219012,
			"byteOffset":421156,
			"target":34962
		},
		{
			"buffer":0,
			"byteLength":146008,
			"byteOffset":640168,
			"target":34962
		},
		{
			"buffer":0,
			"byteLength":146008,
			"byteOffset":786176,
			"target":34962
		},
		{
			"buffer":0,
			"byteLength":48294,
			"byteOffset":932184,
			"target":34963
		},
		{
			"buffer":0,
			"byteLength":2556,
			"byteOffset":980480,
			"target":34962
		},
		{
			"buffer":0,
			"byteLength":2556,
			"byteOffset":983036,
			"target":34962
		},
		{
			"buffer":0,
			"byteLength":1704,
			"byteOffset":985592,
			"target":34962
		},
		{
			"buffer":0,
			"byteLength":1704,
			"byteOffset":987296,
			"target":34962
		},
		{
			"buffer":0,
			"byteLength":612,
			"byteOffset":989000,
			"target":34963
		},
		{
			"buffer":0,
			"byteLength":27492,
			"byteOffset":989612,
			"target":34962
		},
		{
			"buffer":0,
			"byteLength":27492,
			"byteOffset":1017104,
			"target":34962
		},
		{
			"buffer":0,
			"byteLength":18328,
			"byteOffset":1044596,
			"target":34962
		},
		{
			"buffer":0,
			"byteLength":18328,
			"byteOffset":1062924,
			"target":34962
		},
		{
			"buffer":0,
			"byteLength":7608,
			"byteOffset":1081252,
			"target":34963
		},
		{
			"buffer":0,
			"byteLength":12108,
			"byteOffset":1088860,
			"target":34962
		},
		{
			"buffer":0,
			"byteLength":12108,
			"byteOffset":1100968,
			"target":34962
		},
		{
			"buffer":0,
			"byteLength":8072,
			"byteOffset":1113076,
			"target":34962
		},
		{
			"buffer":0,
			"byteLength":8072,
			"byteOffset":1121148,
			"target":34962
		},
		{
			"buffer":0,
			"byteLength":3240,
			"byteOffset":1129220,
			"target":34963
		},
		{
			"buffer":0,
			"byteLength":3312,
			"byteOffset":1132460,
			"target":34962
		},
		{
			"buffer":0,
			"byteLength":3312,
			"byteOffset":1135772,
			"target":34962
		},
		{
			"buffer":0,
			"byteLength":2208,
			"byteOffset":1139084,
			"target":34962
		},
		{
			"buffer":0,
			"byteLength":2208,
			"byteOffset":1141292,
			"target":34962
		},
		{
			"buffer":0,
			"byteLength":840,
			"byteOffset":1143500,
			"target":34963
		},
		{
			"buffer":0,
			"byteLength":6384,
			"byteOffset":1144340,
			"target":34962
		},
		{
			"buffer":0,
			"byteLength":6384,
			"byteOffset":1150724,
			"target":34962
		},
		{
			"buffer":0,
			"byteLength":4256,
			"byteOffset":1157108,
			"target":34962
		},
		{
			"buffer":0,
			"byteLength":4256,
			"byteOffset":1161364,
			"target":34962
		},
		{
			"buffer":0,
			"byteLength":1812,
			"byteOffset":1165620,
			"target":34963
		},
		{
			"buffer":0,
			"byteLength":3288,
			"byteOffset":1167432,
			"target":34962
		},
		{
			"buffer":0,
			"byteLength":3288,
			"byteOffset":1170720,
			"target":34962
		},
		{
			"buffer":0,
			"byteLength":2192,
			"byteOffset":1174008,
			"target":34962
		},
		{
			"buffer":0,
			"byteLength":2192,
			"byteOffset":1176200,
			"target":34962
		},
		{
			"buffer":0,
			"byteLength":804,
			"byteOffset":1178392,
			"target":34963
		},
		{
			"buffer":0,
			"byteLength":240,
			"byteOffset":1179196,
			"target":34962
		},
		{
			"buffer":0,
			"byteLength":240,
			"byteOffset":1179436,
			"target":34962
		},
		{
			"buffer":0,
			"byteLength":160,
			"byteOffset":1179676,
			"target":34962
		},
		{
			"buffer":0,
			"byteLength":160,
			"byteOffset":1179836,
			"target":34962
		},
		{
			"buffer":0,
			"byteLength":60,
			"byteOffset":1179996,
			"target":34963
		},
		{
			"buffer":0,
			"byteLength":1620,
			"byteOffset":1180056,
			"target":34962
		},
		{
			"buffer":0,
			"byteLength":1620,
			"byteOffset":1181676,
			"target":34962
		},
		{
			"buffer":0,
			"byteLength":1080,
			"byteOffset":1183296,
			"target":34962
		},
		{
			"buffer":0,
			"byteLength":1080,
			"byteOffset":1184376,
			"target":34962
		},
		{
			"buffer":0,
			"byteLength":414,
			"byteOffset":1185456,
			"target":34963
		},
		{
			"buffer":0,
			"byteLength":1716,
			"byteOffset":1185872,
			"target":34962
		},
		{
			"buffer":0,
			"byteLength":1716,
			"byteOffset":1187588,
			"target":34962
		},
		{
			"buffer":0,
			"byteLength":1144,
			"byteOffset":1189304,
			"target":34962
		},
		{
			"buffer":0,
			"byteLength":1144,
			"byteOffset":1190448,
			"target":34962
		},
		{
			"buffer":0,
			"byteLength":540,
			"byteOffset":1191592,
			"target":34963
		},
		{
			"buffer":0,
			"byteLength":1992,
			"byteOffset":1192132,
			"target":34962
		},
		{
			"buffer":0,
			"byteLength":1992,
			"byteOffset":1194124,
			"target":34962
		},
		{
			"buffer":0,
			"byteLength":1328,
			"byteOffset":1196116,
			"target":34962
		},
		{
			"buffer":0,
			"byteLength":1328,
			"byteOffset":1197444,
			"target":34962
		},
		{
			"buffer":0,
			"byteLength":504,
			"byteOffset":1198772,
			"target":34963
		},
		{
			"buffer":0,
			"byteLength":360,
			"byteOffset":1199276,
			"target":34962
		},
		{
			"buffer":0,
			"byteLength":360,
			"byteOffset":1199636,
			"target":34962
		},
		{
			"buffer":0,
			"byteLength":240,
			"byteOffset":1199996,
			"target":34962
		},
		{
			"buffer":0,
			"byteLength":240,
			"byteOffset":1200236,
			"target":34962
		},
		{
			"buffer":0,
			"byteLength":96,
			"byteOffset":1200476,
			"target":34963
		},
		{
			"buffer":0,
			"byteLength":816,
			"byteOffset":1200572,
			"target":34962
		},
		{
			"buffer":0,
			"byteLength":816,
			"byteOffset":1201388,
			"target":34962
		},
		{
			"buffer":0,
			"byteLength":544,
			"byteOffset":1202204,
			"target":34962
		},
		{
			"buffer":0,
			"byteLength":544,
			"byteOffset":1202748,
			"target":34962
		},
		{
			"buffer":0,
			"byteLength":186,
			"byteOffset":1203292,
			"target":34963
		},
		{
			"buffer":0,
			"byteLength":2580,
			"byteOffset":1203480,
			"target":34962
		},
		{
			"buffer":0,
			"byteLength":2580,
			"byteOffset":1206060,
			"target":34962
		},
		{
			"buffer":0,
			"byteLength":1720,
			"byteOffset":1208640,
			"target":34962
		},
		{
			"buffer":0,
			"byteLength":1720,
			"byteOffset":1210360,
			"target":34962
		},
		{
			"buffer":0,
			"byteLength":672,
			"byteOffset":1212080,
			"target":34963
		},
		{
			"buffer":0,
			"byteLength":1404,
			"byteOffset":1212752,
			"target":34962
		},
		{
			"buffer":0,
			"byteLength":1404,
			"byteOffset":1214156,
			"target":34962
		},
		{
			"buffer":0,
			"byteLength":936,
			"byteOffset":1215560,
			"target":34962
		},
		{
			"buffer":0,
			"byteLength":936,
			"byteOffset":1216496,
			"target":34962
		},
		{
			"buffer":0,
			"byteLength":396,
			"byteOffset":1217432,
			"target":34963
		}
	],
	"samplers":[
		{
			"magFilter":9729,
			"minFilter":9987
		}
	],
	"buffers":[
		{
			"byteLength":1217828,
			"uri":"cell_x-1_z0_render.bin"
		}
	]
}
