{
	"asset":{
		"generator":"Khronos glTF Blender I/O v4.5.51",
		"version":"2.0"
	},
	"scene":0,
	"scenes":[
		{
			"name":"Scene",
			"nodes":[
				0
			]
		}
	],
	"nodes":[
		{
			"mesh":0,
			"name":"cell_x-3_z2",
			"rotation":[
				-0.005964555777609348,
				0.022523893043398857,
				0.000134381465613842,
				0.9997285008430481
			],
			"scale":[
				4.553345203399658,
				4.553345680236816,
				4.553345203399658
			],
			"translation":[
				-84.94087982177734,
				1.6042189598083496,
				82.94017791748047
			]
		}
	],
	"materials":[
		{
			"name":"leafsDark",
			"pbrMetallicRoughness":{
				"baseColorFactor":[
					0.04817182570695877,
					0.11443537473678589,
					0.03310476616024971,
					1
				],
				"metallicFactor":0,
				"roughnessFactor":0.9200000166893005
			}
		},
		{
			"name":"woodBarkDark",
			"pbrMetallicRoughness":{
				"baseColorFactor":[
					0.11443537473678589,
					0.04666508734226227,
					0.016807375475764275,
					1
				],
				"metallicFactor":0,
				"roughnessFactor":0.9200000166893005
			}
		},
		{
			"name":"leafsGreen",
			"pbrMetallicRoughness":{
				"baseColorFactor":[
					0.11443537473678589,
					0.23074005544185638,
					0.06301001459360123,
					1
				],
				"metallicFactor":0,
				"roughnessFactor":0.9200000166893005
			}
		},
		{
			"name":"woodBark",
			"pbrMetallicRoughness":{
				"baseColorFactor":[
					0.2015562504529953,
					0.08437620848417282,
					0.02955683507025242,
					1
				],
				"metallicFactor":0,
				"roughnessFactor":0.9200000166893005
			}
		},
		{
			"name":"_defaultMat",
			"pbrMetallicRoughness":{
				"baseColorFactor":[
					0.4564110338687897,
					0.4564110338687897,
					0.4125426113605499,
					1
				],
				"metallicFactor":0,
				"roughnessFactor":0.9200000166893005
			}
		},
		{
			"name":"grass",
			"pbrMetallicRoughness":{
				"baseColorFactor":[
					0.15592646598815918,
					0.2961382567882538,
					0.0802198201417923,
					1
				],
				"metallicFactor":0,
				"roughnessFactor":0.9200000166893005
			}
		},
		{
			"name":"dirt_v2",
			"pbrMetallicRoughness":{
				"baseColorFactor":[
					0.38132601976394653,
					0.30054378509521484,
					0.1946178376674652,
					1
				],
				"metallicFactor":0,
				"roughnessFactor":0.9200000166893005
			}
		},
		{
			"name":"stone_v1",
			"pbrMetallicRoughness":{
				"baseColorFactor":[
					0.2541520893573761,
					0.28744083642959595,
					0.3049873113632202,
					1
				],
				"metallicFactor":0,
				"roughnessFactor":0.9200000166893005
			}
		}
	],
	"meshes":[
		{
			"name":"Mesh tree_oak_dark.017",
			"primitives":[
				{
					"attributes":{
						"POSITION":0,
						"NORMAL":1,
						"TEXCOORD_0":2
					},
					"indices":3,
					"material":0
				},
				{
					"attributes":{
						"POSITION":4,
						"NORMAL":5,
						"TEXCOORD_0":6
					},
					"indices":7,
					"material":1
				},
				{
					"attributes":{
						"POSITION":8,
						"NORMAL":9,
						"TEXCOORD_0":10
					},
					"indices":11,
					"material":2
				},
				{
					"attributes":{
						"POSITION":12,
						"NORMAL":13,
						"TEXCOORD_0":14
					},
					"indices":15,
					"material":3
				},
				{
					"attributes":{
						"POSITION":16,
						"NORMAL":17,
						"TEXCOORD_0":18
					},
					"indices":19,
					"material":4
				},
				{
					"attributes":{
						"POSITION":20,
						"NORMAL":21,
						"TEXCOORD_0":22
					},
					"indices":23,
					"material":5
				},
				{
					"attributes":{
						"POSITION":24,
						"NORMAL":25,
						"TEXCOORD_0":26
					},
					"indices":27,
					"material":6
				},
				{
					"attributes":{
						"POSITION":28,
						"NORMAL":29,
						"TEXCOORD_0":30
					},
					"indices":31,
					"material":7
				}
			]
		}
	],
	"accessors":[
		{
			"bufferView":0,
			"componentType":5126,
			"count":342,
			"max":[
				0.3202769458293915,
				1.4344013929367065,
				0.36982399225234985
			],
			"min":[
				-2.6041858196258545,
				0.5004000067710876,
				-0.9567239880561829
			],
			"type":"VEC3"
		},
		{
			"bufferView":1,
			"componentType":5126,
			"count":342,
			"type":"VEC3"
		},
		{
			"bufferView":2,
			"componentType":5126,
			"count":342,
			"type":"VEC2"
		},
		{
			"bufferView":3,
			"componentType":5123,
			"count":576,
			"type":"SCALAR"
		},
		{
			"bufferView":4,
			"componentType":5126,
			"count":683,
			"max":[
				0.17630527913570404,
				0.6485344171524048,
				0.1869862824678421
			],
			"min":[
				-2.472100257873535,
				1.602965340036949e-31,
				-0.7994441390037537
			],
			"type":"VEC3"
		},
		{
			"bufferView":5,
			"componentType":5126,
			"count":683,
			"type":"VEC3"
		},
		{
			"bufferView":6,
			"componentType":5126,
			"count":683,
			"type":"VEC2"
		},
		{
			"bufferView":7,
			"componentType":5123,
			"count":1188,
			"type":"SCALAR"
		},
		{
			"bufferView":8,
			"componentType":5126,
			"count":1764,
			"max":[
				0.4112667441368103,
				1.8413158655166626,
				0.483882874250412
			],
			"min":[
				-6.991331577301025,
				-0.012685801833868027,
				-0.9281152486801147
			],
			"type":"VEC3"
		},
		{
			"bufferView":9,
			"componentType":5126,
			"count":1764,
			"type":"VEC3"
		},
		{
			"bufferView":10,
			"componentType":5126,
			"count":1764,
			"type":"VEC2"
		},
		{
			"bufferView":11,
			"componentType":5123,
			"count":2868,
			"type":"SCALAR"
		},
		{
			"bufferView":12,
			"componentType":5126,
			"count":626,
			"max":[
				0.27031660079956055,
				0.9605752229690552,
				0.36240795254707336
			],
			"min":[
				-3.1036887168884277,
				-0.026308266445994377,
				-0.7947245836257935
			],
			"type":"VEC3"
		},
		{
			"bufferView":13,
			"componentType":5126,
			"count":626,
			"type":"VEC3"
		},
		{
			"bufferView":14,
			"componentType":5126,
			"count":626,
			"type":"VEC2"
		},
		{
			"bufferView":15,
			"componentType":5123,
			"count":1002,
			"type":"SCALAR"
		},
		{
			"bufferView":16,
			"componentType":5126,
			"count":24,
			"max":[
				0.41834771633148193,
				0.7129649519920349,
				0.13142213225364685
			],
			"min":[
				-1.6285992860794067,
				-0.009390363469719887,
				-0.5160822868347168
			],
			"type":"VEC3"
		},
		{
			"bufferView":17,
			"componentType":5126,
			"count":24,
			"type":"VEC3"
		},
		{
			"bufferView":18,
			"componentType":5126,
			"count":24,
			"type":"VEC2"
		},
		{
			"bufferView":19,
			"componentType":5123,
			"count":24,
			"type":"SCALAR"
		},
		{
			"bufferView":20,
			"componentType":5126,
			"count":7787,
			"max":[
				1.1952621936798096,
				0.3454180657863617,
				0.372873991727829
			],
			"min":[
				-7.481318950653076,
				-0.10467424988746643,
				-0.9346461296081543
			],
			"type":"VEC3"
		},
		{
			"bufferView":21,
			"componentType":5126,
			"count":7787,
			"type":"VEC3"
		},
		{
			"bufferView":22,
			"componentType":5126,
			"count":7787,
			"type":"VEC2"
		},
		{
			"bufferView":23,
			"componentType":5123,
			"count":10701,
			"type":"SCALAR"
		},
		{
			"bufferView":24,
			"componentType":5126,
			"count":27,
			"max":[
				-5.6976776123046875,
				0.23201711475849152,
				-0.6156619787216187
			],
			"min":[
				-5.917470455169678,
				0.10531240701675415,
				-0.8638332486152649
			],
			"type":"VEC3"
		},
		{
			"bufferView":25,
			"componentType":5126,
			"count":27,
			"type":"VEC3"
		},
		{
			"bufferView":26,
			"componentType":5126,
			"count":27,
			"type":"VEC2"
		},
		{
			"bufferView":27,
			"componentType":5123,
			"count":39,
			"type":"SCALAR"
		},
		{
			"bufferView":28,
			"componentType":5126,
			"count":74,
			"max":[
				0.41834771633148193,
				0.4027884304523468,
				-0.07229416072368622
			],
			"min":[
				0.065374955534935,
				-0.009390363469719887,
				-0.4250851273536682
			],
			"type":"VEC3"
		},
		{
			"bufferView":29,
			"componentType":5126,
			"count":74,
			"type":"VEC3"
		},
		{
			"bufferView":30,
			"componentType":5126,
			"count":74,
			"type":"VEC2"
		},
		{
			"bufferView":31,
			"componentType":5123,
			"count":126,
			"type":"SCALAR"
		}
	],
	"bufferViews":[
		{
			"buffer":0,
			"byteLength":4104,
			"byteOffset":0,
			"target":34962
		},
		{
			"buffer":0,
			"byteLength":4104,
			"byteOffset":4104,
			"target":34962
		},
		{
			"buffer":0,
			"byteLength":2736,
			"byteOffset":8208,
			"target":34962
		},
		{
			"buffer":0,
			"byteLength":1152,
			"byteOffset":10944,
			"target":34963
		},
		{
			"buffer":0,
			"byteLength":8196,
			"byteOffset":12096,
			"target":34962
		},
		{
			"buffer":0,
			"byteLength":8196,
			"byteOffset":20292,
			"target":34962
		},
		{
			"buffer":0,
			"byteLength":5464,
			"byteOffset":28488,
			"target":34962
		},
		{
			"buffer":0,
			"byteLength":2376,
			"byteOffset":33952,
			"target":34963
		},
		{
			"buffer":0,
			"byteLength":21168,
			"byteOffset":36328,
			"target":34962
		},
		{
			"buffer":0,
			"byteLength":21168,
			"byteOffset":57496,
			"target":34962
		},
		{
			"buffer":0,
			"byteLength":14112,
			"byteOffset":78664,
			"target":34962
		},
		{
			"buffer":0,
			"byteLength":5736,
			"byteOffset":92776,
			"target":34963
		},
		{
			"buffer":0,
			"byteLength":7512,
			"byteOffset":98512,
			"target":34962
		},
		{
			"buffer":0,
			"byteLength":7512,
			"byteOffset":106024,
			"target":34962
		},
		{
			"buffer":0,
			"byteLength":5008,
			"byteOffset":113536,
			"target":34962
		},
		{
			"buffer":0,
			"byteLength":2004,
			"byteOffset":118544,
			"target":34963
		},
		{
			"buffer":0,
			"byteLength":288,
			"byteOffset":120548,
			"target":34962
		},
		{
			"buffer":0,
			"byteLength":288,
			"byteOffset":120836,
			"target":34962
		},
		{
			"buffer":0,
			"byteLength":192,
			"byteOffset":121124,
			"target":34962
		},
		{
			"buffer":0,
			"byteLength":48,
			"byteOffset":121316,
			"target":34963
		},
		{
			"buffer":0,
			"byteLength":93444,
			"byteOffset":121364,
			"target":34962
		},
		{
			"buffer":0,
			"byteLength":93444,
			"byteOffset":214808,
			"target":34962
		},
		{
			"buffer":0,
			"byteLength":62296,
			"byteOffset":308252,
			"target":34962
		},
		{
			"buffer":0,
			"byteLength":21402,
			"byteOffset":370548,
			"target":34963
		},
		{
			"buffer":0,
			"byteLength":324,
			"byteOffset":391952,
			"target":34962
		},
		{
			"buffer":0,
			"byteLength":324,
			"byteOffset":392276,
			"target":34962
		},
		{
			"buffer":0,
			"byteLength":216,
			"byteOffset":392600,
			"target":34962
		},
		{
			"buffer":0,
			"byteLength":78,
			"byteOffset":392816,
			"target":34963
		},
		{
			"buffer":0,
			"byteLength":888,
			"byteOffset":392896,
			"target":34962
		},
		{
			"buffer":0,
			"byteLength":888,
			"byteOffset":393784,
			"target":34962
		},
		{
			"buffer":0,
			"byteLength":592,
			"byteOffset":394672,
			"target":34962
		},
		{
			"buffer":0,
			"byteLength":252,
			"byteOffset":395264,
			"target":34963
		}
	],
	"buffers":[
		{
			"byteLength":395516,
			"uri":"cell_x-3_z2_render.bin"
		}
	]
}
