{
	"asset":{
		"generator":"Khronos glTF Blender I/O v4.5.51",
		"version":"2.0"
	},
	"scene":0,
	"scenes":[
		{
			"name":"Scene",
			"nodes":[
				0
			]
		}
	],
	"nodes":[
		{
			"mesh":0,
			"name":"cell_x-2_z0",
			"rotation":[
				0.003071440849453211,
				-0.9679781794548035,
				0.011857455596327782,
				0.2507357597351074
			],
			"scale":[
				3.236264228820801,
				3.236264228820801,
				3.236264228820801
			],
			"translation":[
				-73.0562515258789,
				-1.3705646991729736,
				17.905838012695312
			]
		}
	],
	"materials":[
		{
			"name":"stone_v2",
			"pbrMetallicRoughness":{
				"baseColorFactor":[
					0.38132601976394653,
					0.38132601976394653,
					0.3324515223503113,
					1
				],
				"metallicFactor":0,
				"roughnessFactor":0.9200000166893005
			}
		},
		{
			"name":"stone_v1",
			"pbrMetallicRoughness":{
				"baseColorFactor":[
					0.2541520893573761,
					0.28744083642959595,
					0.3049873113632202,
					1
				],
				"metallicFactor":0,
				"roughnessFactor":0.9200000166893005
			}
		},
		{
			"name":"stone_v3",
			"pbrMetallicRoughness":{
				"baseColorFactor":[
					0.20863686501979828,
					0.2462013214826584,
					0.2622506618499756,
					1
				],
				"metallicFactor":0,
				"roughnessFactor":0.9200000166893005
			}
		},
		{
			"name":"dirt_v3",
			"pbrMetallicRoughness":{
				"baseColorFactor":[
					0.20863686501979828,
					0.15896083414554596,
					0.09084171056747437,
					1
				],
				"metallicFactor":0,
				"roughnessFactor":0.9200000166893005
			}
		},
		{
			"name":"grass",
			"pbrMetallicRoughness":{
				"baseColorFactor":[
					0.15592646598815918,
					0.2961382567882538,
					0.0802198201417923,
					1
				],
				"metallicFactor":0,
				"roughnessFactor":0.9200000166893005
			}
		},
		{
			"name":"leafsGreen",
			"pbrMetallicRoughness":{
				"baseColorFactor":[
					0.11443537473678589,
					0.23074005544185638,
					0.06301001459360123,
					1
				],
				"metallicFactor":0,
				"roughnessFactor":0.9200000166893005
			}
		},
		{
			"name":"woodBark",
			"pbrMetallicRoughness":{
				"baseColorFactor":[
					0.2015562504529953,
					0.08437620848417282,
					0.02955683507025242,
					1
				],
				"metallicFactor":0,
				"roughnessFactor":0.9200000166893005
			}
		},
		{
			"name":"woodBarkDark",
			"pbrMetallicRoughness":{
				"baseColorFactor":[
					0.11443537473678589,
					0.04666508734226227,
					0.016807375475764275,
					1
				],
				"metallicFactor":0,
				"roughnessFactor":0.9200000166893005
			}
		},
		{
			"name":"leafsDark",
			"pbrMetallicRoughness":{
				"baseColorFactor":[
					0.04817182570695877,
					0.11443537473678589,
					0.03310476616024971,
					1
				],
				"metallicFactor":0,
				"roughnessFactor":0.9200000166893005
			}
		},
		{
			"name":"_defaultMat",
			"pbrMetallicRoughness":{
				"baseColorFactor":[
					0.4564110338687897,
					0.4564110338687897,
					0.4125426113605499,
					1
				],
				"metallicFactor":0,
				"roughnessFactor":0.9200000166893005
			}
		},
		{
			"name":"dirt_v0",
			"pbrMetallicRoughness":{
				"baseColorFactor":[
					0.32314321398735046,
					0.24228112399578094,
					0.1384316086769104,
					1
				],
				"metallicFactor":0,
				"roughnessFactor":0.9200000166893005
			}
		},
		{
			"name":"colorYellow",
			"pbrMetallicRoughness":{
				"baseColorFactor":[
					0.5840784311294556,
					0.3613067865371704,
					0.07618538290262222,
					1
				],
				"metallicFactor":0,
				"roughnessFactor":0.9200000166893005
			}
		},
		{
			"name":"colorRed",
			"pbrMetallicRoughness":{
				"baseColorFactor":[
					0.34191441535949707,
					0.08437620848417282,
					0.05951123684644699,
					1
				],
				"metallicFactor":0,
				"roughnessFactor":0.9200000166893005
			}
		},
		{
			"name":"woodInner",
			"pbrMetallicRoughness":{
				"baseColorFactor":[
					0.577580451965332,
					0.423267662525177,
					0.23839756846427917,
					1
				],
				"metallicFactor":0,
				"roughnessFactor":0.9200000166893005
			}
		},
		{
			"name":"dirt_v1",
			"pbrMetallicRoughness":{
				"baseColorFactor":[
					0.2581828534603119,
					0.1946178376674652,
					0.1119324266910553,
					1
				],
				"metallicFactor":0,
				"roughnessFactor":0.9200000166893005
			}
		},
		{
			"name":"dirt_v2",
			"pbrMetallicRoughness":{
				"baseColorFactor":[
					0.38132601976394653,
					0.30054378509521484,
					0.1946178376674652,
					1
				],
				"metallicFactor":0,
				"roughnessFactor":0.9200000166893005
			}
		},
		{
			"name":"stone_v0",
			"pbrMetallicRoughness":{
				"baseColorFactor":[
					0.32314321398735046,
					0.35153260827064514,
					0.3613067865371704,
					1
				],
				"metallicFactor":0,
				"roughnessFactor":0.9200000166893005
			}
		},
		{
			"doubleSided":true,
			"name":"Color",
			"pbrMetallicRoughness":{
				"baseColorTexture":{
					"index":0
				},
				"metallicFactor":0,
				"roughnessFactor":0.75
			}
		},
		{
			"name":"wood",
			"pbrMetallicRoughness":{
				"baseColorFactor":[
					0.32314321398735046,
					0.1384316086769104,
					0.039546236395835876,
					1
				],
				"metallicFactor":0,
				"roughnessFactor":0.9200000166893005
			}
		},
		{
			"name":"woodDark",
			"pbrMetallicRoughness":{
				"baseColorFactor":[
					0.07618538290262222,
					0.03310476616024971,
					0.014443843625485897,
					1
				],
				"metallicFactor":0,
				"roughnessFactor":0.9200000166893005
			}
		},
		{
			"name":"colorRedDark",
			"pbrMetallicRoughness":{
				"baseColorFactor":[
					0.1946178376674652,
					0.04666508734226227,
					0.03433980792760849,
					1
				],
				"metallicFactor":0,
				"roughnessFactor":0.9200000166893005
			}
		}
	],
	"meshes":[
		{
			"name":"Mesh stone_smallTopA.005",
			"primitives":[
				{
					"attributes":{
						"POSITION":0,
						"NORMAL":1,
						"TEXCOORD_0":2,
						"COLOR_0":3
					},
					"indices":4,
					"material":0
				},
				{
					"attributes":{
						"POSITION":5,
						"NORMAL":6,
						"TEXCOORD_0":7,
						"COLOR_0":8
					},
					"indices":9,
					"material":1
				},
				{
					"attributes":{
						"POSITION":10,
						"NORMAL":11,
						"TEXCOORD_0":12,
						"COLOR_0":13
					},
					"indices":14,
					"material":2
				},
				{
					"attributes":{
						"POSITION":15,
						"NORMAL":16,
						"TEXCOORD_0":17,
						"COLOR_0":18
					},
					"indices":19,
					"material":3
				},
				{
					"attributes":{
						"POSITION":20,
						"NORMAL":21,
						"TEXCOORD_0":22,
						"COLOR_0":23
					},
					"indices":24,
					"material":4
				},
				{
					"attributes":{
						"POSITION":25,
						"NORMAL":26,
						"TEXCOORD_0":27,
						"COLOR_0":28
					},
					"indices":29,
					"material":5
				},
				{
					"attributes":{
						"POSITION":30,
						"NORMAL":31,
						"TEXCOORD_0":32,
						"COLOR_0":33
					},
					"indices":34,
					"material":6
				},
				{
					"attributes":{
						"POSITION":35,
						"NORMAL":36,
						"TEXCOORD_0":37,
						"COLOR_0":38
					},
					"indices":39,
					"material":7
				},
				{
					"attributes":{
						"POSITION":40,
						"NORMAL":41,
						"TEXCOORD_0":42,
						"COLOR_0":43
					},
					"indices":44,
					"material":8
				},
				{
					"attributes":{
						"POSITION":45,
						"NORMAL":46,
						"TEXCOORD_0":47,
						"COLOR_0":48
					},
					"indices":49,
					"material":9
				},
				{
					"attributes":{
						"POSITION":50,
						"NORMAL":51,
						"TEXCOORD_0":52,
						"COLOR_0":53
					},
					"indices":54,
					"material":10
				},
				{
					"attributes":{
						"POSITION":55,
						"NORMAL":56,
						"TEXCOORD_0":57,
						"COLOR_0":58
					},
					"indices":59,
					"material":11
				},
				{
					"attributes":{
						"POSITION":60,
						"NORMAL":61,
						"TEXCOORD_0":62,
						"COLOR_0":63
					},
					"indices":64,
					"material":12
				},
				{
					"attributes":{
						"POSITION":65,
						"NORMAL":66,
						"TEXCOORD_0":67,
						"COLOR_0":68
					},
					"indices":69,
					"material":13
				},
				{
					"attributes":{
						"POSITION":70,
						"NORMAL":71,
						"TEXCOORD_0":72,
						"COLOR_0":73
					},
					"indices":74,
					"material":14
				},
				{
					"attributes":{
						"POSITION":75,
						"NORMAL":76,
						"TEXCOORD_0":77,
						"COLOR_0":78
					},
					"indices":79,
					"material":15
				},
				{
					"attributes":{
						"POSITION":80,
						"NORMAL":81,
						"TEXCOORD_0":82,
						"COLOR_0":83
					},
					"indices":84,
					"material":16
				},
				{
					"attributes":{
						"POSITION":85,
						"NORMAL":86,
						"TEXCOORD_0":87,
						"COLOR_0":88
					},
					"indices":89,
					"material":17
				},
				{
					"attributes":{
						"POSITION":90,
						"NORMAL":91,
						"TEXCOORD_0":92,
						"COLOR_0":93
					},
					"indices":94,
					"material":18
				},
				{
					"attributes":{
						"POSITION":95,
						"NORMAL":96,
						"TEXCOORD_0":97,
						"COLOR_0":98
					},
					"indices":99,
					"material":19
				},
				{
					"attributes":{
						"POSITION":100,
						"NORMAL":101,
						"TEXCOORD_0":102,
						"COLOR_0":103
					},
					"indices":104,
					"material":20
				}
			]
		}
	],
	"textures":[
		{
			"sampler":0,
			"source":0
		}
	],
	"images":[
		{
			"mimeType":"image/png",
			"name":"Textures_4",
			"uri":"textures/Textures_4.png"
		}
	],
	"accessors":[
		{
			"bufferView":0,
			"componentType":5126,
			"count":337,
			"max":[
				0.24386711418628693,
				1.2876250743865967,
				0.2445732057094574
			],
			"min":[
				-0.7142253518104553,
				0,
				-7.339214324951172
			],
			"type":"VEC3"
		},
		{
			"bufferView":1,
			"componentType":5126,
			"count":337,
			"type":"VEC3"
		},
		{
			"bufferView":2,
			"componentType":5126,
			"count":337,
			"type":"VEC2"
		},
		{
			"bufferView":3,
			"componentType":5123,
			"count":337,
			"normalized":true,
			"type":"VEC4"
		},
		{
			"bufferView":4,
			"componentType":5123,
			"count":612,
			"type":"SCALAR"
		},
		{
			"bufferView":5,
			"componentType":5126,
			"count":669,
			"max":[
				4.563676357269287,
				1.2727980613708496,
				4.786171913146973
			],
			"min":[
				-8.088813781738281,
				-0.759530782699585,
				-6.305005073547363
			],
			"type":"VEC3"
		},
		{
			"bufferView":6,
			"componentType":5126,
			"count":669,
			"type":"VEC3"
		},
		{
			"bufferView":7,
			"componentType":5126,
			"count":669,
			"type":"VEC2"
		},
		{
			"bufferView":8,
			"componentType":5123,
			"count":669,
			"normalized":true,
			"type":"VEC4"
		},
		{
			"bufferView":9,
			"componentType":5123,
			"count":1128,
			"type":"SCALAR"
		},
		{
			"bufferView":10,
			"componentType":5126,
			"count":120,
			"max":[
				1.231778860092163,
				0.6444743871688843,
				-5.128182888031006
			],
			"min":[
				-0.043147265911102295,
				0.21775104105472565,
				-6.48651123046875
			],
			"type":"VEC3"
		},
		{
			"bufferView":11,
			"componentType":5126,
			"count":120,
			"type":"VEC3"
		},
		{
			"bufferView":12,
			"componentType":5126,
			"count":120,
			"type":"VEC2"
		},
		{
			"bufferView":13,
			"componentType":5123,
			"count":120,
			"normalized":true,
			"type":"VEC4"
		},
		{
			"bufferView":14,
			"componentType":5123,
			"count":192,
			"type":"SCALAR"
		},
		{
			"bufferView":15,
			"componentType":5126,
			"count":143,
			"max":[
				-5.102631568908691,
				-1.1215076446533203,
				-8.496871948242188
			],
			"min":[
				-6.612293720245361,
				-1.5442720651626587,
				-9.700268745422363
			],
			"type":"VEC3"
		},
		{
			"bufferView":16,
			"componentType":5126,
			"count":143,
			"type":"VEC3"
		},
		{
			"bufferView":17,
			"componentType":5126,
			"count":143,
			"type":"VEC2"
		},
		{
			"bufferView":18,
			"componentType":5123,
			"count":143,
			"normalized":true,
			"type":"VEC4"
		},
		{
			"bufferView":19,
			"componentType":5123,
			"count":213,
			"type":"SCALAR"
		},
		{
			"bufferView":20,
			"componentType":5126,
			"count":32898,
			"max":[
				4.736530780792236,
				1.3370461463928223,
				5.0164971351623535
			],
			"min":[
				-10.079888343811035,
				-1.1484875679016113,
				-9.522425651550293
			],
			"type":"VEC3"
		},
		{
			"bufferView":21,
			"componentType":5126,
			"count":32898,
			"type":"VEC3"
		},
		{
			"bufferView":22,
			"componentType":5126,
			"count":32898,
			"type":"VEC2"
		},
		{
			"bufferView":23,
			"componentType":5123,
			"count":32898,
			"normalized":true,
			"type":"VEC4"
		},
		{
			"bufferView":24,
			"componentType":5123,
			"count":44202,
			"type":"SCALAR"
		},
		{
			"bufferView":25,
			"componentType":5126,
			"count":14517,
			"max":[
				5.179131984710693,
				3.3742337226867676,
				4.932308673858643
			],
			"min":[
				-7.977240562438965,
				-0.8494428396224976,
				-6.428333282470703
			],
			"type":"VEC3"
		},
		{
			"bufferView":26,
			"componentType":5126,
			"count":14517,
			"type":"VEC3"
		},
		{
			"bufferView":27,
			"componentType":5126,
			"count":14517,
			"type":"VEC2"
		},
		{
			"bufferView":28,
			"componentType":5123,
			"count":14517,
			"normalized":true,
			"type":"VEC4"
		},
		{
			"bufferView":29,
			"componentType":5123,
			"count":22632,
			"type":"SCALAR"
		},
		{
			"bufferView":30,
			"componentType":5126,
			"count":9144,
			"max":[
				4.947601795196533,
				2.3124709129333496,
				4.611873626708984
			],
			"min":[
				-9.436147689819336,
				-1.0067379474639893,
				-6.141329765319824
			],
			"type":"VEC3"
		},
		{
			"bufferView":31,
			"componentType":5126,
			"count":9144,
			"type":"VEC3"
		},
		{
			"bufferView":32,
			"componentType":5126,
			"count":9144,
			"type":"VEC2"
		},
		{
			"bufferView":33,
			"componentType":5123,
			"count":9144,
			"normalized":true,
			"type":"VEC4"
		},
		{
			"bufferView":34,
			"componentType":5123,
			"count":14412,
			"type":"SCALAR"
		},
		{
			"bufferView":35,
			"componentType":5126,
			"count":4308,
			"max":[
				3.755662441253662,
				2.2192916870117188,
				1.3163106441497803
			],
			"min":[
				-8.184789657592773,
				-0.949497401714325,
				-6.138915061950684
			],
			"type":"VEC3"
		},
		{
			"bufferView":36,
			"componentType":5126,
			"count":4308,
			"type":"VEC3"
		},
		{
			"bufferView":37,
			"componentType":5126,
			"count":4308,
			"type":"VEC2"
		},
		{
			"bufferView":38,
			"componentType":5123,
			"count":4308,
			"normalized":true,
			"type":"VEC4"
		},
		{
			"bufferView":39,
			"componentType":5123,
			"count":6810,
			"type":"SCALAR"
		},
		{
			"bufferView":40,
			"componentType":5126,
			"count":5852,
			"max":[
				3.871109962463379,
				2.9184398651123047,
				1.5781160593032837
			],
			"min":[
				-8.351099967956543,
				-0.20008087158203125,
				-6.289767265319824
			],
			"type":"VEC3"
		},
		{
			"bufferView":41,
			"componentType":5126,
			"count":5852,
			"type":"VEC3"
		},
		{
			"bufferView":42,
			"componentType":5126,
			"count":5852,
			"type":"VEC2"
		},
		{
			"bufferView":43,
			"componentType":5123,
			"count":5852,
			"normalized":true,
			"type":"VEC4"
		},
		{
			"bufferView":44,
			"componentType":5123,
			"count":8712,
			"type":"SCALAR"
		},
		{
			"bufferView":45,
			"componentType":5126,
			"count":384,
			"max":[
				3.834707021713257,
				1.8738303184509277,
				4.374147415161133
			],
			"min":[
				-7.96102237701416,
				-0.7273593544960022,
				-7.339214324951172
			],
			"type":"VEC3"
		},
		{
			"bufferView":46,
			"componentType":5126,
			"count":384,
			"type":"VEC3"
		},
		{
			"bufferView":47,
			"componentType":5126,
			"count":384,
			"type":"VEC2"
		},
		{
			"bufferView":48,
			"componentType":5123,
			"count":384,
			"normalized":true,
			"type":"VEC4"
		},
		{
			"bufferView":49,
			"componentType":5123,
			"count":390,
			"type":"SCALAR"
		},
		{
			"bufferView":50,
			"componentType":5126,
			"count":94,
			"max":[
				-2.2731027603149414,
				0.239640012383461,
				-0.5457168817520142
			],
			"min":[
				-8.660242080688477,
				-0.5336352586746216,
				-5.359331130981445
			],
			"type":"VEC3"
		},
		{
			"bufferView":51,
			"componentType":5126,
			"count":94,
			"type":"VEC3"
		},
		{
			"bufferView":52,
			"componentType":5126,
			"count":94,
			"type":"VEC2"
		},
		{
			"bufferView":53,
			"componentType":5123,
			"count":94,
			"normalized":true,
			"type":"VEC4"
		},
		{
			"bufferView":54,
			"componentType":5123,
			"count":150,
			"type":"SCALAR"
		},
		{
			"bufferView":55,
			"componentType":5126,
			"count":149,
			"max":[
				-4.635106563568115,
				-0.07357539236545563,
				-2.4889683723449707
			],
			"min":[
				-4.800194263458252,
				-0.2543103098869324,
				-2.6459555625915527
			],
			"type":"VEC3"
		},
		{
			"bufferView":56,
			"componentType":5126,
			"count":149,
			"type":"VEC3"
		},
		{
			"bufferView":57,
			"componentType":5126,
			"count":149,
			"type":"VEC2"
		},
		{
			"bufferView":58,
			"componentType":5123,
			"count":149,
			"normalized":true,
			"type":"VEC4"
		},
		{
			"bufferView":59,
			"componentType":5123,
			"count":270,
			"type":"SCALAR"
		},
		{
			"bufferView":60,
			"componentType":5126,
			"count":408,
			"max":[
				2.182278633117676,
				1.2008092403411865,
				-1.6859744787216187
			],
			"min":[
				-2.8038394451141357,
				-0.06721130013465881,
				-6.1178388595581055
			],
			"type":"VEC3"
		},
		{
			"bufferView":61,
			"componentType":5126,
			"count":408,
			"type":"VEC3"
		},
		{
			"bufferView":62,
			"componentType":5126,
			"count":408,
			"type":"VEC2"
		},
		{
			"bufferView":63,
			"componentType":5123,
			"count":408,
			"normalized":true,
			"type":"VEC4"
		},
		{
			"bufferView":64,
			"componentType":5123,
			"count":747,
			"type":"SCALAR"
		},
		{
			"bufferView":65,
			"componentType":5126,
			"count":89,
			"max":[
				3.1102488040924072,
				1.1887719631195068,
				-0.21188312768936157
			],
			"min":[
				-9.361513137817383,
				-0.2097579389810562,
				-5.907376289367676
			],
			"type":"VEC3"
		},
		{
			"bufferView":66,
			"componentType":5126,
			"count":89,
			"type":"VEC3"
		},
		{
			"bufferView":67,
			"componentType":5126,
			"count":89,
			"type":"VEC2"
		},
		{
			"bufferView":68,
			"componentType":5123,
			"count":89,
			"normalized":true,
			"type":"VEC4"
		},
		{
			"bufferView":69,
			"componentType":5123,
			"count":120,
			"type":"SCALAR"
		},
		{
			"bufferView":70,
			"componentType":5126,
			"count":78,
			"max":[
				1.2204878330230713,
				1.0887609720230103,
				-1.4764046669006348
			],
			"min":[
				-4.680124282836914,
				-0.1451248824596405,
				-4.0530619621276855
			],
			"type":"VEC3"
		},
		{
			"bufferView":71,
			"componentType":5126,
			"count":78,
			"type":"VEC3"
		},
		{
			"bufferView":72,
			"componentType":5126,
			"count":78,
			"type":"VEC2"
		},
		{
			"bufferView":73,
			"componentType":5123,
			"count":78,
			"normalized":true,
			"type":"VEC4"
		},
		{
			"bufferView":74,
			"componentType":5123,
			"count":120,
			"type":"SCALAR"
		},
		{
			"bufferView":75,
			"componentType":5126,
			"count":132,
			"max":[
				-5.276017189025879,
				0.12353166937828064,
				1.6994856595993042
			],
			"min":[
				-8.94901180267334,
				-0.9754169583320618,
				-1.5264084339141846
			],
			"type":"VEC3"
		},
		{
			"bufferView":76,
			"componentType":5126,
			"count":132,
			"type":"VEC3"
		},
		{
			"bufferView":77,
			"componentType":5126,
			"count":132,
			"type":"VEC2"
		},
		{
			"bufferView":78,
			"componentType":5123,
			"count":132,
			"normalized":true,
			"type":"VEC4"
		},
		{
			"bufferView":79,
			"componentType":5123,
			"count":195,
			"type":"SCALAR"
		},
		{
			"bufferView":80,
			"componentType":5126,
			"count":356,
			"max":[
				1.025197982788086,
				1.1174753904342651,
				0.11608308553695679
			],
			"min":[
				-7.505063056945801,
				-0.6699292063713074,
				-6.881013870239258
			],
			"type":"VEC3"
		},
		{
			"bufferView":81,
			"componentType":5126,
			"count":356,
			"type":"VEC3"
		},
		{
			"bufferView":82,
			"componentType":5126,
			"count":356,
			"type":"VEC2"
		},
		{
			"bufferView":83,
			"componentType":5123,
			"count":356,
			"normalized":true,
			"type":"VEC4"
		},
		{
			"bufferView":84,
			"componentType":5123,
			"count":582,
			"type":"SCALAR"
		},
		{
			"bufferView":85,
			"componentType":5126,
			"count":3790,
			"max":[
				-0.8751657009124756,
				1.0747772455215454,
				0.2247534692287445
			],
			"min":[
				-8.6184720993042,
				-0.6235065460205078,
				-6.4474406242370605
			],
			"type":"VEC3"
		},
		{
			"bufferView":86,
			"componentType":5126,
			"count":3790,
			"type":"VEC3"
		},
		{
			"bufferView":87,
			"componentType":5126,
			"count":3790,
			"type":"VEC2"
		},
		{
			"bufferView":88,
			"componentType":5123,
			"count":3790,
			"normalized":true,
			"type":"VEC4"
		},
		{
			"bufferView":89,
			"componentType":5123,
			"count":15300,
			"type":"SCALAR"
		},
		{
			"bufferView":90,
			"componentType":5126,
			"count":1262,
			"max":[
				2.2173354625701904,
				1.2532700300216675,
				-5.102343559265137
			],
			"min":[
				-3.475579023361206,
				0.13312295079231262,
				-7.193271636962891
			],
			"type":"VEC3"
		},
		{
			"bufferView":91,
			"componentType":5126,
			"count":1262,
			"type":"VEC3"
		},
		{
			"bufferView":92,
			"componentType":5126,
			"count":1262,
			"type":"VEC2"
		},
		{
			"bufferView":93,
			"componentType":5123,
			"count":1262,
			"normalized":true,
			"type":"VEC4"
		},
		{
			"bufferView":94,
			"componentType":5123,
			"count":2082,
			"type":"SCALAR"
		},
		{
			"bufferView":95,
			"componentType":5126,
			"count":166,
			"max":[
				0.9748006463050842,
				0.5464290380477905,
				-6.142923831939697
			],
			"min":[
				0.5616907477378845,
				0.45973625779151917,
				-6.557046890258789
			],
			"type":"VEC3"
		},
		{
			"bufferView":96,
			"componentType":5126,
			"count":166,
			"type":"VEC3"
		},
		{
			"bufferView":97,
			"componentType":5126,
			"count":166,
			"type":"VEC2"
		},
		{
			"bufferView":98,
			"componentType":5123,
			"count":166,
			"normalized":true,
			"type":"VEC4"
		},
		{
			"bufferView":99,
			"componentType":5123,
			"count":294,
			"type":"SCALAR"
		},
		{
			"bufferView":100,
			"componentType":5126,
			"count":7,
			"max":[
				-0.5334141254425049,
				0.7923542261123657,
				-5.097958087921143
			],
			"min":[
				-0.5580882430076599,
				0.15228362381458282,
				-5.114694118499756
			],
			"type":"VEC3"
		},
		{
			"bufferView":101,
			"componentType":5126,
			"count":7,
			"type":"VEC3"
		},
		{
			"bufferView":102,
			"componentType":5126,
			"count":7,
			"type":"VEC2"
		},
		{
			"bufferView":103,
			"componentType":5123,
			"count":7,
			"normalized":true,
			"type":"VEC4"
		},
		{
			"bufferView":104,
			"componentType":5123,
			"count":9,
			"type":"SCALAR"
		}
	],
	"bufferViews":[
		{
			"buffer":0,
			"byteLength":4044,
			"byteOffset":0,
			"target":34962
		},
		{
			"buffer":0,
			"byteLength":4044,
			"byteOffset":4044,
			"target":34962
		},
		{
			"buffer":0,
			"byteLength":2696,
			"byteOffset":8088,
			"target":34962
		},
		{
			"buffer":0,
			"byteLength":2696,
			"byteOffset":10784,
			"target":34962
		},
		{
			"buffer":0,
			"byteLength":1224,
			"byteOffset":13480,
			"target":34963
		},
		{
			"buffer":0,
			"byteLength":8028,
			"byteOffset":14704,
			"target":34962
		},
		{
			"buffer":0,
			"byteLength":8028,
			"byteOffset":22732,
			"target":34962
		},
		{
			"buffer":0,
			"byteLength":5352,
			"byteOffset":30760,
			"target":34962
		},
		{
			"buffer":0,
			"byteLength":5352,
			"byteOffset":36112,
			"target":34962
		},
		{
			"buffer":0,
			"byteLength":2256,
			"byteOffset":41464,
			"target":34963
		},
		{
			"buffer":0,
			"byteLength":1440,
			"byteOffset":43720,
			"target":34962
		},
		{
			"buffer":0,
			"byteLength":1440,
			"byteOffset":45160,
			"target":34962
		},
		{
			"buffer":0,
			"byteLength":960,
			"byteOffset":46600,
			"target":34962
		},
		{
			"buffer":0,
			"byteLength":960,
			"byteOffset":47560,
			"target":34962
		},
		{
			"buffer":0,
			"byteLength":384,
			"byteOffset":48520,
			"target":34963
		},
		{
			"buffer":0,
			"byteLength":1716,
			"byteOffset":48904,
			"target":34962
		},
		{
			"buffer":0,
			"byteLength":1716,
			"byteOffset":50620,
			"target":34962
		},
		{
			"buffer":0,
			"byteLength":1144,
			"byteOffset":52336,
			"target":34962
		},
		{
			"buffer":0,
			"byteLength":1144,
			"byteOffset":53480,
			"target":34962
		},
		{
			"buffer":0,
			"byteLength":426,
			"byteOffset":54624,
			"target":34963
		},
		{
			"buffer":0,
			"byteLength":394776,
			"byteOffset":55052,
			"target":34962
		},
		{
			"buffer":0,
			"byteLength":394776,
			"byteOffset":449828,
			"target":34962
		},
		{
			"buffer":0,
			"byteLength":263184,
			"byteOffset":844604,
			"target":34962
		},
		{
			"buffer":0,
			"byteLength":263184,
			"byteOffset":1107788,
			"target":34962
		},
		{
			"buffer":0,
			"byteLength":88404,
			"byteOffset":1370972,
			"target":34963
		},
		{
			"buffer":0,
			"byteLength":174204,
			"byteOffset":1459376,
			"target":34962
		},
		{
			"buffer":0,
			"byteLength":174204,
			"byteOffset":1633580,
			"target":34962
		},
		{
			"buffer":0,
			"byteLength":116136,
			"byteOffset":1807784,
			"target":34962
		},
		{
			"buffer":0,
			"byteLength":116136,
			"byteOffset":1923920,
			"target":34962
		},
		{
			"buffer":0,
			"byteLength":45264,
			"byteOffset":2040056,
			"target":34963
		},
		{
			"buffer":0,
			"byteLength":109728,
			"byteOffset":2085320,
			"target":34962
		},
		{
			"buffer":0,
			"byteLength":109728,
			"byteOffset":2195048,
			"target":34962
		},
		{
			"buffer":0,
			"byteLength":73152,
			"byteOffset":2304776,
			"target":34962
		},
		{
			"buffer":0,
			"byteLength":73152,
			"byteOffset":2377928,
			"target":34962
		},
		{
			"buffer":0,
			"byteLength":28824,
			"byteOffset":2451080,
			"target":34963
		},
		{
			"buffer":0,
			"byteLength":51696,
			"byteOffset":2479904,
			"target":34962
		},
		{
			"buffer":0,
			"byteLength":51696,
			"byteOffset":2531600,
			"target":34962
		},
		{
			"buffer":0,
			"byteLength":34464,
			"byteOffset":2583296,
			"target":34962
		},
		{
			"buffer":0,
			"byteLength":34464,
			"byteOffset":2617760,
			"target":34962
		},
		{
			"buffer":0,
			"byteLength":13620,
			"byteOffset":2652224,
			"target":34963
		},
		{
			"buffer":0,
			"byteLength":70224,
			"byteOffset":2665844,
			"target":34962
		},
		{
			"buffer":0,
			"byteLength":70224,
			"byteOffset":2736068,
			"target":34962
		},
		{
			"buffer":0,
			"byteLength":46816,
			"byteOffset":2806292,
			"target":34962
		},
		{
			"buffer":0,
			"byteLength":46816,
			"byteOffset":2853108,
			"target":34962
		},
		{
			"buffer":0,
			"byteLength":17424,
			"byteOffset":2899924,
			"target":34963
		},
		{
			"buffer":0,
			"byteLength":4608,
			"byteOffset":2917348,
			"target":34962
		},
		{
			"buffer":0,
			"byteLength":4608,
			"byteOffset":2921956,
			"target":34962
		},
		{
			"buffer":0,
			"byteLength":3072,
			"byteOffset":2926564,
			"target":34962
		},
		{
			"buffer":0,
			"byteLength":3072,
			"byteOffset":2929636,
			"target":34962
		},
		{
			"buffer":0,
			"byteLength":780,
			"byteOffset":2932708,
			"target":34963
		},
		{
			"buffer":0,
			"byteLength":1128,
			"byteOffset":2933488,
			"target":34962
		},
		{
			"buffer":0,
			"byteLength":1128,
			"byteOffset":2934616,
			"target":34962
		},
		{
			"buffer":0,
			"byteLength":752,
			"byteOffset":2935744,
			"target":34962
		},
		{
			"buffer":0,
			"byteLength":752,
			"byteOffset":2936496,
			"target":34962
		},
		{
			"buffer":0,
			"byteLength":300,
			"byteOffset":2937248,
			"target":34963
		},
		{
			"buffer":0,
			"byteLength":1788,
			"byteOffset":2937548,
			"target":34962
		},
		{
			"buffer":0,
			"byteLength":1788,
			"byteOffset":2939336,
			"target":34962
		},
		{
			"buffer":0,
			"byteLength":1192,
			"byteOffset":2941124,
			"target":34962
		},
		{
			"buffer":0,
			"byteLength":1192,
			"byteOffset":2942316,
			"target":34962
		},
		{
			"buffer":0,
			"byteLength":540,
			"byteOffset":2943508,
			"target":34963
		},
		{
			"buffer":0,
			"byteLength":4896,
			"byteOffset":2944048,
			"target":34962
		},
		{
			"buffer":0,
			"byteLength":4896,
			"byteOffset":2948944,
			"target":34962
		},
		{
			"buffer":0,
			"byteLength":3264,
			"byteOffset":2953840,
			"target":34962
		},
		{
			"buffer":0,
			"byteLength":3264,
			"byteOffset":2957104,
			"target":34962
		},
		{
			"buffer":0,
			"byteLength":1494,
			"byteOffset":2960368,
			"target":34963
		},
		{
			"buffer":0,
			"byteLength":1068,
			"byteOffset":2961864,
			"target":34962
		},
		{
			"buffer":0,
			"byteLength":1068,
			"byteOffset":2962932,
			"target":34962
		},
		{
			"buffer":0,
			"byteLength":712,
			"byteOffset":2964000,
			"target":34962
		},
		{
			"buffer":0,
			"byteLength":712,
			"byteOffset":2964712,
			"target":34962
		},
		{
			"buffer":0,
			"byteLength":240,
			"byteOffset":2965424,
			"target":34963
		},
		{
			"buffer":0,
			"byteLength":936,
			"byteOffset":2965664,
			"target":34962
		},
		{
			"buffer":0,
			"byteLength":936,
			"byteOffset":2966600,
			"target":34962
		},
		{
			"buffer":0,
			"byteLength":624,
			"byteOffset":2967536,
			"target":34962
		},
		{
			"buffer":0,
			"byteLength":624,
			"byteOffset":2968160,
			"target":34962
		},
		{
			"buffer":0,
			"byteLength":240,
			"byteOffset":2968784,
			"target":34963
		},
		{
			"buffer":0,
			"byteLength":1584,
			"byteOffset":2969024,
			"target":34962
		},
		{
			"buffer":0,
			"byteLength":1584,
			"byteOffset":2970608,
			"target":34962
		},
		{
			"buffer":0,
			"byteLength":1056,
			"byteOffset":2972192,
			"target":34962
		},
		{
			"buffer":0,
			"byteLength":1056,
			"byteOffset":2973248,
			"target":34962
		},
		{
			"buffer":0,
			"byteLength":390,
			"byteOffset":2974304,
			"target":34963
		},
		{
			"buffer":0,
			"byteLength":4272,
			"byteOffset":2974696,
			"target":34962
		},
		{
			"buffer":0,
			"byteLength":4272,
			"byteOffset":2978968,
			"target":34962
		},
		{
			"buffer":0,
			"byteLength":2848,
			"byteOffset":2983240,
			"target":34962
		},
		{
			"buffer":0,
			"byteLength":2848,
			"byteOffset":2986088,
			"target":34962
		},
		{
			"buffer":0,
			"byteLength":1164,
			"byteOffset":2988936,
			"target":34963
		},
		{
			"buffer":0,
			"byteLength":45480,
			"byteOffset":2990100,
			"target":34962
		},
		{
			"buffer":0,
			"byteLength":45480,
			"byteOffset":3035580,
			"target":34962
		},
		{
			"buffer":0,
			"byteLength":30320,
			"byteOffset":3081060,
			"target":34962
		},
		{
			"buffer":0,
			"byteLength":30320,
			"byteOffset":3111380,
			"target":34962
		},
		{
			"buffer":0,
			"byteLength":30600,
			"byteOffset":3141700,
			"target":34963
		},
		{
			"buffer":0,
			"byteLength":15144,
			"byteOffset":3172300,
			"target":34962
		},
		{
			"buffer":0,
			"byteLength":15144,
			"byteOffset":3187444,
			"target":34962
		},
		{
			"buffer":0,
			"byteLength":10096,
			"byteOffset":3202588,
			"target":34962
		},
		{
			"buffer":0,
			"byteLength":10096,
			"byteOffset":3212684,
			"target":34962
		},
		{
			"buffer":0,
			"byteLength":4164,
			"byteOffset":3222780,
			"target":34963
		},
		{
			"buffer":0,
			"byteLength":1992,
			"byteOffset":3226944,
			"target":34962
		},
		{
			"buffer":0,
			"byteLength":1992,
			"byteOffset":3228936,
			"target":34962
		},
		{
			"buffer":0,
			"byteLength":1328,
			"byteOffset":3230928,
			"target":34962
		},
		{
			"buffer":0,
			"byteLength":1328,
			"byteOffset":3232256,
			"target":34962
		},
		{
			"buffer":0,
			"byteLength":588,
			"byteOffset":3233584,
			"target":34963
		},
		{
			"buffer":0,
			"byteLength":84,
			"byteOffset":3234172,
			"target":34962
		},
		{
			"buffer":0,
			"byteLength":84,
			"byteOffset":3234256,
			"target":34962
		},
		{
			"buffer":0,
			"byteLength":56,
			"byteOffset":3234340,
			"target":34962
		},
		{
			"buffer":0,
			"byteLength":56,
			"byteOffset":3234396,
			"target":34962
		},
		{
			"buffer":0,
			"byteLength":18,
			"byteOffset":3234452,
			"target":34963
		}
	],
	"samplers":[
		{
			"magFilter":9729,
			"minFilter":9987
		}
	],
	"buffers":[
		{
			"byteLength":3234472,
			"uri":"cell_x-2_z0_render.bin"
		}
	]
}
