{
	"asset":{
		"generator":"Khronos glTF Blender I/O v4.5.51",
		"version":"2.0"
	},
	"scene":0,
	"scenes":[
		{
			"name":"Scene",
			"nodes":[
				0
			]
		}
	],
	"nodes":[
		{
			"mesh":0,
			"name":"cell_x-4_z2",
			"rotation":[
				0,
				-0.42895376682281494,
				0,
				0.9033264517784119
			],
			"scale":[
				1.396074891090393,
				1.396074891090393,
				1.396074891090393
			],
			"translation":[
				-131.60000610351562,
				22.561716079711914,
				84.24263763427734
			]
		}
	],
	"materials":[
		{
			"doubleSided":true,
			"name":"sol_falaise",
			"normalTexture":{
				"index":0,
				"scale":0.800000011920929
			},
			"pbrMetallicRoughness":{
				"baseColorFactor":[
					0.6514056324958801,
					0.6104955673217773,
					0.5149176716804504,
					1
				],
				"baseColorTexture":{
					"index":1
				},
				"metallicFactor":0,
				"roughnessFactor":0.949999988079071
			}
		}
	],
	"meshes":[
		{
			"name":"SM_ENV_cliff_castle_02_instantmeshesexp_02.003",
			"primitives":[
				{
					"attributes":{
						"POSITION":0,
						"NORMAL":1,
						"TEXCOORD_0":2,
						"TEXCOORD_1":3,
						"COLOR_0":4
					},
					"indices":5,
					"material":0
				}
			]
		}
	],
	"textures":[
		{
			"sampler":0,
			"source":0
		},
		{
			"sampler":0,
			"source":1
		}
	],
	"images":[
		{
			"mimeType":"image/png",
			"name":"cliff_n",
			"uri":"textures/cliff_n.png"
		},
		{
			"mimeType":"image/png",
			"name":"stone_bc",
			"uri":"textures/stone_bc.png"
		}
	],
	"accessors":[
		{
			"bufferView":0,
			"componentType":5126,
			"count":12795,
			"max":[
				14.578006744384766,
				6.94196891784668,
				9.534090042114258
			],
			"min":[
				-5.224124431610107,
				-11.529111862182617,
				-5.390221118927002
			],
			"type":"VEC3"
		},
		{
			"bufferView":1,
			"componentType":5126,
			"count":12795,
			"type":"VEC3"
		},
		{
			"bufferView":2,
			"componentType":5126,
			"count":12795,
			"type":"VEC2"
		},
		{
			"bufferView":3,
			"componentType":5126,
			"count":12795,
			"type":"VEC2"
		},
		{
			"bufferView":4,
			"componentType":5123,
			"count":12795,
			"normalized":true,
			"type":"VEC4"
		},
		{
			"bufferView":5,
			"componentType":5123,
			"count":67122,
			"type":"SCALAR"
		}
	],
	"bufferViews":[
		{
			"buffer":0,
			"byteLength":153540,
			"byteOffset":0,
			"target":34962
		},
		{
			"buffer":0,
			"byteLength":153540,
			"byteOffset":153540,
			"target":34962
		},
		{
			"buffer":0,
			"byteLength":102360,
			"byteOffset":307080,
			"target":34962
		},
		{
			"buffer":0,
			"byteLength":102360,
			"byteOffset":409440,
			"target":34962
		},
		{
			"buffer":0,
			"byteLength":102360,
			"byteOffset":511800,
			"target":34962
		},
		{
			"buffer":0,
			"byteLength":134244,
			"byteOffset":614160,
			"target":34963
		}
	],
	"samplers":[
		{
			"magFilter":9729,
			"minFilter":9987
		}
	],
	"buffers":[
		{
			"byteLength":748404,
			"uri":"cell_x-4_z2_render.bin"
		}
	]
}
