{
	"asset":{
		"generator":"Khronos glTF Blender I/O v4.5.51",
		"version":"2.0"
	},
	"scene":0,
	"scenes":[
		{
			"name":"Scene",
			"nodes":[
				0
			]
		}
	],
	"nodes":[
		{
			"mesh":0,
			"name":"cell_x3_z-1",
			"rotation":[
				0.021214492619037628,
				0.6629161238670349,
				-0.018797431141138077,
				0.7481570243835449
			],
			"scale":[
				4.316255569458008,
				4.31625509262085,
				4.316255569458008
			],
			"translation":[
				123.19744110107422,
				-0.16224388778209686,
				-25.061317443847656
			]
		}
	],
	"materials":[
		{
			"name":"stone_v0",
			"pbrMetallicRoughness":{
				"baseColorFactor":[
					0.32314321398735046,
					0.35153260827064514,
					0.3613067865371704,
					1
				],
				"metallicFactor":0,
				"roughnessFactor":0.9200000166893005
			}
		},
		{
			"name":"_defaultMat",
			"pbrMetallicRoughness":{
				"baseColorFactor":[
					0.4564110338687897,
					0.4564110338687897,
					0.4125426113605499,
					1
				],
				"metallicFactor":0,
				"roughnessFactor":0.9200000166893005
			}
		},
		{
			"name":"stone_v3",
			"pbrMetallicRoughness":{
				"baseColorFactor":[
					0.20863686501979828,
					0.2462013214826584,
					0.2622506618499756,
					1
				],
				"metallicFactor":0,
				"roughnessFactor":0.9200000166893005
			}
		},
		{
			"name":"stone_v1",
			"pbrMetallicRoughness":{
				"baseColorFactor":[
					0.2541520893573761,
					0.28744083642959595,
					0.3049873113632202,
					1
				],
				"metallicFactor":0,
				"roughnessFactor":0.9200000166893005
			}
		},
		{
			"name":"leafsFall",
			"pbrMetallicRoughness":{
				"baseColorFactor":[
					0.4564110338687897,
					0.18782077729701996,
					0.045186202973127365,
					1
				],
				"metallicFactor":0,
				"roughnessFactor":0.9200000166893005
			}
		},
		{
			"name":"woodBirch",
			"pbrMetallicRoughness":{
				"baseColorFactor":[
					0.7304607629776001,
					0.6583748459815979,
					0.5028864741325378,
					1
				],
				"metallicFactor":0,
				"roughnessFactor":0.9200000166893005
			}
		},
		{
			"name":"leafsGreen",
			"pbrMetallicRoughness":{
				"baseColorFactor":[
					0.11443537473678589,
					0.23074005544185638,
					0.06301001459360123,
					1
				],
				"metallicFactor":0,
				"roughnessFactor":0.9200000166893005
			}
		},
		{
			"name":"woodBark",
			"pbrMetallicRoughness":{
				"baseColorFactor":[
					0.2015562504529953,
					0.08437620848417282,
					0.02955683507025242,
					1
				],
				"metallicFactor":0,
				"roughnessFactor":0.9200000166893005
			}
		},
		{
			"name":"grass",
			"pbrMetallicRoughness":{
				"baseColorFactor":[
					0.15592646598815918,
					0.2961382567882538,
					0.0802198201417923,
					1
				],
				"metallicFactor":0,
				"roughnessFactor":0.9200000166893005
			}
		}
	],
	"meshes":[
		{
			"name":"Mesh stone_tallF.058",
			"primitives":[
				{
					"attributes":{
						"POSITION":0,
						"NORMAL":1,
						"TEXCOORD_0":2,
						"COLOR_0":3
					},
					"indices":4,
					"material":0
				},
				{
					"attributes":{
						"POSITION":5,
						"NORMAL":6,
						"TEXCOORD_0":7,
						"COLOR_0":8
					},
					"indices":9,
					"material":1
				},
				{
					"attributes":{
						"POSITION":10,
						"NORMAL":11,
						"TEXCOORD_0":12,
						"COLOR_0":13
					},
					"indices":14,
					"material":2
				},
				{
					"attributes":{
						"POSITION":15,
						"NORMAL":16,
						"TEXCOORD_0":17,
						"COLOR_0":18
					},
					"indices":19,
					"material":3
				},
				{
					"attributes":{
						"POSITION":20,
						"NORMAL":21,
						"TEXCOORD_0":22,
						"COLOR_0":23
					},
					"indices":24,
					"material":4
				},
				{
					"attributes":{
						"POSITION":25,
						"NORMAL":26,
						"TEXCOORD_0":27,
						"COLOR_0":28
					},
					"indices":29,
					"material":5
				},
				{
					"attributes":{
						"POSITION":30,
						"NORMAL":31,
						"TEXCOORD_0":32,
						"COLOR_0":33
					},
					"indices":34,
					"material":6
				},
				{
					"attributes":{
						"POSITION":35,
						"NORMAL":36,
						"TEXCOORD_0":37,
						"COLOR_0":38
					},
					"indices":39,
					"material":7
				},
				{
					"attributes":{
						"POSITION":40,
						"NORMAL":41,
						"TEXCOORD_0":42,
						"COLOR_0":43
					},
					"indices":44,
					"material":8
				}
			]
		}
	],
	"accessors":[
		{
			"bufferView":0,
			"componentType":5126,
			"count":74,
			"max":[
				0.2218480110168457,
				0.5736719965934753,
				0.256168007850647
			],
			"min":[
				-0.2218480110168457,
				0,
				-0.256168007850647
			],
			"type":"VEC3"
		},
		{
			"bufferView":1,
			"componentType":5126,
			"count":74,
			"type":"VEC3"
		},
		{
			"bufferView":2,
			"componentType":5126,
			"count":74,
			"type":"VEC2"
		},
		{
			"bufferView":3,
			"componentType":5123,
			"count":74,
			"normalized":true,
			"type":"VEC4"
		},
		{
			"bufferView":4,
			"componentType":5123,
			"count":126,
			"type":"SCALAR"
		},
		{
			"bufferView":5,
			"componentType":5126,
			"count":36,
			"max":[
				2.7446563243865967,
				0.47909414768218994,
				0.256168007850647
			],
			"min":[
				-0.2218480110168457,
				-0.09660784900188446,
				-1.1163198947906494
			],
			"type":"VEC3"
		},
		{
			"bufferView":6,
			"componentType":5126,
			"count":36,
			"type":"VEC3"
		},
		{
			"bufferView":7,
			"componentType":5126,
			"count":36,
			"type":"VEC2"
		},
		{
			"bufferView":8,
			"componentType":5123,
			"count":36,
			"normalized":true,
			"type":"VEC4"
		},
		{
			"bufferView":9,
			"componentType":5123,
			"count":36,
			"type":"SCALAR"
		},
		{
			"bufferView":10,
			"componentType":5126,
			"count":230,
			"max":[
				3.325906276702881,
				0.23369485139846802,
				0.8737584352493286
			],
			"min":[
				-4.02285623550415,
				-0.19136857986450195,
				-0.99737948179245
			],
			"type":"VEC3"
		},
		{
			"bufferView":11,
			"componentType":5126,
			"count":230,
			"type":"VEC3"
		},
		{
			"bufferView":12,
			"componentType":5126,
			"count":230,
			"type":"VEC2"
		},
		{
			"bufferView":13,
			"componentType":5123,
			"count":230,
			"normalized":true,
			"type":"VEC4"
		},
		{
			"bufferView":14,
			"componentType":5123,
			"count":396,
			"type":"SCALAR"
		},
		{
			"bufferView":15,
			"componentType":5126,
			"count":76,
			"max":[
				0.4087352454662323,
				0.4772547483444214,
				0.042782366275787354
			],
			"min":[
				-0.044115036725997925,
				-0.09660784900188446,
				-0.447784960269928
			],
			"type":"VEC3"
		},
		{
			"bufferView":16,
			"componentType":5126,
			"count":76,
			"type":"VEC3"
		},
		{
			"bufferView":17,
			"componentType":5126,
			"count":76,
			"type":"VEC2"
		},
		{
			"bufferView":18,
			"componentType":5123,
			"count":76,
			"normalized":true,
			"type":"VEC4"
		},
		{
			"bufferView":19,
			"componentType":5123,
			"count":126,
			"type":"SCALAR"
		},
		{
			"bufferView":20,
			"componentType":5126,
			"count":930,
			"max":[
				2.9543709754943848,
				1.984932541847229,
				-0.1014576256275177
			],
			"min":[
				-0.5266197323799133,
				-0.11831776797771454,
				-1.3415167331695557
			],
			"type":"VEC3"
		},
		{
			"bufferView":21,
			"componentType":5126,
			"count":930,
			"type":"VEC3"
		},
		{
			"bufferView":22,
			"componentType":5126,
			"count":930,
			"type":"VEC2"
		},
		{
			"bufferView":23,
			"componentType":5123,
			"count":930,
			"normalized":true,
			"type":"VEC4"
		},
		{
			"bufferView":24,
			"componentType":5123,
			"count":1434,
			"type":"SCALAR"
		},
		{
			"bufferView":25,
			"componentType":5126,
			"count":492,
			"max":[
				2.851614236831665,
				0.5981030464172363,
				-0.2042347639799118
			],
			"min":[
				-0.34034016728401184,
				-0.11831776797771454,
				-1.2778913974761963
			],
			"type":"VEC3"
		},
		{
			"bufferView":26,
			"componentType":5126,
			"count":492,
			"type":"VEC3"
		},
		{
			"bufferView":27,
			"componentType":5126,
			"count":492,
			"type":"VEC2"
		},
		{
			"bufferView":28,
			"componentType":5123,
			"count":492,
			"normalized":true,
			"type":"VEC4"
		},
		{
			"bufferView":29,
			"componentType":5123,
			"count":786,
			"type":"SCALAR"
		},
		{
			"bufferView":30,
			"componentType":5126,
			"count":624,
			"max":[
				3.042168378829956,
				1.0971031188964844,
				-0.5356775522232056
			],
			"min":[
				1.5755497217178345,
				-0.03719238191843033,
				-1.351735234260559
			],
			"type":"VEC3"
		},
		{
			"bufferView":31,
			"componentType":5126,
			"count":624,
			"type":"VEC3"
		},
		{
			"bufferView":32,
			"componentType":5126,
			"count":624,
			"type":"VEC2"
		},
		{
			"bufferView":33,
			"componentType":5123,
			"count":624,
			"normalized":true,
			"type":"VEC4"
		},
		{
			"bufferView":34,
			"componentType":5123,
			"count":972,
			"type":"SCALAR"
		},
		{
			"bufferView":35,
			"componentType":5126,
			"count":247,
			"max":[
				2.9208765029907227,
				0.6838688254356384,
				-0.7981477975845337
			],
			"min":[
				2.4711499214172363,
				-0.09903103113174438,
				-1.2543121576309204
			],
			"type":"VEC3"
		},
		{
			"bufferView":36,
			"componentType":5126,
			"count":247,
			"type":"VEC3"
		},
		{
			"bufferView":37,
			"componentType":5126,
			"count":247,
			"type":"VEC2"
		},
		{
			"bufferView":38,
			"componentType":5123,
			"count":247,
			"normalized":true,
			"type":"VEC4"
		},
		{
			"bufferView":39,
			"componentType":5123,
			"count":360,
			"type":"SCALAR"
		},
		{
			"bufferView":40,
			"componentType":5126,
			"count":3006,
			"max":[
				3.0322346687316895,
				0.23541578650474548,
				0.642737627029419
			],
			"min":[
				-4.671810150146484,
				-0.1278369128704071,
				-1.1324949264526367
			],
			"type":"VEC3"
		},
		{
			"bufferView":41,
			"componentType":5126,
			"count":3006,
			"type":"VEC3"
		},
		{
			"bufferView":42,
			"componentType":5126,
			"count":3006,
			"type":"VEC2"
		},
		{
			"bufferView":43,
			"componentType":5123,
			"count":3006,
			"normalized":true,
			"type":"VEC4"
		},
		{
			"bufferView":44,
			"componentType":5123,
			"count":3960,
			"type":"SCALAR"
		}
	],
	"bufferViews":[
		{
			"buffer":0,
			"byteLength":888,
			"byteOffset":0,
			"target":34962
		},
		{
			"buffer":0,
			"byteLength":888,
			"byteOffset":888,
			"target":34962
		},
		{
			"buffer":0,
			"byteLength":592,
			"byteOffset":1776,
			"target":34962
		},
		{
			"buffer":0,
			"byteLength":592,
			"byteOffset":2368,
			"target":34962
		},
		{
			"buffer":0,
			"byteLength":252,
			"byteOffset":2960,
			"target":34963
		},
		{
			"buffer":0,
			"byteLength":432,
			"byteOffset":3212,
			"target":34962
		},
		{
			"buffer":0,
			"byteLength":432,
			"byteOffset":3644,
			"target":34962
		},
		{
			"buffer":0,
			"byteLength":288,
			"byteOffset":4076,
			"target":34962
		},
		{
			"buffer":0,
			"byteLength":288,
			"byteOffset":4364,
			"target":34962
		},
		{
			"buffer":0,
			"byteLength":72,
			"byteOffset":4652,
			"target":34963
		},
		{
			"buffer":0,
			"byteLength":2760,
			"byteOffset":4724,
			"target":34962
		},
		{
			"buffer":0,
			"byteLength":2760,
			"byteOffset":7484,
			"target":34962
		},
		{
			"buffer":0,
			"byteLength":1840,
			"byteOffset":10244,
			"target":34962
		},
		{
			"buffer":0,
			"byteLength":1840,
			"byteOffset":12084,
			"target":34962
		},
		{
			"buffer":0,
			"byteLength":792,
			"byteOffset":13924,
			"target":34963
		},
		{
			"buffer":0,
			"byteLength":912,
			"byteOffset":14716,
			"target":34962
		},
		{
			"buffer":0,
			"byteLength":912,
			"byteOffset":15628,
			"target":34962
		},
		{
			"buffer":0,
			"byteLength":608,
			"byteOffset":16540,
			"target":34962
		},
		{
			"buffer":0,
			"byteLength":608,
			"byteOffset":17148,
			"target":34962
		},
		{
			"buffer":0,
			"byteLength":252,
			"byteOffset":17756,
			"target":34963
		},
		{
			"buffer":0,
			"byteLength":11160,
			"byteOffset":18008,
			"target":34962
		},
		{
			"buffer":0,
			"byteLength":11160,
			"byteOffset":29168,
			"target":34962
		},
		{
			"buffer":0,
			"byteLength":7440,
			"byteOffset":40328,
			"target":34962
		},
		{
			"buffer":0,
			"byteLength":7440,
			"byteOffset":47768,
			"target":34962
		},
		{
			"buffer":0,
			"byteLength":2868,
			"byteOffset":55208,
			"target":34963
		},
		{
			"buffer":0,
			"byteLength":5904,
			"byteOffset":58076,
			"target":34962
		},
		{
			"buffer":0,
			"byteLength":5904,
			"byteOffset":63980,
			"target":34962
		},
		{
			"buffer":0,
			"byteLength":3936,
			"byteOffset":69884,
			"target":34962
		},
		{
			"buffer":0,
			"byteLength":3936,
			"byteOffset":73820,
			"target":34962
		},
		{
			"buffer":0,
			"byteLength":1572,
			"byteOffset":77756,
			"target":34963
		},
		{
			"buffer":0,
			"byteLength":7488,
			"byteOffset":79328,
			"target":34962
		},
		{
			"buffer":0,
			"byteLength":7488,
			"byteOffset":86816,
			"target":34962
		},
		{
			"buffer":0,
			"byteLength":4992,
			"byteOffset":94304,
			"target":34962
		},
		{
			"buffer":0,
			"byteLength":4992,
			"byteOffset":99296,
			"target":34962
		},
		{
			"buffer":0,
			"byteLength":1944,
			"byteOffset":104288,
			"target":34963
		},
		{
			"buffer":0,
			"byteLength":2964,
			"byteOffset":106232,
			"target":34962
		},
		{
			"buffer":0,
			"byteLength":2964,
			"byteOffset":109196,
			"target":34962
		},
		{
			"buffer":0,
			"byteLength":1976,
			"byteOffset":112160,
			"target":34962
		},
		{
			"buffer":0,
			"byteLength":1976,
			"byteOffset":114136,
			"target":34962
		},
		{
			"buffer":0,
			"byteLength":720,
			"byteOffset":116112,
			"target":34963
		},
		{
			"buffer":0,
			"byteLength":36072,
			"byteOffset":116832,
			"target":34962
		},
		{
			"buffer":0,
			"byteLength":36072,
			"byteOffset":152904,
			"target":34962
		},
		{
			"buffer":0,
			"byteLength":24048,
			"byteOffset":188976,
			"target":34962
		},
		{
			"buffer":0,
			"byteLength":24048,
			"byteOffset":213024,
			"target":34962
		},
		{
			"buffer":0,
			"byteLength":7920,
			"byteOffset":237072,
			"target":34963
		}
	],
	"buffers":[
		{
			"byteLength":244992,
			"uri":"cell_x3_z-1_render.bin"
		}
	]
}
