{
	"asset":{
		"generator":"Khronos glTF Blender I/O v4.5.51",
		"version":"2.0"
	},
	"scene":0,
	"scenes":[
		{
			"name":"Scene",
			"nodes":[
				0
			]
		}
	],
	"nodes":[
		{
			"mesh":0,
			"name":"cell_x0_z0"
		}
	],
	"materials":[
		{
			"doubleSided":true,
			"name":"sol_terrain",
			"normalTexture":{
				"index":0,
				"scale":0.800000011920929
			},
			"pbrMetallicRoughness":{
				"baseColorFactor":[
					0.6104955673217773,
					0.7454041838645935,
					0.37123769521713257,
					1
				],
				"baseColorTexture":{
					"index":1
				},
				"metallicFactor":0,
				"roughnessFactor":0.949999988079071
			}
		},
		{
			"doubleSided":true,
			"name":"sol_falaise",
			"normalTexture":{
				"index":2,
				"scale":0.800000011920929
			},
			"pbrMetallicRoughness":{
				"baseColorFactor":[
					0.6514056324958801,
					0.6104955673217773,
					0.5149176716804504,
					1
				],
				"baseColorTexture":{
					"index":3
				},
				"metallicFactor":0,
				"roughnessFactor":0.949999988079071
			}
		},
		{
			"doubleSided":true,
			"name":"sol_berge",
			"normalTexture":{
				"index":4,
				"scale":0.800000011920929
			},
			"pbrMetallicRoughness":{
				"baseColorFactor":[
					0.7605245113372803,
					0.6514056324958801,
					0.4125426113605499,
					1
				],
				"baseColorTexture":{
					"index":5
				},
				"metallicFactor":0,
				"roughnessFactor":0.949999988079071
			}
		},
		{
			"doubleSided":true,
			"name":"sol_falaise_haute",
			"normalTexture":{
				"index":6,
				"scale":0.800000011920929
			},
			"pbrMetallicRoughness":{
				"baseColorFactor":[
					0.8069522380828857,
					0.7912979125976562,
					0.7304607629776001,
					1
				],
				"baseColorTexture":{
					"index":7
				},
				"metallicFactor":0,
				"roughnessFactor":0.949999988079071
			}
		},
		{
			"name":"stone_v2",
			"pbrMetallicRoughness":{
				"baseColorFactor":[
					0.38132601976394653,
					0.38132601976394653,
					0.3324515223503113,
					1
				],
				"metallicFactor":0,
				"roughnessFactor":0.9200000166893005
			}
		},
		{
			"name":"stone_v3",
			"pbrMetallicRoughness":{
				"baseColorFactor":[
					0.20863686501979828,
					0.2462013214826584,
					0.2622506618499756,
					1
				],
				"metallicFactor":0,
				"roughnessFactor":0.9200000166893005
			}
		},
		{
			"name":"stone_v1",
			"pbrMetallicRoughness":{
				"baseColorFactor":[
					0.2541520893573761,
					0.28744083642959595,
					0.3049873113632202,
					1
				],
				"metallicFactor":0,
				"roughnessFactor":0.9200000166893005
			}
		},
		{
			"name":"_defaultMat",
			"pbrMetallicRoughness":{
				"baseColorFactor":[
					0.4564110338687897,
					0.4564110338687897,
					0.4125426113605499,
					1
				],
				"metallicFactor":0,
				"roughnessFactor":0.9200000166893005
			}
		},
		{
			"name":"stone_v0",
			"pbrMetallicRoughness":{
				"baseColorFactor":[
					0.32314321398735046,
					0.35153260827064514,
					0.3613067865371704,
					1
				],
				"metallicFactor":0,
				"roughnessFactor":0.9200000166893005
			}
		},
		{
			"name":"dirt_v0",
			"pbrMetallicRoughness":{
				"baseColorFactor":[
					0.32314321398735046,
					0.24228112399578094,
					0.1384316086769104,
					1
				],
				"metallicFactor":0,
				"roughnessFactor":0.9200000166893005
			}
		},
		{
			"name":"grass",
			"pbrMetallicRoughness":{
				"baseColorFactor":[
					0.15592646598815918,
					0.2961382567882538,
					0.0802198201417923,
					1
				],
				"metallicFactor":0,
				"roughnessFactor":0.9200000166893005
			}
		},
		{
			"name":"dirt_v2",
			"pbrMetallicRoughness":{
				"baseColorFactor":[
					0.38132601976394653,
					0.30054378509521484,
					0.1946178376674652,
					1
				],
				"metallicFactor":0,
				"roughnessFactor":0.9200000166893005
			}
		},
		{
			"name":"leafsGreen",
			"pbrMetallicRoughness":{
				"baseColorFactor":[
					0.11443537473678589,
					0.23074005544185638,
					0.06301001459360123,
					1
				],
				"metallicFactor":0,
				"roughnessFactor":0.9200000166893005
			}
		},
		{
			"name":"woodBark",
			"pbrMetallicRoughness":{
				"baseColorFactor":[
					0.2015562504529953,
					0.08437620848417282,
					0.02955683507025242,
					1
				],
				"metallicFactor":0,
				"roughnessFactor":0.9200000166893005
			}
		},
		{
			"name":"woodBarkDark",
			"pbrMetallicRoughness":{
				"baseColorFactor":[
					0.11443537473678589,
					0.04666508734226227,
					0.016807375475764275,
					1
				],
				"metallicFactor":0,
				"roughnessFactor":0.9200000166893005
			}
		},
		{
			"name":"leafsDark",
			"pbrMetallicRoughness":{
				"baseColorFactor":[
					0.04817182570695877,
					0.11443537473678589,
					0.03310476616024971,
					1
				],
				"metallicFactor":0,
				"roughnessFactor":0.9200000166893005
			}
		},
		{
			"name":"woodInner",
			"pbrMetallicRoughness":{
				"baseColorFactor":[
					0.577580451965332,
					0.423267662525177,
					0.23839756846427917,
					1
				],
				"metallicFactor":0,
				"roughnessFactor":0.9200000166893005
			}
		},
		{
			"name":"colorRed",
			"pbrMetallicRoughness":{
				"baseColorFactor":[
					0.34191441535949707,
					0.08437620848417282,
					0.05951123684644699,
					1
				],
				"metallicFactor":0,
				"roughnessFactor":0.9200000166893005
			}
		},
		{
			"name":"dirt_v1",
			"pbrMetallicRoughness":{
				"baseColorFactor":[
					0.2581828534603119,
					0.1946178376674652,
					0.1119324266910553,
					1
				],
				"metallicFactor":0,
				"roughnessFactor":0.9200000166893005
			}
		},
		{
			"name":"wood",
			"pbrMetallicRoughness":{
				"baseColorFactor":[
					0.32314321398735046,
					0.1384316086769104,
					0.039546236395835876,
					1
				],
				"metallicFactor":0,
				"roughnessFactor":0.9200000166893005
			}
		}
	],
	"meshes":[
		{
			"name":"terrain",
			"primitives":[
				{
					"attributes":{
						"POSITION":0,
						"NORMAL":1,
						"TEXCOORD_0":2,
						"COLOR_0":3
					},
					"indices":4,
					"material":0
				},
				{
					"attributes":{
						"POSITION":5,
						"NORMAL":6,
						"TEXCOORD_0":7,
						"COLOR_0":8
					},
					"indices":9,
					"material":1
				},
				{
					"attributes":{
						"POSITION":10,
						"NORMAL":11,
						"TEXCOORD_0":12,
						"COLOR_0":13
					},
					"indices":14,
					"material":2
				},
				{
					"attributes":{
						"POSITION":15,
						"NORMAL":16,
						"TEXCOORD_0":17,
						"COLOR_0":18
					},
					"indices":19,
					"material":3
				},
				{
					"attributes":{
						"POSITION":20,
						"NORMAL":21,
						"TEXCOORD_0":22,
						"COLOR_0":23
					},
					"indices":24,
					"material":4
				},
				{
					"attributes":{
						"POSITION":25,
						"NORMAL":26,
						"TEXCOORD_0":27,
						"COLOR_0":28
					},
					"indices":29,
					"material":5
				},
				{
					"attributes":{
						"POSITION":30,
						"NORMAL":31,
						"TEXCOORD_0":32,
						"COLOR_0":33
					},
					"indices":34,
					"material":6
				},
				{
					"attributes":{
						"POSITION":35,
						"NORMAL":36,
						"TEXCOORD_0":37,
						"COLOR_0":38
					},
					"indices":39,
					"material":7
				},
				{
					"attributes":{
						"POSITION":40,
						"NORMAL":41,
						"TEXCOORD_0":42,
						"COLOR_0":43
					},
					"indices":44,
					"material":8
				},
				{
					"attributes":{
						"POSITION":45,
						"NORMAL":46,
						"TEXCOORD_0":47,
						"COLOR_0":48
					},
					"indices":49,
					"material":9
				},
				{
					"attributes":{
						"POSITION":50,
						"NORMAL":51,
						"TEXCOORD_0":52,
						"COLOR_0":53
					},
					"indices":54,
					"material":10
				},
				{
					"attributes":{
						"POSITION":55,
						"NORMAL":56,
						"TEXCOORD_0":57,
						"COLOR_0":58
					},
					"indices":59,
					"material":11
				},
				{
					"attributes":{
						"POSITION":60,
						"NORMAL":61,
						"TEXCOORD_0":62,
						"COLOR_0":63
					},
					"indices":64,
					"material":12
				},
				{
					"attributes":{
						"POSITION":65,
						"NORMAL":66,
						"TEXCOORD_0":67,
						"COLOR_0":68
					},
					"indices":69,
					"material":13
				},
				{
					"attributes":{
						"POSITION":70,
						"NORMAL":71,
						"TEXCOORD_0":72,
						"COLOR_0":73
					},
					"indices":74,
					"material":14
				},
				{
					"attributes":{
						"POSITION":75,
						"NORMAL":76,
						"TEXCOORD_0":77,
						"COLOR_0":78
					},
					"indices":79,
					"material":15
				},
				{
					"attributes":{
						"POSITION":80,
						"NORMAL":81,
						"TEXCOORD_0":82,
						"COLOR_0":83
					},
					"indices":84,
					"material":16
				},
				{
					"attributes":{
						"POSITION":85,
						"NORMAL":86,
						"TEXCOORD_0":87,
						"COLOR_0":88
					},
					"indices":89,
					"material":17
				},
				{
					"attributes":{
						"POSITION":90,
						"NORMAL":91,
						"TEXCOORD_0":92,
						"COLOR_0":93
					},
					"indices":94,
					"material":18
				},
				{
					"attributes":{
						"POSITION":95,
						"NORMAL":96,
						"TEXCOORD_0":97,
						"COLOR_0":98
					},
					"indices":99,
					"material":19
				}
			]
		}
	],
	"textures":[
		{
			"sampler":0,
			"source":0
		},
		{
			"sampler":0,
			"source":1
		},
		{
			"sampler":0,
			"source":2
		},
		{
			"sampler":0,
			"source":3
		},
		{
			"sampler":0,
			"source":4
		},
		{
			"sampler":0,
			"source":5
		},
		{
			"sampler":0,
			"source":6
		},
		{
			"sampler":0,
			"source":3
		}
	],
	"images":[
		{
			"mimeType":"image/png",
			"name":"grass_n",
			"uri":"textures/grass_n.png"
		},
		{
			"mimeType":"image/png",
			"name":"grass_bc",
			"uri":"textures/grass_bc.png"
		},
		{
			"mimeType":"image/png",
			"name":"cliff_n",
			"uri":"textures/cliff_n.png"
		},
		{
			"mimeType":"image/png",
			"name":"stone_bc",
			"uri":"textures/stone_bc.png"
		},
		{
			"mimeType":"image/png",
			"name":"ground_n",
			"uri":"textures/ground_n.png"
		},
		{
			"mimeType":"image/png",
			"name":"ground_bc",
			"uri":"textures/ground_bc.png"
		},
		{
			"mimeType":"image/png",
			"name":"stone_n",
			"uri":"textures/stone_n.png"
		}
	],
	"accessors":[
		{
			"bufferView":0,
			"componentType":5126,
			"count":15982,
			"max":[
				140,
				31.567676544189453,
				100
			],
			"min":[
				-140,
				-5.938789367675781,
				-100
			],
			"type":"VEC3"
		},
		{
			"bufferView":1,
			"componentType":5126,
			"count":15982,
			"type":"VEC3"
		},
		{
			"bufferView":2,
			"componentType":5126,
			"count":15982,
			"type":"VEC2"
		},
		{
			"bufferView":3,
			"componentType":5123,
			"count":15982,
			"normalized":true,
			"type":"VEC4"
		},
		{
			"bufferView":4,
			"componentType":5123,
			"count":88740,
			"type":"SCALAR"
		},
		{
			"bufferView":5,
			"componentType":5126,
			"count":3545,
			"max":[
				132,
				15.187480926513672,
				100
			],
			"min":[
				-135.1999969482422,
				-5.724084854125977,
				-100
			],
			"type":"VEC3"
		},
		{
			"bufferView":6,
			"componentType":5126,
			"count":3545,
			"type":"VEC3"
		},
		{
			"bufferView":7,
			"componentType":5126,
			"count":3545,
			"type":"VEC2"
		},
		{
			"bufferView":8,
			"componentType":5123,
			"count":3545,
			"normalized":true,
			"type":"VEC4"
		},
		{
			"bufferView":9,
			"componentType":5123,
			"count":14736,
			"type":"SCALAR"
		},
		{
			"bufferView":10,
			"componentType":5126,
			"count":1661,
			"max":[
				-13.600000381469727,
				3.201198101043701,
				100
			],
			"min":[
				-52,
				-5.724084854125977,
				-100
			],
			"type":"VEC3"
		},
		{
			"bufferView":11,
			"componentType":5126,
			"count":1661,
			"type":"VEC3"
		},
		{
			"bufferView":12,
			"componentType":5126,
			"count":1661,
			"type":"VEC2"
		},
		{
			"bufferView":13,
			"componentType":5123,
			"count":1661,
			"normalized":true,
			"type":"VEC4"
		},
		{
			"bufferView":14,
			"componentType":5123,
			"count":8898,
			"type":"SCALAR"
		},
		{
			"bufferView":15,
			"componentType":5126,
			"count":3967,
			"max":[
				140,
				40.53451156616211,
				100
			],
			"min":[
				-138.39999389648438,
				1.4821120500564575,
				-100
			],
			"type":"VEC3"
		},
		{
			"bufferView":16,
			"componentType":5126,
			"count":3967,
			"type":"VEC3"
		},
		{
			"bufferView":17,
			"componentType":5126,
			"count":3967,
			"type":"VEC2"
		},
		{
			"bufferView":18,
			"componentType":5123,
			"count":3967,
			"normalized":true,
			"type":"VEC4"
		},
		{
			"bufferView":19,
			"componentType":5123,
			"count":18876,
			"type":"SCALAR"
		},
		{
			"bufferView":20,
			"componentType":5126,
			"count":901,
			"max":[
				40.24127960205078,
				17.15959358215332,
				32.117679595947266
			],
			"min":[
				18.593643188476562,
				6.200439929962158,
				14.771093368530273
			],
			"type":"VEC3"
		},
		{
			"bufferView":21,
			"componentType":5126,
			"count":901,
			"type":"VEC3"
		},
		{
			"bufferView":22,
			"componentType":5126,
			"count":901,
			"type":"VEC2"
		},
		{
			"bufferView":23,
			"componentType":5123,
			"count":901,
			"normalized":true,
			"type":"VEC4"
		},
		{
			"bufferView":24,
			"componentType":5123,
			"count":1410,
			"type":"SCALAR"
		},
		{
			"bufferView":25,
			"componentType":5126,
			"count":517,
			"max":[
				38.24068069458008,
				20.623788833618164,
				27.58846092224121
			],
			"min":[
				16.372663497924805,
				2.919846773147583,
				2.3851046562194824
			],
			"type":"VEC3"
		},
		{
			"bufferView":26,
			"componentType":5126,
			"count":517,
			"type":"VEC3"
		},
		{
			"bufferView":27,
			"componentType":5126,
			"count":517,
			"type":"VEC2"
		},
		{
			"bufferView":28,
			"componentType":5123,
			"count":517,
			"normalized":true,
			"type":"VEC4"
		},
		{
			"bufferView":29,
			"componentType":5123,
			"count":894,
			"type":"SCALAR"
		},
		{
			"bufferView":30,
			"componentType":5126,
			"count":372,
			"max":[
				30.3111572265625,
				12.758464813232422,
				42.13021469116211
			],
			"min":[
				12.725541114807129,
				2.0640392303466797,
				4.207274913787842
			],
			"type":"VEC3"
		},
		{
			"bufferView":31,
			"componentType":5126,
			"count":372,
			"type":"VEC3"
		},
		{
			"bufferView":32,
			"componentType":5126,
			"count":372,
			"type":"VEC2"
		},
		{
			"bufferView":33,
			"componentType":5123,
			"count":372,
			"normalized":true,
			"type":"VEC4"
		},
		{
			"bufferView":34,
			"componentType":5123,
			"count":612,
			"type":"SCALAR"
		},
		{
			"bufferView":35,
			"componentType":5126,
			"count":680,
			"max":[
				40.64908981323242,
				15.91176986694336,
				34.39966583251953
			],
			"min":[
				0.12599623203277588,
				1.418531060218811,
				-0.17747005820274353
			],
			"type":"VEC3"
		},
		{
			"bufferView":36,
			"componentType":5126,
			"count":680,
			"type":"VEC3"
		},
		{
			"bufferView":37,
			"componentType":5126,
			"count":680,
			"type":"VEC2"
		},
		{
			"bufferView":38,
			"componentType":5123,
			"count":680,
			"normalized":true,
			"type":"VEC4"
		},
		{
			"bufferView":39,
			"componentType":5123,
			"count":708,
			"type":"SCALAR"
		},
		{
			"bufferView":40,
			"componentType":5126,
			"count":1371,
			"max":[
				40.64908981323242,
				18.13463592529297,
				36.78062057495117
			],
			"min":[
				0.12599623203277588,
				1.8911064863204956,
				8.032641410827637
			],
			"type":"VEC3"
		},
		{
			"bufferView":41,
			"componentType":5126,
			"count":1371,
			"type":"VEC3"
		},
		{
			"bufferView":42,
			"componentType":5126,
			"count":1371,
			"type":"VEC2"
		},
		{
			"bufferView":43,
			"componentType":5123,
			"count":1371,
			"normalized":true,
			"type":"VEC4"
		},
		{
			"bufferView":44,
			"componentType":5123,
			"count":2202,
			"type":"SCALAR"
		},
		{
			"bufferView":45,
			"componentType":5126,
			"count":144,
			"max":[
				31.189504623413086,
				13.810751914978027,
				13.265661239624023
			],
			"min":[
				28.687664031982422,
				12.806366920471191,
				9.064887046813965
			],
			"type":"VEC3"
		},
		{
			"bufferView":46,
			"componentType":5126,
			"count":144,
			"type":"VEC3"
		},
		{
			"bufferView":47,
			"componentType":5126,
			"count":144,
			"type":"VEC2"
		},
		{
			"bufferView":48,
			"componentType":5123,
			"count":144,
			"normalized":true,
			"type":"VEC4"
		},
		{
			"bufferView":49,
			"componentType":5123,
			"count":213,
			"type":"SCALAR"
		},
		{
			"bufferView":50,
			"componentType":5126,
			"count":41199,
			"max":[
				40.12765884399414,
				19.18671417236328,
				40.47111892700195
			],
			"min":[
				-0.5976294875144958,
				0.10142672806978226,
				-0.5855019092559814
			],
			"type":"VEC3"
		},
		{
			"bufferView":51,
			"componentType":5126,
			"count":41199,
			"type":"VEC3"
		},
		{
			"bufferView":52,
			"componentType":5126,
			"count":41199,
			"type":"VEC2"
		},
		{
			"bufferView":53,
			"componentType":5123,
			"count":41199,
			"normalized":true,
			"type":"VEC4"
		},
		{
			"bufferView":54,
			"componentType":5123,
			"count":53097,
			"type":"SCALAR"
		},
		{
			"bufferView":55,
			"componentType":5126,
			"count":196,
			"max":[
				33.132415771484375,
				19.18671417236328,
				39.27539825439453
			],
			"min":[
				24.717823028564453,
				12.41871166229248,
				31.045780181884766
			],
			"type":"VEC3"
		},
		{
			"bufferView":56,
			"componentType":5126,
			"count":196,
			"type":"VEC3"
		},
		{
			"bufferView":57,
			"componentType":5126,
			"count":196,
			"type":"VEC2"
		},
		{
			"bufferView":58,
			"componentType":5123,
			"count":196,
			"normalized":true,
			"type":"VEC4"
		},
		{
			"bufferView":59,
			"componentType":5123,
			"count":294,
			"type":"SCALAR"
		},
		{
			"bufferView":60,
			"componentType":5126,
			"count":8670,
			"max":[
				39.97145462036133,
				17.31913185119629,
				39.99937438964844
			],
			"min":[
				-0.7281394600868225,
				0.9376662373542786,
				-2.0918960571289062
			],
			"type":"VEC3"
		},
		{
			"bufferView":61,
			"componentType":5126,
			"count":8670,
			"type":"VEC3"
		},
		{
			"bufferView":62,
			"componentType":5126,
			"count":8670,
			"type":"VEC2"
		},
		{
			"bufferView":63,
			"componentType":5123,
			"count":8670,
			"normalized":true,
			"type":"VEC4"
		},
		{
			"bufferView":64,
			"componentType":5123,
			"count":13602,
			"type":"SCALAR"
		},
		{
			"bufferView":65,
			"componentType":5126,
			"count":5347,
			"max":[
				34.139076232910156,
				16.94291114807129,
				35.78802490234375
			],
			"min":[
				0.3038051724433899,
				0.15964490175247192,
				-1.3414944410324097
			],
			"type":"VEC3"
		},
		{
			"bufferView":66,
			"componentType":5126,
			"count":5347,
			"type":"VEC3"
		},
		{
			"bufferView":67,
			"componentType":5126,
			"count":5347,
			"type":"VEC2"
		},
		{
			"bufferView":68,
			"componentType":5123,
			"count":5347,
			"normalized":true,
			"type":"VEC4"
		},
		{
			"bufferView":69,
			"componentType":5123,
			"count":8334,
			"type":"SCALAR"
		},
		{
			"bufferView":70,
			"componentType":5126,
			"count":3702,
			"max":[
				35.74625015258789,
				21.629318237304688,
				39.23773193359375
			],
			"min":[
				-0.024209320545196533,
				0.38379764556884766,
				-1.4125810861587524
			],
			"type":"VEC3"
		},
		{
			"bufferView":71,
			"componentType":5126,
			"count":3702,
			"type":"VEC3"
		},
		{
			"bufferView":72,
			"componentType":5126,
			"count":3702,
			"type":"VEC2"
		},
		{
			"bufferView":73,
			"componentType":5123,
			"count":3702,
			"normalized":true,
			"type":"VEC4"
		},
		{
			"bufferView":74,
			"componentType":5123,
			"count":5562,
			"type":"SCALAR"
		},
		{
			"bufferView":75,
			"componentType":5126,
			"count":6462,
			"max":[
				36.619483947753906,
				23.889171600341797,
				40.356201171875
			],
			"min":[
				-1.1604843139648438,
				1.9564698934555054,
				-1.9338444471359253
			],
			"type":"VEC3"
		},
		{
			"bufferView":76,
			"componentType":5126,
			"count":6462,
			"type":"VEC3"
		},
		{
			"bufferView":77,
			"componentType":5126,
			"count":6462,
			"type":"VEC2"
		},
		{
			"bufferView":78,
			"componentType":5123,
			"count":6462,
			"normalized":true,
			"type":"VEC4"
		},
		{
			"bufferView":79,
			"componentType":5123,
			"count":10008,
			"type":"SCALAR"
		},
		{
			"bufferView":80,
			"componentType":5126,
			"count":474,
			"max":[
				34.139076232910156,
				13.510250091552734,
				15.016075134277344
			],
			"min":[
				12.186217308044434,
				2.335416316986084,
				5.263984203338623
			],
			"type":"VEC3"
		},
		{
			"bufferView":81,
			"componentType":5126,
			"count":474,
			"type":"VEC3"
		},
		{
			"bufferView":82,
			"componentType":5126,
			"count":474,
			"type":"VEC2"
		},
		{
			"bufferView":83,
			"componentType":5123,
			"count":474,
			"normalized":true,
			"type":"VEC4"
		},
		{
			"bufferView":84,
			"componentType":5123,
			"count":792,
			"type":"SCALAR"
		},
		{
			"bufferView":85,
			"componentType":5126,
			"count":146,
			"max":[
				16.170507431030273,
				4.8149003982543945,
				34.39966583251953
			],
			"min":[
				7.686596870422363,
				3.9613289833068848,
				33.22631072998047
			],
			"type":"VEC3"
		},
		{
			"bufferView":86,
			"componentType":5126,
			"count":146,
			"type":"VEC3"
		},
		{
			"bufferView":87,
			"componentType":5126,
			"count":146,
			"type":"VEC2"
		},
		{
			"bufferView":88,
			"componentType":5123,
			"count":146,
			"normalized":true,
			"type":"VEC4"
		},
		{
			"bufferView":89,
			"componentType":5123,
			"count":192,
			"type":"SCALAR"
		},
		{
			"bufferView":90,
			"componentType":5126,
			"count":98,
			"max":[
				14.003993034362793,
				9.025796890258789,
				38.3569221496582
			],
			"min":[
				0.6283103227615356,
				1.418531060218811,
				3.0731658935546875
			],
			"type":"VEC3"
		},
		{
			"bufferView":91,
			"componentType":5126,
			"count":98,
			"type":"VEC3"
		},
		{
			"bufferView":92,
			"componentType":5126,
			"count":98,
			"type":"VEC2"
		},
		{
			"bufferView":93,
			"componentType":5123,
			"count":98,
			"normalized":true,
			"type":"VEC4"
		},
		{
			"bufferView":94,
			"componentType":5123,
			"count":156,
			"type":"SCALAR"
		},
		{
			"bufferView":95,
			"componentType":5126,
			"count":287,
			"max":[
				39.66498565673828,
				12.550862312316895,
				4.9492034912109375
			],
			"min":[
				38.295169830322266,
				10.963736534118652,
				0.41727209091186523
			],
			"type":"VEC3"
		},
		{
			"bufferView":96,
			"componentType":5126,
			"count":287,
			"type":"VEC3"
		},
		{
			"bufferView":97,
			"componentType":5126,
			"count":287,
			"type":"VEC2"
		},
		{
			"bufferView":98,
			"componentType":5123,
			"count":287,
			"normalized":true,
			"type":"VEC4"
		},
		{
			"bufferView":99,
			"componentType":5123,
			"count":456,
			"type":"SCALAR"
		}
	],
	"bufferViews":[
		{
			"buffer":0,
			"byteLength":191784,
			"byteOffset":0,
			"target":34962
		},
		{
			"buffer":0,
			"byteLength":191784,
			"byteOffset":191784,
			"target":34962
		},
		{
			"buffer":0,
			"byteLength":127856,
			"byteOffset":383568,
			"target":34962
		},
		{
			"buffer":0,
			"byteLength":127856,
			"byteOffset":511424,
			"target":34962
		},
		{
			"buffer":0,
			"byteLength":177480,
			"byteOffset":639280,
			"target":34963
		},
		{
			"buffer":0,
			"byteLength":42540,
			"byteOffset":816760,
			"target":34962
		},
		{
			"buffer":0,
			"byteLength":42540,
			"byteOffset":859300,
			"target":34962
		},
		{
			"buffer":0,
			"byteLength":28360,
			"byteOffset":901840,
			"target":34962
		},
		{
			"buffer":0,
			"byteLength":28360,
			"byteOffset":930200,
			"target":34962
		},
		{
			"buffer":0,
			"byteLength":29472,
			"byteOffset":958560,
			"target":34963
		},
		{
			"buffer":0,
			"byteLength":19932,
			"byteOffset":988032,
			"target":34962
		},
		{
			"buffer":0,
			"byteLength":19932,
			"byteOffset":1007964,
			"target":34962
		},
		{
			"buffer":0,
			"byteLength":13288,
			"byteOffset":1027896,
			"target":34962
		},
		{
			"buffer":0,
			"byteLength":13288,
			"byteOffset":1041184,
			"target":34962
		},
		{
			"buffer":0,
			"byteLength":17796,
			"byteOffset":1054472,
			"target":34963
		},
		{
			"buffer":0,
			"byteLength":47604,
			"byteOffset":1072268,
			"target":34962
		},
		{
			"buffer":0,
			"byteLength":47604,
			"byteOffset":1119872,
			"target":34962
		},
		{
			"buffer":0,
			"byteLength":31736,
			"byteOffset":1167476,
			"target":34962
		},
		{
			"buffer":0,
			"byteLength":31736,
			"byteOffset":1199212,
			"target":34962
		},
		{
			"buffer":0,
			"byteLength":37752,
			"byteOffset":1230948,
			"target":34963
		},
		{
			"buffer":0,
			"byteLength":10812,
			"byteOffset":1268700,
			"target":34962
		},
		{
			"buffer":0,
			"byteLength":10812,
			"byteOffset":1279512,
			"target":34962
		},
		{
			"buffer":0,
			"byteLength":7208,
			"byteOffset":1290324,
			"target":34962
		},
		{
			"buffer":0,
			"byteLength":7208,
			"byteOffset":1297532,
			"target":34962
		},
		{
			"buffer":0,
			"byteLength":2820,
			"byteOffset":1304740,
			"target":34963
		},
		{
			"buffer":0,
			"byteLength":6204,
			"byteOffset":1307560,
			"target":34962
		},
		{
			"buffer":0,
			"byteLength":6204,
			"byteOffset":1313764,
			"target":34962
		},
		{
			"buffer":0,
			"byteLength":4136,
			"byteOffset":1319968,
			"target":34962
		},
		{
			"buffer":0,
			"byteLength":4136,
			"byteOffset":1324104,
			"target":34962
		},
		{
			"buffer":0,
			"byteLength":1788,
			"byteOffset":1328240,
			"target":34963
		},
		{
			"buffer":0,
			"byteLength":4464,
			"byteOffset":1330028,
			"target":34962
		},
		{
			"buffer":0,
			"byteLength":4464,
			"byteOffset":1334492,
			"target":34962
		},
		{
			"buffer":0,
			"byteLength":2976,
			"byteOffset":1338956,
			"target":34962
		},
		{
			"buffer":0,
			"byteLength":2976,
			"byteOffset":1341932,
			"target":34962
		},
		{
			"buffer":0,
			"byteLength":1224,
			"byteOffset":1344908,
			"target":34963
		},
		{
			"buffer":0,
			"byteLength":8160,
			"byteOffset":1346132,
			"target":34962
		},
		{
			"buffer":0,
			"byteLength":8160,
			"byteOffset":1354292,
			"target":34962
		},
		{
			"buffer":0,
			"byteLength":5440,
			"byteOffset":1362452,
			"target":34962
		},
		{
			"buffer":0,
			"byteLength":5440,
			"byteOffset":1367892,
			"target":34962
		},
		{
			"buffer":0,
			"byteLength":1416,
			"byteOffset":1373332,
			"target":34963
		},
		{
			"buffer":0,
			"byteLength":16452,
			"byteOffset":1374748,
			"target":34962
		},
		{
			"buffer":0,
			"byteLength":16452,
			"byteOffset":1391200,
			"target":34962
		},
		{
			"buffer":0,
			"byteLength":10968,
			"byteOffset":1407652,
			"target":34962
		},
		{
			"buffer":0,
			"byteLength":10968,
			"byteOffset":1418620,
			"target":34962
		},
		{
			"buffer":0,
			"byteLength":4404,
			"byteOffset":1429588,
			"target":34963
		},
		{
			"buffer":0,
			"byteLength":1728,
			"byteOffset":1433992,
			"target":34962
		},
		{
			"buffer":0,
			"byteLength":1728,
			"byteOffset":1435720,
			"target":34962
		},
		{
			"buffer":0,
			"byteLength":1152,
			"byteOffset":1437448,
			"target":34962
		},
		{
			"buffer":0,
			"byteLength":1152,
			"byteOffset":1438600,
			"target":34962
		},
		{
			"buffer":0,
			"byteLength":426,
			"byteOffset":1439752,
			"target":34963
		},
		{
			"buffer":0,
			"byteLength":494388,
			"byteOffset":1440180,
			"target":34962
		},
		{
			"buffer":0,
			"byteLength":494388,
			"byteOffset":1934568,
			"target":34962
		},
		{
			"buffer":0,
			"byteLength":329592,
			"byteOffset":2428956,
			"target":34962
		},
		{
			"buffer":0,
			"byteLength":329592,
			"byteOffset":2758548,
			"target":34962
		},
		{
			"buffer":0,
			"byteLength":106194,
			"byteOffset":3088140,
			"target":34963
		},
		{
			"buffer":0,
			"byteLength":2352,
			"byteOffset":3194336,
			"target":34962
		},
		{
			"buffer":0,
			"byteLength":2352,
			"byteOffset":3196688,
			"target":34962
		},
		{
			"buffer":0,
			"byteLength":1568,
			"byteOffset":3199040,
			"target":34962
		},
		{
			"buffer":0,
			"byteLength":1568,
			"byteOffset":3200608,
			"target":34962
		},
		{
			"buffer":0,
			"byteLength":588,
			"byteOffset":3202176,
			"target":34963
		},
		{
			"buffer":0,
			"byteLength":104040,
			"byteOffset":3202764,
			"target":34962
		},
		{
			"buffer":0,
			"byteLength":104040,
			"byteOffset":3306804,
			"target":34962
		},
		{
			"buffer":0,
			"byteLength":69360,
			"byteOffset":3410844,
			"target":34962
		},
		{
			"buffer":0,
			"byteLength":69360,
			"byteOffset":3480204,
			"target":34962
		},
		{
			"buffer":0,
			"byteLength":27204,
			"byteOffset":3549564,
			"target":34963
		},
		{
			"buffer":0,
			"byteLength":64164,
			"byteOffset":3576768,
			"target":34962
		},
		{
			"buffer":0,
			"byteLength":64164,
			"byteOffset":3640932,
			"target":34962
		},
		{
			"buffer":0,
			"byteLength":42776,
			"byteOffset":3705096,
			"target":34962
		},
		{
			"buffer":0,
			"byteLength":42776,
			"byteOffset":3747872,
			"target":34962
		},
		{
			"buffer":0,
			"byteLength":16668,
			"byteOffset":3790648,
			"target":34963
		},
		{
			"buffer":0,
			"byteLength":44424,
			"byteOffset":3807316,
			"target":34962
		},
		{
			"buffer":0,
			"byteLength":44424,
			"byteOffset":3851740,
			"target":34962
		},
		{
			"buffer":0,
			"byteLength":29616,
			"byteOffset":3896164,
			"target":34962
		},
		{
			"buffer":0,
			"byteLength":29616,
			"byteOffset":3925780,
			"target":34962
		},
		{
			"buffer":0,
			"byteLength":11124,
			"byteOffset":3955396,
			"target":34963
		},
		{
			"buffer":0,
			"byteLength":77544,
			"byteOffset":3966520,
			"target":34962
		},
		{
			"buffer":0,
			"byteLength":77544,
			"byteOffset":4044064,
			"target":34962
		},
		{
			"buffer":0,
			"byteLength":51696,
			"byteOffset":4121608,
			"target":34962
		},
		{
			"buffer":0,
			"byteLength":51696,
			"byteOffset":4173304,
			"target":34962
		},
		{
			"buffer":0,
			"byteLength":20016,
			"byteOffset":4225000,
			"target":34963
		},
		{
			"buffer":0,
			"byteLength":5688,
			"byteOffset":4245016,
			"target":34962
		},
		{
			"buffer":0,
			"byteLength":5688,
			"byteOffset":4250704,
			"target":34962
		},
		{
			"buffer":0,
			"byteLength":3792,
			"byteOffset":4256392,
			"target":34962
		},
		{
			"buffer":0,
			"byteLength":3792,
			"byteOffset":4260184,
			"target":34962
		},
		{
			"buffer":0,
			"byteLength":1584,
			"byteOffset":4263976,
			"target":34963
		},
		{
			"buffer":0,
			"byteLength":1752,
			"byteOffset":4265560,
			"target":34962
		},
		{
			"buffer":0,
			"byteLength":1752,
			"byteOffset":4267312,
			"target":34962
		},
		{
			"buffer":0,
			"byteLength":1168,
			"byteOffset":4269064,
			"target":34962
		},
		{
			"buffer":0,
			"byteLength":1168,
			"byteOffset":4270232,
			"target":34962
		},
		{
			"buffer":0,
			"byteLength":384,
			"byteOffset":4271400,
			"target":34963
		},
		{
			"buffer":0,
			"byteLength":1176,
			"byteOffset":4271784,
			"target":34962
		},
		{
			"buffer":0,
			"byteLength":1176,
			"byteOffset":4272960,
			"target":34962
		},
		{
			"buffer":0,
			"byteLength":784,
			"byteOffset":4274136,
			"target":34962
		},
		{
			"buffer":0,
			"byteLength":784,
			"byteOffset":4274920,
			"target":34962
		},
		{
			"buffer":0,
			"byteLength":312,
			"byteOffset":4275704,
			"target":34963
		},
		{
			"buffer":0,
			"byteLength":3444,
			"byteOffset":4276016,
			"target":34962
		},
		{
			"buffer":0,
			"byteLength":3444,
			"byteOffset":4279460,
			"target":34962
		},
		{
			"buffer":0,
			"byteLength":2296,
			"byteOffset":4282904,
			"target":34962
		},
		{
			"buffer":0,
			"byteLength":2296,
			"byteOffset":4285200,
			"target":34962
		},
		{
			"buffer":0,
			"byteLength":912,
			"byteOffset":4287496,
			"target":34963
		}
	],
	"samplers":[
		{
			"magFilter":9729,
			"minFilter":9987
		}
	],
	"buffers":[
		{
			"byteLength":4288408,
			"uri":"cell_x0_z0_render.bin"
		}
	]
}
