{
	"asset":{
		"generator":"Khronos glTF Blender I/O v4.5.51",
		"version":"2.0"
	},
	"scene":0,
	"scenes":[
		{
			"name":"Scene",
			"nodes":[
				0
			]
		}
	],
	"nodes":[
		{
			"mesh":0,
			"name":"cell_x2_z0",
			"rotation":[
				0.0460001640021801,
				-0.31886357069015503,
				0.015495925210416317,
				0.9465568661689758
			],
			"scale":[
				2.0443992614746094,
				2.0443992614746094,
				2.0443990230560303
			],
			"translation":[
				105.7350845336914,
				0.896439790725708,
				36.42313003540039
			]
		}
	],
	"materials":[
		{
			"name":"stone_v2",
			"pbrMetallicRoughness":{
				"baseColorFactor":[
					0.38132601976394653,
					0.38132601976394653,
					0.3324515223503113,
					1
				],
				"metallicFactor":0,
				"roughnessFactor":0.9200000166893005
			}
		},
		{
			"name":"stone_v1",
			"pbrMetallicRoughness":{
				"baseColorFactor":[
					0.2541520893573761,
					0.28744083642959595,
					0.3049873113632202,
					1
				],
				"metallicFactor":0,
				"roughnessFactor":0.9200000166893005
			}
		},
		{
			"name":"stone_v3",
			"pbrMetallicRoughness":{
				"baseColorFactor":[
					0.20863686501979828,
					0.2462013214826584,
					0.2622506618499756,
					1
				],
				"metallicFactor":0,
				"roughnessFactor":0.9200000166893005
			}
		},
		{
			"name":"_defaultMat",
			"pbrMetallicRoughness":{
				"baseColorFactor":[
					0.4564110338687897,
					0.4564110338687897,
					0.4125426113605499,
					1
				],
				"metallicFactor":0,
				"roughnessFactor":0.9200000166893005
			}
		},
		{
			"name":"leafsDark",
			"pbrMetallicRoughness":{
				"baseColorFactor":[
					0.04817182570695877,
					0.11443537473678589,
					0.03310476616024971,
					1
				],
				"metallicFactor":0,
				"roughnessFactor":0.9200000166893005
			}
		},
		{
			"name":"woodBarkDark",
			"pbrMetallicRoughness":{
				"baseColorFactor":[
					0.11443537473678589,
					0.04666508734226227,
					0.016807375475764275,
					1
				],
				"metallicFactor":0,
				"roughnessFactor":0.9200000166893005
			}
		},
		{
			"name":"leafsFall",
			"pbrMetallicRoughness":{
				"baseColorFactor":[
					0.4564110338687897,
					0.18782077729701996,
					0.045186202973127365,
					1
				],
				"metallicFactor":0,
				"roughnessFactor":0.9200000166893005
			}
		},
		{
			"name":"woodBirch",
			"pbrMetallicRoughness":{
				"baseColorFactor":[
					0.7304607629776001,
					0.6583748459815979,
					0.5028864741325378,
					1
				],
				"metallicFactor":0,
				"roughnessFactor":0.9200000166893005
			}
		},
		{
			"name":"colorRed",
			"pbrMetallicRoughness":{
				"baseColorFactor":[
					0.34191441535949707,
					0.08437620848417282,
					0.05951123684644699,
					1
				],
				"metallicFactor":0,
				"roughnessFactor":0.9200000166893005
			}
		},
		{
			"name":"grass",
			"pbrMetallicRoughness":{
				"baseColorFactor":[
					0.15592646598815918,
					0.2961382567882538,
					0.0802198201417923,
					1
				],
				"metallicFactor":0,
				"roughnessFactor":0.9200000166893005
			}
		},
		{
			"name":"woodBark",
			"pbrMetallicRoughness":{
				"baseColorFactor":[
					0.2015562504529953,
					0.08437620848417282,
					0.02955683507025242,
					1
				],
				"metallicFactor":0,
				"roughnessFactor":0.9200000166893005
			}
		},
		{
			"name":"woodInner",
			"pbrMetallicRoughness":{
				"baseColorFactor":[
					0.577580451965332,
					0.423267662525177,
					0.23839756846427917,
					1
				],
				"metallicFactor":0,
				"roughnessFactor":0.9200000166893005
			}
		},
		{
			"name":"colorPurple",
			"pbrMetallicRoughness":{
				"baseColorFactor":[
					0.19806931912899017,
					0.15592646598815918,
					0.3324515223503113,
					1
				],
				"metallicFactor":0,
				"roughnessFactor":0.9200000166893005
			}
		},
		{
			"name":"colorWhite",
			"pbrMetallicRoughness":{
				"baseColorFactor":[
					0.68668532371521,
					0.6583748459815979,
					0.577580451965332,
					1
				],
				"metallicFactor":0,
				"roughnessFactor":0.9200000166893005
			}
		},
		{
			"name":"leafsGreen",
			"pbrMetallicRoughness":{
				"baseColorFactor":[
					0.11443537473678589,
					0.23074005544185638,
					0.06301001459360123,
					1
				],
				"metallicFactor":0,
				"roughnessFactor":0.9200000166893005
			}
		},
		{
			"name":"stone_v0",
			"pbrMetallicRoughness":{
				"baseColorFactor":[
					0.32314321398735046,
					0.35153260827064514,
					0.3613067865371704,
					1
				],
				"metallicFactor":0,
				"roughnessFactor":0.9200000166893005
			}
		},
		{
			"name":"hexagons_medieval",
			"pbrMetallicRoughness":{
				"baseColorTexture":{
					"index":0
				},
				"metallicFactor":0,
				"roughnessFactor":0.5
			}
		},
		{
			"name":"wood",
			"pbrMetallicRoughness":{
				"baseColorFactor":[
					0.32314321398735046,
					0.1384316086769104,
					0.039546236395835876,
					1
				],
				"metallicFactor":0,
				"roughnessFactor":0.9200000166893005
			}
		},
		{
			"name":"woodDark",
			"pbrMetallicRoughness":{
				"baseColorFactor":[
					0.07618538290262222,
					0.03310476616024971,
					0.014443843625485897,
					1
				],
				"metallicFactor":0,
				"roughnessFactor":0.9200000166893005
			}
		},
		{
			"doubleSided":true,
			"name":"Color",
			"pbrMetallicRoughness":{
				"baseColorTexture":{
					"index":1
				},
				"metallicFactor":0,
				"roughnessFactor":0.75
			}
		}
	],
	"meshes":[
		{
			"name":"Mesh stone_largeC.055",
			"primitives":[
				{
					"attributes":{
						"POSITION":0,
						"NORMAL":1,
						"TEXCOORD_0":2,
						"COLOR_0":3
					},
					"indices":4,
					"material":0
				},
				{
					"attributes":{
						"POSITION":5,
						"NORMAL":6,
						"TEXCOORD_0":7,
						"COLOR_0":8
					},
					"indices":9,
					"material":1
				},
				{
					"attributes":{
						"POSITION":10,
						"NORMAL":11,
						"TEXCOORD_0":12,
						"COLOR_0":13
					},
					"indices":14,
					"material":2
				},
				{
					"attributes":{
						"POSITION":15,
						"NORMAL":16,
						"TEXCOORD_0":17,
						"COLOR_0":18
					},
					"indices":19,
					"material":3
				},
				{
					"attributes":{
						"POSITION":20,
						"NORMAL":21,
						"TEXCOORD_0":22,
						"COLOR_0":23
					},
					"indices":24,
					"material":4
				},
				{
					"attributes":{
						"POSITION":25,
						"NORMAL":26,
						"TEXCOORD_0":27,
						"COLOR_0":28
					},
					"indices":29,
					"material":5
				},
				{
					"attributes":{
						"POSITION":30,
						"NORMAL":31,
						"TEXCOORD_0":32,
						"COLOR_0":33
					},
					"indices":34,
					"material":6
				},
				{
					"attributes":{
						"POSITION":35,
						"NORMAL":36,
						"TEXCOORD_0":37,
						"COLOR_0":38
					},
					"indices":39,
					"material":7
				},
				{
					"attributes":{
						"POSITION":40,
						"NORMAL":41,
						"TEXCOORD_0":42,
						"COLOR_0":43
					},
					"indices":44,
					"material":8
				},
				{
					"attributes":{
						"POSITION":45,
						"NORMAL":46,
						"TEXCOORD_0":47,
						"COLOR_0":48
					},
					"indices":49,
					"material":9
				},
				{
					"attributes":{
						"POSITION":50,
						"NORMAL":51,
						"TEXCOORD_0":52,
						"COLOR_0":53
					},
					"indices":54,
					"material":10
				},
				{
					"attributes":{
						"POSITION":55,
						"NORMAL":56,
						"TEXCOORD_0":57,
						"COLOR_0":58
					},
					"indices":59,
					"material":11
				},
				{
					"attributes":{
						"POSITION":60,
						"NORMAL":61,
						"TEXCOORD_0":62,
						"COLOR_0":63
					},
					"indices":64,
					"material":12
				},
				{
					"attributes":{
						"POSITION":65,
						"NORMAL":66,
						"TEXCOORD_0":67,
						"COLOR_0":68
					},
					"indices":69,
					"material":13
				},
				{
					"attributes":{
						"POSITION":70,
						"NORMAL":71,
						"TEXCOORD_0":72,
						"COLOR_0":73
					},
					"indices":74,
					"material":14
				},
				{
					"attributes":{
						"POSITION":75,
						"NORMAL":76,
						"TEXCOORD_0":77,
						"COLOR_0":78
					},
					"indices":79,
					"material":15
				},
				{
					"attributes":{
						"POSITION":80,
						"NORMAL":81,
						"TEXCOORD_0":82,
						"COLOR_0":83
					},
					"indices":84,
					"material":16
				},
				{
					"attributes":{
						"POSITION":85,
						"NORMAL":86,
						"TEXCOORD_0":87,
						"COLOR_0":88
					},
					"indices":89,
					"material":17
				},
				{
					"attributes":{
						"POSITION":90,
						"NORMAL":91,
						"TEXCOORD_0":92,
						"COLOR_0":93
					},
					"indices":94,
					"material":18
				},
				{
					"attributes":{
						"POSITION":95,
						"NORMAL":96,
						"TEXCOORD_0":97,
						"COLOR_0":98
					},
					"indices":99,
					"material":19
				}
			]
		}
	],
	"textures":[
		{
			"sampler":0,
			"source":0
		},
		{
			"sampler":0,
			"source":1
		}
	],
	"images":[
		{
			"mimeType":"image/png",
			"name":"hexagons_medieval",
			"uri":"textures/hexagons_medieval.png"
		},
		{
			"mimeType":"image/png",
			"name":"Textures_4",
			"uri":"textures/Textures_4.png"
		}
	],
	"accessors":[
		{
			"bufferView":0,
			"componentType":5126,
			"count":768,
			"max":[
				4.3817138671875,
				1.9790306091308594,
				0.8246583938598633
			],
			"min":[
				-0.8461710214614868,
				-1.058648943901062,
				-6.808542251586914
			],
			"type":"VEC3"
		},
		{
			"bufferView":1,
			"componentType":5126,
			"count":768,
			"type":"VEC3"
		},
		{
			"bufferView":2,
			"componentType":5126,
			"count":768,
			"type":"VEC2"
		},
		{
			"bufferView":3,
			"componentType":5123,
			"count":768,
			"normalized":true,
			"type":"VEC4"
		},
		{
			"bufferView":4,
			"componentType":5123,
			"count":1344,
			"type":"SCALAR"
		},
		{
			"bufferView":5,
			"componentType":5126,
			"count":408,
			"max":[
				4.6693620681762695,
				0.9483092427253723,
				-1.434041142463684
			],
			"min":[
				1.6326777935028076,
				-0.5692626237869263,
				-5.471258163452148
			],
			"type":"VEC3"
		},
		{
			"bufferView":6,
			"componentType":5126,
			"count":408,
			"type":"VEC3"
		},
		{
			"bufferView":7,
			"componentType":5126,
			"count":408,
			"type":"VEC2"
		},
		{
			"bufferView":8,
			"componentType":5123,
			"count":408,
			"normalized":true,
			"type":"VEC4"
		},
		{
			"bufferView":9,
			"componentType":5123,
			"count":648,
			"type":"SCALAR"
		},
		{
			"bufferView":10,
			"componentType":5126,
			"count":146,
			"max":[
				2.3853166103363037,
				0.2736718952655792,
				-1.5829570293426514
			],
			"min":[
				0.8075848817825317,
				-0.22817762196063995,
				-2.6597442626953125
			],
			"type":"VEC3"
		},
		{
			"bufferView":11,
			"componentType":5126,
			"count":146,
			"type":"VEC3"
		},
		{
			"bufferView":12,
			"componentType":5126,
			"count":146,
			"type":"VEC2"
		},
		{
			"bufferView":13,
			"componentType":5123,
			"count":146,
			"normalized":true,
			"type":"VEC4"
		},
		{
			"bufferView":14,
			"componentType":5123,
			"count":240,
			"type":"SCALAR"
		},
		{
			"bufferView":15,
			"componentType":5126,
			"count":942,
			"max":[
				4.3817138671875,
				0.7443037629127502,
				1.933793306350708
			],
			"min":[
				-16.625938415527344,
				-1.153244972229004,
				-6.974047660827637
			],
			"type":"VEC3"
		},
		{
			"bufferView":16,
			"componentType":5126,
			"count":942,
			"type":"VEC3"
		},
		{
			"bufferView":17,
			"componentType":5126,
			"count":942,
			"type":"VEC2"
		},
		{
			"bufferView":18,
			"componentType":5123,
			"count":942,
			"normalized":true,
			"type":"VEC4"
		},
		{
			"bufferView":19,
			"componentType":5123,
			"count":948,
			"type":"SCALAR"
		},
		{
			"bufferView":20,
			"componentType":5126,
			"count":246,
			"max":[
				-0.9023557901382446,
				2.6740660667419434,
				3.2809500694274902
			],
			"min":[
				-2.071380138397217,
				1.075519323348999,
				2.1006076335906982
			],
			"type":"VEC3"
		},
		{
			"bufferView":21,
			"componentType":5126,
			"count":246,
			"type":"VEC3"
		},
		{
			"bufferView":22,
			"componentType":5126,
			"count":246,
			"type":"VEC2"
		},
		{
			"bufferView":23,
			"componentType":5123,
			"count":246,
			"normalized":true,
			"type":"VEC4"
		},
		{
			"bufferView":24,
			"componentType":5123,
			"count":438,
			"type":"SCALAR"
		},
		{
			"bufferView":25,
			"componentType":5126,
			"count":36,
			"max":[
				-1.2381312847137451,
				1.1565353870391846,
				3.002613067626953
			],
			"min":[
				-1.7552387714385986,
				0.7120344638824463,
				2.4887638092041016
			],
			"type":"VEC3"
		},
		{
			"bufferView":26,
			"componentType":5126,
			"count":36,
			"type":"VEC3"
		},
		{
			"bufferView":27,
			"componentType":5126,
			"count":36,
			"type":"VEC2"
		},
		{
			"bufferView":28,
			"componentType":5123,
			"count":36,
			"normalized":true,
			"type":"VEC4"
		},
		{
			"bufferView":29,
			"componentType":5123,
			"count":54,
			"type":"SCALAR"
		},
		{
			"bufferView":30,
			"componentType":5126,
			"count":1457,
			"max":[
				3.682460308074951,
				3.747941493988037,
				0.6045629978179932
			],
			"min":[
				-9.894246101379395,
				-1.5496944189071655,
				-8.023344993591309
			],
			"type":"VEC3"
		},
		{
			"bufferView":31,
			"componentType":5126,
			"count":1457,
			"type":"VEC3"
		},
		{
			"bufferView":32,
			"componentType":5126,
			"count":1457,
			"type":"VEC2"
		},
		{
			"bufferView":33,
			"componentType":5123,
			"count":1457,
			"normalized":true,
			"type":"VEC4"
		},
		{
			"bufferView":34,
			"componentType":5123,
			"count":2136,
			"type":"SCALAR"
		},
		{
			"bufferView":35,
			"componentType":5126,
			"count":627,
			"max":[
				3.3247594833374023,
				3.747941493988037,
				0.4221839904785156
			],
			"min":[
				-2.9066123962402344,
				-1.2557170391082764,
				-7.68981409072876
			],
			"type":"VEC3"
		},
		{
			"bufferView":36,
			"componentType":5126,
			"count":627,
			"type":"VEC3"
		},
		{
			"bufferView":37,
			"componentType":5126,
			"count":627,
			"type":"VEC2"
		},
		{
			"bufferView":38,
			"componentType":5123,
			"count":627,
			"normalized":true,
			"type":"VEC4"
		},
		{
			"bufferView":39,
			"componentType":5123,
			"count":1050,
			"type":"SCALAR"
		},
		{
			"bufferView":40,
			"componentType":5126,
			"count":30,
			"max":[
				-0.0828000009059906,
				0.528205394744873,
				0.4289018213748932
			],
			"min":[
				-0.36921167373657227,
				0.4041678309440613,
				0.17392092943191528
			],
			"type":"VEC3"
		},
		{
			"bufferView":41,
			"componentType":5126,
			"count":30,
			"type":"VEC3"
		},
		{
			"bufferView":42,
			"componentType":5126,
			"count":30,
			"type":"VEC2"
		},
		{
			"bufferView":43,
			"componentType":5123,
			"count":30,
			"normalized":true,
			"type":"VEC4"
		},
		{
			"bufferView":44,
			"componentType":5123,
			"count":48,
			"type":"SCALAR"
		},
		{
			"bufferView":45,
			"componentType":5126,
			"count":39630,
			"max":[
				5.36908483505249,
				1.3238778114318848,
				8.109209060668945
			],
			"min":[
				-18.33966827392578,
				-2.4989235401153564,
				-17.551549911499023
			],
			"type":"VEC3"
		},
		{
			"bufferView":46,
			"componentType":5126,
			"count":39630,
			"type":"VEC3"
		},
		{
			"bufferView":47,
			"componentType":5126,
			"count":39630,
			"type":"VEC2"
		},
		{
			"bufferView":48,
			"componentType":5123,
			"count":39630,
			"normalized":true,
			"type":"VEC4"
		},
		{
			"bufferView":49,
			"componentType":5123,
			"count":52665,
			"type":"SCALAR"
		},
		{
			"bufferView":50,
			"componentType":5126,
			"count":311,
			"max":[
				2.775874137878418,
				0.8689504861831665,
				-0.5266392230987549
			],
			"min":[
				-2.2322773933410645,
				-0.6488802433013916,
				-2.0455570220947266
			],
			"type":"VEC3"
		},
		{
			"bufferView":51,
			"componentType":5126,
			"count":311,
			"type":"VEC3"
		},
		{
			"bufferView":52,
			"componentType":5126,
			"count":311,
			"type":"VEC2"
		},
		{
			"bufferView":53,
			"componentType":5123,
			"count":311,
			"normalized":true,
			"type":"VEC4"
		},
		{
			"bufferView":54,
			"componentType":5123,
			"count":564,
			"type":"SCALAR"
		},
		{
			"bufferView":55,
			"componentType":5126,
			"count":8197,
			"max":[
				2.775874137878418,
				0.8689504861831665,
				1.9628692865371704
			],
			"min":[
				-16.625938415527344,
				-1.4708706140518188,
				-6.974047660827637
			],
			"type":"VEC3"
		},
		{
			"bufferView":56,
			"componentType":5126,
			"count":8197,
			"type":"VEC3"
		},
		{
			"bufferView":57,
			"componentType":5126,
			"count":8197,
			"type":"VEC2"
		},
		{
			"bufferView":58,
			"componentType":5123,
			"count":8197,
			"normalized":true,
			"type":"VEC4"
		},
		{
			"bufferView":59,
			"componentType":5123,
			"count":10476,
			"type":"SCALAR"
		},
		{
			"bufferView":60,
			"componentType":5126,
			"count":61,
			"max":[
				3.0081682205200195,
				-0.09914061427116394,
				-6.517913818359375
			],
			"min":[
				2.7034645080566406,
				-0.2348337471485138,
				-6.824185848236084
			],
			"type":"VEC3"
		},
		{
			"bufferView":61,
			"componentType":5126,
			"count":61,
			"type":"VEC3"
		},
		{
			"bufferView":62,
			"componentType":5126,
			"count":61,
			"type":"VEC2"
		},
		{
			"bufferView":63,
			"componentType":5123,
			"count":61,
			"normalized":true,
			"type":"VEC4"
		},
		{
			"bufferView":64,
			"componentType":5123,
			"count":105,
			"type":"SCALAR"
		},
		{
			"bufferView":65,
			"componentType":5126,
			"count":6,
			"max":[
				2.9317471981048584,
				-0.16179466247558594,
				-6.589353084564209
			],
			"min":[
				2.7798855304718018,
				-0.17666593194007874,
				-6.741996765136719
			],
			"type":"VEC3"
		},
		{
			"bufferView":66,
			"componentType":5126,
			"count":6,
			"type":"VEC3"
		},
		{
			"bufferView":67,
			"componentType":5126,
			"count":6,
			"type":"VEC2"
		},
		{
			"bufferView":68,
			"componentType":5123,
			"count":6,
			"normalized":true,
			"type":"VEC4"
		},
		{
			"bufferView":69,
			"componentType":5123,
			"count":12,
			"type":"SCALAR"
		},
		{
			"bufferView":70,
			"componentType":5126,
			"count":1294,
			"max":[
				1.5389328002929688,
				0.39997369050979614,
				2.8826029300689697
			],
			"min":[
				-18.84491539001465,
				-2.342695474624634,
				-15.95350456237793
			],
			"type":"VEC3"
		},
		{
			"bufferView":71,
			"componentType":5126,
			"count":1294,
			"type":"VEC3"
		},
		{
			"bufferView":72,
			"componentType":5126,
			"count":1294,
			"type":"VEC2"
		},
		{
			"bufferView":73,
			"componentType":5123,
			"count":1294,
			"normalized":true,
			"type":"VEC4"
		},
		{
			"bufferView":74,
			"componentType":5123,
			"count":2640,
			"type":"SCALAR"
		},
		{
			"bufferView":75,
			"componentType":5126,
			"count":77,
			"max":[
				0.47705531120300293,
				-0.21059048175811768,
				-4.552083492279053
			],
			"min":[
				-0.20750880241394043,
				-1.0200777053833008,
				-5.195902347564697
			],
			"type":"VEC3"
		},
		{
			"bufferView":76,
			"componentType":5126,
			"count":77,
			"type":"VEC3"
		},
		{
			"bufferView":77,
			"componentType":5126,
			"count":77,
			"type":"VEC2"
		},
		{
			"bufferView":78,
			"componentType":5123,
			"count":77,
			"normalized":true,
			"type":"VEC4"
		},
		{
			"bufferView":79,
			"componentType":5123,
			"count":126,
			"type":"SCALAR"
		},
		{
			"bufferView":80,
			"componentType":5126,
			"count":12740,
			"max":[
				-1.438692331314087,
				3.700972557067871,
				4.813824653625488
			],
			"min":[
				-19.335451126098633,
				-2.3483433723449707,
				-16.210067749023438
			],
			"type":"VEC3"
		},
		{
			"bufferView":81,
			"componentType":5126,
			"count":12740,
			"type":"VEC3"
		},
		{
			"bufferView":82,
			"componentType":5126,
			"count":12740,
			"type":"VEC2"
		},
		{
			"bufferView":83,
			"componentType":5123,
			"count":12740,
			"normalized":true,
			"type":"VEC4"
		},
		{
			"bufferView":84,
			"componentType":5123,
			"count":22158,
			"type":"SCALAR"
		},
		{
			"bufferView":85,
			"componentType":5126,
			"count":494,
			"max":[
				-6.576137542724609,
				-0.017575621604919434,
				0.3961232304573059
			],
			"min":[
				-13.688801765441895,
				-2.4004995822906494,
				-16.548486709594727
			],
			"type":"VEC3"
		},
		{
			"bufferView":86,
			"componentType":5126,
			"count":494,
			"type":"VEC3"
		},
		{
			"bufferView":87,
			"componentType":5126,
			"count":494,
			"type":"VEC2"
		},
		{
			"bufferView":88,
			"componentType":5123,
			"count":494,
			"normalized":true,
			"type":"VEC4"
		},
		{
			"bufferView":89,
			"componentType":5123,
			"count":840,
			"type":"SCALAR"
		},
		{
			"bufferView":90,
			"componentType":5126,
			"count":80,
			"max":[
				-6.652724742889404,
				-0.1608300805091858,
				0.2782524824142456
			],
			"min":[
				-13.531990051269531,
				-2.2530508041381836,
				-16.387563705444336
			],
			"type":"VEC3"
		},
		{
			"bufferView":91,
			"componentType":5126,
			"count":80,
			"type":"VEC3"
		},
		{
			"bufferView":92,
			"componentType":5126,
			"count":80,
			"type":"VEC2"
		},
		{
			"bufferView":93,
			"componentType":5123,
			"count":80,
			"normalized":true,
			"type":"VEC4"
		},
		{
			"bufferView":94,
			"componentType":5123,
			"count":120,
			"type":"SCALAR"
		},
		{
			"bufferView":95,
			"componentType":5126,
			"count":2545,
			"max":[
				-11.75803279876709,
				0.8607867956161499,
				2.6145596504211426
			],
			"min":[
				-13.285048484802246,
				-1.65994131565094,
				-9.071367263793945
			],
			"type":"VEC3"
		},
		{
			"bufferView":96,
			"componentType":5126,
			"count":2545,
			"type":"VEC3"
		},
		{
			"bufferView":97,
			"componentType":5126,
			"count":2545,
			"type":"VEC2"
		},
		{
			"bufferView":98,
			"componentType":5123,
			"count":2545,
			"normalized":true,
			"type":"VEC4"
		},
		{
			"bufferView":99,
			"componentType":5123,
			"count":10200,
			"type":"SCALAR"
		}
	],
	"bufferViews":[
		{
			"buffer":0,
			"byteLength":9216,
			"byteOffset":0,
			"target":34962
		},
		{
			"buffer":0,
			"byteLength":9216,
			"byteOffset":9216,
			"target":34962
		},
		{
			"buffer":0,
			"byteLength":6144,
			"byteOffset":18432,
			"target":34962
		},
		{
			"buffer":0,
			"byteLength":6144,
			"byteOffset":24576,
			"target":34962
		},
		{
			"buffer":0,
			"byteLength":2688,
			"byteOffset":30720,
			"target":34963
		},
		{
			"buffer":0,
			"byteLength":4896,
			"byteOffset":33408,
			"target":34962
		},
		{
			"buffer":0,
			"byteLength":4896,
			"byteOffset":38304,
			"target":34962
		},
		{
			"buffer":0,
			"byteLength":3264,
			"byteOffset":43200,
			"target":34962
		},
		{
			"buffer":0,
			"byteLength":3264,
			"byteOffset":46464,
			"target":34962
		},
		{
			"buffer":0,
			"byteLength":1296,
			"byteOffset":49728,
			"target":34963
		},
		{
			"buffer":0,
			"byteLength":1752,
			"byteOffset":51024,
			"target":34962
		},
		{
			"buffer":0,
			"byteLength":1752,
			"byteOffset":52776,
			"target":34962
		},
		{
			"buffer":0,
			"byteLength":1168,
			"byteOffset":54528,
			"target":34962
		},
		{
			"buffer":0,
			"byteLength":1168,
			"byteOffset":55696,
			"target":34962
		},
		{
			"buffer":0,
			"byteLength":480,
			"byteOffset":56864,
			"target":34963
		},
		{
			"buffer":0,
			"byteLength":11304,
			"byteOffset":57344,
			"target":34962
		},
		{
			"buffer":0,
			"byteLength":11304,
			"byteOffset":68648,
			"target":34962
		},
		{
			"buffer":0,
			"byteLength":7536,
			"byteOffset":79952,
			"target":34962
		},
		{
			"buffer":0,
			"byteLength":7536,
			"byteOffset":87488,
			"target":34962
		},
		{
			"buffer":0,
			"byteLength":1896,
			"byteOffset":95024,
			"target":34963
		},
		{
			"buffer":0,
			"byteLength":2952,
			"byteOffset":96920,
			"target":34962
		},
		{
			"buffer":0,
			"byteLength":2952,
			"byteOffset":99872,
			"target":34962
		},
		{
			"buffer":0,
			"byteLength":1968,
			"byteOffset":102824,
			"target":34962
		},
		{
			"buffer":0,
			"byteLength":1968,
			"byteOffset":104792,
			"target":34962
		},
		{
			"buffer":0,
			"byteLength":876,
			"byteOffset":106760,
			"target":34963
		},
		{
			"buffer":0,
			"byteLength":432,
			"byteOffset":107636,
			"target":34962
		},
		{
			"buffer":0,
			"byteLength":432,
			"byteOffset":108068,
			"target":34962
		},
		{
			"buffer":0,
			"byteLength":288,
			"byteOffset":108500,
			"target":34962
		},
		{
			"buffer":0,
			"byteLength":288,
			"byteOffset":108788,
			"target":34962
		},
		{
			"buffer":0,
			"byteLength":108,
			"byteOffset":109076,
			"target":34963
		},
		{
			"buffer":0,
			"byteLength":17484,
			"byteOffset":109184,
			"target":34962
		},
		{
			"buffer":0,
			"byteLength":17484,
			"byteOffset":126668,
			"target":34962
		},
		{
			"buffer":0,
			"byteLength":11656,
			"byteOffset":144152,
			"target":34962
		},
		{
			"buffer":0,
			"byteLength":11656,
			"byteOffset":155808,
			"target":34962
		},
		{
			"buffer":0,
			"byteLength":4272,
			"byteOffset":167464,
			"target":34963
		},
		{
			"buffer":0,
			"byteLength":7524,
			"byteOffset":171736,
			"target":34962
		},
		{
			"buffer":0,
			"byteLength":7524,
			"byteOffset":179260,
			"target":34962
		},
		{
			"buffer":0,
			"byteLength":5016,
			"byteOffset":186784,
			"target":34962
		},
		{
			"buffer":0,
			"byteLength":5016,
			"byteOffset":191800,
			"target":34962
		},
		{
			"buffer":0,
			"byteLength":2100,
			"byteOffset":196816,
			"target":34963
		},
		{
			"buffer":0,
			"byteLength":360,
			"byteOffset":198916,
			"target":34962
		},
		{
			"buffer":0,
			"byteLength":360,
			"byteOffset":199276,
			"target":34962
		},
		{
			"buffer":0,
			"byteLength":240,
			"byteOffset":199636,
			"target":34962
		},
		{
			"buffer":0,
			"byteLength":240,
			"byteOffset":199876,
			"target":34962
		},
		{
			"buffer":0,
			"byteLength":96,
			"byteOffset":200116,
			"target":34963
		},
		{
			"buffer":0,
			"byteLength":475560,
			"byteOffset":200212,
			"target":34962
		},
		{
			"buffer":0,
			"byteLength":475560,
			"byteOffset":675772,
			"target":34962
		},
		{
			"buffer":0,
			"byteLength":317040,
			"byteOffset":1151332,
			"target":34962
		},
		{
			"buffer":0,
			"byteLength":317040,
			"byteOffset":1468372,
			"target":34962
		},
		{
			"buffer":0,
			"byteLength":105330,
			"byteOffset":1785412,
			"target":34963
		},
		{
			"buffer":0,
			"byteLength":3732,
			"byteOffset":1890744,
			"target":34962
		},
		{
			"buffer":0,
			"byteLength":3732,
			"byteOffset":1894476,
			"target":34962
		},
		{
			"buffer":0,
			"byteLength":2488,
			"byteOffset":1898208,
			"target":34962
		},
		{
			"buffer":0,
			"byteLength":2488,
			"byteOffset":1900696,
			"target":34962
		},
		{
			"buffer":0,
			"byteLength":1128,
			"byteOffset":1903184,
			"target":34963
		},
		{
			"buffer":0,
			"byteLength":98364,
			"byteOffset":1904312,
			"target":34962
		},
		{
			"buffer":0,
			"byteLength":98364,
			"byteOffset":2002676,
			"target":34962
		},
		{
			"buffer":0,
			"byteLength":65576,
			"byteOffset":2101040,
			"target":34962
		},
		{
			"buffer":0,
			"byteLength":65576,
			"byteOffset":2166616,
			"target":34962
		},
		{
			"buffer":0,
			"byteLength":20952,
			"byteOffset":2232192,
			"target":34963
		},
		{
			"buffer":0,
			"byteLength":732,
			"byteOffset":2253144,
			"target":34962
		},
		{
			"buffer":0,
			"byteLength":732,
			"byteOffset":2253876,
			"target":34962
		},
		{
			"buffer":0,
			"byteLength":488,
			"byteOffset":2254608,
			"target":34962
		},
		{
			"buffer":0,
			"byteLength":488,
			"byteOffset":2255096,
			"target":34962
		},
		{
			"buffer":0,
			"byteLength":210,
			"byteOffset":2255584,
			"target":34963
		},
		{
			"buffer":0,
			"byteLength":72,
			"byteOffset":2255796,
			"target":34962
		},
		{
			"buffer":0,
			"byteLength":72,
			"byteOffset":2255868,
			"target":34962
		},
		{
			"buffer":0,
			"byteLength":48,
			"byteOffset":2255940,
			"target":34962
		},
		{
			"buffer":0,
			"byteLength":48,
			"byteOffset":2255988,
			"target":34962
		},
		{
			"buffer":0,
			"byteLength":24,
			"byteOffset":2256036,
			"target":34963
		},
		{
			"buffer":0,
			"byteLength":15528,
			"byteOffset":2256060,
			"target":34962
		},
		{
			"buffer":0,
			"byteLength":15528,
			"byteOffset":2271588,
			"target":34962
		},
		{
			"buffer":0,
			"byteLength":10352,
			"byteOffset":2287116,
			"target":34962
		},
		{
			"buffer":0,
			"byteLength":10352,
			"byteOffset":2297468,
			"target":34962
		},
		{
			"buffer":0,
			"byteLength":5280,
			"byteOffset":2307820,
			"target":34963
		},
		{
			"buffer":0,
			"byteLength":924,
			"byteOffset":2313100,
			"target":34962
		},
		{
			"buffer":0,
			"byteLength":924,
			"byteOffset":2314024,
			"target":34962
		},
		{
			"buffer":0,
			"byteLength":616,
			"byteOffset":2314948,
			"target":34962
		},
		{
			"buffer":0,
			"byteLength":616,
			"byteOffset":2315564,
			"target":34962
		},
		{
			"buffer":0,
			"byteLength":252,
			"byteOffset":2316180,
			"target":34963
		},
		{
			"buffer":0,
			"byteLength":152880,
			"byteOffset":2316432,
			"target":34962
		},
		{
			"buffer":0,
			"byteLength":152880,
			"byteOffset":2469312,
			"target":34962
		},
		{
			"buffer":0,
			"byteLength":101920,
			"byteOffset":2622192,
			"target":34962
		},
		{
			"buffer":0,
			"byteLength":101920,
			"byteOffset":2724112,
			"target":34962
		},
		{
			"buffer":0,
			"byteLength":44316,
			"byteOffset":2826032,
			"target":34963
		},
		{
			"buffer":0,
			"byteLength":5928,
			"byteOffset":2870348,
			"target":34962
		},
		{
			"buffer":0,
			"byteLength":5928,
			"byteOffset":2876276,
			"target":34962
		},
		{
			"buffer":0,
			"byteLength":3952,
			"byteOffset":2882204,
			"target":34962
		},
		{
			"buffer":0,
			"byteLength":3952,
			"byteOffset":2886156,
			"target":34962
		},
		{
			"buffer":0,
			"byteLength":1680,
			"byteOffset":2890108,
			"target":34963
		},
		{
			"buffer":0,
			"byteLength":960,
			"byteOffset":2891788,
			"target":34962
		},
		{
			"buffer":0,
			"byteLength":960,
			"byteOffset":2892748,
			"target":34962
		},
		{
			"buffer":0,
			"byteLength":640,
			"byteOffset":2893708,
			"target":34962
		},
		{
			"buffer":0,
			"byteLength":640,
			"byteOffset":2894348,
			"target":34962
		},
		{
			"buffer":0,
			"byteLength":240,
			"byteOffset":2894988,
			"target":34963
		},
		{
			"buffer":0,
			"byteLength":30540,
			"byteOffset":2895228,
			"target":34962
		},
		{
			"buffer":0,
			"byteLength":30540,
			"byteOffset":2925768,
			"target":34962
		},
		{
			"buffer":0,
			"byteLength":20360,
			"byteOffset":2956308,
			"target":34962
		},
		{
			"buffer":0,
			"byteLength":20360,
			"byteOffset":2976668,
			"target":34962
		},
		{
			"buffer":0,
			"byteLength":20400,
			"byteOffset":2997028,
			"target":34963
		}
	],
	"samplers":[
		{
			"magFilter":9729,
			"minFilter":9987
		}
	],
	"buffers":[
		{
			"byteLength":3017428,
			"uri":"cell_x2_z0_render.bin"
		}
	]
}
