{
	"asset":{
		"generator":"Khronos glTF Blender I/O v4.5.51",
		"version":"2.0"
	},
	"scene":0,
	"scenes":[
		{
			"name":"Scene",
			"nodes":[
				0
			]
		}
	],
	"nodes":[
		{
			"mesh":0,
			"name":"cell_x0_z-1",
			"rotation":[
				-0.007323071826249361,
				-0.7092577815055847,
				-0.0073686279356479645,
				0.7048726677894592
			],
			"scale":[
				4.708549976348877,
				4.708549976348877,
				4.708549976348877
			],
			"translation":[
				38.2990837097168,
				2.303300142288208,
				-13.975844383239746
			]
		}
	],
	"materials":[
		{
			"name":"dirt_v3",
			"pbrMetallicRoughness":{
				"baseColorFactor":[
					0.20863686501979828,
					0.15896083414554596,
					0.09084171056747437,
					1
				],
				"metallicFactor":0,
				"roughnessFactor":0.9200000166893005
			}
		},
		{
			"name":"grass",
			"pbrMetallicRoughness":{
				"baseColorFactor":[
					0.15592646598815918,
					0.2961382567882538,
					0.0802198201417923,
					1
				],
				"metallicFactor":0,
				"roughnessFactor":0.9200000166893005
			}
		},
		{
			"name":"stone_v3",
			"pbrMetallicRoughness":{
				"baseColorFactor":[
					0.20863686501979828,
					0.2462013214826584,
					0.2622506618499756,
					1
				],
				"metallicFactor":0,
				"roughnessFactor":0.9200000166893005
			}
		},
		{
			"name":"stone_v2",
			"pbrMetallicRoughness":{
				"baseColorFactor":[
					0.38132601976394653,
					0.38132601976394653,
					0.3324515223503113,
					1
				],
				"metallicFactor":0,
				"roughnessFactor":0.9200000166893005
			}
		},
		{
			"name":"_defaultMat",
			"pbrMetallicRoughness":{
				"baseColorFactor":[
					0.4564110338687897,
					0.4564110338687897,
					0.4125426113605499,
					1
				],
				"metallicFactor":0,
				"roughnessFactor":0.9200000166893005
			}
		},
		{
			"name":"stone_v1",
			"pbrMetallicRoughness":{
				"baseColorFactor":[
					0.2541520893573761,
					0.28744083642959595,
					0.3049873113632202,
					1
				],
				"metallicFactor":0,
				"roughnessFactor":0.9200000166893005
			}
		},
		{
			"name":"dirt_v1",
			"pbrMetallicRoughness":{
				"baseColorFactor":[
					0.2581828534603119,
					0.1946178376674652,
					0.1119324266910553,
					1
				],
				"metallicFactor":0,
				"roughnessFactor":0.9200000166893005
			}
		},
		{
			"name":"stone_v0",
			"pbrMetallicRoughness":{
				"baseColorFactor":[
					0.32314321398735046,
					0.35153260827064514,
					0.3613067865371704,
					1
				],
				"metallicFactor":0,
				"roughnessFactor":0.9200000166893005
			}
		},
		{
			"name":"leafsFall",
			"pbrMetallicRoughness":{
				"baseColorFactor":[
					0.4564110338687897,
					0.18782077729701996,
					0.045186202973127365,
					1
				],
				"metallicFactor":0,
				"roughnessFactor":0.9200000166893005
			}
		},
		{
			"name":"woodBirch",
			"pbrMetallicRoughness":{
				"baseColorFactor":[
					0.7304607629776001,
					0.6583748459815979,
					0.5028864741325378,
					1
				],
				"metallicFactor":0,
				"roughnessFactor":0.9200000166893005
			}
		},
		{
			"name":"leafsGreen",
			"pbrMetallicRoughness":{
				"baseColorFactor":[
					0.11443537473678589,
					0.23074005544185638,
					0.06301001459360123,
					1
				],
				"metallicFactor":0,
				"roughnessFactor":0.9200000166893005
			}
		},
		{
			"name":"woodBark",
			"pbrMetallicRoughness":{
				"baseColorFactor":[
					0.2015562504529953,
					0.08437620848417282,
					0.02955683507025242,
					1
				],
				"metallicFactor":0,
				"roughnessFactor":0.9200000166893005
			}
		},
		{
			"name":"leafsDark",
			"pbrMetallicRoughness":{
				"baseColorFactor":[
					0.04817182570695877,
					0.11443537473678589,
					0.03310476616024971,
					1
				],
				"metallicFactor":0,
				"roughnessFactor":0.9200000166893005
			}
		},
		{
			"name":"woodBarkDark",
			"pbrMetallicRoughness":{
				"baseColorFactor":[
					0.11443537473678589,
					0.04666508734226227,
					0.016807375475764275,
					1
				],
				"metallicFactor":0,
				"roughnessFactor":0.9200000166893005
			}
		},
		{
			"name":"colorRed",
			"pbrMetallicRoughness":{
				"baseColorFactor":[
					0.34191441535949707,
					0.08437620848417282,
					0.05951123684644699,
					1
				],
				"metallicFactor":0,
				"roughnessFactor":0.9200000166893005
			}
		},
		{
			"name":"woodInner",
			"pbrMetallicRoughness":{
				"baseColorFactor":[
					0.577580451965332,
					0.423267662525177,
					0.23839756846427917,
					1
				],
				"metallicFactor":0,
				"roughnessFactor":0.9200000166893005
			}
		},
		{
			"name":"dirt_v0",
			"pbrMetallicRoughness":{
				"baseColorFactor":[
					0.32314321398735046,
					0.24228112399578094,
					0.1384316086769104,
					1
				],
				"metallicFactor":0,
				"roughnessFactor":0.9200000166893005
			}
		},
		{
			"name":"colorPurple",
			"pbrMetallicRoughness":{
				"baseColorFactor":[
					0.19806931912899017,
					0.15592646598815918,
					0.3324515223503113,
					1
				],
				"metallicFactor":0,
				"roughnessFactor":0.9200000166893005
			}
		},
		{
			"name":"colorWhite",
			"pbrMetallicRoughness":{
				"baseColorFactor":[
					0.68668532371521,
					0.6583748459815979,
					0.577580451965332,
					1
				],
				"metallicFactor":0,
				"roughnessFactor":0.9200000166893005
			}
		},
		{
			"name":"stoneDark_v0",
			"pbrMetallicRoughness":{
				"baseColorFactor":[
					0.15592646598815918,
					0.17464740574359894,
					0.18782077729701996,
					1
				],
				"metallicFactor":0,
				"roughnessFactor":0.9200000166893005
			}
		},
		{
			"name":"stoneDark_v3",
			"pbrMetallicRoughness":{
				"baseColorFactor":[
					0.10224173218011856,
					0.11953842639923096,
					0.13013647496700287,
					1
				],
				"metallicFactor":0,
				"roughnessFactor":0.9200000166893005
			}
		},
		{
			"name":"stoneDark_v2",
			"pbrMetallicRoughness":{
				"baseColorFactor":[
					0.18782077729701996,
					0.2015562504529953,
					0.17464740574359894,
					1
				],
				"metallicFactor":0,
				"roughnessFactor":0.9200000166893005
			}
		},
		{
			"doubleSided":true,
			"name":"Color",
			"pbrMetallicRoughness":{
				"baseColorTexture":{
					"index":0
				},
				"metallicFactor":0,
				"roughnessFactor":0.75
			}
		},
		{
			"name":"wood",
			"pbrMetallicRoughness":{
				"baseColorFactor":[
					0.32314321398735046,
					0.1384316086769104,
					0.039546236395835876,
					1
				],
				"metallicFactor":0,
				"roughnessFactor":0.9200000166893005
			}
		},
		{
			"name":"colorRedDark",
			"pbrMetallicRoughness":{
				"baseColorFactor":[
					0.1946178376674652,
					0.04666508734226227,
					0.03433980792760849,
					1
				],
				"metallicFactor":0,
				"roughnessFactor":0.9200000166893005
			}
		}
	],
	"meshes":[
		{
			"name":"Mesh rock_largeA.010",
			"primitives":[
				{
					"attributes":{
						"POSITION":0,
						"NORMAL":1,
						"TEXCOORD_0":2,
						"COLOR_0":3
					},
					"indices":4,
					"material":0
				},
				{
					"attributes":{
						"POSITION":5,
						"NORMAL":6,
						"TEXCOORD_0":7,
						"COLOR_0":8
					},
					"indices":9,
					"material":1
				},
				{
					"attributes":{
						"POSITION":10,
						"NORMAL":11,
						"TEXCOORD_0":12,
						"COLOR_0":13
					},
					"indices":14,
					"material":2
				},
				{
					"attributes":{
						"POSITION":15,
						"NORMAL":16,
						"TEXCOORD_0":17,
						"COLOR_0":18
					},
					"indices":19,
					"material":3
				},
				{
					"attributes":{
						"POSITION":20,
						"NORMAL":21,
						"TEXCOORD_0":22,
						"COLOR_0":23
					},
					"indices":24,
					"material":4
				},
				{
					"attributes":{
						"POSITION":25,
						"NORMAL":26,
						"TEXCOORD_0":27,
						"COLOR_0":28
					},
					"indices":29,
					"material":5
				},
				{
					"attributes":{
						"POSITION":30,
						"NORMAL":31,
						"TEXCOORD_0":32,
						"COLOR_0":33
					},
					"indices":34,
					"material":6
				},
				{
					"attributes":{
						"POSITION":35,
						"NORMAL":36,
						"TEXCOORD_0":37,
						"COLOR_0":38
					},
					"indices":39,
					"material":7
				},
				{
					"attributes":{
						"POSITION":40,
						"NORMAL":41,
						"TEXCOORD_0":42,
						"COLOR_0":43
					},
					"indices":44,
					"material":8
				},
				{
					"attributes":{
						"POSITION":45,
						"NORMAL":46,
						"TEXCOORD_0":47,
						"COLOR_0":48
					},
					"indices":49,
					"material":9
				},
				{
					"attributes":{
						"POSITION":50,
						"NORMAL":51,
						"TEXCOORD_0":52,
						"COLOR_0":53
					},
					"indices":54,
					"material":10
				},
				{
					"attributes":{
						"POSITION":55,
						"NORMAL":56,
						"TEXCOORD_0":57,
						"COLOR_0":58
					},
					"indices":59,
					"material":11
				},
				{
					"attributes":{
						"POSITION":60,
						"NORMAL":61,
						"TEXCOORD_0":62,
						"COLOR_0":63
					},
					"indices":64,
					"material":12
				},
				{
					"attributes":{
						"POSITION":65,
						"NORMAL":66,
						"TEXCOORD_0":67,
						"COLOR_0":68
					},
					"indices":69,
					"material":13
				},
				{
					"attributes":{
						"POSITION":70,
						"NORMAL":71,
						"TEXCOORD_0":72,
						"COLOR_0":73
					},
					"indices":74,
					"material":14
				},
				{
					"attributes":{
						"POSITION":75,
						"NORMAL":76,
						"TEXCOORD_0":77,
						"COLOR_0":78
					},
					"indices":79,
					"material":15
				},
				{
					"attributes":{
						"POSITION":80,
						"NORMAL":81,
						"TEXCOORD_0":82,
						"COLOR_0":83
					},
					"indices":84,
					"material":16
				},
				{
					"attributes":{
						"POSITION":85,
						"NORMAL":86,
						"TEXCOORD_0":87,
						"COLOR_0":88
					},
					"indices":89,
					"material":17
				},
				{
					"attributes":{
						"POSITION":90,
						"NORMAL":91,
						"TEXCOORD_0":92,
						"COLOR_0":93
					},
					"indices":94,
					"material":18
				},
				{
					"attributes":{
						"POSITION":95,
						"NORMAL":96,
						"TEXCOORD_0":97,
						"COLOR_0":98
					},
					"indices":99,
					"material":19
				},
				{
					"attributes":{
						"POSITION":100,
						"NORMAL":101,
						"TEXCOORD_0":102,
						"COLOR_0":103
					},
					"indices":99,
					"material":20
				},
				{
					"attributes":{
						"POSITION":104,
						"NORMAL":105,
						"TEXCOORD_0":106,
						"COLOR_0":107
					},
					"indices":108,
					"material":21
				},
				{
					"attributes":{
						"POSITION":109,
						"NORMAL":110,
						"TEXCOORD_0":111,
						"COLOR_0":112
					},
					"indices":113,
					"material":22
				},
				{
					"attributes":{
						"POSITION":114,
						"NORMAL":115,
						"TEXCOORD_0":116,
						"COLOR_0":117
					},
					"indices":118,
					"material":23
				},
				{
					"attributes":{
						"POSITION":119,
						"NORMAL":120,
						"TEXCOORD_0":121,
						"COLOR_0":122
					},
					"indices":123,
					"material":24
				}
			]
		}
	],
	"textures":[
		{
			"sampler":0,
			"source":0
		}
	],
	"images":[
		{
			"mimeType":"image/png",
			"name":"Textures_4",
			"uri":"textures/Textures_4.png"
		}
	],
	"accessors":[
		{
			"bufferView":0,
			"componentType":5126,
			"count":281,
			"max":[
				0.3924533426761627,
				0.25977596640586853,
				3.969586133956909
			],
			"min":[
				-4.684006690979004,
				-0.13160471618175507,
				-0.5077307224273682
			],
			"type":"VEC3"
		},
		{
			"bufferView":1,
			"componentType":5126,
			"count":281,
			"type":"VEC3"
		},
		{
			"bufferView":2,
			"componentType":5126,
			"count":281,
			"type":"VEC2"
		},
		{
			"bufferView":3,
			"componentType":5123,
			"count":281,
			"normalized":true,
			"type":"VEC4"
		},
		{
			"bufferView":4,
			"componentType":5123,
			"count":426,
			"type":"SCALAR"
		},
		{
			"bufferView":5,
			"componentType":5126,
			"count":43916,
			"max":[
				2.922555446624756,
				1.2304606437683105,
				8.15560245513916
			],
			"min":[
				-5.536352157592773,
				-0.9706124663352966,
				-0.3301616907119751
			],
			"type":"VEC3"
		},
		{
			"bufferView":6,
			"componentType":5126,
			"count":43916,
			"type":"VEC3"
		},
		{
			"bufferView":7,
			"componentType":5126,
			"count":43916,
			"type":"VEC2"
		},
		{
			"bufferView":8,
			"componentType":5123,
			"count":43916,
			"normalized":true,
			"type":"VEC4"
		},
		{
			"bufferView":9,
			"componentType":5123,
			"count":57735,
			"type":"SCALAR"
		},
		{
			"bufferView":10,
			"componentType":5126,
			"count":613,
			"max":[
				3.423255681991577,
				1.0524814128875732,
				6.51518440246582
			],
			"min":[
				0.6136484146118164,
				-0.5945953726768494,
				1.5547173023223877
			],
			"type":"VEC3"
		},
		{
			"bufferView":11,
			"componentType":5126,
			"count":613,
			"type":"VEC3"
		},
		{
			"bufferView":12,
			"componentType":5126,
			"count":613,
			"type":"VEC2"
		},
		{
			"bufferView":13,
			"componentType":5123,
			"count":613,
			"normalized":true,
			"type":"VEC4"
		},
		{
			"bufferView":14,
			"componentType":5123,
			"count":978,
			"type":"SCALAR"
		},
		{
			"bufferView":15,
			"componentType":5126,
			"count":634,
			"max":[
				2.038057804107666,
				1.2216399908065796,
				5.1486382484436035
			],
			"min":[
				-3.4453790187835693,
				-0.5329335331916809,
				-0.1889081597328186
			],
			"type":"VEC3"
		},
		{
			"bufferView":16,
			"componentType":5126,
			"count":634,
			"type":"VEC3"
		},
		{
			"bufferView":17,
			"componentType":5126,
			"count":634,
			"type":"VEC2"
		},
		{
			"bufferView":18,
			"componentType":5123,
			"count":634,
			"normalized":true,
			"type":"VEC4"
		},
		{
			"bufferView":19,
			"componentType":5123,
			"count":1122,
			"type":"SCALAR"
		},
		{
			"bufferView":20,
			"componentType":5126,
			"count":385,
			"max":[
				2.6447181701660156,
				0.6803094148635864,
				7.952949047088623
			],
			"min":[
				-5.07826566696167,
				-0.46671241521835327,
				-0.1889081597328186
			],
			"type":"VEC3"
		},
		{
			"bufferView":21,
			"componentType":5126,
			"count":385,
			"type":"VEC3"
		},
		{
			"bufferView":22,
			"componentType":5126,
			"count":385,
			"type":"VEC2"
		},
		{
			"bufferView":23,
			"componentType":5123,
			"count":385,
			"normalized":true,
			"type":"VEC4"
		},
		{
			"bufferView":24,
			"componentType":5123,
			"count":408,
			"type":"SCALAR"
		},
		{
			"bufferView":25,
			"componentType":5126,
			"count":352,
			"max":[
				2.7177164554595947,
				0.9115563631057739,
				5.345240116119385
			],
			"min":[
				-2.484964370727539,
				-0.5822595953941345,
				0.3005741536617279
			],
			"type":"VEC3"
		},
		{
			"bufferView":26,
			"componentType":5126,
			"count":352,
			"type":"VEC3"
		},
		{
			"bufferView":27,
			"componentType":5126,
			"count":352,
			"type":"VEC2"
		},
		{
			"bufferView":28,
			"componentType":5123,
			"count":352,
			"normalized":true,
			"type":"VEC4"
		},
		{
			"bufferView":29,
			"componentType":5123,
			"count":588,
			"type":"SCALAR"
		},
		{
			"bufferView":30,
			"componentType":5126,
			"count":82,
			"max":[
				2.6447181701660156,
				1.2304606437683105,
				4.929530620574951
			],
			"min":[
				-3.1632797718048096,
				-0.4770384728908539,
				2.2551486492156982
			],
			"type":"VEC3"
		},
		{
			"bufferView":31,
			"componentType":5126,
			"count":82,
			"type":"VEC3"
		},
		{
			"bufferView":32,
			"componentType":5126,
			"count":82,
			"type":"VEC2"
		},
		{
			"bufferView":33,
			"componentType":5123,
			"count":82,
			"normalized":true,
			"type":"VEC4"
		},
		{
			"bufferView":34,
			"componentType":5123,
			"count":120,
			"type":"SCALAR"
		},
		{
			"bufferView":35,
			"componentType":5126,
			"count":487,
			"max":[
				-0.4932652711868286,
				0.7003641724586487,
				5.193675994873047
			],
			"min":[
				-5.6244916915893555,
				-0.5049232840538025,
				2.289093255996704
			],
			"type":"VEC3"
		},
		{
			"bufferView":36,
			"componentType":5126,
			"count":487,
			"type":"VEC3"
		},
		{
			"bufferView":37,
			"componentType":5126,
			"count":487,
			"type":"VEC2"
		},
		{
			"bufferView":38,
			"componentType":5123,
			"count":487,
			"normalized":true,
			"type":"VEC4"
		},
		{
			"bufferView":39,
			"componentType":5123,
			"count":762,
			"type":"SCALAR"
		},
		{
			"bufferView":40,
			"componentType":5126,
			"count":1916,
			"max":[
				2.8225717544555664,
				1.336561679840088,
				8.15167236328125
			],
			"min":[
				-3.4413115978240967,
				-0.7586217522621155,
				0.9409146308898926
			],
			"type":"VEC3"
		},
		{
			"bufferView":41,
			"componentType":5126,
			"count":1916,
			"type":"VEC3"
		},
		{
			"bufferView":42,
			"componentType":5126,
			"count":1916,
			"type":"VEC2"
		},
		{
			"bufferView":43,
			"componentType":5123,
			"count":1916,
			"normalized":true,
			"type":"VEC4"
		},
		{
			"bufferView":44,
			"componentType":5123,
			"count":2934,
			"type":"SCALAR"
		},
		{
			"bufferView":45,
			"componentType":5126,
			"count":1646,
			"max":[
				2.685331344604492,
				0.8972178101539612,
				7.975947856903076
			],
			"min":[
				-3.3574955463409424,
				-0.9275176525115967,
				1.0581427812576294
			],
			"type":"VEC3"
		},
		{
			"bufferView":46,
			"componentType":5126,
			"count":1646,
			"type":"VEC3"
		},
		{
			"bufferView":47,
			"componentType":5126,
			"count":1646,
			"type":"VEC2"
		},
		{
			"bufferView":48,
			"componentType":5123,
			"count":1646,
			"normalized":true,
			"type":"VEC4"
		},
		{
			"bufferView":49,
			"componentType":5123,
			"count":2532,
			"type":"SCALAR"
		},
		{
			"bufferView":50,
			"componentType":5126,
			"count":3113,
			"max":[
				2.969459295272827,
				1.2526428699493408,
				8.073504447937012
			],
			"min":[
				-5.265212535858154,
				-0.8217254281044006,
				-0.10040675848722458
			],
			"type":"VEC3"
		},
		{
			"bufferView":51,
			"componentType":5126,
			"count":3113,
			"type":"VEC3"
		},
		{
			"bufferView":52,
			"componentType":5126,
			"count":3113,
			"type":"VEC2"
		},
		{
			"bufferView":53,
			"componentType":5123,
			"count":3113,
			"normalized":true,
			"type":"VEC4"
		},
		{
			"bufferView":54,
			"componentType":5123,
			"count":5514,
			"type":"SCALAR"
		},
		{
			"bufferView":55,
			"componentType":5126,
			"count":1068,
			"max":[
				2.287203073501587,
				0.4673856198787689,
				7.330451011657715
			],
			"min":[
				-5.684993267059326,
				-0.7954065799713135,
				1.846172571182251
			],
			"type":"VEC3"
		},
		{
			"bufferView":56,
			"componentType":5126,
			"count":1068,
			"type":"VEC3"
		},
		{
			"bufferView":57,
			"componentType":5126,
			"count":1068,
			"type":"VEC2"
		},
		{
			"bufferView":58,
			"componentType":5123,
			"count":1068,
			"normalized":true,
			"type":"VEC4"
		},
		{
			"bufferView":59,
			"componentType":5123,
			"count":1728,
			"type":"SCALAR"
		},
		{
			"bufferView":60,
			"componentType":5126,
			"count":697,
			"max":[
				0.7138156890869141,
				0.8556291460990906,
				6.634928226470947
			],
			"min":[
				-0.05328875780105591,
				-0.4104405641555786,
				4.056435585021973
			],
			"type":"VEC3"
		},
		{
			"bufferView":61,
			"componentType":5126,
			"count":697,
			"type":"VEC3"
		},
		{
			"bufferView":62,
			"componentType":5126,
			"count":697,
			"type":"VEC2"
		},
		{
			"bufferView":63,
			"componentType":5123,
			"count":697,
			"normalized":true,
			"type":"VEC4"
		},
		{
			"bufferView":64,
			"componentType":5123,
			"count":1032,
			"type":"SCALAR"
		},
		{
			"bufferView":65,
			"componentType":5126,
			"count":519,
			"max":[
				0.5837259292602539,
				0.40531325340270996,
				6.52888822555542
			],
			"min":[
				0.08494497835636139,
				-0.7836414575576782,
				4.1730451583862305
			],
			"type":"VEC3"
		},
		{
			"bufferView":66,
			"componentType":5126,
			"count":519,
			"type":"VEC3"
		},
		{
			"bufferView":67,
			"componentType":5126,
			"count":519,
			"type":"VEC2"
		},
		{
			"bufferView":68,
			"componentType":5123,
			"count":519,
			"normalized":true,
			"type":"VEC4"
		},
		{
			"bufferView":69,
			"componentType":5123,
			"count":756,
			"type":"SCALAR"
		},
		{
			"bufferView":70,
			"componentType":5126,
			"count":438,
			"max":[
				2.1767427921295166,
				0.40768468379974365,
				8.176791191101074
			],
			"min":[
				-5.131565093994141,
				-0.5455353856086731,
				2.5352180004119873
			],
			"type":"VEC3"
		},
		{
			"bufferView":71,
			"componentType":5126,
			"count":438,
			"type":"VEC3"
		},
		{
			"bufferView":72,
			"componentType":5126,
			"count":438,
			"type":"VEC2"
		},
		{
			"bufferView":73,
			"componentType":5123,
			"count":438,
			"normalized":true,
			"type":"VEC4"
		},
		{
			"bufferView":74,
			"componentType":5123,
			"count":729,
			"type":"SCALAR"
		},
		{
			"bufferView":75,
			"componentType":5126,
			"count":557,
			"max":[
				2.287203073501587,
				0.05168265849351883,
				7.301412105560303
			],
			"min":[
				-5.6812262535095215,
				-0.327068030834198,
				1.846172571182251
			],
			"type":"VEC3"
		},
		{
			"bufferView":76,
			"componentType":5126,
			"count":557,
			"type":"VEC3"
		},
		{
			"bufferView":77,
			"componentType":5126,
			"count":557,
			"type":"VEC2"
		},
		{
			"bufferView":78,
			"componentType":5123,
			"count":557,
			"normalized":true,
			"type":"VEC4"
		},
		{
			"bufferView":79,
			"componentType":5123,
			"count":864,
			"type":"SCALAR"
		},
		{
			"bufferView":80,
			"componentType":5126,
			"count":27,
			"max":[
				-3.462263345718384,
				-0.29030925035476685,
				5.707126140594482
			],
			"min":[
				-3.80096173286438,
				-0.46427205204963684,
				5.402957439422607
			],
			"type":"VEC3"
		},
		{
			"bufferView":81,
			"componentType":5126,
			"count":27,
			"type":"VEC3"
		},
		{
			"bufferView":82,
			"componentType":5126,
			"count":27,
			"type":"VEC2"
		},
		{
			"bufferView":83,
			"componentType":5123,
			"count":27,
			"normalized":true,
			"type":"VEC4"
		},
		{
			"bufferView":84,
			"componentType":5123,
			"count":39,
			"type":"SCALAR"
		},
		{
			"bufferView":85,
			"componentType":5126,
			"count":134,
			"max":[
				1.0196800231933594,
				-0.6013931035995483,
				7.651031970977783
			],
			"min":[
				0.6981361508369446,
				-0.6745368242263794,
				7.263922691345215
			],
			"type":"VEC3"
		},
		{
			"bufferView":86,
			"componentType":5126,
			"count":134,
			"type":"VEC3"
		},
		{
			"bufferView":87,
			"componentType":5126,
			"count":134,
			"type":"VEC2"
		},
		{
			"bufferView":88,
			"componentType":5123,
			"count":134,
			"normalized":true,
			"type":"VEC4"
		},
		{
			"bufferView":89,
			"componentType":5123,
			"count":210,
			"type":"SCALAR"
		},
		{
			"bufferView":90,
			"componentType":5126,
			"count":12,
			"max":[
				0.9891788363456726,
				-0.6247832775115967,
				7.616945266723633
			],
			"min":[
				0.7324225306510925,
				-0.6497550010681152,
				7.295617580413818
			],
			"type":"VEC3"
		},
		{
			"bufferView":91,
			"componentType":5126,
			"count":12,
			"type":"VEC3"
		},
		{
			"bufferView":92,
			"componentType":5126,
			"count":12,
			"type":"VEC2"
		},
		{
			"bufferView":93,
			"componentType":5123,
			"count":12,
			"normalized":true,
			"type":"VEC4"
		},
		{
			"bufferView":94,
			"componentType":5123,
			"count":24,
			"type":"SCALAR"
		},
		{
			"bufferView":95,
			"componentType":5126,
			"count":24,
			"max":[
				-2.532074451446533,
				0.1523423194885254,
				3.8968350887298584
			],
			"min":[
				-2.9543795585632324,
				-0.29917627573013306,
				3.474621295928955
			],
			"type":"VEC3"
		},
		{
			"bufferView":96,
			"componentType":5126,
			"count":24,
			"type":"VEC3"
		},
		{
			"bufferView":97,
			"componentType":5126,
			"count":24,
			"type":"VEC2"
		},
		{
			"bufferView":98,
			"componentType":5123,
			"count":24,
			"normalized":true,
			"type":"VEC4"
		},
		{
			"bufferView":99,
			"componentType":5123,
			"count":48,
			"type":"SCALAR"
		},
		{
			"bufferView":100,
			"componentType":5126,
			"count":24,
			"max":[
				1.077765703201294,
				0.3522520065307617,
				3.455840587615967
			],
			"min":[
				0.651279628276825,
				-0.09933440387248993,
				3.0294463634490967
			],
			"type":"VEC3"
		},
		{
			"bufferView":101,
			"componentType":5126,
			"count":24,
			"type":"VEC3"
		},
		{
			"bufferView":102,
			"componentType":5126,
			"count":24,
			"type":"VEC2"
		},
		{
			"bufferView":103,
			"componentType":5123,
			"count":24,
			"normalized":true,
			"type":"VEC4"
		},
		{
			"bufferView":104,
			"componentType":5126,
			"count":44,
			"max":[
				-2.7594549655914307,
				0.9898313283920288,
				2.321887731552124
			],
			"min":[
				-3.4453790187835693,
				0.12993669509887695,
				1.2984912395477295
			],
			"type":"VEC3"
		},
		{
			"bufferView":105,
			"componentType":5126,
			"count":44,
			"type":"VEC3"
		},
		{
			"bufferView":106,
			"componentType":5126,
			"count":44,
			"type":"VEC2"
		},
		{
			"bufferView":107,
			"componentType":5123,
			"count":44,
			"normalized":true,
			"type":"VEC4"
		},
		{
			"bufferView":108,
			"componentType":5123,
			"count":60,
			"type":"SCALAR"
		},
		{
			"bufferView":109,
			"componentType":5126,
			"count":2526,
			"max":[
				-2.8190505504608154,
				0.5654153823852539,
				7.964461326599121
			],
			"min":[
				-5.527768611907959,
				-0.3824971616268158,
				1.282172441482544
			],
			"type":"VEC3"
		},
		{
			"bufferView":110,
			"componentType":5126,
			"count":2526,
			"type":"VEC3"
		},
		{
			"bufferView":111,
			"componentType":5126,
			"count":2526,
			"type":"VEC2"
		},
		{
			"bufferView":112,
			"componentType":5123,
			"count":2526,
			"normalized":true,
			"type":"VEC4"
		},
		{
			"bufferView":113,
			"componentType":5123,
			"count":10200,
			"type":"SCALAR"
		},
		{
			"bufferView":114,
			"componentType":5126,
			"count":77,
			"max":[
				-4.587893962860107,
				0.011685967445373535,
				7.962852954864502
			],
			"min":[
				-5.07826566696167,
				-0.46671241521835327,
				7.865835189819336
			],
			"type":"VEC3"
		},
		{
			"bufferView":115,
			"componentType":5126,
			"count":77,
			"type":"VEC3"
		},
		{
			"bufferView":116,
			"componentType":5126,
			"count":77,
			"type":"VEC2"
		},
		{
			"bufferView":117,
			"componentType":5123,
			"count":77,
			"normalized":true,
			"type":"VEC4"
		},
		{
			"bufferView":118,
			"componentType":5123,
			"count":132,
			"type":"SCALAR"
		},
		{
			"bufferView":119,
			"componentType":5126,
			"count":31,
			"max":[
				-4.665992736816406,
				-0.02657538652420044,
				8.120528221130371
			],
			"min":[
				-5.102743148803711,
				-0.46670597791671753,
				7.699521064758301
			],
			"type":"VEC3"
		},
		{
			"bufferView":120,
			"componentType":5126,
			"count":31,
			"type":"VEC3"
		},
		{
			"bufferView":121,
			"componentType":5126,
			"count":31,
			"type":"VEC2"
		},
		{
			"bufferView":122,
			"componentType":5123,
			"count":31,
			"normalized":true,
			"type":"VEC4"
		},
		{
			"bufferView":123,
			"componentType":5123,
			"count":39,
			"type":"SCALAR"
		}
	],
	"bufferViews":[
		{
			"buffer":0,
			"byteLength":3372,
			"byteOffset":0,
			"target":34962
		},
		{
			"buffer":0,
			"byteLength":3372,
			"byteOffset":3372,
			"target":34962
		},
		{
			"buffer":0,
			"byteLength":2248,
			"byteOffset":6744,
			"target":34962
		},
		{
			"buffer":0,
			"byteLength":2248,
			"byteOffset":8992,
			"target":34962
		},
		{
			"buffer":0,
			"byteLength":852,
			"byteOffset":11240,
			"target":34963
		},
		{
			"buffer":0,
			"byteLength":526992,
			"byteOffset":12092,
			"target":34962
		},
		{
			"buffer":0,
			"byteLength":526992,
			"byteOffset":539084,
			"target":34962
		},
		{
			"buffer":0,
			"byteLength":351328,
			"byteOffset":1066076,
			"target":34962
		},
		{
			"buffer":0,
			"byteLength":351328,
			"byteOffset":1417404,
			"target":34962
		},
		{
			"buffer":0,
			"byteLength":115470,
			"byteOffset":1768732,
			"target":34963
		},
		{
			"buffer":0,
			"byteLength":7356,
			"byteOffset":1884204,
			"target":34962
		},
		{
			"buffer":0,
			"byteLength":7356,
			"byteOffset":1891560,
			"target":34962
		},
		{
			"buffer":0,
			"byteLength":4904,
			"byteOffset":1898916,
			"target":34962
		},
		{
			"buffer":0,
			"byteLength":4904,
			"byteOffset":1903820,
			"target":34962
		},
		{
			"buffer":0,
			"byteLength":1956,
			"byteOffset":1908724,
			"target":34963
		},
		{
			"buffer":0,
			"byteLength":7608,
			"byteOffset":1910680,
			"target":34962
		},
		{
			"buffer":0,
			"byteLength":7608,
			"byteOffset":1918288,
			"target":34962
		},
		{
			"buffer":0,
			"byteLength":5072,
			"byteOffset":1925896,
			"target":34962
		},
		{
			"buffer":0,
			"byteLength":5072,
			"byteOffset":1930968,
			"target":34962
		},
		{
			"buffer":0,
			"byteLength":2244,
			"byteOffset":1936040,
			"target":34963
		},
		{
			"buffer":0,
			"byteLength":4620,
			"byteOffset":1938284,
			"target":34962
		},
		{
			"buffer":0,
			"byteLength":4620,
			"byteOffset":1942904,
			"target":34962
		},
		{
			"buffer":0,
			"byteLength":3080,
			"byteOffset":1947524,
			"target":34962
		},
		{
			"buffer":0,
			"byteLength":3080,
			"byteOffset":1950604,
			"target":34962
		},
		{
			"buffer":0,
			"byteLength":816,
			"byteOffset":1953684,
			"target":34963
		},
		{
			"buffer":0,
			"byteLength":4224,
			"byteOffset":1954500,
			"target":34962
		},
		{
			"buffer":0,
			"byteLength":4224,
			"byteOffset":1958724,
			"target":34962
		},
		{
			"buffer":0,
			"byteLength":2816,
			"byteOffset":1962948,
			"target":34962
		},
		{
			"buffer":0,
			"byteLength":2816,
			"byteOffset":1965764,
			"target":34962
		},
		{
			"buffer":0,
			"byteLength":1176,
			"byteOffset":1968580,
			"target":34963
		},
		{
			"buffer":0,
			"byteLength":984,
			"byteOffset":1969756,
			"target":34962
		},
		{
			"buffer":0,
			"byteLength":984,
			"byteOffset":1970740,
			"target":34962
		},
		{
			"buffer":0,
			"byteLength":656,
			"byteOffset":1971724,
			"target":34962
		},
		{
			"buffer":0,
			"byteLength":656,
			"byteOffset":1972380,
			"target":34962
		},
		{
			"buffer":0,
			"byteLength":240,
			"byteOffset":1973036,
			"target":34963
		},
		{
			"buffer":0,
			"byteLength":5844,
			"byteOffset":1973276,
			"target":34962
		},
		{
			"buffer":0,
			"byteLength":5844,
			"byteOffset":1979120,
			"target":34962
		},
		{
			"buffer":0,
			"byteLength":3896,
			"byteOffset":1984964,
			"target":34962
		},
		{
			"buffer":0,
			"byteLength":3896,
			"byteOffset":1988860,
			"target":34962
		},
		{
			"buffer":0,
			"byteLength":1524,
			"byteOffset":1992756,
			"target":34963
		},
		{
			"buffer":0,
			"byteLength":22992,
			"byteOffset":1994280,
			"target":34962
		},
		{
			"buffer":0,
			"byteLength":22992,
			"byteOffset":2017272,
			"target":34962
		},
		{
			"buffer":0,
			"byteLength":15328,
			"byteOffset":2040264,
			"target":34962
		},
		{
			"buffer":0,
			"byteLength":15328,
			"byteOffset":2055592,
			"target":34962
		},
		{
			"buffer":0,
			"byteLength":5868,
			"byteOffset":2070920,
			"target":34963
		},
		{
			"buffer":0,
			"byteLength":19752,
			"byteOffset":2076788,
			"target":34962
		},
		{
			"buffer":0,
			"byteLength":19752,
			"byteOffset":2096540,
			"target":34962
		},
		{
			"buffer":0,
			"byteLength":13168,
			"byteOffset":2116292,
			"target":34962
		},
		{
			"buffer":0,
			"byteLength":13168,
			"byteOffset":2129460,
			"target":34962
		},
		{
			"buffer":0,
			"byteLength":5064,
			"byteOffset":2142628,
			"target":34963
		},
		{
			"buffer":0,
			"byteLength":37356,
			"byteOffset":2147692,
			"target":34962
		},
		{
			"buffer":0,
			"byteLength":37356,
			"byteOffset":2185048,
			"target":34962
		},
		{
			"buffer":0,
			"byteLength":24904,
			"byteOffset":2222404,
			"target":34962
		},
		{
			"buffer":0,
			"byteLength":24904,
			"byteOffset":2247308,
			"target":34962
		},
		{
			"buffer":0,
			"byteLength":11028,
			"byteOffset":2272212,
			"target":34963
		},
		{
			"buffer":0,
			"byteLength":12816,
			"byteOffset":2283240,
			"target":34962
		},
		{
			"buffer":0,
			"byteLength":12816,
			"byteOffset":2296056,
			"target":34962
		},
		{
			"buffer":0,
			"byteLength":8544,
			"byteOffset":2308872,
			"target":34962
		},
		{
			"buffer":0,
			"byteLength":8544,
			"byteOffset":2317416,
			"target":34962
		},
		{
			"buffer":0,
			"byteLength":3456,
			"byteOffset":2325960,
			"target":34963
		},
		{
			"buffer":0,
			"byteLength":8364,
			"byteOffset":2329416,
			"target":34962
		},
		{
			"buffer":0,
			"byteLength":8364,
			"byteOffset":2337780,
			"target":34962
		},
		{
			"buffer":0,
			"byteLength":5576,
			"byteOffset":2346144,
			"target":34962
		},
		{
			"buffer":0,
			"byteLength":5576,
			"byteOffset":2351720,
			"target":34962
		},
		{
			"buffer":0,
			"byteLength":2064,
			"byteOffset":2357296,
			"target":34963
		},
		{
			"buffer":0,
			"byteLength":6228,
			"byteOffset":2359360,
			"target":34962
		},
		{
			"buffer":0,
			"byteLength":6228,
			"byteOffset":2365588,
			"target":34962
		},
		{
			"buffer":0,
			"byteLength":4152,
			"byteOffset":2371816,
			"target":34962
		},
		{
			"buffer":0,
			"byteLength":4152,
			"byteOffset":2375968,
			"target":34962
		},
		{
			"buffer":0,
			"byteLength":1512,
			"byteOffset":2380120,
			"target":34963
		},
		{
			"buffer":0,
			"byteLength":5256,
			"byteOffset":2381632,
			"target":34962
		},
		{
			"buffer":0,
			"byteLength":5256,
			"byteOffset":2386888,
			"target":34962
		},
		{
			"buffer":0,
			"byteLength":3504,
			"byteOffset":2392144,
			"target":34962
		},
		{
			"buffer":0,
			"byteLength":3504,
			"byteOffset":2395648,
			"target":34962
		},
		{
			"buffer":0,
			"byteLength":1458,
			"byteOffset":2399152,
			"target":34963
		},
		{
			"buffer":0,
			"byteLength":6684,
			"byteOffset":2400612,
			"target":34962
		},
		{
			"buffer":0,
			"byteLength":6684,
			"byteOffset":2407296,
			"target":34962
		},
		{
			"buffer":0,
			"byteLength":4456,
			"byteOffset":2413980,
			"target":34962
		},
		{
			"buffer":0,
			"byteLength":4456,
			"byteOffset":2418436,
			"target":34962
		},
		{
			"buffer":0,
			"byteLength":1728,
			"byteOffset":2422892,
			"target":34963
		},
		{
			"buffer":0,
			"byteLength":324,
			"byteOffset":2424620,
			"target":34962
		},
		{
			"buffer":0,
			"byteLength":324,
			"byteOffset":2424944,
			"target":34962
		},
		{
			"buffer":0,
			"byteLength":216,
			"byteOffset":2425268,
			"target":34962
		},
		{
			"buffer":0,
			"byteLength":216,
			"byteOffset":2425484,
			"target":34962
		},
		{
			"buffer":0,
			"byteLength":78,
			"byteOffset":2425700,
			"target":34963
		},
		{
			"buffer":0,
			"byteLength":1608,
			"byteOffset":2425780,
			"target":34962
		},
		{
			"buffer":0,
			"byteLength":1608,
			"byteOffset":2427388,
			"target":34962
		},
		{
			"buffer":0,
			"byteLength":1072,
			"byteOffset":2428996,
			"target":34962
		},
		{
			"buffer":0,
			"byteLength":1072,
			"byteOffset":2430068,
			"target":34962
		},
		{
			"buffer":0,
			"byteLength":420,
			"byteOffset":2431140,
			"target":34963
		},
		{
			"buffer":0,
			"byteLength":144,
			"byteOffset":2431560,
			"target":34962
		},
		{
			"buffer":0,
			"byteLength":144,
			"byteOffset":2431704,
			"target":34962
		},
		{
			"buffer":0,
			"byteLength":96,
			"byteOffset":2431848,
			"target":34962
		},
		{
			"buffer":0,
			"byteLength":96,
			"byteOffset":2431944,
			"target":34962
		},
		{
			"buffer":0,
			"byteLength":48,
			"byteOffset":2432040,
			"target":34963
		},
		{
			"buffer":0,
			"byteLength":288,
			"byteOffset":2432088,
			"target":34962
		},
		{
			"buffer":0,
			"byteLength":288,
			"byteOffset":2432376,
			"target":34962
		},
		{
			"buffer":0,
			"byteLength":192,
			"byteOffset":2432664,
			"target":34962
		},
		{
			"buffer":0,
			"byteLength":192,
			"byteOffset":2432856,
			"target":34962
		},
		{
			"buffer":0,
			"byteLength":96,
			"byteOffset":2433048,
			"target":34963
		},
		{
			"buffer":0,
			"byteLength":288,
			"byteOffset":2433144,
			"target":34962
		},
		{
			"buffer":0,
			"byteLength":288,
			"byteOffset":2433432,
			"target":34962
		},
		{
			"buffer":0,
			"byteLength":192,
			"byteOffset":2433720,
			"target":34962
		},
		{
			"buffer":0,
			"byteLength":192,
			"byteOffset":2433912,
			"target":34962
		},
		{
			"buffer":0,
			"byteLength":528,
			"byteOffset":2434104,
			"target":34962
		},
		{
			"buffer":0,
			"byteLength":528,
			"byteOffset":2434632,
			"target":34962
		},
		{
			"buffer":0,
			"byteLength":352,
			"byteOffset":2435160,
			"target":34962
		},
		{
			"buffer":0,
			"byteLength":352,
			"byteOffset":2435512,
			"target":34962
		},
		{
			"buffer":0,
			"byteLength":120,
			"byteOffset":2435864,
			"target":34963
		},
		{
			"buffer":0,
			"byteLength":30312,
			"byteOffset":2435984,
			"target":34962
		},
		{
			"buffer":0,
			"byteLength":30312,
			"byteOffset":2466296,
			"target":34962
		},
		{
			"buffer":0,
			"byteLength":20208,
			"byteOffset":2496608,
			"target":34962
		},
		{
			"buffer":0,
			"byteLength":20208,
			"byteOffset":2516816,
			"target":34962
		},
		{
			"buffer":0,
			"byteLength":20400,
			"byteOffset":2537024,
			"target":34963
		},
		{
			"buffer":0,
			"byteLength":924,
			"byteOffset":2557424,
			"target":34962
		},
		{
			"buffer":0,
			"byteLength":924,
			"byteOffset":2558348,
			"target":34962
		},
		{
			"buffer":0,
			"byteLength":616,
			"byteOffset":2559272,
			"target":34962
		},
		{
			"buffer":0,
			"byteLength":616,
			"byteOffset":2559888,
			"target":34962
		},
		{
			"buffer":0,
			"byteLength":264,
			"byteOffset":2560504,
			"target":34963
		},
		{
			"buffer":0,
			"byteLength":372,
			"byteOffset":2560768,
			"target":34962
		},
		{
			"buffer":0,
			"byteLength":372,
			"byteOffset":2561140,
			"target":34962
		},
		{
			"buffer":0,
			"byteLength":248,
			"byteOffset":2561512,
			"target":34962
		},
		{
			"buffer":0,
			"byteLength":248,
			"byteOffset":2561760,
			"target":34962
		},
		{
			"buffer":0,
			"byteLength":78,
			"byteOffset":2562008,
			"target":34963
		}
	],
	"samplers":[
		{
			"magFilter":9729,
			"minFilter":9987
		}
	],
	"buffers":[
		{
			"byteLength":2562088,
			"uri":"cell_x0_z-1_render.bin"
		}
	]
}
