{
	"asset":{
		"generator":"Khronos glTF Blender I/O v4.5.51",
		"version":"2.0"
	},
	"scene":0,
	"scenes":[
		{
			"name":"Scene",
			"nodes":[
				0
			]
		}
	],
	"nodes":[
		{
			"mesh":0,
			"name":"cell_x-4_z0",
			"rotation":[
				0,
				0.9641092419624329,
				0,
				0.2655058801174164
			],
			"scale":[
				1.4614830017089844,
				1.461483120918274,
				1.4614830017089844
			],
			"translation":[
				-131.60000610351562,
				6.061696529388428,
				2.58429217338562
			]
		}
	],
	"materials":[
		{
			"doubleSided":true,
			"name":"sol_falaise",
			"normalTexture":{
				"index":0,
				"scale":0.800000011920929
			},
			"pbrMetallicRoughness":{
				"baseColorFactor":[
					0.6514056324958801,
					0.6104955673217773,
					0.5149176716804504,
					1
				],
				"baseColorTexture":{
					"index":1
				},
				"metallicFactor":0,
				"roughnessFactor":0.949999988079071
			}
		},
		{
			"name":"stone_v1",
			"pbrMetallicRoughness":{
				"baseColorFactor":[
					0.2541520893573761,
					0.28744083642959595,
					0.3049873113632202,
					1
				],
				"metallicFactor":0,
				"roughnessFactor":0.9200000166893005
			}
		},
		{
			"name":"leafsGreen",
			"pbrMetallicRoughness":{
				"baseColorFactor":[
					0.11443537473678589,
					0.23074005544185638,
					0.06301001459360123,
					1
				],
				"metallicFactor":0,
				"roughnessFactor":0.9200000166893005
			}
		},
		{
			"name":"woodBark",
			"pbrMetallicRoughness":{
				"baseColorFactor":[
					0.2015562504529953,
					0.08437620848417282,
					0.02955683507025242,
					1
				],
				"metallicFactor":0,
				"roughnessFactor":0.9200000166893005
			}
		},
		{
			"name":"leafsDark",
			"pbrMetallicRoughness":{
				"baseColorFactor":[
					0.04817182570695877,
					0.11443537473678589,
					0.03310476616024971,
					1
				],
				"metallicFactor":0,
				"roughnessFactor":0.9200000166893005
			}
		},
		{
			"name":"woodBarkDark",
			"pbrMetallicRoughness":{
				"baseColorFactor":[
					0.11443537473678589,
					0.04666508734226227,
					0.016807375475764275,
					1
				],
				"metallicFactor":0,
				"roughnessFactor":0.9200000166893005
			}
		},
		{
			"name":"_defaultMat",
			"pbrMetallicRoughness":{
				"baseColorFactor":[
					0.4564110338687897,
					0.4564110338687897,
					0.4125426113605499,
					1
				],
				"metallicFactor":0,
				"roughnessFactor":0.9200000166893005
			}
		},
		{
			"name":"colorRed",
			"pbrMetallicRoughness":{
				"baseColorFactor":[
					0.34191441535949707,
					0.08437620848417282,
					0.05951123684644699,
					1
				],
				"metallicFactor":0,
				"roughnessFactor":0.9200000166893005
			}
		},
		{
			"name":"grass",
			"pbrMetallicRoughness":{
				"baseColorFactor":[
					0.15592646598815918,
					0.2961382567882538,
					0.0802198201417923,
					1
				],
				"metallicFactor":0,
				"roughnessFactor":0.9200000166893005
			}
		},
		{
			"name":"stone_v3",
			"pbrMetallicRoughness":{
				"baseColorFactor":[
					0.20863686501979828,
					0.2462013214826584,
					0.2622506618499756,
					1
				],
				"metallicFactor":0,
				"roughnessFactor":0.9200000166893005
			}
		},
		{
			"name":"wood",
			"pbrMetallicRoughness":{
				"baseColorFactor":[
					0.32314321398735046,
					0.1384316086769104,
					0.039546236395835876,
					1
				],
				"metallicFactor":0,
				"roughnessFactor":0.9200000166893005
			}
		},
		{
			"name":"colorRedDark",
			"pbrMetallicRoughness":{
				"baseColorFactor":[
					0.1946178376674652,
					0.04666508734226227,
					0.03433980792760849,
					1
				],
				"metallicFactor":0,
				"roughnessFactor":0.9200000166893005
			}
		},
		{
			"name":"woodInner",
			"pbrMetallicRoughness":{
				"baseColorFactor":[
					0.577580451965332,
					0.423267662525177,
					0.23839756846427917,
					1
				],
				"metallicFactor":0,
				"roughnessFactor":0.9200000166893005
			}
		}
	],
	"meshes":[
		{
			"name":"SM_ENV_cliff_castle_02_instantmeshesexp_02.001",
			"primitives":[
				{
					"attributes":{
						"POSITION":0,
						"NORMAL":1,
						"TEXCOORD_0":2,
						"TEXCOORD_1":3
					},
					"indices":4,
					"material":0
				},
				{
					"attributes":{
						"POSITION":5,
						"NORMAL":6,
						"TEXCOORD_0":7,
						"TEXCOORD_1":8
					},
					"indices":9,
					"material":1
				},
				{
					"attributes":{
						"POSITION":10,
						"NORMAL":11,
						"TEXCOORD_0":12,
						"TEXCOORD_1":13
					},
					"indices":14,
					"material":2
				},
				{
					"attributes":{
						"POSITION":15,
						"NORMAL":16,
						"TEXCOORD_0":17,
						"TEXCOORD_1":18
					},
					"indices":19,
					"material":3
				},
				{
					"attributes":{
						"POSITION":20,
						"NORMAL":21,
						"TEXCOORD_0":22,
						"TEXCOORD_1":23
					},
					"indices":24,
					"material":4
				},
				{
					"attributes":{
						"POSITION":25,
						"NORMAL":26,
						"TEXCOORD_0":27,
						"TEXCOORD_1":28
					},
					"indices":29,
					"material":5
				},
				{
					"attributes":{
						"POSITION":30,
						"NORMAL":31,
						"TEXCOORD_0":32,
						"TEXCOORD_1":33
					},
					"indices":34,
					"material":6
				},
				{
					"attributes":{
						"POSITION":35,
						"NORMAL":36,
						"TEXCOORD_0":37,
						"TEXCOORD_1":38
					},
					"indices":39,
					"material":7
				},
				{
					"attributes":{
						"POSITION":40,
						"NORMAL":41,
						"TEXCOORD_0":42,
						"TEXCOORD_1":43
					},
					"indices":44,
					"material":8
				},
				{
					"attributes":{
						"POSITION":45,
						"NORMAL":46,
						"TEXCOORD_0":47,
						"TEXCOORD_1":48
					},
					"indices":49,
					"material":9
				},
				{
					"attributes":{
						"POSITION":50,
						"NORMAL":51,
						"TEXCOORD_0":52,
						"TEXCOORD_1":53
					},
					"indices":54,
					"material":10
				},
				{
					"attributes":{
						"POSITION":55,
						"NORMAL":56,
						"TEXCOORD_0":57,
						"TEXCOORD_1":58
					},
					"indices":59,
					"material":11
				},
				{
					"attributes":{
						"POSITION":60,
						"NORMAL":61,
						"TEXCOORD_0":62,
						"TEXCOORD_1":63
					},
					"indices":64,
					"material":12
				}
			]
		}
	],
	"textures":[
		{
			"sampler":0,
			"source":0
		},
		{
			"sampler":0,
			"source":1
		}
	],
	"images":[
		{
			"mimeType":"image/png",
			"name":"cliff_n",
			"uri":"textures/cliff_n.png"
		},
		{
			"mimeType":"image/png",
			"name":"stone_bc",
			"uri":"textures/stone_bc.png"
		}
	],
	"accessors":[
		{
			"bufferView":0,
			"componentType":5126,
			"count":13145,
			"max":[
				5.037600517272949,
				9.32160758972168,
				3.3966786861419678
			],
			"min":[
				-12.291193962097168,
				-8.037541389465332,
				-14.630020141601562
			],
			"type":"VEC3"
		},
		{
			"bufferView":1,
			"componentType":5126,
			"count":13145,
			"type":"VEC3"
		},
		{
			"bufferView":2,
			"componentType":5126,
			"count":13145,
			"type":"VEC2"
		},
		{
			"bufferView":3,
			"componentType":5126,
			"count":13145,
			"type":"VEC2"
		},
		{
			"bufferView":4,
			"componentType":5123,
			"count":68409,
			"type":"SCALAR"
		},
		{
			"bufferView":5,
			"componentType":5126,
			"count":252,
			"max":[
				-0.12444955110549927,
				1.0867716073989868,
				-3.6385436058044434
			],
			"min":[
				-17.997547149658203,
				-0.7447583079338074,
				-20.3851318359375
			],
			"type":"VEC3"
		},
		{
			"bufferView":6,
			"componentType":5126,
			"count":252,
			"type":"VEC3"
		},
		{
			"bufferView":7,
			"componentType":5126,
			"count":252,
			"type":"VEC2"
		},
		{
			"bufferView":8,
			"componentType":5126,
			"count":252,
			"type":"VEC2"
		},
		{
			"bufferView":9,
			"componentType":5123,
			"count":408,
			"type":"SCALAR"
		},
		{
			"bufferView":10,
			"componentType":5126,
			"count":382,
			"max":[
				-15.789634704589844,
				5.281190872192383,
				-15.07807731628418
			],
			"min":[
				-19.460817337036133,
				0.07296991348266602,
				-18.49993324279785
			],
			"type":"VEC3"
		},
		{
			"bufferView":11,
			"componentType":5126,
			"count":382,
			"type":"VEC3"
		},
		{
			"bufferView":12,
			"componentType":5126,
			"count":382,
			"type":"VEC2"
		},
		{
			"bufferView":13,
			"componentType":5126,
			"count":382,
			"type":"VEC2"
		},
		{
			"bufferView":14,
			"componentType":5123,
			"count":642,
			"type":"SCALAR"
		},
		{
			"bufferView":15,
			"componentType":5126,
			"count":652,
			"max":[
				0.09102576971054077,
				1.7142466306686401,
				1.035448670387268
			],
			"min":[
				-18.45439338684082,
				-1.0421531200408936,
				-17.583084106445312
			],
			"type":"VEC3"
		},
		{
			"bufferView":16,
			"componentType":5126,
			"count":652,
			"type":"VEC3"
		},
		{
			"bufferView":17,
			"componentType":5126,
			"count":652,
			"type":"VEC2"
		},
		{
			"bufferView":18,
			"componentType":5126,
			"count":652,
			"type":"VEC2"
		},
		{
			"bufferView":19,
			"componentType":5123,
			"count":1146,
			"type":"SCALAR"
		},
		{
			"bufferView":20,
			"componentType":5126,
			"count":118,
			"max":[
				-15.938192367553711,
				2.990762948989868,
				-12.402607917785645
			],
			"min":[
				-17.888031005859375,
				1.0513379573822021,
				-14.155009269714355
			],
			"type":"VEC3"
		},
		{
			"bufferView":21,
			"componentType":5126,
			"count":118,
			"type":"VEC3"
		},
		{
			"bufferView":22,
			"componentType":5126,
			"count":118,
			"type":"VEC2"
		},
		{
			"bufferView":23,
			"componentType":5126,
			"count":118,
			"type":"VEC2"
		},
		{
			"bufferView":24,
			"componentType":5123,
			"count":192,
			"type":"SCALAR"
		},
		{
			"bufferView":25,
			"componentType":5126,
			"count":261,
			"max":[
				-16.352754592895508,
				1.065284013748169,
				-12.729076385498047
			],
			"min":[
				-17.33860969543457,
				-0.27357110381126404,
				-13.743276596069336
			],
			"type":"VEC3"
		},
		{
			"bufferView":26,
			"componentType":5126,
			"count":261,
			"type":"VEC3"
		},
		{
			"bufferView":27,
			"componentType":5126,
			"count":261,
			"type":"VEC2"
		},
		{
			"bufferView":28,
			"componentType":5126,
			"count":261,
			"type":"VEC2"
		},
		{
			"bufferView":29,
			"componentType":5123,
			"count":396,
			"type":"SCALAR"
		},
		{
			"bufferView":30,
			"componentType":5126,
			"count":264,
			"max":[
				-14.561932563781738,
				-0.24031999707221985,
				-11.442451477050781
			],
			"min":[
				-15.082954406738281,
				-0.6037139892578125,
				-11.91193675994873
			],
			"type":"VEC3"
		},
		{
			"bufferView":31,
			"componentType":5126,
			"count":264,
			"type":"VEC3"
		},
		{
			"bufferView":32,
			"componentType":5126,
			"count":264,
			"type":"VEC2"
		},
		{
			"bufferView":33,
			"componentType":5126,
			"count":264,
			"type":"VEC2"
		},
		{
			"bufferView":34,
			"componentType":5123,
			"count":288,
			"type":"SCALAR"
		},
		{
			"bufferView":35,
			"componentType":5126,
			"count":481,
			"max":[
				-1.9849753379821777,
				0.3997703790664673,
				-0.22368603944778442
			],
			"min":[
				-15.082954406738281,
				-1.0415449142456055,
				-11.91193675994873
			],
			"type":"VEC3"
		},
		{
			"bufferView":36,
			"componentType":5126,
			"count":481,
			"type":"VEC3"
		},
		{
			"bufferView":37,
			"componentType":5126,
			"count":481,
			"type":"VEC2"
		},
		{
			"bufferView":38,
			"componentType":5126,
			"count":481,
			"type":"VEC2"
		},
		{
			"bufferView":39,
			"componentType":5123,
			"count":1002,
			"type":"SCALAR"
		},
		{
			"bufferView":40,
			"componentType":5126,
			"count":4156,
			"max":[
				-3.857602119445801,
				0.6807556748390198,
				4.674571514129639
			],
			"min":[
				-18.132774353027344,
				-1.1125881671905518,
				-17.329938888549805
			],
			"type":"VEC3"
		},
		{
			"bufferView":41,
			"componentType":5126,
			"count":4156,
			"type":"VEC3"
		},
		{
			"bufferView":42,
			"componentType":5126,
			"count":4156,
			"type":"VEC2"
		},
		{
			"bufferView":43,
			"componentType":5126,
			"count":4156,
			"type":"VEC2"
		},
		{
			"bufferView":44,
			"componentType":5123,
			"count":5592,
			"type":"SCALAR"
		},
		{
			"bufferView":45,
			"componentType":5126,
			"count":461,
			"max":[
				-8.904186248779297,
				-0.7999248504638672,
				-1.0061715841293335
			],
			"min":[
				-10.3248872756958,
				-1.0127251148223877,
				-2.4663450717926025
			],
			"type":"VEC3"
		},
		{
			"bufferView":46,
			"componentType":5126,
			"count":461,
			"type":"VEC3"
		},
		{
			"bufferView":47,
			"componentType":5126,
			"count":461,
			"type":"VEC2"
		},
		{
			"bufferView":48,
			"componentType":5126,
			"count":461,
			"type":"VEC2"
		},
		{
			"bufferView":49,
			"componentType":5123,
			"count":792,
			"type":"SCALAR"
		},
		{
			"bufferView":50,
			"componentType":5126,
			"count":264,
			"max":[
				-1.9077954292297363,
				0.5178172588348389,
				-0.28415727615356445
			],
			"min":[
				-8.602182388305664,
				-1.0415449142456055,
				-5.81613302230835
			],
			"type":"VEC3"
		},
		{
			"bufferView":51,
			"componentType":5126,
			"count":264,
			"type":"VEC3"
		},
		{
			"bufferView":52,
			"componentType":5126,
			"count":264,
			"type":"VEC2"
		},
		{
			"bufferView":53,
			"componentType":5126,
			"count":264,
			"type":"VEC2"
		},
		{
			"bufferView":54,
			"componentType":5123,
			"count":480,
			"type":"SCALAR"
		},
		{
			"bufferView":55,
			"componentType":5126,
			"count":20,
			"max":[
				-7.422731399536133,
				-0.007721066474914551,
				-4.914162635803223
			],
			"min":[
				-8.320260047912598,
				-0.573117733001709,
				-6.304548740386963
			],
			"type":"VEC3"
		},
		{
			"bufferView":56,
			"componentType":5126,
			"count":20,
			"type":"VEC3"
		},
		{
			"bufferView":57,
			"componentType":5126,
			"count":20,
			"type":"VEC2"
		},
		{
			"bufferView":58,
			"componentType":5126,
			"count":20,
			"type":"VEC2"
		},
		{
			"bufferView":59,
			"componentType":5123,
			"count":30,
			"type":"SCALAR"
		},
		{
			"bufferView":60,
			"componentType":5126,
			"count":96,
			"max":[
				0.009969234466552734,
				-0.14458191394805908,
				0.8492085933685303
			],
			"min":[
				-7.189817905426025,
				-0.9315881729125977,
				-4.179809093475342
			],
			"type":"VEC3"
		},
		{
			"bufferView":61,
			"componentType":5126,
			"count":96,
			"type":"VEC3"
		},
		{
			"bufferView":62,
			"componentType":5126,
			"count":96,
			"type":"VEC2"
		},
		{
			"bufferView":63,
			"componentType":5126,
			"count":96,
			"type":"VEC2"
		},
		{
			"bufferView":64,
			"componentType":5123,
			"count":168,
			"type":"SCALAR"
		}
	],
	"bufferViews":[
		{
			"buffer":0,
			"byteLength":157740,
			"byteOffset":0,
			"target":34962
		},
		{
			"buffer":0,
			"byteLength":157740,
			"byteOffset":157740,
			"target":34962
		},
		{
			"buffer":0,
			"byteLength":105160,
			"byteOffset":315480,
			"target":34962
		},
		{
			"buffer":0,
			"byteLength":105160,
			"byteOffset":420640,
			"target":34962
		},
		{
			"buffer":0,
			"byteLength":136818,
			"byteOffset":525800,
			"target":34963
		},
		{
			"buffer":0,
			"byteLength":3024,
			"byteOffset":662620,
			"target":34962
		},
		{
			"buffer":0,
			"byteLength":3024,
			"byteOffset":665644,
			"target":34962
		},
		{
			"buffer":0,
			"byteLength":2016,
			"byteOffset":668668,
			"target":34962
		},
		{
			"buffer":0,
			"byteLength":2016,
			"byteOffset":670684,
			"target":34962
		},
		{
			"buffer":0,
			"byteLength":816,
			"byteOffset":672700,
			"target":34963
		},
		{
			"buffer":0,
			"byteLength":4584,
			"byteOffset":673516,
			"target":34962
		},
		{
			"buffer":0,
			"byteLength":4584,
			"byteOffset":678100,
			"target":34962
		},
		{
			"buffer":0,
			"byteLength":3056,
			"byteOffset":682684,
			"target":34962
		},
		{
			"buffer":0,
			"byteLength":3056,
			"byteOffset":685740,
			"target":34962
		},
		{
			"buffer":0,
			"byteLength":1284,
			"byteOffset":688796,
			"target":34963
		},
		{
			"buffer":0,
			"byteLength":7824,
			"byteOffset":690080,
			"target":34962
		},
		{
			"buffer":0,
			"byteLength":7824,
			"byteOffset":697904,
			"target":34962
		},
		{
			"buffer":0,
			"byteLength":5216,
			"byteOffset":705728,
			"target":34962
		},
		{
			"buffer":0,
			"byteLength":5216,
			"byteOffset":710944,
			"target":34962
		},
		{
			"buffer":0,
			"byteLength":2292,
			"byteOffset":716160,
			"target":34963
		},
		{
			"buffer":0,
			"byteLength":1416,
			"byteOffset":718452,
			"target":34962
		},
		{
			"buffer":0,
			"byteLength":1416,
			"byteOffset":719868,
			"target":34962
		},
		{
			"buffer":0,
			"byteLength":944,
			"byteOffset":721284,
			"target":34962
		},
		{
			"buffer":0,
			"byteLength":944,
			"byteOffset":722228,
			"target":34962
		},
		{
			"buffer":0,
			"byteLength":384,
			"byteOffset":723172,
			"target":34963
		},
		{
			"buffer":0,
			"byteLength":3132,
			"byteOffset":723556,
			"target":34962
		},
		{
			"buffer":0,
			"byteLength":3132,
			"byteOffset":726688,
			"target":34962
		},
		{
			"buffer":0,
			"byteLength":2088,
			"byteOffset":729820,
			"target":34962
		},
		{
			"buffer":0,
			"byteLength":2088,
			"byteOffset":731908,
			"target":34962
		},
		{
			"buffer":0,
			"byteLength":792,
			"byteOffset":733996,
			"target":34963
		},
		{
			"buffer":0,
			"byteLength":3168,
			"byteOffset":734788,
			"target":34962
		},
		{
			"buffer":0,
			"byteLength":3168,
			"byteOffset":737956,
			"target":34962
		},
		{
			"buffer":0,
			"byteLength":2112,
			"byteOffset":741124,
			"target":34962
		},
		{
			"buffer":0,
			"byteLength":2112,
			"byteOffset":743236,
			"target":34962
		},
		{
			"buffer":0,
			"byteLength":576,
			"byteOffset":745348,
			"target":34963
		},
		{
			"buffer":0,
			"byteLength":5772,
			"byteOffset":745924,
			"target":34962
		},
		{
			"buffer":0,
			"byteLength":5772,
			"byteOffset":751696,
			"target":34962
		},
		{
			"buffer":0,
			"byteLength":3848,
			"byteOffset":757468,
			"target":34962
		},
		{
			"buffer":0,
			"byteLength":3848,
			"byteOffset":761316,
			"target":34962
		},
		{
			"buffer":0,
			"byteLength":2004,
			"byteOffset":765164,
			"target":34963
		},
		{
			"buffer":0,
			"byteLength":49872,
			"byteOffset":767168,
			"target":34962
		},
		{
			"buffer":0,
			"byteLength":49872,
			"byteOffset":817040,
			"target":34962
		},
		{
			"buffer":0,
			"byteLength":33248,
			"byteOffset":866912,
			"target":34962
		},
		{
			"buffer":0,
			"byteLength":33248,
			"byteOffset":900160,
			"target":34962
		},
		{
			"buffer":0,
			"byteLength":11184,
			"byteOffset":933408,
			"target":34963
		},
		{
			"buffer":0,
			"byteLength":5532,
			"byteOffset":944592,
			"target":34962
		},
		{
			"buffer":0,
			"byteLength":5532,
			"byteOffset":950124,
			"target":34962
		},
		{
			"buffer":0,
			"byteLength":3688,
			"byteOffset":955656,
			"target":34962
		},
		{
			"buffer":0,
			"byteLength":3688,
			"byteOffset":959344,
			"target":34962
		},
		{
			"buffer":0,
			"byteLength":1584,
			"byteOffset":963032,
			"target":34963
		},
		{
			"buffer":0,
			"byteLength":3168,
			"byteOffset":964616,
			"target":34962
		},
		{
			"buffer":0,
			"byteLength":3168,
			"byteOffset":967784,
			"target":34962
		},
		{
			"buffer":0,
			"byteLength":2112,
			"byteOffset":970952,
			"target":34962
		},
		{
			"buffer":0,
			"byteLength":2112,
			"byteOffset":973064,
			"target":34962
		},
		{
			"buffer":0,
			"byteLength":960,
			"byteOffset":975176,
			"target":34963
		},
		{
			"buffer":0,
			"byteLength":240,
			"byteOffset":976136,
			"target":34962
		},
		{
			"buffer":0,
			"byteLength":240,
			"byteOffset":976376,
			"target":34962
		},
		{
			"buffer":0,
			"byteLength":160,
			"byteOffset":976616,
			"target":34962
		},
		{
			"buffer":0,
			"byteLength":160,
			"byteOffset":976776,
			"target":34962
		},
		{
			"buffer":0,
			"byteLength":60,
			"byteOffset":976936,
			"target":34963
		},
		{
			"buffer":0,
			"byteLength":1152,
			"byteOffset":976996,
			"target":34962
		},
		{
			"buffer":0,
			"byteLength":1152,
			"byteOffset":978148,
			"target":34962
		},
		{
			"buffer":0,
			"byteLength":768,
			"byteOffset":979300,
			"target":34962
		},
		{
			"buffer":0,
			"byteLength":768,
			"byteOffset":980068,
			"target":34962
		},
		{
			"buffer":0,
			"byteLength":336,
			"byteOffset":980836,
			"target":34963
		}
	],
	"samplers":[
		{
			"magFilter":9729,
			"minFilter":9987
		}
	],
	"buffers":[
		{
			"byteLength":981172,
			"uri":"cell_x-4_z0_render.bin"
		}
	]
}
