{
	"asset":{
		"generator":"Khronos glTF Blender I/O v4.5.51",
		"version":"2.0"
	},
	"scene":0,
	"scenes":[
		{
			"name":"Scene",
			"nodes":[
				0
			]
		}
	],
	"nodes":[
		{
			"mesh":0,
			"name":"cell_x3_z0",
			"rotation":[
				0.015675120055675507,
				-0.40566936135292053,
				0.006958310957998037,
				0.9138591289520264
			],
			"scale":[
				2.398667812347412,
				2.398667812347412,
				2.398667812347412
			],
			"translation":[
				122.96179962158203,
				-0.7858437895774841,
				6.019937515258789
			]
		}
	],
	"materials":[
		{
			"name":"stone_v3",
			"pbrMetallicRoughness":{
				"baseColorFactor":[
					0.20863686501979828,
					0.2462013214826584,
					0.2622506618499756,
					1
				],
				"metallicFactor":0,
				"roughnessFactor":0.9200000166893005
			}
		},
		{
			"name":"grass",
			"pbrMetallicRoughness":{
				"baseColorFactor":[
					0.15592646598815918,
					0.2961382567882538,
					0.0802198201417923,
					1
				],
				"metallicFactor":0,
				"roughnessFactor":0.9200000166893005
			}
		}
	],
	"meshes":[
		{
			"name":"Mesh stone_largeC",
			"primitives":[
				{
					"attributes":{
						"POSITION":0,
						"NORMAL":1,
						"TEXCOORD_0":2
					},
					"indices":3,
					"material":0
				},
				{
					"attributes":{
						"POSITION":4,
						"NORMAL":5,
						"TEXCOORD_0":6
					},
					"indices":7,
					"material":1
				}
			]
		}
	],
	"accessors":[
		{
			"bufferView":0,
			"componentType":5126,
			"count":132,
			"max":[
				0.5322049260139465,
				0.3211120069026947,
				0.5078310370445251
			],
			"min":[
				-0.5322049260139465,
				-2.707167856703783e-16,
				-0.5078310370445251
			],
			"type":"VEC3"
		},
		{
			"bufferView":1,
			"componentType":5126,
			"count":132,
			"type":"VEC3"
		},
		{
			"bufferView":2,
			"componentType":5126,
			"count":132,
			"type":"VEC2"
		},
		{
			"bufferView":3,
			"componentType":5123,
			"count":216,
			"type":"SCALAR"
		},
		{
			"bufferView":4,
			"componentType":5126,
			"count":3704,
			"max":[
				8.20874309539795,
				2.0401837825775146,
				8.234136581420898
			],
			"min":[
				-1.941668152809143,
				0.04900793731212616,
				-1.2754795551300049
			],
			"type":"VEC3"
		},
		{
			"bufferView":5,
			"componentType":5126,
			"count":3704,
			"type":"VEC3"
		},
		{
			"bufferView":6,
			"componentType":5126,
			"count":3704,
			"type":"VEC2"
		},
		{
			"bufferView":7,
			"componentType":5123,
			"count":5112,
			"type":"SCALAR"
		}
	],
	"bufferViews":[
		{
			"buffer":0,
			"byteLength":1584,
			"byteOffset":0,
			"target":34962
		},
		{
			"buffer":0,
			"byteLength":1584,
			"byteOffset":1584,
			"target":34962
		},
		{
			"buffer":0,
			"byteLength":1056,
			"byteOffset":3168,
			"target":34962
		},
		{
			"buffer":0,
			"byteLength":432,
			"byteOffset":4224,
			"target":34963
		},
		{
			"buffer":0,
			"byteLength":44448,
			"byteOffset":4656,
			"target":34962
		},
		{
			"buffer":0,
			"byteLength":44448,
			"byteOffset":49104,
			"target":34962
		},
		{
			"buffer":0,
			"byteLength":29632,
			"byteOffset":93552,
			"target":34962
		},
		{
			"buffer":0,
			"byteLength":10224,
			"byteOffset":123184,
			"target":34963
		}
	],
	"buffers":[
		{
			"byteLength":133408,
			"uri":"cell_x3_z0_render.bin"
		}
	]
}
