{
	"asset":{
		"generator":"Khronos glTF Blender I/O v4.5.51",
		"version":"2.0"
	},
	"scene":0,
	"scenes":[
		{
			"name":"Scene",
			"nodes":[
				0
			]
		}
	],
	"nodes":[
		{
			"mesh":0,
			"name":"cell_x-3_z-3",
			"rotation":[
				0.009943453595042229,
				-0.6642667055130005,
				0.00883771013468504,
				0.7473772764205933
			],
			"scale":[
				5.5082268714904785,
				5.508227348327637,
				5.5082268714904785
			],
			"translation":[
				-97.32318878173828,
				1.2711739540100098,
				-85.76781463623047
			]
		}
	],
	"materials":[
		{
			"name":"stone_v3",
			"pbrMetallicRoughness":{
				"baseColorFactor":[
					0.20863686501979828,
					0.2462013214826584,
					0.2622506618499756,
					1
				],
				"metallicFactor":0,
				"roughnessFactor":0.9200000166893005
			}
		},
		{
			"name":"_defaultMat",
			"pbrMetallicRoughness":{
				"baseColorFactor":[
					0.4564110338687897,
					0.4564110338687897,
					0.4125426113605499,
					1
				],
				"metallicFactor":0,
				"roughnessFactor":0.9200000166893005
			}
		},
		{
			"name":"stone_v1",
			"pbrMetallicRoughness":{
				"baseColorFactor":[
					0.2541520893573761,
					0.28744083642959595,
					0.3049873113632202,
					1
				],
				"metallicFactor":0,
				"roughnessFactor":0.9200000166893005
			}
		},
		{
			"name":"leafsDark",
			"pbrMetallicRoughness":{
				"baseColorFactor":[
					0.04817182570695877,
					0.11443537473678589,
					0.03310476616024971,
					1
				],
				"metallicFactor":0,
				"roughnessFactor":0.9200000166893005
			}
		},
		{
			"name":"woodBarkDark",
			"pbrMetallicRoughness":{
				"baseColorFactor":[
					0.11443537473678589,
					0.04666508734226227,
					0.016807375475764275,
					1
				],
				"metallicFactor":0,
				"roughnessFactor":0.9200000166893005
			}
		},
		{
			"name":"grass",
			"pbrMetallicRoughness":{
				"baseColorFactor":[
					0.15592646598815918,
					0.2961382567882538,
					0.0802198201417923,
					1
				],
				"metallicFactor":0,
				"roughnessFactor":0.9200000166893005
			}
		},
		{
			"name":"leafsGreen",
			"pbrMetallicRoughness":{
				"baseColorFactor":[
					0.11443537473678589,
					0.23074005544185638,
					0.06301001459360123,
					1
				],
				"metallicFactor":0,
				"roughnessFactor":0.9200000166893005
			}
		},
		{
			"name":"stone_v2",
			"pbrMetallicRoughness":{
				"baseColorFactor":[
					0.38132601976394653,
					0.38132601976394653,
					0.3324515223503113,
					1
				],
				"metallicFactor":0,
				"roughnessFactor":0.9200000166893005
			}
		}
	],
	"meshes":[
		{
			"name":"Mesh stone_tallF.002",
			"primitives":[
				{
					"attributes":{
						"POSITION":0,
						"NORMAL":1,
						"TEXCOORD_0":2
					},
					"indices":3,
					"material":0
				},
				{
					"attributes":{
						"POSITION":4,
						"NORMAL":5,
						"TEXCOORD_0":6
					},
					"indices":7,
					"material":1
				},
				{
					"attributes":{
						"POSITION":8,
						"NORMAL":9,
						"TEXCOORD_0":10
					},
					"indices":11,
					"material":2
				},
				{
					"attributes":{
						"POSITION":12,
						"NORMAL":13,
						"TEXCOORD_0":14
					},
					"indices":15,
					"material":3
				},
				{
					"attributes":{
						"POSITION":16,
						"NORMAL":17,
						"TEXCOORD_0":18
					},
					"indices":19,
					"material":4
				},
				{
					"attributes":{
						"POSITION":20,
						"NORMAL":21,
						"TEXCOORD_0":22
					},
					"indices":23,
					"material":5
				},
				{
					"attributes":{
						"POSITION":24,
						"NORMAL":25,
						"TEXCOORD_0":26
					},
					"indices":27,
					"material":6
				},
				{
					"attributes":{
						"POSITION":28,
						"NORMAL":29,
						"TEXCOORD_0":30
					},
					"indices":31,
					"material":7
				}
			]
		}
	],
	"accessors":[
		{
			"bufferView":0,
			"componentType":5126,
			"count":222,
			"max":[
				0.4343600869178772,
				0.5736719965934753,
				0.6070764064788818
			],
			"min":[
				-0.2218480110168457,
				-0.13536673784255981,
				-0.256168007850647
			],
			"type":"VEC3"
		},
		{
			"bufferView":1,
			"componentType":5126,
			"count":222,
			"type":"VEC3"
		},
		{
			"bufferView":2,
			"componentType":5126,
			"count":222,
			"type":"VEC2"
		},
		{
			"bufferView":3,
			"componentType":5123,
			"count":366,
			"type":"SCALAR"
		},
		{
			"bufferView":4,
			"componentType":5126,
			"count":24,
			"max":[
				0.7458033561706543,
				0,
				0.256168007850647
			],
			"min":[
				-0.2218480110168457,
				-0.14254100620746613,
				-2.7822775840759277
			],
			"type":"VEC3"
		},
		{
			"bufferView":5,
			"componentType":5126,
			"count":24,
			"type":"VEC3"
		},
		{
			"bufferView":6,
			"componentType":5126,
			"count":24,
			"type":"VEC2"
		},
		{
			"bufferView":7,
			"componentType":5123,
			"count":24,
			"type":"SCALAR"
		},
		{
			"bufferView":8,
			"componentType":5126,
			"count":208,
			"max":[
				0.7458033561706543,
				0.4409770965576172,
				1.2393577098846436
			],
			"min":[
				-0.3468857705593109,
				-0.14254100620746613,
				-2.7822775840759277
			],
			"type":"VEC3"
		},
		{
			"bufferView":9,
			"componentType":5126,
			"count":208,
			"type":"VEC3"
		},
		{
			"bufferView":10,
			"componentType":5126,
			"count":208,
			"type":"VEC2"
		},
		{
			"bufferView":11,
			"componentType":5123,
			"count":342,
			"type":"SCALAR"
		},
		{
			"bufferView":12,
			"componentType":5126,
			"count":2810,
			"max":[
				1.2519779205322266,
				1.8202835321426392,
				4.153772830963135
			],
			"min":[
				-0.0834614485502243,
				-0.03454792499542236,
				-1.9469032287597656
			],
			"type":"VEC3"
		},
		{
			"bufferView":13,
			"componentType":5126,
			"count":2810,
			"type":"VEC3"
		},
		{
			"bufferView":14,
			"componentType":5126,
			"count":2810,
			"type":"VEC2"
		},
		{
			"bufferView":15,
			"componentType":5123,
			"count":4818,
			"type":"SCALAR"
		},
		{
			"bufferView":16,
			"componentType":5126,
			"count":691,
			"max":[
				1.110770583152771,
				0.9711219072341919,
				4.035385608673096
			],
			"min":[
				0.00276222825050354,
				-0.2195216417312622,
				-1.7950485944747925
			],
			"type":"VEC3"
		},
		{
			"bufferView":17,
			"componentType":5126,
			"count":691,
			"type":"VEC3"
		},
		{
			"bufferView":18,
			"componentType":5126,
			"count":691,
			"type":"VEC2"
		},
		{
			"bufferView":19,
			"componentType":5123,
			"count":1152,
			"type":"SCALAR"
		},
		{
			"bufferView":20,
			"componentType":5126,
			"count":3248,
			"max":[
				1.2624516487121582,
				0.13213972747325897,
				3.868494987487793
			],
			"min":[
				-0.09183072298765182,
				-0.30511876940727234,
				-2.087583303451538
			],
			"type":"VEC3"
		},
		{
			"bufferView":21,
			"componentType":5126,
			"count":3248,
			"type":"VEC3"
		},
		{
			"bufferView":22,
			"componentType":5126,
			"count":3248,
			"type":"VEC2"
		},
		{
			"bufferView":23,
			"componentType":5123,
			"count":4464,
			"type":"SCALAR"
		},
		{
			"bufferView":24,
			"componentType":5126,
			"count":141,
			"max":[
				0.6563752889633179,
				0.06780677288770676,
				1.047063946723938
			],
			"min":[
				0.06643620878458023,
				-0.07487774640321732,
				-2.0794143676757812
			],
			"type":"VEC3"
		},
		{
			"bufferView":25,
			"componentType":5126,
			"count":141,
			"type":"VEC3"
		},
		{
			"bufferView":26,
			"componentType":5126,
			"count":141,
			"type":"VEC2"
		},
		{
			"bufferView":27,
			"componentType":5123,
			"count":264,
			"type":"SCALAR"
		},
		{
			"bufferView":28,
			"componentType":5126,
			"count":148,
			"max":[
				1.4415987730026245,
				0.06494872272014618,
				-2.2322986125946045
			],
			"min":[
				0.9747330546379089,
				-0.07157579809427261,
				-2.6567862033843994
			],
			"type":"VEC3"
		},
		{
			"bufferView":29,
			"componentType":5126,
			"count":148,
			"type":"VEC3"
		},
		{
			"bufferView":30,
			"componentType":5126,
			"count":148,
			"type":"VEC2"
		},
		{
			"bufferView":31,
			"componentType":5123,
			"count":240,
			"type":"SCALAR"
		}
	],
	"bufferViews":[
		{
			"buffer":0,
			"byteLength":2664,
			"byteOffset":0,
			"target":34962
		},
		{
			"buffer":0,
			"byteLength":2664,
			"byteOffset":2664,
			"target":34962
		},
		{
			"buffer":0,
			"byteLength":1776,
			"byteOffset":5328,
			"target":34962
		},
		{
			"buffer":0,
			"byteLength":732,
			"byteOffset":7104,
			"target":34963
		},
		{
			"buffer":0,
			"byteLength":288,
			"byteOffset":7836,
			"target":34962
		},
		{
			"buffer":0,
			"byteLength":288,
			"byteOffset":8124,
			"target":34962
		},
		{
			"buffer":0,
			"byteLength":192,
			"byteOffset":8412,
			"target":34962
		},
		{
			"buffer":0,
			"byteLength":48,
			"byteOffset":8604,
			"target":34963
		},
		{
			"buffer":0,
			"byteLength":2496,
			"byteOffset":8652,
			"target":34962
		},
		{
			"buffer":0,
			"byteLength":2496,
			"byteOffset":11148,
			"target":34962
		},
		{
			"buffer":0,
			"byteLength":1664,
			"byteOffset":13644,
			"target":34962
		},
		{
			"buffer":0,
			"byteLength":684,
			"byteOffset":15308,
			"target":34963
		},
		{
			"buffer":0,
			"byteLength":33720,
			"byteOffset":15992,
			"target":34962
		},
		{
			"buffer":0,
			"byteLength":33720,
			"byteOffset":49712,
			"target":34962
		},
		{
			"buffer":0,
			"byteLength":22480,
			"byteOffset":83432,
			"target":34962
		},
		{
			"buffer":0,
			"byteLength":9636,
			"byteOffset":105912,
			"target":34963
		},
		{
			"buffer":0,
			"byteLength":8292,
			"byteOffset":115548,
			"target":34962
		},
		{
			"buffer":0,
			"byteLength":8292,
			"byteOffset":123840,
			"target":34962
		},
		{
			"buffer":0,
			"byteLength":5528,
			"byteOffset":132132,
			"target":34962
		},
		{
			"buffer":0,
			"byteLength":2304,
			"byteOffset":137660,
			"target":34963
		},
		{
			"buffer":0,
			"byteLength":38976,
			"byteOffset":139964,
			"target":34962
		},
		{
			"buffer":0,
			"byteLength":38976,
			"byteOffset":178940,
			"target":34962
		},
		{
			"buffer":0,
			"byteLength":25984,
			"byteOffset":217916,
			"target":34962
		},
		{
			"buffer":0,
			"byteLength":8928,
			"byteOffset":243900,
			"target":34963
		},
		{
			"buffer":0,
			"byteLength":1692,
			"byteOffset":252828,
			"target":34962
		},
		{
			"buffer":0,
			"byteLength":1692,
			"byteOffset":254520,
			"target":34962
		},
		{
			"buffer":0,
			"byteLength":1128,
			"byteOffset":256212,
			"target":34962
		},
		{
			"buffer":0,
			"byteLength":528,
			"byteOffset":257340,
			"target":34963
		},
		{
			"buffer":0,
			"byteLength":1776,
			"byteOffset":257868,
			"target":34962
		},
		{
			"buffer":0,
			"byteLength":1776,
			"byteOffset":259644,
			"target":34962
		},
		{
			"buffer":0,
			"byteLength":1184,
			"byteOffset":261420,
			"target":34962
		},
		{
			"buffer":0,
			"byteLength":480,
			"byteOffset":262604,
			"target":34963
		}
	],
	"buffers":[
		{
			"byteLength":263084,
			"uri":"cell_x-3_z-3_render.bin"
		}
	]
}
