{
	"asset":{
		"generator":"Khronos glTF Blender I/O v4.5.51",
		"version":"2.0"
	},
	"scene":0,
	"scenes":[
		{
			"name":"Scene",
			"nodes":[
				0
			]
		}
	],
	"nodes":[
		{
			"mesh":0,
			"name":"cell_x1_z0",
			"rotation":[
				-0.045787520706653595,
				-0.5414655804634094,
				-0.029551489278674126,
				0.8389548659324646
			],
			"scale":[
				3.2097525596618652,
				3.2097525596618652,
				3.2097525596618652
			],
			"translation":[
				51.91838836669922,
				3.93168044090271,
				29.192855834960938
			]
		}
	],
	"materials":[
		{
			"name":"stone_v3",
			"pbrMetallicRoughness":{
				"baseColorFactor":[
					0.20863686501979828,
					0.2462013214826584,
					0.2622506618499756,
					1
				],
				"metallicFactor":0,
				"roughnessFactor":0.9200000166893005
			}
		},
		{
			"name":"stone_v2",
			"pbrMetallicRoughness":{
				"baseColorFactor":[
					0.38132601976394653,
					0.38132601976394653,
					0.3324515223503113,
					1
				],
				"metallicFactor":0,
				"roughnessFactor":0.9200000166893005
			}
		},
		{
			"name":"stone_v1",
			"pbrMetallicRoughness":{
				"baseColorFactor":[
					0.2541520893573761,
					0.28744083642959595,
					0.3049873113632202,
					1
				],
				"metallicFactor":0,
				"roughnessFactor":0.9200000166893005
			}
		},
		{
			"name":"_defaultMat",
			"pbrMetallicRoughness":{
				"baseColorFactor":[
					0.4564110338687897,
					0.4564110338687897,
					0.4125426113605499,
					1
				],
				"metallicFactor":0,
				"roughnessFactor":0.9200000166893005
			}
		},
		{
			"name":"woodBark",
			"pbrMetallicRoughness":{
				"baseColorFactor":[
					0.2015562504529953,
					0.08437620848417282,
					0.02955683507025242,
					1
				],
				"metallicFactor":0,
				"roughnessFactor":0.9200000166893005
			}
		},
		{
			"name":"leafsGreen",
			"pbrMetallicRoughness":{
				"baseColorFactor":[
					0.11443537473678589,
					0.23074005544185638,
					0.06301001459360123,
					1
				],
				"metallicFactor":0,
				"roughnessFactor":0.9200000166893005
			}
		},
		{
			"name":"leafsFall",
			"pbrMetallicRoughness":{
				"baseColorFactor":[
					0.4564110338687897,
					0.18782077729701996,
					0.045186202973127365,
					1
				],
				"metallicFactor":0,
				"roughnessFactor":0.9200000166893005
			}
		},
		{
			"name":"woodBirch",
			"pbrMetallicRoughness":{
				"baseColorFactor":[
					0.7304607629776001,
					0.6583748459815979,
					0.5028864741325378,
					1
				],
				"metallicFactor":0,
				"roughnessFactor":0.9200000166893005
			}
		},
		{
			"name":"grass",
			"pbrMetallicRoughness":{
				"baseColorFactor":[
					0.15592646598815918,
					0.2961382567882538,
					0.0802198201417923,
					1
				],
				"metallicFactor":0,
				"roughnessFactor":0.9200000166893005
			}
		},
		{
			"name":"dirt_v1",
			"pbrMetallicRoughness":{
				"baseColorFactor":[
					0.2581828534603119,
					0.1946178376674652,
					0.1119324266910553,
					1
				],
				"metallicFactor":0,
				"roughnessFactor":0.9200000166893005
			}
		},
		{
			"name":"dirt_v3",
			"pbrMetallicRoughness":{
				"baseColorFactor":[
					0.20863686501979828,
					0.15896083414554596,
					0.09084171056747437,
					1
				],
				"metallicFactor":0,
				"roughnessFactor":0.9200000166893005
			}
		},
		{
			"name":"dirt_v0",
			"pbrMetallicRoughness":{
				"baseColorFactor":[
					0.32314321398735046,
					0.24228112399578094,
					0.1384316086769104,
					1
				],
				"metallicFactor":0,
				"roughnessFactor":0.9200000166893005
			}
		},
		{
			"name":"colorRed",
			"pbrMetallicRoughness":{
				"baseColorFactor":[
					0.34191441535949707,
					0.08437620848417282,
					0.05951123684644699,
					1
				],
				"metallicFactor":0,
				"roughnessFactor":0.9200000166893005
			}
		},
		{
			"name":"dirt_v2",
			"pbrMetallicRoughness":{
				"baseColorFactor":[
					0.38132601976394653,
					0.30054378509521484,
					0.1946178376674652,
					1
				],
				"metallicFactor":0,
				"roughnessFactor":0.9200000166893005
			}
		},
		{
			"name":"hexagons_medieval",
			"pbrMetallicRoughness":{
				"baseColorTexture":{
					"index":0
				},
				"metallicFactor":0,
				"roughnessFactor":0.5
			}
		},
		{
			"name":"wood",
			"pbrMetallicRoughness":{
				"baseColorFactor":[
					0.32314321398735046,
					0.1384316086769104,
					0.039546236395835876,
					1
				],
				"metallicFactor":0,
				"roughnessFactor":0.9200000166893005
			}
		},
		{
			"name":"woodDark",
			"pbrMetallicRoughness":{
				"baseColorFactor":[
					0.07618538290262222,
					0.03310476616024971,
					0.014443843625485897,
					1
				],
				"metallicFactor":0,
				"roughnessFactor":0.9200000166893005
			}
		},
		{
			"doubleSided":true,
			"name":"Color",
			"pbrMetallicRoughness":{
				"baseColorTexture":{
					"index":1
				},
				"metallicFactor":0,
				"roughnessFactor":0.75
			}
		}
	],
	"meshes":[
		{
			"name":"Mesh stone_largeE.027",
			"primitives":[
				{
					"attributes":{
						"POSITION":0,
						"NORMAL":1,
						"TEXCOORD_0":2
					},
					"indices":3,
					"material":0
				},
				{
					"attributes":{
						"POSITION":4,
						"NORMAL":5,
						"TEXCOORD_0":6
					},
					"indices":7,
					"material":1
				},
				{
					"attributes":{
						"POSITION":8,
						"NORMAL":9,
						"TEXCOORD_0":10
					},
					"indices":11,
					"material":2
				},
				{
					"attributes":{
						"POSITION":12,
						"NORMAL":13,
						"TEXCOORD_0":14
					},
					"indices":15,
					"material":3
				},
				{
					"attributes":{
						"POSITION":16,
						"NORMAL":17,
						"TEXCOORD_0":18
					},
					"indices":19,
					"material":4
				},
				{
					"attributes":{
						"POSITION":20,
						"NORMAL":21,
						"TEXCOORD_0":22
					},
					"indices":23,
					"material":5
				},
				{
					"attributes":{
						"POSITION":24,
						"NORMAL":25,
						"TEXCOORD_0":26
					},
					"indices":27,
					"material":6
				},
				{
					"attributes":{
						"POSITION":28,
						"NORMAL":29,
						"TEXCOORD_0":30
					},
					"indices":31,
					"material":7
				},
				{
					"attributes":{
						"POSITION":32,
						"NORMAL":33,
						"TEXCOORD_0":34
					},
					"indices":35,
					"material":8
				},
				{
					"attributes":{
						"POSITION":36,
						"NORMAL":37,
						"TEXCOORD_0":38
					},
					"indices":39,
					"material":9
				},
				{
					"attributes":{
						"POSITION":40,
						"NORMAL":41,
						"TEXCOORD_0":42
					},
					"indices":43,
					"material":10
				},
				{
					"attributes":{
						"POSITION":44,
						"NORMAL":45,
						"TEXCOORD_0":46
					},
					"indices":43,
					"material":11
				},
				{
					"attributes":{
						"POSITION":47,
						"NORMAL":48,
						"TEXCOORD_0":49
					},
					"indices":50,
					"material":12
				},
				{
					"attributes":{
						"POSITION":51,
						"NORMAL":52,
						"TEXCOORD_0":53
					},
					"indices":54,
					"material":13
				},
				{
					"attributes":{
						"POSITION":55,
						"NORMAL":56,
						"TEXCOORD_0":57
					},
					"indices":58,
					"material":14
				},
				{
					"attributes":{
						"POSITION":59,
						"NORMAL":60,
						"TEXCOORD_0":61
					},
					"indices":62,
					"material":15
				},
				{
					"attributes":{
						"POSITION":63,
						"NORMAL":64,
						"TEXCOORD_0":65
					},
					"indices":66,
					"material":16
				},
				{
					"attributes":{
						"POSITION":67,
						"NORMAL":68,
						"TEXCOORD_0":69
					},
					"indices":70,
					"material":17
				}
			]
		}
	],
	"textures":[
		{
			"sampler":0,
			"source":0
		},
		{
			"sampler":0,
			"source":1
		}
	],
	"images":[
		{
			"mimeType":"image/png",
			"name":"hexagons_medieval",
			"uri":"textures/hexagons_medieval.png"
		},
		{
			"mimeType":"image/png",
			"name":"Textures_4",
			"uri":"textures/Textures_4.png"
		}
	],
	"accessors":[
		{
			"bufferView":0,
			"componentType":5126,
			"count":398,
			"max":[
				0.728503942489624,
				0.2922479808330536,
				0.4599355459213257
			],
			"min":[
				-8.964768409729004,
				-0.9463924169540405,
				-2.4351491928100586
			],
			"type":"VEC3"
		},
		{
			"bufferView":1,
			"componentType":5126,
			"count":398,
			"type":"VEC3"
		},
		{
			"bufferView":2,
			"componentType":5126,
			"count":398,
			"type":"VEC2"
		},
		{
			"bufferView":3,
			"componentType":5123,
			"count":666,
			"type":"SCALAR"
		},
		{
			"bufferView":4,
			"componentType":5126,
			"count":354,
			"max":[
				3.5323729515075684,
				0.7735643982887268,
				1.5582928657531738
			],
			"min":[
				0.7560251951217651,
				-0.1614312082529068,
				-1.441166639328003
			],
			"type":"VEC3"
		},
		{
			"bufferView":5,
			"componentType":5126,
			"count":354,
			"type":"VEC3"
		},
		{
			"bufferView":6,
			"componentType":5126,
			"count":354,
			"type":"VEC2"
		},
		{
			"bufferView":7,
			"componentType":5123,
			"count":582,
			"type":"SCALAR"
		},
		{
			"bufferView":8,
			"componentType":5126,
			"count":214,
			"max":[
				4.403301239013672,
				1.516571044921875,
				2.6422386169433594
			],
			"min":[
				2.2480337619781494,
				-0.03732682019472122,
				-1.2706117630004883
			],
			"type":"VEC3"
		},
		{
			"bufferView":9,
			"componentType":5126,
			"count":214,
			"type":"VEC3"
		},
		{
			"bufferView":10,
			"componentType":5126,
			"count":214,
			"type":"VEC2"
		},
		{
			"bufferView":11,
			"componentType":5123,
			"count":342,
			"type":"SCALAR"
		},
		{
			"bufferView":12,
			"componentType":5126,
			"count":566,
			"max":[
				4.101492881774902,
				0.7743297815322876,
				2.6422386169433594
			],
			"min":[
				-8.964768409729004,
				-0.8181546926498413,
				-4.8547282218933105
			],
			"type":"VEC3"
		},
		{
			"bufferView":13,
			"componentType":5126,
			"count":566,
			"type":"VEC3"
		},
		{
			"bufferView":14,
			"componentType":5126,
			"count":566,
			"type":"VEC2"
		},
		{
			"bufferView":15,
			"componentType":5123,
			"count":612,
			"type":"SCALAR"
		},
		{
			"bufferView":16,
			"componentType":5126,
			"count":289,
			"max":[
				3.566206455230713,
				0.8444082736968994,
				-1.1095077991485596
			],
			"min":[
				2.6363158226013184,
				-0.7021785378456116,
				-4.022887706756592
			],
			"type":"VEC3"
		},
		{
			"bufferView":17,
			"componentType":5126,
			"count":289,
			"type":"VEC3"
		},
		{
			"bufferView":18,
			"componentType":5126,
			"count":289,
			"type":"VEC2"
		},
		{
			"bufferView":19,
			"componentType":5123,
			"count":474,
			"type":"SCALAR"
		},
		{
			"bufferView":20,
			"componentType":5126,
			"count":884,
			"max":[
				3.873774528503418,
				2.8369503021240234,
				3.7739219665527344
			],
			"min":[
				-6.283083438873291,
				-0.8581335544586182,
				-8.325145721435547
			],
			"type":"VEC3"
		},
		{
			"bufferView":21,
			"componentType":5126,
			"count":884,
			"type":"VEC3"
		},
		{
			"bufferView":22,
			"componentType":5126,
			"count":884,
			"type":"VEC2"
		},
		{
			"bufferView":23,
			"componentType":5123,
			"count":1746,
			"type":"SCALAR"
		},
		{
			"bufferView":24,
			"componentType":5126,
			"count":119,
			"max":[
				5.44434928894043,
				0.9662073850631714,
				-3.907437562942505
			],
			"min":[
				4.678116798400879,
				0.18602615594863892,
				-4.598087310791016
			],
			"type":"VEC3"
		},
		{
			"bufferView":25,
			"componentType":5126,
			"count":119,
			"type":"VEC3"
		},
		{
			"bufferView":26,
			"componentType":5126,
			"count":119,
			"type":"VEC2"
		},
		{
			"bufferView":27,
			"componentType":5123,
			"count":192,
			"type":"SCALAR"
		},
		{
			"bufferView":28,
			"componentType":5126,
			"count":264,
			"max":[
				5.250607967376709,
				0.20495229959487915,
				-4.116377830505371
			],
			"min":[
				4.863193988800049,
				-0.3390704095363617,
				-4.5132222175598145
			],
			"type":"VEC3"
		},
		{
			"bufferView":29,
			"componentType":5126,
			"count":264,
			"type":"VEC3"
		},
		{
			"bufferView":30,
			"componentType":5126,
			"count":264,
			"type":"VEC2"
		},
		{
			"bufferView":31,
			"componentType":5123,
			"count":396,
			"type":"SCALAR"
		},
		{
			"bufferView":32,
			"componentType":5126,
			"count":27059,
			"max":[
				5.955572128295898,
				2.8908584117889404,
				4.6871867179870605
			],
			"min":[
				-8.218093872070312,
				-1.009703516960144,
				-11.26059341430664
			],
			"type":"VEC3"
		},
		{
			"bufferView":33,
			"componentType":5126,
			"count":27059,
			"type":"VEC3"
		},
		{
			"bufferView":34,
			"componentType":5126,
			"count":27059,
			"type":"VEC2"
		},
		{
			"bufferView":35,
			"componentType":5123,
			"count":35655,
			"type":"SCALAR"
		},
		{
			"bufferView":36,
			"componentType":5126,
			"count":25,
			"max":[
				-1.988444209098816,
				0.7188091278076172,
				0.42752301692962646
			],
			"min":[
				-2.389982223510742,
				0.47950947284698486,
				0.01157967746257782
			],
			"type":"VEC3"
		},
		{
			"bufferView":37,
			"componentType":5126,
			"count":25,
			"type":"VEC3"
		},
		{
			"bufferView":38,
			"componentType":5126,
			"count":25,
			"type":"VEC2"
		},
		{
			"bufferView":39,
			"componentType":5123,
			"count":39,
			"type":"SCALAR"
		},
		{
			"bufferView":40,
			"componentType":5126,
			"count":45,
			"max":[
				2.0593390464782715,
				-0.007757812738418579,
				-1.0927181243896484
			],
			"min":[
				1.6309705972671509,
				-0.2720189094543457,
				-1.4642601013183594
			],
			"type":"VEC3"
		},
		{
			"bufferView":41,
			"componentType":5126,
			"count":45,
			"type":"VEC3"
		},
		{
			"bufferView":42,
			"componentType":5126,
			"count":45,
			"type":"VEC2"
		},
		{
			"bufferView":43,
			"componentType":5123,
			"count":75,
			"type":"SCALAR"
		},
		{
			"bufferView":44,
			"componentType":5126,
			"count":45,
			"max":[
				0.5889054536819458,
				2.8736541271209717,
				4.066773891448975
			],
			"min":[
				-0.0665951669216156,
				2.4664483070373535,
				3.4783501625061035
			],
			"type":"VEC3"
		},
		{
			"bufferView":45,
			"componentType":5126,
			"count":45,
			"type":"VEC3"
		},
		{
			"bufferView":46,
			"componentType":5126,
			"count":45,
			"type":"VEC2"
		},
		{
			"bufferView":47,
			"componentType":5126,
			"count":200,
			"max":[
				4.101492881774902,
				-0.3685835599899292,
				-3.996893882751465
			],
			"min":[
				-6.937088489532471,
				-0.6841778755187988,
				-4.8547282218933105
			],
			"type":"VEC3"
		},
		{
			"bufferView":48,
			"componentType":5126,
			"count":200,
			"type":"VEC3"
		},
		{
			"bufferView":49,
			"componentType":5126,
			"count":200,
			"type":"VEC2"
		},
		{
			"bufferView":50,
			"componentType":5123,
			"count":288,
			"type":"SCALAR"
		},
		{
			"bufferView":51,
			"componentType":5126,
			"count":180,
			"max":[
				2.9308764934539795,
				0.34056606888771057,
				0.06897318363189697
			],
			"min":[
				-0.7653073668479919,
				-0.04157060757279396,
				-0.8211830258369446
			],
			"type":"VEC3"
		},
		{
			"bufferView":52,
			"componentType":5126,
			"count":180,
			"type":"VEC3"
		},
		{
			"bufferView":53,
			"componentType":5126,
			"count":180,
			"type":"VEC2"
		},
		{
			"bufferView":54,
			"componentType":5123,
			"count":288,
			"type":"SCALAR"
		},
		{
			"bufferView":55,
			"componentType":5126,
			"count":4392,
			"max":[
				3.8378171920776367,
				1.511285424232483,
				-4.636646747589111
			],
			"min":[
				-7.106894493103027,
				-0.9266015887260437,
				-9.950974464416504
			],
			"type":"VEC3"
		},
		{
			"bufferView":56,
			"componentType":5126,
			"count":4392,
			"type":"VEC3"
		},
		{
			"bufferView":57,
			"componentType":5126,
			"count":4392,
			"type":"VEC2"
		},
		{
			"bufferView":58,
			"componentType":5123,
			"count":7569,
			"type":"SCALAR"
		},
		{
			"bufferView":59,
			"componentType":5126,
			"count":611,
			"max":[
				0.20542484521865845,
				1.7385841608047485,
				-0.7848457098007202
			],
			"min":[
				-9.638615608215332,
				-0.6575973033905029,
				-9.197354316711426
			],
			"type":"VEC3"
		},
		{
			"bufferView":60,
			"componentType":5126,
			"count":611,
			"type":"VEC3"
		},
		{
			"bufferView":61,
			"componentType":5126,
			"count":611,
			"type":"VEC2"
		},
		{
			"bufferView":62,
			"componentType":5123,
			"count":1080,
			"type":"SCALAR"
		},
		{
			"bufferView":63,
			"componentType":5126,
			"count":16,
			"max":[
				0.10623419284820557,
				-0.004726052284240723,
				-8.519567489624023
			],
			"min":[
				-0.959370493888855,
				-0.36752626299858093,
				-9.117880821228027
			],
			"type":"VEC3"
		},
		{
			"bufferView":64,
			"componentType":5126,
			"count":16,
			"type":"VEC3"
		},
		{
			"bufferView":65,
			"componentType":5126,
			"count":16,
			"type":"VEC2"
		},
		{
			"bufferView":66,
			"componentType":5123,
			"count":24,
			"type":"SCALAR"
		},
		{
			"bufferView":67,
			"componentType":5126,
			"count":3811,
			"max":[
				4.6241230964660645,
				0.6270875334739685,
				-0.9691550731658936
			],
			"min":[
				-8.8900728225708,
				-0.9048110246658325,
				-5.1559367179870605
			],
			"type":"VEC3"
		},
		{
			"bufferView":68,
			"componentType":5126,
			"count":3811,
			"type":"VEC3"
		},
		{
			"bufferView":69,
			"componentType":5126,
			"count":3811,
			"type":"VEC2"
		},
		{
			"bufferView":70,
			"componentType":5123,
			"count":15300,
			"type":"SCALAR"
		}
	],
	"bufferViews":[
		{
			"buffer":0,
			"byteLength":4776,
			"byteOffset":0,
			"target":34962
		},
		{
			"buffer":0,
			"byteLength":4776,
			"byteOffset":4776,
			"target":34962
		},
		{
			"buffer":0,
			"byteLength":3184,
			"byteOffset":9552,
			"target":34962
		},
		{
			"buffer":0,
			"byteLength":1332,
			"byteOffset":12736,
			"target":34963
		},
		{
			"buffer":0,
			"byteLength":4248,
			"byteOffset":14068,
			"target":34962
		},
		{
			"buffer":0,
			"byteLength":4248,
			"byteOffset":18316,
			"target":34962
		},
		{
			"buffer":0,
			"byteLength":2832,
			"byteOffset":22564,
			"target":34962
		},
		{
			"buffer":0,
			"byteLength":1164,
			"byteOffset":25396,
			"target":34963
		},
		{
			"buffer":0,
			"byteLength":2568,
			"byteOffset":26560,
			"target":34962
		},
		{
			"buffer":0,
			"byteLength":2568,
			"byteOffset":29128,
			"target":34962
		},
		{
			"buffer":0,
			"byteLength":1712,
			"byteOffset":31696,
			"target":34962
		},
		{
			"buffer":0,
			"byteLength":684,
			"byteOffset":33408,
			"target":34963
		},
		{
			"buffer":0,
			"byteLength":6792,
			"byteOffset":34092,
			"target":34962
		},
		{
			"buffer":0,
			"byteLength":6792,
			"byteOffset":40884,
			"target":34962
		},
		{
			"buffer":0,
			"byteLength":4528,
			"byteOffset":47676,
			"target":34962
		},
		{
			"buffer":0,
			"byteLength":1224,
			"byteOffset":52204,
			"target":34963
		},
		{
			"buffer":0,
			"byteLength":3468,
			"byteOffset":53428,
			"target":34962
		},
		{
			"buffer":0,
			"byteLength":3468,
			"byteOffset":56896,
			"target":34962
		},
		{
			"buffer":0,
			"byteLength":2312,
			"byteOffset":60364,
			"target":34962
		},
		{
			"buffer":0,
			"byteLength":948,
			"byteOffset":62676,
			"target":34963
		},
		{
			"buffer":0,
			"byteLength":10608,
			"byteOffset":63624,
			"target":34962
		},
		{
			"buffer":0,
			"byteLength":10608,
			"byteOffset":74232,
			"target":34962
		},
		{
			"buffer":0,
			"byteLength":7072,
			"byteOffset":84840,
			"target":34962
		},
		{
			"buffer":0,
			"byteLength":3492,
			"byteOffset":91912,
			"target":34963
		},
		{
			"buffer":0,
			"byteLength":1428,
			"byteOffset":95404,
			"target":34962
		},
		{
			"buffer":0,
			"byteLength":1428,
			"byteOffset":96832,
			"target":34962
		},
		{
			"buffer":0,
			"byteLength":952,
			"byteOffset":98260,
			"target":34962
		},
		{
			"buffer":0,
			"byteLength":384,
			"byteOffset":99212,
			"target":34963
		},
		{
			"buffer":0,
			"byteLength":3168,
			"byteOffset":99596,
			"target":34962
		},
		{
			"buffer":0,
			"byteLength":3168,
			"byteOffset":102764,
			"target":34962
		},
		{
			"buffer":0,
			"byteLength":2112,
			"byteOffset":105932,
			"target":34962
		},
		{
			"buffer":0,
			"byteLength":792,
			"byteOffset":108044,
			"target":34963
		},
		{
			"buffer":0,
			"byteLength":324708,
			"byteOffset":108836,
			"target":34962
		},
		{
			"buffer":0,
			"byteLength":324708,
			"byteOffset":433544,
			"target":34962
		},
		{
			"buffer":0,
			"byteLength":216472,
			"byteOffset":758252,
			"target":34962
		},
		{
			"buffer":0,
			"byteLength":71310,
			"byteOffset":974724,
			"target":34963
		},
		{
			"buffer":0,
			"byteLength":300,
			"byteOffset":1046036,
			"target":34962
		},
		{
			"buffer":0,
			"byteLength":300,
			"byteOffset":1046336,
			"target":34962
		},
		{
			"buffer":0,
			"byteLength":200,
			"byteOffset":1046636,
			"target":34962
		},
		{
			"buffer":0,
			"byteLength":78,
			"byteOffset":1046836,
			"target":34963
		},
		{
			"buffer":0,
			"byteLength":540,
			"byteOffset":1046916,
			"target":34962
		},
		{
			"buffer":0,
			"byteLength":540,
			"byteOffset":1047456,
			"target":34962
		},
		{
			"buffer":0,
			"byteLength":360,
			"byteOffset":1047996,
			"target":34962
		},
		{
			"buffer":0,
			"byteLength":150,
			"byteOffset":1048356,
			"target":34963
		},
		{
			"buffer":0,
			"byteLength":540,
			"byteOffset":1048508,
			"target":34962
		},
		{
			"buffer":0,
			"byteLength":540,
			"byteOffset":1049048,
			"target":34962
		},
		{
			"buffer":0,
			"byteLength":360,
			"byteOffset":1049588,
			"target":34962
		},
		{
			"buffer":0,
			"byteLength":2400,
			"byteOffset":1049948,
			"target":34962
		},
		{
			"buffer":0,
			"byteLength":2400,
			"byteOffset":1052348,
			"target":34962
		},
		{
			"buffer":0,
			"byteLength":1600,
			"byteOffset":1054748,
			"target":34962
		},
		{
			"buffer":0,
			"byteLength":576,
			"byteOffset":1056348,
			"target":34963
		},
		{
			"buffer":0,
			"byteLength":2160,
			"byteOffset":1056924,
			"target":34962
		},
		{
			"buffer":0,
			"byteLength":2160,
			"byteOffset":1059084,
			"target":34962
		},
		{
			"buffer":0,
			"byteLength":1440,
			"byteOffset":1061244,
			"target":34962
		},
		{
			"buffer":0,
			"byteLength":576,
			"byteOffset":1062684,
			"target":34963
		},
		{
			"buffer":0,
			"byteLength":52704,
			"byteOffset":1063260,
			"target":34962
		},
		{
			"buffer":0,
			"byteLength":52704,
			"byteOffset":1115964,
			"target":34962
		},
		{
			"buffer":0,
			"byteLength":35136,
			"byteOffset":1168668,
			"target":34962
		},
		{
			"buffer":0,
			"byteLength":15138,
			"byteOffset":1203804,
			"target":34963
		},
		{
			"buffer":0,
			"byteLength":7332,
			"byteOffset":1218944,
			"target":34962
		},
		{
			"buffer":0,
			"byteLength":7332,
			"byteOffset":1226276,
			"target":34962
		},
		{
			"buffer":0,
			"byteLength":4888,
			"byteOffset":1233608,
			"target":34962
		},
		{
			"buffer":0,
			"byteLength":2160,
			"byteOffset":1238496,
			"target":34963
		},
		{
			"buffer":0,
			"byteLength":192,
			"byteOffset":1240656,
			"target":34962
		},
		{
			"buffer":0,
			"byteLength":192,
			"byteOffset":1240848,
			"target":34962
		},
		{
			"buffer":0,
			"byteLength":128,
			"byteOffset":1241040,
			"target":34962
		},
		{
			"buffer":0,
			"byteLength":48,
			"byteOffset":1241168,
			"target":34963
		},
		{
			"buffer":0,
			"byteLength":45732,
			"byteOffset":1241216,
			"target":34962
		},
		{
			"buffer":0,
			"byteLength":45732,
			"byteOffset":1286948,
			"target":34962
		},
		{
			"buffer":0,
			"byteLength":30488,
			"byteOffset":1332680,
			"target":34962
		},
		{
			"buffer":0,
			"byteLength":30600,
			"byteOffset":1363168,
			"target":34963
		}
	],
	"samplers":[
		{
			"magFilter":9729,
			"minFilter":9987
		}
	],
	"buffers":[
		{
			"byteLength":1393768,
			"uri":"cell_x1_z0_render.bin"
		}
	]
}
