{
	"asset":{
		"generator":"Khronos glTF Blender I/O v4.5.51",
		"version":"2.0"
	},
	"scene":0,
	"scenes":[
		{
			"name":"Scene",
			"nodes":[
				0
			]
		}
	],
	"nodes":[
		{
			"mesh":0,
			"name":"cell_x0_z1",
			"rotation":[
				-0.005065578036010265,
				-0.9936000108718872,
				-0.049676064401865005,
				0.10131959617137909
			],
			"scale":[
				3.9078245162963867,
				3.9078242778778076,
				3.9078245162963867
			],
			"translation":[
				4.362401962280273,
				4.881863594055176,
				65.97695922851562
			]
		}
	],
	"materials":[
		{
			"name":"stone_v0",
			"pbrMetallicRoughness":{
				"baseColorFactor":[
					0.32314321398735046,
					0.35153260827064514,
					0.3613067865371704,
					1
				],
				"metallicFactor":0,
				"roughnessFactor":0.9200000166893005
			}
		},
		{
			"name":"stone_v3",
			"pbrMetallicRoughness":{
				"baseColorFactor":[
					0.20863686501979828,
					0.2462013214826584,
					0.2622506618499756,
					1
				],
				"metallicFactor":0,
				"roughnessFactor":0.9200000166893005
			}
		},
		{
			"name":"_defaultMat",
			"pbrMetallicRoughness":{
				"baseColorFactor":[
					0.4564110338687897,
					0.4564110338687897,
					0.4125426113605499,
					1
				],
				"metallicFactor":0,
				"roughnessFactor":0.9200000166893005
			}
		},
		{
			"name":"stone_v1",
			"pbrMetallicRoughness":{
				"baseColorFactor":[
					0.2541520893573761,
					0.28744083642959595,
					0.3049873113632202,
					1
				],
				"metallicFactor":0,
				"roughnessFactor":0.9200000166893005
			}
		},
		{
			"name":"stone_v2",
			"pbrMetallicRoughness":{
				"baseColorFactor":[
					0.38132601976394653,
					0.38132601976394653,
					0.3324515223503113,
					1
				],
				"metallicFactor":0,
				"roughnessFactor":0.9200000166893005
			}
		},
		{
			"name":"dirt_v1",
			"pbrMetallicRoughness":{
				"baseColorFactor":[
					0.2581828534603119,
					0.1946178376674652,
					0.1119324266910553,
					1
				],
				"metallicFactor":0,
				"roughnessFactor":0.9200000166893005
			}
		},
		{
			"name":"grass",
			"pbrMetallicRoughness":{
				"baseColorFactor":[
					0.15592646598815918,
					0.2961382567882538,
					0.0802198201417923,
					1
				],
				"metallicFactor":0,
				"roughnessFactor":0.9200000166893005
			}
		},
		{
			"name":"dirt_v2",
			"pbrMetallicRoughness":{
				"baseColorFactor":[
					0.38132601976394653,
					0.30054378509521484,
					0.1946178376674652,
					1
				],
				"metallicFactor":0,
				"roughnessFactor":0.9200000166893005
			}
		},
		{
			"name":"dirt_v0",
			"pbrMetallicRoughness":{
				"baseColorFactor":[
					0.32314321398735046,
					0.24228112399578094,
					0.1384316086769104,
					1
				],
				"metallicFactor":0,
				"roughnessFactor":0.9200000166893005
			}
		},
		{
			"name":"woodBarkDark",
			"pbrMetallicRoughness":{
				"baseColorFactor":[
					0.11443537473678589,
					0.04666508734226227,
					0.016807375475764275,
					1
				],
				"metallicFactor":0,
				"roughnessFactor":0.9200000166893005
			}
		},
		{
			"name":"leafsDark",
			"pbrMetallicRoughness":{
				"baseColorFactor":[
					0.04817182570695877,
					0.11443537473678589,
					0.03310476616024971,
					1
				],
				"metallicFactor":0,
				"roughnessFactor":0.9200000166893005
			}
		},
		{
			"name":"leafsGreen",
			"pbrMetallicRoughness":{
				"baseColorFactor":[
					0.11443537473678589,
					0.23074005544185638,
					0.06301001459360123,
					1
				],
				"metallicFactor":0,
				"roughnessFactor":0.9200000166893005
			}
		},
		{
			"name":"woodBark",
			"pbrMetallicRoughness":{
				"baseColorFactor":[
					0.2015562504529953,
					0.08437620848417282,
					0.02955683507025242,
					1
				],
				"metallicFactor":0,
				"roughnessFactor":0.9200000166893005
			}
		},
		{
			"name":"leafsFall",
			"pbrMetallicRoughness":{
				"baseColorFactor":[
					0.4564110338687897,
					0.18782077729701996,
					0.045186202973127365,
					1
				],
				"metallicFactor":0,
				"roughnessFactor":0.9200000166893005
			}
		},
		{
			"name":"woodBirch",
			"pbrMetallicRoughness":{
				"baseColorFactor":[
					0.7304607629776001,
					0.6583748459815979,
					0.5028864741325378,
					1
				],
				"metallicFactor":0,
				"roughnessFactor":0.9200000166893005
			}
		},
		{
			"name":"colorRed",
			"pbrMetallicRoughness":{
				"baseColorFactor":[
					0.34191441535949707,
					0.08437620848417282,
					0.05951123684644699,
					1
				],
				"metallicFactor":0,
				"roughnessFactor":0.9200000166893005
			}
		},
		{
			"name":"colorTan",
			"pbrMetallicRoughness":{
				"baseColorFactor":[
					0.5271151065826416,
					0.3762621283531189,
					0.20863686501979828,
					1
				],
				"metallicFactor":0,
				"roughnessFactor":0.9200000166893005
			}
		},
		{
			"name":"colorYellow",
			"pbrMetallicRoughness":{
				"baseColorFactor":[
					0.5840784311294556,
					0.3613067865371704,
					0.07618538290262222,
					1
				],
				"metallicFactor":0,
				"roughnessFactor":0.9200000166893005
			}
		},
		{
			"name":"woodInner",
			"pbrMetallicRoughness":{
				"baseColorFactor":[
					0.577580451965332,
					0.423267662525177,
					0.23839756846427917,
					1
				],
				"metallicFactor":0,
				"roughnessFactor":0.9200000166893005
			}
		},
		{
			"name":"stoneDark_v2",
			"pbrMetallicRoughness":{
				"baseColorFactor":[
					0.18782077729701996,
					0.2015562504529953,
					0.17464740574359894,
					1
				],
				"metallicFactor":0,
				"roughnessFactor":0.9200000166893005
			}
		},
		{
			"name":"stoneDark_v3",
			"pbrMetallicRoughness":{
				"baseColorFactor":[
					0.10224173218011856,
					0.11953842639923096,
					0.13013647496700287,
					1
				],
				"metallicFactor":0,
				"roughnessFactor":0.9200000166893005
			}
		}
	],
	"meshes":[
		{
			"name":"Mesh stone_largeE.022",
			"primitives":[
				{
					"attributes":{
						"POSITION":0,
						"NORMAL":1,
						"TEXCOORD_0":2,
						"COLOR_0":3
					},
					"indices":4,
					"material":0
				},
				{
					"attributes":{
						"POSITION":5,
						"NORMAL":6,
						"TEXCOORD_0":7,
						"COLOR_0":8
					},
					"indices":9,
					"material":1
				},
				{
					"attributes":{
						"POSITION":10,
						"NORMAL":11,
						"TEXCOORD_0":12,
						"COLOR_0":13
					},
					"indices":14,
					"material":2
				},
				{
					"attributes":{
						"POSITION":15,
						"NORMAL":16,
						"TEXCOORD_0":17,
						"COLOR_0":18
					},
					"indices":19,
					"material":3
				},
				{
					"attributes":{
						"POSITION":20,
						"NORMAL":21,
						"TEXCOORD_0":22,
						"COLOR_0":23
					},
					"indices":24,
					"material":4
				},
				{
					"attributes":{
						"POSITION":25,
						"NORMAL":26,
						"TEXCOORD_0":27,
						"COLOR_0":28
					},
					"indices":29,
					"material":5
				},
				{
					"attributes":{
						"POSITION":30,
						"NORMAL":31,
						"TEXCOORD_0":32,
						"COLOR_0":33
					},
					"indices":34,
					"material":6
				},
				{
					"attributes":{
						"POSITION":35,
						"NORMAL":36,
						"TEXCOORD_0":37,
						"COLOR_0":38
					},
					"indices":39,
					"material":7
				},
				{
					"attributes":{
						"POSITION":40,
						"NORMAL":41,
						"TEXCOORD_0":42,
						"COLOR_0":43
					},
					"indices":44,
					"material":8
				},
				{
					"attributes":{
						"POSITION":45,
						"NORMAL":46,
						"TEXCOORD_0":47,
						"COLOR_0":48
					},
					"indices":49,
					"material":9
				},
				{
					"attributes":{
						"POSITION":50,
						"NORMAL":51,
						"TEXCOORD_0":52,
						"COLOR_0":53
					},
					"indices":54,
					"material":10
				},
				{
					"attributes":{
						"POSITION":55,
						"NORMAL":56,
						"TEXCOORD_0":57,
						"COLOR_0":58
					},
					"indices":59,
					"material":11
				},
				{
					"attributes":{
						"POSITION":60,
						"NORMAL":61,
						"TEXCOORD_0":62,
						"COLOR_0":63
					},
					"indices":64,
					"material":12
				},
				{
					"attributes":{
						"POSITION":65,
						"NORMAL":66,
						"TEXCOORD_0":67,
						"COLOR_0":68
					},
					"indices":69,
					"material":13
				},
				{
					"attributes":{
						"POSITION":70,
						"NORMAL":71,
						"TEXCOORD_0":72,
						"COLOR_0":73
					},
					"indices":74,
					"material":14
				},
				{
					"attributes":{
						"POSITION":75,
						"NORMAL":76,
						"TEXCOORD_0":77,
						"COLOR_0":78
					},
					"indices":79,
					"material":15
				},
				{
					"attributes":{
						"POSITION":80,
						"NORMAL":81,
						"TEXCOORD_0":82,
						"COLOR_0":83
					},
					"indices":84,
					"material":16
				},
				{
					"attributes":{
						"POSITION":85,
						"NORMAL":86,
						"TEXCOORD_0":87,
						"COLOR_0":88
					},
					"indices":89,
					"material":17
				},
				{
					"attributes":{
						"POSITION":90,
						"NORMAL":91,
						"TEXCOORD_0":92,
						"COLOR_0":93
					},
					"indices":94,
					"material":18
				},
				{
					"attributes":{
						"POSITION":95,
						"NORMAL":96,
						"TEXCOORD_0":97,
						"COLOR_0":98
					},
					"indices":99,
					"material":19
				},
				{
					"attributes":{
						"POSITION":100,
						"NORMAL":101,
						"TEXCOORD_0":102,
						"COLOR_0":103
					},
					"indices":104,
					"material":20
				}
			]
		}
	],
	"accessors":[
		{
			"bufferView":0,
			"componentType":5126,
			"count":435,
			"max":[
				0.5477293729782104,
				2.697272777557373,
				5.5108819007873535
			],
			"min":[
				-7.561842918395996,
				-0.37581363320350647,
				-3.71171236038208
			],
			"type":"VEC3"
		},
		{
			"bufferView":1,
			"componentType":5126,
			"count":435,
			"type":"VEC3"
		},
		{
			"bufferView":2,
			"componentType":5126,
			"count":435,
			"type":"VEC2"
		},
		{
			"bufferView":3,
			"componentType":5123,
			"count":435,
			"normalized":true,
			"type":"VEC4"
		},
		{
			"bufferView":4,
			"componentType":5123,
			"count":726,
			"type":"SCALAR"
		},
		{
			"bufferView":5,
			"componentType":5126,
			"count":1189,
			"max":[
				0.7552140355110168,
				3.1138112545013428,
				5.64826774597168
			],
			"min":[
				-7.742075443267822,
				-0.5351487994194031,
				-4.348209381103516
			],
			"type":"VEC3"
		},
		{
			"bufferView":6,
			"componentType":5126,
			"count":1189,
			"type":"VEC3"
		},
		{
			"bufferView":7,
			"componentType":5126,
			"count":1189,
			"type":"VEC2"
		},
		{
			"bufferView":8,
			"componentType":5123,
			"count":1189,
			"normalized":true,
			"type":"VEC4"
		},
		{
			"bufferView":9,
			"componentType":5123,
			"count":1974,
			"type":"SCALAR"
		},
		{
			"bufferView":10,
			"componentType":5126,
			"count":1114,
			"max":[
				0.623866856098175,
				2.8602919578552246,
				6.756314754486084
			],
			"min":[
				-8.31411361694336,
				-0.8282771706581116,
				-3.1318724155426025
			],
			"type":"VEC3"
		},
		{
			"bufferView":11,
			"componentType":5126,
			"count":1114,
			"type":"VEC3"
		},
		{
			"bufferView":12,
			"componentType":5126,
			"count":1114,
			"type":"VEC2"
		},
		{
			"bufferView":13,
			"componentType":5123,
			"count":1114,
			"normalized":true,
			"type":"VEC4"
		},
		{
			"bufferView":14,
			"componentType":5123,
			"count":1188,
			"type":"SCALAR"
		},
		{
			"bufferView":15,
			"componentType":5126,
			"count":1472,
			"max":[
				0.623866856098175,
				3.0017030239105225,
				7.296885013580322
			],
			"min":[
				-9.592426300048828,
				-0.5400444269180298,
				-2.7802555561065674
			],
			"type":"VEC3"
		},
		{
			"bufferView":16,
			"componentType":5126,
			"count":1472,
			"type":"VEC3"
		},
		{
			"bufferView":17,
			"componentType":5126,
			"count":1472,
			"type":"VEC2"
		},
		{
			"bufferView":18,
			"componentType":5123,
			"count":1472,
			"normalized":true,
			"type":"VEC4"
		},
		{
			"bufferView":19,
			"componentType":5123,
			"count":2442,
			"type":"SCALAR"
		},
		{
			"bufferView":20,
			"componentType":5126,
			"count":766,
			"max":[
				1.6721830368041992,
				3.2946624755859375,
				6.848453521728516
			],
			"min":[
				-8.31411361694336,
				-0.5810398459434509,
				-3.0482776165008545
			],
			"type":"VEC3"
		},
		{
			"bufferView":21,
			"componentType":5126,
			"count":766,
			"type":"VEC3"
		},
		{
			"bufferView":22,
			"componentType":5126,
			"count":766,
			"type":"VEC2"
		},
		{
			"bufferView":23,
			"componentType":5123,
			"count":766,
			"normalized":true,
			"type":"VEC4"
		},
		{
			"bufferView":24,
			"componentType":5123,
			"count":1263,
			"type":"SCALAR"
		},
		{
			"bufferView":25,
			"componentType":5126,
			"count":135,
			"max":[
				-1.361776351928711,
				-0.19324687123298645,
				-0.08790817856788635
			],
			"min":[
				-2.2583911418914795,
				-0.48884227871894836,
				-0.6754673719406128
			],
			"type":"VEC3"
		},
		{
			"bufferView":26,
			"componentType":5126,
			"count":135,
			"type":"VEC3"
		},
		{
			"bufferView":27,
			"componentType":5126,
			"count":135,
			"type":"VEC2"
		},
		{
			"bufferView":28,
			"componentType":5123,
			"count":135,
			"normalized":true,
			"type":"VEC4"
		},
		{
			"bufferView":29,
			"componentType":5123,
			"count":213,
			"type":"SCALAR"
		},
		{
			"bufferView":30,
			"componentType":5126,
			"count":34844,
			"max":[
				1.5561732053756714,
				3.3750789165496826,
				6.626263618469238
			],
			"min":[
				-10.091251373291016,
				-0.7368003726005554,
				-4.775663375854492
			],
			"type":"VEC3"
		},
		{
			"bufferView":31,
			"componentType":5126,
			"count":34844,
			"type":"VEC3"
		},
		{
			"bufferView":32,
			"componentType":5126,
			"count":34844,
			"type":"VEC2"
		},
		{
			"bufferView":33,
			"componentType":5123,
			"count":34844,
			"normalized":true,
			"type":"VEC4"
		},
		{
			"bufferView":34,
			"componentType":5123,
			"count":45891,
			"type":"SCALAR"
		},
		{
			"bufferView":35,
			"componentType":5126,
			"count":193,
			"max":[
				-0.4010976254940033,
				3.3750789165496826,
				3.835847854614258
			],
			"min":[
				-7.579897403717041,
				1.109490156173706,
				-0.6431370377540588
			],
			"type":"VEC3"
		},
		{
			"bufferView":36,
			"componentType":5126,
			"count":193,
			"type":"VEC3"
		},
		{
			"bufferView":37,
			"componentType":5126,
			"count":193,
			"type":"VEC2"
		},
		{
			"bufferView":38,
			"componentType":5123,
			"count":193,
			"normalized":true,
			"type":"VEC4"
		},
		{
			"bufferView":39,
			"componentType":5123,
			"count":294,
			"type":"SCALAR"
		},
		{
			"bufferView":40,
			"componentType":5126,
			"count":191,
			"max":[
				-1.8640363216400146,
				0.133655846118927,
				5.912576675415039
			],
			"min":[
				-4.8412017822265625,
				-0.8282771706581116,
				-1.166569471359253
			],
			"type":"VEC3"
		},
		{
			"bufferView":41,
			"componentType":5126,
			"count":191,
			"type":"VEC3"
		},
		{
			"bufferView":42,
			"componentType":5126,
			"count":191,
			"type":"VEC2"
		},
		{
			"bufferView":43,
			"componentType":5123,
			"count":191,
			"normalized":true,
			"type":"VEC4"
		},
		{
			"bufferView":44,
			"componentType":5123,
			"count":294,
			"type":"SCALAR"
		},
		{
			"bufferView":45,
			"componentType":5126,
			"count":3850,
			"max":[
				1.1118383407592773,
				3.809514284133911,
				6.277195453643799
			],
			"min":[
				-9.841590881347656,
				-0.45152369141578674,
				-4.516195774078369
			],
			"type":"VEC3"
		},
		{
			"bufferView":46,
			"componentType":5126,
			"count":3850,
			"type":"VEC3"
		},
		{
			"bufferView":47,
			"componentType":5126,
			"count":3850,
			"type":"VEC2"
		},
		{
			"bufferView":48,
			"componentType":5123,
			"count":3850,
			"normalized":true,
			"type":"VEC4"
		},
		{
			"bufferView":49,
			"componentType":5123,
			"count":6096,
			"type":"SCALAR"
		},
		{
			"bufferView":50,
			"componentType":5126,
			"count":11971,
			"max":[
				1.2995734214782715,
				4.953726291656494,
				6.457582473754883
			],
			"min":[
				-10.03394603729248,
				-0.26291918754577637,
				-4.637569904327393
			],
			"type":"VEC3"
		},
		{
			"bufferView":51,
			"componentType":5126,
			"count":11971,
			"type":"VEC3"
		},
		{
			"bufferView":52,
			"componentType":5126,
			"count":11971,
			"type":"VEC2"
		},
		{
			"bufferView":53,
			"componentType":5123,
			"count":11971,
			"normalized":true,
			"type":"VEC4"
		},
		{
			"bufferView":54,
			"componentType":5123,
			"count":20262,
			"type":"SCALAR"
		},
		{
			"bufferView":55,
			"componentType":5126,
			"count":3226,
			"max":[
				1.5368574857711792,
				3.228851079940796,
				6.8525872230529785
			],
			"min":[
				-9.326519012451172,
				-0.5373757481575012,
				-4.660337448120117
			],
			"type":"VEC3"
		},
		{
			"bufferView":56,
			"componentType":5126,
			"count":3226,
			"type":"VEC3"
		},
		{
			"bufferView":57,
			"componentType":5126,
			"count":3226,
			"type":"VEC2"
		},
		{
			"bufferView":58,
			"componentType":5123,
			"count":3226,
			"normalized":true,
			"type":"VEC4"
		},
		{
			"bufferView":59,
			"componentType":5123,
			"count":5490,
			"type":"SCALAR"
		},
		{
			"bufferView":60,
			"componentType":5126,
			"count":1226,
			"max":[
				1.3468425273895264,
				2.3537838459014893,
				5.052178859710693
			],
			"min":[
				-9.821410179138184,
				-0.5224452018737793,
				-3.5224788188934326
			],
			"type":"VEC3"
		},
		{
			"bufferView":61,
			"componentType":5126,
			"count":1226,
			"type":"VEC3"
		},
		{
			"bufferView":62,
			"componentType":5126,
			"count":1226,
			"type":"VEC2"
		},
		{
			"bufferView":63,
			"componentType":5123,
			"count":1226,
			"normalized":true,
			"type":"VEC4"
		},
		{
			"bufferView":64,
			"componentType":5123,
			"count":1938,
			"type":"SCALAR"
		},
		{
			"bufferView":65,
			"componentType":5126,
			"count":420,
			"max":[
				-0.47253963351249695,
				1.1559584140777588,
				3.8198084831237793
			],
			"min":[
				-3.6997220516204834,
				-0.09743314981460571,
				-3.184082508087158
			],
			"type":"VEC3"
		},
		{
			"bufferView":66,
			"componentType":5126,
			"count":420,
			"type":"VEC3"
		},
		{
			"bufferView":67,
			"componentType":5126,
			"count":420,
			"type":"VEC2"
		},
		{
			"bufferView":68,
			"componentType":5123,
			"count":420,
			"normalized":true,
			"type":"VEC4"
		},
		{
			"bufferView":69,
			"componentType":5123,
			"count":696,
			"type":"SCALAR"
		},
		{
			"bufferView":70,
			"componentType":5126,
			"count":753,
			"max":[
				-0.6341613531112671,
				0.29992979764938354,
				3.5429229736328125
			],
			"min":[
				-3.5721731185913086,
				-0.4058018922805786,
				-3.050696611404419
			],
			"type":"VEC3"
		},
		{
			"bufferView":71,
			"componentType":5126,
			"count":753,
			"type":"VEC3"
		},
		{
			"bufferView":72,
			"componentType":5126,
			"count":753,
			"type":"VEC2"
		},
		{
			"bufferView":73,
			"componentType":5123,
			"count":753,
			"normalized":true,
			"type":"VEC4"
		},
		{
			"bufferView":74,
			"componentType":5123,
			"count":1218,
			"type":"SCALAR"
		},
		{
			"bufferView":75,
			"componentType":5126,
			"count":126,
			"max":[
				0.36016884446144104,
				-0.20755164325237274,
				5.265461444854736
			],
			"min":[
				-4.488276481628418,
				-0.5031301975250244,
				-3.0388097763061523
			],
			"type":"VEC3"
		},
		{
			"bufferView":76,
			"componentType":5126,
			"count":126,
			"type":"VEC3"
		},
		{
			"bufferView":77,
			"componentType":5126,
			"count":126,
			"type":"VEC2"
		},
		{
			"bufferView":78,
			"componentType":5123,
			"count":126,
			"normalized":true,
			"type":"VEC4"
		},
		{
			"bufferView":79,
			"componentType":5123,
			"count":192,
			"type":"SCALAR"
		},
		{
			"bufferView":80,
			"componentType":5126,
			"count":198,
			"max":[
				-1.1596802473068237,
				2.839308023452759,
				-0.09109801054000854
			],
			"min":[
				-5.759183406829834,
				-0.20462721586227417,
				-3.1318724155426025
			],
			"type":"VEC3"
		},
		{
			"bufferView":81,
			"componentType":5126,
			"count":198,
			"type":"VEC3"
		},
		{
			"bufferView":82,
			"componentType":5126,
			"count":198,
			"type":"VEC2"
		},
		{
			"bufferView":83,
			"componentType":5123,
			"count":198,
			"normalized":true,
			"type":"VEC4"
		},
		{
			"bufferView":84,
			"componentType":5123,
			"count":288,
			"type":"SCALAR"
		},
		{
			"bufferView":85,
			"componentType":5126,
			"count":180,
			"max":[
				-8.579611778259277,
				2.6027815341949463,
				1.6929081678390503
			],
			"min":[
				-8.736688613891602,
				2.4224257469177246,
				1.535144329071045
			],
			"type":"VEC3"
		},
		{
			"bufferView":86,
			"componentType":5126,
			"count":180,
			"type":"VEC3"
		},
		{
			"bufferView":87,
			"componentType":5126,
			"count":180,
			"type":"VEC2"
		},
		{
			"bufferView":88,
			"componentType":5123,
			"count":180,
			"normalized":true,
			"type":"VEC4"
		},
		{
			"bufferView":89,
			"componentType":5123,
			"count":270,
			"type":"SCALAR"
		},
		{
			"bufferView":90,
			"componentType":5126,
			"count":327,
			"max":[
				-2.8314993381500244,
				2.350252628326416,
				4.985123157501221
			],
			"min":[
				-9.729111671447754,
				0.009037747979164124,
				1.3000537157058716
			],
			"type":"VEC3"
		},
		{
			"bufferView":91,
			"componentType":5126,
			"count":327,
			"type":"VEC3"
		},
		{
			"bufferView":92,
			"componentType":5126,
			"count":327,
			"type":"VEC2"
		},
		{
			"bufferView":93,
			"componentType":5123,
			"count":327,
			"normalized":true,
			"type":"VEC4"
		},
		{
			"bufferView":94,
			"componentType":5123,
			"count":492,
			"type":"SCALAR"
		},
		{
			"bufferView":95,
			"componentType":5126,
			"count":266,
			"max":[
				-0.12094157934188843,
				2.135545492172241,
				6.848453521728516
			],
			"min":[
				-1.2117478847503662,
				1.0194076299667358,
				3.9091575145721436
			],
			"type":"VEC3"
		},
		{
			"bufferView":96,
			"componentType":5126,
			"count":266,
			"type":"VEC3"
		},
		{
			"bufferView":97,
			"componentType":5126,
			"count":266,
			"type":"VEC2"
		},
		{
			"bufferView":98,
			"componentType":5123,
			"count":266,
			"normalized":true,
			"type":"VEC4"
		},
		{
			"bufferView":99,
			"componentType":5123,
			"count":399,
			"type":"SCALAR"
		},
		{
			"bufferView":100,
			"componentType":5126,
			"count":119,
			"max":[
				0.7552140355110168,
				2.2513787746429443,
				2.4545509815216064
			],
			"min":[
				0.23915880918502808,
				1.5484609603881836,
				1.94106924533844
			],
			"type":"VEC3"
		},
		{
			"bufferView":101,
			"componentType":5126,
			"count":119,
			"type":"VEC3"
		},
		{
			"bufferView":102,
			"componentType":5126,
			"count":119,
			"type":"VEC2"
		},
		{
			"bufferView":103,
			"componentType":5123,
			"count":119,
			"normalized":true,
			"type":"VEC4"
		},
		{
			"bufferView":104,
			"componentType":5123,
			"count":198,
			"type":"SCALAR"
		}
	],
	"bufferViews":[
		{
			"buffer":0,
			"byteLength":5220,
			"byteOffset":0,
			"target":34962
		},
		{
			"buffer":0,
			"byteLength":5220,
			"byteOffset":5220,
			"target":34962
		},
		{
			"buffer":0,
			"byteLength":3480,
			"byteOffset":10440,
			"target":34962
		},
		{
			"buffer":0,
			"byteLength":3480,
			"byteOffset":13920,
			"target":34962
		},
		{
			"buffer":0,
			"byteLength":1452,
			"byteOffset":17400,
			"target":34963
		},
		{
			"buffer":0,
			"byteLength":14268,
			"byteOffset":18852,
			"target":34962
		},
		{
			"buffer":0,
			"byteLength":14268,
			"byteOffset":33120,
			"target":34962
		},
		{
			"buffer":0,
			"byteLength":9512,
			"byteOffset":47388,
			"target":34962
		},
		{
			"buffer":0,
			"byteLength":9512,
			"byteOffset":56900,
			"target":34962
		},
		{
			"buffer":0,
			"byteLength":3948,
			"byteOffset":66412,
			"target":34963
		},
		{
			"buffer":0,
			"byteLength":13368,
			"byteOffset":70360,
			"target":34962
		},
		{
			"buffer":0,
			"byteLength":13368,
			"byteOffset":83728,
			"target":34962
		},
		{
			"buffer":0,
			"byteLength":8912,
			"byteOffset":97096,
			"target":34962
		},
		{
			"buffer":0,
			"byteLength":8912,
			"byteOffset":106008,
			"target":34962
		},
		{
			"buffer":0,
			"byteLength":2376,
			"byteOffset":114920,
			"target":34963
		},
		{
			"buffer":0,
			"byteLength":17664,
			"byteOffset":117296,
			"target":34962
		},
		{
			"buffer":0,
			"byteLength":17664,
			"byteOffset":134960,
			"target":34962
		},
		{
			"buffer":0,
			"byteLength":11776,
			"byteOffset":152624,
			"target":34962
		},
		{
			"buffer":0,
			"byteLength":11776,
			"byteOffset":164400,
			"target":34962
		},
		{
			"buffer":0,
			"byteLength":4884,
			"byteOffset":176176,
			"target":34963
		},
		{
			"buffer":0,
			"byteLength":9192,
			"byteOffset":181060,
			"target":34962
		},
		{
			"buffer":0,
			"byteLength":9192,
			"byteOffset":190252,
			"target":34962
		},
		{
			"buffer":0,
			"byteLength":6128,
			"byteOffset":199444,
			"target":34962
		},
		{
			"buffer":0,
			"byteLength":6128,
			"byteOffset":205572,
			"target":34962
		},
		{
			"buffer":0,
			"byteLength":2526,
			"byteOffset":211700,
			"target":34963
		},
		{
			"buffer":0,
			"byteLength":1620,
			"byteOffset":214228,
			"target":34962
		},
		{
			"buffer":0,
			"byteLength":1620,
			"byteOffset":215848,
			"target":34962
		},
		{
			"buffer":0,
			"byteLength":1080,
			"byteOffset":217468,
			"target":34962
		},
		{
			"buffer":0,
			"byteLength":1080,
			"byteOffset":218548,
			"target":34962
		},
		{
			"buffer":0,
			"byteLength":426,
			"byteOffset":219628,
			"target":34963
		},
		{
			"buffer":0,
			"byteLength":418128,
			"byteOffset":220056,
			"target":34962
		},
		{
			"buffer":0,
			"byteLength":418128,
			"byteOffset":638184,
			"target":34962
		},
		{
			"buffer":0,
			"byteLength":278752,
			"byteOffset":1056312,
			"target":34962
		},
		{
			"buffer":0,
			"byteLength":278752,
			"byteOffset":1335064,
			"target":34962
		},
		{
			"buffer":0,
			"byteLength":91782,
			"byteOffset":1613816,
			"target":34963
		},
		{
			"buffer":0,
			"byteLength":2316,
			"byteOffset":1705600,
			"target":34962
		},
		{
			"buffer":0,
			"byteLength":2316,
			"byteOffset":1707916,
			"target":34962
		},
		{
			"buffer":0,
			"byteLength":1544,
			"byteOffset":1710232,
			"target":34962
		},
		{
			"buffer":0,
			"byteLength":1544,
			"byteOffset":1711776,
			"target":34962
		},
		{
			"buffer":0,
			"byteLength":588,
			"byteOffset":1713320,
			"target":34963
		},
		{
			"buffer":0,
			"byteLength":2292,
			"byteOffset":1713908,
			"target":34962
		},
		{
			"buffer":0,
			"byteLength":2292,
			"byteOffset":1716200,
			"target":34962
		},
		{
			"buffer":0,
			"byteLength":1528,
			"byteOffset":1718492,
			"target":34962
		},
		{
			"buffer":0,
			"byteLength":1528,
			"byteOffset":1720020,
			"target":34962
		},
		{
			"buffer":0,
			"byteLength":588,
			"byteOffset":1721548,
			"target":34963
		},
		{
			"buffer":0,
			"byteLength":46200,
			"byteOffset":1722136,
			"target":34962
		},
		{
			"buffer":0,
			"byteLength":46200,
			"byteOffset":1768336,
			"target":34962
		},
		{
			"buffer":0,
			"byteLength":30800,
			"byteOffset":1814536,
			"target":34962
		},
		{
			"buffer":0,
			"byteLength":30800,
			"byteOffset":1845336,
			"target":34962
		},
		{
			"buffer":0,
			"byteLength":12192,
			"byteOffset":1876136,
			"target":34963
		},
		{
			"buffer":0,
			"byteLength":143652,
			"byteOffset":1888328,
			"target":34962
		},
		{
			"buffer":0,
			"byteLength":143652,
			"byteOffset":2031980,
			"target":34962
		},
		{
			"buffer":0,
			"byteLength":95768,
			"byteOffset":2175632,
			"target":34962
		},
		{
			"buffer":0,
			"byteLength":95768,
			"byteOffset":2271400,
			"target":34962
		},
		{
			"buffer":0,
			"byteLength":40524,
			"byteOffset":2367168,
			"target":34963
		},
		{
			"buffer":0,
			"byteLength":38712,
			"byteOffset":2407692,
			"target":34962
		},
		{
			"buffer":0,
			"byteLength":38712,
			"byteOffset":2446404,
			"target":34962
		},
		{
			"buffer":0,
			"byteLength":25808,
			"byteOffset":2485116,
			"target":34962
		},
		{
			"buffer":0,
			"byteLength":25808,
			"byteOffset":2510924,
			"target":34962
		},
		{
			"buffer":0,
			"byteLength":10980,
			"byteOffset":2536732,
			"target":34963
		},
		{
			"buffer":0,
			"byteLength":14712,
			"byteOffset":2547712,
			"target":34962
		},
		{
			"buffer":0,
			"byteLength":14712,
			"byteOffset":2562424,
			"target":34962
		},
		{
			"buffer":0,
			"byteLength":9808,
			"byteOffset":2577136,
			"target":34962
		},
		{
			"buffer":0,
			"byteLength":9808,
			"byteOffset":2586944,
			"target":34962
		},
		{
			"buffer":0,
			"byteLength":3876,
			"byteOffset":2596752,
			"target":34963
		},
		{
			"buffer":0,
			"byteLength":5040,
			"byteOffset":2600628,
			"target":34962
		},
		{
			"buffer":0,
			"byteLength":5040,
			"byteOffset":2605668,
			"target":34962
		},
		{
			"buffer":0,
			"byteLength":3360,
			"byteOffset":2610708,
			"target":34962
		},
		{
			"buffer":0,
			"byteLength":3360,
			"byteOffset":2614068,
			"target":34962
		},
		{
			"buffer":0,
			"byteLength":1392,
			"byteOffset":2617428,
			"target":34963
		},
		{
			"buffer":0,
			"byteLength":9036,
			"byteOffset":2618820,
			"target":34962
		},
		{
			"buffer":0,
			"byteLength":9036,
			"byteOffset":2627856,
			"target":34962
		},
		{
			"buffer":0,
			"byteLength":6024,
			"byteOffset":2636892,
			"target":34962
		},
		{
			"buffer":0,
			"byteLength":6024,
			"byteOffset":2642916,
			"target":34962
		},
		{
			"buffer":0,
			"byteLength":2436,
			"byteOffset":2648940,
			"target":34963
		},
		{
			"buffer":0,
			"byteLength":1512,
			"byteOffset":2651376,
			"target":34962
		},
		{
			"buffer":0,
			"byteLength":1512,
			"byteOffset":2652888,
			"target":34962
		},
		{
			"buffer":0,
			"byteLength":1008,
			"byteOffset":2654400,
			"target":34962
		},
		{
			"buffer":0,
			"byteLength":1008,
			"byteOffset":2655408,
			"target":34962
		},
		{
			"buffer":0,
			"byteLength":384,
			"byteOffset":2656416,
			"target":34963
		},
		{
			"buffer":0,
			"byteLength":2376,
			"byteOffset":2656800,
			"target":34962
		},
		{
			"buffer":0,
			"byteLength":2376,
			"byteOffset":2659176,
			"target":34962
		},
		{
			"buffer":0,
			"byteLength":1584,
			"byteOffset":2661552,
			"target":34962
		},
		{
			"buffer":0,
			"byteLength":1584,
			"byteOffset":2663136,
			"target":34962
		},
		{
			"buffer":0,
			"byteLength":576,
			"byteOffset":2664720,
			"target":34963
		},
		{
			"buffer":0,
			"byteLength":2160,
			"byteOffset":2665296,
			"target":34962
		},
		{
			"buffer":0,
			"byteLength":2160,
			"byteOffset":2667456,
			"target":34962
		},
		{
			"buffer":0,
			"byteLength":1440,
			"byteOffset":2669616,
			"target":34962
		},
		{
			"buffer":0,
			"byteLength":1440,
			"byteOffset":2671056,
			"target":34962
		},
		{
			"buffer":0,
			"byteLength":540,
			"byteOffset":2672496,
			"target":34963
		},
		{
			"buffer":0,
			"byteLength":3924,
			"byteOffset":2673036,
			"target":34962
		},
		{
			"buffer":0,
			"byteLength":3924,
			"byteOffset":2676960,
			"target":34962
		},
		{
			"buffer":0,
			"byteLength":2616,
			"byteOffset":2680884,
			"target":34962
		},
		{
			"buffer":0,
			"byteLength":2616,
			"byteOffset":2683500,
			"target":34962
		},
		{
			"buffer":0,
			"byteLength":984,
			"byteOffset":2686116,
			"target":34963
		},
		{
			"buffer":0,
			"byteLength":3192,
			"byteOffset":2687100,
			"target":34962
		},
		{
			"buffer":0,
			"byteLength":3192,
			"byteOffset":2690292,
			"target":34962
		},
		{
			"buffer":0,
			"byteLength":2128,
			"byteOffset":2693484,
			"target":34962
		},
		{
			"buffer":0,
			"byteLength":2128,
			"byteOffset":2695612,
			"target":34962
		},
		{
			"buffer":0,
			"byteLength":798,
			"byteOffset":2697740,
			"target":34963
		},
		{
			"buffer":0,
			"byteLength":1428,
			"byteOffset":2698540,
			"target":34962
		},
		{
			"buffer":0,
			"byteLength":1428,
			"byteOffset":2699968,
			"target":34962
		},
		{
			"buffer":0,
			"byteLength":952,
			"byteOffset":2701396,
			"target":34962
		},
		{
			"buffer":0,
			"byteLength":952,
			"byteOffset":2702348,
			"target":34962
		},
		{
			"buffer":0,
			"byteLength":396,
			"byteOffset":2703300,
			"target":34963
		}
	],
	"buffers":[
		{
			"byteLength":2703696,
			"uri":"cell_x0_z1_render.bin"
		}
	]
}
