{
	"asset":{
		"generator":"Khronos glTF Blender I/O v4.5.51",
		"version":"2.0"
	},
	"scene":0,
	"scenes":[
		{
			"name":"Scene",
			"nodes":[
				0
			]
		}
	],
	"nodes":[
		{
			"mesh":0,
			"name":"cell_x3_z1",
			"rotation":[
				-0.02892221510410309,
				0.12226342409849167,
				0.003564395010471344,
				0.9920698404312134
			],
			"scale":[
				4.557348251342773,
				4.557348251342773,
				4.557348251342773
			],
			"translation":[
				131.95132446289062,
				14.134529113769531,
				77.55160522460938
			]
		}
	],
	"materials":[
		{
			"name":"stone_v3",
			"pbrMetallicRoughness":{
				"baseColorFactor":[
					0.20863686501979828,
					0.2462013214826584,
					0.2622506618499756,
					1
				],
				"metallicFactor":0,
				"roughnessFactor":0.9200000166893005
			}
		},
		{
			"name":"_defaultMat",
			"pbrMetallicRoughness":{
				"baseColorFactor":[
					0.4564110338687897,
					0.4564110338687897,
					0.4125426113605499,
					1
				],
				"metallicFactor":0,
				"roughnessFactor":0.9200000166893005
			}
		},
		{
			"name":"stone_v2",
			"pbrMetallicRoughness":{
				"baseColorFactor":[
					0.38132601976394653,
					0.38132601976394653,
					0.3324515223503113,
					1
				],
				"metallicFactor":0,
				"roughnessFactor":0.9200000166893005
			}
		},
		{
			"name":"grass",
			"pbrMetallicRoughness":{
				"baseColorFactor":[
					0.15592646598815918,
					0.2961382567882538,
					0.0802198201417923,
					1
				],
				"metallicFactor":0,
				"roughnessFactor":0.9200000166893005
			}
		},
		{
			"name":"dirt_v3",
			"pbrMetallicRoughness":{
				"baseColorFactor":[
					0.20863686501979828,
					0.15896083414554596,
					0.09084171056747437,
					1
				],
				"metallicFactor":0,
				"roughnessFactor":0.9200000166893005
			}
		},
		{
			"name":"stone_v1",
			"pbrMetallicRoughness":{
				"baseColorFactor":[
					0.2541520893573761,
					0.28744083642959595,
					0.3049873113632202,
					1
				],
				"metallicFactor":0,
				"roughnessFactor":0.9200000166893005
			}
		},
		{
			"name":"leafsGreen",
			"pbrMetallicRoughness":{
				"baseColorFactor":[
					0.11443537473678589,
					0.23074005544185638,
					0.06301001459360123,
					1
				],
				"metallicFactor":0,
				"roughnessFactor":0.9200000166893005
			}
		}
	],
	"meshes":[
		{
			"name":"Mesh stone_tallF.060",
			"primitives":[
				{
					"attributes":{
						"POSITION":0,
						"NORMAL":1,
						"TEXCOORD_0":2,
						"COLOR_0":3
					},
					"indices":4,
					"material":0
				},
				{
					"attributes":{
						"POSITION":5,
						"NORMAL":6,
						"TEXCOORD_0":7,
						"COLOR_0":8
					},
					"indices":9,
					"material":1
				},
				{
					"attributes":{
						"POSITION":10,
						"NORMAL":11,
						"TEXCOORD_0":12,
						"COLOR_0":13
					},
					"indices":14,
					"material":2
				},
				{
					"attributes":{
						"POSITION":15,
						"NORMAL":16,
						"TEXCOORD_0":17,
						"COLOR_0":18
					},
					"indices":19,
					"material":3
				},
				{
					"attributes":{
						"POSITION":20,
						"NORMAL":21,
						"TEXCOORD_0":22,
						"COLOR_0":23
					},
					"indices":24,
					"material":4
				},
				{
					"attributes":{
						"POSITION":25,
						"NORMAL":26,
						"TEXCOORD_0":27,
						"COLOR_0":28
					},
					"indices":29,
					"material":5
				},
				{
					"attributes":{
						"POSITION":30,
						"NORMAL":31,
						"TEXCOORD_0":32,
						"COLOR_0":33
					},
					"indices":34,
					"material":6
				}
			]
		}
	],
	"accessors":[
		{
			"bufferView":0,
			"componentType":5126,
			"count":423,
			"max":[
				2.6247432231903076,
				3.290104389190674,
				0.534390389919281
			],
			"min":[
				-0.2218480110168457,
				-0.35998427867889404,
				-7.308149814605713
			],
			"type":"VEC3"
		},
		{
			"bufferView":1,
			"componentType":5126,
			"count":423,
			"type":"VEC3"
		},
		{
			"bufferView":2,
			"componentType":5126,
			"count":423,
			"type":"VEC2"
		},
		{
			"bufferView":3,
			"componentType":5123,
			"count":423,
			"normalized":true,
			"type":"VEC4"
		},
		{
			"bufferView":4,
			"componentType":5123,
			"count":684,
			"type":"SCALAR"
		},
		{
			"bufferView":5,
			"componentType":5126,
			"count":48,
			"max":[
				0.8765937089920044,
				2.5501036643981934,
				0.534390389919281
			],
			"min":[
				-2.3294715881347656,
				-0.39072123169898987,
				-2.174027919769287
			],
			"type":"VEC3"
		},
		{
			"bufferView":6,
			"componentType":5126,
			"count":48,
			"type":"VEC3"
		},
		{
			"bufferView":7,
			"componentType":5126,
			"count":48,
			"type":"VEC2"
		},
		{
			"bufferView":8,
			"componentType":5123,
			"count":48,
			"normalized":true,
			"type":"VEC4"
		},
		{
			"bufferView":9,
			"componentType":5123,
			"count":48,
			"type":"SCALAR"
		},
		{
			"bufferView":10,
			"componentType":5126,
			"count":93,
			"max":[
				0.683323323726654,
				3.0334692001342773,
				-4.300564289093018
			],
			"min":[
				0.1913212686777115,
				2.7674953937530518,
				-4.779698848724365
			],
			"type":"VEC3"
		},
		{
			"bufferView":11,
			"componentType":5126,
			"count":93,
			"type":"VEC3"
		},
		{
			"bufferView":12,
			"componentType":5126,
			"count":93,
			"type":"VEC2"
		},
		{
			"bufferView":13,
			"componentType":5123,
			"count":93,
			"normalized":true,
			"type":"VEC4"
		},
		{
			"bufferView":14,
			"componentType":5123,
			"count":156,
			"type":"SCALAR"
		},
		{
			"bufferView":15,
			"componentType":5126,
			"count":469,
			"max":[
				0.744625449180603,
				2.917819023132324,
				0.35284289717674255
			],
			"min":[
				-2.3129210472106934,
				0.14545053243637085,
				-2.782310724258423
			],
			"type":"VEC3"
		},
		{
			"bufferView":16,
			"componentType":5126,
			"count":469,
			"type":"VEC3"
		},
		{
			"bufferView":17,
			"componentType":5126,
			"count":469,
			"type":"VEC2"
		},
		{
			"bufferView":18,
			"componentType":5123,
			"count":469,
			"normalized":true,
			"type":"VEC4"
		},
		{
			"bufferView":19,
			"componentType":5123,
			"count":621,
			"type":"SCALAR"
		},
		{
			"bufferView":20,
			"componentType":5126,
			"count":53,
			"max":[
				0.8765937089920044,
				0.40302300453186035,
				0.35284289717674255
			],
			"min":[
				0.3553837835788727,
				-0.39072123169898987,
				-0.020689263939857483
			],
			"type":"VEC3"
		},
		{
			"bufferView":21,
			"componentType":5126,
			"count":53,
			"type":"VEC3"
		},
		{
			"bufferView":22,
			"componentType":5126,
			"count":53,
			"type":"VEC2"
		},
		{
			"bufferView":23,
			"componentType":5123,
			"count":53,
			"normalized":true,
			"type":"VEC4"
		},
		{
			"bufferView":24,
			"componentType":5123,
			"count":81,
			"type":"SCALAR"
		},
		{
			"bufferView":25,
			"componentType":5126,
			"count":76,
			"max":[
				-1.7996405363082886,
				3.181549549102783,
				-1.6108344793319702
			],
			"min":[
				-2.3294715881347656,
				2.526005268096924,
				-2.174027919769287
			],
			"type":"VEC3"
		},
		{
			"bufferView":26,
			"componentType":5126,
			"count":76,
			"type":"VEC3"
		},
		{
			"bufferView":27,
			"componentType":5126,
			"count":76,
			"type":"VEC2"
		},
		{
			"bufferView":28,
			"componentType":5123,
			"count":76,
			"normalized":true,
			"type":"VEC4"
		},
		{
			"bufferView":29,
			"componentType":5123,
			"count":126,
			"type":"SCALAR"
		},
		{
			"bufferView":30,
			"componentType":5126,
			"count":60,
			"max":[
				-1.5457017421722412,
				2.8125829696655273,
				-1.978730320930481
			],
			"min":[
				-1.7110846042633057,
				2.6548280715942383,
				-2.143832206726074
			],
			"type":"VEC3"
		},
		{
			"bufferView":31,
			"componentType":5126,
			"count":60,
			"type":"VEC3"
		},
		{
			"bufferView":32,
			"componentType":5126,
			"count":60,
			"type":"VEC2"
		},
		{
			"bufferView":33,
			"componentType":5123,
			"count":60,
			"normalized":true,
			"type":"VEC4"
		},
		{
			"bufferView":34,
			"componentType":5123,
			"count":132,
			"type":"SCALAR"
		}
	],
	"bufferViews":[
		{
			"buffer":0,
			"byteLength":5076,
			"byteOffset":0,
			"target":34962
		},
		{
			"buffer":0,
			"byteLength":5076,
			"byteOffset":5076,
			"target":34962
		},
		{
			"buffer":0,
			"byteLength":3384,
			"byteOffset":10152,
			"target":34962
		},
		{
			"buffer":0,
			"byteLength":3384,
			"byteOffset":13536,
			"target":34962
		},
		{
			"buffer":0,
			"byteLength":1368,
			"byteOffset":16920,
			"target":34963
		},
		{
			"buffer":0,
			"byteLength":576,
			"byteOffset":18288,
			"target":34962
		},
		{
			"buffer":0,
			"byteLength":576,
			"byteOffset":18864,
			"target":34962
		},
		{
			"buffer":0,
			"byteLength":384,
			"byteOffset":19440,
			"target":34962
		},
		{
			"buffer":0,
			"byteLength":384,
			"byteOffset":19824,
			"target":34962
		},
		{
			"buffer":0,
			"byteLength":96,
			"byteOffset":20208,
			"target":34963
		},
		{
			"buffer":0,
			"byteLength":1116,
			"byteOffset":20304,
			"target":34962
		},
		{
			"buffer":0,
			"byteLength":1116,
			"byteOffset":21420,
			"target":34962
		},
		{
			"buffer":0,
			"byteLength":744,
			"byteOffset":22536,
			"target":34962
		},
		{
			"buffer":0,
			"byteLength":744,
			"byteOffset":23280,
			"target":34962
		},
		{
			"buffer":0,
			"byteLength":312,
			"byteOffset":24024,
			"target":34963
		},
		{
			"buffer":0,
			"byteLength":5628,
			"byteOffset":24336,
			"target":34962
		},
		{
			"buffer":0,
			"byteLength":5628,
			"byteOffset":29964,
			"target":34962
		},
		{
			"buffer":0,
			"byteLength":3752,
			"byteOffset":35592,
			"target":34962
		},
		{
			"buffer":0,
			"byteLength":3752,
			"byteOffset":39344,
			"target":34962
		},
		{
			"buffer":0,
			"byteLength":1242,
			"byteOffset":43096,
			"target":34963
		},
		{
			"buffer":0,
			"byteLength":636,
			"byteOffset":44340,
			"target":34962
		},
		{
			"buffer":0,
			"byteLength":636,
			"byteOffset":44976,
			"target":34962
		},
		{
			"buffer":0,
			"byteLength":424,
			"byteOffset":45612,
			"target":34962
		},
		{
			"buffer":0,
			"byteLength":424,
			"byteOffset":46036,
			"target":34962
		},
		{
			"buffer":0,
			"byteLength":162,
			"byteOffset":46460,
			"target":34963
		},
		{
			"buffer":0,
			"byteLength":912,
			"byteOffset":46624,
			"target":34962
		},
		{
			"buffer":0,
			"byteLength":912,
			"byteOffset":47536,
			"target":34962
		},
		{
			"buffer":0,
			"byteLength":608,
			"byteOffset":48448,
			"target":34962
		},
		{
			"buffer":0,
			"byteLength":608,
			"byteOffset":49056,
			"target":34962
		},
		{
			"buffer":0,
			"byteLength":252,
			"byteOffset":49664,
			"target":34963
		},
		{
			"buffer":0,
			"byteLength":720,
			"byteOffset":49916,
			"target":34962
		},
		{
			"buffer":0,
			"byteLength":720,
			"byteOffset":50636,
			"target":34962
		},
		{
			"buffer":0,
			"byteLength":480,
			"byteOffset":51356,
			"target":34962
		},
		{
			"buffer":0,
			"byteLength":480,
			"byteOffset":51836,
			"target":34962
		},
		{
			"buffer":0,
			"byteLength":264,
			"byteOffset":52316,
			"target":34963
		}
	],
	"buffers":[
		{
			"byteLength":52580,
			"uri":"cell_x3_z1_render.bin"
		}
	]
}
