{
	"asset":{
		"generator":"Khronos glTF Blender I/O v4.5.51",
		"version":"2.0"
	},
	"scene":0,
	"scenes":[
		{
			"name":"Scene",
			"nodes":[
				0
			]
		}
	],
	"nodes":[
		{
			"mesh":0,
			"name":"cell_x1_z2",
			"rotation":[
				0,
				-0.42895376682281494,
				0,
				0.9033264517784119
			],
			"scale":[
				1.396074891090393,
				1.396074891090393,
				1.396074891090393
			],
			"translation":[
				43.3345947265625,
				23.005115509033203,
				94
			]
		}
	],
	"materials":[
		{
			"doubleSided":true,
			"name":"sol_falaise",
			"normalTexture":{
				"index":0,
				"scale":0.800000011920929
			},
			"pbrMetallicRoughness":{
				"baseColorFactor":[
					0.6514056324958801,
					0.6104955673217773,
					0.5149176716804504,
					1
				],
				"baseColorTexture":{
					"index":1
				},
				"metallicFactor":0,
				"roughnessFactor":0.949999988079071
			}
		},
		{
			"name":"stone_v3",
			"pbrMetallicRoughness":{
				"baseColorFactor":[
					0.20863686501979828,
					0.2462013214826584,
					0.2622506618499756,
					1
				],
				"metallicFactor":0,
				"roughnessFactor":0.9200000166893005
			}
		},
		{
			"name":"stone_v1",
			"pbrMetallicRoughness":{
				"baseColorFactor":[
					0.2541520893573761,
					0.28744083642959595,
					0.3049873113632202,
					1
				],
				"metallicFactor":0,
				"roughnessFactor":0.9200000166893005
			}
		},
		{
			"name":"stone_v2",
			"pbrMetallicRoughness":{
				"baseColorFactor":[
					0.38132601976394653,
					0.38132601976394653,
					0.3324515223503113,
					1
				],
				"metallicFactor":0,
				"roughnessFactor":0.9200000166893005
			}
		},
		{
			"name":"_defaultMat",
			"pbrMetallicRoughness":{
				"baseColorFactor":[
					0.4564110338687897,
					0.4564110338687897,
					0.4125426113605499,
					1
				],
				"metallicFactor":0,
				"roughnessFactor":0.9200000166893005
			}
		},
		{
			"name":"grass",
			"pbrMetallicRoughness":{
				"baseColorFactor":[
					0.15592646598815918,
					0.2961382567882538,
					0.0802198201417923,
					1
				],
				"metallicFactor":0,
				"roughnessFactor":0.9200000166893005
			}
		},
		{
			"name":"dirt_v0",
			"pbrMetallicRoughness":{
				"baseColorFactor":[
					0.32314321398735046,
					0.24228112399578094,
					0.1384316086769104,
					1
				],
				"metallicFactor":0,
				"roughnessFactor":0.9200000166893005
			}
		},
		{
			"name":"leafsDark",
			"pbrMetallicRoughness":{
				"baseColorFactor":[
					0.04817182570695877,
					0.11443537473678589,
					0.03310476616024971,
					1
				],
				"metallicFactor":0,
				"roughnessFactor":0.9200000166893005
			}
		},
		{
			"name":"woodBarkDark",
			"pbrMetallicRoughness":{
				"baseColorFactor":[
					0.11443537473678589,
					0.04666508734226227,
					0.016807375475764275,
					1
				],
				"metallicFactor":0,
				"roughnessFactor":0.9200000166893005
			}
		},
		{
			"name":"leafsGreen",
			"pbrMetallicRoughness":{
				"baseColorFactor":[
					0.11443537473678589,
					0.23074005544185638,
					0.06301001459360123,
					1
				],
				"metallicFactor":0,
				"roughnessFactor":0.9200000166893005
			}
		},
		{
			"name":"woodBark",
			"pbrMetallicRoughness":{
				"baseColorFactor":[
					0.2015562504529953,
					0.08437620848417282,
					0.02955683507025242,
					1
				],
				"metallicFactor":0,
				"roughnessFactor":0.9200000166893005
			}
		},
		{
			"name":"woodBirch",
			"pbrMetallicRoughness":{
				"baseColorFactor":[
					0.7304607629776001,
					0.6583748459815979,
					0.5028864741325378,
					1
				],
				"metallicFactor":0,
				"roughnessFactor":0.9200000166893005
			}
		},
		{
			"name":"leafsFall",
			"pbrMetallicRoughness":{
				"baseColorFactor":[
					0.4564110338687897,
					0.18782077729701996,
					0.045186202973127365,
					1
				],
				"metallicFactor":0,
				"roughnessFactor":0.9200000166893005
			}
		},
		{
			"name":"colorRed",
			"pbrMetallicRoughness":{
				"baseColorFactor":[
					0.34191441535949707,
					0.08437620848417282,
					0.05951123684644699,
					1
				],
				"metallicFactor":0,
				"roughnessFactor":0.9200000166893005
			}
		}
	],
	"meshes":[
		{
			"name":"SM_ENV_cliff_castle_01_instantmeshesexp_02.010",
			"primitives":[
				{
					"attributes":{
						"POSITION":0,
						"NORMAL":1,
						"TEXCOORD_0":2,
						"TEXCOORD_1":3
					},
					"indices":4,
					"material":0
				},
				{
					"attributes":{
						"POSITION":5,
						"NORMAL":6,
						"TEXCOORD_0":7,
						"TEXCOORD_1":8
					},
					"indices":9,
					"material":1
				},
				{
					"attributes":{
						"POSITION":10,
						"NORMAL":11,
						"TEXCOORD_0":12,
						"TEXCOORD_1":13
					},
					"indices":14,
					"material":2
				},
				{
					"attributes":{
						"POSITION":15,
						"NORMAL":16,
						"TEXCOORD_0":17,
						"TEXCOORD_1":18
					},
					"indices":19,
					"material":3
				},
				{
					"attributes":{
						"POSITION":20,
						"NORMAL":21,
						"TEXCOORD_0":22,
						"TEXCOORD_1":23
					},
					"indices":24,
					"material":4
				},
				{
					"attributes":{
						"POSITION":25,
						"NORMAL":26,
						"TEXCOORD_0":27,
						"TEXCOORD_1":28
					},
					"indices":29,
					"material":5
				},
				{
					"attributes":{
						"POSITION":30,
						"NORMAL":31,
						"TEXCOORD_0":32,
						"TEXCOORD_1":33
					},
					"indices":34,
					"material":6
				},
				{
					"attributes":{
						"POSITION":35,
						"NORMAL":36,
						"TEXCOORD_0":37,
						"TEXCOORD_1":38
					},
					"indices":39,
					"material":7
				},
				{
					"attributes":{
						"POSITION":40,
						"NORMAL":41,
						"TEXCOORD_0":42,
						"TEXCOORD_1":43
					},
					"indices":44,
					"material":8
				},
				{
					"attributes":{
						"POSITION":45,
						"NORMAL":46,
						"TEXCOORD_0":47,
						"TEXCOORD_1":48
					},
					"indices":49,
					"material":9
				},
				{
					"attributes":{
						"POSITION":50,
						"NORMAL":51,
						"TEXCOORD_0":52,
						"TEXCOORD_1":53
					},
					"indices":54,
					"material":10
				},
				{
					"attributes":{
						"POSITION":55,
						"NORMAL":56,
						"TEXCOORD_0":57,
						"TEXCOORD_1":58
					},
					"indices":59,
					"material":11
				},
				{
					"attributes":{
						"POSITION":60,
						"NORMAL":61,
						"TEXCOORD_0":62,
						"TEXCOORD_1":63
					},
					"indices":64,
					"material":12
				},
				{
					"attributes":{
						"POSITION":65,
						"NORMAL":66,
						"TEXCOORD_0":67,
						"TEXCOORD_1":68
					},
					"indices":69,
					"material":13
				}
			]
		}
	],
	"textures":[
		{
			"sampler":0,
			"source":0
		},
		{
			"sampler":0,
			"source":1
		}
	],
	"images":[
		{
			"mimeType":"image/png",
			"name":"cliff_n",
			"uri":"textures/cliff_n.png"
		},
		{
			"mimeType":"image/png",
			"name":"stone_bc",
			"uri":"textures/stone_bc.png"
		}
	],
	"accessors":[
		{
			"bufferView":0,
			"componentType":5126,
			"count":13495,
			"max":[
				11.988914489746094,
				7.0845794677734375,
				3.302274227142334
			],
			"min":[
				-4.882627487182617,
				-11.38650131225586,
				-12.643216133117676
			],
			"type":"VEC3"
		},
		{
			"bufferView":1,
			"componentType":5126,
			"count":13495,
			"type":"VEC3"
		},
		{
			"bufferView":2,
			"componentType":5126,
			"count":13495,
			"type":"VEC2"
		},
		{
			"bufferView":3,
			"componentType":5126,
			"count":13495,
			"type":"VEC2"
		},
		{
			"bufferView":4,
			"componentType":5123,
			"count":69696,
			"type":"SCALAR"
		},
		{
			"bufferView":5,
			"componentType":5126,
			"count":562,
			"max":[
				10.58251953125,
				-8.58558177947998,
				-3.75742769241333
			],
			"min":[
				-6.889736175537109,
				-12.828933715820312,
				-20.191940307617188
			],
			"type":"VEC3"
		},
		{
			"bufferView":6,
			"componentType":5126,
			"count":562,
			"type":"VEC3"
		},
		{
			"bufferView":7,
			"componentType":5126,
			"count":562,
			"type":"VEC2"
		},
		{
			"bufferView":8,
			"componentType":5126,
			"count":562,
			"type":"VEC2"
		},
		{
			"bufferView":9,
			"componentType":5123,
			"count":888,
			"type":"SCALAR"
		},
		{
			"bufferView":10,
			"componentType":5126,
			"count":89,
			"max":[
				-6.251036643981934,
				-7.945949554443359,
				-4.630275726318359
			],
			"min":[
				-7.888379096984863,
				-8.788763999938965,
				-6.2308030128479
			],
			"type":"VEC3"
		},
		{
			"bufferView":11,
			"componentType":5126,
			"count":89,
			"type":"VEC3"
		},
		{
			"bufferView":12,
			"componentType":5126,
			"count":89,
			"type":"VEC2"
		},
		{
			"bufferView":13,
			"componentType":5126,
			"count":89,
			"type":"VEC2"
		},
		{
			"bufferView":14,
			"componentType":5123,
			"count":156,
			"type":"SCALAR"
		},
		{
			"bufferView":15,
			"componentType":5126,
			"count":367,
			"max":[
				-2.2133820056915283,
				-5.76743221282959,
				-2.1819257736206055
			],
			"min":[
				-7.779143810272217,
				-11.251194953918457,
				-7.63602876663208
			],
			"type":"VEC3"
		},
		{
			"bufferView":16,
			"componentType":5126,
			"count":367,
			"type":"VEC3"
		},
		{
			"bufferView":17,
			"componentType":5126,
			"count":367,
			"type":"VEC2"
		},
		{
			"bufferView":18,
			"componentType":5126,
			"count":367,
			"type":"VEC2"
		},
		{
			"bufferView":19,
			"componentType":5123,
			"count":582,
			"type":"SCALAR"
		},
		{
			"bufferView":20,
			"componentType":5126,
			"count":357,
			"max":[
				11.81793212890625,
				-7.599398612976074,
				-2.1819257736206055
			],
			"min":[
				-7.779143810272217,
				-15.196763038635254,
				-25.36045265197754
			],
			"type":"VEC3"
		},
		{
			"bufferView":21,
			"componentType":5126,
			"count":357,
			"type":"VEC3"
		},
		{
			"bufferView":22,
			"componentType":5126,
			"count":357,
			"type":"VEC2"
		},
		{
			"bufferView":23,
			"componentType":5126,
			"count":357,
			"type":"VEC2"
		},
		{
			"bufferView":24,
			"componentType":5123,
			"count":378,
			"type":"SCALAR"
		},
		{
			"bufferView":25,
			"componentType":5126,
			"count":5281,
			"max":[
				11.427838325500488,
				-6.900162696838379,
				-2.5308732986450195
			],
			"min":[
				-9.164876937866211,
				-14.97892951965332,
				-26.40779685974121
			],
			"type":"VEC3"
		},
		{
			"bufferView":26,
			"componentType":5126,
			"count":5281,
			"type":"VEC3"
		},
		{
			"bufferView":27,
			"componentType":5126,
			"count":5281,
			"type":"VEC2"
		},
		{
			"bufferView":28,
			"componentType":5126,
			"count":5281,
			"type":"VEC2"
		},
		{
			"bufferView":29,
			"componentType":5123,
			"count":6801,
			"type":"SCALAR"
		},
		{
			"bufferView":30,
			"componentType":5126,
			"count":54,
			"max":[
				11.81793212890625,
				-12.102069854736328,
				-23.618085861206055
			],
			"min":[
				9.94092082977295,
				-15.196763038635254,
				-25.36045265197754
			],
			"type":"VEC3"
		},
		{
			"bufferView":31,
			"componentType":5126,
			"count":54,
			"type":"VEC3"
		},
		{
			"bufferView":32,
			"componentType":5126,
			"count":54,
			"type":"VEC2"
		},
		{
			"bufferView":33,
			"componentType":5126,
			"count":54,
			"type":"VEC2"
		},
		{
			"bufferView":34,
			"componentType":5123,
			"count":81,
			"type":"SCALAR"
		},
		{
			"bufferView":35,
			"componentType":5126,
			"count":513,
			"max":[
				-3.387119770050049,
				-3.9147369861602783,
				-2.4904208183288574
			],
			"min":[
				-8.315239906311035,
				-8.429025650024414,
				-7.099807262420654
			],
			"type":"VEC3"
		},
		{
			"bufferView":36,
			"componentType":5126,
			"count":513,
			"type":"VEC3"
		},
		{
			"bufferView":37,
			"componentType":5126,
			"count":513,
			"type":"VEC2"
		},
		{
			"bufferView":38,
			"componentType":5126,
			"count":513,
			"type":"VEC2"
		},
		{
			"bufferView":39,
			"componentType":5123,
			"count":888,
			"type":"SCALAR"
		},
		{
			"bufferView":40,
			"componentType":5126,
			"count":62,
			"max":[
				-3.8686161041259766,
				-7.2741289138793945,
				-4.994543552398682
			],
			"min":[
				-5.7344746589660645,
				-10.176183700561523,
				-6.691278457641602
			],
			"type":"VEC3"
		},
		{
			"bufferView":41,
			"componentType":5126,
			"count":62,
			"type":"VEC3"
		},
		{
			"bufferView":42,
			"componentType":5126,
			"count":62,
			"type":"VEC2"
		},
		{
			"bufferView":43,
			"componentType":5126,
			"count":62,
			"type":"VEC2"
		},
		{
			"bufferView":44,
			"componentType":5123,
			"count":84,
			"type":"SCALAR"
		},
		{
			"bufferView":45,
			"componentType":5126,
			"count":1111,
			"max":[
				8.49721908569336,
				-8.048246383666992,
				-5.711567401885986
			],
			"min":[
				-7.6215128898620605,
				-13.104368209838867,
				-23.421348571777344
			],
			"type":"VEC3"
		},
		{
			"bufferView":46,
			"componentType":5126,
			"count":1111,
			"type":"VEC3"
		},
		{
			"bufferView":47,
			"componentType":5126,
			"count":1111,
			"type":"VEC2"
		},
		{
			"bufferView":48,
			"componentType":5126,
			"count":1111,
			"type":"VEC2"
		},
		{
			"bufferView":49,
			"componentType":5123,
			"count":1776,
			"type":"SCALAR"
		},
		{
			"bufferView":50,
			"componentType":5126,
			"count":389,
			"max":[
				7.899837017059326,
				-9.74045181274414,
				-14.24985122680664
			],
			"min":[
				-0.5830551385879517,
				-14.136539459228516,
				-22.832975387573242
			],
			"type":"VEC3"
		},
		{
			"bufferView":51,
			"componentType":5126,
			"count":389,
			"type":"VEC3"
		},
		{
			"bufferView":52,
			"componentType":5126,
			"count":389,
			"type":"VEC2"
		},
		{
			"bufferView":53,
			"componentType":5126,
			"count":389,
			"type":"VEC2"
		},
		{
			"bufferView":54,
			"componentType":5123,
			"count":588,
			"type":"SCALAR"
		},
		{
			"bufferView":55,
			"componentType":5126,
			"count":1114,
			"max":[
				10.353472709655762,
				-7.668053150177002,
				-18.201618194580078
			],
			"min":[
				1.9642022848129272,
				-14.507064819335938,
				-24.587114334106445
			],
			"type":"VEC3"
		},
		{
			"bufferView":56,
			"componentType":5126,
			"count":1114,
			"type":"VEC3"
		},
		{
			"bufferView":57,
			"componentType":5126,
			"count":1114,
			"type":"VEC2"
		},
		{
			"bufferView":58,
			"componentType":5126,
			"count":1114,
			"type":"VEC2"
		},
		{
			"bufferView":59,
			"componentType":5123,
			"count":1692,
			"type":"SCALAR"
		},
		{
			"bufferView":60,
			"componentType":5126,
			"count":235,
			"max":[
				10.353472709655762,
				-7.668053150177002,
				-18.201618194580078
			],
			"min":[
				1.9642022848129272,
				-12.0444974899292,
				-24.587114334106445
			],
			"type":"VEC3"
		},
		{
			"bufferView":61,
			"componentType":5126,
			"count":235,
			"type":"VEC3"
		},
		{
			"bufferView":62,
			"componentType":5126,
			"count":235,
			"type":"VEC2"
		},
		{
			"bufferView":63,
			"componentType":5126,
			"count":235,
			"type":"VEC2"
		},
		{
			"bufferView":64,
			"componentType":5123,
			"count":360,
			"type":"SCALAR"
		},
		{
			"bufferView":65,
			"componentType":5126,
			"count":114,
			"max":[
				1.8186607360839844,
				-12.364291191101074,
				-14.231881141662598
			],
			"min":[
				1.2829475402832031,
				-12.731496810913086,
				-14.738292694091797
			],
			"type":"VEC3"
		},
		{
			"bufferView":66,
			"componentType":5126,
			"count":114,
			"type":"VEC3"
		},
		{
			"bufferView":67,
			"componentType":5126,
			"count":114,
			"type":"VEC2"
		},
		{
			"bufferView":68,
			"componentType":5126,
			"count":114,
			"type":"VEC2"
		},
		{
			"bufferView":69,
			"componentType":5123,
			"count":144,
			"type":"SCALAR"
		}
	],
	"bufferViews":[
		{
			"buffer":0,
			"byteLength":161940,
			"byteOffset":0,
			"target":34962
		},
		{
			"buffer":0,
			"byteLength":161940,
			"byteOffset":161940,
			"target":34962
		},
		{
			"buffer":0,
			"byteLength":107960,
			"byteOffset":323880,
			"target":34962
		},
		{
			"buffer":0,
			"byteLength":107960,
			"byteOffset":431840,
			"target":34962
		},
		{
			"buffer":0,
			"byteLength":139392,
			"byteOffset":539800,
			"target":34963
		},
		{
			"buffer":0,
			"byteLength":6744,
			"byteOffset":679192,
			"target":34962
		},
		{
			"buffer":0,
			"byteLength":6744,
			"byteOffset":685936,
			"target":34962
		},
		{
			"buffer":0,
			"byteLength":4496,
			"byteOffset":692680,
			"target":34962
		},
		{
			"buffer":0,
			"byteLength":4496,
			"byteOffset":697176,
			"target":34962
		},
		{
			"buffer":0,
			"byteLength":1776,
			"byteOffset":701672,
			"target":34963
		},
		{
			"buffer":0,
			"byteLength":1068,
			"byteOffset":703448,
			"target":34962
		},
		{
			"buffer":0,
			"byteLength":1068,
			"byteOffset":704516,
			"target":34962
		},
		{
			"buffer":0,
			"byteLength":712,
			"byteOffset":705584,
			"target":34962
		},
		{
			"buffer":0,
			"byteLength":712,
			"byteOffset":706296,
			"target":34962
		},
		{
			"buffer":0,
			"byteLength":312,
			"byteOffset":707008,
			"target":34963
		},
		{
			"buffer":0,
			"byteLength":4404,
			"byteOffset":707320,
			"target":34962
		},
		{
			"buffer":0,
			"byteLength":4404,
			"byteOffset":711724,
			"target":34962
		},
		{
			"buffer":0,
			"byteLength":2936,
			"byteOffset":716128,
			"target":34962
		},
		{
			"buffer":0,
			"byteLength":2936,
			"byteOffset":719064,
			"target":34962
		},
		{
			"buffer":0,
			"byteLength":1164,
			"byteOffset":722000,
			"target":34963
		},
		{
			"buffer":0,
			"byteLength":4284,
			"byteOffset":723164,
			"target":34962
		},
		{
			"buffer":0,
			"byteLength":4284,
			"byteOffset":727448,
			"target":34962
		},
		{
			"buffer":0,
			"byteLength":2856,
			"byteOffset":731732,
			"target":34962
		},
		{
			"buffer":0,
			"byteLength":2856,
			"byteOffset":734588,
			"target":34962
		},
		{
			"buffer":0,
			"byteLength":756,
			"byteOffset":737444,
			"target":34963
		},
		{
			"buffer":0,
			"byteLength":63372,
			"byteOffset":738200,
			"target":34962
		},
		{
			"buffer":0,
			"byteLength":63372,
			"byteOffset":801572,
			"target":34962
		},
		{
			"buffer":0,
			"byteLength":42248,
			"byteOffset":864944,
			"target":34962
		},
		{
			"buffer":0,
			"byteLength":42248,
			"byteOffset":907192,
			"target":34962
		},
		{
			"buffer":0,
			"byteLength":13602,
			"byteOffset":949440,
			"target":34963
		},
		{
			"buffer":0,
			"byteLength":648,
			"byteOffset":963044,
			"target":34962
		},
		{
			"buffer":0,
			"byteLength":648,
			"byteOffset":963692,
			"target":34962
		},
		{
			"buffer":0,
			"byteLength":432,
			"byteOffset":964340,
			"target":34962
		},
		{
			"buffer":0,
			"byteLength":432,
			"byteOffset":964772,
			"target":34962
		},
		{
			"buffer":0,
			"byteLength":162,
			"byteOffset":965204,
			"target":34963
		},
		{
			"buffer":0,
			"byteLength":6156,
			"byteOffset":965368,
			"target":34962
		},
		{
			"buffer":0,
			"byteLength":6156,
			"byteOffset":971524,
			"target":34962
		},
		{
			"buffer":0,
			"byteLength":4104,
			"byteOffset":977680,
			"target":34962
		},
		{
			"buffer":0,
			"byteLength":4104,
			"byteOffset":981784,
			"target":34962
		},
		{
			"buffer":0,
			"byteLength":1776,
			"byteOffset":985888,
			"target":34963
		},
		{
			"buffer":0,
			"byteLength":744,
			"byteOffset":987664,
			"target":34962
		},
		{
			"buffer":0,
			"byteLength":744,
			"byteOffset":988408,
			"target":34962
		},
		{
			"buffer":0,
			"byteLength":496,
			"byteOffset":989152,
			"target":34962
		},
		{
			"buffer":0,
			"byteLength":496,
			"byteOffset":989648,
			"target":34962
		},
		{
			"buffer":0,
			"byteLength":168,
			"byteOffset":990144,
			"target":34963
		},
		{
			"buffer":0,
			"byteLength":13332,
			"byteOffset":990312,
			"target":34962
		},
		{
			"buffer":0,
			"byteLength":13332,
			"byteOffset":1003644,
			"target":34962
		},
		{
			"buffer":0,
			"byteLength":8888,
			"byteOffset":1016976,
			"target":34962
		},
		{
			"buffer":0,
			"byteLength":8888,
			"byteOffset":1025864,
			"target":34962
		},
		{
			"buffer":0,
			"byteLength":3552,
			"byteOffset":1034752,
			"target":34963
		},
		{
			"buffer":0,
			"byteLength":4668,
			"byteOffset":1038304,
			"target":34962
		},
		{
			"buffer":0,
			"byteLength":4668,
			"byteOffset":1042972,
			"target":34962
		},
		{
			"buffer":0,
			"byteLength":3112,
			"byteOffset":1047640,
			"target":34962
		},
		{
			"buffer":0,
			"byteLength":3112,
			"byteOffset":1050752,
			"target":34962
		},
		{
			"buffer":0,
			"byteLength":1176,
			"byteOffset":1053864,
			"target":34963
		},
		{
			"buffer":0,
			"byteLength":13368,
			"byteOffset":1055040,
			"target":34962
		},
		{
			"buffer":0,
			"byteLength":13368,
			"byteOffset":1068408,
			"target":34962
		},
		{
			"buffer":0,
			"byteLength":8912,
			"byteOffset":1081776,
			"target":34962
		},
		{
			"buffer":0,
			"byteLength":8912,
			"byteOffset":1090688,
			"target":34962
		},
		{
			"buffer":0,
			"byteLength":3384,
			"byteOffset":1099600,
			"target":34963
		},
		{
			"buffer":0,
			"byteLength":2820,
			"byteOffset":1102984,
			"target":34962
		},
		{
			"buffer":0,
			"byteLength":2820,
			"byteOffset":1105804,
			"target":34962
		},
		{
			"buffer":0,
			"byteLength":1880,
			"byteOffset":1108624,
			"target":34962
		},
		{
			"buffer":0,
			"byteLength":1880,
			"byteOffset":1110504,
			"target":34962
		},
		{
			"buffer":0,
			"byteLength":720,
			"byteOffset":1112384,
			"target":34963
		},
		{
			"buffer":0,
			"byteLength":1368,
			"byteOffset":1113104,
			"target":34962
		},
		{
			"buffer":0,
			"byteLength":1368,
			"byteOffset":1114472,
			"target":34962
		},
		{
			"buffer":0,
			"byteLength":912,
			"byteOffset":1115840,
			"target":34962
		},
		{
			"buffer":0,
			"byteLength":912,
			"byteOffset":1116752,
			"target":34962
		},
		{
			"buffer":0,
			"byteLength":288,
			"byteOffset":1117664,
			"target":34963
		}
	],
	"samplers":[
		{
			"magFilter":9729,
			"minFilter":9987
		}
	],
	"buffers":[
		{
			"byteLength":1117952,
			"uri":"cell_x1_z2_render.bin"
		}
	]
}
