{
	"asset":{
		"generator":"Khronos glTF Blender I/O v4.5.51",
		"version":"2.0"
	},
	"scene":0,
	"scenes":[
		{
			"name":"Scene",
			"nodes":[
				0
			]
		}
	],
	"nodes":[
		{
			"mesh":0,
			"name":"cell_x-4_z-2",
			"rotation":[
				-0.057222168892621994,
				0.14404438436031342,
				0.008343655616044998,
				0.9878801703453064
			],
			"scale":[
				3.801828622817993,
				3.8018288612365723,
				3.8018288612365723
			],
			"translation":[
				-135.48138427734375,
				25.539344787597656,
				-44.72007751464844
			]
		}
	],
	"materials":[
		{
			"name":"stone_v0",
			"pbrMetallicRoughness":{
				"baseColorFactor":[
					0.32314321398735046,
					0.35153260827064514,
					0.3613067865371704,
					1
				],
				"metallicFactor":0,
				"roughnessFactor":0.9200000166893005
			}
		},
		{
			"name":"leafsDark",
			"pbrMetallicRoughness":{
				"baseColorFactor":[
					0.04817182570695877,
					0.11443537473678589,
					0.03310476616024971,
					1
				],
				"metallicFactor":0,
				"roughnessFactor":0.9200000166893005
			}
		},
		{
			"name":"woodBarkDark",
			"pbrMetallicRoughness":{
				"baseColorFactor":[
					0.11443537473678589,
					0.04666508734226227,
					0.016807375475764275,
					1
				],
				"metallicFactor":0,
				"roughnessFactor":0.9200000166893005
			}
		},
		{
			"name":"grass",
			"pbrMetallicRoughness":{
				"baseColorFactor":[
					0.15592646598815918,
					0.2961382567882538,
					0.0802198201417923,
					1
				],
				"metallicFactor":0,
				"roughnessFactor":0.9200000166893005
			}
		}
	],
	"meshes":[
		{
			"name":"Mesh stone_largeA.001",
			"primitives":[
				{
					"attributes":{
						"POSITION":0,
						"NORMAL":1,
						"TEXCOORD_0":2,
						"COLOR_0":3
					},
					"indices":4,
					"material":0
				},
				{
					"attributes":{
						"POSITION":5,
						"NORMAL":6,
						"TEXCOORD_0":7,
						"COLOR_0":8
					},
					"indices":9,
					"material":1
				},
				{
					"attributes":{
						"POSITION":10,
						"NORMAL":11,
						"TEXCOORD_0":12,
						"COLOR_0":13
					},
					"indices":14,
					"material":2
				},
				{
					"attributes":{
						"POSITION":15,
						"NORMAL":16,
						"TEXCOORD_0":17,
						"COLOR_0":18
					},
					"indices":19,
					"material":3
				}
			]
		}
	],
	"accessors":[
		{
			"bufferView":0,
			"componentType":5126,
			"count":146,
			"max":[
				0.3924533426761627,
				0.25977596640586853,
				0.5077307224273682
			],
			"min":[
				-0.3924533426761627,
				-2.9327650236887174e-16,
				-0.5077307224273682
			],
			"type":"VEC3"
		},
		{
			"bufferView":1,
			"componentType":5126,
			"count":146,
			"type":"VEC3"
		},
		{
			"bufferView":2,
			"componentType":5126,
			"count":146,
			"type":"VEC2"
		},
		{
			"bufferView":3,
			"componentType":5123,
			"count":146,
			"normalized":true,
			"type":"VEC4"
		},
		{
			"bufferView":4,
			"componentType":5123,
			"count":240,
			"type":"SCALAR"
		},
		{
			"bufferView":5,
			"componentType":5126,
			"count":333,
			"max":[
				3.894355297088623,
				-4.224923610687256,
				1.9961769580841064
			],
			"min":[
				3.237386703491211,
				-5.504429340362549,
				1.3433996438980103
			],
			"type":"VEC3"
		},
		{
			"bufferView":6,
			"componentType":5126,
			"count":333,
			"type":"VEC3"
		},
		{
			"bufferView":7,
			"componentType":5126,
			"count":333,
			"type":"VEC2"
		},
		{
			"bufferView":8,
			"componentType":5123,
			"count":333,
			"normalized":true,
			"type":"VEC4"
		},
		{
			"bufferView":9,
			"componentType":5123,
			"count":540,
			"type":"SCALAR"
		},
		{
			"bufferView":10,
			"componentType":5126,
			"count":91,
			"max":[
				3.6880669593811035,
				-5.4620442390441895,
				1.7370750904083252
			],
			"min":[
				3.4771361351013184,
				-6.151500225067139,
				1.488774299621582
			],
			"type":"VEC3"
		},
		{
			"bufferView":11,
			"componentType":5126,
			"count":91,
			"type":"VEC3"
		},
		{
			"bufferView":12,
			"componentType":5126,
			"count":91,
			"type":"VEC2"
		},
		{
			"bufferView":13,
			"componentType":5123,
			"count":91,
			"normalized":true,
			"type":"VEC4"
		},
		{
			"bufferView":14,
			"componentType":5123,
			"count":150,
			"type":"SCALAR"
		},
		{
			"bufferView":15,
			"componentType":5126,
			"count":420,
			"max":[
				4.821041584014893,
				1.1145366430282593,
				1.47797429561615
			],
			"min":[
				3.207242250442505,
				-5.855662822723389,
				-4.74766731262207
			],
			"type":"VEC3"
		},
		{
			"bufferView":16,
			"componentType":5126,
			"count":420,
			"type":"VEC3"
		},
		{
			"bufferView":17,
			"componentType":5126,
			"count":420,
			"type":"VEC2"
		},
		{
			"bufferView":18,
			"componentType":5123,
			"count":420,
			"normalized":true,
			"type":"VEC4"
		},
		{
			"bufferView":19,
			"componentType":5123,
			"count":540,
			"type":"SCALAR"
		}
	],
	"bufferViews":[
		{
			"buffer":0,
			"byteLength":1752,
			"byteOffset":0,
			"target":34962
		},
		{
			"buffer":0,
			"byteLength":1752,
			"byteOffset":1752,
			"target":34962
		},
		{
			"buffer":0,
			"byteLength":1168,
			"byteOffset":3504,
			"target":34962
		},
		{
			"buffer":0,
			"byteLength":1168,
			"byteOffset":4672,
			"target":34962
		},
		{
			"buffer":0,
			"byteLength":480,
			"byteOffset":5840,
			"target":34963
		},
		{
			"buffer":0,
			"byteLength":3996,
			"byteOffset":6320,
			"target":34962
		},
		{
			"buffer":0,
			"byteLength":3996,
			"byteOffset":10316,
			"target":34962
		},
		{
			"buffer":0,
			"byteLength":2664,
			"byteOffset":14312,
			"target":34962
		},
		{
			"buffer":0,
			"byteLength":2664,
			"byteOffset":16976,
			"target":34962
		},
		{
			"buffer":0,
			"byteLength":1080,
			"byteOffset":19640,
			"target":34963
		},
		{
			"buffer":0,
			"byteLength":1092,
			"byteOffset":20720,
			"target":34962
		},
		{
			"buffer":0,
			"byteLength":1092,
			"byteOffset":21812,
			"target":34962
		},
		{
			"buffer":0,
			"byteLength":728,
			"byteOffset":22904,
			"target":34962
		},
		{
			"buffer":0,
			"byteLength":728,
			"byteOffset":23632,
			"target":34962
		},
		{
			"buffer":0,
			"byteLength":300,
			"byteOffset":24360,
			"target":34963
		},
		{
			"buffer":0,
			"byteLength":5040,
			"byteOffset":24660,
			"target":34962
		},
		{
			"buffer":0,
			"byteLength":5040,
			"byteOffset":29700,
			"target":34962
		},
		{
			"buffer":0,
			"byteLength":3360,
			"byteOffset":34740,
			"target":34962
		},
		{
			"buffer":0,
			"byteLength":3360,
			"byteOffset":38100,
			"target":34962
		},
		{
			"buffer":0,
			"byteLength":1080,
			"byteOffset":41460,
			"target":34963
		}
	],
	"buffers":[
		{
			"byteLength":42540,
			"uri":"cell_x-4_z-2_render.bin"
		}
	]
}
