{
	"asset":{
		"generator":"Khronos glTF Blender I/O v4.5.51",
		"version":"2.0"
	},
	"scene":0,
	"scenes":[
		{
			"name":"Scene",
			"nodes":[
				0
			]
		}
	],
	"nodes":[
		{
			"mesh":0,
			"name":"cell_x-1_z2",
			"rotation":[
				0,
				0.6049013137817383,
				0,
				0.7963005900382996
			],
			"scale":[
				1.4571640491485596,
				1.4571640491485596,
				1.4571640491485596
			],
			"translation":[
				-34.67843246459961,
				1.8560458421707153,
				94
			]
		}
	],
	"materials":[
		{
			"doubleSided":true,
			"name":"sol_falaise",
			"normalTexture":{
				"index":0,
				"scale":0.800000011920929
			},
			"pbrMetallicRoughness":{
				"baseColorFactor":[
					0.6514056324958801,
					0.6104955673217773,
					0.5149176716804504,
					1
				],
				"baseColorTexture":{
					"index":1
				},
				"metallicFactor":0,
				"roughnessFactor":0.949999988079071
			}
		},
		{
			"name":"stone_v1",
			"pbrMetallicRoughness":{
				"baseColorFactor":[
					0.2541520893573761,
					0.28744083642959595,
					0.3049873113632202,
					1
				],
				"metallicFactor":0,
				"roughnessFactor":0.9200000166893005
			}
		},
		{
			"name":"_defaultMat",
			"pbrMetallicRoughness":{
				"baseColorFactor":[
					0.4564110338687897,
					0.4564110338687897,
					0.4125426113605499,
					1
				],
				"metallicFactor":0,
				"roughnessFactor":0.9200000166893005
			}
		},
		{
			"name":"stone_v0",
			"pbrMetallicRoughness":{
				"baseColorFactor":[
					0.32314321398735046,
					0.35153260827064514,
					0.3613067865371704,
					1
				],
				"metallicFactor":0,
				"roughnessFactor":0.9200000166893005
			}
		},
		{
			"name":"leafsGreen",
			"pbrMetallicRoughness":{
				"baseColorFactor":[
					0.11443537473678589,
					0.23074005544185638,
					0.06301001459360123,
					1
				],
				"metallicFactor":0,
				"roughnessFactor":0.9200000166893005
			}
		},
		{
			"name":"woodBark",
			"pbrMetallicRoughness":{
				"baseColorFactor":[
					0.2015562504529953,
					0.08437620848417282,
					0.02955683507025242,
					1
				],
				"metallicFactor":0,
				"roughnessFactor":0.9200000166893005
			}
		},
		{
			"name":"grass",
			"pbrMetallicRoughness":{
				"baseColorFactor":[
					0.15592646598815918,
					0.2961382567882538,
					0.0802198201417923,
					1
				],
				"metallicFactor":0,
				"roughnessFactor":0.9200000166893005
			}
		},
		{
			"name":"colorRed",
			"pbrMetallicRoughness":{
				"baseColorFactor":[
					0.34191441535949707,
					0.08437620848417282,
					0.05951123684644699,
					1
				],
				"metallicFactor":0,
				"roughnessFactor":0.9200000166893005
			}
		},
		{
			"name":"dirt_v0",
			"pbrMetallicRoughness":{
				"baseColorFactor":[
					0.32314321398735046,
					0.24228112399578094,
					0.1384316086769104,
					1
				],
				"metallicFactor":0,
				"roughnessFactor":0.9200000166893005
			}
		},
		{
			"name":"stone_v2",
			"pbrMetallicRoughness":{
				"baseColorFactor":[
					0.38132601976394653,
					0.38132601976394653,
					0.3324515223503113,
					1
				],
				"metallicFactor":0,
				"roughnessFactor":0.9200000166893005
			}
		},
		{
			"name":"dirt_v3",
			"pbrMetallicRoughness":{
				"baseColorFactor":[
					0.20863686501979828,
					0.15896083414554596,
					0.09084171056747437,
					1
				],
				"metallicFactor":0,
				"roughnessFactor":0.9200000166893005
			}
		}
	],
	"meshes":[
		{
			"name":"SM_ENV_cliff_castle_01_instantmeshesexp_02.011",
			"primitives":[
				{
					"attributes":{
						"POSITION":0,
						"NORMAL":1,
						"TEXCOORD_0":2,
						"TEXCOORD_1":3,
						"COLOR_0":4
					},
					"indices":5,
					"material":0
				},
				{
					"attributes":{
						"POSITION":6,
						"NORMAL":7,
						"TEXCOORD_0":8,
						"TEXCOORD_1":9,
						"COLOR_0":10
					},
					"indices":11,
					"material":1
				},
				{
					"attributes":{
						"POSITION":12,
						"NORMAL":13,
						"TEXCOORD_0":14,
						"TEXCOORD_1":15,
						"COLOR_0":16
					},
					"indices":17,
					"material":2
				},
				{
					"attributes":{
						"POSITION":18,
						"NORMAL":19,
						"TEXCOORD_0":20,
						"TEXCOORD_1":21,
						"COLOR_0":22
					},
					"indices":23,
					"material":3
				},
				{
					"attributes":{
						"POSITION":24,
						"NORMAL":25,
						"TEXCOORD_0":26,
						"TEXCOORD_1":27,
						"COLOR_0":28
					},
					"indices":29,
					"material":4
				},
				{
					"attributes":{
						"POSITION":30,
						"NORMAL":31,
						"TEXCOORD_0":32,
						"TEXCOORD_1":33,
						"COLOR_0":34
					},
					"indices":35,
					"material":5
				},
				{
					"attributes":{
						"POSITION":36,
						"NORMAL":37,
						"TEXCOORD_0":38,
						"TEXCOORD_1":39,
						"COLOR_0":40
					},
					"indices":41,
					"material":6
				},
				{
					"attributes":{
						"POSITION":42,
						"NORMAL":43,
						"TEXCOORD_0":44,
						"TEXCOORD_1":45,
						"COLOR_0":46
					},
					"indices":47,
					"material":7
				},
				{
					"attributes":{
						"POSITION":48,
						"NORMAL":49,
						"TEXCOORD_0":50,
						"TEXCOORD_1":51,
						"COLOR_0":52
					},
					"indices":53,
					"material":8
				},
				{
					"attributes":{
						"POSITION":54,
						"NORMAL":55,
						"TEXCOORD_0":56,
						"TEXCOORD_1":57,
						"COLOR_0":58
					},
					"indices":59,
					"material":9
				},
				{
					"attributes":{
						"POSITION":60,
						"NORMAL":61,
						"TEXCOORD_0":62,
						"TEXCOORD_1":63,
						"COLOR_0":64
					},
					"indices":65,
					"material":10
				}
			]
		}
	],
	"textures":[
		{
			"sampler":0,
			"source":0
		},
		{
			"sampler":0,
			"source":1
		}
	],
	"images":[
		{
			"mimeType":"image/png",
			"name":"cliff_n",
			"uri":"textures/cliff_n.png"
		},
		{
			"mimeType":"image/png",
			"name":"stone_bc",
			"uri":"textures/stone_bc.png"
		}
	],
	"accessors":[
		{
			"bufferView":0,
			"componentType":5126,
			"count":17760,
			"max":[
				10.817801475524902,
				21.131757736206055,
				24.324207305908203
			],
			"min":[
				-4.882627487182617,
				-5.545106887817383,
				-3.2813682556152344
			],
			"type":"VEC3"
		},
		{
			"bufferView":1,
			"componentType":5126,
			"count":17760,
			"type":"VEC3"
		},
		{
			"bufferView":2,
			"componentType":5126,
			"count":17760,
			"type":"VEC2"
		},
		{
			"bufferView":3,
			"componentType":5126,
			"count":17760,
			"type":"VEC2"
		},
		{
			"bufferView":4,
			"componentType":5123,
			"count":17760,
			"normalized":true,
			"type":"VEC4"
		},
		{
			"bufferView":5,
			"componentType":5123,
			"count":92070,
			"type":"SCALAR"
		},
		{
			"bufferView":6,
			"componentType":5126,
			"count":277,
			"max":[
				4.2333502769470215,
				-2.6395089626312256,
				1.9319274425506592
			],
			"min":[
				1.0133044719696045,
				-5.5422258377075195,
				-3.1817023754119873
			],
			"type":"VEC3"
		},
		{
			"bufferView":7,
			"componentType":5126,
			"count":277,
			"type":"VEC3"
		},
		{
			"bufferView":8,
			"componentType":5126,
			"count":277,
			"type":"VEC2"
		},
		{
			"bufferView":9,
			"componentType":5126,
			"count":277,
			"type":"VEC2"
		},
		{
			"bufferView":10,
			"componentType":5123,
			"count":277,
			"normalized":true,
			"type":"VEC4"
		},
		{
			"bufferView":11,
			"componentType":5123,
			"count":504,
			"type":"SCALAR"
		},
		{
			"bufferView":12,
			"componentType":5126,
			"count":59,
			"max":[
				3.8645777702331543,
				-5.38858699798584,
				1.9319274425506592
			],
			"min":[
				1.0133044719696045,
				-5.5422258377075195,
				-0.817581295967102
			],
			"type":"VEC3"
		},
		{
			"bufferView":13,
			"componentType":5126,
			"count":59,
			"type":"VEC3"
		},
		{
			"bufferView":14,
			"componentType":5126,
			"count":59,
			"type":"VEC2"
		},
		{
			"bufferView":15,
			"componentType":5126,
			"count":59,
			"type":"VEC2"
		},
		{
			"bufferView":16,
			"componentType":5123,
			"count":59,
			"normalized":true,
			"type":"VEC4"
		},
		{
			"bufferView":17,
			"componentType":5123,
			"count":60,
			"type":"SCALAR"
		},
		{
			"bufferView":18,
			"componentType":5126,
			"count":390,
			"max":[
				13.312106132507324,
				0.7004737257957458,
				18.011913299560547
			],
			"min":[
				-0.005380004644393921,
				-5.486422061920166,
				0.005047619342803955
			],
			"type":"VEC3"
		},
		{
			"bufferView":19,
			"componentType":5126,
			"count":390,
			"type":"VEC3"
		},
		{
			"bufferView":20,
			"componentType":5126,
			"count":390,
			"type":"VEC2"
		},
		{
			"bufferView":21,
			"componentType":5126,
			"count":390,
			"type":"VEC2"
		},
		{
			"bufferView":22,
			"componentType":5123,
			"count":390,
			"normalized":true,
			"type":"VEC4"
		},
		{
			"bufferView":23,
			"componentType":5123,
			"count":624,
			"type":"SCALAR"
		},
		{
			"bufferView":24,
			"componentType":5126,
			"count":663,
			"max":[
				14.8143310546875,
				3.628066301345825,
				18.577579498291016
			],
			"min":[
				8.259637832641602,
				-1.3453677892684937,
				5.692973613739014
			],
			"type":"VEC3"
		},
		{
			"bufferView":25,
			"componentType":5126,
			"count":663,
			"type":"VEC3"
		},
		{
			"bufferView":26,
			"componentType":5126,
			"count":663,
			"type":"VEC2"
		},
		{
			"bufferView":27,
			"componentType":5126,
			"count":663,
			"type":"VEC2"
		},
		{
			"bufferView":28,
			"componentType":5123,
			"count":663,
			"normalized":true,
			"type":"VEC4"
		},
		{
			"bufferView":29,
			"componentType":5123,
			"count":1074,
			"type":"SCALAR"
		},
		{
			"bufferView":30,
			"componentType":5126,
			"count":444,
			"max":[
				14.22195816040039,
				1.9395904541015625,
				17.942049026489258
			],
			"min":[
				8.859939575195312,
				-1.4532469511032104,
				6.272932529449463
			],
			"type":"VEC3"
		},
		{
			"bufferView":31,
			"componentType":5126,
			"count":444,
			"type":"VEC3"
		},
		{
			"bufferView":32,
			"componentType":5126,
			"count":444,
			"type":"VEC2"
		},
		{
			"bufferView":33,
			"componentType":5126,
			"count":444,
			"type":"VEC2"
		},
		{
			"bufferView":34,
			"componentType":5123,
			"count":444,
			"normalized":true,
			"type":"VEC4"
		},
		{
			"bufferView":35,
			"componentType":5123,
			"count":672,
			"type":"SCALAR"
		},
		{
			"bufferView":36,
			"componentType":5126,
			"count":5805,
			"max":[
				14.715129852294922,
				-0.007735013961791992,
				19.784133911132812
			],
			"min":[
				-0.03961533308029175,
				-4.308115005493164,
				-4.166691780090332
			],
			"type":"VEC3"
		},
		{
			"bufferView":37,
			"componentType":5126,
			"count":5805,
			"type":"VEC3"
		},
		{
			"bufferView":38,
			"componentType":5126,
			"count":5805,
			"type":"VEC2"
		},
		{
			"bufferView":39,
			"componentType":5126,
			"count":5805,
			"type":"VEC2"
		},
		{
			"bufferView":40,
			"componentType":5123,
			"count":5805,
			"normalized":true,
			"type":"VEC4"
		},
		{
			"bufferView":41,
			"componentType":5123,
			"count":7722,
			"type":"SCALAR"
		},
		{
			"bufferView":42,
			"componentType":5126,
			"count":72,
			"max":[
				13.42573356628418,
				0.02082926034927368,
				18.103076934814453
			],
			"min":[
				13.155991554260254,
				-0.24498945474624634,
				17.83333396911621
			],
			"type":"VEC3"
		},
		{
			"bufferView":43,
			"componentType":5126,
			"count":72,
			"type":"VEC3"
		},
		{
			"bufferView":44,
			"componentType":5126,
			"count":72,
			"type":"VEC2"
		},
		{
			"bufferView":45,
			"componentType":5126,
			"count":72,
			"type":"VEC2"
		},
		{
			"bufferView":46,
			"componentType":5123,
			"count":72,
			"normalized":true,
			"type":"VEC4"
		},
		{
			"bufferView":47,
			"componentType":5123,
			"count":108,
			"type":"SCALAR"
		},
		{
			"bufferView":48,
			"componentType":5126,
			"count":59,
			"max":[
				0.9208469986915588,
				-4.265270709991455,
				-3.3414599895477295
			],
			"min":[
				-0.11124277114868164,
				-4.4127702713012695,
				-4.220133304595947
			],
			"type":"VEC3"
		},
		{
			"bufferView":49,
			"componentType":5126,
			"count":59,
			"type":"VEC3"
		},
		{
			"bufferView":50,
			"componentType":5126,
			"count":59,
			"type":"VEC2"
		},
		{
			"bufferView":51,
			"componentType":5126,
			"count":59,
			"type":"VEC2"
		},
		{
			"bufferView":52,
			"componentType":5123,
			"count":59,
			"normalized":true,
			"type":"VEC4"
		},
		{
			"bufferView":53,
			"componentType":5123,
			"count":93,
			"type":"SCALAR"
		},
		{
			"bufferView":54,
			"componentType":5126,
			"count":30,
			"max":[
				5.036585807800293,
				-4.177154541015625,
				-4.057013511657715
			],
			"min":[
				4.6172404289245605,
				-4.4127702713012695,
				-4.521755218505859
			],
			"type":"VEC3"
		},
		{
			"bufferView":55,
			"componentType":5126,
			"count":30,
			"type":"VEC3"
		},
		{
			"bufferView":56,
			"componentType":5126,
			"count":30,
			"type":"VEC2"
		},
		{
			"bufferView":57,
			"componentType":5126,
			"count":30,
			"type":"VEC2"
		},
		{
			"bufferView":58,
			"componentType":5123,
			"count":30,
			"normalized":true,
			"type":"VEC4"
		},
		{
			"bufferView":59,
			"componentType":5123,
			"count":48,
			"type":"SCALAR"
		},
		{
			"bufferView":60,
			"componentType":5126,
			"count":58,
			"max":[
				6.35106086730957,
				-4.308115005493164,
				-3.308566093444824
			],
			"min":[
				5.593192100524902,
				-4.4127702713012695,
				-3.8898746967315674
			],
			"type":"VEC3"
		},
		{
			"bufferView":61,
			"componentType":5126,
			"count":58,
			"type":"VEC3"
		},
		{
			"bufferView":62,
			"componentType":5126,
			"count":58,
			"type":"VEC2"
		},
		{
			"bufferView":63,
			"componentType":5126,
			"count":58,
			"type":"VEC2"
		},
		{
			"bufferView":64,
			"componentType":5123,
			"count":58,
			"normalized":true,
			"type":"VEC4"
		},
		{
			"bufferView":65,
			"componentType":5123,
			"count":93,
			"type":"SCALAR"
		}
	],
	"bufferViews":[
		{
			"buffer":0,
			"byteLength":213120,
			"byteOffset":0,
			"target":34962
		},
		{
			"buffer":0,
			"byteLength":213120,
			"byteOffset":213120,
			"target":34962
		},
		{
			"buffer":0,
			"byteLength":142080,
			"byteOffset":426240,
			"target":34962
		},
		{
			"buffer":0,
			"byteLength":142080,
			"byteOffset":568320,
			"target":34962
		},
		{
			"buffer":0,
			"byteLength":142080,
			"byteOffset":710400,
			"target":34962
		},
		{
			"buffer":0,
			"byteLength":184140,
			"byteOffset":852480,
			"target":34963
		},
		{
			"buffer":0,
			"byteLength":3324,
			"byteOffset":1036620,
			"target":34962
		},
		{
			"buffer":0,
			"byteLength":3324,
			"byteOffset":1039944,
			"target":34962
		},
		{
			"buffer":0,
			"byteLength":2216,
			"byteOffset":1043268,
			"target":34962
		},
		{
			"buffer":0,
			"byteLength":2216,
			"byteOffset":1045484,
			"target":34962
		},
		{
			"buffer":0,
			"byteLength":2216,
			"byteOffset":1047700,
			"target":34962
		},
		{
			"buffer":0,
			"byteLength":1008,
			"byteOffset":1049916,
			"target":34963
		},
		{
			"buffer":0,
			"byteLength":708,
			"byteOffset":1050924,
			"target":34962
		},
		{
			"buffer":0,
			"byteLength":708,
			"byteOffset":1051632,
			"target":34962
		},
		{
			"buffer":0,
			"byteLength":472,
			"byteOffset":1052340,
			"target":34962
		},
		{
			"buffer":0,
			"byteLength":472,
			"byteOffset":1052812,
			"target":34962
		},
		{
			"buffer":0,
			"byteLength":472,
			"byteOffset":1053284,
			"target":34962
		},
		{
			"buffer":0,
			"byteLength":120,
			"byteOffset":1053756,
			"target":34963
		},
		{
			"buffer":0,
			"byteLength":4680,
			"byteOffset":1053876,
			"target":34962
		},
		{
			"buffer":0,
			"byteLength":4680,
			"byteOffset":1058556,
			"target":34962
		},
		{
			"buffer":0,
			"byteLength":3120,
			"byteOffset":1063236,
			"target":34962
		},
		{
			"buffer":0,
			"byteLength":3120,
			"byteOffset":1066356,
			"target":34962
		},
		{
			"buffer":0,
			"byteLength":3120,
			"byteOffset":1069476,
			"target":34962
		},
		{
			"buffer":0,
			"byteLength":1248,
			"byteOffset":1072596,
			"target":34963
		},
		{
			"buffer":0,
			"byteLength":7956,
			"byteOffset":1073844,
			"target":34962
		},
		{
			"buffer":0,
			"byteLength":7956,
			"byteOffset":1081800,
			"target":34962
		},
		{
			"buffer":0,
			"byteLength":5304,
			"byteOffset":1089756,
			"target":34962
		},
		{
			"buffer":0,
			"byteLength":5304,
			"byteOffset":1095060,
			"target":34962
		},
		{
			"buffer":0,
			"byteLength":5304,
			"byteOffset":1100364,
			"target":34962
		},
		{
			"buffer":0,
			"byteLength":2148,
			"byteOffset":1105668,
			"target":34963
		},
		{
			"buffer":0,
			"byteLength":5328,
			"byteOffset":1107816,
			"target":34962
		},
		{
			"buffer":0,
			"byteLength":5328,
			"byteOffset":1113144,
			"target":34962
		},
		{
			"buffer":0,
			"byteLength":3552,
			"byteOffset":1118472,
			"target":34962
		},
		{
			"buffer":0,
			"byteLength":3552,
			"byteOffset":1122024,
			"target":34962
		},
		{
			"buffer":0,
			"byteLength":3552,
			"byteOffset":1125576,
			"target":34962
		},
		{
			"buffer":0,
			"byteLength":1344,
			"byteOffset":1129128,
			"target":34963
		},
		{
			"buffer":0,
			"byteLength":69660,
			"byteOffset":1130472,
			"target":34962
		},
		{
			"buffer":0,
			"byteLength":69660,
			"byteOffset":1200132,
			"target":34962
		},
		{
			"buffer":0,
			"byteLength":46440,
			"byteOffset":1269792,
			"target":34962
		},
		{
			"buffer":0,
			"byteLength":46440,
			"byteOffset":1316232,
			"target":34962
		},
		{
			"buffer":0,
			"byteLength":46440,
			"byteOffset":1362672,
			"target":34962
		},
		{
			"buffer":0,
			"byteLength":15444,
			"byteOffset":1409112,
			"target":34963
		},
		{
			"buffer":0,
			"byteLength":864,
			"byteOffset":1424556,
			"target":34962
		},
		{
			"buffer":0,
			"byteLength":864,
			"byteOffset":1425420,
			"target":34962
		},
		{
			"buffer":0,
			"byteLength":576,
			"byteOffset":1426284,
			"target":34962
		},
		{
			"buffer":0,
			"byteLength":576,
			"byteOffset":1426860,
			"target":34962
		},
		{
			"buffer":0,
			"byteLength":576,
			"byteOffset":1427436,
			"target":34962
		},
		{
			"buffer":0,
			"byteLength":216,
			"byteOffset":1428012,
			"target":34963
		},
		{
			"buffer":0,
			"byteLength":708,
			"byteOffset":1428228,
			"target":34962
		},
		{
			"buffer":0,
			"byteLength":708,
			"byteOffset":1428936,
			"target":34962
		},
		{
			"buffer":0,
			"byteLength":472,
			"byteOffset":1429644,
			"target":34962
		},
		{
			"buffer":0,
			"byteLength":472,
			"byteOffset":1430116,
			"target":34962
		},
		{
			"buffer":0,
			"byteLength":472,
			"byteOffset":1430588,
			"target":34962
		},
		{
			"buffer":0,
			"byteLength":186,
			"byteOffset":1431060,
			"target":34963
		},
		{
			"buffer":0,
			"byteLength":360,
			"byteOffset":1431248,
			"target":34962
		},
		{
			"buffer":0,
			"byteLength":360,
			"byteOffset":1431608,
			"target":34962
		},
		{
			"buffer":0,
			"byteLength":240,
			"byteOffset":1431968,
			"target":34962
		},
		{
			"buffer":0,
			"byteLength":240,
			"byteOffset":1432208,
			"target":34962
		},
		{
			"buffer":0,
			"byteLength":240,
			"byteOffset":1432448,
			"target":34962
		},
		{
			"buffer":0,
			"byteLength":96,
			"byteOffset":1432688,
			"target":34963
		},
		{
			"buffer":0,
			"byteLength":696,
			"byteOffset":1432784,
			"target":34962
		},
		{
			"buffer":0,
			"byteLength":696,
			"byteOffset":1433480,
			"target":34962
		},
		{
			"buffer":0,
			"byteLength":464,
			"byteOffset":1434176,
			"target":34962
		},
		{
			"buffer":0,
			"byteLength":464,
			"byteOffset":1434640,
			"target":34962
		},
		{
			"buffer":0,
			"byteLength":464,
			"byteOffset":1435104,
			"target":34962
		},
		{
			"buffer":0,
			"byteLength":186,
			"byteOffset":1435568,
			"target":34963
		}
	],
	"samplers":[
		{
			"magFilter":9729,
			"minFilter":9987
		}
	],
	"buffers":[
		{
			"byteLength":1435756,
			"uri":"cell_x-1_z2_render.bin"
		}
	]
}
