{
	"asset":{
		"generator":"Khronos glTF Blender I/O v4.5.51",
		"version":"2.0"
	},
	"scene":0,
	"scenes":[
		{
			"name":"Scene",
			"nodes":[
				0
			]
		}
	],
	"nodes":[
		{
			"mesh":0,
			"name":"cell_x-1_z-1"
		}
	],
	"materials":[
		{
			"name":"wood",
			"pbrMetallicRoughness":{
				"baseColorFactor":[
					0.32314321398735046,
					0.1384316086769104,
					0.039546236395835876,
					1
				],
				"metallicFactor":0,
				"roughnessFactor":0.9200000166893005
			}
		},
		{
			"name":"stone_v0",
			"pbrMetallicRoughness":{
				"baseColorFactor":[
					0.32314321398735046,
					0.35153260827064514,
					0.3613067865371704,
					1
				],
				"metallicFactor":0,
				"roughnessFactor":0.9200000166893005
			}
		},
		{
			"name":"_defaultMat",
			"pbrMetallicRoughness":{
				"baseColorFactor":[
					0.4564110338687897,
					0.4564110338687897,
					0.4125426113605499,
					1
				],
				"metallicFactor":0,
				"roughnessFactor":0.9200000166893005
			}
		},
		{
			"name":"stone_v3",
			"pbrMetallicRoughness":{
				"baseColorFactor":[
					0.20863686501979828,
					0.2462013214826584,
					0.2622506618499756,
					1
				],
				"metallicFactor":0,
				"roughnessFactor":0.9200000166893005
			}
		},
		{
			"name":"stone_v2",
			"pbrMetallicRoughness":{
				"baseColorFactor":[
					0.38132601976394653,
					0.38132601976394653,
					0.3324515223503113,
					1
				],
				"metallicFactor":0,
				"roughnessFactor":0.9200000166893005
			}
		},
		{
			"name":"woodBark",
			"pbrMetallicRoughness":{
				"baseColorFactor":[
					0.2015562504529953,
					0.08437620848417282,
					0.02955683507025242,
					1
				],
				"metallicFactor":0,
				"roughnessFactor":0.9200000166893005
			}
		},
		{
			"name":"leafsGreen",
			"pbrMetallicRoughness":{
				"baseColorFactor":[
					0.11443537473678589,
					0.23074005544185638,
					0.06301001459360123,
					1
				],
				"metallicFactor":0,
				"roughnessFactor":0.9200000166893005
			}
		},
		{
			"name":"leafsFall",
			"pbrMetallicRoughness":{
				"baseColorFactor":[
					0.4564110338687897,
					0.18782077729701996,
					0.045186202973127365,
					1
				],
				"metallicFactor":0,
				"roughnessFactor":0.9200000166893005
			}
		},
		{
			"name":"woodBirch",
			"pbrMetallicRoughness":{
				"baseColorFactor":[
					0.7304607629776001,
					0.6583748459815979,
					0.5028864741325378,
					1
				],
				"metallicFactor":0,
				"roughnessFactor":0.9200000166893005
			}
		},
		{
			"name":"leafsDark",
			"pbrMetallicRoughness":{
				"baseColorFactor":[
					0.04817182570695877,
					0.11443537473678589,
					0.03310476616024971,
					1
				],
				"metallicFactor":0,
				"roughnessFactor":0.9200000166893005
			}
		},
		{
			"name":"woodBarkDark",
			"pbrMetallicRoughness":{
				"baseColorFactor":[
					0.11443537473678589,
					0.04666508734226227,
					0.016807375475764275,
					1
				],
				"metallicFactor":0,
				"roughnessFactor":0.9200000166893005
			}
		},
		{
			"name":"grass",
			"pbrMetallicRoughness":{
				"baseColorFactor":[
					0.15592646598815918,
					0.2961382567882538,
					0.0802198201417923,
					1
				],
				"metallicFactor":0,
				"roughnessFactor":0.9200000166893005
			}
		},
		{
			"name":"woodInner",
			"pbrMetallicRoughness":{
				"baseColorFactor":[
					0.577580451965332,
					0.423267662525177,
					0.23839756846427917,
					1
				],
				"metallicFactor":0,
				"roughnessFactor":0.9200000166893005
			}
		},
		{
			"name":"dirt_v1",
			"pbrMetallicRoughness":{
				"baseColorFactor":[
					0.2581828534603119,
					0.1946178376674652,
					0.1119324266910553,
					1
				],
				"metallicFactor":0,
				"roughnessFactor":0.9200000166893005
			}
		},
		{
			"name":"stone_v1",
			"pbrMetallicRoughness":{
				"baseColorFactor":[
					0.2541520893573761,
					0.28744083642959595,
					0.3049873113632202,
					1
				],
				"metallicFactor":0,
				"roughnessFactor":0.9200000166893005
			}
		},
		{
			"name":"dirt_v3",
			"pbrMetallicRoughness":{
				"baseColorFactor":[
					0.20863686501979828,
					0.15896083414554596,
					0.09084171056747437,
					1
				],
				"metallicFactor":0,
				"roughnessFactor":0.9200000166893005
			}
		},
		{
			"name":"dirt_v0",
			"pbrMetallicRoughness":{
				"baseColorFactor":[
					0.32314321398735046,
					0.24228112399578094,
					0.1384316086769104,
					1
				],
				"metallicFactor":0,
				"roughnessFactor":0.9200000166893005
			}
		},
		{
			"name":"colorRed",
			"pbrMetallicRoughness":{
				"baseColorFactor":[
					0.34191441535949707,
					0.08437620848417282,
					0.05951123684644699,
					1
				],
				"metallicFactor":0,
				"roughnessFactor":0.9200000166893005
			}
		},
		{
			"name":"colorRedDark",
			"pbrMetallicRoughness":{
				"baseColorFactor":[
					0.1946178376674652,
					0.04666508734226227,
					0.03433980792760849,
					1
				],
				"metallicFactor":0,
				"roughnessFactor":0.9200000166893005
			}
		},
		{
			"name":"stoneDark_v3",
			"pbrMetallicRoughness":{
				"baseColorFactor":[
					0.10224173218011856,
					0.11953842639923096,
					0.13013647496700287,
					1
				],
				"metallicFactor":0,
				"roughnessFactor":0.9200000166893005
			}
		}
	],
	"meshes":[
		{
			"name":"pont",
			"primitives":[
				{
					"attributes":{
						"POSITION":0,
						"NORMAL":1,
						"TEXCOORD_0":2,
						"COLOR_0":3
					},
					"indices":4,
					"material":0
				},
				{
					"attributes":{
						"POSITION":5,
						"NORMAL":6,
						"TEXCOORD_0":7,
						"COLOR_0":8
					},
					"indices":9,
					"material":1
				},
				{
					"attributes":{
						"POSITION":10,
						"NORMAL":11,
						"TEXCOORD_0":12,
						"COLOR_0":13
					},
					"indices":14,
					"material":2
				},
				{
					"attributes":{
						"POSITION":15,
						"NORMAL":16,
						"TEXCOORD_0":17,
						"COLOR_0":18
					},
					"indices":19,
					"material":3
				},
				{
					"attributes":{
						"POSITION":20,
						"NORMAL":21,
						"TEXCOORD_0":22,
						"COLOR_0":23
					},
					"indices":24,
					"material":4
				},
				{
					"attributes":{
						"POSITION":25,
						"NORMAL":26,
						"TEXCOORD_0":27,
						"COLOR_0":28
					},
					"indices":29,
					"material":5
				},
				{
					"attributes":{
						"POSITION":30,
						"NORMAL":31,
						"TEXCOORD_0":32,
						"COLOR_0":33
					},
					"indices":34,
					"material":6
				},
				{
					"attributes":{
						"POSITION":35,
						"NORMAL":36,
						"TEXCOORD_0":37,
						"COLOR_0":38
					},
					"indices":39,
					"material":7
				},
				{
					"attributes":{
						"POSITION":40,
						"NORMAL":41,
						"TEXCOORD_0":42,
						"COLOR_0":43
					},
					"indices":44,
					"material":8
				},
				{
					"attributes":{
						"POSITION":45,
						"NORMAL":46,
						"TEXCOORD_0":47,
						"COLOR_0":48
					},
					"indices":49,
					"material":9
				},
				{
					"attributes":{
						"POSITION":50,
						"NORMAL":51,
						"TEXCOORD_0":52,
						"COLOR_0":53
					},
					"indices":54,
					"material":10
				},
				{
					"attributes":{
						"POSITION":55,
						"NORMAL":56,
						"TEXCOORD_0":57,
						"COLOR_0":58
					},
					"indices":59,
					"material":11
				},
				{
					"attributes":{
						"POSITION":60,
						"NORMAL":61,
						"TEXCOORD_0":62,
						"COLOR_0":63
					},
					"indices":64,
					"material":12
				},
				{
					"attributes":{
						"POSITION":65,
						"NORMAL":66,
						"TEXCOORD_0":67,
						"COLOR_0":68
					},
					"indices":69,
					"material":13
				},
				{
					"attributes":{
						"POSITION":70,
						"NORMAL":71,
						"TEXCOORD_0":72,
						"COLOR_0":73
					},
					"indices":74,
					"material":14
				},
				{
					"attributes":{
						"POSITION":75,
						"NORMAL":76,
						"TEXCOORD_0":77,
						"COLOR_0":78
					},
					"indices":79,
					"material":15
				},
				{
					"attributes":{
						"POSITION":80,
						"NORMAL":81,
						"TEXCOORD_0":82,
						"COLOR_0":83
					},
					"indices":84,
					"material":16
				},
				{
					"attributes":{
						"POSITION":85,
						"NORMAL":86,
						"TEXCOORD_0":87,
						"COLOR_0":88
					},
					"indices":89,
					"material":17
				},
				{
					"attributes":{
						"POSITION":90,
						"NORMAL":91,
						"TEXCOORD_0":92,
						"COLOR_0":93
					},
					"indices":94,
					"material":18
				},
				{
					"attributes":{
						"POSITION":95,
						"NORMAL":96,
						"TEXCOORD_0":97,
						"COLOR_0":98
					},
					"indices":99,
					"material":19
				}
			]
		}
	],
	"accessors":[
		{
			"bufferView":0,
			"componentType":5126,
			"count":2864,
			"max":[
				-4.030370712280273,
				3.0406131744384766,
				-25.467315673828125
			],
			"min":[
				-37.55989456176758,
				-5.527010440826416,
				-45.72894287109375
			],
			"type":"VEC3"
		},
		{
			"bufferView":1,
			"componentType":5126,
			"count":2864,
			"type":"VEC3"
		},
		{
			"bufferView":2,
			"componentType":5126,
			"count":2864,
			"type":"VEC2"
		},
		{
			"bufferView":3,
			"componentType":5123,
			"count":2864,
			"normalized":true,
			"type":"VEC4"
		},
		{
			"bufferView":4,
			"componentType":5123,
			"count":4332,
			"type":"SCALAR"
		},
		{
			"bufferView":5,
			"componentType":5126,
			"count":775,
			"max":[
				-0.33729445934295654,
				3.0263142585754395,
				0.3083754777908325
			],
			"min":[
				-35.90361404418945,
				-6.245521545410156,
				-40.5086669921875
			],
			"type":"VEC3"
		},
		{
			"bufferView":6,
			"componentType":5126,
			"count":775,
			"type":"VEC3"
		},
		{
			"bufferView":7,
			"componentType":5126,
			"count":775,
			"type":"VEC2"
		},
		{
			"bufferView":8,
			"componentType":5123,
			"count":775,
			"normalized":true,
			"type":"VEC4"
		},
		{
			"bufferView":9,
			"componentType":5123,
			"count":1266,
			"type":"SCALAR"
		},
		{
			"bufferView":10,
			"componentType":5126,
			"count":174,
			"max":[
				1.0012240409851074,
				2.4655768871307373,
				0.3083754777908325
			],
			"min":[
				-29.708423614501953,
				-6.245521545410156,
				-40.5086669921875
			],
			"type":"VEC3"
		},
		{
			"bufferView":11,
			"componentType":5126,
			"count":174,
			"type":"VEC3"
		},
		{
			"bufferView":12,
			"componentType":5126,
			"count":174,
			"type":"VEC2"
		},
		{
			"bufferView":13,
			"componentType":5123,
			"count":174,
			"normalized":true,
			"type":"VEC4"
		},
		{
			"bufferView":14,
			"componentType":5123,
			"count":174,
			"type":"SCALAR"
		},
		{
			"bufferView":15,
			"componentType":5126,
			"count":877,
			"max":[
				1.0012240409851074,
				3.0687084197998047,
				-8.218598365783691
			],
			"min":[
				-40.859718322753906,
				-4.575660228729248,
				-41.10182189941406
			],
			"type":"VEC3"
		},
		{
			"bufferView":16,
			"componentType":5126,
			"count":877,
			"type":"VEC3"
		},
		{
			"bufferView":17,
			"componentType":5126,
			"count":877,
			"type":"VEC2"
		},
		{
			"bufferView":18,
			"componentType":5123,
			"count":877,
			"normalized":true,
			"type":"VEC4"
		},
		{
			"bufferView":19,
			"componentType":5123,
			"count":1446,
			"type":"SCALAR"
		},
		{
			"bufferView":20,
			"componentType":5126,
			"count":439,
			"max":[
				-12.89768123626709,
				-0.9650983810424805,
				-6.02987813949585
			],
			"min":[
				-33.74274444580078,
				-4.574084758758545,
				-39.11327362060547
			],
			"type":"VEC3"
		},
		{
			"bufferView":21,
			"componentType":5126,
			"count":439,
			"type":"VEC3"
		},
		{
			"bufferView":22,
			"componentType":5126,
			"count":439,
			"type":"VEC2"
		},
		{
			"bufferView":23,
			"componentType":5123,
			"count":439,
			"normalized":true,
			"type":"VEC4"
		},
		{
			"bufferView":24,
			"componentType":5123,
			"count":696,
			"type":"SCALAR"
		},
		{
			"bufferView":25,
			"componentType":5126,
			"count":1268,
			"max":[
				-2.3132681846618652,
				3.157721519470215,
				0.14157962799072266
			],
			"min":[
				-40.704952239990234,
				-2.2557625770568848,
				-37.25969314575195
			],
			"type":"VEC3"
		},
		{
			"bufferView":26,
			"componentType":5126,
			"count":1268,
			"type":"VEC3"
		},
		{
			"bufferView":27,
			"componentType":5126,
			"count":1268,
			"type":"VEC2"
		},
		{
			"bufferView":28,
			"componentType":5123,
			"count":1268,
			"normalized":true,
			"type":"VEC4"
		},
		{
			"bufferView":29,
			"componentType":5123,
			"count":2028,
			"type":"SCALAR"
		},
		{
			"bufferView":30,
			"componentType":5126,
			"count":2373,
			"max":[
				-0.45894795656204224,
				7.313634395599365,
				0.7766785621643066
			],
			"min":[
				-41.629638671875,
				-2.0189807415008545,
				-39.739131927490234
			],
			"type":"VEC3"
		},
		{
			"bufferView":31,
			"componentType":5126,
			"count":2373,
			"type":"VEC3"
		},
		{
			"bufferView":32,
			"componentType":5126,
			"count":2373,
			"type":"VEC2"
		},
		{
			"bufferView":33,
			"componentType":5123,
			"count":2373,
			"normalized":true,
			"type":"VEC4"
		},
		{
			"bufferView":34,
			"componentType":5123,
			"count":3924,
			"type":"SCALAR"
		},
		{
			"bufferView":35,
			"componentType":5126,
			"count":792,
			"max":[
				-0.2458958625793457,
				7.390654563903809,
				-2.6187076568603516
			],
			"min":[
				-7.228930950164795,
				0.6316066980361938,
				-36.52790832519531
			],
			"type":"VEC3"
		},
		{
			"bufferView":36,
			"componentType":5126,
			"count":792,
			"type":"VEC3"
		},
		{
			"bufferView":37,
			"componentType":5126,
			"count":792,
			"type":"VEC2"
		},
		{
			"bufferView":38,
			"componentType":5123,
			"count":792,
			"normalized":true,
			"type":"VEC4"
		},
		{
			"bufferView":39,
			"componentType":5123,
			"count":1236,
			"type":"SCALAR"
		},
		{
			"bufferView":40,
			"componentType":5126,
			"count":640,
			"max":[
				-0.6401281356811523,
				7.390654563903809,
				-2.955142021179199
			],
			"min":[
				-6.644540309906006,
				-0.8160110712051392,
				-36.52790832519531
			],
			"type":"VEC3"
		},
		{
			"bufferView":41,
			"componentType":5126,
			"count":640,
			"type":"VEC3"
		},
		{
			"bufferView":42,
			"componentType":5126,
			"count":640,
			"type":"VEC2"
		},
		{
			"bufferView":43,
			"componentType":5123,
			"count":640,
			"normalized":true,
			"type":"VEC4"
		},
		{
			"bufferView":44,
			"componentType":5123,
			"count":984,
			"type":"SCALAR"
		},
		{
			"bufferView":45,
			"componentType":5126,
			"count":1164,
			"max":[
				-3.490010976791382,
				4.101320743560791,
				-3.7905783653259277
			],
			"min":[
				-9.990196228027344,
				0.5534913539886475,
				-16.44381332397461
			],
			"type":"VEC3"
		},
		{
			"bufferView":46,
			"componentType":5126,
			"count":1164,
			"type":"VEC3"
		},
		{
			"bufferView":47,
			"componentType":5126,
			"count":1164,
			"type":"VEC2"
		},
		{
			"bufferView":48,
			"componentType":5123,
			"count":1164,
			"normalized":true,
			"type":"VEC4"
		},
		{
			"bufferView":49,
			"componentType":5123,
			"count":1680,
			"type":"SCALAR"
		},
		{
			"bufferView":50,
			"componentType":5126,
			"count":494,
			"max":[
				-3.867145538330078,
				2.2742648124694824,
				-4.26046085357666
			],
			"min":[
				-9.688268661499023,
				-1.2426269054412842,
				-15.91049861907959
			],
			"type":"VEC3"
		},
		{
			"bufferView":51,
			"componentType":5126,
			"count":494,
			"type":"VEC3"
		},
		{
			"bufferView":52,
			"componentType":5126,
			"count":494,
			"type":"VEC2"
		},
		{
			"bufferView":53,
			"componentType":5123,
			"count":494,
			"normalized":true,
			"type":"VEC4"
		},
		{
			"bufferView":54,
			"componentType":5123,
			"count":720,
			"type":"SCALAR"
		},
		{
			"bufferView":55,
			"componentType":5126,
			"count":17291,
			"max":[
				-0.26042094826698303,
				1.6204456090927124,
				-0.49950748682022095
			],
			"min":[
				-39.20645523071289,
				-5.719120979309082,
				-39.994789123535156
			],
			"type":"VEC3"
		},
		{
			"bufferView":56,
			"componentType":5126,
			"count":17291,
			"type":"VEC3"
		},
		{
			"bufferView":57,
			"componentType":5126,
			"count":17291,
			"type":"VEC2"
		},
		{
			"bufferView":58,
			"componentType":5123,
			"count":17291,
			"normalized":true,
			"type":"VEC4"
		},
		{
			"bufferView":59,
			"componentType":5123,
			"count":22605,
			"type":"SCALAR"
		},
		{
			"bufferView":60,
			"componentType":5126,
			"count":228,
			"max":[
				-4.179662704467773,
				-0.4991800785064697,
				-21.68760871887207
			],
			"min":[
				-6.792764663696289,
				-1.1559077501296997,
				-23.901906967163086
			],
			"type":"VEC3"
		},
		{
			"bufferView":61,
			"componentType":5126,
			"count":228,
			"type":"VEC3"
		},
		{
			"bufferView":62,
			"componentType":5126,
			"count":228,
			"type":"VEC2"
		},
		{
			"bufferView":63,
			"componentType":5123,
			"count":228,
			"normalized":true,
			"type":"VEC4"
		},
		{
			"bufferView":64,
			"componentType":5123,
			"count":396,
			"type":"SCALAR"
		},
		{
			"bufferView":65,
			"componentType":5126,
			"count":49,
			"max":[
				-9.783374786376953,
				0.25989189743995667,
				-27.04310417175293
			],
			"min":[
				-11.149097442626953,
				-0.48107555508613586,
				-28.24311637878418
			],
			"type":"VEC3"
		},
		{
			"bufferView":66,
			"componentType":5126,
			"count":49,
			"type":"VEC3"
		},
		{
			"bufferView":67,
			"componentType":5126,
			"count":49,
			"type":"VEC2"
		},
		{
			"bufferView":68,
			"componentType":5123,
			"count":49,
			"normalized":true,
			"type":"VEC4"
		},
		{
			"bufferView":69,
			"componentType":5123,
			"count":75,
			"type":"SCALAR"
		},
		{
			"bufferView":70,
			"componentType":5126,
			"count":355,
			"max":[
				-19.553987503051758,
				-0.4964086413383484,
				-10.831677436828613
			],
			"min":[
				-41.31455993652344,
				-4.476485252380371,
				-32.661869049072266
			],
			"type":"VEC3"
		},
		{
			"bufferView":71,
			"componentType":5126,
			"count":355,
			"type":"VEC3"
		},
		{
			"bufferView":72,
			"componentType":5126,
			"count":355,
			"type":"VEC2"
		},
		{
			"bufferView":73,
			"componentType":5123,
			"count":355,
			"normalized":true,
			"type":"VEC4"
		},
		{
			"bufferView":74,
			"componentType":5123,
			"count":564,
			"type":"SCALAR"
		},
		{
			"bufferView":75,
			"componentType":5126,
			"count":67,
			"max":[
				-25.19544792175293,
				-2.738508462905884,
				-25.914766311645508
			],
			"min":[
				-26.306957244873047,
				-2.9203476905822754,
				-27.130117416381836
			],
			"type":"VEC3"
		},
		{
			"bufferView":76,
			"componentType":5126,
			"count":67,
			"type":"VEC3"
		},
		{
			"bufferView":77,
			"componentType":5126,
			"count":67,
			"type":"VEC2"
		},
		{
			"bufferView":78,
			"componentType":5123,
			"count":67,
			"normalized":true,
			"type":"VEC4"
		},
		{
			"bufferView":79,
			"componentType":5123,
			"count":93,
			"type":"SCALAR"
		},
		{
			"bufferView":80,
			"componentType":5126,
			"count":53,
			"max":[
				-11.756172180175781,
				1.095832109451294,
				-5.9281158447265625
			],
			"min":[
				-13.780457496643066,
				-2.0142698287963867,
				-7.574090480804443
			],
			"type":"VEC3"
		},
		{
			"bufferView":81,
			"componentType":5126,
			"count":53,
			"type":"VEC3"
		},
		{
			"bufferView":82,
			"componentType":5126,
			"count":53,
			"type":"VEC2"
		},
		{
			"bufferView":83,
			"componentType":5123,
			"count":53,
			"normalized":true,
			"type":"VEC4"
		},
		{
			"bufferView":84,
			"componentType":5123,
			"count":81,
			"type":"SCALAR"
		},
		{
			"bufferView":85,
			"componentType":5126,
			"count":169,
			"max":[
				-4.143179416656494,
				2.8680896759033203,
				-35.70366668701172
			],
			"min":[
				-7.674247741699219,
				0.7960898876190186,
				-38.49834442138672
			],
			"type":"VEC3"
		},
		{
			"bufferView":86,
			"componentType":5126,
			"count":169,
			"type":"VEC3"
		},
		{
			"bufferView":87,
			"componentType":5126,
			"count":169,
			"type":"VEC2"
		},
		{
			"bufferView":88,
			"componentType":5123,
			"count":169,
			"normalized":true,
			"type":"VEC4"
		},
		{
			"bufferView":89,
			"componentType":5123,
			"count":339,
			"type":"SCALAR"
		},
		{
			"bufferView":90,
			"componentType":5126,
			"count":5,
			"max":[
				-5.7128586769104,
				2.8680896759033203,
				-35.8328857421875
			],
			"min":[
				-5.7922563552856445,
				0.7960898876190186,
				-35.842681884765625
			],
			"type":"VEC3"
		},
		{
			"bufferView":91,
			"componentType":5126,
			"count":5,
			"type":"VEC3"
		},
		{
			"bufferView":92,
			"componentType":5126,
			"count":5,
			"type":"VEC2"
		},
		{
			"bufferView":93,
			"componentType":5123,
			"count":5,
			"normalized":true,
			"type":"VEC4"
		},
		{
			"bufferView":94,
			"componentType":5123,
			"count":9,
			"type":"SCALAR"
		},
		{
			"bufferView":95,
			"componentType":5126,
			"count":80,
			"max":[
				-8.109532356262207,
				3.0687084197998047,
				-37.2623405456543
			],
			"min":[
				-10.029532432556152,
				1.1487083435058594,
				-39.18233871459961
			],
			"type":"VEC3"
		},
		{
			"bufferView":96,
			"componentType":5126,
			"count":80,
			"type":"VEC3"
		},
		{
			"bufferView":97,
			"componentType":5126,
			"count":80,
			"type":"VEC2"
		},
		{
			"bufferView":98,
			"componentType":5123,
			"count":80,
			"normalized":true,
			"type":"VEC4"
		},
		{
			"bufferView":99,
			"componentType":5123,
			"count":108,
			"type":"SCALAR"
		}
	],
	"bufferViews":[
		{
			"buffer":0,
			"byteLength":34368,
			"byteOffset":0,
			"target":34962
		},
		{
			"buffer":0,
			"byteLength":34368,
			"byteOffset":34368,
			"target":34962
		},
		{
			"buffer":0,
			"byteLength":22912,
			"byteOffset":68736,
			"target":34962
		},
		{
			"buffer":0,
			"byteLength":22912,
			"byteOffset":91648,
			"target":34962
		},
		{
			"buffer":0,
			"byteLength":8664,
			"byteOffset":114560,
			"target":34963
		},
		{
			"buffer":0,
			"byteLength":9300,
			"byteOffset":123224,
			"target":34962
		},
		{
			"buffer":0,
			"byteLength":9300,
			"byteOffset":132524,
			"target":34962
		},
		{
			"buffer":0,
			"byteLength":6200,
			"byteOffset":141824,
			"target":34962
		},
		{
			"buffer":0,
			"byteLength":6200,
			"byteOffset":148024,
			"target":34962
		},
		{
			"buffer":0,
			"byteLength":2532,
			"byteOffset":154224,
			"target":34963
		},
		{
			"buffer":0,
			"byteLength":2088,
			"byteOffset":156756,
			"target":34962
		},
		{
			"buffer":0,
			"byteLength":2088,
			"byteOffset":158844,
			"target":34962
		},
		{
			"buffer":0,
			"byteLength":1392,
			"byteOffset":160932,
			"target":34962
		},
		{
			"buffer":0,
			"byteLength":1392,
			"byteOffset":162324,
			"target":34962
		},
		{
			"buffer":0,
			"byteLength":348,
			"byteOffset":163716,
			"target":34963
		},
		{
			"buffer":0,
			"byteLength":10524,
			"byteOffset":164064,
			"target":34962
		},
		{
			"buffer":0,
			"byteLength":10524,
			"byteOffset":174588,
			"target":34962
		},
		{
			"buffer":0,
			"byteLength":7016,
			"byteOffset":185112,
			"target":34962
		},
		{
			"buffer":0,
			"byteLength":7016,
			"byteOffset":192128,
			"target":34962
		},
		{
			"buffer":0,
			"byteLength":2892,
			"byteOffset":199144,
			"target":34963
		},
		{
			"buffer":0,
			"byteLength":5268,
			"byteOffset":202036,
			"target":34962
		},
		{
			"buffer":0,
			"byteLength":5268,
			"byteOffset":207304,
			"target":34962
		},
		{
			"buffer":0,
			"byteLength":3512,
			"byteOffset":212572,
			"target":34962
		},
		{
			"buffer":0,
			"byteLength":3512,
			"byteOffset":216084,
			"target":34962
		},
		{
			"buffer":0,
			"byteLength":1392,
			"byteOffset":219596,
			"target":34963
		},
		{
			"buffer":0,
			"byteLength":15216,
			"byteOffset":220988,
			"target":34962
		},
		{
			"buffer":0,
			"byteLength":15216,
			"byteOffset":236204,
			"target":34962
		},
		{
			"buffer":0,
			"byteLength":10144,
			"byteOffset":251420,
			"target":34962
		},
		{
			"buffer":0,
			"byteLength":10144,
			"byteOffset":261564,
			"target":34962
		},
		{
			"buffer":0,
			"byteLength":4056,
			"byteOffset":271708,
			"target":34963
		},
		{
			"buffer":0,
			"byteLength":28476,
			"byteOffset":275764,
			"target":34962
		},
		{
			"buffer":0,
			"byteLength":28476,
			"byteOffset":304240,
			"target":34962
		},
		{
			"buffer":0,
			"byteLength":18984,
			"byteOffset":332716,
			"target":34962
		},
		{
			"buffer":0,
			"byteLength":18984,
			"byteOffset":351700,
			"target":34962
		},
		{
			"buffer":0,
			"byteLength":7848,
			"byteOffset":370684,
			"target":34963
		},
		{
			"buffer":0,
			"byteLength":9504,
			"byteOffset":378532,
			"target":34962
		},
		{
			"buffer":0,
			"byteLength":9504,
			"byteOffset":388036,
			"target":34962
		},
		{
			"buffer":0,
			"byteLength":6336,
			"byteOffset":397540,
			"target":34962
		},
		{
			"buffer":0,
			"byteLength":6336,
			"byteOffset":403876,
			"target":34962
		},
		{
			"buffer":0,
			"byteLength":2472,
			"byteOffset":410212,
			"target":34963
		},
		{
			"buffer":0,
			"byteLength":7680,
			"byteOffset":412684,
			"target":34962
		},
		{
			"buffer":0,
			"byteLength":7680,
			"byteOffset":420364,
			"target":34962
		},
		{
			"buffer":0,
			"byteLength":5120,
			"byteOffset":428044,
			"target":34962
		},
		{
			"buffer":0,
			"byteLength":5120,
			"byteOffset":433164,
			"target":34962
		},
		{
			"buffer":0,
			"byteLength":1968,
			"byteOffset":438284,
			"target":34963
		},
		{
			"buffer":0,
			"byteLength":13968,
			"byteOffset":440252,
			"target":34962
		},
		{
			"buffer":0,
			"byteLength":13968,
			"byteOffset":454220,
			"target":34962
		},
		{
			"buffer":0,
			"byteLength":9312,
			"byteOffset":468188,
			"target":34962
		},
		{
			"buffer":0,
			"byteLength":9312,
			"byteOffset":477500,
			"target":34962
		},
		{
			"buffer":0,
			"byteLength":3360,
			"byteOffset":486812,
			"target":34963
		},
		{
			"buffer":0,
			"byteLength":5928,
			"byteOffset":490172,
			"target":34962
		},
		{
			"buffer":0,
			"byteLength":5928,
			"byteOffset":496100,
			"target":34962
		},
		{
			"buffer":0,
			"byteLength":3952,
			"byteOffset":502028,
			"target":34962
		},
		{
			"buffer":0,
			"byteLength":3952,
			"byteOffset":505980,
			"target":34962
		},
		{
			"buffer":0,
			"byteLength":1440,
			"byteOffset":509932,
			"target":34963
		},
		{
			"buffer":0,
			"byteLength":207492,
			"byteOffset":511372,
			"target":34962
		},
		{
			"buffer":0,
			"byteLength":207492,
			"byteOffset":718864,
			"target":34962
		},
		{
			"buffer":0,
			"byteLength":138328,
			"byteOffset":926356,
			"target":34962
		},
		{
			"buffer":0,
			"byteLength":138328,
			"byteOffset":1064684,
			"target":34962
		},
		{
			"buffer":0,
			"byteLength":45210,
			"byteOffset":1203012,
			"target":34963
		},
		{
			"buffer":0,
			"byteLength":2736,
			"byteOffset":1248224,
			"target":34962
		},
		{
			"buffer":0,
			"byteLength":2736,
			"byteOffset":1250960,
			"target":34962
		},
		{
			"buffer":0,
			"byteLength":1824,
			"byteOffset":1253696,
			"target":34962
		},
		{
			"buffer":0,
			"byteLength":1824,
			"byteOffset":1255520,
			"target":34962
		},
		{
			"buffer":0,
			"byteLength":792,
			"byteOffset":1257344,
			"target":34963
		},
		{
			"buffer":0,
			"byteLength":588,
			"byteOffset":1258136,
			"target":34962
		},
		{
			"buffer":0,
			"byteLength":588,
			"byteOffset":1258724,
			"target":34962
		},
		{
			"buffer":0,
			"byteLength":392,
			"byteOffset":1259312,
			"target":34962
		},
		{
			"buffer":0,
			"byteLength":392,
			"byteOffset":1259704,
			"target":34962
		},
		{
			"buffer":0,
			"byteLength":150,
			"byteOffset":1260096,
			"target":34963
		},
		{
			"buffer":0,
			"byteLength":4260,
			"byteOffset":1260248,
			"target":34962
		},
		{
			"buffer":0,
			"byteLength":4260,
			"byteOffset":1264508,
			"target":34962
		},
		{
			"buffer":0,
			"byteLength":2840,
			"byteOffset":1268768,
			"target":34962
		},
		{
			"buffer":0,
			"byteLength":2840,
			"byteOffset":1271608,
			"target":34962
		},
		{
			"buffer":0,
			"byteLength":1128,
			"byteOffset":1274448,
			"target":34963
		},
		{
			"buffer":0,
			"byteLength":804,
			"byteOffset":1275576,
			"target":34962
		},
		{
			"buffer":0,
			"byteLength":804,
			"byteOffset":1276380,
			"target":34962
		},
		{
			"buffer":0,
			"byteLength":536,
			"byteOffset":1277184,
			"target":34962
		},
		{
			"buffer":0,
			"byteLength":536,
			"byteOffset":1277720,
			"target":34962
		},
		{
			"buffer":0,
			"byteLength":186,
			"byteOffset":1278256,
			"target":34963
		},
		{
			"buffer":0,
			"byteLength":636,
			"byteOffset":1278444,
			"target":34962
		},
		{
			"buffer":0,
			"byteLength":636,
			"byteOffset":1279080,
			"target":34962
		},
		{
			"buffer":0,
			"byteLength":424,
			"byteOffset":1279716,
			"target":34962
		},
		{
			"buffer":0,
			"byteLength":424,
			"byteOffset":1280140,
			"target":34962
		},
		{
			"buffer":0,
			"byteLength":162,
			"byteOffset":1280564,
			"target":34963
		},
		{
			"buffer":0,
			"byteLength":2028,
			"byteOffset":1280728,
			"target":34962
		},
		{
			"buffer":0,
			"byteLength":2028,
			"byteOffset":1282756,
			"target":34962
		},
		{
			"buffer":0,
			"byteLength":1352,
			"byteOffset":1284784,
			"target":34962
		},
		{
			"buffer":0,
			"byteLength":1352,
			"byteOffset":1286136,
			"target":34962
		},
		{
			"buffer":0,
			"byteLength":678,
			"byteOffset":1287488,
			"target":34963
		},
		{
			"buffer":0,
			"byteLength":60,
			"byteOffset":1288168,
			"target":34962
		},
		{
			"buffer":0,
			"byteLength":60,
			"byteOffset":1288228,
			"target":34962
		},
		{
			"buffer":0,
			"byteLength":40,
			"byteOffset":1288288,
			"target":34962
		},
		{
			"buffer":0,
			"byteLength":40,
			"byteOffset":1288328,
			"target":34962
		},
		{
			"buffer":0,
			"byteLength":18,
			"byteOffset":1288368,
			"target":34963
		},
		{
			"buffer":0,
			"byteLength":960,
			"byteOffset":1288388,
			"target":34962
		},
		{
			"buffer":0,
			"byteLength":960,
			"byteOffset":1289348,
			"target":34962
		},
		{
			"buffer":0,
			"byteLength":640,
			"byteOffset":1290308,
			"target":34962
		},
		{
			"buffer":0,
			"byteLength":640,
			"byteOffset":1290948,
			"target":34962
		},
		{
			"buffer":0,
			"byteLength":216,
			"byteOffset":1291588,
			"target":34963
		}
	],
	"buffers":[
		{
			"byteLength":1291804,
			"uri":"cell_x-1_z-1_render.bin"
		}
	]
}
