{
	"asset":{
		"generator":"Khronos glTF Blender I/O v4.5.51",
		"version":"2.0"
	},
	"scene":0,
	"scenes":[
		{
			"name":"Scene",
			"nodes":[
				0
			]
		}
	],
	"nodes":[
		{
			"mesh":0,
			"name":"cell_x1_z1",
			"rotation":[
				-0.04606746882200241,
				-0.5971794128417969,
				-0.03438624367117882,
				0.8000450730323792
			],
			"scale":[
				5.412012100219727,
				5.412012100219727,
				5.412012100219727
			],
			"translation":[
				46.014041900634766,
				8.860389709472656,
				70.76268768310547
			]
		}
	],
	"materials":[
		{
			"name":"stone_v1",
			"pbrMetallicRoughness":{
				"baseColorFactor":[
					0.2541520893573761,
					0.28744083642959595,
					0.3049873113632202,
					1
				],
				"metallicFactor":0,
				"roughnessFactor":0.9200000166893005
			}
		},
		{
			"name":"stone_v2",
			"pbrMetallicRoughness":{
				"baseColorFactor":[
					0.38132601976394653,
					0.38132601976394653,
					0.3324515223503113,
					1
				],
				"metallicFactor":0,
				"roughnessFactor":0.9200000166893005
			}
		},
		{
			"name":"_defaultMat",
			"pbrMetallicRoughness":{
				"baseColorFactor":[
					0.4564110338687897,
					0.4564110338687897,
					0.4125426113605499,
					1
				],
				"metallicFactor":0,
				"roughnessFactor":0.9200000166893005
			}
		},
		{
			"name":"stone_v0",
			"pbrMetallicRoughness":{
				"baseColorFactor":[
					0.32314321398735046,
					0.35153260827064514,
					0.3613067865371704,
					1
				],
				"metallicFactor":0,
				"roughnessFactor":0.9200000166893005
			}
		},
		{
			"name":"grass",
			"pbrMetallicRoughness":{
				"baseColorFactor":[
					0.15592646598815918,
					0.2961382567882538,
					0.0802198201417923,
					1
				],
				"metallicFactor":0,
				"roughnessFactor":0.9200000166893005
			}
		},
		{
			"name":"dirt_v2",
			"pbrMetallicRoughness":{
				"baseColorFactor":[
					0.38132601976394653,
					0.30054378509521484,
					0.1946178376674652,
					1
				],
				"metallicFactor":0,
				"roughnessFactor":0.9200000166893005
			}
		},
		{
			"name":"dirt_v3",
			"pbrMetallicRoughness":{
				"baseColorFactor":[
					0.20863686501979828,
					0.15896083414554596,
					0.09084171056747437,
					1
				],
				"metallicFactor":0,
				"roughnessFactor":0.9200000166893005
			}
		},
		{
			"name":"leafsDark",
			"pbrMetallicRoughness":{
				"baseColorFactor":[
					0.04817182570695877,
					0.11443537473678589,
					0.03310476616024971,
					1
				],
				"metallicFactor":0,
				"roughnessFactor":0.9200000166893005
			}
		},
		{
			"name":"woodBarkDark",
			"pbrMetallicRoughness":{
				"baseColorFactor":[
					0.11443537473678589,
					0.04666508734226227,
					0.016807375475764275,
					1
				],
				"metallicFactor":0,
				"roughnessFactor":0.9200000166893005
			}
		},
		{
			"name":"leafsGreen",
			"pbrMetallicRoughness":{
				"baseColorFactor":[
					0.11443537473678589,
					0.23074005544185638,
					0.06301001459360123,
					1
				],
				"metallicFactor":0,
				"roughnessFactor":0.9200000166893005
			}
		},
		{
			"name":"woodBark",
			"pbrMetallicRoughness":{
				"baseColorFactor":[
					0.2015562504529953,
					0.08437620848417282,
					0.02955683507025242,
					1
				],
				"metallicFactor":0,
				"roughnessFactor":0.9200000166893005
			}
		},
		{
			"name":"leafsFall",
			"pbrMetallicRoughness":{
				"baseColorFactor":[
					0.4564110338687897,
					0.18782077729701996,
					0.045186202973127365,
					1
				],
				"metallicFactor":0,
				"roughnessFactor":0.9200000166893005
			}
		},
		{
			"name":"woodBirch",
			"pbrMetallicRoughness":{
				"baseColorFactor":[
					0.7304607629776001,
					0.6583748459815979,
					0.5028864741325378,
					1
				],
				"metallicFactor":0,
				"roughnessFactor":0.9200000166893005
			}
		},
		{
			"name":"colorTan",
			"pbrMetallicRoughness":{
				"baseColorFactor":[
					0.5271151065826416,
					0.3762621283531189,
					0.20863686501979828,
					1
				],
				"metallicFactor":0,
				"roughnessFactor":0.9200000166893005
			}
		},
		{
			"name":"dirt_v1",
			"pbrMetallicRoughness":{
				"baseColorFactor":[
					0.2581828534603119,
					0.1946178376674652,
					0.1119324266910553,
					1
				],
				"metallicFactor":0,
				"roughnessFactor":0.9200000166893005
			}
		},
		{
			"name":"colorRed",
			"pbrMetallicRoughness":{
				"baseColorFactor":[
					0.34191441535949707,
					0.08437620848417282,
					0.05951123684644699,
					1
				],
				"metallicFactor":0,
				"roughnessFactor":0.9200000166893005
			}
		},
		{
			"name":"colorYellow",
			"pbrMetallicRoughness":{
				"baseColorFactor":[
					0.5840784311294556,
					0.3613067865371704,
					0.07618538290262222,
					1
				],
				"metallicFactor":0,
				"roughnessFactor":0.9200000166893005
			}
		},
		{
			"name":"stone_v3",
			"pbrMetallicRoughness":{
				"baseColorFactor":[
					0.20863686501979828,
					0.2462013214826584,
					0.2622506618499756,
					1
				],
				"metallicFactor":0,
				"roughnessFactor":0.9200000166893005
			}
		}
	],
	"meshes":[
		{
			"name":"Mesh stone_smallTopA.038",
			"primitives":[
				{
					"attributes":{
						"POSITION":0,
						"NORMAL":1,
						"TEXCOORD_0":2,
						"COLOR_0":3
					},
					"indices":4,
					"material":0
				},
				{
					"attributes":{
						"POSITION":5,
						"NORMAL":6,
						"TEXCOORD_0":7,
						"COLOR_0":8
					},
					"indices":9,
					"material":1
				},
				{
					"attributes":{
						"POSITION":10,
						"NORMAL":11,
						"TEXCOORD_0":12,
						"COLOR_0":13
					},
					"indices":14,
					"material":2
				},
				{
					"attributes":{
						"POSITION":15,
						"NORMAL":16,
						"TEXCOORD_0":17,
						"COLOR_0":18
					},
					"indices":19,
					"material":3
				},
				{
					"attributes":{
						"POSITION":20,
						"NORMAL":21,
						"TEXCOORD_0":22,
						"COLOR_0":23
					},
					"indices":24,
					"material":4
				},
				{
					"attributes":{
						"POSITION":25,
						"NORMAL":26,
						"TEXCOORD_0":27,
						"COLOR_0":28
					},
					"indices":29,
					"material":5
				},
				{
					"attributes":{
						"POSITION":30,
						"NORMAL":31,
						"TEXCOORD_0":32,
						"COLOR_0":33
					},
					"indices":34,
					"material":6
				},
				{
					"attributes":{
						"POSITION":35,
						"NORMAL":36,
						"TEXCOORD_0":37,
						"COLOR_0":38
					},
					"indices":39,
					"material":7
				},
				{
					"attributes":{
						"POSITION":40,
						"NORMAL":41,
						"TEXCOORD_0":42,
						"COLOR_0":43
					},
					"indices":44,
					"material":8
				},
				{
					"attributes":{
						"POSITION":45,
						"NORMAL":46,
						"TEXCOORD_0":47,
						"COLOR_0":48
					},
					"indices":49,
					"material":9
				},
				{
					"attributes":{
						"POSITION":50,
						"NORMAL":51,
						"TEXCOORD_0":52,
						"COLOR_0":53
					},
					"indices":54,
					"material":10
				},
				{
					"attributes":{
						"POSITION":55,
						"NORMAL":56,
						"TEXCOORD_0":57,
						"COLOR_0":58
					},
					"indices":59,
					"material":11
				},
				{
					"attributes":{
						"POSITION":60,
						"NORMAL":61,
						"TEXCOORD_0":62,
						"COLOR_0":63
					},
					"indices":64,
					"material":12
				},
				{
					"attributes":{
						"POSITION":65,
						"NORMAL":66,
						"TEXCOORD_0":67,
						"COLOR_0":68
					},
					"indices":69,
					"material":13
				},
				{
					"attributes":{
						"POSITION":70,
						"NORMAL":71,
						"TEXCOORD_0":72,
						"COLOR_0":73
					},
					"indices":74,
					"material":14
				},
				{
					"attributes":{
						"POSITION":75,
						"NORMAL":76,
						"TEXCOORD_0":77,
						"COLOR_0":78
					},
					"indices":79,
					"material":15
				},
				{
					"attributes":{
						"POSITION":80,
						"NORMAL":81,
						"TEXCOORD_0":82,
						"COLOR_0":83
					},
					"indices":84,
					"material":16
				},
				{
					"attributes":{
						"POSITION":85,
						"NORMAL":86,
						"TEXCOORD_0":87,
						"COLOR_0":88
					},
					"indices":89,
					"material":17
				}
			]
		}
	],
	"accessors":[
		{
			"bufferView":0,
			"componentType":5126,
			"count":935,
			"max":[
				1.515594720840454,
				0.39660781621932983,
				0.2445732057094574
			],
			"min":[
				-4.577846527099609,
				-0.4930323660373688,
				-5.441379070281982
			],
			"type":"VEC3"
		},
		{
			"bufferView":1,
			"componentType":5126,
			"count":935,
			"type":"VEC3"
		},
		{
			"bufferView":2,
			"componentType":5126,
			"count":935,
			"type":"VEC2"
		},
		{
			"bufferView":3,
			"componentType":5123,
			"count":935,
			"normalized":true,
			"type":"VEC4"
		},
		{
			"bufferView":4,
			"componentType":5123,
			"count":1620,
			"type":"SCALAR"
		},
		{
			"bufferView":5,
			"componentType":5126,
			"count":440,
			"max":[
				1.7225760221481323,
				0.28398096561431885,
				1.0738061666488647
			],
			"min":[
				-2.1346187591552734,
				-0.4611903131008148,
				-1.6076788902282715
			],
			"type":"VEC3"
		},
		{
			"bufferView":6,
			"componentType":5126,
			"count":440,
			"type":"VEC3"
		},
		{
			"bufferView":7,
			"componentType":5126,
			"count":440,
			"type":"VEC2"
		},
		{
			"bufferView":8,
			"componentType":5123,
			"count":440,
			"normalized":true,
			"type":"VEC4"
		},
		{
			"bufferView":9,
			"componentType":5123,
			"count":708,
			"type":"SCALAR"
		},
		{
			"bufferView":10,
			"componentType":5126,
			"count":795,
			"max":[
				1.831817626953125,
				0.2100563645362854,
				-0.1097264513373375
			],
			"min":[
				-4.193444728851318,
				-0.6004659533500671,
				-6.967364311218262
			],
			"type":"VEC3"
		},
		{
			"bufferView":11,
			"componentType":5126,
			"count":795,
			"type":"VEC3"
		},
		{
			"bufferView":12,
			"componentType":5126,
			"count":795,
			"type":"VEC2"
		},
		{
			"bufferView":13,
			"componentType":5123,
			"count":795,
			"normalized":true,
			"type":"VEC4"
		},
		{
			"bufferView":14,
			"componentType":5123,
			"count":840,
			"type":"SCALAR"
		},
		{
			"bufferView":15,
			"componentType":5126,
			"count":549,
			"max":[
				1.193461298942566,
				0.1209852546453476,
				0.4224628210067749
			],
			"min":[
				-2.716503620147705,
				-0.3639962673187256,
				-2.6968324184417725
			],
			"type":"VEC3"
		},
		{
			"bufferView":16,
			"componentType":5126,
			"count":549,
			"type":"VEC3"
		},
		{
			"bufferView":17,
			"componentType":5126,
			"count":549,
			"type":"VEC2"
		},
		{
			"bufferView":18,
			"componentType":5123,
			"count":549,
			"normalized":true,
			"type":"VEC4"
		},
		{
			"bufferView":19,
			"componentType":5123,
			"count":960,
			"type":"SCALAR"
		},
		{
			"bufferView":20,
			"componentType":5126,
			"count":44582,
			"max":[
				2.7868592739105225,
				0.9407245516777039,
				1.2503646612167358
			],
			"min":[
				-5.687548637390137,
				-0.6099264025688171,
				-7.410306453704834
			],
			"type":"VEC3"
		},
		{
			"bufferView":21,
			"componentType":5126,
			"count":44582,
			"type":"VEC3"
		},
		{
			"bufferView":22,
			"componentType":5126,
			"count":44582,
			"type":"VEC2"
		},
		{
			"bufferView":23,
			"componentType":5123,
			"count":44582,
			"normalized":true,
			"type":"VEC4"
		},
		{
			"bufferView":24,
			"componentType":5123,
			"count":59154,
			"type":"SCALAR"
		},
		{
			"bufferView":25,
			"componentType":5126,
			"count":54,
			"max":[
				-3.8781676292419434,
				0.10557174682617188,
				-4.786709785461426
			],
			"min":[
				-4.193444728851318,
				-0.6004659533500671,
				-5.197718620300293
			],
			"type":"VEC3"
		},
		{
			"bufferView":26,
			"componentType":5126,
			"count":54,
			"type":"VEC3"
		},
		{
			"bufferView":27,
			"componentType":5126,
			"count":54,
			"type":"VEC2"
		},
		{
			"bufferView":28,
			"componentType":5123,
			"count":54,
			"normalized":true,
			"type":"VEC4"
		},
		{
			"bufferView":29,
			"componentType":5123,
			"count":81,
			"type":"SCALAR"
		},
		{
			"bufferView":30,
			"componentType":5126,
			"count":204,
			"max":[
				1.831817626953125,
				0.038982242345809937,
				-0.1051645576953888
			],
			"min":[
				-4.136401653289795,
				-0.5630815625190735,
				-6.394330978393555
			],
			"type":"VEC3"
		},
		{
			"bufferView":31,
			"componentType":5126,
			"count":204,
			"type":"VEC3"
		},
		{
			"bufferView":32,
			"componentType":5126,
			"count":204,
			"type":"VEC2"
		},
		{
			"bufferView":33,
			"componentType":5123,
			"count":204,
			"normalized":true,
			"type":"VEC4"
		},
		{
			"bufferView":34,
			"componentType":5123,
			"count":294,
			"type":"SCALAR"
		},
		{
			"bufferView":35,
			"componentType":5126,
			"count":4140,
			"max":[
				1.7838094234466553,
				1.9487111568450928,
				0.4102032780647278
			],
			"min":[
				-5.540267467498779,
				-0.3690585494041443,
				-7.174959659576416
			],
			"type":"VEC3"
		},
		{
			"bufferView":36,
			"componentType":5126,
			"count":4140,
			"type":"VEC3"
		},
		{
			"bufferView":37,
			"componentType":5126,
			"count":4140,
			"type":"VEC2"
		},
		{
			"bufferView":38,
			"componentType":5123,
			"count":4140,
			"normalized":true,
			"type":"VEC4"
		},
		{
			"bufferView":39,
			"componentType":5123,
			"count":7158,
			"type":"SCALAR"
		},
		{
			"bufferView":40,
			"componentType":5126,
			"count":2121,
			"max":[
				1.6692358255386353,
				1.2431241273880005,
				0.27238473296165466
			],
			"min":[
				-5.360500335693359,
				-0.49901947379112244,
				-7.066532135009766
			],
			"type":"VEC3"
		},
		{
			"bufferView":41,
			"componentType":5126,
			"count":2121,
			"type":"VEC3"
		},
		{
			"bufferView":42,
			"componentType":5126,
			"count":2121,
			"type":"VEC2"
		},
		{
			"bufferView":43,
			"componentType":5123,
			"count":2121,
			"normalized":true,
			"type":"VEC4"
		},
		{
			"bufferView":44,
			"componentType":5123,
			"count":3258,
			"type":"SCALAR"
		},
		{
			"bufferView":45,
			"componentType":5126,
			"count":4286,
			"max":[
				2.4241418838500977,
				1.1646642684936523,
				0.5996594429016113
			],
			"min":[
				-4.725745677947998,
				-0.5995877385139465,
				-7.189670562744141
			],
			"type":"VEC3"
		},
		{
			"bufferView":46,
			"componentType":5126,
			"count":4286,
			"type":"VEC3"
		},
		{
			"bufferView":47,
			"componentType":5126,
			"count":4286,
			"type":"VEC2"
		},
		{
			"bufferView":48,
			"componentType":5123,
			"count":4286,
			"normalized":true,
			"type":"VEC4"
		},
		{
			"bufferView":49,
			"componentType":5123,
			"count":7404,
			"type":"SCALAR"
		},
		{
			"bufferView":50,
			"componentType":5126,
			"count":1312,
			"max":[
				2.1253087520599365,
				0.4050518870353699,
				-0.3946163058280945
			],
			"min":[
				-3.2669687271118164,
				-0.5422828197479248,
				-5.695006847381592
			],
			"type":"VEC3"
		},
		{
			"bufferView":51,
			"componentType":5126,
			"count":1312,
			"type":"VEC3"
		},
		{
			"bufferView":52,
			"componentType":5126,
			"count":1312,
			"type":"VEC2"
		},
		{
			"bufferView":53,
			"componentType":5123,
			"count":1312,
			"normalized":true,
			"type":"VEC4"
		},
		{
			"bufferView":54,
			"componentType":5123,
			"count":2022,
			"type":"SCALAR"
		},
		{
			"bufferView":55,
			"componentType":5126,
			"count":2197,
			"max":[
				2.368075132369995,
				0.9887958765029907,
				-0.9606620073318481
			],
			"min":[
				-4.940109729766846,
				-0.4646376669406891,
				-7.444634437561035
			],
			"type":"VEC3"
		},
		{
			"bufferView":56,
			"componentType":5126,
			"count":2197,
			"type":"VEC3"
		},
		{
			"bufferView":57,
			"componentType":5126,
			"count":2197,
			"type":"VEC2"
		},
		{
			"bufferView":58,
			"componentType":5123,
			"count":2197,
			"normalized":true,
			"type":"VEC4"
		},
		{
			"bufferView":59,
			"componentType":5123,
			"count":3444,
			"type":"SCALAR"
		},
		{
			"bufferView":60,
			"componentType":5126,
			"count":3136,
			"max":[
				2.2451727390289307,
				0.9887958765029907,
				-1.082289457321167
			],
			"min":[
				-4.696084976196289,
				-0.6074538230895996,
				-7.373843193054199
			],
			"type":"VEC3"
		},
		{
			"bufferView":61,
			"componentType":5126,
			"count":3136,
			"type":"VEC3"
		},
		{
			"bufferView":62,
			"componentType":5126,
			"count":3136,
			"type":"VEC2"
		},
		{
			"bufferView":63,
			"componentType":5123,
			"count":3136,
			"normalized":true,
			"type":"VEC4"
		},
		{
			"bufferView":64,
			"componentType":5123,
			"count":4914,
			"type":"SCALAR"
		},
		{
			"bufferView":65,
			"componentType":5126,
			"count":108,
			"max":[
				-2.354249954223633,
				-0.21609146893024445,
				-4.0789642333984375
			],
			"min":[
				-2.5662853717803955,
				-0.37344178557395935,
				-4.305148124694824
			],
			"type":"VEC3"
		},
		{
			"bufferView":66,
			"componentType":5126,
			"count":108,
			"type":"VEC3"
		},
		{
			"bufferView":67,
			"componentType":5126,
			"count":108,
			"type":"VEC2"
		},
		{
			"bufferView":68,
			"componentType":5123,
			"count":108,
			"normalized":true,
			"type":"VEC4"
		},
		{
			"bufferView":69,
			"componentType":5123,
			"count":144,
			"type":"SCALAR"
		},
		{
			"bufferView":70,
			"componentType":5126,
			"count":47,
			"max":[
				-2.254218816757202,
				-0.12136326730251312,
				-5.716507911682129
			],
			"min":[
				-2.6016180515289307,
				-0.3372246325016022,
				-6.022160530090332
			],
			"type":"VEC3"
		},
		{
			"bufferView":71,
			"componentType":5126,
			"count":47,
			"type":"VEC3"
		},
		{
			"bufferView":72,
			"componentType":5126,
			"count":47,
			"type":"VEC2"
		},
		{
			"bufferView":73,
			"componentType":5123,
			"count":47,
			"normalized":true,
			"type":"VEC4"
		},
		{
			"bufferView":74,
			"componentType":5123,
			"count":75,
			"type":"SCALAR"
		},
		{
			"bufferView":75,
			"componentType":5126,
			"count":92,
			"max":[
				-1.3335436582565308,
				0.06261125206947327,
				-6.779845714569092
			],
			"min":[
				-1.553824782371521,
				-0.10043381154537201,
				-6.967364311218262
			],
			"type":"VEC3"
		},
		{
			"bufferView":76,
			"componentType":5126,
			"count":92,
			"type":"VEC3"
		},
		{
			"bufferView":77,
			"componentType":5126,
			"count":92,
			"type":"VEC2"
		},
		{
			"bufferView":78,
			"componentType":5123,
			"count":92,
			"normalized":true,
			"type":"VEC4"
		},
		{
			"bufferView":79,
			"componentType":5123,
			"count":144,
			"type":"SCALAR"
		},
		{
			"bufferView":80,
			"componentType":5126,
			"count":151,
			"max":[
				2.180260419845581,
				-0.3104938864707947,
				-3.9729421138763428
			],
			"min":[
				2.0725700855255127,
				-0.4361896812915802,
				-4.083407878875732
			],
			"type":"VEC3"
		},
		{
			"bufferView":81,
			"componentType":5126,
			"count":151,
			"type":"VEC3"
		},
		{
			"bufferView":82,
			"componentType":5126,
			"count":151,
			"type":"VEC2"
		},
		{
			"bufferView":83,
			"componentType":5123,
			"count":151,
			"normalized":true,
			"type":"VEC4"
		},
		{
			"bufferView":84,
			"componentType":5123,
			"count":270,
			"type":"SCALAR"
		},
		{
			"bufferView":85,
			"componentType":5126,
			"count":231,
			"max":[
				-2.1974198818206787,
				0.2103206217288971,
				-1.2028963565826416
			],
			"min":[
				-4.198747634887695,
				-0.284145325422287,
				-1.8072158098220825
			],
			"type":"VEC3"
		},
		{
			"bufferView":86,
			"componentType":5126,
			"count":231,
			"type":"VEC3"
		},
		{
			"bufferView":87,
			"componentType":5126,
			"count":231,
			"type":"VEC2"
		},
		{
			"bufferView":88,
			"componentType":5123,
			"count":231,
			"normalized":true,
			"type":"VEC4"
		},
		{
			"bufferView":89,
			"componentType":5123,
			"count":366,
			"type":"SCALAR"
		}
	],
	"bufferViews":[
		{
			"buffer":0,
			"byteLength":11220,
			"byteOffset":0,
			"target":34962
		},
		{
			"buffer":0,
			"byteLength":11220,
			"byteOffset":11220,
			"target":34962
		},
		{
			"buffer":0,
			"byteLength":7480,
			"byteOffset":22440,
			"target":34962
		},
		{
			"buffer":0,
			"byteLength":7480,
			"byteOffset":29920,
			"target":34962
		},
		{
			"buffer":0,
			"byteLength":3240,
			"byteOffset":37400,
			"target":34963
		},
		{
			"buffer":0,
			"byteLength":5280,
			"byteOffset":40640,
			"target":34962
		},
		{
			"buffer":0,
			"byteLength":5280,
			"byteOffset":45920,
			"target":34962
		},
		{
			"buffer":0,
			"byteLength":3520,
			"byteOffset":51200,
			"target":34962
		},
		{
			"buffer":0,
			"byteLength":3520,
			"byteOffset":54720,
			"target":34962
		},
		{
			"buffer":0,
			"byteLength":1416,
			"byteOffset":58240,
			"target":34963
		},
		{
			"buffer":0,
			"byteLength":9540,
			"byteOffset":59656,
			"target":34962
		},
		{
			"buffer":0,
			"byteLength":9540,
			"byteOffset":69196,
			"target":34962
		},
		{
			"buffer":0,
			"byteLength":6360,
			"byteOffset":78736,
			"target":34962
		},
		{
			"buffer":0,
			"byteLength":6360,
			"byteOffset":85096,
			"target":34962
		},
		{
			"buffer":0,
			"byteLength":1680,
			"byteOffset":91456,
			"target":34963
		},
		{
			"buffer":0,
			"byteLength":6588,
			"byteOffset":93136,
			"target":34962
		},
		{
			"buffer":0,
			"byteLength":6588,
			"byteOffset":99724,
			"target":34962
		},
		{
			"buffer":0,
			"byteLength":4392,
			"byteOffset":106312,
			"target":34962
		},
		{
			"buffer":0,
			"byteLength":4392,
			"byteOffset":110704,
			"target":34962
		},
		{
			"buffer":0,
			"byteLength":1920,
			"byteOffset":115096,
			"target":34963
		},
		{
			"buffer":0,
			"byteLength":534984,
			"byteOffset":117016,
			"target":34962
		},
		{
			"buffer":0,
			"byteLength":534984,
			"byteOffset":652000,
			"target":34962
		},
		{
			"buffer":0,
			"byteLength":356656,
			"byteOffset":1186984,
			"target":34962
		},
		{
			"buffer":0,
			"byteLength":356656,
			"byteOffset":1543640,
			"target":34962
		},
		{
			"buffer":0,
			"byteLength":118308,
			"byteOffset":1900296,
			"target":34963
		},
		{
			"buffer":0,
			"byteLength":648,
			"byteOffset":2018604,
			"target":34962
		},
		{
			"buffer":0,
			"byteLength":648,
			"byteOffset":2019252,
			"target":34962
		},
		{
			"buffer":0,
			"byteLength":432,
			"byteOffset":2019900,
			"target":34962
		},
		{
			"buffer":0,
			"byteLength":432,
			"byteOffset":2020332,
			"target":34962
		},
		{
			"buffer":0,
			"byteLength":162,
			"byteOffset":2020764,
			"target":34963
		},
		{
			"buffer":0,
			"byteLength":2448,
			"byteOffset":2020928,
			"target":34962
		},
		{
			"buffer":0,
			"byteLength":2448,
			"byteOffset":2023376,
			"target":34962
		},
		{
			"buffer":0,
			"byteLength":1632,
			"byteOffset":2025824,
			"target":34962
		},
		{
			"buffer":0,
			"byteLength":1632,
			"byteOffset":2027456,
			"target":34962
		},
		{
			"buffer":0,
			"byteLength":588,
			"byteOffset":2029088,
			"target":34963
		},
		{
			"buffer":0,
			"byteLength":49680,
			"byteOffset":2029676,
			"target":34962
		},
		{
			"buffer":0,
			"byteLength":49680,
			"byteOffset":2079356,
			"target":34962
		},
		{
			"buffer":0,
			"byteLength":33120,
			"byteOffset":2129036,
			"target":34962
		},
		{
			"buffer":0,
			"byteLength":33120,
			"byteOffset":2162156,
			"target":34962
		},
		{
			"buffer":0,
			"byteLength":14316,
			"byteOffset":2195276,
			"target":34963
		},
		{
			"buffer":0,
			"byteLength":25452,
			"byteOffset":2209592,
			"target":34962
		},
		{
			"buffer":0,
			"byteLength":25452,
			"byteOffset":2235044,
			"target":34962
		},
		{
			"buffer":0,
			"byteLength":16968,
			"byteOffset":2260496,
			"target":34962
		},
		{
			"buffer":0,
			"byteLength":16968,
			"byteOffset":2277464,
			"target":34962
		},
		{
			"buffer":0,
			"byteLength":6516,
			"byteOffset":2294432,
			"target":34963
		},
		{
			"buffer":0,
			"byteLength":51432,
			"byteOffset":2300948,
			"target":34962
		},
		{
			"buffer":0,
			"byteLength":51432,
			"byteOffset":2352380,
			"target":34962
		},
		{
			"buffer":0,
			"byteLength":34288,
			"byteOffset":2403812,
			"target":34962
		},
		{
			"buffer":0,
			"byteLength":34288,
			"byteOffset":2438100,
			"target":34962
		},
		{
			"buffer":0,
			"byteLength":14808,
			"byteOffset":2472388,
			"target":34963
		},
		{
			"buffer":0,
			"byteLength":15744,
			"byteOffset":2487196,
			"target":34962
		},
		{
			"buffer":0,
			"byteLength":15744,
			"byteOffset":2502940,
			"target":34962
		},
		{
			"buffer":0,
			"byteLength":10496,
			"byteOffset":2518684,
			"target":34962
		},
		{
			"buffer":0,
			"byteLength":10496,
			"byteOffset":2529180,
			"target":34962
		},
		{
			"buffer":0,
			"byteLength":4044,
			"byteOffset":2539676,
			"target":34963
		},
		{
			"buffer":0,
			"byteLength":26364,
			"byteOffset":2543720,
			"target":34962
		},
		{
			"buffer":0,
			"byteLength":26364,
			"byteOffset":2570084,
			"target":34962
		},
		{
			"buffer":0,
			"byteLength":17576,
			"byteOffset":2596448,
			"target":34962
		},
		{
			"buffer":0,
			"byteLength":17576,
			"byteOffset":2614024,
			"target":34962
		},
		{
			"buffer":0,
			"byteLength":6888,
			"byteOffset":2631600,
			"target":34963
		},
		{
			"buffer":0,
			"byteLength":37632,
			"byteOffset":2638488,
			"target":34962
		},
		{
			"buffer":0,
			"byteLength":37632,
			"byteOffset":2676120,
			"target":34962
		},
		{
			"buffer":0,
			"byteLength":25088,
			"byteOffset":2713752,
			"target":34962
		},
		{
			"buffer":0,
			"byteLength":25088,
			"byteOffset":2738840,
			"target":34962
		},
		{
			"buffer":0,
			"byteLength":9828,
			"byteOffset":2763928,
			"target":34963
		},
		{
			"buffer":0,
			"byteLength":1296,
			"byteOffset":2773756,
			"target":34962
		},
		{
			"buffer":0,
			"byteLength":1296,
			"byteOffset":2775052,
			"target":34962
		},
		{
			"buffer":0,
			"byteLength":864,
			"byteOffset":2776348,
			"target":34962
		},
		{
			"buffer":0,
			"byteLength":864,
			"byteOffset":2777212,
			"target":34962
		},
		{
			"buffer":0,
			"byteLength":288,
			"byteOffset":2778076,
			"target":34963
		},
		{
			"buffer":0,
			"byteLength":564,
			"byteOffset":2778364,
			"target":34962
		},
		{
			"buffer":0,
			"byteLength":564,
			"byteOffset":2778928,
			"target":34962
		},
		{
			"buffer":0,
			"byteLength":376,
			"byteOffset":2779492,
			"target":34962
		},
		{
			"buffer":0,
			"byteLength":376,
			"byteOffset":2779868,
			"target":34962
		},
		{
			"buffer":0,
			"byteLength":150,
			"byteOffset":2780244,
			"target":34963
		},
		{
			"buffer":0,
			"byteLength":1104,
			"byteOffset":2780396,
			"target":34962
		},
		{
			"buffer":0,
			"byteLength":1104,
			"byteOffset":2781500,
			"target":34962
		},
		{
			"buffer":0,
			"byteLength":736,
			"byteOffset":2782604,
			"target":34962
		},
		{
			"buffer":0,
			"byteLength":736,
			"byteOffset":2783340,
			"target":34962
		},
		{
			"buffer":0,
			"byteLength":288,
			"byteOffset":2784076,
			"target":34963
		},
		{
			"buffer":0,
			"byteLength":1812,
			"byteOffset":2784364,
			"target":34962
		},
		{
			"buffer":0,
			"byteLength":1812,
			"byteOffset":2786176,
			"target":34962
		},
		{
			"buffer":0,
			"byteLength":1208,
			"byteOffset":2787988,
			"target":34962
		},
		{
			"buffer":0,
			"byteLength":1208,
			"byteOffset":2789196,
			"target":34962
		},
		{
			"buffer":0,
			"byteLength":540,
			"byteOffset":2790404,
			"target":34963
		},
		{
			"buffer":0,
			"byteLength":2772,
			"byteOffset":2790944,
			"target":34962
		},
		{
			"buffer":0,
			"byteLength":2772,
			"byteOffset":2793716,
			"target":34962
		},
		{
			"buffer":0,
			"byteLength":1848,
			"byteOffset":2796488,
			"target":34962
		},
		{
			"buffer":0,
			"byteLength":1848,
			"byteOffset":2798336,
			"target":34962
		},
		{
			"buffer":0,
			"byteLength":732,
			"byteOffset":2800184,
			"target":34963
		}
	],
	"buffers":[
		{
			"byteLength":2800916,
			"uri":"cell_x1_z1_render.bin"
		}
	]
}
