{
	"asset":{
		"generator":"Khronos glTF Blender I/O v4.5.51",
		"version":"2.0"
	},
	"scene":0,
	"scenes":[
		{
			"name":"Scene",
			"nodes":[
				0
			]
		}
	],
	"nodes":[
		{
			"mesh":0,
			"name":"cell_x-2_z1",
			"rotation":[
				0.014050822705030441,
				0.969900906085968,
				-0.057709950953722,
				0.2361448109149933
			],
			"scale":[
				4.7818708419799805,
				4.781870365142822,
				4.781870365142822
			],
			"translation":[
				-54.269535064697266,
				-0.18352250754833221,
				61.34883117675781
			]
		}
	],
	"materials":[
		{
			"name":"stone_v1",
			"pbrMetallicRoughness":{
				"baseColorFactor":[
					0.2541520893573761,
					0.28744083642959595,
					0.3049873113632202,
					1
				],
				"metallicFactor":0,
				"roughnessFactor":0.9200000166893005
			}
		},
		{
			"name":"dirt_v1",
			"pbrMetallicRoughness":{
				"baseColorFactor":[
					0.2581828534603119,
					0.1946178376674652,
					0.1119324266910553,
					1
				],
				"metallicFactor":0,
				"roughnessFactor":0.9200000166893005
			}
		},
		{
			"name":"grass",
			"pbrMetallicRoughness":{
				"baseColorFactor":[
					0.15592646598815918,
					0.2961382567882538,
					0.0802198201417923,
					1
				],
				"metallicFactor":0,
				"roughnessFactor":0.9200000166893005
			}
		},
		{
			"name":"woodBark",
			"pbrMetallicRoughness":{
				"baseColorFactor":[
					0.2015562504529953,
					0.08437620848417282,
					0.02955683507025242,
					1
				],
				"metallicFactor":0,
				"roughnessFactor":0.9200000166893005
			}
		},
		{
			"name":"leafsGreen",
			"pbrMetallicRoughness":{
				"baseColorFactor":[
					0.11443537473678589,
					0.23074005544185638,
					0.06301001459360123,
					1
				],
				"metallicFactor":0,
				"roughnessFactor":0.9200000166893005
			}
		},
		{
			"name":"woodBarkDark",
			"pbrMetallicRoughness":{
				"baseColorFactor":[
					0.11443537473678589,
					0.04666508734226227,
					0.016807375475764275,
					1
				],
				"metallicFactor":0,
				"roughnessFactor":0.9200000166893005
			}
		},
		{
			"name":"leafsDark",
			"pbrMetallicRoughness":{
				"baseColorFactor":[
					0.04817182570695877,
					0.11443537473678589,
					0.03310476616024971,
					1
				],
				"metallicFactor":0,
				"roughnessFactor":0.9200000166893005
			}
		},
		{
			"name":"_defaultMat",
			"pbrMetallicRoughness":{
				"baseColorFactor":[
					0.4564110338687897,
					0.4564110338687897,
					0.4125426113605499,
					1
				],
				"metallicFactor":0,
				"roughnessFactor":0.9200000166893005
			}
		},
		{
			"name":"woodInner",
			"pbrMetallicRoughness":{
				"baseColorFactor":[
					0.577580451965332,
					0.423267662525177,
					0.23839756846427917,
					1
				],
				"metallicFactor":0,
				"roughnessFactor":0.9200000166893005
			}
		},
		{
			"name":"colorPurple",
			"pbrMetallicRoughness":{
				"baseColorFactor":[
					0.19806931912899017,
					0.15592646598815918,
					0.3324515223503113,
					1
				],
				"metallicFactor":0,
				"roughnessFactor":0.9200000166893005
			}
		},
		{
			"name":"colorWhite",
			"pbrMetallicRoughness":{
				"baseColorFactor":[
					0.68668532371521,
					0.6583748459815979,
					0.577580451965332,
					1
				],
				"metallicFactor":0,
				"roughnessFactor":0.9200000166893005
			}
		},
		{
			"name":"stone_v3",
			"pbrMetallicRoughness":{
				"baseColorFactor":[
					0.20863686501979828,
					0.2462013214826584,
					0.2622506618499756,
					1
				],
				"metallicFactor":0,
				"roughnessFactor":0.9200000166893005
			}
		},
		{
			"name":"dirt_v3",
			"pbrMetallicRoughness":{
				"baseColorFactor":[
					0.20863686501979828,
					0.15896083414554596,
					0.09084171056747437,
					1
				],
				"metallicFactor":0,
				"roughnessFactor":0.9200000166893005
			}
		},
		{
			"name":"dirt_v0",
			"pbrMetallicRoughness":{
				"baseColorFactor":[
					0.32314321398735046,
					0.24228112399578094,
					0.1384316086769104,
					1
				],
				"metallicFactor":0,
				"roughnessFactor":0.9200000166893005
			}
		},
		{
			"doubleSided":true,
			"name":"Color",
			"pbrMetallicRoughness":{
				"baseColorTexture":{
					"index":0
				},
				"metallicFactor":0,
				"roughnessFactor":0.75
			}
		},
		{
			"name":"wood",
			"pbrMetallicRoughness":{
				"baseColorFactor":[
					0.32314321398735046,
					0.1384316086769104,
					0.039546236395835876,
					1
				],
				"metallicFactor":0,
				"roughnessFactor":0.9200000166893005
			}
		},
		{
			"name":"colorRed",
			"pbrMetallicRoughness":{
				"baseColorFactor":[
					0.34191441535949707,
					0.08437620848417282,
					0.05951123684644699,
					1
				],
				"metallicFactor":0,
				"roughnessFactor":0.9200000166893005
			}
		},
		{
			"name":"colorRedDark",
			"pbrMetallicRoughness":{
				"baseColorFactor":[
					0.1946178376674652,
					0.04666508734226227,
					0.03433980792760849,
					1
				],
				"metallicFactor":0,
				"roughnessFactor":0.9200000166893005
			}
		},
		{
			"name":"stone_v0",
			"pbrMetallicRoughness":{
				"baseColorFactor":[
					0.32314321398735046,
					0.35153260827064514,
					0.3613067865371704,
					1
				],
				"metallicFactor":0,
				"roughnessFactor":0.9200000166893005
			}
		},
		{
			"name":"stoneDark_v0",
			"pbrMetallicRoughness":{
				"baseColorFactor":[
					0.15592646598815918,
					0.17464740574359894,
					0.18782077729701996,
					1
				],
				"metallicFactor":0,
				"roughnessFactor":0.9200000166893005
			}
		},
		{
			"name":"stone_v2",
			"pbrMetallicRoughness":{
				"baseColorFactor":[
					0.38132601976394653,
					0.38132601976394653,
					0.3324515223503113,
					1
				],
				"metallicFactor":0,
				"roughnessFactor":0.9200000166893005
			}
		}
	],
	"meshes":[
		{
			"name":"Mesh stone_largeC.017",
			"primitives":[
				{
					"attributes":{
						"POSITION":0,
						"NORMAL":1,
						"TEXCOORD_0":2
					},
					"indices":3,
					"material":0
				},
				{
					"attributes":{
						"POSITION":4,
						"NORMAL":5,
						"TEXCOORD_0":6
					},
					"indices":7,
					"material":1
				},
				{
					"attributes":{
						"POSITION":8,
						"NORMAL":9,
						"TEXCOORD_0":10
					},
					"indices":11,
					"material":2
				},
				{
					"attributes":{
						"POSITION":12,
						"NORMAL":13,
						"TEXCOORD_0":14
					},
					"indices":15,
					"material":3
				},
				{
					"attributes":{
						"POSITION":16,
						"NORMAL":17,
						"TEXCOORD_0":18
					},
					"indices":19,
					"material":4
				},
				{
					"attributes":{
						"POSITION":20,
						"NORMAL":21,
						"TEXCOORD_0":22
					},
					"indices":23,
					"material":5
				},
				{
					"attributes":{
						"POSITION":24,
						"NORMAL":25,
						"TEXCOORD_0":26
					},
					"indices":27,
					"material":6
				},
				{
					"attributes":{
						"POSITION":28,
						"NORMAL":29,
						"TEXCOORD_0":30
					},
					"indices":31,
					"material":7
				},
				{
					"attributes":{
						"POSITION":32,
						"NORMAL":33,
						"TEXCOORD_0":34
					},
					"indices":35,
					"material":8
				},
				{
					"attributes":{
						"POSITION":36,
						"NORMAL":37,
						"TEXCOORD_0":38
					},
					"indices":39,
					"material":9
				},
				{
					"attributes":{
						"POSITION":40,
						"NORMAL":41,
						"TEXCOORD_0":42
					},
					"indices":43,
					"material":10
				},
				{
					"attributes":{
						"POSITION":44,
						"NORMAL":45,
						"TEXCOORD_0":46
					},
					"indices":47,
					"material":11
				},
				{
					"attributes":{
						"POSITION":48,
						"NORMAL":49,
						"TEXCOORD_0":50
					},
					"indices":51,
					"material":12
				},
				{
					"attributes":{
						"POSITION":52,
						"NORMAL":53,
						"TEXCOORD_0":54
					},
					"indices":55,
					"material":13
				},
				{
					"attributes":{
						"POSITION":56,
						"NORMAL":57,
						"TEXCOORD_0":58
					},
					"indices":59,
					"material":14
				},
				{
					"attributes":{
						"POSITION":60,
						"NORMAL":61,
						"TEXCOORD_0":62
					},
					"indices":63,
					"material":15
				},
				{
					"attributes":{
						"POSITION":64,
						"NORMAL":65,
						"TEXCOORD_0":66
					},
					"indices":67,
					"material":16
				},
				{
					"attributes":{
						"POSITION":68,
						"NORMAL":69,
						"TEXCOORD_0":70
					},
					"indices":71,
					"material":17
				},
				{
					"attributes":{
						"POSITION":72,
						"NORMAL":73,
						"TEXCOORD_0":74
					},
					"indices":75,
					"material":18
				},
				{
					"attributes":{
						"POSITION":76,
						"NORMAL":77,
						"TEXCOORD_0":78
					},
					"indices":79,
					"material":19
				},
				{
					"attributes":{
						"POSITION":80,
						"NORMAL":81,
						"TEXCOORD_0":82
					},
					"indices":83,
					"material":20
				}
			]
		}
	],
	"textures":[
		{
			"sampler":0,
			"source":0
		}
	],
	"images":[
		{
			"mimeType":"image/png",
			"name":"Textures_4",
			"uri":"textures/Textures_4.png"
		}
	],
	"accessors":[
		{
			"bufferView":0,
			"componentType":5126,
			"count":520,
			"max":[
				0.5322049260139465,
				0.3211120069026947,
				5.375927925109863
			],
			"min":[
				-4.083043575286865,
				-1.1965882778167725,
				-3.9628517627716064
			],
			"type":"VEC3"
		},
		{
			"bufferView":1,
			"componentType":5126,
			"count":520,
			"type":"VEC3"
		},
		{
			"bufferView":2,
			"componentType":5126,
			"count":520,
			"type":"VEC2"
		},
		{
			"bufferView":3,
			"componentType":5123,
			"count":840,
			"type":"SCALAR"
		},
		{
			"bufferView":4,
			"componentType":5126,
			"count":198,
			"max":[
				1.318278431892395,
				0.5757118463516235,
				3.1565027236938477
			],
			"min":[
				-2.8617024421691895,
				-0.7726070880889893,
				1.050050973892212
			],
			"type":"VEC3"
		},
		{
			"bufferView":5,
			"componentType":5126,
			"count":198,
			"type":"VEC3"
		},
		{
			"bufferView":6,
			"componentType":5126,
			"count":198,
			"type":"VEC2"
		},
		{
			"bufferView":7,
			"componentType":5123,
			"count":306,
			"type":"SCALAR"
		},
		{
			"bufferView":8,
			"componentType":5126,
			"count":24976,
			"max":[
				6.5086588859558105,
				0.9172683954238892,
				4.620802402496338
			],
			"min":[
				-2.9172656536102295,
				-1.3143516778945923,
				-5.5126953125
			],
			"type":"VEC3"
		},
		{
			"bufferView":9,
			"componentType":5126,
			"count":24976,
			"type":"VEC3"
		},
		{
			"bufferView":10,
			"componentType":5126,
			"count":24976,
			"type":"VEC2"
		},
		{
			"bufferView":11,
			"componentType":5123,
			"count":33492,
			"type":"SCALAR"
		},
		{
			"bufferView":12,
			"componentType":5126,
			"count":3567,
			"max":[
				5.433465003967285,
				1.1877861022949219,
				3.023682117462158
			],
			"min":[
				-0.6798058748245239,
				-0.21479590237140656,
				-5.298756122589111
			],
			"type":"VEC3"
		},
		{
			"bufferView":13,
			"componentType":5126,
			"count":3567,
			"type":"VEC3"
		},
		{
			"bufferView":14,
			"componentType":5126,
			"count":3567,
			"type":"VEC2"
		},
		{
			"bufferView":15,
			"componentType":5123,
			"count":5706,
			"type":"SCALAR"
		},
		{
			"bufferView":16,
			"componentType":5126,
			"count":5243,
			"max":[
				6.451690196990967,
				1.863466739654541,
				3.0352420806884766
			],
			"min":[
				-0.8169981241226196,
				-0.23924687504768372,
				-5.562081336975098
			],
			"type":"VEC3"
		},
		{
			"bufferView":17,
			"componentType":5126,
			"count":5243,
			"type":"VEC3"
		},
		{
			"bufferView":18,
			"componentType":5126,
			"count":5243,
			"type":"VEC2"
		},
		{
			"bufferView":19,
			"componentType":5123,
			"count":8376,
			"type":"SCALAR"
		},
		{
			"bufferView":20,
			"componentType":5126,
			"count":2152,
			"max":[
				5.602295398712158,
				1.3018159866333008,
				-0.9992457628250122
			],
			"min":[
				-0.8824033737182617,
				-0.20873194932937622,
				-5.04360818862915
			],
			"type":"VEC3"
		},
		{
			"bufferView":21,
			"componentType":5126,
			"count":2152,
			"type":"VEC3"
		},
		{
			"bufferView":22,
			"componentType":5126,
			"count":2152,
			"type":"VEC2"
		},
		{
			"bufferView":23,
			"componentType":5123,
			"count":3330,
			"type":"SCALAR"
		},
		{
			"bufferView":24,
			"componentType":5126,
			"count":2440,
			"max":[
				5.68956184387207,
				2.0837979316711426,
				-0.9103578925132751
			],
			"min":[
				-1.018484354019165,
				0.12522906064987183,
				-5.127596855163574
			],
			"type":"VEC3"
		},
		{
			"bufferView":25,
			"componentType":5126,
			"count":2440,
			"type":"VEC3"
		},
		{
			"bufferView":26,
			"componentType":5126,
			"count":2440,
			"type":"VEC2"
		},
		{
			"bufferView":27,
			"componentType":5123,
			"count":3648,
			"type":"SCALAR"
		},
		{
			"bufferView":28,
			"componentType":5126,
			"count":225,
			"max":[
				5.4416656494140625,
				1.1092047691345215,
				3.7395389080047607
			],
			"min":[
				1.064441204071045,
				0.258353054523468,
				-4.870241165161133
			],
			"type":"VEC3"
		},
		{
			"bufferView":29,
			"componentType":5126,
			"count":225,
			"type":"VEC3"
		},
		{
			"bufferView":30,
			"componentType":5126,
			"count":225,
			"type":"VEC2"
		},
		{
			"bufferView":31,
			"componentType":5123,
			"count":228,
			"type":"SCALAR"
		},
		{
			"bufferView":32,
			"componentType":5126,
			"count":77,
			"max":[
				3.2300615310668945,
				0.7272979617118835,
				3.0008351802825928
			],
			"min":[
				1.0512502193450928,
				0.40788140892982483,
				-1.482248067855835
			],
			"type":"VEC3"
		},
		{
			"bufferView":33,
			"componentType":5126,
			"count":77,
			"type":"VEC3"
		},
		{
			"bufferView":34,
			"componentType":5126,
			"count":77,
			"type":"VEC2"
		},
		{
			"bufferView":35,
			"componentType":5123,
			"count":120,
			"type":"SCALAR"
		},
		{
			"bufferView":36,
			"componentType":5126,
			"count":63,
			"max":[
				0.5058335065841675,
				0.07661515474319458,
				-4.111635684967041
			],
			"min":[
				0.378581166267395,
				0.019742652773857117,
				-4.231177806854248
			],
			"type":"VEC3"
		},
		{
			"bufferView":37,
			"componentType":5126,
			"count":63,
			"type":"VEC3"
		},
		{
			"bufferView":38,
			"componentType":5126,
			"count":63,
			"type":"VEC2"
		},
		{
			"bufferView":39,
			"componentType":5123,
			"count":105,
			"type":"SCALAR"
		},
		{
			"bufferView":40,
			"componentType":5126,
			"count":6,
			"max":[
				0.47391805052757263,
				0.050663262605667114,
				-4.138946056365967
			],
			"min":[
				0.41049665212631226,
				0.0435481071472168,
				-4.198524475097656
			],
			"type":"VEC3"
		},
		{
			"bufferView":41,
			"componentType":5126,
			"count":6,
			"type":"VEC3"
		},
		{
			"bufferView":42,
			"componentType":5126,
			"count":6,
			"type":"VEC2"
		},
		{
			"bufferView":43,
			"componentType":5123,
			"count":12,
			"type":"SCALAR"
		},
		{
			"bufferView":44,
			"componentType":5126,
			"count":532,
			"max":[
				2.872011184692383,
				1.3236308097839355,
				2.311552047729492
			],
			"min":[
				-3.8735709190368652,
				-1.1120014190673828,
				-1.8601430654525757
			],
			"type":"VEC3"
		},
		{
			"bufferView":45,
			"componentType":5126,
			"count":532,
			"type":"VEC3"
		},
		{
			"bufferView":46,
			"componentType":5126,
			"count":532,
			"type":"VEC2"
		},
		{
			"bufferView":47,
			"componentType":5123,
			"count":912,
			"type":"SCALAR"
		},
		{
			"bufferView":48,
			"componentType":5126,
			"count":60,
			"max":[
				-1.1234617233276367,
				-0.5475926399230957,
				2.381904125213623
			],
			"min":[
				-1.4415745735168457,
				-0.640114963054657,
				2.033045530319214
			],
			"type":"VEC3"
		},
		{
			"bufferView":49,
			"componentType":5126,
			"count":60,
			"type":"VEC3"
		},
		{
			"bufferView":50,
			"componentType":5126,
			"count":60,
			"type":"VEC2"
		},
		{
			"bufferView":51,
			"componentType":5123,
			"count":93,
			"type":"SCALAR"
		},
		{
			"bufferView":52,
			"componentType":5126,
			"count":200,
			"max":[
				0.29759663343429565,
				0.0008211135864257812,
				2.1684043407440186
			],
			"min":[
				-2.9304256439208984,
				-0.9025490283966064,
				0.018462397158145905
			],
			"type":"VEC3"
		},
		{
			"bufferView":53,
			"componentType":5126,
			"count":200,
			"type":"VEC3"
		},
		{
			"bufferView":54,
			"componentType":5126,
			"count":200,
			"type":"VEC2"
		},
		{
			"bufferView":55,
			"componentType":5123,
			"count":306,
			"type":"SCALAR"
		},
		{
			"bufferView":56,
			"componentType":5126,
			"count":1281,
			"max":[
				4.376952648162842,
				1.0754220485687256,
				-0.051003843545913696
			],
			"min":[
				4.009530544281006,
				0.44349634647369385,
				-0.45257508754730225
			],
			"type":"VEC3"
		},
		{
			"bufferView":57,
			"componentType":5126,
			"count":1281,
			"type":"VEC3"
		},
		{
			"bufferView":58,
			"componentType":5126,
			"count":1281,
			"type":"VEC2"
		},
		{
			"bufferView":59,
			"componentType":5123,
			"count":5100,
			"type":"SCALAR"
		},
		{
			"bufferView":60,
			"componentType":5126,
			"count":1154,
			"max":[
				3.0050466060638428,
				0.9265545606613159,
				3.9296534061431885
			],
			"min":[
				-0.0805770754814148,
				-0.5652942657470703,
				0.30503249168395996
			],
			"type":"VEC3"
		},
		{
			"bufferView":61,
			"componentType":5126,
			"count":1154,
			"type":"VEC3"
		},
		{
			"bufferView":62,
			"componentType":5126,
			"count":1154,
			"type":"VEC2"
		},
		{
			"bufferView":63,
			"componentType":5123,
			"count":1836,
			"type":"SCALAR"
		},
		{
			"bufferView":64,
			"componentType":5126,
			"count":365,
			"max":[
				2.9907169342041016,
				0.859626054763794,
				2.146998882293701
			],
			"min":[
				1.1920443773269653,
				0.3202321231365204,
				0.3268391788005829
			],
			"type":"VEC3"
		},
		{
			"bufferView":65,
			"componentType":5126,
			"count":365,
			"type":"VEC3"
		},
		{
			"bufferView":66,
			"componentType":5126,
			"count":365,
			"type":"VEC2"
		},
		{
			"bufferView":67,
			"componentType":5123,
			"count":816,
			"type":"SCALAR"
		},
		{
			"bufferView":68,
			"componentType":5126,
			"count":34,
			"max":[
				2.8092379570007324,
				0.859626054763794,
				1.9721819162368774
			],
			"min":[
				1.286067008972168,
				0.3791656494140625,
				0.8538440465927124
			],
			"type":"VEC3"
		},
		{
			"bufferView":69,
			"componentType":5126,
			"count":34,
			"type":"VEC3"
		},
		{
			"bufferView":70,
			"componentType":5126,
			"count":34,
			"type":"VEC2"
		},
		{
			"bufferView":71,
			"componentType":5123,
			"count":48,
			"type":"SCALAR"
		},
		{
			"bufferView":72,
			"componentType":5126,
			"count":423,
			"max":[
				3.4678213596343994,
				1.3472113609313965,
				3.7395389080047607
			],
			"min":[
				1.064441204071045,
				0.43731755018234253,
				0.1438818871974945
			],
			"type":"VEC3"
		},
		{
			"bufferView":73,
			"componentType":5126,
			"count":423,
			"type":"VEC3"
		},
		{
			"bufferView":74,
			"componentType":5126,
			"count":423,
			"type":"VEC2"
		},
		{
			"bufferView":75,
			"componentType":5123,
			"count":768,
			"type":"SCALAR"
		},
		{
			"bufferView":76,
			"componentType":5126,
			"count":80,
			"max":[
				3.4678213596343994,
				0.8841294050216675,
				0.6711077690124512
			],
			"min":[
				2.9728124141693115,
				0.43731755018234253,
				0.1438818871974945
			],
			"type":"VEC3"
		},
		{
			"bufferView":77,
			"componentType":5126,
			"count":80,
			"type":"VEC3"
		},
		{
			"bufferView":78,
			"componentType":5126,
			"count":80,
			"type":"VEC2"
		},
		{
			"bufferView":79,
			"componentType":5123,
			"count":108,
			"type":"SCALAR"
		},
		{
			"bufferView":80,
			"componentType":5126,
			"count":245,
			"max":[
				3.9734134674072266,
				1.5204565525054932,
				1.2655303478240967
			],
			"min":[
				2.9890923500061035,
				0.48674657940864563,
				0.3255612850189209
			],
			"type":"VEC3"
		},
		{
			"bufferView":81,
			"componentType":5126,
			"count":245,
			"type":"VEC3"
		},
		{
			"bufferView":82,
			"componentType":5126,
			"count":245,
			"type":"VEC2"
		},
		{
			"bufferView":83,
			"componentType":5123,
			"count":456,
			"type":"SCALAR"
		}
	],
	"bufferViews":[
		{
			"buffer":0,
			"byteLength":6240,
			"byteOffset":0,
			"target":34962
		},
		{
			"buffer":0,
			"byteLength":6240,
			"byteOffset":6240,
			"target":34962
		},
		{
			"buffer":0,
			"byteLength":4160,
			"byteOffset":12480,
			"target":34962
		},
		{
			"buffer":0,
			"byteLength":1680,
			"byteOffset":16640,
			"target":34963
		},
		{
			"buffer":0,
			"byteLength":2376,
			"byteOffset":18320,
			"target":34962
		},
		{
			"buffer":0,
			"byteLength":2376,
			"byteOffset":20696,
			"target":34962
		},
		{
			"buffer":0,
			"byteLength":1584,
			"byteOffset":23072,
			"target":34962
		},
		{
			"buffer":0,
			"byteLength":612,
			"byteOffset":24656,
			"target":34963
		},
		{
			"buffer":0,
			"byteLength":299712,
			"byteOffset":25268,
			"target":34962
		},
		{
			"buffer":0,
			"byteLength":299712,
			"byteOffset":324980,
			"target":34962
		},
		{
			"buffer":0,
			"byteLength":199808,
			"byteOffset":624692,
			"target":34962
		},
		{
			"buffer":0,
			"byteLength":66984,
			"byteOffset":824500,
			"target":34963
		},
		{
			"buffer":0,
			"byteLength":42804,
			"byteOffset":891484,
			"target":34962
		},
		{
			"buffer":0,
			"byteLength":42804,
			"byteOffset":934288,
			"target":34962
		},
		{
			"buffer":0,
			"byteLength":28536,
			"byteOffset":977092,
			"target":34962
		},
		{
			"buffer":0,
			"byteLength":11412,
			"byteOffset":1005628,
			"target":34963
		},
		{
			"buffer":0,
			"byteLength":62916,
			"byteOffset":1017040,
			"target":34962
		},
		{
			"buffer":0,
			"byteLength":62916,
			"byteOffset":1079956,
			"target":34962
		},
		{
			"buffer":0,
			"byteLength":41944,
			"byteOffset":1142872,
			"target":34962
		},
		{
			"buffer":0,
			"byteLength":16752,
			"byteOffset":1184816,
			"target":34963
		},
		{
			"buffer":0,
			"byteLength":25824,
			"byteOffset":1201568,
			"target":34962
		},
		{
			"buffer":0,
			"byteLength":25824,
			"byteOffset":1227392,
			"target":34962
		},
		{
			"buffer":0,
			"byteLength":17216,
			"byteOffset":1253216,
			"target":34962
		},
		{
			"buffer":0,
			"byteLength":6660,
			"byteOffset":1270432,
			"target":34963
		},
		{
			"buffer":0,
			"byteLength":29280,
			"byteOffset":1277092,
			"target":34962
		},
		{
			"buffer":0,
			"byteLength":29280,
			"byteOffset":1306372,
			"target":34962
		},
		{
			"buffer":0,
			"byteLength":19520,
			"byteOffset":1335652,
			"target":34962
		},
		{
			"buffer":0,
			"byteLength":7296,
			"byteOffset":1355172,
			"target":34963
		},
		{
			"buffer":0,
			"byteLength":2700,
			"byteOffset":1362468,
			"target":34962
		},
		{
			"buffer":0,
			"byteLength":2700,
			"byteOffset":1365168,
			"target":34962
		},
		{
			"buffer":0,
			"byteLength":1800,
			"byteOffset":1367868,
			"target":34962
		},
		{
			"buffer":0,
			"byteLength":456,
			"byteOffset":1369668,
			"target":34963
		},
		{
			"buffer":0,
			"byteLength":924,
			"byteOffset":1370124,
			"target":34962
		},
		{
			"buffer":0,
			"byteLength":924,
			"byteOffset":1371048,
			"target":34962
		},
		{
			"buffer":0,
			"byteLength":616,
			"byteOffset":1371972,
			"target":34962
		},
		{
			"buffer":0,
			"byteLength":240,
			"byteOffset":1372588,
			"target":34963
		},
		{
			"buffer":0,
			"byteLength":756,
			"byteOffset":1372828,
			"target":34962
		},
		{
			"buffer":0,
			"byteLength":756,
			"byteOffset":1373584,
			"target":34962
		},
		{
			"buffer":0,
			"byteLength":504,
			"byteOffset":1374340,
			"target":34962
		},
		{
			"buffer":0,
			"byteLength":210,
			"byteOffset":1374844,
			"target":34963
		},
		{
			"buffer":0,
			"byteLength":72,
			"byteOffset":1375056,
			"target":34962
		},
		{
			"buffer":0,
			"byteLength":72,
			"byteOffset":1375128,
			"target":34962
		},
		{
			"buffer":0,
			"byteLength":48,
			"byteOffset":1375200,
			"target":34962
		},
		{
			"buffer":0,
			"byteLength":24,
			"byteOffset":1375248,
			"target":34963
		},
		{
			"buffer":0,
			"byteLength":6384,
			"byteOffset":1375272,
			"target":34962
		},
		{
			"buffer":0,
			"byteLength":6384,
			"byteOffset":1381656,
			"target":34962
		},
		{
			"buffer":0,
			"byteLength":4256,
			"byteOffset":1388040,
			"target":34962
		},
		{
			"buffer":0,
			"byteLength":1824,
			"byteOffset":1392296,
			"target":34963
		},
		{
			"buffer":0,
			"byteLength":720,
			"byteOffset":1394120,
			"target":34962
		},
		{
			"buffer":0,
			"byteLength":720,
			"byteOffset":1394840,
			"target":34962
		},
		{
			"buffer":0,
			"byteLength":480,
			"byteOffset":1395560,
			"target":34962
		},
		{
			"buffer":0,
			"byteLength":186,
			"byteOffset":1396040,
			"target":34963
		},
		{
			"buffer":0,
			"byteLength":2400,
			"byteOffset":1396228,
			"target":34962
		},
		{
			"buffer":0,
			"byteLength":2400,
			"byteOffset":1398628,
			"target":34962
		},
		{
			"buffer":0,
			"byteLength":1600,
			"byteOffset":1401028,
			"target":34962
		},
		{
			"buffer":0,
			"byteLength":612,
			"byteOffset":1402628,
			"target":34963
		},
		{
			"buffer":0,
			"byteLength":15372,
			"byteOffset":1403240,
			"target":34962
		},
		{
			"buffer":0,
			"byteLength":15372,
			"byteOffset":1418612,
			"target":34962
		},
		{
			"buffer":0,
			"byteLength":10248,
			"byteOffset":1433984,
			"target":34962
		},
		{
			"buffer":0,
			"byteLength":10200,
			"byteOffset":1444232,
			"target":34963
		},
		{
			"buffer":0,
			"byteLength":13848,
			"byteOffset":1454432,
			"target":34962
		},
		{
			"buffer":0,
			"byteLength":13848,
			"byteOffset":1468280,
			"target":34962
		},
		{
			"buffer":0,
			"byteLength":9232,
			"byteOffset":1482128,
			"target":34962
		},
		{
			"buffer":0,
			"byteLength":3672,
			"byteOffset":1491360,
			"target":34963
		},
		{
			"buffer":0,
			"byteLength":4380,
			"byteOffset":1495032,
			"target":34962
		},
		{
			"buffer":0,
			"byteLength":4380,
			"byteOffset":1499412,
			"target":34962
		},
		{
			"buffer":0,
			"byteLength":2920,
			"byteOffset":1503792,
			"target":34962
		},
		{
			"buffer":0,
			"byteLength":1632,
			"byteOffset":1506712,
			"target":34963
		},
		{
			"buffer":0,
			"byteLength":408,
			"byteOffset":1508344,
			"target":34962
		},
		{
			"buffer":0,
			"byteLength":408,
			"byteOffset":1508752,
			"target":34962
		},
		{
			"buffer":0,
			"byteLength":272,
			"byteOffset":1509160,
			"target":34962
		},
		{
			"buffer":0,
			"byteLength":96,
			"byteOffset":1509432,
			"target":34963
		},
		{
			"buffer":0,
			"byteLength":5076,
			"byteOffset":1509528,
			"target":34962
		},
		{
			"buffer":0,
			"byteLength":5076,
			"byteOffset":1514604,
			"target":34962
		},
		{
			"buffer":0,
			"byteLength":3384,
			"byteOffset":1519680,
			"target":34962
		},
		{
			"buffer":0,
			"byteLength":1536,
			"byteOffset":1523064,
			"target":34963
		},
		{
			"buffer":0,
			"byteLength":960,
			"byteOffset":1524600,
			"target":34962
		},
		{
			"buffer":0,
			"byteLength":960,
			"byteOffset":1525560,
			"target":34962
		},
		{
			"buffer":0,
			"byteLength":640,
			"byteOffset":1526520,
			"target":34962
		},
		{
			"buffer":0,
			"byteLength":216,
			"byteOffset":1527160,
			"target":34963
		},
		{
			"buffer":0,
			"byteLength":2940,
			"byteOffset":1527376,
			"target":34962
		},
		{
			"buffer":0,
			"byteLength":2940,
			"byteOffset":1530316,
			"target":34962
		},
		{
			"buffer":0,
			"byteLength":1960,
			"byteOffset":1533256,
			"target":34962
		},
		{
			"buffer":0,
			"byteLength":912,
			"byteOffset":1535216,
			"target":34963
		}
	],
	"samplers":[
		{
			"magFilter":9729,
			"minFilter":9987
		}
	],
	"buffers":[
		{
			"byteLength":1536128,
			"uri":"cell_x-2_z1_render.bin"
		}
	]
}
