{
	"asset":{
		"generator":"Khronos glTF Blender I/O v4.5.51",
		"version":"2.0"
	},
	"scene":0,
	"scenes":[
		{
			"name":"Scene",
			"nodes":[
				0
			]
		}
	],
	"nodes":[
		{
			"mesh":0,
			"name":"cell_x-4_z-1",
			"rotation":[
				-0.009208067320287228,
				-0.4457909166812897,
				-0.004586049821227789,
				0.8950780034065247
			],
			"scale":[
				4.023708343505859,
				4.023708343505859,
				4.023708343505859
			],
			"translation":[
				-123.16885375976562,
				4.024813652038574,
				-15.320231437683105
			]
		}
	],
	"materials":[
		{
			"name":"leafsDark",
			"pbrMetallicRoughness":{
				"baseColorFactor":[
					0.04817182570695877,
					0.11443537473678589,
					0.03310476616024971,
					1
				],
				"metallicFactor":0,
				"roughnessFactor":0.9200000166893005
			}
		},
		{
			"name":"woodBarkDark",
			"pbrMetallicRoughness":{
				"baseColorFactor":[
					0.11443537473678589,
					0.04666508734226227,
					0.016807375475764275,
					1
				],
				"metallicFactor":0,
				"roughnessFactor":0.9200000166893005
			}
		},
		{
			"name":"_defaultMat",
			"pbrMetallicRoughness":{
				"baseColorFactor":[
					0.4564110338687897,
					0.4564110338687897,
					0.4125426113605499,
					1
				],
				"metallicFactor":0,
				"roughnessFactor":0.9200000166893005
			}
		},
		{
			"name":"grass",
			"pbrMetallicRoughness":{
				"baseColorFactor":[
					0.15592646598815918,
					0.2961382567882538,
					0.0802198201417923,
					1
				],
				"metallicFactor":0,
				"roughnessFactor":0.9200000166893005
			}
		},
		{
			"name":"leafsGreen",
			"pbrMetallicRoughness":{
				"baseColorFactor":[
					0.11443537473678589,
					0.23074005544185638,
					0.06301001459360123,
					1
				],
				"metallicFactor":0,
				"roughnessFactor":0.9200000166893005
			}
		},
		{
			"name":"stone_v2",
			"pbrMetallicRoughness":{
				"baseColorFactor":[
					0.38132601976394653,
					0.38132601976394653,
					0.3324515223503113,
					1
				],
				"metallicFactor":0,
				"roughnessFactor":0.9200000166893005
			}
		}
	],
	"meshes":[
		{
			"name":"Mesh tree_detailed_dark.001",
			"primitives":[
				{
					"attributes":{
						"POSITION":0,
						"NORMAL":1,
						"TEXCOORD_0":2
					},
					"indices":3,
					"material":0
				},
				{
					"attributes":{
						"POSITION":4,
						"NORMAL":5,
						"TEXCOORD_0":6
					},
					"indices":7,
					"material":1
				},
				{
					"attributes":{
						"POSITION":8,
						"NORMAL":9,
						"TEXCOORD_0":10
					},
					"indices":11,
					"material":2
				},
				{
					"attributes":{
						"POSITION":12,
						"NORMAL":13,
						"TEXCOORD_0":14
					},
					"indices":15,
					"material":3
				},
				{
					"attributes":{
						"POSITION":16,
						"NORMAL":17,
						"TEXCOORD_0":18
					},
					"indices":19,
					"material":4
				},
				{
					"attributes":{
						"POSITION":20,
						"NORMAL":21,
						"TEXCOORD_0":22
					},
					"indices":23,
					"material":5
				}
			]
		}
	],
	"accessors":[
		{
			"bufferView":0,
			"componentType":5126,
			"count":837,
			"max":[
				0.4146324396133423,
				1.4177926778793335,
				0.3894665241241455
			],
			"min":[
				-3.8017210960388184,
				0.19484606385231018,
				-3.538853645324707
			],
			"type":"VEC3"
		},
		{
			"bufferView":1,
			"componentType":5126,
			"count":837,
			"type":"VEC3"
		},
		{
			"bufferView":2,
			"componentType":5126,
			"count":837,
			"type":"VEC2"
		},
		{
			"bufferView":3,
			"componentType":5123,
			"count":1380,
			"type":"SCALAR"
		},
		{
			"bufferView":4,
			"componentType":5126,
			"count":320,
			"max":[
				0.304789662361145,
				0.877191960811615,
				0.26345255970954895
			],
			"min":[
				-3.614790201187134,
				-0.461108535528183,
				-3.367729425430298
			],
			"type":"VEC3"
		},
		{
			"bufferView":5,
			"componentType":5126,
			"count":320,
			"type":"VEC3"
		},
		{
			"bufferView":6,
			"componentType":5126,
			"count":320,
			"type":"VEC2"
		},
		{
			"bufferView":7,
			"componentType":5123,
			"count":510,
			"type":"SCALAR"
		},
		{
			"bufferView":8,
			"componentType":5126,
			"count":6,
			"max":[
				0.0360226109623909,
				0.6475235223770142,
				-0.017618389800190926
			],
			"min":[
				-0.0360226146876812,
				0.6475235223770142,
				-0.08966361731290817
			],
			"type":"VEC3"
		},
		{
			"bufferView":9,
			"componentType":5126,
			"count":6,
			"type":"VEC3"
		},
		{
			"bufferView":10,
			"componentType":5126,
			"count":6,
			"type":"VEC2"
		},
		{
			"bufferView":11,
			"componentType":5123,
			"count":6,
			"type":"SCALAR"
		},
		{
			"bufferView":12,
			"componentType":5126,
			"count":7302,
			"max":[
				2.9293456077575684,
				0.44666847586631775,
				2.7048895359039307
			],
			"min":[
				-4.481758117675781,
				-0.5282652974128723,
				-3.303645610809326
			],
			"type":"VEC3"
		},
		{
			"bufferView":13,
			"componentType":5126,
			"count":7302,
			"type":"VEC3"
		},
		{
			"bufferView":14,
			"componentType":5126,
			"count":7302,
			"type":"VEC2"
		},
		{
			"bufferView":15,
			"componentType":5123,
			"count":10140,
			"type":"SCALAR"
		},
		{
			"bufferView":16,
			"componentType":5126,
			"count":202,
			"max":[
				3.2451624870300293,
				0.21700865030288696,
				1.9888248443603516
			],
			"min":[
				-4.082589626312256,
				-0.45737165212631226,
				-3.7845265865325928
			],
			"type":"VEC3"
		},
		{
			"bufferView":17,
			"componentType":5126,
			"count":202,
			"type":"VEC3"
		},
		{
			"bufferView":18,
			"componentType":5126,
			"count":202,
			"type":"VEC2"
		},
		{
			"bufferView":19,
			"componentType":5123,
			"count":396,
			"type":"SCALAR"
		},
		{
			"bufferView":20,
			"componentType":5126,
			"count":132,
			"max":[
				0.60194993019104,
				0.15124863386154175,
				0.4032459557056427
			],
			"min":[
				-0.19018295407295227,
				-0.10979460179805756,
				-0.42499253153800964
			],
			"type":"VEC3"
		},
		{
			"bufferView":21,
			"componentType":5126,
			"count":132,
			"type":"VEC3"
		},
		{
			"bufferView":22,
			"componentType":5126,
			"count":132,
			"type":"VEC2"
		},
		{
			"bufferView":23,
			"componentType":5123,
			"count":216,
			"type":"SCALAR"
		}
	],
	"bufferViews":[
		{
			"buffer":0,
			"byteLength":10044,
			"byteOffset":0,
			"target":34962
		},
		{
			"buffer":0,
			"byteLength":10044,
			"byteOffset":10044,
			"target":34962
		},
		{
			"buffer":0,
			"byteLength":6696,
			"byteOffset":20088,
			"target":34962
		},
		{
			"buffer":0,
			"byteLength":2760,
			"byteOffset":26784,
			"target":34963
		},
		{
			"buffer":0,
			"byteLength":3840,
			"byteOffset":29544,
			"target":34962
		},
		{
			"buffer":0,
			"byteLength":3840,
			"byteOffset":33384,
			"target":34962
		},
		{
			"buffer":0,
			"byteLength":2560,
			"byteOffset":37224,
			"target":34962
		},
		{
			"buffer":0,
			"byteLength":1020,
			"byteOffset":39784,
			"target":34963
		},
		{
			"buffer":0,
			"byteLength":72,
			"byteOffset":40804,
			"target":34962
		},
		{
			"buffer":0,
			"byteLength":72,
			"byteOffset":40876,
			"target":34962
		},
		{
			"buffer":0,
			"byteLength":48,
			"byteOffset":40948,
			"target":34962
		},
		{
			"buffer":0,
			"byteLength":12,
			"byteOffset":40996,
			"target":34963
		},
		{
			"buffer":0,
			"byteLength":87624,
			"byteOffset":41008,
			"target":34962
		},
		{
			"buffer":0,
			"byteLength":87624,
			"byteOffset":128632,
			"target":34962
		},
		{
			"buffer":0,
			"byteLength":58416,
			"byteOffset":216256,
			"target":34962
		},
		{
			"buffer":0,
			"byteLength":20280,
			"byteOffset":274672,
			"target":34963
		},
		{
			"buffer":0,
			"byteLength":2424,
			"byteOffset":294952,
			"target":34962
		},
		{
			"buffer":0,
			"byteLength":2424,
			"byteOffset":297376,
			"target":34962
		},
		{
			"buffer":0,
			"byteLength":1616,
			"byteOffset":299800,
			"target":34962
		},
		{
			"buffer":0,
			"byteLength":792,
			"byteOffset":301416,
			"target":34963
		},
		{
			"buffer":0,
			"byteLength":1584,
			"byteOffset":302208,
			"target":34962
		},
		{
			"buffer":0,
			"byteLength":1584,
			"byteOffset":303792,
			"target":34962
		},
		{
			"buffer":0,
			"byteLength":1056,
			"byteOffset":305376,
			"target":34962
		},
		{
			"buffer":0,
			"byteLength":432,
			"byteOffset":306432,
			"target":34963
		}
	],
	"buffers":[
		{
			"byteLength":306864,
			"uri":"cell_x-4_z-1_render.bin"
		}
	]
}
