{
	"asset":{
		"generator":"Khronos glTF Blender I/O v4.5.51",
		"version":"2.0"
	},
	"scene":0,
	"scenes":[
		{
			"name":"Scene",
			"nodes":[
				0
			]
		}
	],
	"nodes":[
		{
			"mesh":0,
			"name":"cell_x0_z-2",
			"rotation":[
				0.027448061853647232,
				0.5898154973983765,
				-0.020065506920218468,
				0.8068219423294067
			],
			"scale":[
				4.454696178436279,
				4.454696178436279,
				4.454696178436279
			],
			"translation":[
				24.704917907714844,
				5.417820453643799,
				-57.90489196777344
			]
		}
	],
	"materials":[
		{
			"name":"stone_v1",
			"pbrMetallicRoughness":{
				"baseColorFactor":[
					0.2541520893573761,
					0.28744083642959595,
					0.3049873113632202,
					1
				],
				"metallicFactor":0,
				"roughnessFactor":0.9200000166893005
			}
		},
		{
			"name":"stone_v2",
			"pbrMetallicRoughness":{
				"baseColorFactor":[
					0.38132601976394653,
					0.38132601976394653,
					0.3324515223503113,
					1
				],
				"metallicFactor":0,
				"roughnessFactor":0.9200000166893005
			}
		},
		{
			"name":"stone_v3",
			"pbrMetallicRoughness":{
				"baseColorFactor":[
					0.20863686501979828,
					0.2462013214826584,
					0.2622506618499756,
					1
				],
				"metallicFactor":0,
				"roughnessFactor":0.9200000166893005
			}
		},
		{
			"name":"stone_v0",
			"pbrMetallicRoughness":{
				"baseColorFactor":[
					0.32314321398735046,
					0.35153260827064514,
					0.3613067865371704,
					1
				],
				"metallicFactor":0,
				"roughnessFactor":0.9200000166893005
			}
		},
		{
			"name":"grass",
			"pbrMetallicRoughness":{
				"baseColorFactor":[
					0.15592646598815918,
					0.2961382567882538,
					0.0802198201417923,
					1
				],
				"metallicFactor":0,
				"roughnessFactor":0.9200000166893005
			}
		},
		{
			"name":"dirt_v1",
			"pbrMetallicRoughness":{
				"baseColorFactor":[
					0.2581828534603119,
					0.1946178376674652,
					0.1119324266910553,
					1
				],
				"metallicFactor":0,
				"roughnessFactor":0.9200000166893005
			}
		},
		{
			"name":"_defaultMat",
			"pbrMetallicRoughness":{
				"baseColorFactor":[
					0.4564110338687897,
					0.4564110338687897,
					0.4125426113605499,
					1
				],
				"metallicFactor":0,
				"roughnessFactor":0.9200000166893005
			}
		},
		{
			"name":"dirt_v3",
			"pbrMetallicRoughness":{
				"baseColorFactor":[
					0.20863686501979828,
					0.15896083414554596,
					0.09084171056747437,
					1
				],
				"metallicFactor":0,
				"roughnessFactor":0.9200000166893005
			}
		},
		{
			"name":"leafsDark",
			"pbrMetallicRoughness":{
				"baseColorFactor":[
					0.04817182570695877,
					0.11443537473678589,
					0.03310476616024971,
					1
				],
				"metallicFactor":0,
				"roughnessFactor":0.9200000166893005
			}
		},
		{
			"name":"woodBarkDark",
			"pbrMetallicRoughness":{
				"baseColorFactor":[
					0.11443537473678589,
					0.04666508734226227,
					0.016807375475764275,
					1
				],
				"metallicFactor":0,
				"roughnessFactor":0.9200000166893005
			}
		},
		{
			"name":"leafsGreen",
			"pbrMetallicRoughness":{
				"baseColorFactor":[
					0.11443537473678589,
					0.23074005544185638,
					0.06301001459360123,
					1
				],
				"metallicFactor":0,
				"roughnessFactor":0.9200000166893005
			}
		},
		{
			"name":"woodBark",
			"pbrMetallicRoughness":{
				"baseColorFactor":[
					0.2015562504529953,
					0.08437620848417282,
					0.02955683507025242,
					1
				],
				"metallicFactor":0,
				"roughnessFactor":0.9200000166893005
			}
		},
		{
			"name":"woodBirch",
			"pbrMetallicRoughness":{
				"baseColorFactor":[
					0.7304607629776001,
					0.6583748459815979,
					0.5028864741325378,
					1
				],
				"metallicFactor":0,
				"roughnessFactor":0.9200000166893005
			}
		},
		{
			"name":"leafsFall",
			"pbrMetallicRoughness":{
				"baseColorFactor":[
					0.4564110338687897,
					0.18782077729701996,
					0.045186202973127365,
					1
				],
				"metallicFactor":0,
				"roughnessFactor":0.9200000166893005
			}
		},
		{
			"name":"colorTan",
			"pbrMetallicRoughness":{
				"baseColorFactor":[
					0.5271151065826416,
					0.3762621283531189,
					0.20863686501979828,
					1
				],
				"metallicFactor":0,
				"roughnessFactor":0.9200000166893005
			}
		},
		{
			"name":"dirt_v2",
			"pbrMetallicRoughness":{
				"baseColorFactor":[
					0.38132601976394653,
					0.30054378509521484,
					0.1946178376674652,
					1
				],
				"metallicFactor":0,
				"roughnessFactor":0.9200000166893005
			}
		},
		{
			"name":"dirt_v0",
			"pbrMetallicRoughness":{
				"baseColorFactor":[
					0.32314321398735046,
					0.24228112399578094,
					0.1384316086769104,
					1
				],
				"metallicFactor":0,
				"roughnessFactor":0.9200000166893005
			}
		},
		{
			"name":"colorRed",
			"pbrMetallicRoughness":{
				"baseColorFactor":[
					0.34191441535949707,
					0.08437620848417282,
					0.05951123684644699,
					1
				],
				"metallicFactor":0,
				"roughnessFactor":0.9200000166893005
			}
		},
		{
			"name":"colorYellow",
			"pbrMetallicRoughness":{
				"baseColorFactor":[
					0.5840784311294556,
					0.3613067865371704,
					0.07618538290262222,
					1
				],
				"metallicFactor":0,
				"roughnessFactor":0.9200000166893005
			}
		},
		{
			"name":"colorPurple",
			"pbrMetallicRoughness":{
				"baseColorFactor":[
					0.19806931912899017,
					0.15592646598815918,
					0.3324515223503113,
					1
				],
				"metallicFactor":0,
				"roughnessFactor":0.9200000166893005
			}
		},
		{
			"name":"colorWhite",
			"pbrMetallicRoughness":{
				"baseColorFactor":[
					0.68668532371521,
					0.6583748459815979,
					0.577580451965332,
					1
				],
				"metallicFactor":0,
				"roughnessFactor":0.9200000166893005
			}
		},
		{
			"doubleSided":true,
			"name":"Color",
			"pbrMetallicRoughness":{
				"baseColorTexture":{
					"index":0
				},
				"metallicFactor":0,
				"roughnessFactor":0.75
			}
		},
		{
			"name":"wood",
			"pbrMetallicRoughness":{
				"baseColorFactor":[
					0.32314321398735046,
					0.1384316086769104,
					0.039546236395835876,
					1
				],
				"metallicFactor":0,
				"roughnessFactor":0.9200000166893005
			}
		},
		{
			"name":"colorRedDark",
			"pbrMetallicRoughness":{
				"baseColorFactor":[
					0.1946178376674652,
					0.04666508734226227,
					0.03433980792760849,
					1
				],
				"metallicFactor":0,
				"roughnessFactor":0.9200000166893005
			}
		}
	],
	"meshes":[
		{
			"name":"Mesh stone_smallTopA.017",
			"primitives":[
				{
					"attributes":{
						"POSITION":0,
						"NORMAL":1,
						"TEXCOORD_0":2,
						"COLOR_0":3
					},
					"indices":4,
					"material":0
				},
				{
					"attributes":{
						"POSITION":5,
						"NORMAL":6,
						"TEXCOORD_0":7,
						"COLOR_0":8
					},
					"indices":9,
					"material":1
				},
				{
					"attributes":{
						"POSITION":10,
						"NORMAL":11,
						"TEXCOORD_0":12,
						"COLOR_0":13
					},
					"indices":14,
					"material":2
				},
				{
					"attributes":{
						"POSITION":15,
						"NORMAL":16,
						"TEXCOORD_0":17,
						"COLOR_0":18
					},
					"indices":19,
					"material":3
				},
				{
					"attributes":{
						"POSITION":20,
						"NORMAL":21,
						"TEXCOORD_0":22,
						"COLOR_0":23
					},
					"indices":24,
					"material":4
				},
				{
					"attributes":{
						"POSITION":25,
						"NORMAL":26,
						"TEXCOORD_0":27,
						"COLOR_0":28
					},
					"indices":29,
					"material":5
				},
				{
					"attributes":{
						"POSITION":30,
						"NORMAL":31,
						"TEXCOORD_0":32,
						"COLOR_0":33
					},
					"indices":34,
					"material":6
				},
				{
					"attributes":{
						"POSITION":35,
						"NORMAL":36,
						"TEXCOORD_0":37,
						"COLOR_0":38
					},
					"indices":39,
					"material":7
				},
				{
					"attributes":{
						"POSITION":40,
						"NORMAL":41,
						"TEXCOORD_0":42,
						"COLOR_0":43
					},
					"indices":44,
					"material":8
				},
				{
					"attributes":{
						"POSITION":45,
						"NORMAL":46,
						"TEXCOORD_0":47,
						"COLOR_0":48
					},
					"indices":49,
					"material":9
				},
				{
					"attributes":{
						"POSITION":50,
						"NORMAL":51,
						"TEXCOORD_0":52,
						"COLOR_0":53
					},
					"indices":54,
					"material":10
				},
				{
					"attributes":{
						"POSITION":55,
						"NORMAL":56,
						"TEXCOORD_0":57,
						"COLOR_0":58
					},
					"indices":59,
					"material":11
				},
				{
					"attributes":{
						"POSITION":60,
						"NORMAL":61,
						"TEXCOORD_0":62,
						"COLOR_0":63
					},
					"indices":64,
					"material":12
				},
				{
					"attributes":{
						"POSITION":65,
						"NORMAL":66,
						"TEXCOORD_0":67,
						"COLOR_0":68
					},
					"indices":69,
					"material":13
				},
				{
					"attributes":{
						"POSITION":70,
						"NORMAL":71,
						"TEXCOORD_0":72,
						"COLOR_0":73
					},
					"indices":74,
					"material":14
				},
				{
					"attributes":{
						"POSITION":75,
						"NORMAL":76,
						"TEXCOORD_0":77,
						"COLOR_0":78
					},
					"indices":79,
					"material":15
				},
				{
					"attributes":{
						"POSITION":80,
						"NORMAL":81,
						"TEXCOORD_0":82,
						"COLOR_0":83
					},
					"indices":84,
					"material":16
				},
				{
					"attributes":{
						"POSITION":85,
						"NORMAL":86,
						"TEXCOORD_0":87,
						"COLOR_0":88
					},
					"indices":89,
					"material":17
				},
				{
					"attributes":{
						"POSITION":90,
						"NORMAL":91,
						"TEXCOORD_0":92,
						"COLOR_0":93
					},
					"indices":94,
					"material":18
				},
				{
					"attributes":{
						"POSITION":95,
						"NORMAL":96,
						"TEXCOORD_0":97,
						"COLOR_0":98
					},
					"indices":99,
					"material":19
				},
				{
					"attributes":{
						"POSITION":100,
						"NORMAL":101,
						"TEXCOORD_0":102,
						"COLOR_0":103
					},
					"indices":104,
					"material":20
				},
				{
					"attributes":{
						"POSITION":105,
						"NORMAL":106,
						"TEXCOORD_0":107,
						"COLOR_0":108
					},
					"indices":109,
					"material":21
				},
				{
					"attributes":{
						"POSITION":110,
						"NORMAL":111,
						"TEXCOORD_0":112,
						"COLOR_0":113
					},
					"indices":114,
					"material":22
				},
				{
					"attributes":{
						"POSITION":115,
						"NORMAL":116,
						"TEXCOORD_0":117,
						"COLOR_0":118
					},
					"indices":119,
					"material":23
				}
			]
		}
	],
	"textures":[
		{
			"sampler":0,
			"source":0
		}
	],
	"images":[
		{
			"mimeType":"image/png",
			"name":"Textures_4",
			"uri":"textures/Textures_4.png"
		}
	],
	"accessors":[
		{
			"bufferView":0,
			"componentType":5126,
			"count":1104,
			"max":[
				5.525554180145264,
				1.0411239862442017,
				2.2861616611480713
			],
			"min":[
				-3.175750494003296,
				-1.4619417190551758,
				-4.970025539398193
			],
			"type":"VEC3"
		},
		{
			"bufferView":1,
			"componentType":5126,
			"count":1104,
			"type":"VEC3"
		},
		{
			"bufferView":2,
			"componentType":5126,
			"count":1104,
			"type":"VEC2"
		},
		{
			"bufferView":3,
			"componentType":5123,
			"count":1104,
			"normalized":true,
			"type":"VEC4"
		},
		{
			"bufferView":4,
			"componentType":5123,
			"count":1806,
			"type":"SCALAR"
		},
		{
			"bufferView":5,
			"componentType":5126,
			"count":962,
			"max":[
				4.688239574432373,
				0.7195970416069031,
				2.427129030227661
			],
			"min":[
				-0.013723671436309814,
				-1.0458823442459106,
				-4.99719762802124
			],
			"type":"VEC3"
		},
		{
			"bufferView":6,
			"componentType":5126,
			"count":962,
			"type":"VEC3"
		},
		{
			"bufferView":7,
			"componentType":5126,
			"count":962,
			"type":"VEC2"
		},
		{
			"bufferView":8,
			"componentType":5123,
			"count":962,
			"normalized":true,
			"type":"VEC4"
		},
		{
			"bufferView":9,
			"componentType":5123,
			"count":1608,
			"type":"SCALAR"
		},
		{
			"bufferView":10,
			"componentType":5126,
			"count":1094,
			"max":[
				1.6812751293182373,
				1.220156192779541,
				4.2371344566345215
			],
			"min":[
				-5.270897388458252,
				-1.1261236667633057,
				-3.648129463195801
			],
			"type":"VEC3"
		},
		{
			"bufferView":11,
			"componentType":5126,
			"count":1094,
			"type":"VEC3"
		},
		{
			"bufferView":12,
			"componentType":5126,
			"count":1094,
			"type":"VEC2"
		},
		{
			"bufferView":13,
			"componentType":5123,
			"count":1094,
			"normalized":true,
			"type":"VEC4"
		},
		{
			"bufferView":14,
			"componentType":5123,
			"count":1836,
			"type":"SCALAR"
		},
		{
			"bufferView":15,
			"componentType":5126,
			"count":1037,
			"max":[
				4.0994391441345215,
				1.264950156211853,
				2.8173274993896484
			],
			"min":[
				-3.419677495956421,
				-1.5886086225509644,
				-5.2259674072265625
			],
			"type":"VEC3"
		},
		{
			"bufferView":16,
			"componentType":5126,
			"count":1037,
			"type":"VEC3"
		},
		{
			"bufferView":17,
			"componentType":5126,
			"count":1037,
			"type":"VEC2"
		},
		{
			"bufferView":18,
			"componentType":5123,
			"count":1037,
			"normalized":true,
			"type":"VEC4"
		},
		{
			"bufferView":19,
			"componentType":5123,
			"count":1716,
			"type":"SCALAR"
		},
		{
			"bufferView":20,
			"componentType":5126,
			"count":41156,
			"max":[
				5.811943054199219,
				1.1540017127990723,
				4.264580726623535
			],
			"min":[
				-5.061641216278076,
				-1.5650702714920044,
				-6.085843086242676
			],
			"type":"VEC3"
		},
		{
			"bufferView":21,
			"componentType":5126,
			"count":41156,
			"type":"VEC3"
		},
		{
			"bufferView":22,
			"componentType":5126,
			"count":41156,
			"type":"VEC2"
		},
		{
			"bufferView":23,
			"componentType":5123,
			"count":41156,
			"normalized":true,
			"type":"VEC4"
		},
		{
			"bufferView":24,
			"componentType":5123,
			"count":55095,
			"type":"SCALAR"
		},
		{
			"bufferView":25,
			"componentType":5126,
			"count":105,
			"max":[
				0.017604529857635498,
				1.1540017127990723,
				3.724269151687622
			],
			"min":[
				-0.43631523847579956,
				-0.9213793873786926,
				-3.7474007606506348
			],
			"type":"VEC3"
		},
		{
			"bufferView":26,
			"componentType":5126,
			"count":105,
			"type":"VEC3"
		},
		{
			"bufferView":27,
			"componentType":5126,
			"count":105,
			"type":"VEC2"
		},
		{
			"bufferView":28,
			"componentType":5123,
			"count":105,
			"normalized":true,
			"type":"VEC4"
		},
		{
			"bufferView":29,
			"componentType":5123,
			"count":162,
			"type":"SCALAR"
		},
		{
			"bufferView":30,
			"componentType":5126,
			"count":1363,
			"max":[
				5.525554180145264,
				1.0201979875564575,
				3.724269151687622
			],
			"min":[
				-5.270897388458252,
				-1.5886086225509644,
				-5.675703048706055
			],
			"type":"VEC3"
		},
		{
			"bufferView":31,
			"componentType":5126,
			"count":1363,
			"type":"VEC3"
		},
		{
			"bufferView":32,
			"componentType":5126,
			"count":1363,
			"type":"VEC2"
		},
		{
			"bufferView":33,
			"componentType":5123,
			"count":1363,
			"normalized":true,
			"type":"VEC4"
		},
		{
			"bufferView":34,
			"componentType":5123,
			"count":1440,
			"type":"SCALAR"
		},
		{
			"bufferView":35,
			"componentType":5126,
			"count":162,
			"max":[
				-0.6385304927825928,
				-0.744326114654541,
				-2.0890891551971436
			],
			"min":[
				-4.5236496925354,
				-0.9980814456939697,
				-3.3330864906311035
			],
			"type":"VEC3"
		},
		{
			"bufferView":36,
			"componentType":5126,
			"count":162,
			"type":"VEC3"
		},
		{
			"bufferView":37,
			"componentType":5126,
			"count":162,
			"type":"VEC2"
		},
		{
			"bufferView":38,
			"componentType":5123,
			"count":162,
			"normalized":true,
			"type":"VEC4"
		},
		{
			"bufferView":39,
			"componentType":5123,
			"count":252,
			"type":"SCALAR"
		},
		{
			"bufferView":40,
			"componentType":5126,
			"count":3916,
			"max":[
				4.741333484649658,
				2.7834253311157227,
				3.893141269683838
			],
			"min":[
				-1.9266037940979004,
				-1.500026822090149,
				-5.63905668258667
			],
			"type":"VEC3"
		},
		{
			"bufferView":41,
			"componentType":5126,
			"count":3916,
			"type":"VEC3"
		},
		{
			"bufferView":42,
			"componentType":5126,
			"count":3916,
			"type":"VEC2"
		},
		{
			"bufferView":43,
			"componentType":5123,
			"count":3916,
			"normalized":true,
			"type":"VEC4"
		},
		{
			"bufferView":44,
			"componentType":5123,
			"count":6906,
			"type":"SCALAR"
		},
		{
			"bufferView":45,
			"componentType":5126,
			"count":1210,
			"max":[
				4.547573566436768,
				1.6990764141082764,
				3.761972188949585
			],
			"min":[
				-1.7358975410461426,
				-1.6076669692993164,
				-5.390682220458984
			],
			"type":"VEC3"
		},
		{
			"bufferView":46,
			"componentType":5126,
			"count":1210,
			"type":"VEC3"
		},
		{
			"bufferView":47,
			"componentType":5126,
			"count":1210,
			"type":"VEC2"
		},
		{
			"bufferView":48,
			"componentType":5123,
			"count":1210,
			"normalized":true,
			"type":"VEC4"
		},
		{
			"bufferView":49,
			"componentType":5123,
			"count":1938,
			"type":"SCALAR"
		},
		{
			"bufferView":50,
			"componentType":5126,
			"count":6119,
			"max":[
				4.538105487823486,
				1.6000087261199951,
				3.5715131759643555
			],
			"min":[
				-5.321430683135986,
				-1.4041531085968018,
				-6.61300802230835
			],
			"type":"VEC3"
		},
		{
			"bufferView":51,
			"componentType":5126,
			"count":6119,
			"type":"VEC3"
		},
		{
			"bufferView":52,
			"componentType":5126,
			"count":6119,
			"type":"VEC2"
		},
		{
			"bufferView":53,
			"componentType":5123,
			"count":6119,
			"normalized":true,
			"type":"VEC4"
		},
		{
			"bufferView":54,
			"componentType":5123,
			"count":9762,
			"type":"SCALAR"
		},
		{
			"bufferView":55,
			"componentType":5126,
			"count":3477,
			"max":[
				4.437873363494873,
				1.1595556735992432,
				1.166843295097351
			],
			"min":[
				-1.5272942781448364,
				-1.6935559511184692,
				-6.411740303039551
			],
			"type":"VEC3"
		},
		{
			"bufferView":56,
			"componentType":5126,
			"count":3477,
			"type":"VEC3"
		},
		{
			"bufferView":57,
			"componentType":5126,
			"count":3477,
			"type":"VEC2"
		},
		{
			"bufferView":58,
			"componentType":5123,
			"count":3477,
			"normalized":true,
			"type":"VEC4"
		},
		{
			"bufferView":59,
			"componentType":5123,
			"count":5412,
			"type":"SCALAR"
		},
		{
			"bufferView":60,
			"componentType":5126,
			"count":832,
			"max":[
				3.3281595706939697,
				0.7677841186523438,
				0.5732070207595825
			],
			"min":[
				1.8678408861160278,
				-1.2576133012771606,
				-3.278657913208008
			],
			"type":"VEC3"
		},
		{
			"bufferView":61,
			"componentType":5126,
			"count":832,
			"type":"VEC3"
		},
		{
			"bufferView":62,
			"componentType":5126,
			"count":832,
			"type":"VEC2"
		},
		{
			"bufferView":63,
			"componentType":5123,
			"count":832,
			"normalized":true,
			"type":"VEC4"
		},
		{
			"bufferView":64,
			"componentType":5123,
			"count":1356,
			"type":"SCALAR"
		},
		{
			"bufferView":65,
			"componentType":5126,
			"count":308,
			"max":[
				3.4642086029052734,
				1.3644917011260986,
				0.669226884841919
			],
			"min":[
				1.6710741519927979,
				-0.6867866516113281,
				-3.278657913208008
			],
			"type":"VEC3"
		},
		{
			"bufferView":66,
			"componentType":5126,
			"count":308,
			"type":"VEC3"
		},
		{
			"bufferView":67,
			"componentType":5126,
			"count":308,
			"type":"VEC2"
		},
		{
			"bufferView":68,
			"componentType":5123,
			"count":308,
			"normalized":true,
			"type":"VEC4"
		},
		{
			"bufferView":69,
			"componentType":5123,
			"count":504,
			"type":"SCALAR"
		},
		{
			"bufferView":70,
			"componentType":5126,
			"count":202,
			"max":[
				0.2791081666946411,
				1.0704352855682373,
				2.8305985927581787
			],
			"min":[
				-4.541010856628418,
				-0.8657431602478027,
				-1.8958840370178223
			],
			"type":"VEC3"
		},
		{
			"bufferView":71,
			"componentType":5126,
			"count":202,
			"type":"VEC3"
		},
		{
			"bufferView":72,
			"componentType":5126,
			"count":202,
			"type":"VEC2"
		},
		{
			"bufferView":73,
			"componentType":5123,
			"count":202,
			"normalized":true,
			"type":"VEC4"
		},
		{
			"bufferView":74,
			"componentType":5123,
			"count":288,
			"type":"SCALAR"
		},
		{
			"bufferView":75,
			"componentType":5126,
			"count":95,
			"max":[
				3.6908812522888184,
				1.0809195041656494,
				1.920772671699524
			],
			"min":[
				-1.8791403770446777,
				-0.7022849321365356,
				-4.815980911254883
			],
			"type":"VEC3"
		},
		{
			"bufferView":76,
			"componentType":5126,
			"count":95,
			"type":"VEC3"
		},
		{
			"bufferView":77,
			"componentType":5126,
			"count":95,
			"type":"VEC2"
		},
		{
			"bufferView":78,
			"componentType":5123,
			"count":95,
			"normalized":true,
			"type":"VEC4"
		},
		{
			"bufferView":79,
			"componentType":5123,
			"count":153,
			"type":"SCALAR"
		},
		{
			"bufferView":80,
			"componentType":5126,
			"count":51,
			"max":[
				-0.3317809998989105,
				-0.6024113893508911,
				-4.085785865783691
			],
			"min":[
				-0.5632595419883728,
				-0.754858672618866,
				-4.341396331787109
			],
			"type":"VEC3"
		},
		{
			"bufferView":81,
			"componentType":5126,
			"count":51,
			"type":"VEC3"
		},
		{
			"bufferView":82,
			"componentType":5126,
			"count":51,
			"type":"VEC2"
		},
		{
			"bufferView":83,
			"componentType":5123,
			"count":51,
			"normalized":true,
			"type":"VEC4"
		},
		{
			"bufferView":84,
			"componentType":5123,
			"count":75,
			"type":"SCALAR"
		},
		{
			"bufferView":85,
			"componentType":5126,
			"count":284,
			"max":[
				-1.7329908609390259,
				-0.258215069770813,
				-1.03946053981781
			],
			"min":[
				-4.595779895782471,
				-0.7842056155204773,
				-5.344588756561279
			],
			"type":"VEC3"
		},
		{
			"bufferView":86,
			"componentType":5126,
			"count":284,
			"type":"VEC3"
		},
		{
			"bufferView":87,
			"componentType":5126,
			"count":284,
			"type":"VEC2"
		},
		{
			"bufferView":88,
			"componentType":5123,
			"count":284,
			"normalized":true,
			"type":"VEC4"
		},
		{
			"bufferView":89,
			"componentType":5123,
			"count":483,
			"type":"SCALAR"
		},
		{
			"bufferView":90,
			"componentType":5126,
			"count":164,
			"max":[
				2.2083795070648193,
				-1.0187277793884277,
				-5.315005302429199
			],
			"min":[
				2.056429862976074,
				-1.1913881301879883,
				-5.467522144317627
			],
			"type":"VEC3"
		},
		{
			"bufferView":91,
			"componentType":5126,
			"count":164,
			"type":"VEC3"
		},
		{
			"bufferView":92,
			"componentType":5126,
			"count":164,
			"type":"VEC2"
		},
		{
			"bufferView":93,
			"componentType":5123,
			"count":164,
			"normalized":true,
			"type":"VEC4"
		},
		{
			"bufferView":94,
			"componentType":5123,
			"count":270,
			"type":"SCALAR"
		},
		{
			"bufferView":95,
			"componentType":5126,
			"count":65,
			"max":[
				4.548014163970947,
				0.5412779450416565,
				0.49889880418777466
			],
			"min":[
				4.40234899520874,
				0.4805396497249603,
				0.354766845703125
			],
			"type":"VEC3"
		},
		{
			"bufferView":96,
			"componentType":5126,
			"count":65,
			"type":"VEC3"
		},
		{
			"bufferView":97,
			"componentType":5126,
			"count":65,
			"type":"VEC2"
		},
		{
			"bufferView":98,
			"componentType":5123,
			"count":65,
			"normalized":true,
			"type":"VEC4"
		},
		{
			"bufferView":99,
			"componentType":5123,
			"count":105,
			"type":"SCALAR"
		},
		{
			"bufferView":100,
			"componentType":5126,
			"count":6,
			"max":[
				4.511480808258057,
				0.5126173496246338,
				0.4645344316959381
			],
			"min":[
				4.438882350921631,
				0.5077240467071533,
				0.3927004039287567
			],
			"type":"VEC3"
		},
		{
			"bufferView":101,
			"componentType":5126,
			"count":6,
			"type":"VEC3"
		},
		{
			"bufferView":102,
			"componentType":5126,
			"count":6,
			"type":"VEC2"
		},
		{
			"bufferView":103,
			"componentType":5123,
			"count":6,
			"normalized":true,
			"type":"VEC4"
		},
		{
			"bufferView":104,
			"componentType":5123,
			"count":12,
			"type":"SCALAR"
		},
		{
			"bufferView":105,
			"componentType":5126,
			"count":1263,
			"max":[
				-1.7739793062210083,
				0.36423414945602417,
				0.33796602487564087
			],
			"min":[
				-2.151385545730591,
				-0.3028612732887268,
				-0.05558030307292938
			],
			"type":"VEC3"
		},
		{
			"bufferView":106,
			"componentType":5126,
			"count":1263,
			"type":"VEC3"
		},
		{
			"bufferView":107,
			"componentType":5126,
			"count":1263,
			"type":"VEC2"
		},
		{
			"bufferView":108,
			"componentType":5123,
			"count":1263,
			"normalized":true,
			"type":"VEC4"
		},
		{
			"bufferView":109,
			"componentType":5123,
			"count":5100,
			"type":"SCALAR"
		},
		{
			"bufferView":110,
			"componentType":5126,
			"count":1595,
			"max":[
				-1.4902334213256836,
				-0.219512939453125,
				-2.1297364234924316
			],
			"min":[
				-4.954188823699951,
				-1.178581714630127,
				-5.369547367095947
			],
			"type":"VEC3"
		},
		{
			"bufferView":111,
			"componentType":5126,
			"count":1595,
			"type":"VEC3"
		},
		{
			"bufferView":112,
			"componentType":5126,
			"count":1595,
			"type":"VEC2"
		},
		{
			"bufferView":113,
			"componentType":5123,
			"count":1595,
			"normalized":true,
			"type":"VEC4"
		},
		{
			"bufferView":114,
			"componentType":5123,
			"count":2616,
			"type":"SCALAR"
		},
		{
			"bufferView":115,
			"componentType":5126,
			"count":7,
			"max":[
				-1.8585596084594727,
				-0.2744419574737549,
				-5.009660720825195
			],
			"min":[
				-1.8660632371902466,
				-0.7390481233596802,
				-5.056642532348633
			],
			"type":"VEC3"
		},
		{
			"bufferView":116,
			"componentType":5126,
			"count":7,
			"type":"VEC3"
		},
		{
			"bufferView":117,
			"componentType":5126,
			"count":7,
			"type":"VEC2"
		},
		{
			"bufferView":118,
			"componentType":5123,
			"count":7,
			"normalized":true,
			"type":"VEC4"
		},
		{
			"bufferView":119,
			"componentType":5123,
			"count":9,
			"type":"SCALAR"
		}
	],
	"bufferViews":[
		{
			"buffer":0,
			"byteLength":13248,
			"byteOffset":0,
			"target":34962
		},
		{
			"buffer":0,
			"byteLength":13248,
			"byteOffset":13248,
			"target":34962
		},
		{
			"buffer":0,
			"byteLength":8832,
			"byteOffset":26496,
			"target":34962
		},
		{
			"buffer":0,
			"byteLength":8832,
			"byteOffset":35328,
			"target":34962
		},
		{
			"buffer":0,
			"byteLength":3612,
			"byteOffset":44160,
			"target":34963
		},
		{
			"buffer":0,
			"byteLength":11544,
			"byteOffset":47772,
			"target":34962
		},
		{
			"buffer":0,
			"byteLength":11544,
			"byteOffset":59316,
			"target":34962
		},
		{
			"buffer":0,
			"byteLength":7696,
			"byteOffset":70860,
			"target":34962
		},
		{
			"buffer":0,
			"byteLength":7696,
			"byteOffset":78556,
			"target":34962
		},
		{
			"buffer":0,
			"byteLength":3216,
			"byteOffset":86252,
			"target":34963
		},
		{
			"buffer":0,
			"byteLength":13128,
			"byteOffset":89468,
			"target":34962
		},
		{
			"buffer":0,
			"byteLength":13128,
			"byteOffset":102596,
			"target":34962
		},
		{
			"buffer":0,
			"byteLength":8752,
			"byteOffset":115724,
			"target":34962
		},
		{
			"buffer":0,
			"byteLength":8752,
			"byteOffset":124476,
			"target":34962
		},
		{
			"buffer":0,
			"byteLength":3672,
			"byteOffset":133228,
			"target":34963
		},
		{
			"buffer":0,
			"byteLength":12444,
			"byteOffset":136900,
			"target":34962
		},
		{
			"buffer":0,
			"byteLength":12444,
			"byteOffset":149344,
			"target":34962
		},
		{
			"buffer":0,
			"byteLength":8296,
			"byteOffset":161788,
			"target":34962
		},
		{
			"buffer":0,
			"byteLength":8296,
			"byteOffset":170084,
			"target":34962
		},
		{
			"buffer":0,
			"byteLength":3432,
			"byteOffset":178380,
			"target":34963
		},
		{
			"buffer":0,
			"byteLength":493872,
			"byteOffset":181812,
			"target":34962
		},
		{
			"buffer":0,
			"byteLength":493872,
			"byteOffset":675684,
			"target":34962
		},
		{
			"buffer":0,
			"byteLength":329248,
			"byteOffset":1169556,
			"target":34962
		},
		{
			"buffer":0,
			"byteLength":329248,
			"byteOffset":1498804,
			"target":34962
		},
		{
			"buffer":0,
			"byteLength":110190,
			"byteOffset":1828052,
			"target":34963
		},
		{
			"buffer":0,
			"byteLength":1260,
			"byteOffset":1938244,
			"target":34962
		},
		{
			"buffer":0,
			"byteLength":1260,
			"byteOffset":1939504,
			"target":34962
		},
		{
			"buffer":0,
			"byteLength":840,
			"byteOffset":1940764,
			"target":34962
		},
		{
			"buffer":0,
			"byteLength":840,
			"byteOffset":1941604,
			"target":34962
		},
		{
			"buffer":0,
			"byteLength":324,
			"byteOffset":1942444,
			"target":34963
		},
		{
			"buffer":0,
			"byteLength":16356,
			"byteOffset":1942768,
			"target":34962
		},
		{
			"buffer":0,
			"byteLength":16356,
			"byteOffset":1959124,
			"target":34962
		},
		{
			"buffer":0,
			"byteLength":10904,
			"byteOffset":1975480,
			"target":34962
		},
		{
			"buffer":0,
			"byteLength":10904,
			"byteOffset":1986384,
			"target":34962
		},
		{
			"buffer":0,
			"byteLength":2880,
			"byteOffset":1997288,
			"target":34963
		},
		{
			"buffer":0,
			"byteLength":1944,
			"byteOffset":2000168,
			"target":34962
		},
		{
			"buffer":0,
			"byteLength":1944,
			"byteOffset":2002112,
			"target":34962
		},
		{
			"buffer":0,
			"byteLength":1296,
			"byteOffset":2004056,
			"target":34962
		},
		{
			"buffer":0,
			"byteLength":1296,
			"byteOffset":2005352,
			"target":34962
		},
		{
			"buffer":0,
			"byteLength":504,
			"byteOffset":2006648,
			"target":34963
		},
		{
			"buffer":0,
			"byteLength":46992,
			"byteOffset":2007152,
			"target":34962
		},
		{
			"buffer":0,
			"byteLength":46992,
			"byteOffset":2054144,
			"target":34962
		},
		{
			"buffer":0,
			"byteLength":31328,
			"byteOffset":2101136,
			"target":34962
		},
		{
			"buffer":0,
			"byteLength":31328,
			"byteOffset":2132464,
			"target":34962
		},
		{
			"buffer":0,
			"byteLength":13812,
			"byteOffset":2163792,
			"target":34963
		},
		{
			"buffer":0,
			"byteLength":14520,
			"byteOffset":2177604,
			"target":34962
		},
		{
			"buffer":0,
			"byteLength":14520,
			"byteOffset":2192124,
			"target":34962
		},
		{
			"buffer":0,
			"byteLength":9680,
			"byteOffset":2206644,
			"target":34962
		},
		{
			"buffer":0,
			"byteLength":9680,
			"byteOffset":2216324,
			"target":34962
		},
		{
			"buffer":0,
			"byteLength":3876,
			"byteOffset":2226004,
			"target":34963
		},
		{
			"buffer":0,
			"byteLength":73428,
			"byteOffset":2229880,
			"target":34962
		},
		{
			"buffer":0,
			"byteLength":73428,
			"byteOffset":2303308,
			"target":34962
		},
		{
			"buffer":0,
			"byteLength":48952,
			"byteOffset":2376736,
			"target":34962
		},
		{
			"buffer":0,
			"byteLength":48952,
			"byteOffset":2425688,
			"target":34962
		},
		{
			"buffer":0,
			"byteLength":19524,
			"byteOffset":2474640,
			"target":34963
		},
		{
			"buffer":0,
			"byteLength":41724,
			"byteOffset":2494164,
			"target":34962
		},
		{
			"buffer":0,
			"byteLength":41724,
			"byteOffset":2535888,
			"target":34962
		},
		{
			"buffer":0,
			"byteLength":27816,
			"byteOffset":2577612,
			"target":34962
		},
		{
			"buffer":0,
			"byteLength":27816,
			"byteOffset":2605428,
			"target":34962
		},
		{
			"buffer":0,
			"byteLength":10824,
			"byteOffset":2633244,
			"target":34963
		},
		{
			"buffer":0,
			"byteLength":9984,
			"byteOffset":2644068,
			"target":34962
		},
		{
			"buffer":0,
			"byteLength":9984,
			"byteOffset":2654052,
			"target":34962
		},
		{
			"buffer":0,
			"byteLength":6656,
			"byteOffset":2664036,
			"target":34962
		},
		{
			"buffer":0,
			"byteLength":6656,
			"byteOffset":2670692,
			"target":34962
		},
		{
			"buffer":0,
			"byteLength":2712,
			"byteOffset":2677348,
			"target":34963
		},
		{
			"buffer":0,
			"byteLength":3696,
			"byteOffset":2680060,
			"target":34962
		},
		{
			"buffer":0,
			"byteLength":3696,
			"byteOffset":2683756,
			"target":34962
		},
		{
			"buffer":0,
			"byteLength":2464,
			"byteOffset":2687452,
			"target":34962
		},
		{
			"buffer":0,
			"byteLength":2464,
			"byteOffset":2689916,
			"target":34962
		},
		{
			"buffer":0,
			"byteLength":1008,
			"byteOffset":2692380,
			"target":34963
		},
		{
			"buffer":0,
			"byteLength":2424,
			"byteOffset":2693388,
			"target":34962
		},
		{
			"buffer":0,
			"byteLength":2424,
			"byteOffset":2695812,
			"target":34962
		},
		{
			"buffer":0,
			"byteLength":1616,
			"byteOffset":2698236,
			"target":34962
		},
		{
			"buffer":0,
			"byteLength":1616,
			"byteOffset":2699852,
			"target":34962
		},
		{
			"buffer":0,
			"byteLength":576,
			"byteOffset":2701468,
			"target":34963
		},
		{
			"buffer":0,
			"byteLength":1140,
			"byteOffset":2702044,
			"target":34962
		},
		{
			"buffer":0,
			"byteLength":1140,
			"byteOffset":2703184,
			"target":34962
		},
		{
			"buffer":0,
			"byteLength":760,
			"byteOffset":2704324,
			"target":34962
		},
		{
			"buffer":0,
			"byteLength":760,
			"byteOffset":2705084,
			"target":34962
		},
		{
			"buffer":0,
			"byteLength":306,
			"byteOffset":2705844,
			"target":34963
		},
		{
			"buffer":0,
			"byteLength":612,
			"byteOffset":2706152,
			"target":34962
		},
		{
			"buffer":0,
			"byteLength":612,
			"byteOffset":2706764,
			"target":34962
		},
		{
			"buffer":0,
			"byteLength":408,
			"byteOffset":2707376,
			"target":34962
		},
		{
			"buffer":0,
			"byteLength":408,
			"byteOffset":2707784,
			"target":34962
		},
		{
			"buffer":0,
			"byteLength":150,
			"byteOffset":2708192,
			"target":34963
		},
		{
			"buffer":0,
			"byteLength":3408,
			"byteOffset":2708344,
			"target":34962
		},
		{
			"buffer":0,
			"byteLength":3408,
			"byteOffset":2711752,
			"target":34962
		},
		{
			"buffer":0,
			"byteLength":2272,
			"byteOffset":2715160,
			"target":34962
		},
		{
			"buffer":0,
			"byteLength":2272,
			"byteOffset":2717432,
			"target":34962
		},
		{
			"buffer":0,
			"byteLength":966,
			"byteOffset":2719704,
			"target":34963
		},
		{
			"buffer":0,
			"byteLength":1968,
			"byteOffset":2720672,
			"target":34962
		},
		{
			"buffer":0,
			"byteLength":1968,
			"byteOffset":2722640,
			"target":34962
		},
		{
			"buffer":0,
			"byteLength":1312,
			"byteOffset":2724608,
			"target":34962
		},
		{
			"buffer":0,
			"byteLength":1312,
			"byteOffset":2725920,
			"target":34962
		},
		{
			"buffer":0,
			"byteLength":540,
			"byteOffset":2727232,
			"target":34963
		},
		{
			"buffer":0,
			"byteLength":780,
			"byteOffset":2727772,
			"target":34962
		},
		{
			"buffer":0,
			"byteLength":780,
			"byteOffset":2728552,
			"target":34962
		},
		{
			"buffer":0,
			"byteLength":520,
			"byteOffset":2729332,
			"target":34962
		},
		{
			"buffer":0,
			"byteLength":520,
			"byteOffset":2729852,
			"target":34962
		},
		{
			"buffer":0,
			"byteLength":210,
			"byteOffset":2730372,
			"target":34963
		},
		{
			"buffer":0,
			"byteLength":72,
			"byteOffset":2730584,
			"target":34962
		},
		{
			"buffer":0,
			"byteLength":72,
			"byteOffset":2730656,
			"target":34962
		},
		{
			"buffer":0,
			"byteLength":48,
			"byteOffset":2730728,
			"target":34962
		},
		{
			"buffer":0,
			"byteLength":48,
			"byteOffset":2730776,
			"target":34962
		},
		{
			"buffer":0,
			"byteLength":24,
			"byteOffset":2730824,
			"target":34963
		},
		{
			"buffer":0,
			"byteLength":15156,
			"byteOffset":2730848,
			"target":34962
		},
		{
			"buffer":0,
			"byteLength":15156,
			"byteOffset":2746004,
			"target":34962
		},
		{
			"buffer":0,
			"byteLength":10104,
			"byteOffset":2761160,
			"target":34962
		},
		{
			"buffer":0,
			"byteLength":10104,
			"byteOffset":2771264,
			"target":34962
		},
		{
			"buffer":0,
			"byteLength":10200,
			"byteOffset":2781368,
			"target":34963
		},
		{
			"buffer":0,
			"byteLength":19140,
			"byteOffset":2791568,
			"target":34962
		},
		{
			"buffer":0,
			"byteLength":19140,
			"byteOffset":2810708,
			"target":34962
		},
		{
			"buffer":0,
			"byteLength":12760,
			"byteOffset":2829848,
			"target":34962
		},
		{
			"buffer":0,
			"byteLength":12760,
			"byteOffset":2842608,
			"target":34962
		},
		{
			"buffer":0,
			"byteLength":5232,
			"byteOffset":2855368,
			"target":34963
		},
		{
			"buffer":0,
			"byteLength":84,
			"byteOffset":2860600,
			"target":34962
		},
		{
			"buffer":0,
			"byteLength":84,
			"byteOffset":2860684,
			"target":34962
		},
		{
			"buffer":0,
			"byteLength":56,
			"byteOffset":2860768,
			"target":34962
		},
		{
			"buffer":0,
			"byteLength":56,
			"byteOffset":2860824,
			"target":34962
		},
		{
			"buffer":0,
			"byteLength":18,
			"byteOffset":2860880,
			"target":34963
		}
	],
	"samplers":[
		{
			"magFilter":9729,
			"minFilter":9987
		}
	],
	"buffers":[
		{
			"byteLength":2860900,
			"uri":"cell_x0_z-2_render.bin"
		}
	]
}
