{
	"asset":{
		"generator":"Khronos glTF Blender I/O v4.5.51",
		"version":"2.0"
	},
	"scene":0,
	"scenes":[
		{
			"name":"Scene",
			"nodes":[
				0
			]
		}
	],
	"nodes":[
		{
			"mesh":0,
			"name":"cell_x-3_z1",
			"rotation":[
				0.008006750606000423,
				-0.7635204195976257,
				0.009468256495893002,
				0.645664632320404
			],
			"scale":[
				4.486891746520996,
				4.486892223358154,
				4.486891746520996
			],
			"translation":[
				-99.58772277832031,
				5.49280309677124,
				69.17473602294922
			]
		}
	],
	"materials":[
		{
			"name":"stone_v2",
			"pbrMetallicRoughness":{
				"baseColorFactor":[
					0.38132601976394653,
					0.38132601976394653,
					0.3324515223503113,
					1
				],
				"metallicFactor":0,
				"roughnessFactor":0.9200000166893005
			}
		},
		{
			"name":"stone_v1",
			"pbrMetallicRoughness":{
				"baseColorFactor":[
					0.2541520893573761,
					0.28744083642959595,
					0.3049873113632202,
					1
				],
				"metallicFactor":0,
				"roughnessFactor":0.9200000166893005
			}
		},
		{
			"name":"stone_v3",
			"pbrMetallicRoughness":{
				"baseColorFactor":[
					0.20863686501979828,
					0.2462013214826584,
					0.2622506618499756,
					1
				],
				"metallicFactor":0,
				"roughnessFactor":0.9200000166893005
			}
		},
		{
			"name":"_defaultMat",
			"pbrMetallicRoughness":{
				"baseColorFactor":[
					0.4564110338687897,
					0.4564110338687897,
					0.4125426113605499,
					1
				],
				"metallicFactor":0,
				"roughnessFactor":0.9200000166893005
			}
		},
		{
			"name":"leafsGreen",
			"pbrMetallicRoughness":{
				"baseColorFactor":[
					0.11443537473678589,
					0.23074005544185638,
					0.06301001459360123,
					1
				],
				"metallicFactor":0,
				"roughnessFactor":0.9200000166893005
			}
		},
		{
			"name":"woodBark",
			"pbrMetallicRoughness":{
				"baseColorFactor":[
					0.2015562504529953,
					0.08437620848417282,
					0.02955683507025242,
					1
				],
				"metallicFactor":0,
				"roughnessFactor":0.9200000166893005
			}
		},
		{
			"name":"leafsDark",
			"pbrMetallicRoughness":{
				"baseColorFactor":[
					0.04817182570695877,
					0.11443537473678589,
					0.03310476616024971,
					1
				],
				"metallicFactor":0,
				"roughnessFactor":0.9200000166893005
			}
		},
		{
			"name":"woodBarkDark",
			"pbrMetallicRoughness":{
				"baseColorFactor":[
					0.11443537473678589,
					0.04666508734226227,
					0.016807375475764275,
					1
				],
				"metallicFactor":0,
				"roughnessFactor":0.9200000166893005
			}
		},
		{
			"name":"grass",
			"pbrMetallicRoughness":{
				"baseColorFactor":[
					0.15592646598815918,
					0.2961382567882538,
					0.0802198201417923,
					1
				],
				"metallicFactor":0,
				"roughnessFactor":0.9200000166893005
			}
		},
		{
			"name":"dirt_v2",
			"pbrMetallicRoughness":{
				"baseColorFactor":[
					0.38132601976394653,
					0.30054378509521484,
					0.1946178376674652,
					1
				],
				"metallicFactor":0,
				"roughnessFactor":0.9200000166893005
			}
		},
		{
			"name":"dirt_v0",
			"pbrMetallicRoughness":{
				"baseColorFactor":[
					0.32314321398735046,
					0.24228112399578094,
					0.1384316086769104,
					1
				],
				"metallicFactor":0,
				"roughnessFactor":0.9200000166893005
			}
		},
		{
			"name":"dirt_v3",
			"pbrMetallicRoughness":{
				"baseColorFactor":[
					0.20863686501979828,
					0.15896083414554596,
					0.09084171056747437,
					1
				],
				"metallicFactor":0,
				"roughnessFactor":0.9200000166893005
			}
		},
		{
			"name":"colorRed",
			"pbrMetallicRoughness":{
				"baseColorFactor":[
					0.34191441535949707,
					0.08437620848417282,
					0.05951123684644699,
					1
				],
				"metallicFactor":0,
				"roughnessFactor":0.9200000166893005
			}
		},
		{
			"name":"colorYellow",
			"pbrMetallicRoughness":{
				"baseColorFactor":[
					0.5840784311294556,
					0.3613067865371704,
					0.07618538290262222,
					1
				],
				"metallicFactor":0,
				"roughnessFactor":0.9200000166893005
			}
		},
		{
			"name":"colorTan",
			"pbrMetallicRoughness":{
				"baseColorFactor":[
					0.5271151065826416,
					0.3762621283531189,
					0.20863686501979828,
					1
				],
				"metallicFactor":0,
				"roughnessFactor":0.9200000166893005
			}
		},
		{
			"name":"stone_v0",
			"pbrMetallicRoughness":{
				"baseColorFactor":[
					0.32314321398735046,
					0.35153260827064514,
					0.3613067865371704,
					1
				],
				"metallicFactor":0,
				"roughnessFactor":0.9200000166893005
			}
		}
	],
	"meshes":[
		{
			"name":"Mesh stone_largeC.011",
			"primitives":[
				{
					"attributes":{
						"POSITION":0,
						"NORMAL":1,
						"TEXCOORD_0":2,
						"COLOR_0":3
					},
					"indices":4,
					"material":0
				},
				{
					"attributes":{
						"POSITION":5,
						"NORMAL":6,
						"TEXCOORD_0":7,
						"COLOR_0":8
					},
					"indices":9,
					"material":1
				},
				{
					"attributes":{
						"POSITION":10,
						"NORMAL":11,
						"TEXCOORD_0":12,
						"COLOR_0":13
					},
					"indices":14,
					"material":2
				},
				{
					"attributes":{
						"POSITION":15,
						"NORMAL":16,
						"TEXCOORD_0":17,
						"COLOR_0":18
					},
					"indices":19,
					"material":3
				},
				{
					"attributes":{
						"POSITION":20,
						"NORMAL":21,
						"TEXCOORD_0":22,
						"COLOR_0":23
					},
					"indices":24,
					"material":4
				},
				{
					"attributes":{
						"POSITION":25,
						"NORMAL":26,
						"TEXCOORD_0":27,
						"COLOR_0":28
					},
					"indices":29,
					"material":5
				},
				{
					"attributes":{
						"POSITION":30,
						"NORMAL":31,
						"TEXCOORD_0":32,
						"COLOR_0":33
					},
					"indices":34,
					"material":6
				},
				{
					"attributes":{
						"POSITION":35,
						"NORMAL":36,
						"TEXCOORD_0":37,
						"COLOR_0":38
					},
					"indices":39,
					"material":7
				},
				{
					"attributes":{
						"POSITION":40,
						"NORMAL":41,
						"TEXCOORD_0":42,
						"COLOR_0":43
					},
					"indices":44,
					"material":8
				},
				{
					"attributes":{
						"POSITION":45,
						"NORMAL":46,
						"TEXCOORD_0":47,
						"COLOR_0":48
					},
					"indices":49,
					"material":9
				},
				{
					"attributes":{
						"POSITION":50,
						"NORMAL":51,
						"TEXCOORD_0":52,
						"COLOR_0":53
					},
					"indices":54,
					"material":10
				},
				{
					"attributes":{
						"POSITION":55,
						"NORMAL":56,
						"TEXCOORD_0":57,
						"COLOR_0":58
					},
					"indices":59,
					"material":11
				},
				{
					"attributes":{
						"POSITION":60,
						"NORMAL":61,
						"TEXCOORD_0":62,
						"COLOR_0":63
					},
					"indices":64,
					"material":12
				},
				{
					"attributes":{
						"POSITION":65,
						"NORMAL":66,
						"TEXCOORD_0":67,
						"COLOR_0":68
					},
					"indices":69,
					"material":13
				},
				{
					"attributes":{
						"POSITION":70,
						"NORMAL":71,
						"TEXCOORD_0":72,
						"COLOR_0":73
					},
					"indices":74,
					"material":14
				},
				{
					"attributes":{
						"POSITION":75,
						"NORMAL":76,
						"TEXCOORD_0":77,
						"COLOR_0":78
					},
					"indices":79,
					"material":15
				}
			]
		}
	],
	"accessors":[
		{
			"bufferView":0,
			"componentType":5126,
			"count":376,
			"max":[
				1.1245272159576416,
				0.4666200876235962,
				5.538048267364502
			],
			"min":[
				-5.358697891235352,
				-0.5197310447692871,
				-2.2108840942382812
			],
			"type":"VEC3"
		},
		{
			"bufferView":1,
			"componentType":5126,
			"count":376,
			"type":"VEC3"
		},
		{
			"bufferView":2,
			"componentType":5126,
			"count":376,
			"type":"VEC2"
		},
		{
			"bufferView":3,
			"componentType":5123,
			"count":376,
			"normalized":true,
			"type":"VEC4"
		},
		{
			"bufferView":4,
			"componentType":5123,
			"count":600,
			"type":"SCALAR"
		},
		{
			"bufferView":5,
			"componentType":5126,
			"count":428,
			"max":[
				3.1245241165161133,
				5.265256881713867,
				2.2385613918304443
			],
			"min":[
				-5.017053604125977,
				-0.17709477245807648,
				-0.27239322662353516
			],
			"type":"VEC3"
		},
		{
			"bufferView":6,
			"componentType":5126,
			"count":428,
			"type":"VEC3"
		},
		{
			"bufferView":7,
			"componentType":5126,
			"count":428,
			"type":"VEC2"
		},
		{
			"bufferView":8,
			"componentType":5123,
			"count":428,
			"normalized":true,
			"type":"VEC4"
		},
		{
			"bufferView":9,
			"componentType":5123,
			"count":696,
			"type":"SCALAR"
		},
		{
			"bufferView":10,
			"componentType":5126,
			"count":326,
			"max":[
				0.20430240035057068,
				1.360717535018921,
				2.9149343967437744
			],
			"min":[
				-2.067202091217041,
				-0.4774007201194763,
				-1.2550241947174072
			],
			"type":"VEC3"
		},
		{
			"bufferView":11,
			"componentType":5126,
			"count":326,
			"type":"VEC3"
		},
		{
			"bufferView":12,
			"componentType":5126,
			"count":326,
			"type":"VEC2"
		},
		{
			"bufferView":13,
			"componentType":5123,
			"count":326,
			"normalized":true,
			"type":"VEC4"
		},
		{
			"bufferView":14,
			"componentType":5123,
			"count":582,
			"type":"SCALAR"
		},
		{
			"bufferView":15,
			"componentType":5126,
			"count":487,
			"max":[
				0.20430240035057068,
				0.8289427161216736,
				3.3199591636657715
			],
			"min":[
				-5.805305480957031,
				-0.7884606719017029,
				-4.029277801513672
			],
			"type":"VEC3"
		},
		{
			"bufferView":16,
			"componentType":5126,
			"count":487,
			"type":"VEC3"
		},
		{
			"bufferView":17,
			"componentType":5126,
			"count":487,
			"type":"VEC2"
		},
		{
			"bufferView":18,
			"componentType":5123,
			"count":487,
			"normalized":true,
			"type":"VEC4"
		},
		{
			"bufferView":19,
			"componentType":5123,
			"count":516,
			"type":"SCALAR"
		},
		{
			"bufferView":20,
			"componentType":5126,
			"count":7193,
			"max":[
				0.8478600382804871,
				2.2275338172912598,
				4.644046306610107
			],
			"min":[
				-7.314157485961914,
				-1.027951955795288,
				-4.411176681518555
			],
			"type":"VEC3"
		},
		{
			"bufferView":21,
			"componentType":5126,
			"count":7193,
			"type":"VEC3"
		},
		{
			"bufferView":22,
			"componentType":5126,
			"count":7193,
			"type":"VEC2"
		},
		{
			"bufferView":23,
			"componentType":5123,
			"count":7193,
			"normalized":true,
			"type":"VEC4"
		},
		{
			"bufferView":24,
			"componentType":5123,
			"count":11214,
			"type":"SCALAR"
		},
		{
			"bufferView":25,
			"componentType":5126,
			"count":3733,
			"max":[
				-0.014363259077072144,
				1.0665292739868164,
				3.7912886142730713
			],
			"min":[
				-7.02520751953125,
				-0.9332518577575684,
				-4.313666343688965
			],
			"type":"VEC3"
		},
		{
			"bufferView":26,
			"componentType":5126,
			"count":3733,
			"type":"VEC3"
		},
		{
			"bufferView":27,
			"componentType":5126,
			"count":3733,
			"type":"VEC2"
		},
		{
			"bufferView":28,
			"componentType":5123,
			"count":3733,
			"normalized":true,
			"type":"VEC4"
		},
		{
			"bufferView":29,
			"componentType":5123,
			"count":5796,
			"type":"SCALAR"
		},
		{
			"bufferView":30,
			"componentType":5126,
			"count":3588,
			"max":[
				0.08455204963684082,
				2.0240678787231445,
				4.792335033416748
			],
			"min":[
				-6.1337409019470215,
				-0.4610119163990021,
				-4.026297092437744
			],
			"type":"VEC3"
		},
		{
			"bufferView":31,
			"componentType":5126,
			"count":3588,
			"type":"VEC3"
		},
		{
			"bufferView":32,
			"componentType":5126,
			"count":3588,
			"type":"VEC2"
		},
		{
			"bufferView":33,
			"componentType":5123,
			"count":3588,
			"normalized":true,
			"type":"VEC4"
		},
		{
			"bufferView":34,
			"componentType":5123,
			"count":5712,
			"type":"SCALAR"
		},
		{
			"bufferView":35,
			"componentType":5126,
			"count":2314,
			"max":[
				0.0178053081035614,
				1.6076819896697998,
				4.642334938049316
			],
			"min":[
				-6.054452896118164,
				-0.8913490772247314,
				-3.729203701019287
			],
			"type":"VEC3"
		},
		{
			"bufferView":36,
			"componentType":5126,
			"count":2314,
			"type":"VEC3"
		},
		{
			"bufferView":37,
			"componentType":5126,
			"count":2314,
			"type":"VEC2"
		},
		{
			"bufferView":38,
			"componentType":5123,
			"count":2314,
			"normalized":true,
			"type":"VEC4"
		},
		{
			"bufferView":39,
			"componentType":5123,
			"count":3606,
			"type":"SCALAR"
		},
		{
			"bufferView":40,
			"componentType":5126,
			"count":34122,
			"max":[
				2.0840015411376953,
				5.494711875915527,
				5.557804584503174
			],
			"min":[
				-6.9133830070495605,
				-1.0306370258331299,
				-4.637098789215088
			],
			"type":"VEC3"
		},
		{
			"bufferView":41,
			"componentType":5126,
			"count":34122,
			"type":"VEC3"
		},
		{
			"bufferView":42,
			"componentType":5126,
			"count":34122,
			"type":"VEC2"
		},
		{
			"bufferView":43,
			"componentType":5123,
			"count":34122,
			"normalized":true,
			"type":"VEC4"
		},
		{
			"bufferView":44,
			"componentType":5123,
			"count":45840,
			"type":"SCALAR"
		},
		{
			"bufferView":45,
			"componentType":5126,
			"count":49,
			"max":[
				-4.4582366943359375,
				0.2787913680076599,
				0.9597880840301514
			],
			"min":[
				-4.81134033203125,
				0.06609627604484558,
				0.5862782001495361
			],
			"type":"VEC3"
		},
		{
			"bufferView":46,
			"componentType":5126,
			"count":49,
			"type":"VEC3"
		},
		{
			"bufferView":47,
			"componentType":5126,
			"count":49,
			"type":"VEC2"
		},
		{
			"bufferView":48,
			"componentType":5123,
			"count":49,
			"normalized":true,
			"type":"VEC4"
		},
		{
			"bufferView":49,
			"componentType":5123,
			"count":75,
			"type":"SCALAR"
		},
		{
			"bufferView":50,
			"componentType":5126,
			"count":27,
			"max":[
				-3.41013765335083,
				-0.4451456069946289,
				-2.729259490966797
			],
			"min":[
				-3.6712231636047363,
				-0.582025408744812,
				-2.9871532917022705
			],
			"type":"VEC3"
		},
		{
			"bufferView":51,
			"componentType":5126,
			"count":27,
			"type":"VEC3"
		},
		{
			"bufferView":52,
			"componentType":5126,
			"count":27,
			"type":"VEC2"
		},
		{
			"bufferView":53,
			"componentType":5123,
			"count":27,
			"normalized":true,
			"type":"VEC4"
		},
		{
			"bufferView":54,
			"componentType":5123,
			"count":39,
			"type":"SCALAR"
		},
		{
			"bufferView":55,
			"componentType":5126,
			"count":70,
			"max":[
				-2.355720281600952,
				0.24603113532066345,
				2.4637980461120605
			],
			"min":[
				-3.0241966247558594,
				0.008879009634256363,
				0.2679269015789032
			],
			"type":"VEC3"
		},
		{
			"bufferView":56,
			"componentType":5126,
			"count":70,
			"type":"VEC3"
		},
		{
			"bufferView":57,
			"componentType":5126,
			"count":70,
			"type":"VEC2"
		},
		{
			"bufferView":58,
			"componentType":5123,
			"count":70,
			"normalized":true,
			"type":"VEC4"
		},
		{
			"bufferView":59,
			"componentType":5123,
			"count":114,
			"type":"SCALAR"
		},
		{
			"bufferView":60,
			"componentType":5126,
			"count":172,
			"max":[
				-0.4296347498893738,
				0.3012934923171997,
				1.2490235567092896
			],
			"min":[
				-1.8790520429611206,
				-0.675028383731842,
				-2.7698333263397217
			],
			"type":"VEC3"
		},
		{
			"bufferView":61,
			"componentType":5126,
			"count":172,
			"type":"VEC3"
		},
		{
			"bufferView":62,
			"componentType":5126,
			"count":172,
			"type":"VEC2"
		},
		{
			"bufferView":63,
			"componentType":5123,
			"count":172,
			"normalized":true,
			"type":"VEC4"
		},
		{
			"bufferView":64,
			"componentType":5123,
			"count":264,
			"type":"SCALAR"
		},
		{
			"bufferView":65,
			"componentType":5126,
			"count":146,
			"max":[
				-1.0526971817016602,
				-0.23241928219795227,
				-0.8385220170021057
			],
			"min":[
				-1.1656514406204224,
				-0.3717047870159149,
				-0.967420220375061
			],
			"type":"VEC3"
		},
		{
			"bufferView":66,
			"componentType":5126,
			"count":146,
			"type":"VEC3"
		},
		{
			"bufferView":67,
			"componentType":5126,
			"count":146,
			"type":"VEC2"
		},
		{
			"bufferView":68,
			"componentType":5123,
			"count":146,
			"normalized":true,
			"type":"VEC4"
		},
		{
			"bufferView":69,
			"componentType":5123,
			"count":270,
			"type":"SCALAR"
		},
		{
			"bufferView":70,
			"componentType":5126,
			"count":96,
			"max":[
				-2.4371633529663086,
				0.3091072142124176,
				2.7812459468841553
			],
			"min":[
				-2.6195361614227295,
				0.1742638349533081,
				2.587474822998047
			],
			"type":"VEC3"
		},
		{
			"bufferView":71,
			"componentType":5126,
			"count":96,
			"type":"VEC3"
		},
		{
			"bufferView":72,
			"componentType":5126,
			"count":96,
			"type":"VEC2"
		},
		{
			"bufferView":73,
			"componentType":5123,
			"count":96,
			"normalized":true,
			"type":"VEC4"
		},
		{
			"bufferView":74,
			"componentType":5123,
			"count":144,
			"type":"SCALAR"
		},
		{
			"bufferView":75,
			"componentType":5126,
			"count":154,
			"max":[
				-0.48553192615509033,
				-0.7533127069473267,
				-3.7324492931365967
			],
			"min":[
				-1.362776517868042,
				-0.9703083634376526,
				-4.290485858917236
			],
			"type":"VEC3"
		},
		{
			"bufferView":76,
			"componentType":5126,
			"count":154,
			"type":"VEC3"
		},
		{
			"bufferView":77,
			"componentType":5126,
			"count":154,
			"type":"VEC2"
		},
		{
			"bufferView":78,
			"componentType":5123,
			"count":154,
			"normalized":true,
			"type":"VEC4"
		},
		{
			"bufferView":79,
			"componentType":5123,
			"count":240,
			"type":"SCALAR"
		}
	],
	"bufferViews":[
		{
			"buffer":0,
			"byteLength":4512,
			"byteOffset":0,
			"target":34962
		},
		{
			"buffer":0,
			"byteLength":4512,
			"byteOffset":4512,
			"target":34962
		},
		{
			"buffer":0,
			"byteLength":3008,
			"byteOffset":9024,
			"target":34962
		},
		{
			"buffer":0,
			"byteLength":3008,
			"byteOffset":12032,
			"target":34962
		},
		{
			"buffer":0,
			"byteLength":1200,
			"byteOffset":15040,
			"target":34963
		},
		{
			"buffer":0,
			"byteLength":5136,
			"byteOffset":16240,
			"target":34962
		},
		{
			"buffer":0,
			"byteLength":5136,
			"byteOffset":21376,
			"target":34962
		},
		{
			"buffer":0,
			"byteLength":3424,
			"byteOffset":26512,
			"target":34962
		},
		{
			"buffer":0,
			"byteLength":3424,
			"byteOffset":29936,
			"target":34962
		},
		{
			"buffer":0,
			"byteLength":1392,
			"byteOffset":33360,
			"target":34963
		},
		{
			"buffer":0,
			"byteLength":3912,
			"byteOffset":34752,
			"target":34962
		},
		{
			"buffer":0,
			"byteLength":3912,
			"byteOffset":38664,
			"target":34962
		},
		{
			"buffer":0,
			"byteLength":2608,
			"byteOffset":42576,
			"target":34962
		},
		{
			"buffer":0,
			"byteLength":2608,
			"byteOffset":45184,
			"target":34962
		},
		{
			"buffer":0,
			"byteLength":1164,
			"byteOffset":47792,
			"target":34963
		},
		{
			"buffer":0,
			"byteLength":5844,
			"byteOffset":48956,
			"target":34962
		},
		{
			"buffer":0,
			"byteLength":5844,
			"byteOffset":54800,
			"target":34962
		},
		{
			"buffer":0,
			"byteLength":3896,
			"byteOffset":60644,
			"target":34962
		},
		{
			"buffer":0,
			"byteLength":3896,
			"byteOffset":64540,
			"target":34962
		},
		{
			"buffer":0,
			"byteLength":1032,
			"byteOffset":68436,
			"target":34963
		},
		{
			"buffer":0,
			"byteLength":86316,
			"byteOffset":69468,
			"target":34962
		},
		{
			"buffer":0,
			"byteLength":86316,
			"byteOffset":155784,
			"target":34962
		},
		{
			"buffer":0,
			"byteLength":57544,
			"byteOffset":242100,
			"target":34962
		},
		{
			"buffer":0,
			"byteLength":57544,
			"byteOffset":299644,
			"target":34962
		},
		{
			"buffer":0,
			"byteLength":22428,
			"byteOffset":357188,
			"target":34963
		},
		{
			"buffer":0,
			"byteLength":44796,
			"byteOffset":379616,
			"target":34962
		},
		{
			"buffer":0,
			"byteLength":44796,
			"byteOffset":424412,
			"target":34962
		},
		{
			"buffer":0,
			"byteLength":29864,
			"byteOffset":469208,
			"target":34962
		},
		{
			"buffer":0,
			"byteLength":29864,
			"byteOffset":499072,
			"target":34962
		},
		{
			"buffer":0,
			"byteLength":11592,
			"byteOffset":528936,
			"target":34963
		},
		{
			"buffer":0,
			"byteLength":43056,
			"byteOffset":540528,
			"target":34962
		},
		{
			"buffer":0,
			"byteLength":43056,
			"byteOffset":583584,
			"target":34962
		},
		{
			"buffer":0,
			"byteLength":28704,
			"byteOffset":626640,
			"target":34962
		},
		{
			"buffer":0,
			"byteLength":28704,
			"byteOffset":655344,
			"target":34962
		},
		{
			"buffer":0,
			"byteLength":11424,
			"byteOffset":684048,
			"target":34963
		},
		{
			"buffer":0,
			"byteLength":27768,
			"byteOffset":695472,
			"target":34962
		},
		{
			"buffer":0,
			"byteLength":27768,
			"byteOffset":723240,
			"target":34962
		},
		{
			"buffer":0,
			"byteLength":18512,
			"byteOffset":751008,
			"target":34962
		},
		{
			"buffer":0,
			"byteLength":18512,
			"byteOffset":769520,
			"target":34962
		},
		{
			"buffer":0,
			"byteLength":7212,
			"byteOffset":788032,
			"target":34963
		},
		{
			"buffer":0,
			"byteLength":409464,
			"byteOffset":795244,
			"target":34962
		},
		{
			"buffer":0,
			"byteLength":409464,
			"byteOffset":1204708,
			"target":34962
		},
		{
			"buffer":0,
			"byteLength":272976,
			"byteOffset":1614172,
			"target":34962
		},
		{
			"buffer":0,
			"byteLength":272976,
			"byteOffset":1887148,
			"target":34962
		},
		{
			"buffer":0,
			"byteLength":91680,
			"byteOffset":2160124,
			"target":34963
		},
		{
			"buffer":0,
			"byteLength":588,
			"byteOffset":2251804,
			"target":34962
		},
		{
			"buffer":0,
			"byteLength":588,
			"byteOffset":2252392,
			"target":34962
		},
		{
			"buffer":0,
			"byteLength":392,
			"byteOffset":2252980,
			"target":34962
		},
		{
			"buffer":0,
			"byteLength":392,
			"byteOffset":2253372,
			"target":34962
		},
		{
			"buffer":0,
			"byteLength":150,
			"byteOffset":2253764,
			"target":34963
		},
		{
			"buffer":0,
			"byteLength":324,
			"byteOffset":2253916,
			"target":34962
		},
		{
			"buffer":0,
			"byteLength":324,
			"byteOffset":2254240,
			"target":34962
		},
		{
			"buffer":0,
			"byteLength":216,
			"byteOffset":2254564,
			"target":34962
		},
		{
			"buffer":0,
			"byteLength":216,
			"byteOffset":2254780,
			"target":34962
		},
		{
			"buffer":0,
			"byteLength":78,
			"byteOffset":2254996,
			"target":34963
		},
		{
			"buffer":0,
			"byteLength":840,
			"byteOffset":2255076,
			"target":34962
		},
		{
			"buffer":0,
			"byteLength":840,
			"byteOffset":2255916,
			"target":34962
		},
		{
			"buffer":0,
			"byteLength":560,
			"byteOffset":2256756,
			"target":34962
		},
		{
			"buffer":0,
			"byteLength":560,
			"byteOffset":2257316,
			"target":34962
		},
		{
			"buffer":0,
			"byteLength":228,
			"byteOffset":2257876,
			"target":34963
		},
		{
			"buffer":0,
			"byteLength":2064,
			"byteOffset":2258104,
			"target":34962
		},
		{
			"buffer":0,
			"byteLength":2064,
			"byteOffset":2260168,
			"target":34962
		},
		{
			"buffer":0,
			"byteLength":1376,
			"byteOffset":2262232,
			"target":34962
		},
		{
			"buffer":0,
			"byteLength":1376,
			"byteOffset":2263608,
			"target":34962
		},
		{
			"buffer":0,
			"byteLength":528,
			"byteOffset":2264984,
			"target":34963
		},
		{
			"buffer":0,
			"byteLength":1752,
			"byteOffset":2265512,
			"target":34962
		},
		{
			"buffer":0,
			"byteLength":1752,
			"byteOffset":2267264,
			"target":34962
		},
		{
			"buffer":0,
			"byteLength":1168,
			"byteOffset":2269016,
			"target":34962
		},
		{
			"buffer":0,
			"byteLength":1168,
			"byteOffset":2270184,
			"target":34962
		},
		{
			"buffer":0,
			"byteLength":540,
			"byteOffset":2271352,
			"target":34963
		},
		{
			"buffer":0,
			"byteLength":1152,
			"byteOffset":2271892,
			"target":34962
		},
		{
			"buffer":0,
			"byteLength":1152,
			"byteOffset":2273044,
			"target":34962
		},
		{
			"buffer":0,
			"byteLength":768,
			"byteOffset":2274196,
			"target":34962
		},
		{
			"buffer":0,
			"byteLength":768,
			"byteOffset":2274964,
			"target":34962
		},
		{
			"buffer":0,
			"byteLength":288,
			"byteOffset":2275732,
			"target":34963
		},
		{
			"buffer":0,
			"byteLength":1848,
			"byteOffset":2276020,
			"target":34962
		},
		{
			"buffer":0,
			"byteLength":1848,
			"byteOffset":2277868,
			"target":34962
		},
		{
			"buffer":0,
			"byteLength":1232,
			"byteOffset":2279716,
			"target":34962
		},
		{
			"buffer":0,
			"byteLength":1232,
			"byteOffset":2280948,
			"target":34962
		},
		{
			"buffer":0,
			"byteLength":480,
			"byteOffset":2282180,
			"target":34963
		}
	],
	"buffers":[
		{
			"byteLength":2282660,
			"uri":"cell_x-3_z1_render.bin"
		}
	]
}
