{
	"asset":{
		"generator":"Khronos glTF Blender I/O v4.5.51",
		"version":"2.0"
	},
	"scene":0,
	"scenes":[
		{
			"name":"Scene",
			"nodes":[
				0
			]
		}
	],
	"nodes":[
		{
			"mesh":0,
			"name":"cell_x2_z2",
			"rotation":[
				0,
				0.5765856504440308,
				0,
				0.8170366883277893
			],
			"scale":[
				1.5299118757247925,
				1.529911756515503,
				1.5299118757247925
			],
			"translation":[
				119.23843383789062,
				17.4387149810791,
				94
			]
		}
	],
	"materials":[
		{
			"doubleSided":true,
			"name":"sol_falaise",
			"normalTexture":{
				"index":0,
				"scale":0.800000011920929
			},
			"pbrMetallicRoughness":{
				"baseColorFactor":[
					0.6514056324958801,
					0.6104955673217773,
					0.5149176716804504,
					1
				],
				"baseColorTexture":{
					"index":1
				},
				"metallicFactor":0,
				"roughnessFactor":0.949999988079071
			}
		},
		{
			"name":"stone_v2",
			"pbrMetallicRoughness":{
				"baseColorFactor":[
					0.38132601976394653,
					0.38132601976394653,
					0.3324515223503113,
					1
				],
				"metallicFactor":0,
				"roughnessFactor":0.9200000166893005
			}
		},
		{
			"name":"stone_v0",
			"pbrMetallicRoughness":{
				"baseColorFactor":[
					0.32314321398735046,
					0.35153260827064514,
					0.3613067865371704,
					1
				],
				"metallicFactor":0,
				"roughnessFactor":0.9200000166893005
			}
		},
		{
			"name":"leafsGreen",
			"pbrMetallicRoughness":{
				"baseColorFactor":[
					0.11443537473678589,
					0.23074005544185638,
					0.06301001459360123,
					1
				],
				"metallicFactor":0,
				"roughnessFactor":0.9200000166893005
			}
		},
		{
			"name":"grass",
			"pbrMetallicRoughness":{
				"baseColorFactor":[
					0.15592646598815918,
					0.2961382567882538,
					0.0802198201417923,
					1
				],
				"metallicFactor":0,
				"roughnessFactor":0.9200000166893005
			}
		}
	],
	"meshes":[
		{
			"name":"SM_ENV_cliff_castle_01_instantmeshesexp_02.016",
			"primitives":[
				{
					"attributes":{
						"POSITION":0,
						"NORMAL":1,
						"TEXCOORD_0":2,
						"TEXCOORD_1":3,
						"COLOR_0":4
					},
					"indices":5,
					"material":0
				},
				{
					"attributes":{
						"POSITION":6,
						"NORMAL":7,
						"TEXCOORD_0":8,
						"TEXCOORD_1":9,
						"COLOR_0":10
					},
					"indices":11,
					"material":1
				},
				{
					"attributes":{
						"POSITION":12,
						"NORMAL":13,
						"TEXCOORD_0":14,
						"TEXCOORD_1":15,
						"COLOR_0":16
					},
					"indices":17,
					"material":2
				},
				{
					"attributes":{
						"POSITION":18,
						"NORMAL":19,
						"TEXCOORD_0":20,
						"TEXCOORD_1":21,
						"COLOR_0":22
					},
					"indices":23,
					"material":3
				},
				{
					"attributes":{
						"POSITION":24,
						"NORMAL":25,
						"TEXCOORD_0":26,
						"TEXCOORD_1":27,
						"COLOR_0":28
					},
					"indices":29,
					"material":4
				}
			]
		}
	],
	"textures":[
		{
			"sampler":0,
			"source":0
		},
		{
			"sampler":0,
			"source":1
		}
	],
	"images":[
		{
			"mimeType":"image/png",
			"name":"cliff_n",
			"uri":"textures/cliff_n.png"
		},
		{
			"mimeType":"image/png",
			"name":"stone_bc",
			"uri":"textures/stone_bc.png"
		}
	],
	"accessors":[
		{
			"bufferView":0,
			"componentType":5126,
			"count":4615,
			"max":[
				4.855959892272949,
				5.9515485763549805,
				3.302274227142334
			],
			"min":[
				-4.882627487182617,
				-5.545106887817383,
				-3.2813682556152344
			],
			"type":"VEC3"
		},
		{
			"bufferView":1,
			"componentType":5126,
			"count":4615,
			"type":"VEC3"
		},
		{
			"bufferView":2,
			"componentType":5126,
			"count":4615,
			"type":"VEC2"
		},
		{
			"bufferView":3,
			"componentType":5126,
			"count":4615,
			"type":"VEC2"
		},
		{
			"bufferView":4,
			"componentType":5123,
			"count":4615,
			"normalized":true,
			"type":"VEC4"
		},
		{
			"bufferView":5,
			"componentType":5123,
			"count":23661,
			"type":"SCALAR"
		},
		{
			"bufferView":6,
			"componentType":5126,
			"count":103,
			"max":[
				-6.225488185882568,
				6.056062698364258,
				-21.49867820739746
			],
			"min":[
				-6.933761119842529,
				5.688134670257568,
				-22.206640243530273
			],
			"type":"VEC3"
		},
		{
			"bufferView":7,
			"componentType":5126,
			"count":103,
			"type":"VEC3"
		},
		{
			"bufferView":8,
			"componentType":5126,
			"count":103,
			"type":"VEC2"
		},
		{
			"bufferView":9,
			"componentType":5126,
			"count":103,
			"type":"VEC2"
		},
		{
			"bufferView":10,
			"componentType":5123,
			"count":103,
			"normalized":true,
			"type":"VEC4"
		},
		{
			"bufferView":11,
			"componentType":5123,
			"count":156,
			"type":"SCALAR"
		},
		{
			"bufferView":12,
			"componentType":5126,
			"count":122,
			"max":[
				-2.9884443283081055,
				5.524482250213623,
				-17.014711380004883
			],
			"min":[
				-5.27276611328125,
				4.690072059631348,
				-19.462034225463867
			],
			"type":"VEC3"
		},
		{
			"bufferView":13,
			"componentType":5126,
			"count":122,
			"type":"VEC3"
		},
		{
			"bufferView":14,
			"componentType":5126,
			"count":122,
			"type":"VEC2"
		},
		{
			"bufferView":15,
			"componentType":5126,
			"count":122,
			"type":"VEC2"
		},
		{
			"bufferView":16,
			"componentType":5123,
			"count":122,
			"normalized":true,
			"type":"VEC4"
		},
		{
			"bufferView":17,
			"componentType":5123,
			"count":192,
			"type":"SCALAR"
		},
		{
			"bufferView":18,
			"componentType":5126,
			"count":123,
			"max":[
				6.35720157623291,
				5.582935810089111,
				-8.057843208312988
			],
			"min":[
				3.0001463890075684,
				4.275391578674316,
				-12.060908317565918
			],
			"type":"VEC3"
		},
		{
			"bufferView":19,
			"componentType":5126,
			"count":123,
			"type":"VEC3"
		},
		{
			"bufferView":20,
			"componentType":5126,
			"count":123,
			"type":"VEC2"
		},
		{
			"bufferView":21,
			"componentType":5126,
			"count":123,
			"type":"VEC2"
		},
		{
			"bufferView":22,
			"componentType":5123,
			"count":123,
			"normalized":true,
			"type":"VEC4"
		},
		{
			"bufferView":23,
			"componentType":5123,
			"count":264,
			"type":"SCALAR"
		},
		{
			"bufferView":24,
			"componentType":5126,
			"count":390,
			"max":[
				6.054503917694092,
				4.920970916748047,
				-8.358201026916504
			],
			"min":[
				4.769807815551758,
				4.39835262298584,
				-9.79604721069336
			],
			"type":"VEC3"
		},
		{
			"bufferView":25,
			"componentType":5126,
			"count":390,
			"type":"VEC3"
		},
		{
			"bufferView":26,
			"componentType":5126,
			"count":390,
			"type":"VEC2"
		},
		{
			"bufferView":27,
			"componentType":5126,
			"count":390,
			"type":"VEC2"
		},
		{
			"bufferView":28,
			"componentType":5123,
			"count":390,
			"normalized":true,
			"type":"VEC4"
		},
		{
			"bufferView":29,
			"componentType":5123,
			"count":504,
			"type":"SCALAR"
		}
	],
	"bufferViews":[
		{
			"buffer":0,
			"byteLength":55380,
			"byteOffset":0,
			"target":34962
		},
		{
			"buffer":0,
			"byteLength":55380,
			"byteOffset":55380,
			"target":34962
		},
		{
			"buffer":0,
			"byteLength":36920,
			"byteOffset":110760,
			"target":34962
		},
		{
			"buffer":0,
			"byteLength":36920,
			"byteOffset":147680,
			"target":34962
		},
		{
			"buffer":0,
			"byteLength":36920,
			"byteOffset":184600,
			"target":34962
		},
		{
			"buffer":0,
			"byteLength":47322,
			"byteOffset":221520,
			"target":34963
		},
		{
			"buffer":0,
			"byteLength":1236,
			"byteOffset":268844,
			"target":34962
		},
		{
			"buffer":0,
			"byteLength":1236,
			"byteOffset":270080,
			"target":34962
		},
		{
			"buffer":0,
			"byteLength":824,
			"byteOffset":271316,
			"target":34962
		},
		{
			"buffer":0,
			"byteLength":824,
			"byteOffset":272140,
			"target":34962
		},
		{
			"buffer":0,
			"byteLength":824,
			"byteOffset":272964,
			"target":34962
		},
		{
			"buffer":0,
			"byteLength":312,
			"byteOffset":273788,
			"target":34963
		},
		{
			"buffer":0,
			"byteLength":1464,
			"byteOffset":274100,
			"target":34962
		},
		{
			"buffer":0,
			"byteLength":1464,
			"byteOffset":275564,
			"target":34962
		},
		{
			"buffer":0,
			"byteLength":976,
			"byteOffset":277028,
			"target":34962
		},
		{
			"buffer":0,
			"byteLength":976,
			"byteOffset":278004,
			"target":34962
		},
		{
			"buffer":0,
			"byteLength":976,
			"byteOffset":278980,
			"target":34962
		},
		{
			"buffer":0,
			"byteLength":384,
			"byteOffset":279956,
			"target":34963
		},
		{
			"buffer":0,
			"byteLength":1476,
			"byteOffset":280340,
			"target":34962
		},
		{
			"buffer":0,
			"byteLength":1476,
			"byteOffset":281816,
			"target":34962
		},
		{
			"buffer":0,
			"byteLength":984,
			"byteOffset":283292,
			"target":34962
		},
		{
			"buffer":0,
			"byteLength":984,
			"byteOffset":284276,
			"target":34962
		},
		{
			"buffer":0,
			"byteLength":984,
			"byteOffset":285260,
			"target":34962
		},
		{
			"buffer":0,
			"byteLength":528,
			"byteOffset":286244,
			"target":34963
		},
		{
			"buffer":0,
			"byteLength":4680,
			"byteOffset":286772,
			"target":34962
		},
		{
			"buffer":0,
			"byteLength":4680,
			"byteOffset":291452,
			"target":34962
		},
		{
			"buffer":0,
			"byteLength":3120,
			"byteOffset":296132,
			"target":34962
		},
		{
			"buffer":0,
			"byteLength":3120,
			"byteOffset":299252,
			"target":34962
		},
		{
			"buffer":0,
			"byteLength":3120,
			"byteOffset":302372,
			"target":34962
		},
		{
			"buffer":0,
			"byteLength":1008,
			"byteOffset":305492,
			"target":34963
		}
	],
	"samplers":[
		{
			"magFilter":9729,
			"minFilter":9987
		}
	],
	"buffers":[
		{
			"byteLength":306500,
			"uri":"cell_x2_z2_render.bin"
		}
	]
}
