{
	"asset":{
		"generator":"Khronos glTF Blender I/O v4.5.51",
		"version":"2.0"
	},
	"scene":0,
	"scenes":[
		{
			"name":"Scene",
			"nodes":[
				0
			]
		}
	],
	"nodes":[
		{
			"mesh":0,
			"name":"cell_x-4_z1",
			"rotation":[
				-0.007040225900709629,
				-0.9438391327857971,
				-0.020153269171714783,
				0.3297152817249298
			],
			"scale":[
				2.216468572616577,
				2.216468572616577,
				2.216468572616577
			],
			"translation":[
				-123.2761459350586,
				5.6833295822143555,
				66.1373519897461
			]
		}
	],
	"materials":[
		{
			"name":"stone_v3",
			"pbrMetallicRoughness":{
				"baseColorFactor":[
					0.20863686501979828,
					0.2462013214826584,
					0.2622506618499756,
					1
				],
				"metallicFactor":0,
				"roughnessFactor":0.9200000166893005
			}
		},
		{
			"name":"_defaultMat",
			"pbrMetallicRoughness":{
				"baseColorFactor":[
					0.4564110338687897,
					0.4564110338687897,
					0.4125426113605499,
					1
				],
				"metallicFactor":0,
				"roughnessFactor":0.9200000166893005
			}
		},
		{
			"name":"dirt_v1",
			"pbrMetallicRoughness":{
				"baseColorFactor":[
					0.2581828534603119,
					0.1946178376674652,
					0.1119324266910553,
					1
				],
				"metallicFactor":0,
				"roughnessFactor":0.9200000166893005
			}
		},
		{
			"name":"grass",
			"pbrMetallicRoughness":{
				"baseColorFactor":[
					0.15592646598815918,
					0.2961382567882538,
					0.0802198201417923,
					1
				],
				"metallicFactor":0,
				"roughnessFactor":0.9200000166893005
			}
		},
		{
			"name":"leafsGreen",
			"pbrMetallicRoughness":{
				"baseColorFactor":[
					0.11443537473678589,
					0.23074005544185638,
					0.06301001459360123,
					1
				],
				"metallicFactor":0,
				"roughnessFactor":0.9200000166893005
			}
		},
		{
			"name":"woodBark",
			"pbrMetallicRoughness":{
				"baseColorFactor":[
					0.2015562504529953,
					0.08437620848417282,
					0.02955683507025242,
					1
				],
				"metallicFactor":0,
				"roughnessFactor":0.9200000166893005
			}
		},
		{
			"name":"woodBarkDark",
			"pbrMetallicRoughness":{
				"baseColorFactor":[
					0.11443537473678589,
					0.04666508734226227,
					0.016807375475764275,
					1
				],
				"metallicFactor":0,
				"roughnessFactor":0.9200000166893005
			}
		},
		{
			"name":"leafsDark",
			"pbrMetallicRoughness":{
				"baseColorFactor":[
					0.04817182570695877,
					0.11443537473678589,
					0.03310476616024971,
					1
				],
				"metallicFactor":0,
				"roughnessFactor":0.9200000166893005
			}
		}
	],
	"meshes":[
		{
			"name":"Mesh stone_tallF.001",
			"primitives":[
				{
					"attributes":{
						"POSITION":0,
						"NORMAL":1,
						"TEXCOORD_0":2
					},
					"indices":3,
					"material":0
				},
				{
					"attributes":{
						"POSITION":4,
						"NORMAL":5,
						"TEXCOORD_0":6
					},
					"indices":7,
					"material":1
				},
				{
					"attributes":{
						"POSITION":8,
						"NORMAL":9,
						"TEXCOORD_0":10
					},
					"indices":11,
					"material":2
				},
				{
					"attributes":{
						"POSITION":12,
						"NORMAL":13,
						"TEXCOORD_0":14
					},
					"indices":15,
					"material":3
				},
				{
					"attributes":{
						"POSITION":16,
						"NORMAL":17,
						"TEXCOORD_0":18
					},
					"indices":19,
					"material":4
				},
				{
					"attributes":{
						"POSITION":20,
						"NORMAL":21,
						"TEXCOORD_0":22
					},
					"indices":23,
					"material":5
				},
				{
					"attributes":{
						"POSITION":24,
						"NORMAL":25,
						"TEXCOORD_0":26
					},
					"indices":27,
					"material":6
				},
				{
					"attributes":{
						"POSITION":28,
						"NORMAL":29,
						"TEXCOORD_0":30
					},
					"indices":31,
					"material":7
				}
			]
		}
	],
	"accessors":[
		{
			"bufferView":0,
			"componentType":5126,
			"count":74,
			"max":[
				0.2218480110168457,
				0.5736719965934753,
				0.256168007850647
			],
			"min":[
				-0.2218480110168457,
				0,
				-0.256168007850647
			],
			"type":"VEC3"
		},
		{
			"bufferView":1,
			"componentType":5126,
			"count":74,
			"type":"VEC3"
		},
		{
			"bufferView":2,
			"componentType":5126,
			"count":74,
			"type":"VEC2"
		},
		{
			"bufferView":3,
			"componentType":5123,
			"count":126,
			"type":"SCALAR"
		},
		{
			"bufferView":4,
			"componentType":5126,
			"count":12,
			"max":[
				0.2218480110168457,
				0,
				0.256168007850647
			],
			"min":[
				-0.2218480110168457,
				0,
				-0.256168007850647
			],
			"type":"VEC3"
		},
		{
			"bufferView":5,
			"componentType":5126,
			"count":12,
			"type":"VEC3"
		},
		{
			"bufferView":6,
			"componentType":5126,
			"count":12,
			"type":"VEC2"
		},
		{
			"bufferView":7,
			"componentType":5123,
			"count":12,
			"type":"SCALAR"
		},
		{
			"bufferView":8,
			"componentType":5126,
			"count":135,
			"max":[
				1.7738802433013916,
				0.5468721985816956,
				-0.10674828290939331
			],
			"min":[
				0.2686493396759033,
				0.15737739205360413,
				-1.1070994138717651
			],
			"type":"VEC3"
		},
		{
			"bufferView":9,
			"componentType":5126,
			"count":135,
			"type":"VEC3"
		},
		{
			"bufferView":10,
			"componentType":5126,
			"count":135,
			"type":"VEC2"
		},
		{
			"bufferView":11,
			"componentType":5123,
			"count":213,
			"type":"SCALAR"
		},
		{
			"bufferView":12,
			"componentType":5126,
			"count":3825,
			"max":[
				3.881362199783325,
				1.0144156217575073,
				8.768470764160156
			],
			"min":[
				-6.33167839050293,
				-0.7417821288108826,
				-5.433027267456055
			],
			"type":"VEC3"
		},
		{
			"bufferView":13,
			"componentType":5126,
			"count":3825,
			"type":"VEC3"
		},
		{
			"bufferView":14,
			"componentType":5126,
			"count":3825,
			"type":"VEC2"
		},
		{
			"bufferView":15,
			"componentType":5123,
			"count":5079,
			"type":"SCALAR"
		},
		{
			"bufferView":16,
			"componentType":5126,
			"count":567,
			"max":[
				2.9658820629119873,
				3.39001202583313,
				9.772314071655273
			],
			"min":[
				-7.285292625427246,
				-0.2854382395744324,
				-4.967012405395508
			],
			"type":"VEC3"
		},
		{
			"bufferView":17,
			"componentType":5126,
			"count":567,
			"type":"VEC3"
		},
		{
			"bufferView":18,
			"componentType":5126,
			"count":567,
			"type":"VEC2"
		},
		{
			"bufferView":19,
			"componentType":5123,
			"count":1008,
			"type":"SCALAR"
		},
		{
			"bufferView":20,
			"componentType":5126,
			"count":82,
			"max":[
				2.5526256561279297,
				0.771379292011261,
				9.437566757202148
			],
			"min":[
				-7.016456604003906,
				-0.6321431994438171,
				-4.647651195526123
			],
			"type":"VEC3"
		},
		{
			"bufferView":21,
			"componentType":5126,
			"count":82,
			"type":"VEC3"
		},
		{
			"bufferView":22,
			"componentType":5126,
			"count":82,
			"type":"VEC2"
		},
		{
			"bufferView":23,
			"componentType":5123,
			"count":120,
			"type":"SCALAR"
		},
		{
			"bufferView":24,
			"componentType":5126,
			"count":257,
			"max":[
				2.6252527236938477,
				1.811752200126648,
				8.538742065429688
			],
			"min":[
				-7.187758922576904,
				-0.26169639825820923,
				-3.7048823833465576
			],
			"type":"VEC3"
		},
		{
			"bufferView":25,
			"componentType":5126,
			"count":257,
			"type":"VEC3"
		},
		{
			"bufferView":26,
			"componentType":5126,
			"count":257,
			"type":"VEC2"
		},
		{
			"bufferView":27,
			"componentType":5123,
			"count":444,
			"type":"SCALAR"
		},
		{
			"bufferView":28,
			"componentType":5126,
			"count":152,
			"max":[
				3.0238494873046875,
				3.9556798934936523,
				9.054933547973633
			],
			"min":[
				-7.812211036682129,
				1.393580675125122,
				-4.1787109375
			],
			"type":"VEC3"
		},
		{
			"bufferView":29,
			"componentType":5126,
			"count":152,
			"type":"VEC3"
		},
		{
			"bufferView":30,
			"componentType":5126,
			"count":152,
			"type":"VEC2"
		},
		{
			"bufferView":31,
			"componentType":5123,
			"count":240,
			"type":"SCALAR"
		}
	],
	"bufferViews":[
		{
			"buffer":0,
			"byteLength":888,
			"byteOffset":0,
			"target":34962
		},
		{
			"buffer":0,
			"byteLength":888,
			"byteOffset":888,
			"target":34962
		},
		{
			"buffer":0,
			"byteLength":592,
			"byteOffset":1776,
			"target":34962
		},
		{
			"buffer":0,
			"byteLength":252,
			"byteOffset":2368,
			"target":34963
		},
		{
			"buffer":0,
			"byteLength":144,
			"byteOffset":2620,
			"target":34962
		},
		{
			"buffer":0,
			"byteLength":144,
			"byteOffset":2764,
			"target":34962
		},
		{
			"buffer":0,
			"byteLength":96,
			"byteOffset":2908,
			"target":34962
		},
		{
			"buffer":0,
			"byteLength":24,
			"byteOffset":3004,
			"target":34963
		},
		{
			"buffer":0,
			"byteLength":1620,
			"byteOffset":3028,
			"target":34962
		},
		{
			"buffer":0,
			"byteLength":1620,
			"byteOffset":4648,
			"target":34962
		},
		{
			"buffer":0,
			"byteLength":1080,
			"byteOffset":6268,
			"target":34962
		},
		{
			"buffer":0,
			"byteLength":426,
			"byteOffset":7348,
			"target":34963
		},
		{
			"buffer":0,
			"byteLength":45900,
			"byteOffset":7776,
			"target":34962
		},
		{
			"buffer":0,
			"byteLength":45900,
			"byteOffset":53676,
			"target":34962
		},
		{
			"buffer":0,
			"byteLength":30600,
			"byteOffset":99576,
			"target":34962
		},
		{
			"buffer":0,
			"byteLength":10158,
			"byteOffset":130176,
			"target":34963
		},
		{
			"buffer":0,
			"byteLength":6804,
			"byteOffset":140336,
			"target":34962
		},
		{
			"buffer":0,
			"byteLength":6804,
			"byteOffset":147140,
			"target":34962
		},
		{
			"buffer":0,
			"byteLength":4536,
			"byteOffset":153944,
			"target":34962
		},
		{
			"buffer":0,
			"byteLength":2016,
			"byteOffset":158480,
			"target":34963
		},
		{
			"buffer":0,
			"byteLength":984,
			"byteOffset":160496,
			"target":34962
		},
		{
			"buffer":0,
			"byteLength":984,
			"byteOffset":161480,
			"target":34962
		},
		{
			"buffer":0,
			"byteLength":656,
			"byteOffset":162464,
			"target":34962
		},
		{
			"buffer":0,
			"byteLength":240,
			"byteOffset":163120,
			"target":34963
		},
		{
			"buffer":0,
			"byteLength":3084,
			"byteOffset":163360,
			"target":34962
		},
		{
			"buffer":0,
			"byteLength":3084,
			"byteOffset":166444,
			"target":34962
		},
		{
			"buffer":0,
			"byteLength":2056,
			"byteOffset":169528,
			"target":34962
		},
		{
			"buffer":0,
			"byteLength":888,
			"byteOffset":171584,
			"target":34963
		},
		{
			"buffer":0,
			"byteLength":1824,
			"byteOffset":172472,
			"target":34962
		},
		{
			"buffer":0,
			"byteLength":1824,
			"byteOffset":174296,
			"target":34962
		},
		{
			"buffer":0,
			"byteLength":1216,
			"byteOffset":176120,
			"target":34962
		},
		{
			"buffer":0,
			"byteLength":480,
			"byteOffset":177336,
			"target":34963
		}
	],
	"buffers":[
		{
			"byteLength":177816,
			"uri":"cell_x-4_z1_render.bin"
		}
	]
}
