{
	"asset":{
		"generator":"Khronos glTF Blender I/O v4.5.51",
		"version":"2.0"
	},
	"scene":0,
	"scenes":[
		{
			"name":"Scene",
			"nodes":[
				0
			]
		}
	],
	"nodes":[
		{
			"mesh":0,
			"name":"cell_x-2_z-1",
			"rotation":[
				0.007765443529933691,
				0.7913356423377991,
				-0.010053287260234356,
				0.6112499833106995
			],
			"scale":[
				3.5055172443389893,
				3.50551700592041,
				3.50551700592041
			],
			"translation":[
				-51.412105560302734,
				-5.886862754821777,
				-10.589025497436523
			]
		}
	],
	"materials":[
		{
			"name":"stone_v0",
			"pbrMetallicRoughness":{
				"baseColorFactor":[
					0.32314321398735046,
					0.35153260827064514,
					0.3613067865371704,
					1
				],
				"metallicFactor":0,
				"roughnessFactor":0.9200000166893005
			}
		},
		{
			"name":"_defaultMat",
			"pbrMetallicRoughness":{
				"baseColorFactor":[
					0.4564110338687897,
					0.4564110338687897,
					0.4125426113605499,
					1
				],
				"metallicFactor":0,
				"roughnessFactor":0.9200000166893005
			}
		},
		{
			"name":"stone_v3",
			"pbrMetallicRoughness":{
				"baseColorFactor":[
					0.20863686501979828,
					0.2462013214826584,
					0.2622506618499756,
					1
				],
				"metallicFactor":0,
				"roughnessFactor":0.9200000166893005
			}
		},
		{
			"name":"woodBark",
			"pbrMetallicRoughness":{
				"baseColorFactor":[
					0.2015562504529953,
					0.08437620848417282,
					0.02955683507025242,
					1
				],
				"metallicFactor":0,
				"roughnessFactor":0.9200000166893005
			}
		},
		{
			"name":"leafsGreen",
			"pbrMetallicRoughness":{
				"baseColorFactor":[
					0.11443537473678589,
					0.23074005544185638,
					0.06301001459360123,
					1
				],
				"metallicFactor":0,
				"roughnessFactor":0.9200000166893005
			}
		},
		{
			"name":"leafsDark",
			"pbrMetallicRoughness":{
				"baseColorFactor":[
					0.04817182570695877,
					0.11443537473678589,
					0.03310476616024971,
					1
				],
				"metallicFactor":0,
				"roughnessFactor":0.9200000166893005
			}
		},
		{
			"name":"woodBarkDark",
			"pbrMetallicRoughness":{
				"baseColorFactor":[
					0.11443537473678589,
					0.04666508734226227,
					0.016807375475764275,
					1
				],
				"metallicFactor":0,
				"roughnessFactor":0.9200000166893005
			}
		},
		{
			"name":"grass",
			"pbrMetallicRoughness":{
				"baseColorFactor":[
					0.15592646598815918,
					0.2961382567882538,
					0.0802198201417923,
					1
				],
				"metallicFactor":0,
				"roughnessFactor":0.9200000166893005
			}
		},
		{
			"name":"woodInner",
			"pbrMetallicRoughness":{
				"baseColorFactor":[
					0.577580451965332,
					0.423267662525177,
					0.23839756846427917,
					1
				],
				"metallicFactor":0,
				"roughnessFactor":0.9200000166893005
			}
		},
		{
			"name":"colorPurple",
			"pbrMetallicRoughness":{
				"baseColorFactor":[
					0.19806931912899017,
					0.15592646598815918,
					0.3324515223503113,
					1
				],
				"metallicFactor":0,
				"roughnessFactor":0.9200000166893005
			}
		},
		{
			"name":"colorWhite",
			"pbrMetallicRoughness":{
				"baseColorFactor":[
					0.68668532371521,
					0.6583748459815979,
					0.577580451965332,
					1
				],
				"metallicFactor":0,
				"roughnessFactor":0.9200000166893005
			}
		},
		{
			"name":"dirt_v3",
			"pbrMetallicRoughness":{
				"baseColorFactor":[
					0.20863686501979828,
					0.15896083414554596,
					0.09084171056747437,
					1
				],
				"metallicFactor":0,
				"roughnessFactor":0.9200000166893005
			}
		},
		{
			"name":"colorRed",
			"pbrMetallicRoughness":{
				"baseColorFactor":[
					0.34191441535949707,
					0.08437620848417282,
					0.05951123684644699,
					1
				],
				"metallicFactor":0,
				"roughnessFactor":0.9200000166893005
			}
		},
		{
			"name":"dirt_v0",
			"pbrMetallicRoughness":{
				"baseColorFactor":[
					0.32314321398735046,
					0.24228112399578094,
					0.1384316086769104,
					1
				],
				"metallicFactor":0,
				"roughnessFactor":0.9200000166893005
			}
		},
		{
			"name":"stone_v1",
			"pbrMetallicRoughness":{
				"baseColorFactor":[
					0.2541520893573761,
					0.28744083642959595,
					0.3049873113632202,
					1
				],
				"metallicFactor":0,
				"roughnessFactor":0.9200000166893005
			}
		}
	],
	"meshes":[
		{
			"name":"Mesh stone_tallB.008",
			"primitives":[
				{
					"attributes":{
						"POSITION":0,
						"NORMAL":1,
						"TEXCOORD_0":2,
						"COLOR_0":3
					},
					"indices":4,
					"material":0
				},
				{
					"attributes":{
						"POSITION":5,
						"NORMAL":6,
						"TEXCOORD_0":7,
						"COLOR_0":8
					},
					"indices":9,
					"material":1
				},
				{
					"attributes":{
						"POSITION":10,
						"NORMAL":11,
						"TEXCOORD_0":12,
						"COLOR_0":13
					},
					"indices":14,
					"material":2
				},
				{
					"attributes":{
						"POSITION":15,
						"NORMAL":16,
						"TEXCOORD_0":17,
						"COLOR_0":18
					},
					"indices":19,
					"material":3
				},
				{
					"attributes":{
						"POSITION":20,
						"NORMAL":21,
						"TEXCOORD_0":22,
						"COLOR_0":23
					},
					"indices":24,
					"material":4
				},
				{
					"attributes":{
						"POSITION":25,
						"NORMAL":26,
						"TEXCOORD_0":27,
						"COLOR_0":28
					},
					"indices":29,
					"material":5
				},
				{
					"attributes":{
						"POSITION":30,
						"NORMAL":31,
						"TEXCOORD_0":32,
						"COLOR_0":33
					},
					"indices":34,
					"material":6
				},
				{
					"attributes":{
						"POSITION":35,
						"NORMAL":36,
						"TEXCOORD_0":37,
						"COLOR_0":38
					},
					"indices":39,
					"material":7
				},
				{
					"attributes":{
						"POSITION":40,
						"NORMAL":41,
						"TEXCOORD_0":42,
						"COLOR_0":43
					},
					"indices":44,
					"material":8
				},
				{
					"attributes":{
						"POSITION":45,
						"NORMAL":46,
						"TEXCOORD_0":47,
						"COLOR_0":48
					},
					"indices":49,
					"material":9
				},
				{
					"attributes":{
						"POSITION":50,
						"NORMAL":51,
						"TEXCOORD_0":52,
						"COLOR_0":53
					},
					"indices":54,
					"material":10
				},
				{
					"attributes":{
						"POSITION":55,
						"NORMAL":56,
						"TEXCOORD_0":57,
						"COLOR_0":58
					},
					"indices":59,
					"material":11
				},
				{
					"attributes":{
						"POSITION":60,
						"NORMAL":61,
						"TEXCOORD_0":62,
						"COLOR_0":63
					},
					"indices":64,
					"material":12
				},
				{
					"attributes":{
						"POSITION":65,
						"NORMAL":66,
						"TEXCOORD_0":67,
						"COLOR_0":68
					},
					"indices":69,
					"material":13
				},
				{
					"attributes":{
						"POSITION":70,
						"NORMAL":71,
						"TEXCOORD_0":72,
						"COLOR_0":73
					},
					"indices":74,
					"material":14
				}
			]
		}
	],
	"accessors":[
		{
			"bufferView":0,
			"componentType":5126,
			"count":250,
			"max":[
				0.3823942244052887,
				0.8837795853614807,
				0.3850187063217163
			],
			"min":[
				-0.3823942244052887,
				-5.414335713407566e-16,
				-0.3850187063217163
			],
			"type":"VEC3"
		},
		{
			"bufferView":1,
			"componentType":5126,
			"count":250,
			"type":"VEC3"
		},
		{
			"bufferView":2,
			"componentType":5126,
			"count":250,
			"type":"VEC2"
		},
		{
			"bufferView":3,
			"componentType":5123,
			"count":250,
			"normalized":true,
			"type":"VEC4"
		},
		{
			"bufferView":4,
			"componentType":5123,
			"count":456,
			"type":"SCALAR"
		},
		{
			"bufferView":5,
			"componentType":5126,
			"count":291,
			"max":[
				8.813199043273926,
				2.163088798522949,
				4.800009250640869
			],
			"min":[
				-1.3270372152328491,
				-5.414335713407566e-16,
				-6.424065589904785
			],
			"type":"VEC3"
		},
		{
			"bufferView":6,
			"componentType":5126,
			"count":291,
			"type":"VEC3"
		},
		{
			"bufferView":7,
			"componentType":5126,
			"count":291,
			"type":"VEC2"
		},
		{
			"bufferView":8,
			"componentType":5123,
			"count":291,
			"normalized":true,
			"type":"VEC4"
		},
		{
			"bufferView":9,
			"componentType":5123,
			"count":294,
			"type":"SCALAR"
		},
		{
			"bufferView":10,
			"componentType":5126,
			"count":288,
			"max":[
				6.8360066413879395,
				1.4442753791809082,
				1.5761568546295166
			],
			"min":[
				0.5299246311187744,
				-0.12630897760391235,
				-4.729311466217041
			],
			"type":"VEC3"
		},
		{
			"bufferView":11,
			"componentType":5126,
			"count":288,
			"type":"VEC3"
		},
		{
			"bufferView":12,
			"componentType":5126,
			"count":288,
			"type":"VEC2"
		},
		{
			"bufferView":13,
			"componentType":5123,
			"count":288,
			"normalized":true,
			"type":"VEC4"
		},
		{
			"bufferView":14,
			"componentType":5123,
			"count":468,
			"type":"SCALAR"
		},
		{
			"bufferView":15,
			"componentType":5126,
			"count":8222,
			"max":[
				9.172510147094727,
				2.4961133003234863,
				4.299304485321045
			],
			"min":[
				-2.5083374977111816,
				0.06423849612474442,
				-8.144615173339844
			],
			"type":"VEC3"
		},
		{
			"bufferView":16,
			"componentType":5126,
			"count":8222,
			"type":"VEC3"
		},
		{
			"bufferView":17,
			"componentType":5126,
			"count":8222,
			"type":"VEC2"
		},
		{
			"bufferView":18,
			"componentType":5123,
			"count":8222,
			"normalized":true,
			"type":"VEC4"
		},
		{
			"bufferView":19,
			"componentType":5123,
			"count":12912,
			"type":"SCALAR"
		},
		{
			"bufferView":20,
			"componentType":5126,
			"count":12408,
			"max":[
				9.786412239074707,
				3.19761061668396,
				4.457824230194092
			],
			"min":[
				-2.746863842010498,
				0.132766455411911,
				-8.366626739501953
			],
			"type":"VEC3"
		},
		{
			"bufferView":21,
			"componentType":5126,
			"count":12408,
			"type":"VEC3"
		},
		{
			"bufferView":22,
			"componentType":5126,
			"count":12408,
			"type":"VEC2"
		},
		{
			"bufferView":23,
			"componentType":5123,
			"count":12408,
			"normalized":true,
			"type":"VEC4"
		},
		{
			"bufferView":24,
			"componentType":5123,
			"count":19464,
			"type":"SCALAR"
		},
		{
			"bufferView":25,
			"componentType":5126,
			"count":5860,
			"max":[
				8.348199844360352,
				3.2723231315612793,
				5.329883098602295
			],
			"min":[
				-2.149393081665039,
				0.25536417961120605,
				-8.520477294921875
			],
			"type":"VEC3"
		},
		{
			"bufferView":26,
			"componentType":5126,
			"count":5860,
			"type":"VEC3"
		},
		{
			"bufferView":27,
			"componentType":5126,
			"count":5860,
			"type":"VEC2"
		},
		{
			"bufferView":28,
			"componentType":5123,
			"count":5860,
			"normalized":true,
			"type":"VEC4"
		},
		{
			"bufferView":29,
			"componentType":5123,
			"count":8784,
			"type":"SCALAR"
		},
		{
			"bufferView":30,
			"componentType":5126,
			"count":3672,
			"max":[
				8.253497123718262,
				2.365895986557007,
				5.205611228942871
			],
			"min":[
				-2.011568784713745,
				0.032071553170681,
				-8.230045318603516
			],
			"type":"VEC3"
		},
		{
			"bufferView":31,
			"componentType":5126,
			"count":3672,
			"type":"VEC3"
		},
		{
			"bufferView":32,
			"componentType":5126,
			"count":3672,
			"type":"VEC2"
		},
		{
			"bufferView":33,
			"componentType":5123,
			"count":3672,
			"normalized":true,
			"type":"VEC4"
		},
		{
			"bufferView":34,
			"componentType":5123,
			"count":5694,
			"type":"SCALAR"
		},
		{
			"bufferView":35,
			"componentType":5126,
			"count":51494,
			"max":[
				9.745135307312012,
				1.7568680047988892,
				5.076201915740967
			],
			"min":[
				-3.054079055786133,
				0.00959325022995472,
				-8.612577438354492
			],
			"type":"VEC3"
		},
		{
			"bufferView":36,
			"componentType":5126,
			"count":51494,
			"type":"VEC3"
		},
		{
			"bufferView":37,
			"componentType":5126,
			"count":51494,
			"type":"VEC2"
		},
		{
			"bufferView":38,
			"componentType":5123,
			"count":51494,
			"normalized":true,
			"type":"VEC4"
		},
		{
			"bufferView":39,
			"componentType":5123,
			"count":67677,
			"type":"SCALAR"
		},
		{
			"bufferView":40,
			"componentType":5126,
			"count":34,
			"max":[
				-1.4040476083755493,
				1.4835768938064575,
				1.20369553565979
			],
			"min":[
				-1.5929960012435913,
				1.4523847103118896,
				0.9999517202377319
			],
			"type":"VEC3"
		},
		{
			"bufferView":41,
			"componentType":5126,
			"count":34,
			"type":"VEC3"
		},
		{
			"bufferView":42,
			"componentType":5126,
			"count":34,
			"type":"VEC2"
		},
		{
			"bufferView":43,
			"componentType":5123,
			"count":34,
			"normalized":true,
			"type":"VEC4"
		},
		{
			"bufferView":44,
			"componentType":5123,
			"count":48,
			"type":"SCALAR"
		},
		{
			"bufferView":45,
			"componentType":5126,
			"count":134,
			"max":[
				8.257981300354004,
				1.258896827697754,
				-0.8874049186706543
			],
			"min":[
				7.79512357711792,
				1.0439741611480713,
				-4.558252811431885
			],
			"type":"VEC3"
		},
		{
			"bufferView":46,
			"componentType":5126,
			"count":134,
			"type":"VEC3"
		},
		{
			"bufferView":47,
			"componentType":5126,
			"count":134,
			"type":"VEC2"
		},
		{
			"bufferView":48,
			"componentType":5123,
			"count":134,
			"normalized":true,
			"type":"VEC4"
		},
		{
			"bufferView":49,
			"componentType":5123,
			"count":210,
			"type":"SCALAR"
		},
		{
			"bufferView":50,
			"componentType":5126,
			"count":12,
			"max":[
				8.226097106933594,
				1.2348750829696655,
				-0.9142389297485352
			],
			"min":[
				7.8227858543396,
				1.0640993118286133,
				-4.525272846221924
			],
			"type":"VEC3"
		},
		{
			"bufferView":51,
			"componentType":5126,
			"count":12,
			"type":"VEC3"
		},
		{
			"bufferView":52,
			"componentType":5126,
			"count":12,
			"type":"VEC2"
		},
		{
			"bufferView":53,
			"componentType":5123,
			"count":12,
			"normalized":true,
			"type":"VEC4"
		},
		{
			"bufferView":54,
			"componentType":5123,
			"count":24,
			"type":"SCALAR"
		},
		{
			"bufferView":55,
			"componentType":5126,
			"count":52,
			"max":[
				7.3744635581970215,
				1.4072660207748413,
				4.548460483551025
			],
			"min":[
				0.17104531824588776,
				0.23569391667842865,
				-3.4254343509674072
			],
			"type":"VEC3"
		},
		{
			"bufferView":56,
			"componentType":5126,
			"count":52,
			"type":"VEC3"
		},
		{
			"bufferView":57,
			"componentType":5126,
			"count":52,
			"type":"VEC2"
		},
		{
			"bufferView":58,
			"componentType":5123,
			"count":52,
			"normalized":true,
			"type":"VEC4"
		},
		{
			"bufferView":59,
			"componentType":5123,
			"count":78,
			"type":"SCALAR"
		},
		{
			"bufferView":60,
			"componentType":5126,
			"count":34,
			"max":[
				6.8456878662109375,
				1.0432262420654297,
				-2.929807662963867
			],
			"min":[
				6.687979221343994,
				0.9756528735160828,
				-3.0989110469818115
			],
			"type":"VEC3"
		},
		{
			"bufferView":61,
			"componentType":5126,
			"count":34,
			"type":"VEC3"
		},
		{
			"bufferView":62,
			"componentType":5126,
			"count":34,
			"type":"VEC2"
		},
		{
			"bufferView":63,
			"componentType":5123,
			"count":34,
			"normalized":true,
			"type":"VEC4"
		},
		{
			"bufferView":64,
			"componentType":5123,
			"count":48,
			"type":"SCALAR"
		},
		{
			"bufferView":65,
			"componentType":5126,
			"count":25,
			"max":[
				4.6135687828063965,
				0.7316325902938843,
				-1.722106695175171
			],
			"min":[
				4.1787614822387695,
				0.4942135512828827,
				-2.15681791305542
			],
			"type":"VEC3"
		},
		{
			"bufferView":66,
			"componentType":5126,
			"count":25,
			"type":"VEC3"
		},
		{
			"bufferView":67,
			"componentType":5126,
			"count":25,
			"type":"VEC2"
		},
		{
			"bufferView":68,
			"componentType":5123,
			"count":25,
			"normalized":true,
			"type":"VEC4"
		},
		{
			"bufferView":69,
			"componentType":5123,
			"count":39,
			"type":"SCALAR"
		},
		{
			"bufferView":70,
			"componentType":5126,
			"count":277,
			"max":[
				6.459249019622803,
				0.971882164478302,
				-0.05702555179595947
			],
			"min":[
				-0.7389659285545349,
				0.6048296689987183,
				-6.680941104888916
			],
			"type":"VEC3"
		},
		{
			"bufferView":71,
			"componentType":5126,
			"count":277,
			"type":"VEC3"
		},
		{
			"bufferView":72,
			"componentType":5126,
			"count":277,
			"type":"VEC2"
		},
		{
			"bufferView":73,
			"componentType":5123,
			"count":277,
			"normalized":true,
			"type":"VEC4"
		},
		{
			"bufferView":74,
			"componentType":5123,
			"count":432,
			"type":"SCALAR"
		}
	],
	"bufferViews":[
		{
			"buffer":0,
			"byteLength":3000,
			"byteOffset":0,
			"target":34962
		},
		{
			"buffer":0,
			"byteLength":3000,
			"byteOffset":3000,
			"target":34962
		},
		{
			"buffer":0,
			"byteLength":2000,
			"byteOffset":6000,
			"target":34962
		},
		{
			"buffer":0,
			"byteLength":2000,
			"byteOffset":8000,
			"target":34962
		},
		{
			"buffer":0,
			"byteLength":912,
			"byteOffset":10000,
			"target":34963
		},
		{
			"buffer":0,
			"byteLength":3492,
			"byteOffset":10912,
			"target":34962
		},
		{
			"buffer":0,
			"byteLength":3492,
			"byteOffset":14404,
			"target":34962
		},
		{
			"buffer":0,
			"byteLength":2328,
			"byteOffset":17896,
			"target":34962
		},
		{
			"buffer":0,
			"byteLength":2328,
			"byteOffset":20224,
			"target":34962
		},
		{
			"buffer":0,
			"byteLength":588,
			"byteOffset":22552,
			"target":34963
		},
		{
			"buffer":0,
			"byteLength":3456,
			"byteOffset":23140,
			"target":34962
		},
		{
			"buffer":0,
			"byteLength":3456,
			"byteOffset":26596,
			"target":34962
		},
		{
			"buffer":0,
			"byteLength":2304,
			"byteOffset":30052,
			"target":34962
		},
		{
			"buffer":0,
			"byteLength":2304,
			"byteOffset":32356,
			"target":34962
		},
		{
			"buffer":0,
			"byteLength":936,
			"byteOffset":34660,
			"target":34963
		},
		{
			"buffer":0,
			"byteLength":98664,
			"byteOffset":35596,
			"target":34962
		},
		{
			"buffer":0,
			"byteLength":98664,
			"byteOffset":134260,
			"target":34962
		},
		{
			"buffer":0,
			"byteLength":65776,
			"byteOffset":232924,
			"target":34962
		},
		{
			"buffer":0,
			"byteLength":65776,
			"byteOffset":298700,
			"target":34962
		},
		{
			"buffer":0,
			"byteLength":25824,
			"byteOffset":364476,
			"target":34963
		},
		{
			"buffer":0,
			"byteLength":148896,
			"byteOffset":390300,
			"target":34962
		},
		{
			"buffer":0,
			"byteLength":148896,
			"byteOffset":539196,
			"target":34962
		},
		{
			"buffer":0,
			"byteLength":99264,
			"byteOffset":688092,
			"target":34962
		},
		{
			"buffer":0,
			"byteLength":99264,
			"byteOffset":787356,
			"target":34962
		},
		{
			"buffer":0,
			"byteLength":38928,
			"byteOffset":886620,
			"target":34963
		},
		{
			"buffer":0,
			"byteLength":70320,
			"byteOffset":925548,
			"target":34962
		},
		{
			"buffer":0,
			"byteLength":70320,
			"byteOffset":995868,
			"target":34962
		},
		{
			"buffer":0,
			"byteLength":46880,
			"byteOffset":1066188,
			"target":34962
		},
		{
			"buffer":0,
			"byteLength":46880,
			"byteOffset":1113068,
			"target":34962
		},
		{
			"buffer":0,
			"byteLength":17568,
			"byteOffset":1159948,
			"target":34963
		},
		{
			"buffer":0,
			"byteLength":44064,
			"byteOffset":1177516,
			"target":34962
		},
		{
			"buffer":0,
			"byteLength":44064,
			"byteOffset":1221580,
			"target":34962
		},
		{
			"buffer":0,
			"byteLength":29376,
			"byteOffset":1265644,
			"target":34962
		},
		{
			"buffer":0,
			"byteLength":29376,
			"byteOffset":1295020,
			"target":34962
		},
		{
			"buffer":0,
			"byteLength":11388,
			"byteOffset":1324396,
			"target":34963
		},
		{
			"buffer":0,
			"byteLength":617928,
			"byteOffset":1335784,
			"target":34962
		},
		{
			"buffer":0,
			"byteLength":617928,
			"byteOffset":1953712,
			"target":34962
		},
		{
			"buffer":0,
			"byteLength":411952,
			"byteOffset":2571640,
			"target":34962
		},
		{
			"buffer":0,
			"byteLength":411952,
			"byteOffset":2983592,
			"target":34962
		},
		{
			"buffer":0,
			"byteLength":135354,
			"byteOffset":3395544,
			"target":34963
		},
		{
			"buffer":0,
			"byteLength":408,
			"byteOffset":3530900,
			"target":34962
		},
		{
			"buffer":0,
			"byteLength":408,
			"byteOffset":3531308,
			"target":34962
		},
		{
			"buffer":0,
			"byteLength":272,
			"byteOffset":3531716,
			"target":34962
		},
		{
			"buffer":0,
			"byteLength":272,
			"byteOffset":3531988,
			"target":34962
		},
		{
			"buffer":0,
			"byteLength":96,
			"byteOffset":3532260,
			"target":34963
		},
		{
			"buffer":0,
			"byteLength":1608,
			"byteOffset":3532356,
			"target":34962
		},
		{
			"buffer":0,
			"byteLength":1608,
			"byteOffset":3533964,
			"target":34962
		},
		{
			"buffer":0,
			"byteLength":1072,
			"byteOffset":3535572,
			"target":34962
		},
		{
			"buffer":0,
			"byteLength":1072,
			"byteOffset":3536644,
			"target":34962
		},
		{
			"buffer":0,
			"byteLength":420,
			"byteOffset":3537716,
			"target":34963
		},
		{
			"buffer":0,
			"byteLength":144,
			"byteOffset":3538136,
			"target":34962
		},
		{
			"buffer":0,
			"byteLength":144,
			"byteOffset":3538280,
			"target":34962
		},
		{
			"buffer":0,
			"byteLength":96,
			"byteOffset":3538424,
			"target":34962
		},
		{
			"buffer":0,
			"byteLength":96,
			"byteOffset":3538520,
			"target":34962
		},
		{
			"buffer":0,
			"byteLength":48,
			"byteOffset":3538616,
			"target":34963
		},
		{
			"buffer":0,
			"byteLength":624,
			"byteOffset":3538664,
			"target":34962
		},
		{
			"buffer":0,
			"byteLength":624,
			"byteOffset":3539288,
			"target":34962
		},
		{
			"buffer":0,
			"byteLength":416,
			"byteOffset":3539912,
			"target":34962
		},
		{
			"buffer":0,
			"byteLength":416,
			"byteOffset":3540328,
			"target":34962
		},
		{
			"buffer":0,
			"byteLength":156,
			"byteOffset":3540744,
			"target":34963
		},
		{
			"buffer":0,
			"byteLength":408,
			"byteOffset":3540900,
			"target":34962
		},
		{
			"buffer":0,
			"byteLength":408,
			"byteOffset":3541308,
			"target":34962
		},
		{
			"buffer":0,
			"byteLength":272,
			"byteOffset":3541716,
			"target":34962
		},
		{
			"buffer":0,
			"byteLength":272,
			"byteOffset":3541988,
			"target":34962
		},
		{
			"buffer":0,
			"byteLength":96,
			"byteOffset":3542260,
			"target":34963
		},
		{
			"buffer":0,
			"byteLength":300,
			"byteOffset":3542356,
			"target":34962
		},
		{
			"buffer":0,
			"byteLength":300,
			"byteOffset":3542656,
			"target":34962
		},
		{
			"buffer":0,
			"byteLength":200,
			"byteOffset":3542956,
			"target":34962
		},
		{
			"buffer":0,
			"byteLength":200,
			"byteOffset":3543156,
			"target":34962
		},
		{
			"buffer":0,
			"byteLength":78,
			"byteOffset":3543356,
			"target":34963
		},
		{
			"buffer":0,
			"byteLength":3324,
			"byteOffset":3543436,
			"target":34962
		},
		{
			"buffer":0,
			"byteLength":3324,
			"byteOffset":3546760,
			"target":34962
		},
		{
			"buffer":0,
			"byteLength":2216,
			"byteOffset":3550084,
			"target":34962
		},
		{
			"buffer":0,
			"byteLength":2216,
			"byteOffset":3552300,
			"target":34962
		},
		{
			"buffer":0,
			"byteLength":864,
			"byteOffset":3554516,
			"target":34963
		}
	],
	"buffers":[
		{
			"byteLength":3555380,
			"uri":"cell_x-2_z-1_render.bin"
		}
	]
}
