{
	"asset":{
		"generator":"Khronos glTF Blender I/O v4.5.51",
		"version":"2.0"
	},
	"scene":0,
	"scenes":[
		{
			"name":"Scene",
			"nodes":[
				0
			]
		}
	],
	"nodes":[
		{
			"mesh":0,
			"name":"cell_x2_z-2",
			"rotation":[
				-0.04023107513785362,
				-0.5035829544067383,
				-0.02348431386053562,
				0.8626900911331177
			],
			"scale":[
				2.9495491981506348,
				2.9495491981506348,
				2.9495491981506348
			],
			"translation":[
				114.16658782958984,
				0.11188695579767227,
				-72.1872787475586
			]
		}
	],
	"materials":[
		{
			"name":"stone_v1",
			"pbrMetallicRoughness":{
				"baseColorFactor":[
					0.2541520893573761,
					0.28744083642959595,
					0.3049873113632202,
					1
				],
				"metallicFactor":0,
				"roughnessFactor":0.9200000166893005
			}
		},
		{
			"name":"stone_v3",
			"pbrMetallicRoughness":{
				"baseColorFactor":[
					0.20863686501979828,
					0.2462013214826584,
					0.2622506618499756,
					1
				],
				"metallicFactor":0,
				"roughnessFactor":0.9200000166893005
			}
		},
		{
			"name":"stone_v2",
			"pbrMetallicRoughness":{
				"baseColorFactor":[
					0.38132601976394653,
					0.38132601976394653,
					0.3324515223503113,
					1
				],
				"metallicFactor":0,
				"roughnessFactor":0.9200000166893005
			}
		},
		{
			"name":"grass",
			"pbrMetallicRoughness":{
				"baseColorFactor":[
					0.15592646598815918,
					0.2961382567882538,
					0.0802198201417923,
					1
				],
				"metallicFactor":0,
				"roughnessFactor":0.9200000166893005
			}
		},
		{
			"name":"dirt_v3",
			"pbrMetallicRoughness":{
				"baseColorFactor":[
					0.20863686501979828,
					0.15896083414554596,
					0.09084171056747437,
					1
				],
				"metallicFactor":0,
				"roughnessFactor":0.9200000166893005
			}
		},
		{
			"name":"_defaultMat",
			"pbrMetallicRoughness":{
				"baseColorFactor":[
					0.4564110338687897,
					0.4564110338687897,
					0.4125426113605499,
					1
				],
				"metallicFactor":0,
				"roughnessFactor":0.9200000166893005
			}
		},
		{
			"name":"dirt_v0",
			"pbrMetallicRoughness":{
				"baseColorFactor":[
					0.32314321398735046,
					0.24228112399578094,
					0.1384316086769104,
					1
				],
				"metallicFactor":0,
				"roughnessFactor":0.9200000166893005
			}
		},
		{
			"name":"stone_v0",
			"pbrMetallicRoughness":{
				"baseColorFactor":[
					0.32314321398735046,
					0.35153260827064514,
					0.3613067865371704,
					1
				],
				"metallicFactor":0,
				"roughnessFactor":0.9200000166893005
			}
		},
		{
			"name":"woodBarkDark",
			"pbrMetallicRoughness":{
				"baseColorFactor":[
					0.11443537473678589,
					0.04666508734226227,
					0.016807375475764275,
					1
				],
				"metallicFactor":0,
				"roughnessFactor":0.9200000166893005
			}
		},
		{
			"name":"leafsDark",
			"pbrMetallicRoughness":{
				"baseColorFactor":[
					0.04817182570695877,
					0.11443537473678589,
					0.03310476616024971,
					1
				],
				"metallicFactor":0,
				"roughnessFactor":0.9200000166893005
			}
		},
		{
			"name":"woodBark",
			"pbrMetallicRoughness":{
				"baseColorFactor":[
					0.2015562504529953,
					0.08437620848417282,
					0.02955683507025242,
					1
				],
				"metallicFactor":0,
				"roughnessFactor":0.9200000166893005
			}
		},
		{
			"name":"woodInner",
			"pbrMetallicRoughness":{
				"baseColorFactor":[
					0.577580451965332,
					0.423267662525177,
					0.23839756846427917,
					1
				],
				"metallicFactor":0,
				"roughnessFactor":0.9200000166893005
			}
		},
		{
			"name":"leafsGreen",
			"pbrMetallicRoughness":{
				"baseColorFactor":[
					0.11443537473678589,
					0.23074005544185638,
					0.06301001459360123,
					1
				],
				"metallicFactor":0,
				"roughnessFactor":0.9200000166893005
			}
		},
		{
			"name":"colorPurple",
			"pbrMetallicRoughness":{
				"baseColorFactor":[
					0.19806931912899017,
					0.15592646598815918,
					0.3324515223503113,
					1
				],
				"metallicFactor":0,
				"roughnessFactor":0.9200000166893005
			}
		},
		{
			"name":"colorWhite",
			"pbrMetallicRoughness":{
				"baseColorFactor":[
					0.68668532371521,
					0.6583748459815979,
					0.577580451965332,
					1
				],
				"metallicFactor":0,
				"roughnessFactor":0.9200000166893005
			}
		},
		{
			"name":"colorTan",
			"pbrMetallicRoughness":{
				"baseColorFactor":[
					0.5271151065826416,
					0.3762621283531189,
					0.20863686501979828,
					1
				],
				"metallicFactor":0,
				"roughnessFactor":0.9200000166893005
			}
		},
		{
			"name":"colorRed",
			"pbrMetallicRoughness":{
				"baseColorFactor":[
					0.34191441535949707,
					0.08437620848417282,
					0.05951123684644699,
					1
				],
				"metallicFactor":0,
				"roughnessFactor":0.9200000166893005
			}
		},
		{
			"name":"dirt_v1",
			"pbrMetallicRoughness":{
				"baseColorFactor":[
					0.2581828534603119,
					0.1946178376674652,
					0.1119324266910553,
					1
				],
				"metallicFactor":0,
				"roughnessFactor":0.9200000166893005
			}
		}
	],
	"meshes":[
		{
			"name":"Mesh stone_smallTopA.043",
			"primitives":[
				{
					"attributes":{
						"POSITION":0,
						"NORMAL":1,
						"TEXCOORD_0":2
					},
					"indices":3,
					"material":0
				},
				{
					"attributes":{
						"POSITION":4,
						"NORMAL":5,
						"TEXCOORD_0":6
					},
					"indices":7,
					"material":1
				},
				{
					"attributes":{
						"POSITION":8,
						"NORMAL":9,
						"TEXCOORD_0":10
					},
					"indices":11,
					"material":2
				},
				{
					"attributes":{
						"POSITION":12,
						"NORMAL":13,
						"TEXCOORD_0":14
					},
					"indices":15,
					"material":3
				},
				{
					"attributes":{
						"POSITION":16,
						"NORMAL":17,
						"TEXCOORD_0":18
					},
					"indices":19,
					"material":4
				},
				{
					"attributes":{
						"POSITION":20,
						"NORMAL":21,
						"TEXCOORD_0":22
					},
					"indices":23,
					"material":5
				},
				{
					"attributes":{
						"POSITION":24,
						"NORMAL":25,
						"TEXCOORD_0":26
					},
					"indices":27,
					"material":6
				},
				{
					"attributes":{
						"POSITION":28,
						"NORMAL":29,
						"TEXCOORD_0":30
					},
					"indices":31,
					"material":7
				},
				{
					"attributes":{
						"POSITION":32,
						"NORMAL":33,
						"TEXCOORD_0":34
					},
					"indices":35,
					"material":8
				},
				{
					"attributes":{
						"POSITION":36,
						"NORMAL":37,
						"TEXCOORD_0":38
					},
					"indices":39,
					"material":9
				},
				{
					"attributes":{
						"POSITION":40,
						"NORMAL":41,
						"TEXCOORD_0":42
					},
					"indices":43,
					"material":10
				},
				{
					"attributes":{
						"POSITION":44,
						"NORMAL":45,
						"TEXCOORD_0":46
					},
					"indices":47,
					"material":11
				},
				{
					"attributes":{
						"POSITION":48,
						"NORMAL":49,
						"TEXCOORD_0":50
					},
					"indices":51,
					"material":12
				},
				{
					"attributes":{
						"POSITION":52,
						"NORMAL":53,
						"TEXCOORD_0":54
					},
					"indices":55,
					"material":13
				},
				{
					"attributes":{
						"POSITION":56,
						"NORMAL":57,
						"TEXCOORD_0":58
					},
					"indices":59,
					"material":14
				},
				{
					"attributes":{
						"POSITION":60,
						"NORMAL":61,
						"TEXCOORD_0":62
					},
					"indices":63,
					"material":15
				},
				{
					"attributes":{
						"POSITION":64,
						"NORMAL":65,
						"TEXCOORD_0":66
					},
					"indices":67,
					"material":16
				},
				{
					"attributes":{
						"POSITION":68,
						"NORMAL":69,
						"TEXCOORD_0":70
					},
					"indices":71,
					"material":17
				}
			]
		}
	],
	"accessors":[
		{
			"bufferView":0,
			"componentType":5126,
			"count":538,
			"max":[
				0.24386711418628693,
				0.9924523830413818,
				8.356797218322754
			],
			"min":[
				-7.929642677307129,
				-1.2398486137390137,
				-3.2502732276916504
			],
			"type":"VEC3"
		},
		{
			"bufferView":1,
			"componentType":5126,
			"count":538,
			"type":"VEC3"
		},
		{
			"bufferView":2,
			"componentType":5126,
			"count":538,
			"type":"VEC2"
		},
		{
			"bufferView":3,
			"componentType":5123,
			"count":876,
			"type":"SCALAR"
		},
		{
			"bufferView":4,
			"componentType":5126,
			"count":568,
			"max":[
				4.5218658447265625,
				0.696796178817749,
				10.603765487670898
			],
			"min":[
				-1.830678105354309,
				-1.339574933052063,
				0.09904444217681885
			],
			"type":"VEC3"
		},
		{
			"bufferView":5,
			"componentType":5126,
			"count":568,
			"type":"VEC3"
		},
		{
			"bufferView":6,
			"componentType":5126,
			"count":568,
			"type":"VEC2"
		},
		{
			"bufferView":7,
			"componentType":5123,
			"count":912,
			"type":"SCALAR"
		},
		{
			"bufferView":8,
			"componentType":5126,
			"count":290,
			"max":[
				3.1886746883392334,
				-1.0436509847640991,
				12.041792869567871
			],
			"min":[
				-7.673499584197998,
				-2.0087015628814697,
				8.086601257324219
			],
			"type":"VEC3"
		},
		{
			"bufferView":9,
			"componentType":5126,
			"count":290,
			"type":"VEC3"
		},
		{
			"bufferView":10,
			"componentType":5126,
			"count":290,
			"type":"VEC2"
		},
		{
			"bufferView":11,
			"componentType":5123,
			"count":456,
			"type":"SCALAR"
		},
		{
			"bufferView":12,
			"componentType":5126,
			"count":40440,
			"max":[
				9.92791748046875,
				0.8144857883453369,
				14.70665168762207
			],
			"min":[
				-7.2648210525512695,
				-2.3461363315582275,
				-2.113297700881958
			],
			"type":"VEC3"
		},
		{
			"bufferView":13,
			"componentType":5126,
			"count":40440,
			"type":"VEC3"
		},
		{
			"bufferView":14,
			"componentType":5126,
			"count":40440,
			"type":"VEC2"
		},
		{
			"bufferView":15,
			"componentType":5123,
			"count":53445,
			"type":"SCALAR"
		},
		{
			"bufferView":16,
			"componentType":5126,
			"count":98,
			"max":[
				-2.1303231716156006,
				0.4745023846626282,
				5.951738357543945
			],
			"min":[
				-6.4986066818237305,
				-0.557763397693634,
				5.31175422668457
			],
			"type":"VEC3"
		},
		{
			"bufferView":17,
			"componentType":5126,
			"count":98,
			"type":"VEC3"
		},
		{
			"bufferView":18,
			"componentType":5126,
			"count":98,
			"type":"VEC2"
		},
		{
			"bufferView":19,
			"componentType":5123,
			"count":156,
			"type":"SCALAR"
		},
		{
			"bufferView":20,
			"componentType":5126,
			"count":930,
			"max":[
				10.125399589538574,
				0.5400274991989136,
				11.435016632080078
			],
			"min":[
				-6.4986066818237305,
				-1.9844468832015991,
				3.618412733078003
			],
			"type":"VEC3"
		},
		{
			"bufferView":21,
			"componentType":5126,
			"count":930,
			"type":"VEC3"
		},
		{
			"bufferView":22,
			"componentType":5126,
			"count":930,
			"type":"VEC2"
		},
		{
			"bufferView":23,
			"componentType":5123,
			"count":996,
			"type":"SCALAR"
		},
		{
			"bufferView":24,
			"componentType":5126,
			"count":134,
			"max":[
				9.994391441345215,
				-0.39616668224334717,
				11.435016632080078
			],
			"min":[
				2.038626194000244,
				-1.9844468832015991,
				3.9542055130004883
			],
			"type":"VEC3"
		},
		{
			"bufferView":25,
			"componentType":5126,
			"count":134,
			"type":"VEC3"
		},
		{
			"bufferView":26,
			"componentType":5126,
			"count":134,
			"type":"VEC2"
		},
		{
			"bufferView":27,
			"componentType":5123,
			"count":195,
			"type":"SCALAR"
		},
		{
			"bufferView":28,
			"componentType":5126,
			"count":354,
			"max":[
				3.060763359069824,
				0.6903095245361328,
				9.228702545166016
			],
			"min":[
				-0.9301830530166626,
				-1.100277066230774,
				-2.0661158561706543
			],
			"type":"VEC3"
		},
		{
			"bufferView":29,
			"componentType":5126,
			"count":354,
			"type":"VEC3"
		},
		{
			"bufferView":30,
			"componentType":5126,
			"count":354,
			"type":"VEC2"
		},
		{
			"bufferView":31,
			"componentType":5123,
			"count":582,
			"type":"SCALAR"
		},
		{
			"bufferView":32,
			"componentType":5126,
			"count":1791,
			"max":[
				9.238432884216309,
				2.391883373260498,
				13.556177139282227
			],
			"min":[
				-6.1020989418029785,
				-2.1934845447540283,
				-1.1048367023468018
			],
			"type":"VEC3"
		},
		{
			"bufferView":33,
			"componentType":5126,
			"count":1791,
			"type":"VEC3"
		},
		{
			"bufferView":34,
			"componentType":5126,
			"count":1791,
			"type":"VEC2"
		},
		{
			"bufferView":35,
			"componentType":5123,
			"count":2670,
			"type":"SCALAR"
		},
		{
			"bufferView":36,
			"componentType":5126,
			"count":7069,
			"max":[
				9.496166229248047,
				2.726388454437256,
				13.839073181152344
			],
			"min":[
				-6.32953405380249,
				-1.7219722270965576,
				-1.4743412733078003
			],
			"type":"VEC3"
		},
		{
			"bufferView":37,
			"componentType":5126,
			"count":7069,
			"type":"VEC3"
		},
		{
			"bufferView":38,
			"componentType":5126,
			"count":7069,
			"type":"VEC2"
		},
		{
			"bufferView":39,
			"componentType":5123,
			"count":12384,
			"type":"SCALAR"
		},
		{
			"bufferView":40,
			"componentType":5126,
			"count":531,
			"max":[
				1.2824639081954956,
				0.24276357889175415,
				9.082399368286133
			],
			"min":[
				-4.611628532409668,
				-0.8744900226593018,
				0.25114578008651733
			],
			"type":"VEC3"
		},
		{
			"bufferView":41,
			"componentType":5126,
			"count":531,
			"type":"VEC3"
		},
		{
			"bufferView":42,
			"componentType":5126,
			"count":531,
			"type":"VEC2"
		},
		{
			"bufferView":43,
			"componentType":5123,
			"count":840,
			"type":"SCALAR"
		},
		{
			"bufferView":44,
			"componentType":5126,
			"count":34,
			"max":[
				-2.6331543922424316,
				-0.5964250564575195,
				9.018071174621582
			],
			"min":[
				-2.888369083404541,
				-0.6494392156600952,
				8.776802062988281
			],
			"type":"VEC3"
		},
		{
			"bufferView":45,
			"componentType":5126,
			"count":34,
			"type":"VEC3"
		},
		{
			"bufferView":46,
			"componentType":5126,
			"count":34,
			"type":"VEC2"
		},
		{
			"bufferView":47,
			"componentType":5123,
			"count":48,
			"type":"SCALAR"
		},
		{
			"bufferView":48,
			"componentType":5126,
			"count":1699,
			"max":[
				9.585710525512695,
				0.6075292229652405,
				13.942140579223633
			],
			"min":[
				-4.5931501388549805,
				-2.119964361190796,
				-2.051438331604004
			],
			"type":"VEC3"
		},
		{
			"bufferView":49,
			"componentType":5126,
			"count":1699,
			"type":"VEC3"
		},
		{
			"bufferView":50,
			"componentType":5126,
			"count":1699,
			"type":"VEC2"
		},
		{
			"bufferView":51,
			"componentType":5123,
			"count":3060,
			"type":"SCALAR"
		},
		{
			"bufferView":52,
			"componentType":5126,
			"count":246,
			"max":[
				4.318418025970459,
				0.6989025473594666,
				4.520393371582031
			],
			"min":[
				-1.1433885097503662,
				-0.10274102538824081,
				0.9638768434524536
			],
			"type":"VEC3"
		},
		{
			"bufferView":53,
			"componentType":5126,
			"count":246,
			"type":"VEC3"
		},
		{
			"bufferView":54,
			"componentType":5126,
			"count":246,
			"type":"VEC2"
		},
		{
			"bufferView":55,
			"componentType":5123,
			"count":420,
			"type":"SCALAR"
		},
		{
			"bufferView":56,
			"componentType":5126,
			"count":24,
			"max":[
				4.263098239898682,
				0.6539843678474426,
				4.467708110809326
			],
			"min":[
				-1.0874971151351929,
				-0.07765652239322662,
				1.0147781372070312
			],
			"type":"VEC3"
		},
		{
			"bufferView":57,
			"componentType":5126,
			"count":24,
			"type":"VEC3"
		},
		{
			"bufferView":58,
			"componentType":5126,
			"count":24,
			"type":"VEC2"
		},
		{
			"bufferView":59,
			"componentType":5123,
			"count":48,
			"type":"SCALAR"
		},
		{
			"bufferView":60,
			"componentType":5126,
			"count":100,
			"max":[
				-1.0860586166381836,
				0.6193315982818604,
				4.6189866065979
			],
			"min":[
				-1.5129716396331787,
				0.30668526887893677,
				4.187264442443848
			],
			"type":"VEC3"
		},
		{
			"bufferView":61,
			"componentType":5126,
			"count":100,
			"type":"VEC3"
		},
		{
			"bufferView":62,
			"componentType":5126,
			"count":100,
			"type":"VEC2"
		},
		{
			"bufferView":63,
			"componentType":5123,
			"count":144,
			"type":"SCALAR"
		},
		{
			"bufferView":64,
			"componentType":5126,
			"count":232,
			"max":[
				10.125399589538574,
				-0.1479438841342926,
				6.1326751708984375
			],
			"min":[
				5.340958118438721,
				-0.6666612029075623,
				3.618412733078003
			],
			"type":"VEC3"
		},
		{
			"bufferView":65,
			"componentType":5126,
			"count":232,
			"type":"VEC3"
		},
		{
			"bufferView":66,
			"componentType":5126,
			"count":232,
			"type":"VEC2"
		},
		{
			"bufferView":67,
			"componentType":5123,
			"count":336,
			"type":"SCALAR"
		},
		{
			"bufferView":68,
			"componentType":5126,
			"count":186,
			"max":[
				1.2319908142089844,
				0.4226532280445099,
				10.734848022460938
			],
			"min":[
				-3.789822816848755,
				-1.3350030183792114,
				-0.49710720777511597
			],
			"type":"VEC3"
		},
		{
			"bufferView":69,
			"componentType":5126,
			"count":186,
			"type":"VEC3"
		},
		{
			"bufferView":70,
			"componentType":5126,
			"count":186,
			"type":"VEC2"
		},
		{
			"bufferView":71,
			"componentType":5123,
			"count":288,
			"type":"SCALAR"
		}
	],
	"bufferViews":[
		{
			"buffer":0,
			"byteLength":6456,
			"byteOffset":0,
			"target":34962
		},
		{
			"buffer":0,
			"byteLength":6456,
			"byteOffset":6456,
			"target":34962
		},
		{
			"buffer":0,
			"byteLength":4304,
			"byteOffset":12912,
			"target":34962
		},
		{
			"buffer":0,
			"byteLength":1752,
			"byteOffset":17216,
			"target":34963
		},
		{
			"buffer":0,
			"byteLength":6816,
			"byteOffset":18968,
			"target":34962
		},
		{
			"buffer":0,
			"byteLength":6816,
			"byteOffset":25784,
			"target":34962
		},
		{
			"buffer":0,
			"byteLength":4544,
			"byteOffset":32600,
			"target":34962
		},
		{
			"buffer":0,
			"byteLength":1824,
			"byteOffset":37144,
			"target":34963
		},
		{
			"buffer":0,
			"byteLength":3480,
			"byteOffset":38968,
			"target":34962
		},
		{
			"buffer":0,
			"byteLength":3480,
			"byteOffset":42448,
			"target":34962
		},
		{
			"buffer":0,
			"byteLength":2320,
			"byteOffset":45928,
			"target":34962
		},
		{
			"buffer":0,
			"byteLength":912,
			"byteOffset":48248,
			"target":34963
		},
		{
			"buffer":0,
			"byteLength":485280,
			"byteOffset":49160,
			"target":34962
		},
		{
			"buffer":0,
			"byteLength":485280,
			"byteOffset":534440,
			"target":34962
		},
		{
			"buffer":0,
			"byteLength":323520,
			"byteOffset":1019720,
			"target":34962
		},
		{
			"buffer":0,
			"byteLength":106890,
			"byteOffset":1343240,
			"target":34963
		},
		{
			"buffer":0,
			"byteLength":1176,
			"byteOffset":1450132,
			"target":34962
		},
		{
			"buffer":0,
			"byteLength":1176,
			"byteOffset":1451308,
			"target":34962
		},
		{
			"buffer":0,
			"byteLength":784,
			"byteOffset":1452484,
			"target":34962
		},
		{
			"buffer":0,
			"byteLength":312,
			"byteOffset":1453268,
			"target":34963
		},
		{
			"buffer":0,
			"byteLength":11160,
			"byteOffset":1453580,
			"target":34962
		},
		{
			"buffer":0,
			"byteLength":11160,
			"byteOffset":1464740,
			"target":34962
		},
		{
			"buffer":0,
			"byteLength":7440,
			"byteOffset":1475900,
			"target":34962
		},
		{
			"buffer":0,
			"byteLength":1992,
			"byteOffset":1483340,
			"target":34963
		},
		{
			"buffer":0,
			"byteLength":1608,
			"byteOffset":1485332,
			"target":34962
		},
		{
			"buffer":0,
			"byteLength":1608,
			"byteOffset":1486940,
			"target":34962
		},
		{
			"buffer":0,
			"byteLength":1072,
			"byteOffset":1488548,
			"target":34962
		},
		{
			"buffer":0,
			"byteLength":390,
			"byteOffset":1489620,
			"target":34963
		},
		{
			"buffer":0,
			"byteLength":4248,
			"byteOffset":1490012,
			"target":34962
		},
		{
			"buffer":0,
			"byteLength":4248,
			"byteOffset":1494260,
			"target":34962
		},
		{
			"buffer":0,
			"byteLength":2832,
			"byteOffset":1498508,
			"target":34962
		},
		{
			"buffer":0,
			"byteLength":1164,
			"byteOffset":1501340,
			"target":34963
		},
		{
			"buffer":0,
			"byteLength":21492,
			"byteOffset":1502504,
			"target":34962
		},
		{
			"buffer":0,
			"byteLength":21492,
			"byteOffset":1523996,
			"target":34962
		},
		{
			"buffer":0,
			"byteLength":14328,
			"byteOffset":1545488,
			"target":34962
		},
		{
			"buffer":0,
			"byteLength":5340,
			"byteOffset":1559816,
			"target":34963
		},
		{
			"buffer":0,
			"byteLength":84828,
			"byteOffset":1565156,
			"target":34962
		},
		{
			"buffer":0,
			"byteLength":84828,
			"byteOffset":1649984,
			"target":34962
		},
		{
			"buffer":0,
			"byteLength":56552,
			"byteOffset":1734812,
			"target":34962
		},
		{
			"buffer":0,
			"byteLength":24768,
			"byteOffset":1791364,
			"target":34963
		},
		{
			"buffer":0,
			"byteLength":6372,
			"byteOffset":1816132,
			"target":34962
		},
		{
			"buffer":0,
			"byteLength":6372,
			"byteOffset":1822504,
			"target":34962
		},
		{
			"buffer":0,
			"byteLength":4248,
			"byteOffset":1828876,
			"target":34962
		},
		{
			"buffer":0,
			"byteLength":1680,
			"byteOffset":1833124,
			"target":34963
		},
		{
			"buffer":0,
			"byteLength":408,
			"byteOffset":1834804,
			"target":34962
		},
		{
			"buffer":0,
			"byteLength":408,
			"byteOffset":1835212,
			"target":34962
		},
		{
			"buffer":0,
			"byteLength":272,
			"byteOffset":1835620,
			"target":34962
		},
		{
			"buffer":0,
			"byteLength":96,
			"byteOffset":1835892,
			"target":34963
		},
		{
			"buffer":0,
			"byteLength":20388,
			"byteOffset":1835988,
			"target":34962
		},
		{
			"buffer":0,
			"byteLength":20388,
			"byteOffset":1856376,
			"target":34962
		},
		{
			"buffer":0,
			"byteLength":13592,
			"byteOffset":1876764,
			"target":34962
		},
		{
			"buffer":0,
			"byteLength":6120,
			"byteOffset":1890356,
			"target":34963
		},
		{
			"buffer":0,
			"byteLength":2952,
			"byteOffset":1896476,
			"target":34962
		},
		{
			"buffer":0,
			"byteLength":2952,
			"byteOffset":1899428,
			"target":34962
		},
		{
			"buffer":0,
			"byteLength":1968,
			"byteOffset":1902380,
			"target":34962
		},
		{
			"buffer":0,
			"byteLength":840,
			"byteOffset":1904348,
			"target":34963
		},
		{
			"buffer":0,
			"byteLength":288,
			"byteOffset":1905188,
			"target":34962
		},
		{
			"buffer":0,
			"byteLength":288,
			"byteOffset":1905476,
			"target":34962
		},
		{
			"buffer":0,
			"byteLength":192,
			"byteOffset":1905764,
			"target":34962
		},
		{
			"buffer":0,
			"byteLength":96,
			"byteOffset":1905956,
			"target":34963
		},
		{
			"buffer":0,
			"byteLength":1200,
			"byteOffset":1906052,
			"target":34962
		},
		{
			"buffer":0,
			"byteLength":1200,
			"byteOffset":1907252,
			"target":34962
		},
		{
			"buffer":0,
			"byteLength":800,
			"byteOffset":1908452,
			"target":34962
		},
		{
			"buffer":0,
			"byteLength":288,
			"byteOffset":1909252,
			"target":34963
		},
		{
			"buffer":0,
			"byteLength":2784,
			"byteOffset":1909540,
			"target":34962
		},
		{
			"buffer":0,
			"byteLength":2784,
			"byteOffset":1912324,
			"target":34962
		},
		{
			"buffer":0,
			"byteLength":1856,
			"byteOffset":1915108,
			"target":34962
		},
		{
			"buffer":0,
			"byteLength":672,
			"byteOffset":1916964,
			"target":34963
		},
		{
			"buffer":0,
			"byteLength":2232,
			"byteOffset":1917636,
			"target":34962
		},
		{
			"buffer":0,
			"byteLength":2232,
			"byteOffset":1919868,
			"target":34962
		},
		{
			"buffer":0,
			"byteLength":1488,
			"byteOffset":1922100,
			"target":34962
		},
		{
			"buffer":0,
			"byteLength":576,
			"byteOffset":1923588,
			"target":34963
		}
	],
	"buffers":[
		{
			"byteLength":1924164,
			"uri":"cell_x2_z-2_render.bin"
		}
	]
}
