{
	"asset":{
		"generator":"Khronos glTF Blender I/O v4.5.51",
		"version":"2.0"
	},
	"scene":0,
	"scenes":[
		{
			"name":"Scene",
			"nodes":[
				0
			]
		}
	],
	"nodes":[
		{
			"mesh":0,
			"name":"vallon_eau"
		}
	],
	"materials":[
		{
			"alphaMode":"BLEND",
			"doubleSided":true,
			"name":"eau_riviere",
			"pbrMetallicRoughness":{
				"baseColorFactor":[
					0.009134058840572834,
					0.14702726900577545,
					0.2622506618499756,
					0.8600000143051147
				],
				"metallicFactor":0,
				"roughnessFactor":0.9200000166893005
			}
		}
	],
	"meshes":[
		{
			"name":"riviere",
			"primitives":[
				{
					"attributes":{
						"POSITION":0,
						"NORMAL":1,
						"TEXCOORD_0":2,
						"COLOR_0":3
					},
					"indices":4,
					"material":0
				}
			]
		}
	],
	"accessors":[
		{
			"bufferView":0,
			"componentType":5126,
			"count":1276,
			"max":[
				-12.850029945373535,
				3.948930501937866,
				94.82070922851562
			],
			"min":[
				-53.67463302612305,
				-4.024084568023682,
				-94.82070922851562
			],
			"type":"VEC3"
		},
		{
			"bufferView":1,
			"componentType":5126,
			"count":1276,
			"type":"VEC3"
		},
		{
			"bufferView":2,
			"componentType":5126,
			"count":1276,
			"type":"VEC2"
		},
		{
			"bufferView":3,
			"componentType":5123,
			"count":1276,
			"normalized":true,
			"type":"VEC4"
		},
		{
			"bufferView":4,
			"componentType":5123,
			"count":3456,
			"type":"SCALAR"
		}
	],
	"bufferViews":[
		{
			"buffer":0,
			"byteLength":15312,
			"byteOffset":0,
			"target":34962
		},
		{
			"buffer":0,
			"byteLength":15312,
			"byteOffset":15312,
			"target":34962
		},
		{
			"buffer":0,
			"byteLength":10208,
			"byteOffset":30624,
			"target":34962
		},
		{
			"buffer":0,
			"byteLength":10208,
			"byteOffset":40832,
			"target":34962
		},
		{
			"buffer":0,
			"byteLength":6912,
			"byteOffset":51040,
			"target":34963
		}
	],
	"buffers":[
		{
			"byteLength":57952,
			"uri":"vallon_eau.bin"
		}
	]
}
