{
	"asset":{
		"generator":"Khronos glTF Blender I/O v4.5.51",
		"version":"2.0"
	},
	"scene":0,
	"scenes":[
		{
			"name":"Scene",
			"nodes":[
				0
			]
		}
	],
	"nodes":[
		{
			"mesh":0,
			"name":"vallon_portes",
			"rotation":[
				0,
				-0.04300643876194954,
				0,
				0.9990748167037964
			],
			"scale":[
				5.999999523162842,
				6,
				5.999999523162842
			],
			"translation":[
				87.5079345703125,
				-0.4058111906051636,
				28.892724990844727
			]
		}
	],
	"materials":[
		{
			"name":"hexagons_medieval",
			"pbrMetallicRoughness":{
				"baseColorTexture":{
					"index":0
				},
				"metallicFactor":0,
				"roughnessFactor":0.5
			}
		}
	],
	"meshes":[
		{
			"name":"wall_straight_gate_door_left",
			"primitives":[
				{
					"attributes":{
						"POSITION":0,
						"NORMAL":1,
						"TEXCOORD_0":2,
						"COLOR_0":3
					},
					"indices":4,
					"material":0
				}
			]
		}
	],
	"textures":[
		{
			"sampler":0,
			"source":0
		}
	],
	"images":[
		{
			"mimeType":"image/png",
			"name":"hexagons_medieval",
			"uri":"textures/hexagons_medieval.png"
		}
	],
	"accessors":[
		{
			"bufferView":0,
			"componentType":5126,
			"count":842,
			"max":[
				0.44999802112579346,
				0.8114722371101379,
				0.0889848917722702
			],
			"min":[
				-0.44999992847442627,
				0.020000005140900612,
				-0.088985376060009
			],
			"type":"VEC3"
		},
		{
			"bufferView":1,
			"componentType":5126,
			"count":842,
			"type":"VEC3"
		},
		{
			"bufferView":2,
			"componentType":5126,
			"count":842,
			"type":"VEC2"
		},
		{
			"bufferView":3,
			"componentType":5123,
			"count":842,
			"normalized":true,
			"type":"VEC4"
		},
		{
			"bufferView":4,
			"componentType":5123,
			"count":1440,
			"type":"SCALAR"
		}
	],
	"bufferViews":[
		{
			"buffer":0,
			"byteLength":10104,
			"byteOffset":0,
			"target":34962
		},
		{
			"buffer":0,
			"byteLength":10104,
			"byteOffset":10104,
			"target":34962
		},
		{
			"buffer":0,
			"byteLength":6736,
			"byteOffset":20208,
			"target":34962
		},
		{
			"buffer":0,
			"byteLength":6736,
			"byteOffset":26944,
			"target":34962
		},
		{
			"buffer":0,
			"byteLength":2880,
			"byteOffset":33680,
			"target":34963
		}
	],
	"samplers":[
		{
			"magFilter":9729,
			"minFilter":9987
		}
	],
	"buffers":[
		{
			"byteLength":36560,
			"uri":"vallon_portes.bin"
		}
	]
}
